M48
; DRILL file {KiCad (5.1.4)-1} date 2020/03/16 1:25:34
; FORMAT={-:-/ absolute / metric / decimal}
; #@! TF.CreationDate,2020-03-16T01:25:34+09:00
; #@! TF.GenerationSoftware,Kicad,Pcbnew,(5.1.4)-1
FMAT,2
METRIC
T1C0.800
T2C0.950
T3C1.000
T4C1.100
T5C1.700
T6C2.200
%
G90
G05
T1
X112.0Y-68.0
X112.0Y-78.5
X113.96Y-70.79
X126.0Y-77.5
X126.25Y-75.5
T2
X116.0Y-91.5
X118.5Y-91.5
X121.0Y-91.5
X123.5Y-91.5
X126.0Y-91.5
X129.0Y-57.0
X131.5Y-57.0
X134.0Y-57.0
X112.5Y-57.0
X115.0Y-57.0
X117.5Y-57.0
X120.0Y-57.0
T3
X113.96Y-65.0
X116.5Y-65.0
X119.04Y-65.0
T4
X136.5Y-89.92
X136.5Y-92.46
X136.5Y-95.0
T5
X142.0Y-60.12
X142.0Y-64.08
X142.0Y-68.04
X142.0Y-72.0
X142.0Y-78.12
X142.0Y-82.08
X142.0Y-86.04
X142.0Y-90.0
X108.0Y-78.0
X108.0Y-81.96
X108.0Y-85.92
X108.0Y-64.0
X108.0Y-67.96
X108.0Y-71.92
T6
X146.0Y-96.0
X104.0Y-96.0
X146.0Y-54.0
X104.0Y-54.0
T0
M30
