M48
; DRILL file {KiCad (5.1.4)-1} date 2020/03/11 12:39:26
; FORMAT={-:-/ absolute / metric / decimal}
; #@! TF.CreationDate,2020-03-11T12:39:26+09:00
; #@! TF.GenerationSoftware,Kicad,Pcbnew,(5.1.4)-1
; #@! TF.FileFunction,Plated,1,2,PTH
FMAT,2
METRIC
T1C1.000
T2C1.100
T3C1.700
%
G90
G05
T1
X116.62Y-76.5
T2
X101.5Y-73.5
X105.0Y-64.0
X105.25Y-59.0
X106.0Y-74.0
X106.5Y-66.5
X106.5Y-70.0
X114.4Y-66.0
X118.0Y-72.0
X118.5Y-61.0
X123.0Y-68.5
X126.0Y-81.5
X128.5Y-79.0
X131.0Y-63.0
X134.5Y-56.0
X134.5Y-79.0
X134.5Y-84.0
X111.0Y-82.92
X111.0Y-85.46
X111.0Y-88.0
X125.0Y-58.0
X125.0Y-60.54
X125.0Y-63.08
X107.88Y-56.0
X110.42Y-56.0
X112.96Y-56.0
X115.5Y-56.0
X118.04Y-56.0
X126.9Y-85.86
X126.9Y-88.4
X126.9Y-90.94
X109.0Y-76.5
X111.54Y-76.5
X114.08Y-76.5
T3
X101.0Y-62.0
X101.0Y-65.96
X101.0Y-69.92
X138.0Y-55.12
X138.0Y-59.08
X138.0Y-63.04
X138.0Y-67.0
X138.0Y-80.0
X138.0Y-83.96
X138.0Y-87.92
X138.0Y-91.88
X101.0Y-77.0
X101.0Y-80.96
X101.0Y-84.92
T0
M30
