G04 #@! TF.GenerationSoftware,KiCad,Pcbnew,(5.1.4)-1*
G04 #@! TF.CreationDate,2020-03-11T12:39:24+09:00*
G04 #@! TF.ProjectId,QX20CTRLV3,51583230-4354-4524-9c56-332e6b696361,rev?*
G04 #@! TF.SameCoordinates,Original*
G04 #@! TF.FileFunction,Copper,L2,Bot*
G04 #@! TF.FilePolarity,Positive*
%FSLAX46Y46*%
G04 Gerber Fmt 4.6, Leading zero omitted, Abs format (unit mm)*
G04 Created by KiCad (PCBNEW (5.1.4)-1) date 2020-03-11 12:39:24*
%MOMM*%
%LPD*%
G04 APERTURE LIST*
%ADD10R,2.700000X2.700000*%
%ADD11R,1.700000X1.700000*%
%ADD12C,0.100000*%
%ADD13C,0.600000*%
%ADD14C,0.500000*%
%ADD15R,2.000000X1.905000*%
%ADD16R,0.900000X0.800000*%
%ADD17C,1.425000*%
%ADD18C,1.700000*%
%ADD19C,1.500000*%
%ADD20C,0.500000*%
%ADD21C,1.000000*%
%ADD22C,0.254000*%
%ADD23C,0.550000*%
G04 APERTURE END LIST*
D10*
X138000000Y-67000000D03*
X138000000Y-63040000D03*
X138000000Y-59080000D03*
X138000000Y-55120000D03*
X138000000Y-91880000D03*
X138000000Y-87920000D03*
X138000000Y-83960000D03*
X138000000Y-80000000D03*
D11*
X107880000Y-56000000D03*
X110420000Y-56000000D03*
X112960000Y-56000000D03*
X115500000Y-56000000D03*
X118040000Y-56000000D03*
X116620000Y-76500000D03*
X114080000Y-76500000D03*
X111540000Y-76500000D03*
X109000000Y-76500000D03*
X125000000Y-58000000D03*
X125000000Y-60540000D03*
X125000000Y-63080000D03*
D12*
G36*
X121259703Y-75500722D02*
G01*
X121274264Y-75502882D01*
X121288543Y-75506459D01*
X121302403Y-75511418D01*
X121315710Y-75517712D01*
X121328336Y-75525280D01*
X121340159Y-75534048D01*
X121351066Y-75543934D01*
X121360952Y-75554841D01*
X121369720Y-75566664D01*
X121377288Y-75579290D01*
X121383582Y-75592597D01*
X121388541Y-75606457D01*
X121392118Y-75620736D01*
X121394278Y-75635297D01*
X121395000Y-75650000D01*
X121395000Y-77300000D01*
X121394278Y-77314703D01*
X121392118Y-77329264D01*
X121388541Y-77343543D01*
X121383582Y-77357403D01*
X121377288Y-77370710D01*
X121369720Y-77383336D01*
X121360952Y-77395159D01*
X121351066Y-77406066D01*
X121340159Y-77415952D01*
X121328336Y-77424720D01*
X121315710Y-77432288D01*
X121302403Y-77438582D01*
X121288543Y-77443541D01*
X121274264Y-77447118D01*
X121259703Y-77449278D01*
X121245000Y-77450000D01*
X120945000Y-77450000D01*
X120930297Y-77449278D01*
X120915736Y-77447118D01*
X120901457Y-77443541D01*
X120887597Y-77438582D01*
X120874290Y-77432288D01*
X120861664Y-77424720D01*
X120849841Y-77415952D01*
X120838934Y-77406066D01*
X120829048Y-77395159D01*
X120820280Y-77383336D01*
X120812712Y-77370710D01*
X120806418Y-77357403D01*
X120801459Y-77343543D01*
X120797882Y-77329264D01*
X120795722Y-77314703D01*
X120795000Y-77300000D01*
X120795000Y-75650000D01*
X120795722Y-75635297D01*
X120797882Y-75620736D01*
X120801459Y-75606457D01*
X120806418Y-75592597D01*
X120812712Y-75579290D01*
X120820280Y-75566664D01*
X120829048Y-75554841D01*
X120838934Y-75543934D01*
X120849841Y-75534048D01*
X120861664Y-75525280D01*
X120874290Y-75517712D01*
X120887597Y-75511418D01*
X120901457Y-75506459D01*
X120915736Y-75502882D01*
X120930297Y-75500722D01*
X120945000Y-75500000D01*
X121245000Y-75500000D01*
X121259703Y-75500722D01*
X121259703Y-75500722D01*
G37*
D13*
X121095000Y-76475000D03*
D12*
G36*
X122529703Y-75500722D02*
G01*
X122544264Y-75502882D01*
X122558543Y-75506459D01*
X122572403Y-75511418D01*
X122585710Y-75517712D01*
X122598336Y-75525280D01*
X122610159Y-75534048D01*
X122621066Y-75543934D01*
X122630952Y-75554841D01*
X122639720Y-75566664D01*
X122647288Y-75579290D01*
X122653582Y-75592597D01*
X122658541Y-75606457D01*
X122662118Y-75620736D01*
X122664278Y-75635297D01*
X122665000Y-75650000D01*
X122665000Y-77300000D01*
X122664278Y-77314703D01*
X122662118Y-77329264D01*
X122658541Y-77343543D01*
X122653582Y-77357403D01*
X122647288Y-77370710D01*
X122639720Y-77383336D01*
X122630952Y-77395159D01*
X122621066Y-77406066D01*
X122610159Y-77415952D01*
X122598336Y-77424720D01*
X122585710Y-77432288D01*
X122572403Y-77438582D01*
X122558543Y-77443541D01*
X122544264Y-77447118D01*
X122529703Y-77449278D01*
X122515000Y-77450000D01*
X122215000Y-77450000D01*
X122200297Y-77449278D01*
X122185736Y-77447118D01*
X122171457Y-77443541D01*
X122157597Y-77438582D01*
X122144290Y-77432288D01*
X122131664Y-77424720D01*
X122119841Y-77415952D01*
X122108934Y-77406066D01*
X122099048Y-77395159D01*
X122090280Y-77383336D01*
X122082712Y-77370710D01*
X122076418Y-77357403D01*
X122071459Y-77343543D01*
X122067882Y-77329264D01*
X122065722Y-77314703D01*
X122065000Y-77300000D01*
X122065000Y-75650000D01*
X122065722Y-75635297D01*
X122067882Y-75620736D01*
X122071459Y-75606457D01*
X122076418Y-75592597D01*
X122082712Y-75579290D01*
X122090280Y-75566664D01*
X122099048Y-75554841D01*
X122108934Y-75543934D01*
X122119841Y-75534048D01*
X122131664Y-75525280D01*
X122144290Y-75517712D01*
X122157597Y-75511418D01*
X122171457Y-75506459D01*
X122185736Y-75502882D01*
X122200297Y-75500722D01*
X122215000Y-75500000D01*
X122515000Y-75500000D01*
X122529703Y-75500722D01*
X122529703Y-75500722D01*
G37*
D13*
X122365000Y-76475000D03*
D12*
G36*
X123799703Y-75500722D02*
G01*
X123814264Y-75502882D01*
X123828543Y-75506459D01*
X123842403Y-75511418D01*
X123855710Y-75517712D01*
X123868336Y-75525280D01*
X123880159Y-75534048D01*
X123891066Y-75543934D01*
X123900952Y-75554841D01*
X123909720Y-75566664D01*
X123917288Y-75579290D01*
X123923582Y-75592597D01*
X123928541Y-75606457D01*
X123932118Y-75620736D01*
X123934278Y-75635297D01*
X123935000Y-75650000D01*
X123935000Y-77300000D01*
X123934278Y-77314703D01*
X123932118Y-77329264D01*
X123928541Y-77343543D01*
X123923582Y-77357403D01*
X123917288Y-77370710D01*
X123909720Y-77383336D01*
X123900952Y-77395159D01*
X123891066Y-77406066D01*
X123880159Y-77415952D01*
X123868336Y-77424720D01*
X123855710Y-77432288D01*
X123842403Y-77438582D01*
X123828543Y-77443541D01*
X123814264Y-77447118D01*
X123799703Y-77449278D01*
X123785000Y-77450000D01*
X123485000Y-77450000D01*
X123470297Y-77449278D01*
X123455736Y-77447118D01*
X123441457Y-77443541D01*
X123427597Y-77438582D01*
X123414290Y-77432288D01*
X123401664Y-77424720D01*
X123389841Y-77415952D01*
X123378934Y-77406066D01*
X123369048Y-77395159D01*
X123360280Y-77383336D01*
X123352712Y-77370710D01*
X123346418Y-77357403D01*
X123341459Y-77343543D01*
X123337882Y-77329264D01*
X123335722Y-77314703D01*
X123335000Y-77300000D01*
X123335000Y-75650000D01*
X123335722Y-75635297D01*
X123337882Y-75620736D01*
X123341459Y-75606457D01*
X123346418Y-75592597D01*
X123352712Y-75579290D01*
X123360280Y-75566664D01*
X123369048Y-75554841D01*
X123378934Y-75543934D01*
X123389841Y-75534048D01*
X123401664Y-75525280D01*
X123414290Y-75517712D01*
X123427597Y-75511418D01*
X123441457Y-75506459D01*
X123455736Y-75502882D01*
X123470297Y-75500722D01*
X123485000Y-75500000D01*
X123785000Y-75500000D01*
X123799703Y-75500722D01*
X123799703Y-75500722D01*
G37*
D13*
X123635000Y-76475000D03*
D12*
G36*
X125069703Y-75500722D02*
G01*
X125084264Y-75502882D01*
X125098543Y-75506459D01*
X125112403Y-75511418D01*
X125125710Y-75517712D01*
X125138336Y-75525280D01*
X125150159Y-75534048D01*
X125161066Y-75543934D01*
X125170952Y-75554841D01*
X125179720Y-75566664D01*
X125187288Y-75579290D01*
X125193582Y-75592597D01*
X125198541Y-75606457D01*
X125202118Y-75620736D01*
X125204278Y-75635297D01*
X125205000Y-75650000D01*
X125205000Y-77300000D01*
X125204278Y-77314703D01*
X125202118Y-77329264D01*
X125198541Y-77343543D01*
X125193582Y-77357403D01*
X125187288Y-77370710D01*
X125179720Y-77383336D01*
X125170952Y-77395159D01*
X125161066Y-77406066D01*
X125150159Y-77415952D01*
X125138336Y-77424720D01*
X125125710Y-77432288D01*
X125112403Y-77438582D01*
X125098543Y-77443541D01*
X125084264Y-77447118D01*
X125069703Y-77449278D01*
X125055000Y-77450000D01*
X124755000Y-77450000D01*
X124740297Y-77449278D01*
X124725736Y-77447118D01*
X124711457Y-77443541D01*
X124697597Y-77438582D01*
X124684290Y-77432288D01*
X124671664Y-77424720D01*
X124659841Y-77415952D01*
X124648934Y-77406066D01*
X124639048Y-77395159D01*
X124630280Y-77383336D01*
X124622712Y-77370710D01*
X124616418Y-77357403D01*
X124611459Y-77343543D01*
X124607882Y-77329264D01*
X124605722Y-77314703D01*
X124605000Y-77300000D01*
X124605000Y-75650000D01*
X124605722Y-75635297D01*
X124607882Y-75620736D01*
X124611459Y-75606457D01*
X124616418Y-75592597D01*
X124622712Y-75579290D01*
X124630280Y-75566664D01*
X124639048Y-75554841D01*
X124648934Y-75543934D01*
X124659841Y-75534048D01*
X124671664Y-75525280D01*
X124684290Y-75517712D01*
X124697597Y-75511418D01*
X124711457Y-75506459D01*
X124725736Y-75502882D01*
X124740297Y-75500722D01*
X124755000Y-75500000D01*
X125055000Y-75500000D01*
X125069703Y-75500722D01*
X125069703Y-75500722D01*
G37*
D13*
X124905000Y-76475000D03*
D12*
G36*
X125069703Y-70550722D02*
G01*
X125084264Y-70552882D01*
X125098543Y-70556459D01*
X125112403Y-70561418D01*
X125125710Y-70567712D01*
X125138336Y-70575280D01*
X125150159Y-70584048D01*
X125161066Y-70593934D01*
X125170952Y-70604841D01*
X125179720Y-70616664D01*
X125187288Y-70629290D01*
X125193582Y-70642597D01*
X125198541Y-70656457D01*
X125202118Y-70670736D01*
X125204278Y-70685297D01*
X125205000Y-70700000D01*
X125205000Y-72350000D01*
X125204278Y-72364703D01*
X125202118Y-72379264D01*
X125198541Y-72393543D01*
X125193582Y-72407403D01*
X125187288Y-72420710D01*
X125179720Y-72433336D01*
X125170952Y-72445159D01*
X125161066Y-72456066D01*
X125150159Y-72465952D01*
X125138336Y-72474720D01*
X125125710Y-72482288D01*
X125112403Y-72488582D01*
X125098543Y-72493541D01*
X125084264Y-72497118D01*
X125069703Y-72499278D01*
X125055000Y-72500000D01*
X124755000Y-72500000D01*
X124740297Y-72499278D01*
X124725736Y-72497118D01*
X124711457Y-72493541D01*
X124697597Y-72488582D01*
X124684290Y-72482288D01*
X124671664Y-72474720D01*
X124659841Y-72465952D01*
X124648934Y-72456066D01*
X124639048Y-72445159D01*
X124630280Y-72433336D01*
X124622712Y-72420710D01*
X124616418Y-72407403D01*
X124611459Y-72393543D01*
X124607882Y-72379264D01*
X124605722Y-72364703D01*
X124605000Y-72350000D01*
X124605000Y-70700000D01*
X124605722Y-70685297D01*
X124607882Y-70670736D01*
X124611459Y-70656457D01*
X124616418Y-70642597D01*
X124622712Y-70629290D01*
X124630280Y-70616664D01*
X124639048Y-70604841D01*
X124648934Y-70593934D01*
X124659841Y-70584048D01*
X124671664Y-70575280D01*
X124684290Y-70567712D01*
X124697597Y-70561418D01*
X124711457Y-70556459D01*
X124725736Y-70552882D01*
X124740297Y-70550722D01*
X124755000Y-70550000D01*
X125055000Y-70550000D01*
X125069703Y-70550722D01*
X125069703Y-70550722D01*
G37*
D13*
X124905000Y-71525000D03*
D12*
G36*
X123799703Y-70550722D02*
G01*
X123814264Y-70552882D01*
X123828543Y-70556459D01*
X123842403Y-70561418D01*
X123855710Y-70567712D01*
X123868336Y-70575280D01*
X123880159Y-70584048D01*
X123891066Y-70593934D01*
X123900952Y-70604841D01*
X123909720Y-70616664D01*
X123917288Y-70629290D01*
X123923582Y-70642597D01*
X123928541Y-70656457D01*
X123932118Y-70670736D01*
X123934278Y-70685297D01*
X123935000Y-70700000D01*
X123935000Y-72350000D01*
X123934278Y-72364703D01*
X123932118Y-72379264D01*
X123928541Y-72393543D01*
X123923582Y-72407403D01*
X123917288Y-72420710D01*
X123909720Y-72433336D01*
X123900952Y-72445159D01*
X123891066Y-72456066D01*
X123880159Y-72465952D01*
X123868336Y-72474720D01*
X123855710Y-72482288D01*
X123842403Y-72488582D01*
X123828543Y-72493541D01*
X123814264Y-72497118D01*
X123799703Y-72499278D01*
X123785000Y-72500000D01*
X123485000Y-72500000D01*
X123470297Y-72499278D01*
X123455736Y-72497118D01*
X123441457Y-72493541D01*
X123427597Y-72488582D01*
X123414290Y-72482288D01*
X123401664Y-72474720D01*
X123389841Y-72465952D01*
X123378934Y-72456066D01*
X123369048Y-72445159D01*
X123360280Y-72433336D01*
X123352712Y-72420710D01*
X123346418Y-72407403D01*
X123341459Y-72393543D01*
X123337882Y-72379264D01*
X123335722Y-72364703D01*
X123335000Y-72350000D01*
X123335000Y-70700000D01*
X123335722Y-70685297D01*
X123337882Y-70670736D01*
X123341459Y-70656457D01*
X123346418Y-70642597D01*
X123352712Y-70629290D01*
X123360280Y-70616664D01*
X123369048Y-70604841D01*
X123378934Y-70593934D01*
X123389841Y-70584048D01*
X123401664Y-70575280D01*
X123414290Y-70567712D01*
X123427597Y-70561418D01*
X123441457Y-70556459D01*
X123455736Y-70552882D01*
X123470297Y-70550722D01*
X123485000Y-70550000D01*
X123785000Y-70550000D01*
X123799703Y-70550722D01*
X123799703Y-70550722D01*
G37*
D13*
X123635000Y-71525000D03*
D12*
G36*
X122529703Y-70550722D02*
G01*
X122544264Y-70552882D01*
X122558543Y-70556459D01*
X122572403Y-70561418D01*
X122585710Y-70567712D01*
X122598336Y-70575280D01*
X122610159Y-70584048D01*
X122621066Y-70593934D01*
X122630952Y-70604841D01*
X122639720Y-70616664D01*
X122647288Y-70629290D01*
X122653582Y-70642597D01*
X122658541Y-70656457D01*
X122662118Y-70670736D01*
X122664278Y-70685297D01*
X122665000Y-70700000D01*
X122665000Y-72350000D01*
X122664278Y-72364703D01*
X122662118Y-72379264D01*
X122658541Y-72393543D01*
X122653582Y-72407403D01*
X122647288Y-72420710D01*
X122639720Y-72433336D01*
X122630952Y-72445159D01*
X122621066Y-72456066D01*
X122610159Y-72465952D01*
X122598336Y-72474720D01*
X122585710Y-72482288D01*
X122572403Y-72488582D01*
X122558543Y-72493541D01*
X122544264Y-72497118D01*
X122529703Y-72499278D01*
X122515000Y-72500000D01*
X122215000Y-72500000D01*
X122200297Y-72499278D01*
X122185736Y-72497118D01*
X122171457Y-72493541D01*
X122157597Y-72488582D01*
X122144290Y-72482288D01*
X122131664Y-72474720D01*
X122119841Y-72465952D01*
X122108934Y-72456066D01*
X122099048Y-72445159D01*
X122090280Y-72433336D01*
X122082712Y-72420710D01*
X122076418Y-72407403D01*
X122071459Y-72393543D01*
X122067882Y-72379264D01*
X122065722Y-72364703D01*
X122065000Y-72350000D01*
X122065000Y-70700000D01*
X122065722Y-70685297D01*
X122067882Y-70670736D01*
X122071459Y-70656457D01*
X122076418Y-70642597D01*
X122082712Y-70629290D01*
X122090280Y-70616664D01*
X122099048Y-70604841D01*
X122108934Y-70593934D01*
X122119841Y-70584048D01*
X122131664Y-70575280D01*
X122144290Y-70567712D01*
X122157597Y-70561418D01*
X122171457Y-70556459D01*
X122185736Y-70552882D01*
X122200297Y-70550722D01*
X122215000Y-70550000D01*
X122515000Y-70550000D01*
X122529703Y-70550722D01*
X122529703Y-70550722D01*
G37*
D13*
X122365000Y-71525000D03*
D12*
G36*
X121259703Y-70550722D02*
G01*
X121274264Y-70552882D01*
X121288543Y-70556459D01*
X121302403Y-70561418D01*
X121315710Y-70567712D01*
X121328336Y-70575280D01*
X121340159Y-70584048D01*
X121351066Y-70593934D01*
X121360952Y-70604841D01*
X121369720Y-70616664D01*
X121377288Y-70629290D01*
X121383582Y-70642597D01*
X121388541Y-70656457D01*
X121392118Y-70670736D01*
X121394278Y-70685297D01*
X121395000Y-70700000D01*
X121395000Y-72350000D01*
X121394278Y-72364703D01*
X121392118Y-72379264D01*
X121388541Y-72393543D01*
X121383582Y-72407403D01*
X121377288Y-72420710D01*
X121369720Y-72433336D01*
X121360952Y-72445159D01*
X121351066Y-72456066D01*
X121340159Y-72465952D01*
X121328336Y-72474720D01*
X121315710Y-72482288D01*
X121302403Y-72488582D01*
X121288543Y-72493541D01*
X121274264Y-72497118D01*
X121259703Y-72499278D01*
X121245000Y-72500000D01*
X120945000Y-72500000D01*
X120930297Y-72499278D01*
X120915736Y-72497118D01*
X120901457Y-72493541D01*
X120887597Y-72488582D01*
X120874290Y-72482288D01*
X120861664Y-72474720D01*
X120849841Y-72465952D01*
X120838934Y-72456066D01*
X120829048Y-72445159D01*
X120820280Y-72433336D01*
X120812712Y-72420710D01*
X120806418Y-72407403D01*
X120801459Y-72393543D01*
X120797882Y-72379264D01*
X120795722Y-72364703D01*
X120795000Y-72350000D01*
X120795000Y-70700000D01*
X120795722Y-70685297D01*
X120797882Y-70670736D01*
X120801459Y-70656457D01*
X120806418Y-70642597D01*
X120812712Y-70629290D01*
X120820280Y-70616664D01*
X120829048Y-70604841D01*
X120838934Y-70593934D01*
X120849841Y-70584048D01*
X120861664Y-70575280D01*
X120874290Y-70567712D01*
X120887597Y-70561418D01*
X120901457Y-70556459D01*
X120915736Y-70552882D01*
X120930297Y-70550722D01*
X120945000Y-70550000D01*
X121245000Y-70550000D01*
X121259703Y-70550722D01*
X121259703Y-70550722D01*
G37*
D13*
X121095000Y-71525000D03*
D12*
G36*
X109462252Y-68550602D02*
G01*
X109474386Y-68552402D01*
X109486286Y-68555382D01*
X109497835Y-68559515D01*
X109508925Y-68564760D01*
X109519446Y-68571066D01*
X109529299Y-68578374D01*
X109538388Y-68586612D01*
X109546626Y-68595701D01*
X109553934Y-68605554D01*
X109560240Y-68616075D01*
X109565485Y-68627165D01*
X109569618Y-68638714D01*
X109572598Y-68650614D01*
X109574398Y-68662748D01*
X109575000Y-68675000D01*
X109575000Y-68925000D01*
X109574398Y-68937252D01*
X109572598Y-68949386D01*
X109569618Y-68961286D01*
X109565485Y-68972835D01*
X109560240Y-68983925D01*
X109553934Y-68994446D01*
X109546626Y-69004299D01*
X109538388Y-69013388D01*
X109529299Y-69021626D01*
X109519446Y-69028934D01*
X109508925Y-69035240D01*
X109497835Y-69040485D01*
X109486286Y-69044618D01*
X109474386Y-69047598D01*
X109462252Y-69049398D01*
X109450000Y-69050000D01*
X108200000Y-69050000D01*
X108187748Y-69049398D01*
X108175614Y-69047598D01*
X108163714Y-69044618D01*
X108152165Y-69040485D01*
X108141075Y-69035240D01*
X108130554Y-69028934D01*
X108120701Y-69021626D01*
X108111612Y-69013388D01*
X108103374Y-69004299D01*
X108096066Y-68994446D01*
X108089760Y-68983925D01*
X108084515Y-68972835D01*
X108080382Y-68961286D01*
X108077402Y-68949386D01*
X108075602Y-68937252D01*
X108075000Y-68925000D01*
X108075000Y-68675000D01*
X108075602Y-68662748D01*
X108077402Y-68650614D01*
X108080382Y-68638714D01*
X108084515Y-68627165D01*
X108089760Y-68616075D01*
X108096066Y-68605554D01*
X108103374Y-68595701D01*
X108111612Y-68586612D01*
X108120701Y-68578374D01*
X108130554Y-68571066D01*
X108141075Y-68564760D01*
X108152165Y-68559515D01*
X108163714Y-68555382D01*
X108175614Y-68552402D01*
X108187748Y-68550602D01*
X108200000Y-68550000D01*
X109450000Y-68550000D01*
X109462252Y-68550602D01*
X109462252Y-68550602D01*
G37*
D14*
X108825000Y-68800000D03*
D12*
G36*
X109462252Y-67750602D02*
G01*
X109474386Y-67752402D01*
X109486286Y-67755382D01*
X109497835Y-67759515D01*
X109508925Y-67764760D01*
X109519446Y-67771066D01*
X109529299Y-67778374D01*
X109538388Y-67786612D01*
X109546626Y-67795701D01*
X109553934Y-67805554D01*
X109560240Y-67816075D01*
X109565485Y-67827165D01*
X109569618Y-67838714D01*
X109572598Y-67850614D01*
X109574398Y-67862748D01*
X109575000Y-67875000D01*
X109575000Y-68125000D01*
X109574398Y-68137252D01*
X109572598Y-68149386D01*
X109569618Y-68161286D01*
X109565485Y-68172835D01*
X109560240Y-68183925D01*
X109553934Y-68194446D01*
X109546626Y-68204299D01*
X109538388Y-68213388D01*
X109529299Y-68221626D01*
X109519446Y-68228934D01*
X109508925Y-68235240D01*
X109497835Y-68240485D01*
X109486286Y-68244618D01*
X109474386Y-68247598D01*
X109462252Y-68249398D01*
X109450000Y-68250000D01*
X108200000Y-68250000D01*
X108187748Y-68249398D01*
X108175614Y-68247598D01*
X108163714Y-68244618D01*
X108152165Y-68240485D01*
X108141075Y-68235240D01*
X108130554Y-68228934D01*
X108120701Y-68221626D01*
X108111612Y-68213388D01*
X108103374Y-68204299D01*
X108096066Y-68194446D01*
X108089760Y-68183925D01*
X108084515Y-68172835D01*
X108080382Y-68161286D01*
X108077402Y-68149386D01*
X108075602Y-68137252D01*
X108075000Y-68125000D01*
X108075000Y-67875000D01*
X108075602Y-67862748D01*
X108077402Y-67850614D01*
X108080382Y-67838714D01*
X108084515Y-67827165D01*
X108089760Y-67816075D01*
X108096066Y-67805554D01*
X108103374Y-67795701D01*
X108111612Y-67786612D01*
X108120701Y-67778374D01*
X108130554Y-67771066D01*
X108141075Y-67764760D01*
X108152165Y-67759515D01*
X108163714Y-67755382D01*
X108175614Y-67752402D01*
X108187748Y-67750602D01*
X108200000Y-67750000D01*
X109450000Y-67750000D01*
X109462252Y-67750602D01*
X109462252Y-67750602D01*
G37*
D14*
X108825000Y-68000000D03*
D12*
G36*
X109462252Y-66950602D02*
G01*
X109474386Y-66952402D01*
X109486286Y-66955382D01*
X109497835Y-66959515D01*
X109508925Y-66964760D01*
X109519446Y-66971066D01*
X109529299Y-66978374D01*
X109538388Y-66986612D01*
X109546626Y-66995701D01*
X109553934Y-67005554D01*
X109560240Y-67016075D01*
X109565485Y-67027165D01*
X109569618Y-67038714D01*
X109572598Y-67050614D01*
X109574398Y-67062748D01*
X109575000Y-67075000D01*
X109575000Y-67325000D01*
X109574398Y-67337252D01*
X109572598Y-67349386D01*
X109569618Y-67361286D01*
X109565485Y-67372835D01*
X109560240Y-67383925D01*
X109553934Y-67394446D01*
X109546626Y-67404299D01*
X109538388Y-67413388D01*
X109529299Y-67421626D01*
X109519446Y-67428934D01*
X109508925Y-67435240D01*
X109497835Y-67440485D01*
X109486286Y-67444618D01*
X109474386Y-67447598D01*
X109462252Y-67449398D01*
X109450000Y-67450000D01*
X108200000Y-67450000D01*
X108187748Y-67449398D01*
X108175614Y-67447598D01*
X108163714Y-67444618D01*
X108152165Y-67440485D01*
X108141075Y-67435240D01*
X108130554Y-67428934D01*
X108120701Y-67421626D01*
X108111612Y-67413388D01*
X108103374Y-67404299D01*
X108096066Y-67394446D01*
X108089760Y-67383925D01*
X108084515Y-67372835D01*
X108080382Y-67361286D01*
X108077402Y-67349386D01*
X108075602Y-67337252D01*
X108075000Y-67325000D01*
X108075000Y-67075000D01*
X108075602Y-67062748D01*
X108077402Y-67050614D01*
X108080382Y-67038714D01*
X108084515Y-67027165D01*
X108089760Y-67016075D01*
X108096066Y-67005554D01*
X108103374Y-66995701D01*
X108111612Y-66986612D01*
X108120701Y-66978374D01*
X108130554Y-66971066D01*
X108141075Y-66964760D01*
X108152165Y-66959515D01*
X108163714Y-66955382D01*
X108175614Y-66952402D01*
X108187748Y-66950602D01*
X108200000Y-66950000D01*
X109450000Y-66950000D01*
X109462252Y-66950602D01*
X109462252Y-66950602D01*
G37*
D14*
X108825000Y-67200000D03*
D12*
G36*
X109462252Y-66150602D02*
G01*
X109474386Y-66152402D01*
X109486286Y-66155382D01*
X109497835Y-66159515D01*
X109508925Y-66164760D01*
X109519446Y-66171066D01*
X109529299Y-66178374D01*
X109538388Y-66186612D01*
X109546626Y-66195701D01*
X109553934Y-66205554D01*
X109560240Y-66216075D01*
X109565485Y-66227165D01*
X109569618Y-66238714D01*
X109572598Y-66250614D01*
X109574398Y-66262748D01*
X109575000Y-66275000D01*
X109575000Y-66525000D01*
X109574398Y-66537252D01*
X109572598Y-66549386D01*
X109569618Y-66561286D01*
X109565485Y-66572835D01*
X109560240Y-66583925D01*
X109553934Y-66594446D01*
X109546626Y-66604299D01*
X109538388Y-66613388D01*
X109529299Y-66621626D01*
X109519446Y-66628934D01*
X109508925Y-66635240D01*
X109497835Y-66640485D01*
X109486286Y-66644618D01*
X109474386Y-66647598D01*
X109462252Y-66649398D01*
X109450000Y-66650000D01*
X108200000Y-66650000D01*
X108187748Y-66649398D01*
X108175614Y-66647598D01*
X108163714Y-66644618D01*
X108152165Y-66640485D01*
X108141075Y-66635240D01*
X108130554Y-66628934D01*
X108120701Y-66621626D01*
X108111612Y-66613388D01*
X108103374Y-66604299D01*
X108096066Y-66594446D01*
X108089760Y-66583925D01*
X108084515Y-66572835D01*
X108080382Y-66561286D01*
X108077402Y-66549386D01*
X108075602Y-66537252D01*
X108075000Y-66525000D01*
X108075000Y-66275000D01*
X108075602Y-66262748D01*
X108077402Y-66250614D01*
X108080382Y-66238714D01*
X108084515Y-66227165D01*
X108089760Y-66216075D01*
X108096066Y-66205554D01*
X108103374Y-66195701D01*
X108111612Y-66186612D01*
X108120701Y-66178374D01*
X108130554Y-66171066D01*
X108141075Y-66164760D01*
X108152165Y-66159515D01*
X108163714Y-66155382D01*
X108175614Y-66152402D01*
X108187748Y-66150602D01*
X108200000Y-66150000D01*
X109450000Y-66150000D01*
X109462252Y-66150602D01*
X109462252Y-66150602D01*
G37*
D14*
X108825000Y-66400000D03*
D12*
G36*
X109462252Y-65350602D02*
G01*
X109474386Y-65352402D01*
X109486286Y-65355382D01*
X109497835Y-65359515D01*
X109508925Y-65364760D01*
X109519446Y-65371066D01*
X109529299Y-65378374D01*
X109538388Y-65386612D01*
X109546626Y-65395701D01*
X109553934Y-65405554D01*
X109560240Y-65416075D01*
X109565485Y-65427165D01*
X109569618Y-65438714D01*
X109572598Y-65450614D01*
X109574398Y-65462748D01*
X109575000Y-65475000D01*
X109575000Y-65725000D01*
X109574398Y-65737252D01*
X109572598Y-65749386D01*
X109569618Y-65761286D01*
X109565485Y-65772835D01*
X109560240Y-65783925D01*
X109553934Y-65794446D01*
X109546626Y-65804299D01*
X109538388Y-65813388D01*
X109529299Y-65821626D01*
X109519446Y-65828934D01*
X109508925Y-65835240D01*
X109497835Y-65840485D01*
X109486286Y-65844618D01*
X109474386Y-65847598D01*
X109462252Y-65849398D01*
X109450000Y-65850000D01*
X108200000Y-65850000D01*
X108187748Y-65849398D01*
X108175614Y-65847598D01*
X108163714Y-65844618D01*
X108152165Y-65840485D01*
X108141075Y-65835240D01*
X108130554Y-65828934D01*
X108120701Y-65821626D01*
X108111612Y-65813388D01*
X108103374Y-65804299D01*
X108096066Y-65794446D01*
X108089760Y-65783925D01*
X108084515Y-65772835D01*
X108080382Y-65761286D01*
X108077402Y-65749386D01*
X108075602Y-65737252D01*
X108075000Y-65725000D01*
X108075000Y-65475000D01*
X108075602Y-65462748D01*
X108077402Y-65450614D01*
X108080382Y-65438714D01*
X108084515Y-65427165D01*
X108089760Y-65416075D01*
X108096066Y-65405554D01*
X108103374Y-65395701D01*
X108111612Y-65386612D01*
X108120701Y-65378374D01*
X108130554Y-65371066D01*
X108141075Y-65364760D01*
X108152165Y-65359515D01*
X108163714Y-65355382D01*
X108175614Y-65352402D01*
X108187748Y-65350602D01*
X108200000Y-65350000D01*
X109450000Y-65350000D01*
X109462252Y-65350602D01*
X109462252Y-65350602D01*
G37*
D14*
X108825000Y-65600000D03*
D12*
G36*
X109462252Y-64550602D02*
G01*
X109474386Y-64552402D01*
X109486286Y-64555382D01*
X109497835Y-64559515D01*
X109508925Y-64564760D01*
X109519446Y-64571066D01*
X109529299Y-64578374D01*
X109538388Y-64586612D01*
X109546626Y-64595701D01*
X109553934Y-64605554D01*
X109560240Y-64616075D01*
X109565485Y-64627165D01*
X109569618Y-64638714D01*
X109572598Y-64650614D01*
X109574398Y-64662748D01*
X109575000Y-64675000D01*
X109575000Y-64925000D01*
X109574398Y-64937252D01*
X109572598Y-64949386D01*
X109569618Y-64961286D01*
X109565485Y-64972835D01*
X109560240Y-64983925D01*
X109553934Y-64994446D01*
X109546626Y-65004299D01*
X109538388Y-65013388D01*
X109529299Y-65021626D01*
X109519446Y-65028934D01*
X109508925Y-65035240D01*
X109497835Y-65040485D01*
X109486286Y-65044618D01*
X109474386Y-65047598D01*
X109462252Y-65049398D01*
X109450000Y-65050000D01*
X108200000Y-65050000D01*
X108187748Y-65049398D01*
X108175614Y-65047598D01*
X108163714Y-65044618D01*
X108152165Y-65040485D01*
X108141075Y-65035240D01*
X108130554Y-65028934D01*
X108120701Y-65021626D01*
X108111612Y-65013388D01*
X108103374Y-65004299D01*
X108096066Y-64994446D01*
X108089760Y-64983925D01*
X108084515Y-64972835D01*
X108080382Y-64961286D01*
X108077402Y-64949386D01*
X108075602Y-64937252D01*
X108075000Y-64925000D01*
X108075000Y-64675000D01*
X108075602Y-64662748D01*
X108077402Y-64650614D01*
X108080382Y-64638714D01*
X108084515Y-64627165D01*
X108089760Y-64616075D01*
X108096066Y-64605554D01*
X108103374Y-64595701D01*
X108111612Y-64586612D01*
X108120701Y-64578374D01*
X108130554Y-64571066D01*
X108141075Y-64564760D01*
X108152165Y-64559515D01*
X108163714Y-64555382D01*
X108175614Y-64552402D01*
X108187748Y-64550602D01*
X108200000Y-64550000D01*
X109450000Y-64550000D01*
X109462252Y-64550602D01*
X109462252Y-64550602D01*
G37*
D14*
X108825000Y-64800000D03*
D12*
G36*
X109462252Y-63750602D02*
G01*
X109474386Y-63752402D01*
X109486286Y-63755382D01*
X109497835Y-63759515D01*
X109508925Y-63764760D01*
X109519446Y-63771066D01*
X109529299Y-63778374D01*
X109538388Y-63786612D01*
X109546626Y-63795701D01*
X109553934Y-63805554D01*
X109560240Y-63816075D01*
X109565485Y-63827165D01*
X109569618Y-63838714D01*
X109572598Y-63850614D01*
X109574398Y-63862748D01*
X109575000Y-63875000D01*
X109575000Y-64125000D01*
X109574398Y-64137252D01*
X109572598Y-64149386D01*
X109569618Y-64161286D01*
X109565485Y-64172835D01*
X109560240Y-64183925D01*
X109553934Y-64194446D01*
X109546626Y-64204299D01*
X109538388Y-64213388D01*
X109529299Y-64221626D01*
X109519446Y-64228934D01*
X109508925Y-64235240D01*
X109497835Y-64240485D01*
X109486286Y-64244618D01*
X109474386Y-64247598D01*
X109462252Y-64249398D01*
X109450000Y-64250000D01*
X108200000Y-64250000D01*
X108187748Y-64249398D01*
X108175614Y-64247598D01*
X108163714Y-64244618D01*
X108152165Y-64240485D01*
X108141075Y-64235240D01*
X108130554Y-64228934D01*
X108120701Y-64221626D01*
X108111612Y-64213388D01*
X108103374Y-64204299D01*
X108096066Y-64194446D01*
X108089760Y-64183925D01*
X108084515Y-64172835D01*
X108080382Y-64161286D01*
X108077402Y-64149386D01*
X108075602Y-64137252D01*
X108075000Y-64125000D01*
X108075000Y-63875000D01*
X108075602Y-63862748D01*
X108077402Y-63850614D01*
X108080382Y-63838714D01*
X108084515Y-63827165D01*
X108089760Y-63816075D01*
X108096066Y-63805554D01*
X108103374Y-63795701D01*
X108111612Y-63786612D01*
X108120701Y-63778374D01*
X108130554Y-63771066D01*
X108141075Y-63764760D01*
X108152165Y-63759515D01*
X108163714Y-63755382D01*
X108175614Y-63752402D01*
X108187748Y-63750602D01*
X108200000Y-63750000D01*
X109450000Y-63750000D01*
X109462252Y-63750602D01*
X109462252Y-63750602D01*
G37*
D14*
X108825000Y-64000000D03*
D12*
G36*
X109462252Y-62950602D02*
G01*
X109474386Y-62952402D01*
X109486286Y-62955382D01*
X109497835Y-62959515D01*
X109508925Y-62964760D01*
X109519446Y-62971066D01*
X109529299Y-62978374D01*
X109538388Y-62986612D01*
X109546626Y-62995701D01*
X109553934Y-63005554D01*
X109560240Y-63016075D01*
X109565485Y-63027165D01*
X109569618Y-63038714D01*
X109572598Y-63050614D01*
X109574398Y-63062748D01*
X109575000Y-63075000D01*
X109575000Y-63325000D01*
X109574398Y-63337252D01*
X109572598Y-63349386D01*
X109569618Y-63361286D01*
X109565485Y-63372835D01*
X109560240Y-63383925D01*
X109553934Y-63394446D01*
X109546626Y-63404299D01*
X109538388Y-63413388D01*
X109529299Y-63421626D01*
X109519446Y-63428934D01*
X109508925Y-63435240D01*
X109497835Y-63440485D01*
X109486286Y-63444618D01*
X109474386Y-63447598D01*
X109462252Y-63449398D01*
X109450000Y-63450000D01*
X108200000Y-63450000D01*
X108187748Y-63449398D01*
X108175614Y-63447598D01*
X108163714Y-63444618D01*
X108152165Y-63440485D01*
X108141075Y-63435240D01*
X108130554Y-63428934D01*
X108120701Y-63421626D01*
X108111612Y-63413388D01*
X108103374Y-63404299D01*
X108096066Y-63394446D01*
X108089760Y-63383925D01*
X108084515Y-63372835D01*
X108080382Y-63361286D01*
X108077402Y-63349386D01*
X108075602Y-63337252D01*
X108075000Y-63325000D01*
X108075000Y-63075000D01*
X108075602Y-63062748D01*
X108077402Y-63050614D01*
X108080382Y-63038714D01*
X108084515Y-63027165D01*
X108089760Y-63016075D01*
X108096066Y-63005554D01*
X108103374Y-62995701D01*
X108111612Y-62986612D01*
X108120701Y-62978374D01*
X108130554Y-62971066D01*
X108141075Y-62964760D01*
X108152165Y-62959515D01*
X108163714Y-62955382D01*
X108175614Y-62952402D01*
X108187748Y-62950602D01*
X108200000Y-62950000D01*
X109450000Y-62950000D01*
X109462252Y-62950602D01*
X109462252Y-62950602D01*
G37*
D14*
X108825000Y-63200000D03*
D12*
G36*
X110337252Y-61075602D02*
G01*
X110349386Y-61077402D01*
X110361286Y-61080382D01*
X110372835Y-61084515D01*
X110383925Y-61089760D01*
X110394446Y-61096066D01*
X110404299Y-61103374D01*
X110413388Y-61111612D01*
X110421626Y-61120701D01*
X110428934Y-61130554D01*
X110435240Y-61141075D01*
X110440485Y-61152165D01*
X110444618Y-61163714D01*
X110447598Y-61175614D01*
X110449398Y-61187748D01*
X110450000Y-61200000D01*
X110450000Y-62450000D01*
X110449398Y-62462252D01*
X110447598Y-62474386D01*
X110444618Y-62486286D01*
X110440485Y-62497835D01*
X110435240Y-62508925D01*
X110428934Y-62519446D01*
X110421626Y-62529299D01*
X110413388Y-62538388D01*
X110404299Y-62546626D01*
X110394446Y-62553934D01*
X110383925Y-62560240D01*
X110372835Y-62565485D01*
X110361286Y-62569618D01*
X110349386Y-62572598D01*
X110337252Y-62574398D01*
X110325000Y-62575000D01*
X110075000Y-62575000D01*
X110062748Y-62574398D01*
X110050614Y-62572598D01*
X110038714Y-62569618D01*
X110027165Y-62565485D01*
X110016075Y-62560240D01*
X110005554Y-62553934D01*
X109995701Y-62546626D01*
X109986612Y-62538388D01*
X109978374Y-62529299D01*
X109971066Y-62519446D01*
X109964760Y-62508925D01*
X109959515Y-62497835D01*
X109955382Y-62486286D01*
X109952402Y-62474386D01*
X109950602Y-62462252D01*
X109950000Y-62450000D01*
X109950000Y-61200000D01*
X109950602Y-61187748D01*
X109952402Y-61175614D01*
X109955382Y-61163714D01*
X109959515Y-61152165D01*
X109964760Y-61141075D01*
X109971066Y-61130554D01*
X109978374Y-61120701D01*
X109986612Y-61111612D01*
X109995701Y-61103374D01*
X110005554Y-61096066D01*
X110016075Y-61089760D01*
X110027165Y-61084515D01*
X110038714Y-61080382D01*
X110050614Y-61077402D01*
X110062748Y-61075602D01*
X110075000Y-61075000D01*
X110325000Y-61075000D01*
X110337252Y-61075602D01*
X110337252Y-61075602D01*
G37*
D14*
X110200000Y-61825000D03*
D12*
G36*
X111137252Y-61075602D02*
G01*
X111149386Y-61077402D01*
X111161286Y-61080382D01*
X111172835Y-61084515D01*
X111183925Y-61089760D01*
X111194446Y-61096066D01*
X111204299Y-61103374D01*
X111213388Y-61111612D01*
X111221626Y-61120701D01*
X111228934Y-61130554D01*
X111235240Y-61141075D01*
X111240485Y-61152165D01*
X111244618Y-61163714D01*
X111247598Y-61175614D01*
X111249398Y-61187748D01*
X111250000Y-61200000D01*
X111250000Y-62450000D01*
X111249398Y-62462252D01*
X111247598Y-62474386D01*
X111244618Y-62486286D01*
X111240485Y-62497835D01*
X111235240Y-62508925D01*
X111228934Y-62519446D01*
X111221626Y-62529299D01*
X111213388Y-62538388D01*
X111204299Y-62546626D01*
X111194446Y-62553934D01*
X111183925Y-62560240D01*
X111172835Y-62565485D01*
X111161286Y-62569618D01*
X111149386Y-62572598D01*
X111137252Y-62574398D01*
X111125000Y-62575000D01*
X110875000Y-62575000D01*
X110862748Y-62574398D01*
X110850614Y-62572598D01*
X110838714Y-62569618D01*
X110827165Y-62565485D01*
X110816075Y-62560240D01*
X110805554Y-62553934D01*
X110795701Y-62546626D01*
X110786612Y-62538388D01*
X110778374Y-62529299D01*
X110771066Y-62519446D01*
X110764760Y-62508925D01*
X110759515Y-62497835D01*
X110755382Y-62486286D01*
X110752402Y-62474386D01*
X110750602Y-62462252D01*
X110750000Y-62450000D01*
X110750000Y-61200000D01*
X110750602Y-61187748D01*
X110752402Y-61175614D01*
X110755382Y-61163714D01*
X110759515Y-61152165D01*
X110764760Y-61141075D01*
X110771066Y-61130554D01*
X110778374Y-61120701D01*
X110786612Y-61111612D01*
X110795701Y-61103374D01*
X110805554Y-61096066D01*
X110816075Y-61089760D01*
X110827165Y-61084515D01*
X110838714Y-61080382D01*
X110850614Y-61077402D01*
X110862748Y-61075602D01*
X110875000Y-61075000D01*
X111125000Y-61075000D01*
X111137252Y-61075602D01*
X111137252Y-61075602D01*
G37*
D14*
X111000000Y-61825000D03*
D12*
G36*
X111937252Y-61075602D02*
G01*
X111949386Y-61077402D01*
X111961286Y-61080382D01*
X111972835Y-61084515D01*
X111983925Y-61089760D01*
X111994446Y-61096066D01*
X112004299Y-61103374D01*
X112013388Y-61111612D01*
X112021626Y-61120701D01*
X112028934Y-61130554D01*
X112035240Y-61141075D01*
X112040485Y-61152165D01*
X112044618Y-61163714D01*
X112047598Y-61175614D01*
X112049398Y-61187748D01*
X112050000Y-61200000D01*
X112050000Y-62450000D01*
X112049398Y-62462252D01*
X112047598Y-62474386D01*
X112044618Y-62486286D01*
X112040485Y-62497835D01*
X112035240Y-62508925D01*
X112028934Y-62519446D01*
X112021626Y-62529299D01*
X112013388Y-62538388D01*
X112004299Y-62546626D01*
X111994446Y-62553934D01*
X111983925Y-62560240D01*
X111972835Y-62565485D01*
X111961286Y-62569618D01*
X111949386Y-62572598D01*
X111937252Y-62574398D01*
X111925000Y-62575000D01*
X111675000Y-62575000D01*
X111662748Y-62574398D01*
X111650614Y-62572598D01*
X111638714Y-62569618D01*
X111627165Y-62565485D01*
X111616075Y-62560240D01*
X111605554Y-62553934D01*
X111595701Y-62546626D01*
X111586612Y-62538388D01*
X111578374Y-62529299D01*
X111571066Y-62519446D01*
X111564760Y-62508925D01*
X111559515Y-62497835D01*
X111555382Y-62486286D01*
X111552402Y-62474386D01*
X111550602Y-62462252D01*
X111550000Y-62450000D01*
X111550000Y-61200000D01*
X111550602Y-61187748D01*
X111552402Y-61175614D01*
X111555382Y-61163714D01*
X111559515Y-61152165D01*
X111564760Y-61141075D01*
X111571066Y-61130554D01*
X111578374Y-61120701D01*
X111586612Y-61111612D01*
X111595701Y-61103374D01*
X111605554Y-61096066D01*
X111616075Y-61089760D01*
X111627165Y-61084515D01*
X111638714Y-61080382D01*
X111650614Y-61077402D01*
X111662748Y-61075602D01*
X111675000Y-61075000D01*
X111925000Y-61075000D01*
X111937252Y-61075602D01*
X111937252Y-61075602D01*
G37*
D14*
X111800000Y-61825000D03*
D12*
G36*
X112737252Y-61075602D02*
G01*
X112749386Y-61077402D01*
X112761286Y-61080382D01*
X112772835Y-61084515D01*
X112783925Y-61089760D01*
X112794446Y-61096066D01*
X112804299Y-61103374D01*
X112813388Y-61111612D01*
X112821626Y-61120701D01*
X112828934Y-61130554D01*
X112835240Y-61141075D01*
X112840485Y-61152165D01*
X112844618Y-61163714D01*
X112847598Y-61175614D01*
X112849398Y-61187748D01*
X112850000Y-61200000D01*
X112850000Y-62450000D01*
X112849398Y-62462252D01*
X112847598Y-62474386D01*
X112844618Y-62486286D01*
X112840485Y-62497835D01*
X112835240Y-62508925D01*
X112828934Y-62519446D01*
X112821626Y-62529299D01*
X112813388Y-62538388D01*
X112804299Y-62546626D01*
X112794446Y-62553934D01*
X112783925Y-62560240D01*
X112772835Y-62565485D01*
X112761286Y-62569618D01*
X112749386Y-62572598D01*
X112737252Y-62574398D01*
X112725000Y-62575000D01*
X112475000Y-62575000D01*
X112462748Y-62574398D01*
X112450614Y-62572598D01*
X112438714Y-62569618D01*
X112427165Y-62565485D01*
X112416075Y-62560240D01*
X112405554Y-62553934D01*
X112395701Y-62546626D01*
X112386612Y-62538388D01*
X112378374Y-62529299D01*
X112371066Y-62519446D01*
X112364760Y-62508925D01*
X112359515Y-62497835D01*
X112355382Y-62486286D01*
X112352402Y-62474386D01*
X112350602Y-62462252D01*
X112350000Y-62450000D01*
X112350000Y-61200000D01*
X112350602Y-61187748D01*
X112352402Y-61175614D01*
X112355382Y-61163714D01*
X112359515Y-61152165D01*
X112364760Y-61141075D01*
X112371066Y-61130554D01*
X112378374Y-61120701D01*
X112386612Y-61111612D01*
X112395701Y-61103374D01*
X112405554Y-61096066D01*
X112416075Y-61089760D01*
X112427165Y-61084515D01*
X112438714Y-61080382D01*
X112450614Y-61077402D01*
X112462748Y-61075602D01*
X112475000Y-61075000D01*
X112725000Y-61075000D01*
X112737252Y-61075602D01*
X112737252Y-61075602D01*
G37*
D14*
X112600000Y-61825000D03*
D12*
G36*
X113537252Y-61075602D02*
G01*
X113549386Y-61077402D01*
X113561286Y-61080382D01*
X113572835Y-61084515D01*
X113583925Y-61089760D01*
X113594446Y-61096066D01*
X113604299Y-61103374D01*
X113613388Y-61111612D01*
X113621626Y-61120701D01*
X113628934Y-61130554D01*
X113635240Y-61141075D01*
X113640485Y-61152165D01*
X113644618Y-61163714D01*
X113647598Y-61175614D01*
X113649398Y-61187748D01*
X113650000Y-61200000D01*
X113650000Y-62450000D01*
X113649398Y-62462252D01*
X113647598Y-62474386D01*
X113644618Y-62486286D01*
X113640485Y-62497835D01*
X113635240Y-62508925D01*
X113628934Y-62519446D01*
X113621626Y-62529299D01*
X113613388Y-62538388D01*
X113604299Y-62546626D01*
X113594446Y-62553934D01*
X113583925Y-62560240D01*
X113572835Y-62565485D01*
X113561286Y-62569618D01*
X113549386Y-62572598D01*
X113537252Y-62574398D01*
X113525000Y-62575000D01*
X113275000Y-62575000D01*
X113262748Y-62574398D01*
X113250614Y-62572598D01*
X113238714Y-62569618D01*
X113227165Y-62565485D01*
X113216075Y-62560240D01*
X113205554Y-62553934D01*
X113195701Y-62546626D01*
X113186612Y-62538388D01*
X113178374Y-62529299D01*
X113171066Y-62519446D01*
X113164760Y-62508925D01*
X113159515Y-62497835D01*
X113155382Y-62486286D01*
X113152402Y-62474386D01*
X113150602Y-62462252D01*
X113150000Y-62450000D01*
X113150000Y-61200000D01*
X113150602Y-61187748D01*
X113152402Y-61175614D01*
X113155382Y-61163714D01*
X113159515Y-61152165D01*
X113164760Y-61141075D01*
X113171066Y-61130554D01*
X113178374Y-61120701D01*
X113186612Y-61111612D01*
X113195701Y-61103374D01*
X113205554Y-61096066D01*
X113216075Y-61089760D01*
X113227165Y-61084515D01*
X113238714Y-61080382D01*
X113250614Y-61077402D01*
X113262748Y-61075602D01*
X113275000Y-61075000D01*
X113525000Y-61075000D01*
X113537252Y-61075602D01*
X113537252Y-61075602D01*
G37*
D14*
X113400000Y-61825000D03*
D12*
G36*
X114337252Y-61075602D02*
G01*
X114349386Y-61077402D01*
X114361286Y-61080382D01*
X114372835Y-61084515D01*
X114383925Y-61089760D01*
X114394446Y-61096066D01*
X114404299Y-61103374D01*
X114413388Y-61111612D01*
X114421626Y-61120701D01*
X114428934Y-61130554D01*
X114435240Y-61141075D01*
X114440485Y-61152165D01*
X114444618Y-61163714D01*
X114447598Y-61175614D01*
X114449398Y-61187748D01*
X114450000Y-61200000D01*
X114450000Y-62450000D01*
X114449398Y-62462252D01*
X114447598Y-62474386D01*
X114444618Y-62486286D01*
X114440485Y-62497835D01*
X114435240Y-62508925D01*
X114428934Y-62519446D01*
X114421626Y-62529299D01*
X114413388Y-62538388D01*
X114404299Y-62546626D01*
X114394446Y-62553934D01*
X114383925Y-62560240D01*
X114372835Y-62565485D01*
X114361286Y-62569618D01*
X114349386Y-62572598D01*
X114337252Y-62574398D01*
X114325000Y-62575000D01*
X114075000Y-62575000D01*
X114062748Y-62574398D01*
X114050614Y-62572598D01*
X114038714Y-62569618D01*
X114027165Y-62565485D01*
X114016075Y-62560240D01*
X114005554Y-62553934D01*
X113995701Y-62546626D01*
X113986612Y-62538388D01*
X113978374Y-62529299D01*
X113971066Y-62519446D01*
X113964760Y-62508925D01*
X113959515Y-62497835D01*
X113955382Y-62486286D01*
X113952402Y-62474386D01*
X113950602Y-62462252D01*
X113950000Y-62450000D01*
X113950000Y-61200000D01*
X113950602Y-61187748D01*
X113952402Y-61175614D01*
X113955382Y-61163714D01*
X113959515Y-61152165D01*
X113964760Y-61141075D01*
X113971066Y-61130554D01*
X113978374Y-61120701D01*
X113986612Y-61111612D01*
X113995701Y-61103374D01*
X114005554Y-61096066D01*
X114016075Y-61089760D01*
X114027165Y-61084515D01*
X114038714Y-61080382D01*
X114050614Y-61077402D01*
X114062748Y-61075602D01*
X114075000Y-61075000D01*
X114325000Y-61075000D01*
X114337252Y-61075602D01*
X114337252Y-61075602D01*
G37*
D14*
X114200000Y-61825000D03*
D12*
G36*
X115137252Y-61075602D02*
G01*
X115149386Y-61077402D01*
X115161286Y-61080382D01*
X115172835Y-61084515D01*
X115183925Y-61089760D01*
X115194446Y-61096066D01*
X115204299Y-61103374D01*
X115213388Y-61111612D01*
X115221626Y-61120701D01*
X115228934Y-61130554D01*
X115235240Y-61141075D01*
X115240485Y-61152165D01*
X115244618Y-61163714D01*
X115247598Y-61175614D01*
X115249398Y-61187748D01*
X115250000Y-61200000D01*
X115250000Y-62450000D01*
X115249398Y-62462252D01*
X115247598Y-62474386D01*
X115244618Y-62486286D01*
X115240485Y-62497835D01*
X115235240Y-62508925D01*
X115228934Y-62519446D01*
X115221626Y-62529299D01*
X115213388Y-62538388D01*
X115204299Y-62546626D01*
X115194446Y-62553934D01*
X115183925Y-62560240D01*
X115172835Y-62565485D01*
X115161286Y-62569618D01*
X115149386Y-62572598D01*
X115137252Y-62574398D01*
X115125000Y-62575000D01*
X114875000Y-62575000D01*
X114862748Y-62574398D01*
X114850614Y-62572598D01*
X114838714Y-62569618D01*
X114827165Y-62565485D01*
X114816075Y-62560240D01*
X114805554Y-62553934D01*
X114795701Y-62546626D01*
X114786612Y-62538388D01*
X114778374Y-62529299D01*
X114771066Y-62519446D01*
X114764760Y-62508925D01*
X114759515Y-62497835D01*
X114755382Y-62486286D01*
X114752402Y-62474386D01*
X114750602Y-62462252D01*
X114750000Y-62450000D01*
X114750000Y-61200000D01*
X114750602Y-61187748D01*
X114752402Y-61175614D01*
X114755382Y-61163714D01*
X114759515Y-61152165D01*
X114764760Y-61141075D01*
X114771066Y-61130554D01*
X114778374Y-61120701D01*
X114786612Y-61111612D01*
X114795701Y-61103374D01*
X114805554Y-61096066D01*
X114816075Y-61089760D01*
X114827165Y-61084515D01*
X114838714Y-61080382D01*
X114850614Y-61077402D01*
X114862748Y-61075602D01*
X114875000Y-61075000D01*
X115125000Y-61075000D01*
X115137252Y-61075602D01*
X115137252Y-61075602D01*
G37*
D14*
X115000000Y-61825000D03*
D12*
G36*
X115937252Y-61075602D02*
G01*
X115949386Y-61077402D01*
X115961286Y-61080382D01*
X115972835Y-61084515D01*
X115983925Y-61089760D01*
X115994446Y-61096066D01*
X116004299Y-61103374D01*
X116013388Y-61111612D01*
X116021626Y-61120701D01*
X116028934Y-61130554D01*
X116035240Y-61141075D01*
X116040485Y-61152165D01*
X116044618Y-61163714D01*
X116047598Y-61175614D01*
X116049398Y-61187748D01*
X116050000Y-61200000D01*
X116050000Y-62450000D01*
X116049398Y-62462252D01*
X116047598Y-62474386D01*
X116044618Y-62486286D01*
X116040485Y-62497835D01*
X116035240Y-62508925D01*
X116028934Y-62519446D01*
X116021626Y-62529299D01*
X116013388Y-62538388D01*
X116004299Y-62546626D01*
X115994446Y-62553934D01*
X115983925Y-62560240D01*
X115972835Y-62565485D01*
X115961286Y-62569618D01*
X115949386Y-62572598D01*
X115937252Y-62574398D01*
X115925000Y-62575000D01*
X115675000Y-62575000D01*
X115662748Y-62574398D01*
X115650614Y-62572598D01*
X115638714Y-62569618D01*
X115627165Y-62565485D01*
X115616075Y-62560240D01*
X115605554Y-62553934D01*
X115595701Y-62546626D01*
X115586612Y-62538388D01*
X115578374Y-62529299D01*
X115571066Y-62519446D01*
X115564760Y-62508925D01*
X115559515Y-62497835D01*
X115555382Y-62486286D01*
X115552402Y-62474386D01*
X115550602Y-62462252D01*
X115550000Y-62450000D01*
X115550000Y-61200000D01*
X115550602Y-61187748D01*
X115552402Y-61175614D01*
X115555382Y-61163714D01*
X115559515Y-61152165D01*
X115564760Y-61141075D01*
X115571066Y-61130554D01*
X115578374Y-61120701D01*
X115586612Y-61111612D01*
X115595701Y-61103374D01*
X115605554Y-61096066D01*
X115616075Y-61089760D01*
X115627165Y-61084515D01*
X115638714Y-61080382D01*
X115650614Y-61077402D01*
X115662748Y-61075602D01*
X115675000Y-61075000D01*
X115925000Y-61075000D01*
X115937252Y-61075602D01*
X115937252Y-61075602D01*
G37*
D14*
X115800000Y-61825000D03*
D12*
G36*
X117812252Y-62950602D02*
G01*
X117824386Y-62952402D01*
X117836286Y-62955382D01*
X117847835Y-62959515D01*
X117858925Y-62964760D01*
X117869446Y-62971066D01*
X117879299Y-62978374D01*
X117888388Y-62986612D01*
X117896626Y-62995701D01*
X117903934Y-63005554D01*
X117910240Y-63016075D01*
X117915485Y-63027165D01*
X117919618Y-63038714D01*
X117922598Y-63050614D01*
X117924398Y-63062748D01*
X117925000Y-63075000D01*
X117925000Y-63325000D01*
X117924398Y-63337252D01*
X117922598Y-63349386D01*
X117919618Y-63361286D01*
X117915485Y-63372835D01*
X117910240Y-63383925D01*
X117903934Y-63394446D01*
X117896626Y-63404299D01*
X117888388Y-63413388D01*
X117879299Y-63421626D01*
X117869446Y-63428934D01*
X117858925Y-63435240D01*
X117847835Y-63440485D01*
X117836286Y-63444618D01*
X117824386Y-63447598D01*
X117812252Y-63449398D01*
X117800000Y-63450000D01*
X116550000Y-63450000D01*
X116537748Y-63449398D01*
X116525614Y-63447598D01*
X116513714Y-63444618D01*
X116502165Y-63440485D01*
X116491075Y-63435240D01*
X116480554Y-63428934D01*
X116470701Y-63421626D01*
X116461612Y-63413388D01*
X116453374Y-63404299D01*
X116446066Y-63394446D01*
X116439760Y-63383925D01*
X116434515Y-63372835D01*
X116430382Y-63361286D01*
X116427402Y-63349386D01*
X116425602Y-63337252D01*
X116425000Y-63325000D01*
X116425000Y-63075000D01*
X116425602Y-63062748D01*
X116427402Y-63050614D01*
X116430382Y-63038714D01*
X116434515Y-63027165D01*
X116439760Y-63016075D01*
X116446066Y-63005554D01*
X116453374Y-62995701D01*
X116461612Y-62986612D01*
X116470701Y-62978374D01*
X116480554Y-62971066D01*
X116491075Y-62964760D01*
X116502165Y-62959515D01*
X116513714Y-62955382D01*
X116525614Y-62952402D01*
X116537748Y-62950602D01*
X116550000Y-62950000D01*
X117800000Y-62950000D01*
X117812252Y-62950602D01*
X117812252Y-62950602D01*
G37*
D14*
X117175000Y-63200000D03*
D12*
G36*
X117812252Y-63750602D02*
G01*
X117824386Y-63752402D01*
X117836286Y-63755382D01*
X117847835Y-63759515D01*
X117858925Y-63764760D01*
X117869446Y-63771066D01*
X117879299Y-63778374D01*
X117888388Y-63786612D01*
X117896626Y-63795701D01*
X117903934Y-63805554D01*
X117910240Y-63816075D01*
X117915485Y-63827165D01*
X117919618Y-63838714D01*
X117922598Y-63850614D01*
X117924398Y-63862748D01*
X117925000Y-63875000D01*
X117925000Y-64125000D01*
X117924398Y-64137252D01*
X117922598Y-64149386D01*
X117919618Y-64161286D01*
X117915485Y-64172835D01*
X117910240Y-64183925D01*
X117903934Y-64194446D01*
X117896626Y-64204299D01*
X117888388Y-64213388D01*
X117879299Y-64221626D01*
X117869446Y-64228934D01*
X117858925Y-64235240D01*
X117847835Y-64240485D01*
X117836286Y-64244618D01*
X117824386Y-64247598D01*
X117812252Y-64249398D01*
X117800000Y-64250000D01*
X116550000Y-64250000D01*
X116537748Y-64249398D01*
X116525614Y-64247598D01*
X116513714Y-64244618D01*
X116502165Y-64240485D01*
X116491075Y-64235240D01*
X116480554Y-64228934D01*
X116470701Y-64221626D01*
X116461612Y-64213388D01*
X116453374Y-64204299D01*
X116446066Y-64194446D01*
X116439760Y-64183925D01*
X116434515Y-64172835D01*
X116430382Y-64161286D01*
X116427402Y-64149386D01*
X116425602Y-64137252D01*
X116425000Y-64125000D01*
X116425000Y-63875000D01*
X116425602Y-63862748D01*
X116427402Y-63850614D01*
X116430382Y-63838714D01*
X116434515Y-63827165D01*
X116439760Y-63816075D01*
X116446066Y-63805554D01*
X116453374Y-63795701D01*
X116461612Y-63786612D01*
X116470701Y-63778374D01*
X116480554Y-63771066D01*
X116491075Y-63764760D01*
X116502165Y-63759515D01*
X116513714Y-63755382D01*
X116525614Y-63752402D01*
X116537748Y-63750602D01*
X116550000Y-63750000D01*
X117800000Y-63750000D01*
X117812252Y-63750602D01*
X117812252Y-63750602D01*
G37*
D14*
X117175000Y-64000000D03*
D12*
G36*
X117812252Y-64550602D02*
G01*
X117824386Y-64552402D01*
X117836286Y-64555382D01*
X117847835Y-64559515D01*
X117858925Y-64564760D01*
X117869446Y-64571066D01*
X117879299Y-64578374D01*
X117888388Y-64586612D01*
X117896626Y-64595701D01*
X117903934Y-64605554D01*
X117910240Y-64616075D01*
X117915485Y-64627165D01*
X117919618Y-64638714D01*
X117922598Y-64650614D01*
X117924398Y-64662748D01*
X117925000Y-64675000D01*
X117925000Y-64925000D01*
X117924398Y-64937252D01*
X117922598Y-64949386D01*
X117919618Y-64961286D01*
X117915485Y-64972835D01*
X117910240Y-64983925D01*
X117903934Y-64994446D01*
X117896626Y-65004299D01*
X117888388Y-65013388D01*
X117879299Y-65021626D01*
X117869446Y-65028934D01*
X117858925Y-65035240D01*
X117847835Y-65040485D01*
X117836286Y-65044618D01*
X117824386Y-65047598D01*
X117812252Y-65049398D01*
X117800000Y-65050000D01*
X116550000Y-65050000D01*
X116537748Y-65049398D01*
X116525614Y-65047598D01*
X116513714Y-65044618D01*
X116502165Y-65040485D01*
X116491075Y-65035240D01*
X116480554Y-65028934D01*
X116470701Y-65021626D01*
X116461612Y-65013388D01*
X116453374Y-65004299D01*
X116446066Y-64994446D01*
X116439760Y-64983925D01*
X116434515Y-64972835D01*
X116430382Y-64961286D01*
X116427402Y-64949386D01*
X116425602Y-64937252D01*
X116425000Y-64925000D01*
X116425000Y-64675000D01*
X116425602Y-64662748D01*
X116427402Y-64650614D01*
X116430382Y-64638714D01*
X116434515Y-64627165D01*
X116439760Y-64616075D01*
X116446066Y-64605554D01*
X116453374Y-64595701D01*
X116461612Y-64586612D01*
X116470701Y-64578374D01*
X116480554Y-64571066D01*
X116491075Y-64564760D01*
X116502165Y-64559515D01*
X116513714Y-64555382D01*
X116525614Y-64552402D01*
X116537748Y-64550602D01*
X116550000Y-64550000D01*
X117800000Y-64550000D01*
X117812252Y-64550602D01*
X117812252Y-64550602D01*
G37*
D14*
X117175000Y-64800000D03*
D12*
G36*
X117812252Y-65350602D02*
G01*
X117824386Y-65352402D01*
X117836286Y-65355382D01*
X117847835Y-65359515D01*
X117858925Y-65364760D01*
X117869446Y-65371066D01*
X117879299Y-65378374D01*
X117888388Y-65386612D01*
X117896626Y-65395701D01*
X117903934Y-65405554D01*
X117910240Y-65416075D01*
X117915485Y-65427165D01*
X117919618Y-65438714D01*
X117922598Y-65450614D01*
X117924398Y-65462748D01*
X117925000Y-65475000D01*
X117925000Y-65725000D01*
X117924398Y-65737252D01*
X117922598Y-65749386D01*
X117919618Y-65761286D01*
X117915485Y-65772835D01*
X117910240Y-65783925D01*
X117903934Y-65794446D01*
X117896626Y-65804299D01*
X117888388Y-65813388D01*
X117879299Y-65821626D01*
X117869446Y-65828934D01*
X117858925Y-65835240D01*
X117847835Y-65840485D01*
X117836286Y-65844618D01*
X117824386Y-65847598D01*
X117812252Y-65849398D01*
X117800000Y-65850000D01*
X116550000Y-65850000D01*
X116537748Y-65849398D01*
X116525614Y-65847598D01*
X116513714Y-65844618D01*
X116502165Y-65840485D01*
X116491075Y-65835240D01*
X116480554Y-65828934D01*
X116470701Y-65821626D01*
X116461612Y-65813388D01*
X116453374Y-65804299D01*
X116446066Y-65794446D01*
X116439760Y-65783925D01*
X116434515Y-65772835D01*
X116430382Y-65761286D01*
X116427402Y-65749386D01*
X116425602Y-65737252D01*
X116425000Y-65725000D01*
X116425000Y-65475000D01*
X116425602Y-65462748D01*
X116427402Y-65450614D01*
X116430382Y-65438714D01*
X116434515Y-65427165D01*
X116439760Y-65416075D01*
X116446066Y-65405554D01*
X116453374Y-65395701D01*
X116461612Y-65386612D01*
X116470701Y-65378374D01*
X116480554Y-65371066D01*
X116491075Y-65364760D01*
X116502165Y-65359515D01*
X116513714Y-65355382D01*
X116525614Y-65352402D01*
X116537748Y-65350602D01*
X116550000Y-65350000D01*
X117800000Y-65350000D01*
X117812252Y-65350602D01*
X117812252Y-65350602D01*
G37*
D14*
X117175000Y-65600000D03*
D12*
G36*
X117812252Y-66150602D02*
G01*
X117824386Y-66152402D01*
X117836286Y-66155382D01*
X117847835Y-66159515D01*
X117858925Y-66164760D01*
X117869446Y-66171066D01*
X117879299Y-66178374D01*
X117888388Y-66186612D01*
X117896626Y-66195701D01*
X117903934Y-66205554D01*
X117910240Y-66216075D01*
X117915485Y-66227165D01*
X117919618Y-66238714D01*
X117922598Y-66250614D01*
X117924398Y-66262748D01*
X117925000Y-66275000D01*
X117925000Y-66525000D01*
X117924398Y-66537252D01*
X117922598Y-66549386D01*
X117919618Y-66561286D01*
X117915485Y-66572835D01*
X117910240Y-66583925D01*
X117903934Y-66594446D01*
X117896626Y-66604299D01*
X117888388Y-66613388D01*
X117879299Y-66621626D01*
X117869446Y-66628934D01*
X117858925Y-66635240D01*
X117847835Y-66640485D01*
X117836286Y-66644618D01*
X117824386Y-66647598D01*
X117812252Y-66649398D01*
X117800000Y-66650000D01*
X116550000Y-66650000D01*
X116537748Y-66649398D01*
X116525614Y-66647598D01*
X116513714Y-66644618D01*
X116502165Y-66640485D01*
X116491075Y-66635240D01*
X116480554Y-66628934D01*
X116470701Y-66621626D01*
X116461612Y-66613388D01*
X116453374Y-66604299D01*
X116446066Y-66594446D01*
X116439760Y-66583925D01*
X116434515Y-66572835D01*
X116430382Y-66561286D01*
X116427402Y-66549386D01*
X116425602Y-66537252D01*
X116425000Y-66525000D01*
X116425000Y-66275000D01*
X116425602Y-66262748D01*
X116427402Y-66250614D01*
X116430382Y-66238714D01*
X116434515Y-66227165D01*
X116439760Y-66216075D01*
X116446066Y-66205554D01*
X116453374Y-66195701D01*
X116461612Y-66186612D01*
X116470701Y-66178374D01*
X116480554Y-66171066D01*
X116491075Y-66164760D01*
X116502165Y-66159515D01*
X116513714Y-66155382D01*
X116525614Y-66152402D01*
X116537748Y-66150602D01*
X116550000Y-66150000D01*
X117800000Y-66150000D01*
X117812252Y-66150602D01*
X117812252Y-66150602D01*
G37*
D14*
X117175000Y-66400000D03*
D12*
G36*
X117812252Y-66950602D02*
G01*
X117824386Y-66952402D01*
X117836286Y-66955382D01*
X117847835Y-66959515D01*
X117858925Y-66964760D01*
X117869446Y-66971066D01*
X117879299Y-66978374D01*
X117888388Y-66986612D01*
X117896626Y-66995701D01*
X117903934Y-67005554D01*
X117910240Y-67016075D01*
X117915485Y-67027165D01*
X117919618Y-67038714D01*
X117922598Y-67050614D01*
X117924398Y-67062748D01*
X117925000Y-67075000D01*
X117925000Y-67325000D01*
X117924398Y-67337252D01*
X117922598Y-67349386D01*
X117919618Y-67361286D01*
X117915485Y-67372835D01*
X117910240Y-67383925D01*
X117903934Y-67394446D01*
X117896626Y-67404299D01*
X117888388Y-67413388D01*
X117879299Y-67421626D01*
X117869446Y-67428934D01*
X117858925Y-67435240D01*
X117847835Y-67440485D01*
X117836286Y-67444618D01*
X117824386Y-67447598D01*
X117812252Y-67449398D01*
X117800000Y-67450000D01*
X116550000Y-67450000D01*
X116537748Y-67449398D01*
X116525614Y-67447598D01*
X116513714Y-67444618D01*
X116502165Y-67440485D01*
X116491075Y-67435240D01*
X116480554Y-67428934D01*
X116470701Y-67421626D01*
X116461612Y-67413388D01*
X116453374Y-67404299D01*
X116446066Y-67394446D01*
X116439760Y-67383925D01*
X116434515Y-67372835D01*
X116430382Y-67361286D01*
X116427402Y-67349386D01*
X116425602Y-67337252D01*
X116425000Y-67325000D01*
X116425000Y-67075000D01*
X116425602Y-67062748D01*
X116427402Y-67050614D01*
X116430382Y-67038714D01*
X116434515Y-67027165D01*
X116439760Y-67016075D01*
X116446066Y-67005554D01*
X116453374Y-66995701D01*
X116461612Y-66986612D01*
X116470701Y-66978374D01*
X116480554Y-66971066D01*
X116491075Y-66964760D01*
X116502165Y-66959515D01*
X116513714Y-66955382D01*
X116525614Y-66952402D01*
X116537748Y-66950602D01*
X116550000Y-66950000D01*
X117800000Y-66950000D01*
X117812252Y-66950602D01*
X117812252Y-66950602D01*
G37*
D14*
X117175000Y-67200000D03*
D12*
G36*
X117812252Y-67750602D02*
G01*
X117824386Y-67752402D01*
X117836286Y-67755382D01*
X117847835Y-67759515D01*
X117858925Y-67764760D01*
X117869446Y-67771066D01*
X117879299Y-67778374D01*
X117888388Y-67786612D01*
X117896626Y-67795701D01*
X117903934Y-67805554D01*
X117910240Y-67816075D01*
X117915485Y-67827165D01*
X117919618Y-67838714D01*
X117922598Y-67850614D01*
X117924398Y-67862748D01*
X117925000Y-67875000D01*
X117925000Y-68125000D01*
X117924398Y-68137252D01*
X117922598Y-68149386D01*
X117919618Y-68161286D01*
X117915485Y-68172835D01*
X117910240Y-68183925D01*
X117903934Y-68194446D01*
X117896626Y-68204299D01*
X117888388Y-68213388D01*
X117879299Y-68221626D01*
X117869446Y-68228934D01*
X117858925Y-68235240D01*
X117847835Y-68240485D01*
X117836286Y-68244618D01*
X117824386Y-68247598D01*
X117812252Y-68249398D01*
X117800000Y-68250000D01*
X116550000Y-68250000D01*
X116537748Y-68249398D01*
X116525614Y-68247598D01*
X116513714Y-68244618D01*
X116502165Y-68240485D01*
X116491075Y-68235240D01*
X116480554Y-68228934D01*
X116470701Y-68221626D01*
X116461612Y-68213388D01*
X116453374Y-68204299D01*
X116446066Y-68194446D01*
X116439760Y-68183925D01*
X116434515Y-68172835D01*
X116430382Y-68161286D01*
X116427402Y-68149386D01*
X116425602Y-68137252D01*
X116425000Y-68125000D01*
X116425000Y-67875000D01*
X116425602Y-67862748D01*
X116427402Y-67850614D01*
X116430382Y-67838714D01*
X116434515Y-67827165D01*
X116439760Y-67816075D01*
X116446066Y-67805554D01*
X116453374Y-67795701D01*
X116461612Y-67786612D01*
X116470701Y-67778374D01*
X116480554Y-67771066D01*
X116491075Y-67764760D01*
X116502165Y-67759515D01*
X116513714Y-67755382D01*
X116525614Y-67752402D01*
X116537748Y-67750602D01*
X116550000Y-67750000D01*
X117800000Y-67750000D01*
X117812252Y-67750602D01*
X117812252Y-67750602D01*
G37*
D14*
X117175000Y-68000000D03*
D12*
G36*
X117812252Y-68550602D02*
G01*
X117824386Y-68552402D01*
X117836286Y-68555382D01*
X117847835Y-68559515D01*
X117858925Y-68564760D01*
X117869446Y-68571066D01*
X117879299Y-68578374D01*
X117888388Y-68586612D01*
X117896626Y-68595701D01*
X117903934Y-68605554D01*
X117910240Y-68616075D01*
X117915485Y-68627165D01*
X117919618Y-68638714D01*
X117922598Y-68650614D01*
X117924398Y-68662748D01*
X117925000Y-68675000D01*
X117925000Y-68925000D01*
X117924398Y-68937252D01*
X117922598Y-68949386D01*
X117919618Y-68961286D01*
X117915485Y-68972835D01*
X117910240Y-68983925D01*
X117903934Y-68994446D01*
X117896626Y-69004299D01*
X117888388Y-69013388D01*
X117879299Y-69021626D01*
X117869446Y-69028934D01*
X117858925Y-69035240D01*
X117847835Y-69040485D01*
X117836286Y-69044618D01*
X117824386Y-69047598D01*
X117812252Y-69049398D01*
X117800000Y-69050000D01*
X116550000Y-69050000D01*
X116537748Y-69049398D01*
X116525614Y-69047598D01*
X116513714Y-69044618D01*
X116502165Y-69040485D01*
X116491075Y-69035240D01*
X116480554Y-69028934D01*
X116470701Y-69021626D01*
X116461612Y-69013388D01*
X116453374Y-69004299D01*
X116446066Y-68994446D01*
X116439760Y-68983925D01*
X116434515Y-68972835D01*
X116430382Y-68961286D01*
X116427402Y-68949386D01*
X116425602Y-68937252D01*
X116425000Y-68925000D01*
X116425000Y-68675000D01*
X116425602Y-68662748D01*
X116427402Y-68650614D01*
X116430382Y-68638714D01*
X116434515Y-68627165D01*
X116439760Y-68616075D01*
X116446066Y-68605554D01*
X116453374Y-68595701D01*
X116461612Y-68586612D01*
X116470701Y-68578374D01*
X116480554Y-68571066D01*
X116491075Y-68564760D01*
X116502165Y-68559515D01*
X116513714Y-68555382D01*
X116525614Y-68552402D01*
X116537748Y-68550602D01*
X116550000Y-68550000D01*
X117800000Y-68550000D01*
X117812252Y-68550602D01*
X117812252Y-68550602D01*
G37*
D14*
X117175000Y-68800000D03*
D12*
G36*
X115937252Y-69425602D02*
G01*
X115949386Y-69427402D01*
X115961286Y-69430382D01*
X115972835Y-69434515D01*
X115983925Y-69439760D01*
X115994446Y-69446066D01*
X116004299Y-69453374D01*
X116013388Y-69461612D01*
X116021626Y-69470701D01*
X116028934Y-69480554D01*
X116035240Y-69491075D01*
X116040485Y-69502165D01*
X116044618Y-69513714D01*
X116047598Y-69525614D01*
X116049398Y-69537748D01*
X116050000Y-69550000D01*
X116050000Y-70800000D01*
X116049398Y-70812252D01*
X116047598Y-70824386D01*
X116044618Y-70836286D01*
X116040485Y-70847835D01*
X116035240Y-70858925D01*
X116028934Y-70869446D01*
X116021626Y-70879299D01*
X116013388Y-70888388D01*
X116004299Y-70896626D01*
X115994446Y-70903934D01*
X115983925Y-70910240D01*
X115972835Y-70915485D01*
X115961286Y-70919618D01*
X115949386Y-70922598D01*
X115937252Y-70924398D01*
X115925000Y-70925000D01*
X115675000Y-70925000D01*
X115662748Y-70924398D01*
X115650614Y-70922598D01*
X115638714Y-70919618D01*
X115627165Y-70915485D01*
X115616075Y-70910240D01*
X115605554Y-70903934D01*
X115595701Y-70896626D01*
X115586612Y-70888388D01*
X115578374Y-70879299D01*
X115571066Y-70869446D01*
X115564760Y-70858925D01*
X115559515Y-70847835D01*
X115555382Y-70836286D01*
X115552402Y-70824386D01*
X115550602Y-70812252D01*
X115550000Y-70800000D01*
X115550000Y-69550000D01*
X115550602Y-69537748D01*
X115552402Y-69525614D01*
X115555382Y-69513714D01*
X115559515Y-69502165D01*
X115564760Y-69491075D01*
X115571066Y-69480554D01*
X115578374Y-69470701D01*
X115586612Y-69461612D01*
X115595701Y-69453374D01*
X115605554Y-69446066D01*
X115616075Y-69439760D01*
X115627165Y-69434515D01*
X115638714Y-69430382D01*
X115650614Y-69427402D01*
X115662748Y-69425602D01*
X115675000Y-69425000D01*
X115925000Y-69425000D01*
X115937252Y-69425602D01*
X115937252Y-69425602D01*
G37*
D14*
X115800000Y-70175000D03*
D12*
G36*
X115137252Y-69425602D02*
G01*
X115149386Y-69427402D01*
X115161286Y-69430382D01*
X115172835Y-69434515D01*
X115183925Y-69439760D01*
X115194446Y-69446066D01*
X115204299Y-69453374D01*
X115213388Y-69461612D01*
X115221626Y-69470701D01*
X115228934Y-69480554D01*
X115235240Y-69491075D01*
X115240485Y-69502165D01*
X115244618Y-69513714D01*
X115247598Y-69525614D01*
X115249398Y-69537748D01*
X115250000Y-69550000D01*
X115250000Y-70800000D01*
X115249398Y-70812252D01*
X115247598Y-70824386D01*
X115244618Y-70836286D01*
X115240485Y-70847835D01*
X115235240Y-70858925D01*
X115228934Y-70869446D01*
X115221626Y-70879299D01*
X115213388Y-70888388D01*
X115204299Y-70896626D01*
X115194446Y-70903934D01*
X115183925Y-70910240D01*
X115172835Y-70915485D01*
X115161286Y-70919618D01*
X115149386Y-70922598D01*
X115137252Y-70924398D01*
X115125000Y-70925000D01*
X114875000Y-70925000D01*
X114862748Y-70924398D01*
X114850614Y-70922598D01*
X114838714Y-70919618D01*
X114827165Y-70915485D01*
X114816075Y-70910240D01*
X114805554Y-70903934D01*
X114795701Y-70896626D01*
X114786612Y-70888388D01*
X114778374Y-70879299D01*
X114771066Y-70869446D01*
X114764760Y-70858925D01*
X114759515Y-70847835D01*
X114755382Y-70836286D01*
X114752402Y-70824386D01*
X114750602Y-70812252D01*
X114750000Y-70800000D01*
X114750000Y-69550000D01*
X114750602Y-69537748D01*
X114752402Y-69525614D01*
X114755382Y-69513714D01*
X114759515Y-69502165D01*
X114764760Y-69491075D01*
X114771066Y-69480554D01*
X114778374Y-69470701D01*
X114786612Y-69461612D01*
X114795701Y-69453374D01*
X114805554Y-69446066D01*
X114816075Y-69439760D01*
X114827165Y-69434515D01*
X114838714Y-69430382D01*
X114850614Y-69427402D01*
X114862748Y-69425602D01*
X114875000Y-69425000D01*
X115125000Y-69425000D01*
X115137252Y-69425602D01*
X115137252Y-69425602D01*
G37*
D14*
X115000000Y-70175000D03*
D12*
G36*
X114337252Y-69425602D02*
G01*
X114349386Y-69427402D01*
X114361286Y-69430382D01*
X114372835Y-69434515D01*
X114383925Y-69439760D01*
X114394446Y-69446066D01*
X114404299Y-69453374D01*
X114413388Y-69461612D01*
X114421626Y-69470701D01*
X114428934Y-69480554D01*
X114435240Y-69491075D01*
X114440485Y-69502165D01*
X114444618Y-69513714D01*
X114447598Y-69525614D01*
X114449398Y-69537748D01*
X114450000Y-69550000D01*
X114450000Y-70800000D01*
X114449398Y-70812252D01*
X114447598Y-70824386D01*
X114444618Y-70836286D01*
X114440485Y-70847835D01*
X114435240Y-70858925D01*
X114428934Y-70869446D01*
X114421626Y-70879299D01*
X114413388Y-70888388D01*
X114404299Y-70896626D01*
X114394446Y-70903934D01*
X114383925Y-70910240D01*
X114372835Y-70915485D01*
X114361286Y-70919618D01*
X114349386Y-70922598D01*
X114337252Y-70924398D01*
X114325000Y-70925000D01*
X114075000Y-70925000D01*
X114062748Y-70924398D01*
X114050614Y-70922598D01*
X114038714Y-70919618D01*
X114027165Y-70915485D01*
X114016075Y-70910240D01*
X114005554Y-70903934D01*
X113995701Y-70896626D01*
X113986612Y-70888388D01*
X113978374Y-70879299D01*
X113971066Y-70869446D01*
X113964760Y-70858925D01*
X113959515Y-70847835D01*
X113955382Y-70836286D01*
X113952402Y-70824386D01*
X113950602Y-70812252D01*
X113950000Y-70800000D01*
X113950000Y-69550000D01*
X113950602Y-69537748D01*
X113952402Y-69525614D01*
X113955382Y-69513714D01*
X113959515Y-69502165D01*
X113964760Y-69491075D01*
X113971066Y-69480554D01*
X113978374Y-69470701D01*
X113986612Y-69461612D01*
X113995701Y-69453374D01*
X114005554Y-69446066D01*
X114016075Y-69439760D01*
X114027165Y-69434515D01*
X114038714Y-69430382D01*
X114050614Y-69427402D01*
X114062748Y-69425602D01*
X114075000Y-69425000D01*
X114325000Y-69425000D01*
X114337252Y-69425602D01*
X114337252Y-69425602D01*
G37*
D14*
X114200000Y-70175000D03*
D12*
G36*
X113537252Y-69425602D02*
G01*
X113549386Y-69427402D01*
X113561286Y-69430382D01*
X113572835Y-69434515D01*
X113583925Y-69439760D01*
X113594446Y-69446066D01*
X113604299Y-69453374D01*
X113613388Y-69461612D01*
X113621626Y-69470701D01*
X113628934Y-69480554D01*
X113635240Y-69491075D01*
X113640485Y-69502165D01*
X113644618Y-69513714D01*
X113647598Y-69525614D01*
X113649398Y-69537748D01*
X113650000Y-69550000D01*
X113650000Y-70800000D01*
X113649398Y-70812252D01*
X113647598Y-70824386D01*
X113644618Y-70836286D01*
X113640485Y-70847835D01*
X113635240Y-70858925D01*
X113628934Y-70869446D01*
X113621626Y-70879299D01*
X113613388Y-70888388D01*
X113604299Y-70896626D01*
X113594446Y-70903934D01*
X113583925Y-70910240D01*
X113572835Y-70915485D01*
X113561286Y-70919618D01*
X113549386Y-70922598D01*
X113537252Y-70924398D01*
X113525000Y-70925000D01*
X113275000Y-70925000D01*
X113262748Y-70924398D01*
X113250614Y-70922598D01*
X113238714Y-70919618D01*
X113227165Y-70915485D01*
X113216075Y-70910240D01*
X113205554Y-70903934D01*
X113195701Y-70896626D01*
X113186612Y-70888388D01*
X113178374Y-70879299D01*
X113171066Y-70869446D01*
X113164760Y-70858925D01*
X113159515Y-70847835D01*
X113155382Y-70836286D01*
X113152402Y-70824386D01*
X113150602Y-70812252D01*
X113150000Y-70800000D01*
X113150000Y-69550000D01*
X113150602Y-69537748D01*
X113152402Y-69525614D01*
X113155382Y-69513714D01*
X113159515Y-69502165D01*
X113164760Y-69491075D01*
X113171066Y-69480554D01*
X113178374Y-69470701D01*
X113186612Y-69461612D01*
X113195701Y-69453374D01*
X113205554Y-69446066D01*
X113216075Y-69439760D01*
X113227165Y-69434515D01*
X113238714Y-69430382D01*
X113250614Y-69427402D01*
X113262748Y-69425602D01*
X113275000Y-69425000D01*
X113525000Y-69425000D01*
X113537252Y-69425602D01*
X113537252Y-69425602D01*
G37*
D14*
X113400000Y-70175000D03*
D12*
G36*
X112737252Y-69425602D02*
G01*
X112749386Y-69427402D01*
X112761286Y-69430382D01*
X112772835Y-69434515D01*
X112783925Y-69439760D01*
X112794446Y-69446066D01*
X112804299Y-69453374D01*
X112813388Y-69461612D01*
X112821626Y-69470701D01*
X112828934Y-69480554D01*
X112835240Y-69491075D01*
X112840485Y-69502165D01*
X112844618Y-69513714D01*
X112847598Y-69525614D01*
X112849398Y-69537748D01*
X112850000Y-69550000D01*
X112850000Y-70800000D01*
X112849398Y-70812252D01*
X112847598Y-70824386D01*
X112844618Y-70836286D01*
X112840485Y-70847835D01*
X112835240Y-70858925D01*
X112828934Y-70869446D01*
X112821626Y-70879299D01*
X112813388Y-70888388D01*
X112804299Y-70896626D01*
X112794446Y-70903934D01*
X112783925Y-70910240D01*
X112772835Y-70915485D01*
X112761286Y-70919618D01*
X112749386Y-70922598D01*
X112737252Y-70924398D01*
X112725000Y-70925000D01*
X112475000Y-70925000D01*
X112462748Y-70924398D01*
X112450614Y-70922598D01*
X112438714Y-70919618D01*
X112427165Y-70915485D01*
X112416075Y-70910240D01*
X112405554Y-70903934D01*
X112395701Y-70896626D01*
X112386612Y-70888388D01*
X112378374Y-70879299D01*
X112371066Y-70869446D01*
X112364760Y-70858925D01*
X112359515Y-70847835D01*
X112355382Y-70836286D01*
X112352402Y-70824386D01*
X112350602Y-70812252D01*
X112350000Y-70800000D01*
X112350000Y-69550000D01*
X112350602Y-69537748D01*
X112352402Y-69525614D01*
X112355382Y-69513714D01*
X112359515Y-69502165D01*
X112364760Y-69491075D01*
X112371066Y-69480554D01*
X112378374Y-69470701D01*
X112386612Y-69461612D01*
X112395701Y-69453374D01*
X112405554Y-69446066D01*
X112416075Y-69439760D01*
X112427165Y-69434515D01*
X112438714Y-69430382D01*
X112450614Y-69427402D01*
X112462748Y-69425602D01*
X112475000Y-69425000D01*
X112725000Y-69425000D01*
X112737252Y-69425602D01*
X112737252Y-69425602D01*
G37*
D14*
X112600000Y-70175000D03*
D12*
G36*
X111937252Y-69425602D02*
G01*
X111949386Y-69427402D01*
X111961286Y-69430382D01*
X111972835Y-69434515D01*
X111983925Y-69439760D01*
X111994446Y-69446066D01*
X112004299Y-69453374D01*
X112013388Y-69461612D01*
X112021626Y-69470701D01*
X112028934Y-69480554D01*
X112035240Y-69491075D01*
X112040485Y-69502165D01*
X112044618Y-69513714D01*
X112047598Y-69525614D01*
X112049398Y-69537748D01*
X112050000Y-69550000D01*
X112050000Y-70800000D01*
X112049398Y-70812252D01*
X112047598Y-70824386D01*
X112044618Y-70836286D01*
X112040485Y-70847835D01*
X112035240Y-70858925D01*
X112028934Y-70869446D01*
X112021626Y-70879299D01*
X112013388Y-70888388D01*
X112004299Y-70896626D01*
X111994446Y-70903934D01*
X111983925Y-70910240D01*
X111972835Y-70915485D01*
X111961286Y-70919618D01*
X111949386Y-70922598D01*
X111937252Y-70924398D01*
X111925000Y-70925000D01*
X111675000Y-70925000D01*
X111662748Y-70924398D01*
X111650614Y-70922598D01*
X111638714Y-70919618D01*
X111627165Y-70915485D01*
X111616075Y-70910240D01*
X111605554Y-70903934D01*
X111595701Y-70896626D01*
X111586612Y-70888388D01*
X111578374Y-70879299D01*
X111571066Y-70869446D01*
X111564760Y-70858925D01*
X111559515Y-70847835D01*
X111555382Y-70836286D01*
X111552402Y-70824386D01*
X111550602Y-70812252D01*
X111550000Y-70800000D01*
X111550000Y-69550000D01*
X111550602Y-69537748D01*
X111552402Y-69525614D01*
X111555382Y-69513714D01*
X111559515Y-69502165D01*
X111564760Y-69491075D01*
X111571066Y-69480554D01*
X111578374Y-69470701D01*
X111586612Y-69461612D01*
X111595701Y-69453374D01*
X111605554Y-69446066D01*
X111616075Y-69439760D01*
X111627165Y-69434515D01*
X111638714Y-69430382D01*
X111650614Y-69427402D01*
X111662748Y-69425602D01*
X111675000Y-69425000D01*
X111925000Y-69425000D01*
X111937252Y-69425602D01*
X111937252Y-69425602D01*
G37*
D14*
X111800000Y-70175000D03*
D12*
G36*
X111137252Y-69425602D02*
G01*
X111149386Y-69427402D01*
X111161286Y-69430382D01*
X111172835Y-69434515D01*
X111183925Y-69439760D01*
X111194446Y-69446066D01*
X111204299Y-69453374D01*
X111213388Y-69461612D01*
X111221626Y-69470701D01*
X111228934Y-69480554D01*
X111235240Y-69491075D01*
X111240485Y-69502165D01*
X111244618Y-69513714D01*
X111247598Y-69525614D01*
X111249398Y-69537748D01*
X111250000Y-69550000D01*
X111250000Y-70800000D01*
X111249398Y-70812252D01*
X111247598Y-70824386D01*
X111244618Y-70836286D01*
X111240485Y-70847835D01*
X111235240Y-70858925D01*
X111228934Y-70869446D01*
X111221626Y-70879299D01*
X111213388Y-70888388D01*
X111204299Y-70896626D01*
X111194446Y-70903934D01*
X111183925Y-70910240D01*
X111172835Y-70915485D01*
X111161286Y-70919618D01*
X111149386Y-70922598D01*
X111137252Y-70924398D01*
X111125000Y-70925000D01*
X110875000Y-70925000D01*
X110862748Y-70924398D01*
X110850614Y-70922598D01*
X110838714Y-70919618D01*
X110827165Y-70915485D01*
X110816075Y-70910240D01*
X110805554Y-70903934D01*
X110795701Y-70896626D01*
X110786612Y-70888388D01*
X110778374Y-70879299D01*
X110771066Y-70869446D01*
X110764760Y-70858925D01*
X110759515Y-70847835D01*
X110755382Y-70836286D01*
X110752402Y-70824386D01*
X110750602Y-70812252D01*
X110750000Y-70800000D01*
X110750000Y-69550000D01*
X110750602Y-69537748D01*
X110752402Y-69525614D01*
X110755382Y-69513714D01*
X110759515Y-69502165D01*
X110764760Y-69491075D01*
X110771066Y-69480554D01*
X110778374Y-69470701D01*
X110786612Y-69461612D01*
X110795701Y-69453374D01*
X110805554Y-69446066D01*
X110816075Y-69439760D01*
X110827165Y-69434515D01*
X110838714Y-69430382D01*
X110850614Y-69427402D01*
X110862748Y-69425602D01*
X110875000Y-69425000D01*
X111125000Y-69425000D01*
X111137252Y-69425602D01*
X111137252Y-69425602D01*
G37*
D14*
X111000000Y-70175000D03*
D12*
G36*
X110337252Y-69425602D02*
G01*
X110349386Y-69427402D01*
X110361286Y-69430382D01*
X110372835Y-69434515D01*
X110383925Y-69439760D01*
X110394446Y-69446066D01*
X110404299Y-69453374D01*
X110413388Y-69461612D01*
X110421626Y-69470701D01*
X110428934Y-69480554D01*
X110435240Y-69491075D01*
X110440485Y-69502165D01*
X110444618Y-69513714D01*
X110447598Y-69525614D01*
X110449398Y-69537748D01*
X110450000Y-69550000D01*
X110450000Y-70800000D01*
X110449398Y-70812252D01*
X110447598Y-70824386D01*
X110444618Y-70836286D01*
X110440485Y-70847835D01*
X110435240Y-70858925D01*
X110428934Y-70869446D01*
X110421626Y-70879299D01*
X110413388Y-70888388D01*
X110404299Y-70896626D01*
X110394446Y-70903934D01*
X110383925Y-70910240D01*
X110372835Y-70915485D01*
X110361286Y-70919618D01*
X110349386Y-70922598D01*
X110337252Y-70924398D01*
X110325000Y-70925000D01*
X110075000Y-70925000D01*
X110062748Y-70924398D01*
X110050614Y-70922598D01*
X110038714Y-70919618D01*
X110027165Y-70915485D01*
X110016075Y-70910240D01*
X110005554Y-70903934D01*
X109995701Y-70896626D01*
X109986612Y-70888388D01*
X109978374Y-70879299D01*
X109971066Y-70869446D01*
X109964760Y-70858925D01*
X109959515Y-70847835D01*
X109955382Y-70836286D01*
X109952402Y-70824386D01*
X109950602Y-70812252D01*
X109950000Y-70800000D01*
X109950000Y-69550000D01*
X109950602Y-69537748D01*
X109952402Y-69525614D01*
X109955382Y-69513714D01*
X109959515Y-69502165D01*
X109964760Y-69491075D01*
X109971066Y-69480554D01*
X109978374Y-69470701D01*
X109986612Y-69461612D01*
X109995701Y-69453374D01*
X110005554Y-69446066D01*
X110016075Y-69439760D01*
X110027165Y-69434515D01*
X110038714Y-69430382D01*
X110050614Y-69427402D01*
X110062748Y-69425602D01*
X110075000Y-69425000D01*
X110325000Y-69425000D01*
X110337252Y-69425602D01*
X110337252Y-69425602D01*
G37*
D14*
X110200000Y-70175000D03*
D15*
X126900000Y-90940000D03*
X126900000Y-88400000D03*
X126900000Y-85860000D03*
D11*
X111000000Y-82920000D03*
X111000000Y-85460000D03*
X111000000Y-88000000D03*
D10*
X101000000Y-62000000D03*
X101000000Y-65960000D03*
X101000000Y-69920000D03*
X101000000Y-77000000D03*
X101000000Y-80960000D03*
X101000000Y-84920000D03*
D16*
X132000000Y-81550000D03*
X132000000Y-83450000D03*
X130000000Y-82500000D03*
D12*
G36*
X123649504Y-84313704D02*
G01*
X123673773Y-84317304D01*
X123697571Y-84323265D01*
X123720671Y-84331530D01*
X123742849Y-84342020D01*
X123763893Y-84354633D01*
X123783598Y-84369247D01*
X123801777Y-84385723D01*
X123818253Y-84403902D01*
X123832867Y-84423607D01*
X123845480Y-84444651D01*
X123855970Y-84466829D01*
X123864235Y-84489929D01*
X123870196Y-84513727D01*
X123873796Y-84537996D01*
X123875000Y-84562500D01*
X123875000Y-85487500D01*
X123873796Y-85512004D01*
X123870196Y-85536273D01*
X123864235Y-85560071D01*
X123855970Y-85583171D01*
X123845480Y-85605349D01*
X123832867Y-85626393D01*
X123818253Y-85646098D01*
X123801777Y-85664277D01*
X123783598Y-85680753D01*
X123763893Y-85695367D01*
X123742849Y-85707980D01*
X123720671Y-85718470D01*
X123697571Y-85726735D01*
X123673773Y-85732696D01*
X123649504Y-85736296D01*
X123625000Y-85737500D01*
X122375000Y-85737500D01*
X122350496Y-85736296D01*
X122326227Y-85732696D01*
X122302429Y-85726735D01*
X122279329Y-85718470D01*
X122257151Y-85707980D01*
X122236107Y-85695367D01*
X122216402Y-85680753D01*
X122198223Y-85664277D01*
X122181747Y-85646098D01*
X122167133Y-85626393D01*
X122154520Y-85605349D01*
X122144030Y-85583171D01*
X122135765Y-85560071D01*
X122129804Y-85536273D01*
X122126204Y-85512004D01*
X122125000Y-85487500D01*
X122125000Y-84562500D01*
X122126204Y-84537996D01*
X122129804Y-84513727D01*
X122135765Y-84489929D01*
X122144030Y-84466829D01*
X122154520Y-84444651D01*
X122167133Y-84423607D01*
X122181747Y-84403902D01*
X122198223Y-84385723D01*
X122216402Y-84369247D01*
X122236107Y-84354633D01*
X122257151Y-84342020D01*
X122279329Y-84331530D01*
X122302429Y-84323265D01*
X122326227Y-84317304D01*
X122350496Y-84313704D01*
X122375000Y-84312500D01*
X123625000Y-84312500D01*
X123649504Y-84313704D01*
X123649504Y-84313704D01*
G37*
D17*
X123000000Y-85025000D03*
D12*
G36*
X123649504Y-87288704D02*
G01*
X123673773Y-87292304D01*
X123697571Y-87298265D01*
X123720671Y-87306530D01*
X123742849Y-87317020D01*
X123763893Y-87329633D01*
X123783598Y-87344247D01*
X123801777Y-87360723D01*
X123818253Y-87378902D01*
X123832867Y-87398607D01*
X123845480Y-87419651D01*
X123855970Y-87441829D01*
X123864235Y-87464929D01*
X123870196Y-87488727D01*
X123873796Y-87512996D01*
X123875000Y-87537500D01*
X123875000Y-88462500D01*
X123873796Y-88487004D01*
X123870196Y-88511273D01*
X123864235Y-88535071D01*
X123855970Y-88558171D01*
X123845480Y-88580349D01*
X123832867Y-88601393D01*
X123818253Y-88621098D01*
X123801777Y-88639277D01*
X123783598Y-88655753D01*
X123763893Y-88670367D01*
X123742849Y-88682980D01*
X123720671Y-88693470D01*
X123697571Y-88701735D01*
X123673773Y-88707696D01*
X123649504Y-88711296D01*
X123625000Y-88712500D01*
X122375000Y-88712500D01*
X122350496Y-88711296D01*
X122326227Y-88707696D01*
X122302429Y-88701735D01*
X122279329Y-88693470D01*
X122257151Y-88682980D01*
X122236107Y-88670367D01*
X122216402Y-88655753D01*
X122198223Y-88639277D01*
X122181747Y-88621098D01*
X122167133Y-88601393D01*
X122154520Y-88580349D01*
X122144030Y-88558171D01*
X122135765Y-88535071D01*
X122129804Y-88511273D01*
X122126204Y-88487004D01*
X122125000Y-88462500D01*
X122125000Y-87537500D01*
X122126204Y-87512996D01*
X122129804Y-87488727D01*
X122135765Y-87464929D01*
X122144030Y-87441829D01*
X122154520Y-87419651D01*
X122167133Y-87398607D01*
X122181747Y-87378902D01*
X122198223Y-87360723D01*
X122216402Y-87344247D01*
X122236107Y-87329633D01*
X122257151Y-87317020D01*
X122279329Y-87306530D01*
X122302429Y-87298265D01*
X122326227Y-87292304D01*
X122350496Y-87288704D01*
X122375000Y-87287500D01*
X123625000Y-87287500D01*
X123649504Y-87288704D01*
X123649504Y-87288704D01*
G37*
D17*
X123000000Y-88000000D03*
D12*
G36*
X131037004Y-90263704D02*
G01*
X131061273Y-90267304D01*
X131085071Y-90273265D01*
X131108171Y-90281530D01*
X131130349Y-90292020D01*
X131151393Y-90304633D01*
X131171098Y-90319247D01*
X131189277Y-90335723D01*
X131205753Y-90353902D01*
X131220367Y-90373607D01*
X131232980Y-90394651D01*
X131243470Y-90416829D01*
X131251735Y-90439929D01*
X131257696Y-90463727D01*
X131261296Y-90487996D01*
X131262500Y-90512500D01*
X131262500Y-91437500D01*
X131261296Y-91462004D01*
X131257696Y-91486273D01*
X131251735Y-91510071D01*
X131243470Y-91533171D01*
X131232980Y-91555349D01*
X131220367Y-91576393D01*
X131205753Y-91596098D01*
X131189277Y-91614277D01*
X131171098Y-91630753D01*
X131151393Y-91645367D01*
X131130349Y-91657980D01*
X131108171Y-91668470D01*
X131085071Y-91676735D01*
X131061273Y-91682696D01*
X131037004Y-91686296D01*
X131012500Y-91687500D01*
X129762500Y-91687500D01*
X129737996Y-91686296D01*
X129713727Y-91682696D01*
X129689929Y-91676735D01*
X129666829Y-91668470D01*
X129644651Y-91657980D01*
X129623607Y-91645367D01*
X129603902Y-91630753D01*
X129585723Y-91614277D01*
X129569247Y-91596098D01*
X129554633Y-91576393D01*
X129542020Y-91555349D01*
X129531530Y-91533171D01*
X129523265Y-91510071D01*
X129517304Y-91486273D01*
X129513704Y-91462004D01*
X129512500Y-91437500D01*
X129512500Y-90512500D01*
X129513704Y-90487996D01*
X129517304Y-90463727D01*
X129523265Y-90439929D01*
X129531530Y-90416829D01*
X129542020Y-90394651D01*
X129554633Y-90373607D01*
X129569247Y-90353902D01*
X129585723Y-90335723D01*
X129603902Y-90319247D01*
X129623607Y-90304633D01*
X129644651Y-90292020D01*
X129666829Y-90281530D01*
X129689929Y-90273265D01*
X129713727Y-90267304D01*
X129737996Y-90263704D01*
X129762500Y-90262500D01*
X131012500Y-90262500D01*
X131037004Y-90263704D01*
X131037004Y-90263704D01*
G37*
D17*
X130387500Y-90975000D03*
D12*
G36*
X131037004Y-87288704D02*
G01*
X131061273Y-87292304D01*
X131085071Y-87298265D01*
X131108171Y-87306530D01*
X131130349Y-87317020D01*
X131151393Y-87329633D01*
X131171098Y-87344247D01*
X131189277Y-87360723D01*
X131205753Y-87378902D01*
X131220367Y-87398607D01*
X131232980Y-87419651D01*
X131243470Y-87441829D01*
X131251735Y-87464929D01*
X131257696Y-87488727D01*
X131261296Y-87512996D01*
X131262500Y-87537500D01*
X131262500Y-88462500D01*
X131261296Y-88487004D01*
X131257696Y-88511273D01*
X131251735Y-88535071D01*
X131243470Y-88558171D01*
X131232980Y-88580349D01*
X131220367Y-88601393D01*
X131205753Y-88621098D01*
X131189277Y-88639277D01*
X131171098Y-88655753D01*
X131151393Y-88670367D01*
X131130349Y-88682980D01*
X131108171Y-88693470D01*
X131085071Y-88701735D01*
X131061273Y-88707696D01*
X131037004Y-88711296D01*
X131012500Y-88712500D01*
X129762500Y-88712500D01*
X129737996Y-88711296D01*
X129713727Y-88707696D01*
X129689929Y-88701735D01*
X129666829Y-88693470D01*
X129644651Y-88682980D01*
X129623607Y-88670367D01*
X129603902Y-88655753D01*
X129585723Y-88639277D01*
X129569247Y-88621098D01*
X129554633Y-88601393D01*
X129542020Y-88580349D01*
X129531530Y-88558171D01*
X129523265Y-88535071D01*
X129517304Y-88511273D01*
X129513704Y-88487004D01*
X129512500Y-88462500D01*
X129512500Y-87537500D01*
X129513704Y-87512996D01*
X129517304Y-87488727D01*
X129523265Y-87464929D01*
X129531530Y-87441829D01*
X129542020Y-87419651D01*
X129554633Y-87398607D01*
X129569247Y-87378902D01*
X129585723Y-87360723D01*
X129603902Y-87344247D01*
X129623607Y-87329633D01*
X129644651Y-87317020D01*
X129666829Y-87306530D01*
X129689929Y-87298265D01*
X129713727Y-87292304D01*
X129737996Y-87288704D01*
X129762500Y-87287500D01*
X131012500Y-87287500D01*
X131037004Y-87288704D01*
X131037004Y-87288704D01*
G37*
D17*
X130387500Y-88000000D03*
D18*
X114400000Y-66000000D03*
X105250000Y-59000000D03*
X123000000Y-68500000D03*
X118500000Y-61000000D03*
X106500000Y-70000000D03*
X106500000Y-66500000D03*
X118000000Y-72000000D03*
X134500000Y-56000000D03*
X134500000Y-79000000D03*
X128500000Y-79000000D03*
X126000000Y-81500000D03*
X134500000Y-84000000D03*
X131000000Y-63000000D03*
D19*
X101500000Y-73500000D03*
X105000000Y-64000000D03*
X106000000Y-74000000D03*
D20*
X115800000Y-62675000D02*
X115800000Y-61825000D01*
X115800000Y-63725000D02*
X115800000Y-62675000D01*
X110200000Y-69325000D02*
X115800000Y-63725000D01*
X110200000Y-70175000D02*
X110200000Y-69325000D01*
X123635000Y-71525000D02*
X123635000Y-69135000D01*
X123635000Y-69135000D02*
X123000000Y-68500000D01*
X117175000Y-63200000D02*
X117175000Y-62325000D01*
X107625000Y-70000000D02*
X108825000Y-68800000D01*
X106500000Y-70000000D02*
X107625000Y-70000000D01*
X108825000Y-65600000D02*
X107400000Y-65600000D01*
X107400000Y-65600000D02*
X106500000Y-66500000D01*
D21*
X120895000Y-82920000D02*
X123000000Y-85025000D01*
X111000000Y-82920000D02*
X120895000Y-82920000D01*
X126065000Y-85025000D02*
X126900000Y-85860000D01*
X123000000Y-85025000D02*
X126065000Y-85025000D01*
X118500000Y-61000000D02*
X117175000Y-62325000D01*
D20*
X115800000Y-70175000D02*
X116175000Y-70175000D01*
D21*
X118000000Y-72000000D02*
X116500000Y-70500000D01*
D20*
X116175000Y-70175000D02*
X116500000Y-70500000D01*
D21*
X138000000Y-55120000D02*
X135380000Y-55120000D01*
X135380000Y-55120000D02*
X134500000Y-56000000D01*
X132000000Y-81500000D02*
X134500000Y-79000000D01*
X132000000Y-81550000D02*
X132000000Y-81500000D01*
X137000000Y-79000000D02*
X138000000Y-80000000D01*
X134500000Y-79000000D02*
X137000000Y-79000000D01*
D20*
X123635000Y-77594230D02*
X123635000Y-76475000D01*
X125040770Y-79000000D02*
X123635000Y-77594230D01*
X128500000Y-79000000D02*
X125040770Y-79000000D01*
X125985120Y-81500000D02*
X126000000Y-81500000D01*
X122365000Y-76475000D02*
X122365000Y-77879880D01*
X122365000Y-77879880D02*
X125985120Y-81500000D01*
D21*
X137960000Y-84000000D02*
X138000000Y-83960000D01*
X134500000Y-84000000D02*
X137960000Y-84000000D01*
X134920000Y-59080000D02*
X138000000Y-59080000D01*
X131000000Y-63000000D02*
X134920000Y-59080000D01*
X132550000Y-84000000D02*
X132000000Y-83450000D01*
X134500000Y-84000000D02*
X132550000Y-84000000D01*
X101000000Y-77000000D02*
X101000000Y-74000000D01*
X101000000Y-74000000D02*
X101500000Y-73500000D01*
D20*
X105000000Y-64000000D02*
X108825000Y-64000000D01*
D21*
X107625000Y-62000000D02*
X101000000Y-62000000D01*
X107625000Y-62000000D02*
X108312500Y-62687500D01*
D20*
X108312500Y-62687500D02*
X108825000Y-63200000D01*
X117175000Y-65600000D02*
X120400000Y-65600000D01*
X120400000Y-65600000D02*
X121000000Y-65000000D01*
D21*
X122920000Y-63080000D02*
X125000000Y-63080000D01*
X121000000Y-65000000D02*
X122920000Y-63080000D01*
D20*
X124795771Y-60540000D02*
X125000000Y-60540000D01*
D21*
X123150000Y-60540000D02*
X119190000Y-64500000D01*
X125000000Y-60540000D02*
X123150000Y-60540000D01*
D20*
X118890000Y-64800000D02*
X117175000Y-64800000D01*
X119190000Y-64500000D02*
X118890000Y-64800000D01*
D21*
X114080000Y-74650000D02*
X112000000Y-72570000D01*
X114080000Y-76500000D02*
X114080000Y-74650000D01*
D20*
X111800000Y-72370000D02*
X111800000Y-70175000D01*
X112000000Y-72570000D02*
X111800000Y-72370000D01*
D21*
X116620000Y-74650000D02*
X114000000Y-72030000D01*
X116620000Y-76500000D02*
X116620000Y-74650000D01*
D20*
X112600000Y-71025000D02*
X112600000Y-70175000D01*
X113605000Y-72030000D02*
X112600000Y-71025000D01*
X114000000Y-72030000D02*
X113605000Y-72030000D01*
X112600000Y-61825000D02*
X112600000Y-60900000D01*
X112600000Y-60900000D02*
X113500000Y-60000000D01*
D21*
X115500000Y-58000000D02*
X115500000Y-56000000D01*
X113500000Y-60000000D02*
X115500000Y-58000000D01*
X112960000Y-56000000D02*
X112960000Y-58772220D01*
X112960000Y-58772220D02*
X112366110Y-59366110D01*
D20*
X111800000Y-59932220D02*
X111800000Y-61825000D01*
X112366110Y-59366110D02*
X111800000Y-59932220D01*
X111000000Y-61825000D02*
X111000000Y-60000000D01*
X111000000Y-60000000D02*
X110500000Y-59500000D01*
D21*
X110420000Y-59420000D02*
X110420000Y-56000000D01*
X110500000Y-59500000D02*
X110420000Y-59420000D01*
D20*
X110200000Y-61825000D02*
X109000000Y-60625000D01*
D21*
X107880000Y-59505000D02*
X107880000Y-56000000D01*
X109000000Y-60625000D02*
X107880000Y-59505000D01*
X106000000Y-74000000D02*
X107500000Y-72500000D01*
X107500000Y-72500000D02*
X109500000Y-72500000D01*
D20*
X111000000Y-71025000D02*
X111000000Y-70175000D01*
X109525000Y-72500000D02*
X111000000Y-71025000D01*
X109500000Y-72500000D02*
X109525000Y-72500000D01*
X117175000Y-67200000D02*
X120200000Y-67200000D01*
X121095000Y-68095000D02*
X121095000Y-71525000D01*
X120200000Y-67200000D02*
X121095000Y-68095000D01*
X117175000Y-66400000D02*
X124400000Y-66400000D01*
X124905000Y-66905000D02*
X124905000Y-71525000D01*
X124400000Y-66400000D02*
X124905000Y-66905000D01*
D22*
G36*
X123878001Y-69873000D02*
G01*
X122932755Y-69873000D01*
X122871186Y-69840091D01*
X122696582Y-69787125D01*
X122515000Y-69769241D01*
X122215000Y-69769241D01*
X122122000Y-69778401D01*
X122122000Y-68145440D01*
X122126968Y-68094999D01*
X122122000Y-68044558D01*
X122122000Y-68044549D01*
X122107140Y-67893673D01*
X122048415Y-67700083D01*
X121953051Y-67521669D01*
X121875358Y-67427000D01*
X123878000Y-67427000D01*
X123878001Y-69873000D01*
X123878001Y-69873000D01*
G37*
X123878001Y-69873000D02*
X122932755Y-69873000D01*
X122871186Y-69840091D01*
X122696582Y-69787125D01*
X122515000Y-69769241D01*
X122215000Y-69769241D01*
X122122000Y-69778401D01*
X122122000Y-68145440D01*
X122126968Y-68094999D01*
X122122000Y-68044558D01*
X122122000Y-68044549D01*
X122107140Y-67893673D01*
X122048415Y-67700083D01*
X121953051Y-67521669D01*
X121875358Y-67427000D01*
X123878000Y-67427000D01*
X123878001Y-69873000D01*
D23*
G36*
X132841290Y-55496836D02*
G01*
X132775000Y-55830102D01*
X132775000Y-56169898D01*
X132841290Y-56503164D01*
X132971324Y-56817094D01*
X133160105Y-57099624D01*
X133400376Y-57339895D01*
X133682906Y-57528676D01*
X133996836Y-57658710D01*
X134330102Y-57725000D01*
X134650107Y-57725000D01*
X134418540Y-57795245D01*
X134391264Y-57803519D01*
X134152394Y-57931198D01*
X133995492Y-58059964D01*
X133995488Y-58059968D01*
X133943024Y-58103024D01*
X133899968Y-58155488D01*
X130768130Y-61287327D01*
X130496836Y-61341290D01*
X130182906Y-61471324D01*
X129900376Y-61660105D01*
X129660105Y-61900376D01*
X129471324Y-62182906D01*
X129341290Y-62496836D01*
X129275000Y-62830102D01*
X129275000Y-63169898D01*
X129341290Y-63503164D01*
X129471324Y-63817094D01*
X129660105Y-64099624D01*
X129900376Y-64339895D01*
X130182906Y-64528676D01*
X130496836Y-64658710D01*
X130830102Y-64725000D01*
X131169898Y-64725000D01*
X131503164Y-64658710D01*
X131817094Y-64528676D01*
X132099624Y-64339895D01*
X132339895Y-64099624D01*
X132528676Y-63817094D01*
X132658710Y-63503164D01*
X132712673Y-63231870D01*
X135489544Y-60455000D01*
X135773229Y-60455000D01*
X135787661Y-60601530D01*
X135837695Y-60766468D01*
X135918944Y-60918476D01*
X136028288Y-61051712D01*
X136038387Y-61060000D01*
X136028288Y-61068288D01*
X135918944Y-61201524D01*
X135837694Y-61353532D01*
X135787660Y-61518470D01*
X135770766Y-61690000D01*
X135775000Y-62596250D01*
X135993750Y-62815000D01*
X137775000Y-62815000D01*
X137775000Y-62795000D01*
X138225000Y-62795000D01*
X138225000Y-62815000D01*
X138245000Y-62815000D01*
X138245000Y-63265000D01*
X138225000Y-63265000D01*
X138225000Y-63285000D01*
X137775000Y-63285000D01*
X137775000Y-63265000D01*
X135993750Y-63265000D01*
X135775000Y-63483750D01*
X135772536Y-64011045D01*
X135765352Y-64012970D01*
X135644762Y-64062920D01*
X135582589Y-64098816D01*
X135479036Y-64178276D01*
X135428276Y-64229036D01*
X135348816Y-64332589D01*
X135312920Y-64394762D01*
X135262970Y-64515352D01*
X135244390Y-64584696D01*
X135227353Y-64714106D01*
X135225000Y-64750000D01*
X135225000Y-68996631D01*
X135228354Y-69039450D01*
X135252598Y-69193256D01*
X135266171Y-69245429D01*
X135278941Y-69274741D01*
X135349322Y-69413631D01*
X135378286Y-69459099D01*
X135399454Y-69483062D01*
X135509147Y-69593568D01*
X135541693Y-69621594D01*
X138865685Y-72059189D01*
X138929666Y-72123643D01*
X138960859Y-72185201D01*
X138975000Y-72274910D01*
X138975000Y-77770767D01*
X137617130Y-77770767D01*
X137528736Y-77723519D01*
X137269547Y-77644895D01*
X137067549Y-77625000D01*
X137067539Y-77625000D01*
X137000000Y-77618348D01*
X136932461Y-77625000D01*
X135547086Y-77625000D01*
X135317094Y-77471324D01*
X135003164Y-77341290D01*
X134669898Y-77275000D01*
X134330102Y-77275000D01*
X133996836Y-77341290D01*
X133682906Y-77471324D01*
X133400376Y-77660105D01*
X133160105Y-77900376D01*
X132971324Y-78182906D01*
X132841290Y-78496836D01*
X132787327Y-78768129D01*
X131219604Y-80335853D01*
X131213532Y-80337695D01*
X131061524Y-80418944D01*
X130928288Y-80528288D01*
X130818944Y-80661524D01*
X130737695Y-80813532D01*
X130687661Y-80978470D01*
X130671472Y-81142839D01*
X130644895Y-81230453D01*
X130643528Y-81244333D01*
X130621530Y-81237660D01*
X130450000Y-81220766D01*
X130393750Y-81225000D01*
X130175000Y-81443750D01*
X130175000Y-82375000D01*
X130245000Y-82375000D01*
X130245000Y-82625000D01*
X130175000Y-82625000D01*
X130175000Y-83556250D01*
X130393750Y-83775000D01*
X130450000Y-83779234D01*
X130621530Y-83762340D01*
X130654814Y-83752243D01*
X130670767Y-83804832D01*
X130670767Y-83850000D01*
X130687661Y-84021530D01*
X130737695Y-84186468D01*
X130818944Y-84338476D01*
X130928288Y-84471712D01*
X131061524Y-84581056D01*
X131213532Y-84662305D01*
X131291377Y-84685919D01*
X131529959Y-84924502D01*
X131573024Y-84976976D01*
X131782395Y-85148802D01*
X132021264Y-85276481D01*
X132280453Y-85355105D01*
X132482451Y-85375000D01*
X132482460Y-85375000D01*
X132549999Y-85381652D01*
X132617538Y-85375000D01*
X133452914Y-85375000D01*
X133682906Y-85528676D01*
X133996836Y-85658710D01*
X134330102Y-85725000D01*
X134669898Y-85725000D01*
X135003164Y-85658710D01*
X135317094Y-85528676D01*
X135547086Y-85375000D01*
X135777169Y-85375000D01*
X135787661Y-85481530D01*
X135837695Y-85646468D01*
X135918944Y-85798476D01*
X136028288Y-85931712D01*
X136038387Y-85940000D01*
X136028288Y-85948288D01*
X135918944Y-86081524D01*
X135837694Y-86233532D01*
X135787660Y-86398470D01*
X135770766Y-86570000D01*
X135775000Y-87476250D01*
X135993750Y-87695000D01*
X137775000Y-87695000D01*
X137775000Y-87675000D01*
X138225000Y-87675000D01*
X138225000Y-87695000D01*
X138245000Y-87695000D01*
X138245000Y-88145000D01*
X138225000Y-88145000D01*
X138225000Y-88165000D01*
X137775000Y-88165000D01*
X137775000Y-88145000D01*
X135993750Y-88145000D01*
X135775000Y-88363750D01*
X135772144Y-88975000D01*
X132097244Y-88975000D01*
X132124840Y-88884030D01*
X132141734Y-88712500D01*
X132137500Y-88443750D01*
X131918750Y-88225000D01*
X130612500Y-88225000D01*
X130612500Y-88245000D01*
X130162500Y-88245000D01*
X130162500Y-88225000D01*
X130142500Y-88225000D01*
X130142500Y-87775000D01*
X130162500Y-87775000D01*
X130162500Y-86631250D01*
X130612500Y-86631250D01*
X130612500Y-87775000D01*
X131918750Y-87775000D01*
X132137500Y-87556250D01*
X132141734Y-87287500D01*
X132124840Y-87115970D01*
X132074806Y-86951032D01*
X131993556Y-86799024D01*
X131884212Y-86665788D01*
X131750976Y-86556444D01*
X131598968Y-86475194D01*
X131434030Y-86425160D01*
X131262500Y-86408266D01*
X130831250Y-86412500D01*
X130612500Y-86631250D01*
X130162500Y-86631250D01*
X129943750Y-86412500D01*
X129512500Y-86408266D01*
X129340970Y-86425160D01*
X129176032Y-86475194D01*
X129024024Y-86556444D01*
X128890788Y-86665788D01*
X128781444Y-86799024D01*
X128779233Y-86803160D01*
X128779233Y-84907500D01*
X128762339Y-84735970D01*
X128712305Y-84571032D01*
X128631056Y-84419024D01*
X128521712Y-84285788D01*
X128388476Y-84176444D01*
X128236468Y-84095195D01*
X128071530Y-84045161D01*
X127900000Y-84028267D01*
X127017902Y-84028267D01*
X126832605Y-83876198D01*
X126593736Y-83748519D01*
X126334547Y-83669895D01*
X126132549Y-83650000D01*
X126132539Y-83650000D01*
X126065000Y-83643348D01*
X125997461Y-83650000D01*
X124284564Y-83650000D01*
X124252368Y-83623577D01*
X124057139Y-83519225D01*
X123845302Y-83454965D01*
X123625000Y-83433267D01*
X123352811Y-83433267D01*
X121915036Y-81995493D01*
X121871976Y-81943024D01*
X121662605Y-81771198D01*
X121423736Y-81643519D01*
X121164547Y-81564895D01*
X120962549Y-81545000D01*
X120962539Y-81545000D01*
X120895000Y-81538348D01*
X120827461Y-81545000D01*
X112551082Y-81545000D01*
X112471712Y-81448288D01*
X112338476Y-81338944D01*
X112186468Y-81257695D01*
X112021530Y-81207661D01*
X111850000Y-81190767D01*
X110150000Y-81190767D01*
X109978470Y-81207661D01*
X109813532Y-81257695D01*
X109661524Y-81338944D01*
X109528288Y-81448288D01*
X109418944Y-81581524D01*
X109337695Y-81733532D01*
X109287661Y-81898470D01*
X109270767Y-82070000D01*
X109270767Y-83770000D01*
X109287661Y-83941530D01*
X109337695Y-84106468D01*
X109382343Y-84190000D01*
X109337695Y-84273532D01*
X109287661Y-84438470D01*
X109270767Y-84610000D01*
X109270767Y-86310000D01*
X109287661Y-86481530D01*
X109337695Y-86646468D01*
X109382343Y-86730000D01*
X109337694Y-86813532D01*
X109287660Y-86978470D01*
X109270766Y-87150000D01*
X109275000Y-87556250D01*
X109493750Y-87775000D01*
X110775000Y-87775000D01*
X110775000Y-87755000D01*
X111225000Y-87755000D01*
X111225000Y-87775000D01*
X112506250Y-87775000D01*
X112725000Y-87556250D01*
X112729234Y-87150000D01*
X112712340Y-86978470D01*
X112662306Y-86813532D01*
X112617657Y-86730000D01*
X112662305Y-86646468D01*
X112712339Y-86481530D01*
X112729233Y-86310000D01*
X112729233Y-84610000D01*
X112712339Y-84438470D01*
X112668817Y-84295000D01*
X120325457Y-84295000D01*
X121245767Y-85215311D01*
X121245767Y-85487500D01*
X121267465Y-85707802D01*
X121331725Y-85919639D01*
X121436077Y-86114868D01*
X121576512Y-86285988D01*
X121747632Y-86426423D01*
X121820649Y-86465451D01*
X121788532Y-86475194D01*
X121636524Y-86556444D01*
X121503288Y-86665788D01*
X121393944Y-86799024D01*
X121312694Y-86951032D01*
X121262660Y-87115970D01*
X121245766Y-87287500D01*
X121250000Y-87556250D01*
X121468750Y-87775000D01*
X122775000Y-87775000D01*
X122775000Y-87755000D01*
X123225000Y-87755000D01*
X123225000Y-87775000D01*
X124531250Y-87775000D01*
X124750000Y-87556250D01*
X124754234Y-87287500D01*
X124737340Y-87115970D01*
X124687306Y-86951032D01*
X124606056Y-86799024D01*
X124496712Y-86665788D01*
X124363476Y-86556444D01*
X124211468Y-86475194D01*
X124179351Y-86465451D01*
X124252368Y-86426423D01*
X124284564Y-86400000D01*
X125020767Y-86400000D01*
X125020767Y-86812500D01*
X125037661Y-86984030D01*
X125081941Y-87129998D01*
X125037660Y-87275970D01*
X125020766Y-87447500D01*
X125025000Y-87956250D01*
X125243750Y-88175000D01*
X126675000Y-88175000D01*
X126675000Y-88155000D01*
X127125000Y-88155000D01*
X127125000Y-88175000D01*
X127145000Y-88175000D01*
X127145000Y-88625000D01*
X127125000Y-88625000D01*
X127125000Y-88645000D01*
X126675000Y-88645000D01*
X126675000Y-88625000D01*
X125243750Y-88625000D01*
X125025000Y-88843750D01*
X125023908Y-88975000D01*
X124709744Y-88975000D01*
X124737340Y-88884030D01*
X124754234Y-88712500D01*
X124750000Y-88443750D01*
X124531250Y-88225000D01*
X123225000Y-88225000D01*
X123225000Y-88245000D01*
X122775000Y-88245000D01*
X122775000Y-88225000D01*
X121468750Y-88225000D01*
X121250000Y-88443750D01*
X121245766Y-88712500D01*
X121262660Y-88884030D01*
X121290256Y-88975000D01*
X112716923Y-88975000D01*
X112729234Y-88850000D01*
X112725000Y-88443750D01*
X112506250Y-88225000D01*
X111225000Y-88225000D01*
X111225000Y-88245000D01*
X110775000Y-88245000D01*
X110775000Y-88225000D01*
X109493750Y-88225000D01*
X109275000Y-88443750D01*
X109270766Y-88850000D01*
X109283077Y-88975000D01*
X102504301Y-88975000D01*
X102420264Y-88962642D01*
X102361754Y-88935237D01*
X102298464Y-88878593D01*
X100718552Y-86982698D01*
X100775000Y-86926250D01*
X100775000Y-85145000D01*
X101225000Y-85145000D01*
X101225000Y-86926250D01*
X101443750Y-87145000D01*
X102350000Y-87149234D01*
X102521530Y-87132340D01*
X102686468Y-87082306D01*
X102838476Y-87001056D01*
X102971712Y-86891712D01*
X103081056Y-86758476D01*
X103162306Y-86606468D01*
X103212340Y-86441530D01*
X103229234Y-86270000D01*
X103225000Y-85363750D01*
X103006250Y-85145000D01*
X101225000Y-85145000D01*
X100775000Y-85145000D01*
X100755000Y-85145000D01*
X100755000Y-84695000D01*
X100775000Y-84695000D01*
X100775000Y-84675000D01*
X101225000Y-84675000D01*
X101225000Y-84695000D01*
X103006250Y-84695000D01*
X103225000Y-84476250D01*
X103229234Y-83570000D01*
X103212340Y-83398470D01*
X103204524Y-83372706D01*
X103270964Y-83321724D01*
X103321724Y-83270964D01*
X103401184Y-83167411D01*
X103437080Y-83105238D01*
X103487030Y-82984648D01*
X103505610Y-82915304D01*
X103522647Y-82785894D01*
X103525000Y-82750000D01*
X103525000Y-78750711D01*
X103522643Y-78714784D01*
X103505575Y-78585260D01*
X103486961Y-78515859D01*
X103436923Y-78395178D01*
X103400968Y-78332968D01*
X103321376Y-78229368D01*
X103270530Y-78178595D01*
X103229233Y-78146961D01*
X103229233Y-75650000D01*
X107270767Y-75650000D01*
X107270767Y-77350000D01*
X107287661Y-77521530D01*
X107337695Y-77686468D01*
X107418944Y-77838476D01*
X107528288Y-77971712D01*
X107661524Y-78081056D01*
X107813532Y-78162305D01*
X107978470Y-78212339D01*
X108150000Y-78229233D01*
X109850000Y-78229233D01*
X110021530Y-78212339D01*
X110186468Y-78162305D01*
X110270000Y-78117657D01*
X110353532Y-78162306D01*
X110518470Y-78212340D01*
X110690000Y-78229234D01*
X111096250Y-78225000D01*
X111315000Y-78006250D01*
X111315000Y-76725000D01*
X111295000Y-76725000D01*
X111295000Y-76275000D01*
X111315000Y-76275000D01*
X111315000Y-74993750D01*
X111096250Y-74775000D01*
X110690000Y-74770766D01*
X110518470Y-74787660D01*
X110353532Y-74837694D01*
X110270000Y-74882343D01*
X110186468Y-74837695D01*
X110021530Y-74787661D01*
X109850000Y-74770767D01*
X108150000Y-74770767D01*
X107978470Y-74787661D01*
X107813532Y-74837695D01*
X107661524Y-74918944D01*
X107528288Y-75028288D01*
X107418944Y-75161524D01*
X107337695Y-75313532D01*
X107287661Y-75478470D01*
X107270767Y-75650000D01*
X103229233Y-75650000D01*
X103212339Y-75478470D01*
X103162305Y-75313532D01*
X103081056Y-75161524D01*
X102971712Y-75028288D01*
X102838476Y-74918944D01*
X102686468Y-74837695D01*
X102521530Y-74787661D01*
X102500850Y-74785624D01*
X102535877Y-74762220D01*
X102762220Y-74535877D01*
X102940057Y-74269726D01*
X103062552Y-73973995D01*
X103125000Y-73660049D01*
X103125000Y-73339951D01*
X103062552Y-73026005D01*
X102940057Y-72730274D01*
X102762220Y-72464123D01*
X102535877Y-72237780D01*
X102396504Y-72144654D01*
X102521530Y-72132340D01*
X102686468Y-72082306D01*
X102838476Y-72001056D01*
X102971712Y-71891712D01*
X103081056Y-71758476D01*
X103162306Y-71606468D01*
X103212340Y-71441530D01*
X103229234Y-71270000D01*
X103225000Y-70363750D01*
X103006250Y-70145000D01*
X101225000Y-70145000D01*
X101225000Y-70165000D01*
X100775000Y-70165000D01*
X100775000Y-70145000D01*
X100755000Y-70145000D01*
X100755000Y-69695000D01*
X100775000Y-69695000D01*
X100775000Y-69675000D01*
X101225000Y-69675000D01*
X101225000Y-69695000D01*
X103006250Y-69695000D01*
X103225000Y-69476250D01*
X103229076Y-68603866D01*
X103270964Y-68571724D01*
X103321724Y-68520964D01*
X103401184Y-68417411D01*
X103437080Y-68355238D01*
X103487030Y-68234648D01*
X103505610Y-68165304D01*
X103522647Y-68035894D01*
X103525000Y-68000000D01*
X103525000Y-64687868D01*
X103524825Y-64684942D01*
X103559943Y-64769726D01*
X103737780Y-65035877D01*
X103964123Y-65262220D01*
X104230274Y-65440057D01*
X104526005Y-65562552D01*
X104839951Y-65625000D01*
X105010016Y-65625000D01*
X104971324Y-65682906D01*
X104841290Y-65996836D01*
X104775000Y-66330102D01*
X104775000Y-66669898D01*
X104841290Y-67003164D01*
X104971324Y-67317094D01*
X105160105Y-67599624D01*
X105400376Y-67839895D01*
X105682906Y-68028676D01*
X105996836Y-68158710D01*
X106330102Y-68225000D01*
X106669898Y-68225000D01*
X107003164Y-68158710D01*
X107195767Y-68078931D01*
X107195767Y-68125000D01*
X107215063Y-68320916D01*
X107239053Y-68400000D01*
X107228543Y-68434645D01*
X107003164Y-68341290D01*
X106669898Y-68275000D01*
X106330102Y-68275000D01*
X105996836Y-68341290D01*
X105682906Y-68471324D01*
X105400376Y-68660105D01*
X105160105Y-68900376D01*
X104971324Y-69182906D01*
X104841290Y-69496836D01*
X104775000Y-69830102D01*
X104775000Y-70169898D01*
X104841290Y-70503164D01*
X104971324Y-70817094D01*
X105160105Y-71099624D01*
X105400376Y-71339895D01*
X105682906Y-71528676D01*
X105996836Y-71658710D01*
X106330102Y-71725000D01*
X106330457Y-71725000D01*
X105640854Y-72414603D01*
X105526005Y-72437448D01*
X105230274Y-72559943D01*
X104964123Y-72737780D01*
X104737780Y-72964123D01*
X104559943Y-73230274D01*
X104437448Y-73526005D01*
X104375000Y-73839951D01*
X104375000Y-74160049D01*
X104437448Y-74473995D01*
X104559943Y-74769726D01*
X104737780Y-75035877D01*
X104964123Y-75262220D01*
X105230274Y-75440057D01*
X105526005Y-75562552D01*
X105839951Y-75625000D01*
X106160049Y-75625000D01*
X106473995Y-75562552D01*
X106769726Y-75440057D01*
X107035877Y-75262220D01*
X107262220Y-75035877D01*
X107440057Y-74769726D01*
X107562552Y-74473995D01*
X107585397Y-74359146D01*
X108069543Y-73875000D01*
X109567549Y-73875000D01*
X109769547Y-73855105D01*
X110028736Y-73776481D01*
X110267605Y-73648802D01*
X110476976Y-73476976D01*
X110648802Y-73267605D01*
X110731292Y-73113278D01*
X110851198Y-73337605D01*
X110979964Y-73494507D01*
X112257602Y-74772146D01*
X111983750Y-74775000D01*
X111765000Y-74993750D01*
X111765000Y-76275000D01*
X111785000Y-76275000D01*
X111785000Y-76725000D01*
X111765000Y-76725000D01*
X111765000Y-78006250D01*
X111983750Y-78225000D01*
X112390000Y-78229234D01*
X112561530Y-78212340D01*
X112726468Y-78162306D01*
X112810000Y-78117657D01*
X112893532Y-78162305D01*
X113058470Y-78212339D01*
X113230000Y-78229233D01*
X114930000Y-78229233D01*
X115101530Y-78212339D01*
X115266468Y-78162305D01*
X115350000Y-78117657D01*
X115433532Y-78162305D01*
X115598470Y-78212339D01*
X115770000Y-78229233D01*
X117470000Y-78229233D01*
X117641530Y-78212339D01*
X117806468Y-78162305D01*
X117958476Y-78081056D01*
X118091712Y-77971712D01*
X118201056Y-77838476D01*
X118282305Y-77686468D01*
X118332339Y-77521530D01*
X118349233Y-77350000D01*
X118349233Y-75650000D01*
X119915767Y-75650000D01*
X119915767Y-77300000D01*
X119935543Y-77500793D01*
X119994113Y-77693870D01*
X120089224Y-77871811D01*
X120217222Y-78027778D01*
X120373189Y-78155776D01*
X120551130Y-78250887D01*
X120744207Y-78309457D01*
X120945000Y-78329233D01*
X121245000Y-78329233D01*
X121325332Y-78321321D01*
X121405479Y-78471264D01*
X121425072Y-78507920D01*
X121565657Y-78679224D01*
X121608585Y-78714454D01*
X124275000Y-81380870D01*
X124275000Y-81669898D01*
X124341290Y-82003164D01*
X124471324Y-82317094D01*
X124660105Y-82599624D01*
X124900376Y-82839895D01*
X125182906Y-83028676D01*
X125496836Y-83158710D01*
X125830102Y-83225000D01*
X126169898Y-83225000D01*
X126503164Y-83158710D01*
X126817094Y-83028676D01*
X127009670Y-82900000D01*
X128670766Y-82900000D01*
X128687660Y-83071530D01*
X128737694Y-83236468D01*
X128818944Y-83388476D01*
X128928288Y-83521712D01*
X129061524Y-83631056D01*
X129213532Y-83712306D01*
X129378470Y-83762340D01*
X129550000Y-83779234D01*
X129606250Y-83775000D01*
X129825000Y-83556250D01*
X129825000Y-82625000D01*
X128893750Y-82625000D01*
X128675000Y-82843750D01*
X128670766Y-82900000D01*
X127009670Y-82900000D01*
X127099624Y-82839895D01*
X127339895Y-82599624D01*
X127528676Y-82317094D01*
X127618599Y-82100000D01*
X128670766Y-82100000D01*
X128675000Y-82156250D01*
X128893750Y-82375000D01*
X129825000Y-82375000D01*
X129825000Y-81443750D01*
X129606250Y-81225000D01*
X129550000Y-81220766D01*
X129378470Y-81237660D01*
X129213532Y-81287694D01*
X129061524Y-81368944D01*
X128928288Y-81478288D01*
X128818944Y-81611524D01*
X128737694Y-81763532D01*
X128687660Y-81928470D01*
X128670766Y-82100000D01*
X127618599Y-82100000D01*
X127658710Y-82003164D01*
X127725000Y-81669898D01*
X127725000Y-81330102D01*
X127658710Y-80996836D01*
X127528676Y-80682906D01*
X127339895Y-80400376D01*
X127099624Y-80160105D01*
X127047086Y-80125000D01*
X127185481Y-80125000D01*
X127400376Y-80339895D01*
X127682906Y-80528676D01*
X127996836Y-80658710D01*
X128330102Y-80725000D01*
X128669898Y-80725000D01*
X129003164Y-80658710D01*
X129317094Y-80528676D01*
X129599624Y-80339895D01*
X129839895Y-80099624D01*
X130028676Y-79817094D01*
X130158710Y-79503164D01*
X130225000Y-79169898D01*
X130225000Y-78830102D01*
X130158710Y-78496836D01*
X130028676Y-78182906D01*
X129839895Y-77900376D01*
X129599624Y-77660105D01*
X129317094Y-77471324D01*
X129003164Y-77341290D01*
X128669898Y-77275000D01*
X128330102Y-77275000D01*
X127996836Y-77341290D01*
X127682906Y-77471324D01*
X127400376Y-77660105D01*
X127185481Y-77875000D01*
X125908159Y-77875000D01*
X125910776Y-77871811D01*
X126005887Y-77693870D01*
X126064457Y-77500793D01*
X126084233Y-77300000D01*
X126084233Y-75650000D01*
X126064457Y-75449207D01*
X126005887Y-75256130D01*
X125910776Y-75078189D01*
X125782778Y-74922222D01*
X125626811Y-74794224D01*
X125448870Y-74699113D01*
X125255793Y-74640543D01*
X125055000Y-74620767D01*
X124755000Y-74620767D01*
X124554207Y-74640543D01*
X124361130Y-74699113D01*
X124270000Y-74747823D01*
X124178870Y-74699113D01*
X123985793Y-74640543D01*
X123785000Y-74620767D01*
X123485000Y-74620767D01*
X123284207Y-74640543D01*
X123091130Y-74699113D01*
X123000000Y-74747823D01*
X122908870Y-74699113D01*
X122715793Y-74640543D01*
X122515000Y-74620767D01*
X122215000Y-74620767D01*
X122014207Y-74640543D01*
X121821130Y-74699113D01*
X121730000Y-74747823D01*
X121638870Y-74699113D01*
X121445793Y-74640543D01*
X121245000Y-74620767D01*
X120945000Y-74620767D01*
X120744207Y-74640543D01*
X120551130Y-74699113D01*
X120373189Y-74794224D01*
X120217222Y-74922222D01*
X120089224Y-75078189D01*
X119994113Y-75256130D01*
X119935543Y-75449207D01*
X119915767Y-75650000D01*
X118349233Y-75650000D01*
X118332339Y-75478470D01*
X118282305Y-75313532D01*
X118201056Y-75161524D01*
X118091712Y-75028288D01*
X117995000Y-74948918D01*
X117995000Y-74717547D01*
X118001653Y-74650000D01*
X117994534Y-74577720D01*
X117975105Y-74380453D01*
X117896481Y-74121264D01*
X117795558Y-73932451D01*
X117768802Y-73882394D01*
X117640036Y-73725492D01*
X117640032Y-73725488D01*
X117602473Y-73679722D01*
X117830102Y-73725000D01*
X118169898Y-73725000D01*
X118503164Y-73658710D01*
X118817094Y-73528676D01*
X119099624Y-73339895D01*
X119339895Y-73099624D01*
X119528676Y-72817094D01*
X119658710Y-72503164D01*
X119725000Y-72169898D01*
X119725000Y-71830102D01*
X119658710Y-71496836D01*
X119528676Y-71182906D01*
X119339895Y-70900376D01*
X119099624Y-70660105D01*
X118817094Y-70471324D01*
X118503164Y-70341290D01*
X118231870Y-70287327D01*
X117867161Y-69922618D01*
X117995916Y-69909937D01*
X118184303Y-69852790D01*
X118357922Y-69759989D01*
X118510100Y-69635100D01*
X118634989Y-69482922D01*
X118727790Y-69309303D01*
X118784937Y-69120916D01*
X118804233Y-68925000D01*
X118804233Y-68675000D01*
X118784937Y-68479084D01*
X118760947Y-68400000D01*
X118783698Y-68325000D01*
X119734011Y-68325000D01*
X119970000Y-68560990D01*
X119970001Y-70385617D01*
X119935543Y-70499207D01*
X119915767Y-70700000D01*
X119915767Y-72350000D01*
X119935543Y-72550793D01*
X119994113Y-72743870D01*
X120089224Y-72921811D01*
X120217222Y-73077778D01*
X120373189Y-73205776D01*
X120551130Y-73300887D01*
X120744207Y-73359457D01*
X120945000Y-73379233D01*
X121245000Y-73379233D01*
X121445793Y-73359457D01*
X121638870Y-73300887D01*
X121673019Y-73282634D01*
X121728532Y-73312306D01*
X121893470Y-73362340D01*
X122065000Y-73379234D01*
X122121250Y-73375000D01*
X122340000Y-73156250D01*
X122340000Y-71750000D01*
X122274233Y-71750000D01*
X122274233Y-71300000D01*
X122340000Y-71300000D01*
X122340000Y-71280000D01*
X122390000Y-71280000D01*
X122390000Y-71300000D01*
X122455767Y-71300000D01*
X122455767Y-71750000D01*
X122390000Y-71750000D01*
X122390000Y-73156250D01*
X122608750Y-73375000D01*
X122665000Y-73379234D01*
X122836530Y-73362340D01*
X123001468Y-73312306D01*
X123056981Y-73282634D01*
X123091130Y-73300887D01*
X123284207Y-73359457D01*
X123485000Y-73379233D01*
X123785000Y-73379233D01*
X123985793Y-73359457D01*
X124178870Y-73300887D01*
X124270000Y-73252177D01*
X124361130Y-73300887D01*
X124554207Y-73359457D01*
X124755000Y-73379233D01*
X125055000Y-73379233D01*
X125255793Y-73359457D01*
X125448870Y-73300887D01*
X125626811Y-73205776D01*
X125782778Y-73077778D01*
X125910776Y-72921811D01*
X125999278Y-72756234D01*
X127775000Y-72756234D01*
X127775000Y-73243766D01*
X127870113Y-73721931D01*
X128056684Y-74172352D01*
X128327542Y-74577720D01*
X128672280Y-74922458D01*
X129077648Y-75193316D01*
X129528069Y-75379887D01*
X130006234Y-75475000D01*
X130493766Y-75475000D01*
X130971931Y-75379887D01*
X131422352Y-75193316D01*
X131827720Y-74922458D01*
X132172458Y-74577720D01*
X132443316Y-74172352D01*
X132629887Y-73721931D01*
X132725000Y-73243766D01*
X132725000Y-72756234D01*
X132629887Y-72278069D01*
X132443316Y-71827648D01*
X132172458Y-71422280D01*
X131827720Y-71077542D01*
X131422352Y-70806684D01*
X130971931Y-70620113D01*
X130493766Y-70525000D01*
X130006234Y-70525000D01*
X129528069Y-70620113D01*
X129077648Y-70806684D01*
X128672280Y-71077542D01*
X128327542Y-71422280D01*
X128056684Y-71827648D01*
X127870113Y-72278069D01*
X127775000Y-72756234D01*
X125999278Y-72756234D01*
X126005887Y-72743870D01*
X126064457Y-72550793D01*
X126084233Y-72350000D01*
X126084233Y-70700000D01*
X126064457Y-70499207D01*
X126030000Y-70385619D01*
X126030000Y-66960261D01*
X126035443Y-66905000D01*
X126022639Y-66775000D01*
X126013722Y-66684462D01*
X125949393Y-66472398D01*
X125916157Y-66410218D01*
X125907226Y-66319541D01*
X125854589Y-66146018D01*
X125769109Y-65986098D01*
X125654074Y-65845926D01*
X125513902Y-65730891D01*
X125353982Y-65645411D01*
X125195182Y-65597240D01*
X125028040Y-65460071D01*
X124832602Y-65355607D01*
X124620538Y-65291278D01*
X124455264Y-65275000D01*
X124455261Y-65275000D01*
X124400000Y-65269557D01*
X124344739Y-65275000D01*
X122669543Y-65275000D01*
X123467231Y-64477313D01*
X123528288Y-64551712D01*
X123661524Y-64661056D01*
X123813532Y-64742305D01*
X123978470Y-64792339D01*
X124150000Y-64809233D01*
X125850000Y-64809233D01*
X126021530Y-64792339D01*
X126186468Y-64742305D01*
X126338476Y-64661056D01*
X126471712Y-64551712D01*
X126581056Y-64418476D01*
X126662305Y-64266468D01*
X126712339Y-64101530D01*
X126729233Y-63930000D01*
X126729233Y-62230000D01*
X126712339Y-62058470D01*
X126662305Y-61893532D01*
X126617657Y-61810000D01*
X126662305Y-61726468D01*
X126712339Y-61561530D01*
X126729233Y-61390000D01*
X126729233Y-59690000D01*
X126712339Y-59518470D01*
X126662305Y-59353532D01*
X126617657Y-59270000D01*
X126662306Y-59186468D01*
X126712340Y-59021530D01*
X126729234Y-58850000D01*
X126725000Y-58443750D01*
X126506250Y-58225000D01*
X125225000Y-58225000D01*
X125225000Y-58245000D01*
X124775000Y-58245000D01*
X124775000Y-58225000D01*
X123493750Y-58225000D01*
X123275000Y-58443750D01*
X123270766Y-58850000D01*
X123287660Y-59021530D01*
X123331182Y-59165000D01*
X123217539Y-59165000D01*
X123150000Y-59158348D01*
X123082461Y-59165000D01*
X123082451Y-59165000D01*
X122880453Y-59184895D01*
X122621264Y-59263519D01*
X122382394Y-59391198D01*
X122225492Y-59519964D01*
X122225488Y-59519968D01*
X122173024Y-59563024D01*
X122129968Y-59615488D01*
X120099608Y-61645848D01*
X120158710Y-61503164D01*
X120225000Y-61169898D01*
X120225000Y-60830102D01*
X120158710Y-60496836D01*
X120028676Y-60182906D01*
X119839895Y-59900376D01*
X119599624Y-59660105D01*
X119317094Y-59471324D01*
X119003164Y-59341290D01*
X118669898Y-59275000D01*
X118330102Y-59275000D01*
X117996836Y-59341290D01*
X117682906Y-59471324D01*
X117400376Y-59660105D01*
X117160105Y-59900376D01*
X117102786Y-59986159D01*
X117035894Y-59977353D01*
X117000000Y-59975000D01*
X115469544Y-59975000D01*
X116424516Y-59020028D01*
X116476975Y-58976976D01*
X116520028Y-58924516D01*
X116520036Y-58924508D01*
X116648802Y-58767606D01*
X116776481Y-58528736D01*
X116824767Y-58369557D01*
X116855105Y-58269547D01*
X116875000Y-58067549D01*
X116875000Y-58067540D01*
X116881652Y-58000001D01*
X116875000Y-57932462D01*
X116875000Y-57668818D01*
X117018470Y-57712340D01*
X117190000Y-57729234D01*
X117596250Y-57725000D01*
X117815000Y-57506250D01*
X117815000Y-56225000D01*
X118265000Y-56225000D01*
X118265000Y-57506250D01*
X118483750Y-57725000D01*
X118890000Y-57729234D01*
X119061530Y-57712340D01*
X119226468Y-57662306D01*
X119378476Y-57581056D01*
X119511712Y-57471712D01*
X119621056Y-57338476D01*
X119702306Y-57186468D01*
X119713368Y-57150000D01*
X123270766Y-57150000D01*
X123275000Y-57556250D01*
X123493750Y-57775000D01*
X124775000Y-57775000D01*
X124775000Y-56493750D01*
X125225000Y-56493750D01*
X125225000Y-57775000D01*
X126506250Y-57775000D01*
X126725000Y-57556250D01*
X126729234Y-57150000D01*
X126712340Y-56978470D01*
X126662306Y-56813532D01*
X126581056Y-56661524D01*
X126471712Y-56528288D01*
X126338476Y-56418944D01*
X126186468Y-56337694D01*
X126021530Y-56287660D01*
X125850000Y-56270766D01*
X125443750Y-56275000D01*
X125225000Y-56493750D01*
X124775000Y-56493750D01*
X124556250Y-56275000D01*
X124150000Y-56270766D01*
X123978470Y-56287660D01*
X123813532Y-56337694D01*
X123661524Y-56418944D01*
X123528288Y-56528288D01*
X123418944Y-56661524D01*
X123337694Y-56813532D01*
X123287660Y-56978470D01*
X123270766Y-57150000D01*
X119713368Y-57150000D01*
X119752340Y-57021530D01*
X119769234Y-56850000D01*
X119765000Y-56443750D01*
X119546250Y-56225000D01*
X118265000Y-56225000D01*
X117815000Y-56225000D01*
X117795000Y-56225000D01*
X117795000Y-55775000D01*
X117815000Y-55775000D01*
X117815000Y-55755000D01*
X118265000Y-55755000D01*
X118265000Y-55775000D01*
X119546250Y-55775000D01*
X119765000Y-55556250D01*
X119767931Y-55275000D01*
X132933177Y-55275000D01*
X132841290Y-55496836D01*
X132841290Y-55496836D01*
G37*
X132841290Y-55496836D02*
X132775000Y-55830102D01*
X132775000Y-56169898D01*
X132841290Y-56503164D01*
X132971324Y-56817094D01*
X133160105Y-57099624D01*
X133400376Y-57339895D01*
X133682906Y-57528676D01*
X133996836Y-57658710D01*
X134330102Y-57725000D01*
X134650107Y-57725000D01*
X134418540Y-57795245D01*
X134391264Y-57803519D01*
X134152394Y-57931198D01*
X133995492Y-58059964D01*
X133995488Y-58059968D01*
X133943024Y-58103024D01*
X133899968Y-58155488D01*
X130768130Y-61287327D01*
X130496836Y-61341290D01*
X130182906Y-61471324D01*
X129900376Y-61660105D01*
X129660105Y-61900376D01*
X129471324Y-62182906D01*
X129341290Y-62496836D01*
X129275000Y-62830102D01*
X129275000Y-63169898D01*
X129341290Y-63503164D01*
X129471324Y-63817094D01*
X129660105Y-64099624D01*
X129900376Y-64339895D01*
X130182906Y-64528676D01*
X130496836Y-64658710D01*
X130830102Y-64725000D01*
X131169898Y-64725000D01*
X131503164Y-64658710D01*
X131817094Y-64528676D01*
X132099624Y-64339895D01*
X132339895Y-64099624D01*
X132528676Y-63817094D01*
X132658710Y-63503164D01*
X132712673Y-63231870D01*
X135489544Y-60455000D01*
X135773229Y-60455000D01*
X135787661Y-60601530D01*
X135837695Y-60766468D01*
X135918944Y-60918476D01*
X136028288Y-61051712D01*
X136038387Y-61060000D01*
X136028288Y-61068288D01*
X135918944Y-61201524D01*
X135837694Y-61353532D01*
X135787660Y-61518470D01*
X135770766Y-61690000D01*
X135775000Y-62596250D01*
X135993750Y-62815000D01*
X137775000Y-62815000D01*
X137775000Y-62795000D01*
X138225000Y-62795000D01*
X138225000Y-62815000D01*
X138245000Y-62815000D01*
X138245000Y-63265000D01*
X138225000Y-63265000D01*
X138225000Y-63285000D01*
X137775000Y-63285000D01*
X137775000Y-63265000D01*
X135993750Y-63265000D01*
X135775000Y-63483750D01*
X135772536Y-64011045D01*
X135765352Y-64012970D01*
X135644762Y-64062920D01*
X135582589Y-64098816D01*
X135479036Y-64178276D01*
X135428276Y-64229036D01*
X135348816Y-64332589D01*
X135312920Y-64394762D01*
X135262970Y-64515352D01*
X135244390Y-64584696D01*
X135227353Y-64714106D01*
X135225000Y-64750000D01*
X135225000Y-68996631D01*
X135228354Y-69039450D01*
X135252598Y-69193256D01*
X135266171Y-69245429D01*
X135278941Y-69274741D01*
X135349322Y-69413631D01*
X135378286Y-69459099D01*
X135399454Y-69483062D01*
X135509147Y-69593568D01*
X135541693Y-69621594D01*
X138865685Y-72059189D01*
X138929666Y-72123643D01*
X138960859Y-72185201D01*
X138975000Y-72274910D01*
X138975000Y-77770767D01*
X137617130Y-77770767D01*
X137528736Y-77723519D01*
X137269547Y-77644895D01*
X137067549Y-77625000D01*
X137067539Y-77625000D01*
X137000000Y-77618348D01*
X136932461Y-77625000D01*
X135547086Y-77625000D01*
X135317094Y-77471324D01*
X135003164Y-77341290D01*
X134669898Y-77275000D01*
X134330102Y-77275000D01*
X133996836Y-77341290D01*
X133682906Y-77471324D01*
X133400376Y-77660105D01*
X133160105Y-77900376D01*
X132971324Y-78182906D01*
X132841290Y-78496836D01*
X132787327Y-78768129D01*
X131219604Y-80335853D01*
X131213532Y-80337695D01*
X131061524Y-80418944D01*
X130928288Y-80528288D01*
X130818944Y-80661524D01*
X130737695Y-80813532D01*
X130687661Y-80978470D01*
X130671472Y-81142839D01*
X130644895Y-81230453D01*
X130643528Y-81244333D01*
X130621530Y-81237660D01*
X130450000Y-81220766D01*
X130393750Y-81225000D01*
X130175000Y-81443750D01*
X130175000Y-82375000D01*
X130245000Y-82375000D01*
X130245000Y-82625000D01*
X130175000Y-82625000D01*
X130175000Y-83556250D01*
X130393750Y-83775000D01*
X130450000Y-83779234D01*
X130621530Y-83762340D01*
X130654814Y-83752243D01*
X130670767Y-83804832D01*
X130670767Y-83850000D01*
X130687661Y-84021530D01*
X130737695Y-84186468D01*
X130818944Y-84338476D01*
X130928288Y-84471712D01*
X131061524Y-84581056D01*
X131213532Y-84662305D01*
X131291377Y-84685919D01*
X131529959Y-84924502D01*
X131573024Y-84976976D01*
X131782395Y-85148802D01*
X132021264Y-85276481D01*
X132280453Y-85355105D01*
X132482451Y-85375000D01*
X132482460Y-85375000D01*
X132549999Y-85381652D01*
X132617538Y-85375000D01*
X133452914Y-85375000D01*
X133682906Y-85528676D01*
X133996836Y-85658710D01*
X134330102Y-85725000D01*
X134669898Y-85725000D01*
X135003164Y-85658710D01*
X135317094Y-85528676D01*
X135547086Y-85375000D01*
X135777169Y-85375000D01*
X135787661Y-85481530D01*
X135837695Y-85646468D01*
X135918944Y-85798476D01*
X136028288Y-85931712D01*
X136038387Y-85940000D01*
X136028288Y-85948288D01*
X135918944Y-86081524D01*
X135837694Y-86233532D01*
X135787660Y-86398470D01*
X135770766Y-86570000D01*
X135775000Y-87476250D01*
X135993750Y-87695000D01*
X137775000Y-87695000D01*
X137775000Y-87675000D01*
X138225000Y-87675000D01*
X138225000Y-87695000D01*
X138245000Y-87695000D01*
X138245000Y-88145000D01*
X138225000Y-88145000D01*
X138225000Y-88165000D01*
X137775000Y-88165000D01*
X137775000Y-88145000D01*
X135993750Y-88145000D01*
X135775000Y-88363750D01*
X135772144Y-88975000D01*
X132097244Y-88975000D01*
X132124840Y-88884030D01*
X132141734Y-88712500D01*
X132137500Y-88443750D01*
X131918750Y-88225000D01*
X130612500Y-88225000D01*
X130612500Y-88245000D01*
X130162500Y-88245000D01*
X130162500Y-88225000D01*
X130142500Y-88225000D01*
X130142500Y-87775000D01*
X130162500Y-87775000D01*
X130162500Y-86631250D01*
X130612500Y-86631250D01*
X130612500Y-87775000D01*
X131918750Y-87775000D01*
X132137500Y-87556250D01*
X132141734Y-87287500D01*
X132124840Y-87115970D01*
X132074806Y-86951032D01*
X131993556Y-86799024D01*
X131884212Y-86665788D01*
X131750976Y-86556444D01*
X131598968Y-86475194D01*
X131434030Y-86425160D01*
X131262500Y-86408266D01*
X130831250Y-86412500D01*
X130612500Y-86631250D01*
X130162500Y-86631250D01*
X129943750Y-86412500D01*
X129512500Y-86408266D01*
X129340970Y-86425160D01*
X129176032Y-86475194D01*
X129024024Y-86556444D01*
X128890788Y-86665788D01*
X128781444Y-86799024D01*
X128779233Y-86803160D01*
X128779233Y-84907500D01*
X128762339Y-84735970D01*
X128712305Y-84571032D01*
X128631056Y-84419024D01*
X128521712Y-84285788D01*
X128388476Y-84176444D01*
X128236468Y-84095195D01*
X128071530Y-84045161D01*
X127900000Y-84028267D01*
X127017902Y-84028267D01*
X126832605Y-83876198D01*
X126593736Y-83748519D01*
X126334547Y-83669895D01*
X126132549Y-83650000D01*
X126132539Y-83650000D01*
X126065000Y-83643348D01*
X125997461Y-83650000D01*
X124284564Y-83650000D01*
X124252368Y-83623577D01*
X124057139Y-83519225D01*
X123845302Y-83454965D01*
X123625000Y-83433267D01*
X123352811Y-83433267D01*
X121915036Y-81995493D01*
X121871976Y-81943024D01*
X121662605Y-81771198D01*
X121423736Y-81643519D01*
X121164547Y-81564895D01*
X120962549Y-81545000D01*
X120962539Y-81545000D01*
X120895000Y-81538348D01*
X120827461Y-81545000D01*
X112551082Y-81545000D01*
X112471712Y-81448288D01*
X112338476Y-81338944D01*
X112186468Y-81257695D01*
X112021530Y-81207661D01*
X111850000Y-81190767D01*
X110150000Y-81190767D01*
X109978470Y-81207661D01*
X109813532Y-81257695D01*
X109661524Y-81338944D01*
X109528288Y-81448288D01*
X109418944Y-81581524D01*
X109337695Y-81733532D01*
X109287661Y-81898470D01*
X109270767Y-82070000D01*
X109270767Y-83770000D01*
X109287661Y-83941530D01*
X109337695Y-84106468D01*
X109382343Y-84190000D01*
X109337695Y-84273532D01*
X109287661Y-84438470D01*
X109270767Y-84610000D01*
X109270767Y-86310000D01*
X109287661Y-86481530D01*
X109337695Y-86646468D01*
X109382343Y-86730000D01*
X109337694Y-86813532D01*
X109287660Y-86978470D01*
X109270766Y-87150000D01*
X109275000Y-87556250D01*
X109493750Y-87775000D01*
X110775000Y-87775000D01*
X110775000Y-87755000D01*
X111225000Y-87755000D01*
X111225000Y-87775000D01*
X112506250Y-87775000D01*
X112725000Y-87556250D01*
X112729234Y-87150000D01*
X112712340Y-86978470D01*
X112662306Y-86813532D01*
X112617657Y-86730000D01*
X112662305Y-86646468D01*
X112712339Y-86481530D01*
X112729233Y-86310000D01*
X112729233Y-84610000D01*
X112712339Y-84438470D01*
X112668817Y-84295000D01*
X120325457Y-84295000D01*
X121245767Y-85215311D01*
X121245767Y-85487500D01*
X121267465Y-85707802D01*
X121331725Y-85919639D01*
X121436077Y-86114868D01*
X121576512Y-86285988D01*
X121747632Y-86426423D01*
X121820649Y-86465451D01*
X121788532Y-86475194D01*
X121636524Y-86556444D01*
X121503288Y-86665788D01*
X121393944Y-86799024D01*
X121312694Y-86951032D01*
X121262660Y-87115970D01*
X121245766Y-87287500D01*
X121250000Y-87556250D01*
X121468750Y-87775000D01*
X122775000Y-87775000D01*
X122775000Y-87755000D01*
X123225000Y-87755000D01*
X123225000Y-87775000D01*
X124531250Y-87775000D01*
X124750000Y-87556250D01*
X124754234Y-87287500D01*
X124737340Y-87115970D01*
X124687306Y-86951032D01*
X124606056Y-86799024D01*
X124496712Y-86665788D01*
X124363476Y-86556444D01*
X124211468Y-86475194D01*
X124179351Y-86465451D01*
X124252368Y-86426423D01*
X124284564Y-86400000D01*
X125020767Y-86400000D01*
X125020767Y-86812500D01*
X125037661Y-86984030D01*
X125081941Y-87129998D01*
X125037660Y-87275970D01*
X125020766Y-87447500D01*
X125025000Y-87956250D01*
X125243750Y-88175000D01*
X126675000Y-88175000D01*
X126675000Y-88155000D01*
X127125000Y-88155000D01*
X127125000Y-88175000D01*
X127145000Y-88175000D01*
X127145000Y-88625000D01*
X127125000Y-88625000D01*
X127125000Y-88645000D01*
X126675000Y-88645000D01*
X126675000Y-88625000D01*
X125243750Y-88625000D01*
X125025000Y-88843750D01*
X125023908Y-88975000D01*
X124709744Y-88975000D01*
X124737340Y-88884030D01*
X124754234Y-88712500D01*
X124750000Y-88443750D01*
X124531250Y-88225000D01*
X123225000Y-88225000D01*
X123225000Y-88245000D01*
X122775000Y-88245000D01*
X122775000Y-88225000D01*
X121468750Y-88225000D01*
X121250000Y-88443750D01*
X121245766Y-88712500D01*
X121262660Y-88884030D01*
X121290256Y-88975000D01*
X112716923Y-88975000D01*
X112729234Y-88850000D01*
X112725000Y-88443750D01*
X112506250Y-88225000D01*
X111225000Y-88225000D01*
X111225000Y-88245000D01*
X110775000Y-88245000D01*
X110775000Y-88225000D01*
X109493750Y-88225000D01*
X109275000Y-88443750D01*
X109270766Y-88850000D01*
X109283077Y-88975000D01*
X102504301Y-88975000D01*
X102420264Y-88962642D01*
X102361754Y-88935237D01*
X102298464Y-88878593D01*
X100718552Y-86982698D01*
X100775000Y-86926250D01*
X100775000Y-85145000D01*
X101225000Y-85145000D01*
X101225000Y-86926250D01*
X101443750Y-87145000D01*
X102350000Y-87149234D01*
X102521530Y-87132340D01*
X102686468Y-87082306D01*
X102838476Y-87001056D01*
X102971712Y-86891712D01*
X103081056Y-86758476D01*
X103162306Y-86606468D01*
X103212340Y-86441530D01*
X103229234Y-86270000D01*
X103225000Y-85363750D01*
X103006250Y-85145000D01*
X101225000Y-85145000D01*
X100775000Y-85145000D01*
X100755000Y-85145000D01*
X100755000Y-84695000D01*
X100775000Y-84695000D01*
X100775000Y-84675000D01*
X101225000Y-84675000D01*
X101225000Y-84695000D01*
X103006250Y-84695000D01*
X103225000Y-84476250D01*
X103229234Y-83570000D01*
X103212340Y-83398470D01*
X103204524Y-83372706D01*
X103270964Y-83321724D01*
X103321724Y-83270964D01*
X103401184Y-83167411D01*
X103437080Y-83105238D01*
X103487030Y-82984648D01*
X103505610Y-82915304D01*
X103522647Y-82785894D01*
X103525000Y-82750000D01*
X103525000Y-78750711D01*
X103522643Y-78714784D01*
X103505575Y-78585260D01*
X103486961Y-78515859D01*
X103436923Y-78395178D01*
X103400968Y-78332968D01*
X103321376Y-78229368D01*
X103270530Y-78178595D01*
X103229233Y-78146961D01*
X103229233Y-75650000D01*
X107270767Y-75650000D01*
X107270767Y-77350000D01*
X107287661Y-77521530D01*
X107337695Y-77686468D01*
X107418944Y-77838476D01*
X107528288Y-77971712D01*
X107661524Y-78081056D01*
X107813532Y-78162305D01*
X107978470Y-78212339D01*
X108150000Y-78229233D01*
X109850000Y-78229233D01*
X110021530Y-78212339D01*
X110186468Y-78162305D01*
X110270000Y-78117657D01*
X110353532Y-78162306D01*
X110518470Y-78212340D01*
X110690000Y-78229234D01*
X111096250Y-78225000D01*
X111315000Y-78006250D01*
X111315000Y-76725000D01*
X111295000Y-76725000D01*
X111295000Y-76275000D01*
X111315000Y-76275000D01*
X111315000Y-74993750D01*
X111096250Y-74775000D01*
X110690000Y-74770766D01*
X110518470Y-74787660D01*
X110353532Y-74837694D01*
X110270000Y-74882343D01*
X110186468Y-74837695D01*
X110021530Y-74787661D01*
X109850000Y-74770767D01*
X108150000Y-74770767D01*
X107978470Y-74787661D01*
X107813532Y-74837695D01*
X107661524Y-74918944D01*
X107528288Y-75028288D01*
X107418944Y-75161524D01*
X107337695Y-75313532D01*
X107287661Y-75478470D01*
X107270767Y-75650000D01*
X103229233Y-75650000D01*
X103212339Y-75478470D01*
X103162305Y-75313532D01*
X103081056Y-75161524D01*
X102971712Y-75028288D01*
X102838476Y-74918944D01*
X102686468Y-74837695D01*
X102521530Y-74787661D01*
X102500850Y-74785624D01*
X102535877Y-74762220D01*
X102762220Y-74535877D01*
X102940057Y-74269726D01*
X103062552Y-73973995D01*
X103125000Y-73660049D01*
X103125000Y-73339951D01*
X103062552Y-73026005D01*
X102940057Y-72730274D01*
X102762220Y-72464123D01*
X102535877Y-72237780D01*
X102396504Y-72144654D01*
X102521530Y-72132340D01*
X102686468Y-72082306D01*
X102838476Y-72001056D01*
X102971712Y-71891712D01*
X103081056Y-71758476D01*
X103162306Y-71606468D01*
X103212340Y-71441530D01*
X103229234Y-71270000D01*
X103225000Y-70363750D01*
X103006250Y-70145000D01*
X101225000Y-70145000D01*
X101225000Y-70165000D01*
X100775000Y-70165000D01*
X100775000Y-70145000D01*
X100755000Y-70145000D01*
X100755000Y-69695000D01*
X100775000Y-69695000D01*
X100775000Y-69675000D01*
X101225000Y-69675000D01*
X101225000Y-69695000D01*
X103006250Y-69695000D01*
X103225000Y-69476250D01*
X103229076Y-68603866D01*
X103270964Y-68571724D01*
X103321724Y-68520964D01*
X103401184Y-68417411D01*
X103437080Y-68355238D01*
X103487030Y-68234648D01*
X103505610Y-68165304D01*
X103522647Y-68035894D01*
X103525000Y-68000000D01*
X103525000Y-64687868D01*
X103524825Y-64684942D01*
X103559943Y-64769726D01*
X103737780Y-65035877D01*
X103964123Y-65262220D01*
X104230274Y-65440057D01*
X104526005Y-65562552D01*
X104839951Y-65625000D01*
X105010016Y-65625000D01*
X104971324Y-65682906D01*
X104841290Y-65996836D01*
X104775000Y-66330102D01*
X104775000Y-66669898D01*
X104841290Y-67003164D01*
X104971324Y-67317094D01*
X105160105Y-67599624D01*
X105400376Y-67839895D01*
X105682906Y-68028676D01*
X105996836Y-68158710D01*
X106330102Y-68225000D01*
X106669898Y-68225000D01*
X107003164Y-68158710D01*
X107195767Y-68078931D01*
X107195767Y-68125000D01*
X107215063Y-68320916D01*
X107239053Y-68400000D01*
X107228543Y-68434645D01*
X107003164Y-68341290D01*
X106669898Y-68275000D01*
X106330102Y-68275000D01*
X105996836Y-68341290D01*
X105682906Y-68471324D01*
X105400376Y-68660105D01*
X105160105Y-68900376D01*
X104971324Y-69182906D01*
X104841290Y-69496836D01*
X104775000Y-69830102D01*
X104775000Y-70169898D01*
X104841290Y-70503164D01*
X104971324Y-70817094D01*
X105160105Y-71099624D01*
X105400376Y-71339895D01*
X105682906Y-71528676D01*
X105996836Y-71658710D01*
X106330102Y-71725000D01*
X106330457Y-71725000D01*
X105640854Y-72414603D01*
X105526005Y-72437448D01*
X105230274Y-72559943D01*
X104964123Y-72737780D01*
X104737780Y-72964123D01*
X104559943Y-73230274D01*
X104437448Y-73526005D01*
X104375000Y-73839951D01*
X104375000Y-74160049D01*
X104437448Y-74473995D01*
X104559943Y-74769726D01*
X104737780Y-75035877D01*
X104964123Y-75262220D01*
X105230274Y-75440057D01*
X105526005Y-75562552D01*
X105839951Y-75625000D01*
X106160049Y-75625000D01*
X106473995Y-75562552D01*
X106769726Y-75440057D01*
X107035877Y-75262220D01*
X107262220Y-75035877D01*
X107440057Y-74769726D01*
X107562552Y-74473995D01*
X107585397Y-74359146D01*
X108069543Y-73875000D01*
X109567549Y-73875000D01*
X109769547Y-73855105D01*
X110028736Y-73776481D01*
X110267605Y-73648802D01*
X110476976Y-73476976D01*
X110648802Y-73267605D01*
X110731292Y-73113278D01*
X110851198Y-73337605D01*
X110979964Y-73494507D01*
X112257602Y-74772146D01*
X111983750Y-74775000D01*
X111765000Y-74993750D01*
X111765000Y-76275000D01*
X111785000Y-76275000D01*
X111785000Y-76725000D01*
X111765000Y-76725000D01*
X111765000Y-78006250D01*
X111983750Y-78225000D01*
X112390000Y-78229234D01*
X112561530Y-78212340D01*
X112726468Y-78162306D01*
X112810000Y-78117657D01*
X112893532Y-78162305D01*
X113058470Y-78212339D01*
X113230000Y-78229233D01*
X114930000Y-78229233D01*
X115101530Y-78212339D01*
X115266468Y-78162305D01*
X115350000Y-78117657D01*
X115433532Y-78162305D01*
X115598470Y-78212339D01*
X115770000Y-78229233D01*
X117470000Y-78229233D01*
X117641530Y-78212339D01*
X117806468Y-78162305D01*
X117958476Y-78081056D01*
X118091712Y-77971712D01*
X118201056Y-77838476D01*
X118282305Y-77686468D01*
X118332339Y-77521530D01*
X118349233Y-77350000D01*
X118349233Y-75650000D01*
X119915767Y-75650000D01*
X119915767Y-77300000D01*
X119935543Y-77500793D01*
X119994113Y-77693870D01*
X120089224Y-77871811D01*
X120217222Y-78027778D01*
X120373189Y-78155776D01*
X120551130Y-78250887D01*
X120744207Y-78309457D01*
X120945000Y-78329233D01*
X121245000Y-78329233D01*
X121325332Y-78321321D01*
X121405479Y-78471264D01*
X121425072Y-78507920D01*
X121565657Y-78679224D01*
X121608585Y-78714454D01*
X124275000Y-81380870D01*
X124275000Y-81669898D01*
X124341290Y-82003164D01*
X124471324Y-82317094D01*
X124660105Y-82599624D01*
X124900376Y-82839895D01*
X125182906Y-83028676D01*
X125496836Y-83158710D01*
X125830102Y-83225000D01*
X126169898Y-83225000D01*
X126503164Y-83158710D01*
X126817094Y-83028676D01*
X127009670Y-82900000D01*
X128670766Y-82900000D01*
X128687660Y-83071530D01*
X128737694Y-83236468D01*
X128818944Y-83388476D01*
X128928288Y-83521712D01*
X129061524Y-83631056D01*
X129213532Y-83712306D01*
X129378470Y-83762340D01*
X129550000Y-83779234D01*
X129606250Y-83775000D01*
X129825000Y-83556250D01*
X129825000Y-82625000D01*
X128893750Y-82625000D01*
X128675000Y-82843750D01*
X128670766Y-82900000D01*
X127009670Y-82900000D01*
X127099624Y-82839895D01*
X127339895Y-82599624D01*
X127528676Y-82317094D01*
X127618599Y-82100000D01*
X128670766Y-82100000D01*
X128675000Y-82156250D01*
X128893750Y-82375000D01*
X129825000Y-82375000D01*
X129825000Y-81443750D01*
X129606250Y-81225000D01*
X129550000Y-81220766D01*
X129378470Y-81237660D01*
X129213532Y-81287694D01*
X129061524Y-81368944D01*
X128928288Y-81478288D01*
X128818944Y-81611524D01*
X128737694Y-81763532D01*
X128687660Y-81928470D01*
X128670766Y-82100000D01*
X127618599Y-82100000D01*
X127658710Y-82003164D01*
X127725000Y-81669898D01*
X127725000Y-81330102D01*
X127658710Y-80996836D01*
X127528676Y-80682906D01*
X127339895Y-80400376D01*
X127099624Y-80160105D01*
X127047086Y-80125000D01*
X127185481Y-80125000D01*
X127400376Y-80339895D01*
X127682906Y-80528676D01*
X127996836Y-80658710D01*
X128330102Y-80725000D01*
X128669898Y-80725000D01*
X129003164Y-80658710D01*
X129317094Y-80528676D01*
X129599624Y-80339895D01*
X129839895Y-80099624D01*
X130028676Y-79817094D01*
X130158710Y-79503164D01*
X130225000Y-79169898D01*
X130225000Y-78830102D01*
X130158710Y-78496836D01*
X130028676Y-78182906D01*
X129839895Y-77900376D01*
X129599624Y-77660105D01*
X129317094Y-77471324D01*
X129003164Y-77341290D01*
X128669898Y-77275000D01*
X128330102Y-77275000D01*
X127996836Y-77341290D01*
X127682906Y-77471324D01*
X127400376Y-77660105D01*
X127185481Y-77875000D01*
X125908159Y-77875000D01*
X125910776Y-77871811D01*
X126005887Y-77693870D01*
X126064457Y-77500793D01*
X126084233Y-77300000D01*
X126084233Y-75650000D01*
X126064457Y-75449207D01*
X126005887Y-75256130D01*
X125910776Y-75078189D01*
X125782778Y-74922222D01*
X125626811Y-74794224D01*
X125448870Y-74699113D01*
X125255793Y-74640543D01*
X125055000Y-74620767D01*
X124755000Y-74620767D01*
X124554207Y-74640543D01*
X124361130Y-74699113D01*
X124270000Y-74747823D01*
X124178870Y-74699113D01*
X123985793Y-74640543D01*
X123785000Y-74620767D01*
X123485000Y-74620767D01*
X123284207Y-74640543D01*
X123091130Y-74699113D01*
X123000000Y-74747823D01*
X122908870Y-74699113D01*
X122715793Y-74640543D01*
X122515000Y-74620767D01*
X122215000Y-74620767D01*
X122014207Y-74640543D01*
X121821130Y-74699113D01*
X121730000Y-74747823D01*
X121638870Y-74699113D01*
X121445793Y-74640543D01*
X121245000Y-74620767D01*
X120945000Y-74620767D01*
X120744207Y-74640543D01*
X120551130Y-74699113D01*
X120373189Y-74794224D01*
X120217222Y-74922222D01*
X120089224Y-75078189D01*
X119994113Y-75256130D01*
X119935543Y-75449207D01*
X119915767Y-75650000D01*
X118349233Y-75650000D01*
X118332339Y-75478470D01*
X118282305Y-75313532D01*
X118201056Y-75161524D01*
X118091712Y-75028288D01*
X117995000Y-74948918D01*
X117995000Y-74717547D01*
X118001653Y-74650000D01*
X117994534Y-74577720D01*
X117975105Y-74380453D01*
X117896481Y-74121264D01*
X117795558Y-73932451D01*
X117768802Y-73882394D01*
X117640036Y-73725492D01*
X117640032Y-73725488D01*
X117602473Y-73679722D01*
X117830102Y-73725000D01*
X118169898Y-73725000D01*
X118503164Y-73658710D01*
X118817094Y-73528676D01*
X119099624Y-73339895D01*
X119339895Y-73099624D01*
X119528676Y-72817094D01*
X119658710Y-72503164D01*
X119725000Y-72169898D01*
X119725000Y-71830102D01*
X119658710Y-71496836D01*
X119528676Y-71182906D01*
X119339895Y-70900376D01*
X119099624Y-70660105D01*
X118817094Y-70471324D01*
X118503164Y-70341290D01*
X118231870Y-70287327D01*
X117867161Y-69922618D01*
X117995916Y-69909937D01*
X118184303Y-69852790D01*
X118357922Y-69759989D01*
X118510100Y-69635100D01*
X118634989Y-69482922D01*
X118727790Y-69309303D01*
X118784937Y-69120916D01*
X118804233Y-68925000D01*
X118804233Y-68675000D01*
X118784937Y-68479084D01*
X118760947Y-68400000D01*
X118783698Y-68325000D01*
X119734011Y-68325000D01*
X119970000Y-68560990D01*
X119970001Y-70385617D01*
X119935543Y-70499207D01*
X119915767Y-70700000D01*
X119915767Y-72350000D01*
X119935543Y-72550793D01*
X119994113Y-72743870D01*
X120089224Y-72921811D01*
X120217222Y-73077778D01*
X120373189Y-73205776D01*
X120551130Y-73300887D01*
X120744207Y-73359457D01*
X120945000Y-73379233D01*
X121245000Y-73379233D01*
X121445793Y-73359457D01*
X121638870Y-73300887D01*
X121673019Y-73282634D01*
X121728532Y-73312306D01*
X121893470Y-73362340D01*
X122065000Y-73379234D01*
X122121250Y-73375000D01*
X122340000Y-73156250D01*
X122340000Y-71750000D01*
X122274233Y-71750000D01*
X122274233Y-71300000D01*
X122340000Y-71300000D01*
X122340000Y-71280000D01*
X122390000Y-71280000D01*
X122390000Y-71300000D01*
X122455767Y-71300000D01*
X122455767Y-71750000D01*
X122390000Y-71750000D01*
X122390000Y-73156250D01*
X122608750Y-73375000D01*
X122665000Y-73379234D01*
X122836530Y-73362340D01*
X123001468Y-73312306D01*
X123056981Y-73282634D01*
X123091130Y-73300887D01*
X123284207Y-73359457D01*
X123485000Y-73379233D01*
X123785000Y-73379233D01*
X123985793Y-73359457D01*
X124178870Y-73300887D01*
X124270000Y-73252177D01*
X124361130Y-73300887D01*
X124554207Y-73359457D01*
X124755000Y-73379233D01*
X125055000Y-73379233D01*
X125255793Y-73359457D01*
X125448870Y-73300887D01*
X125626811Y-73205776D01*
X125782778Y-73077778D01*
X125910776Y-72921811D01*
X125999278Y-72756234D01*
X127775000Y-72756234D01*
X127775000Y-73243766D01*
X127870113Y-73721931D01*
X128056684Y-74172352D01*
X128327542Y-74577720D01*
X128672280Y-74922458D01*
X129077648Y-75193316D01*
X129528069Y-75379887D01*
X130006234Y-75475000D01*
X130493766Y-75475000D01*
X130971931Y-75379887D01*
X131422352Y-75193316D01*
X131827720Y-74922458D01*
X132172458Y-74577720D01*
X132443316Y-74172352D01*
X132629887Y-73721931D01*
X132725000Y-73243766D01*
X132725000Y-72756234D01*
X132629887Y-72278069D01*
X132443316Y-71827648D01*
X132172458Y-71422280D01*
X131827720Y-71077542D01*
X131422352Y-70806684D01*
X130971931Y-70620113D01*
X130493766Y-70525000D01*
X130006234Y-70525000D01*
X129528069Y-70620113D01*
X129077648Y-70806684D01*
X128672280Y-71077542D01*
X128327542Y-71422280D01*
X128056684Y-71827648D01*
X127870113Y-72278069D01*
X127775000Y-72756234D01*
X125999278Y-72756234D01*
X126005887Y-72743870D01*
X126064457Y-72550793D01*
X126084233Y-72350000D01*
X126084233Y-70700000D01*
X126064457Y-70499207D01*
X126030000Y-70385619D01*
X126030000Y-66960261D01*
X126035443Y-66905000D01*
X126022639Y-66775000D01*
X126013722Y-66684462D01*
X125949393Y-66472398D01*
X125916157Y-66410218D01*
X125907226Y-66319541D01*
X125854589Y-66146018D01*
X125769109Y-65986098D01*
X125654074Y-65845926D01*
X125513902Y-65730891D01*
X125353982Y-65645411D01*
X125195182Y-65597240D01*
X125028040Y-65460071D01*
X124832602Y-65355607D01*
X124620538Y-65291278D01*
X124455264Y-65275000D01*
X124455261Y-65275000D01*
X124400000Y-65269557D01*
X124344739Y-65275000D01*
X122669543Y-65275000D01*
X123467231Y-64477313D01*
X123528288Y-64551712D01*
X123661524Y-64661056D01*
X123813532Y-64742305D01*
X123978470Y-64792339D01*
X124150000Y-64809233D01*
X125850000Y-64809233D01*
X126021530Y-64792339D01*
X126186468Y-64742305D01*
X126338476Y-64661056D01*
X126471712Y-64551712D01*
X126581056Y-64418476D01*
X126662305Y-64266468D01*
X126712339Y-64101530D01*
X126729233Y-63930000D01*
X126729233Y-62230000D01*
X126712339Y-62058470D01*
X126662305Y-61893532D01*
X126617657Y-61810000D01*
X126662305Y-61726468D01*
X126712339Y-61561530D01*
X126729233Y-61390000D01*
X126729233Y-59690000D01*
X126712339Y-59518470D01*
X126662305Y-59353532D01*
X126617657Y-59270000D01*
X126662306Y-59186468D01*
X126712340Y-59021530D01*
X126729234Y-58850000D01*
X126725000Y-58443750D01*
X126506250Y-58225000D01*
X125225000Y-58225000D01*
X125225000Y-58245000D01*
X124775000Y-58245000D01*
X124775000Y-58225000D01*
X123493750Y-58225000D01*
X123275000Y-58443750D01*
X123270766Y-58850000D01*
X123287660Y-59021530D01*
X123331182Y-59165000D01*
X123217539Y-59165000D01*
X123150000Y-59158348D01*
X123082461Y-59165000D01*
X123082451Y-59165000D01*
X122880453Y-59184895D01*
X122621264Y-59263519D01*
X122382394Y-59391198D01*
X122225492Y-59519964D01*
X122225488Y-59519968D01*
X122173024Y-59563024D01*
X122129968Y-59615488D01*
X120099608Y-61645848D01*
X120158710Y-61503164D01*
X120225000Y-61169898D01*
X120225000Y-60830102D01*
X120158710Y-60496836D01*
X120028676Y-60182906D01*
X119839895Y-59900376D01*
X119599624Y-59660105D01*
X119317094Y-59471324D01*
X119003164Y-59341290D01*
X118669898Y-59275000D01*
X118330102Y-59275000D01*
X117996836Y-59341290D01*
X117682906Y-59471324D01*
X117400376Y-59660105D01*
X117160105Y-59900376D01*
X117102786Y-59986159D01*
X117035894Y-59977353D01*
X117000000Y-59975000D01*
X115469544Y-59975000D01*
X116424516Y-59020028D01*
X116476975Y-58976976D01*
X116520028Y-58924516D01*
X116520036Y-58924508D01*
X116648802Y-58767606D01*
X116776481Y-58528736D01*
X116824767Y-58369557D01*
X116855105Y-58269547D01*
X116875000Y-58067549D01*
X116875000Y-58067540D01*
X116881652Y-58000001D01*
X116875000Y-57932462D01*
X116875000Y-57668818D01*
X117018470Y-57712340D01*
X117190000Y-57729234D01*
X117596250Y-57725000D01*
X117815000Y-57506250D01*
X117815000Y-56225000D01*
X118265000Y-56225000D01*
X118265000Y-57506250D01*
X118483750Y-57725000D01*
X118890000Y-57729234D01*
X119061530Y-57712340D01*
X119226468Y-57662306D01*
X119378476Y-57581056D01*
X119511712Y-57471712D01*
X119621056Y-57338476D01*
X119702306Y-57186468D01*
X119713368Y-57150000D01*
X123270766Y-57150000D01*
X123275000Y-57556250D01*
X123493750Y-57775000D01*
X124775000Y-57775000D01*
X124775000Y-56493750D01*
X125225000Y-56493750D01*
X125225000Y-57775000D01*
X126506250Y-57775000D01*
X126725000Y-57556250D01*
X126729234Y-57150000D01*
X126712340Y-56978470D01*
X126662306Y-56813532D01*
X126581056Y-56661524D01*
X126471712Y-56528288D01*
X126338476Y-56418944D01*
X126186468Y-56337694D01*
X126021530Y-56287660D01*
X125850000Y-56270766D01*
X125443750Y-56275000D01*
X125225000Y-56493750D01*
X124775000Y-56493750D01*
X124556250Y-56275000D01*
X124150000Y-56270766D01*
X123978470Y-56287660D01*
X123813532Y-56337694D01*
X123661524Y-56418944D01*
X123528288Y-56528288D01*
X123418944Y-56661524D01*
X123337694Y-56813532D01*
X123287660Y-56978470D01*
X123270766Y-57150000D01*
X119713368Y-57150000D01*
X119752340Y-57021530D01*
X119769234Y-56850000D01*
X119765000Y-56443750D01*
X119546250Y-56225000D01*
X118265000Y-56225000D01*
X117815000Y-56225000D01*
X117795000Y-56225000D01*
X117795000Y-55775000D01*
X117815000Y-55775000D01*
X117815000Y-55755000D01*
X118265000Y-55755000D01*
X118265000Y-55775000D01*
X119546250Y-55775000D01*
X119765000Y-55556250D01*
X119767931Y-55275000D01*
X132933177Y-55275000D01*
X132841290Y-55496836D01*
G36*
X106150767Y-56850000D02*
G01*
X106167661Y-57021530D01*
X106217695Y-57186468D01*
X106298944Y-57338476D01*
X106408288Y-57471712D01*
X106505001Y-57551082D01*
X106505000Y-59437461D01*
X106498348Y-59505000D01*
X106505000Y-59572539D01*
X106505000Y-59572548D01*
X106524895Y-59774546D01*
X106593286Y-60000000D01*
X106603519Y-60033735D01*
X106731198Y-60272605D01*
X106859964Y-60429507D01*
X106859968Y-60429511D01*
X106903024Y-60481975D01*
X106955489Y-60525032D01*
X107055457Y-60625000D01*
X103226771Y-60625000D01*
X103212339Y-60478470D01*
X103162305Y-60313532D01*
X103081056Y-60161524D01*
X102971712Y-60028288D01*
X102838476Y-59918944D01*
X102686468Y-59837695D01*
X102521530Y-59787661D01*
X102350000Y-59770767D01*
X100910226Y-59770767D01*
X105532450Y-55349509D01*
X105592118Y-55305455D01*
X105644570Y-55284409D01*
X105718139Y-55275000D01*
X106150767Y-55275000D01*
X106150767Y-56850000D01*
X106150767Y-56850000D01*
G37*
X106150767Y-56850000D02*
X106167661Y-57021530D01*
X106217695Y-57186468D01*
X106298944Y-57338476D01*
X106408288Y-57471712D01*
X106505001Y-57551082D01*
X106505000Y-59437461D01*
X106498348Y-59505000D01*
X106505000Y-59572539D01*
X106505000Y-59572548D01*
X106524895Y-59774546D01*
X106593286Y-60000000D01*
X106603519Y-60033735D01*
X106731198Y-60272605D01*
X106859964Y-60429507D01*
X106859968Y-60429511D01*
X106903024Y-60481975D01*
X106955489Y-60525032D01*
X107055457Y-60625000D01*
X103226771Y-60625000D01*
X103212339Y-60478470D01*
X103162305Y-60313532D01*
X103081056Y-60161524D01*
X102971712Y-60028288D01*
X102838476Y-59918944D01*
X102686468Y-59837695D01*
X102521530Y-59787661D01*
X102350000Y-59770767D01*
X100910226Y-59770767D01*
X105532450Y-55349509D01*
X105592118Y-55305455D01*
X105644570Y-55284409D01*
X105718139Y-55275000D01*
X106150767Y-55275000D01*
X106150767Y-56850000D01*
D22*
G36*
X115923000Y-63051250D02*
G01*
X116046176Y-63174426D01*
X116046176Y-63325000D01*
X116055857Y-63423291D01*
X116084527Y-63517805D01*
X116128462Y-63600000D01*
X116084527Y-63682195D01*
X116055857Y-63776709D01*
X116046176Y-63875000D01*
X116046176Y-64125000D01*
X116055857Y-64223291D01*
X116084527Y-64317805D01*
X116128462Y-64400000D01*
X116084527Y-64482195D01*
X116055857Y-64576709D01*
X116046176Y-64675000D01*
X116046176Y-64925000D01*
X116055857Y-65023291D01*
X116084527Y-65117805D01*
X116128462Y-65200000D01*
X116084527Y-65282195D01*
X116055857Y-65376709D01*
X116046176Y-65475000D01*
X116046176Y-65725000D01*
X116055857Y-65823291D01*
X116084527Y-65917805D01*
X116128462Y-66000000D01*
X116084527Y-66082195D01*
X116055857Y-66176709D01*
X116046176Y-66275000D01*
X116046176Y-66525000D01*
X116055857Y-66623291D01*
X116084527Y-66717805D01*
X116128462Y-66800000D01*
X116084527Y-66882195D01*
X116055857Y-66976709D01*
X116046176Y-67075000D01*
X116046176Y-67325000D01*
X116055857Y-67423291D01*
X116084527Y-67517805D01*
X116128462Y-67600000D01*
X116084527Y-67682195D01*
X116055857Y-67776709D01*
X116046176Y-67875000D01*
X116046176Y-68125000D01*
X116055857Y-68223291D01*
X116084527Y-68317805D01*
X116128462Y-68400000D01*
X116084527Y-68482195D01*
X116055857Y-68576709D01*
X116046176Y-68675000D01*
X116046176Y-68925000D01*
X116055857Y-69023291D01*
X116070037Y-69070037D01*
X116023291Y-69055857D01*
X115925000Y-69046176D01*
X115675000Y-69046176D01*
X115576709Y-69055857D01*
X115482195Y-69084527D01*
X115400000Y-69128462D01*
X115317805Y-69084527D01*
X115223291Y-69055857D01*
X115125000Y-69046176D01*
X114875000Y-69046176D01*
X114776709Y-69055857D01*
X114682195Y-69084527D01*
X114600000Y-69128462D01*
X114517805Y-69084527D01*
X114423291Y-69055857D01*
X114325000Y-69046176D01*
X114075000Y-69046176D01*
X113976709Y-69055857D01*
X113882195Y-69084527D01*
X113800000Y-69128462D01*
X113717805Y-69084527D01*
X113623291Y-69055857D01*
X113525000Y-69046176D01*
X113275000Y-69046176D01*
X113176709Y-69055857D01*
X113082195Y-69084527D01*
X113000000Y-69128462D01*
X112917805Y-69084527D01*
X112823291Y-69055857D01*
X112725000Y-69046176D01*
X112475000Y-69046176D01*
X112376709Y-69055857D01*
X112282195Y-69084527D01*
X112200000Y-69128462D01*
X112117805Y-69084527D01*
X112023291Y-69055857D01*
X111925000Y-69046176D01*
X111675000Y-69046176D01*
X111576709Y-69055857D01*
X111482195Y-69084527D01*
X111400000Y-69128462D01*
X111317805Y-69084527D01*
X111223291Y-69055857D01*
X111125000Y-69046176D01*
X110960070Y-69046176D01*
X110907844Y-68980574D01*
X110812343Y-68899792D01*
X110702918Y-68839194D01*
X110583773Y-68801109D01*
X110481750Y-68790000D01*
X110323000Y-68948750D01*
X110323000Y-69373000D01*
X110077000Y-69373000D01*
X110077000Y-68948750D01*
X109953824Y-68825574D01*
X109953824Y-68675000D01*
X109944143Y-68576709D01*
X109915473Y-68482195D01*
X109871538Y-68400000D01*
X109915473Y-68317805D01*
X109944143Y-68223291D01*
X109953824Y-68125000D01*
X109953824Y-67875000D01*
X109944143Y-67776709D01*
X109915473Y-67682195D01*
X109871538Y-67600000D01*
X109915473Y-67517805D01*
X109944143Y-67423291D01*
X109953824Y-67325000D01*
X109953824Y-67075000D01*
X109944143Y-66976709D01*
X109915473Y-66882195D01*
X109871538Y-66800000D01*
X109915473Y-66717805D01*
X109944143Y-66623291D01*
X109953824Y-66525000D01*
X109953824Y-66275000D01*
X109944143Y-66176709D01*
X109915473Y-66082195D01*
X109871538Y-66000000D01*
X109915473Y-65917805D01*
X109944143Y-65823291D01*
X109953824Y-65725000D01*
X109953824Y-65475000D01*
X109944143Y-65376709D01*
X109915473Y-65282195D01*
X109871538Y-65200000D01*
X109915473Y-65117805D01*
X109944143Y-65023291D01*
X109953824Y-64925000D01*
X109953824Y-64675000D01*
X109944143Y-64576709D01*
X109915473Y-64482195D01*
X109871538Y-64400000D01*
X109915473Y-64317805D01*
X109944143Y-64223291D01*
X109953824Y-64125000D01*
X109953824Y-63875000D01*
X109944143Y-63776709D01*
X109915473Y-63682195D01*
X109871538Y-63600000D01*
X109915473Y-63517805D01*
X109944143Y-63423291D01*
X109953824Y-63325000D01*
X109953824Y-63075000D01*
X109944143Y-62976709D01*
X109929963Y-62929963D01*
X109976709Y-62944143D01*
X110075000Y-62953824D01*
X110325000Y-62953824D01*
X110423291Y-62944143D01*
X110517805Y-62915473D01*
X110600000Y-62871538D01*
X110682195Y-62915473D01*
X110776709Y-62944143D01*
X110875000Y-62953824D01*
X111125000Y-62953824D01*
X111223291Y-62944143D01*
X111317805Y-62915473D01*
X111400000Y-62871538D01*
X111482195Y-62915473D01*
X111576709Y-62944143D01*
X111675000Y-62953824D01*
X111925000Y-62953824D01*
X112023291Y-62944143D01*
X112117805Y-62915473D01*
X112200000Y-62871538D01*
X112282195Y-62915473D01*
X112376709Y-62944143D01*
X112475000Y-62953824D01*
X112725000Y-62953824D01*
X112823291Y-62944143D01*
X112917805Y-62915473D01*
X113000000Y-62871538D01*
X113082195Y-62915473D01*
X113176709Y-62944143D01*
X113275000Y-62953824D01*
X113525000Y-62953824D01*
X113623291Y-62944143D01*
X113717805Y-62915473D01*
X113800000Y-62871538D01*
X113882195Y-62915473D01*
X113976709Y-62944143D01*
X114075000Y-62953824D01*
X114325000Y-62953824D01*
X114423291Y-62944143D01*
X114517805Y-62915473D01*
X114600000Y-62871538D01*
X114682195Y-62915473D01*
X114776709Y-62944143D01*
X114875000Y-62953824D01*
X115039930Y-62953824D01*
X115092156Y-63019426D01*
X115187657Y-63100208D01*
X115297082Y-63160806D01*
X115416227Y-63198891D01*
X115518250Y-63210000D01*
X115677000Y-63051250D01*
X115677000Y-62627000D01*
X115923000Y-62627000D01*
X115923000Y-63051250D01*
X115923000Y-63051250D01*
G37*
X115923000Y-63051250D02*
X116046176Y-63174426D01*
X116046176Y-63325000D01*
X116055857Y-63423291D01*
X116084527Y-63517805D01*
X116128462Y-63600000D01*
X116084527Y-63682195D01*
X116055857Y-63776709D01*
X116046176Y-63875000D01*
X116046176Y-64125000D01*
X116055857Y-64223291D01*
X116084527Y-64317805D01*
X116128462Y-64400000D01*
X116084527Y-64482195D01*
X116055857Y-64576709D01*
X116046176Y-64675000D01*
X116046176Y-64925000D01*
X116055857Y-65023291D01*
X116084527Y-65117805D01*
X116128462Y-65200000D01*
X116084527Y-65282195D01*
X116055857Y-65376709D01*
X116046176Y-65475000D01*
X116046176Y-65725000D01*
X116055857Y-65823291D01*
X116084527Y-65917805D01*
X116128462Y-66000000D01*
X116084527Y-66082195D01*
X116055857Y-66176709D01*
X116046176Y-66275000D01*
X116046176Y-66525000D01*
X116055857Y-66623291D01*
X116084527Y-66717805D01*
X116128462Y-66800000D01*
X116084527Y-66882195D01*
X116055857Y-66976709D01*
X116046176Y-67075000D01*
X116046176Y-67325000D01*
X116055857Y-67423291D01*
X116084527Y-67517805D01*
X116128462Y-67600000D01*
X116084527Y-67682195D01*
X116055857Y-67776709D01*
X116046176Y-67875000D01*
X116046176Y-68125000D01*
X116055857Y-68223291D01*
X116084527Y-68317805D01*
X116128462Y-68400000D01*
X116084527Y-68482195D01*
X116055857Y-68576709D01*
X116046176Y-68675000D01*
X116046176Y-68925000D01*
X116055857Y-69023291D01*
X116070037Y-69070037D01*
X116023291Y-69055857D01*
X115925000Y-69046176D01*
X115675000Y-69046176D01*
X115576709Y-69055857D01*
X115482195Y-69084527D01*
X115400000Y-69128462D01*
X115317805Y-69084527D01*
X115223291Y-69055857D01*
X115125000Y-69046176D01*
X114875000Y-69046176D01*
X114776709Y-69055857D01*
X114682195Y-69084527D01*
X114600000Y-69128462D01*
X114517805Y-69084527D01*
X114423291Y-69055857D01*
X114325000Y-69046176D01*
X114075000Y-69046176D01*
X113976709Y-69055857D01*
X113882195Y-69084527D01*
X113800000Y-69128462D01*
X113717805Y-69084527D01*
X113623291Y-69055857D01*
X113525000Y-69046176D01*
X113275000Y-69046176D01*
X113176709Y-69055857D01*
X113082195Y-69084527D01*
X113000000Y-69128462D01*
X112917805Y-69084527D01*
X112823291Y-69055857D01*
X112725000Y-69046176D01*
X112475000Y-69046176D01*
X112376709Y-69055857D01*
X112282195Y-69084527D01*
X112200000Y-69128462D01*
X112117805Y-69084527D01*
X112023291Y-69055857D01*
X111925000Y-69046176D01*
X111675000Y-69046176D01*
X111576709Y-69055857D01*
X111482195Y-69084527D01*
X111400000Y-69128462D01*
X111317805Y-69084527D01*
X111223291Y-69055857D01*
X111125000Y-69046176D01*
X110960070Y-69046176D01*
X110907844Y-68980574D01*
X110812343Y-68899792D01*
X110702918Y-68839194D01*
X110583773Y-68801109D01*
X110481750Y-68790000D01*
X110323000Y-68948750D01*
X110323000Y-69373000D01*
X110077000Y-69373000D01*
X110077000Y-68948750D01*
X109953824Y-68825574D01*
X109953824Y-68675000D01*
X109944143Y-68576709D01*
X109915473Y-68482195D01*
X109871538Y-68400000D01*
X109915473Y-68317805D01*
X109944143Y-68223291D01*
X109953824Y-68125000D01*
X109953824Y-67875000D01*
X109944143Y-67776709D01*
X109915473Y-67682195D01*
X109871538Y-67600000D01*
X109915473Y-67517805D01*
X109944143Y-67423291D01*
X109953824Y-67325000D01*
X109953824Y-67075000D01*
X109944143Y-66976709D01*
X109915473Y-66882195D01*
X109871538Y-66800000D01*
X109915473Y-66717805D01*
X109944143Y-66623291D01*
X109953824Y-66525000D01*
X109953824Y-66275000D01*
X109944143Y-66176709D01*
X109915473Y-66082195D01*
X109871538Y-66000000D01*
X109915473Y-65917805D01*
X109944143Y-65823291D01*
X109953824Y-65725000D01*
X109953824Y-65475000D01*
X109944143Y-65376709D01*
X109915473Y-65282195D01*
X109871538Y-65200000D01*
X109915473Y-65117805D01*
X109944143Y-65023291D01*
X109953824Y-64925000D01*
X109953824Y-64675000D01*
X109944143Y-64576709D01*
X109915473Y-64482195D01*
X109871538Y-64400000D01*
X109915473Y-64317805D01*
X109944143Y-64223291D01*
X109953824Y-64125000D01*
X109953824Y-63875000D01*
X109944143Y-63776709D01*
X109915473Y-63682195D01*
X109871538Y-63600000D01*
X109915473Y-63517805D01*
X109944143Y-63423291D01*
X109953824Y-63325000D01*
X109953824Y-63075000D01*
X109944143Y-62976709D01*
X109929963Y-62929963D01*
X109976709Y-62944143D01*
X110075000Y-62953824D01*
X110325000Y-62953824D01*
X110423291Y-62944143D01*
X110517805Y-62915473D01*
X110600000Y-62871538D01*
X110682195Y-62915473D01*
X110776709Y-62944143D01*
X110875000Y-62953824D01*
X111125000Y-62953824D01*
X111223291Y-62944143D01*
X111317805Y-62915473D01*
X111400000Y-62871538D01*
X111482195Y-62915473D01*
X111576709Y-62944143D01*
X111675000Y-62953824D01*
X111925000Y-62953824D01*
X112023291Y-62944143D01*
X112117805Y-62915473D01*
X112200000Y-62871538D01*
X112282195Y-62915473D01*
X112376709Y-62944143D01*
X112475000Y-62953824D01*
X112725000Y-62953824D01*
X112823291Y-62944143D01*
X112917805Y-62915473D01*
X113000000Y-62871538D01*
X113082195Y-62915473D01*
X113176709Y-62944143D01*
X113275000Y-62953824D01*
X113525000Y-62953824D01*
X113623291Y-62944143D01*
X113717805Y-62915473D01*
X113800000Y-62871538D01*
X113882195Y-62915473D01*
X113976709Y-62944143D01*
X114075000Y-62953824D01*
X114325000Y-62953824D01*
X114423291Y-62944143D01*
X114517805Y-62915473D01*
X114600000Y-62871538D01*
X114682195Y-62915473D01*
X114776709Y-62944143D01*
X114875000Y-62953824D01*
X115039930Y-62953824D01*
X115092156Y-63019426D01*
X115187657Y-63100208D01*
X115297082Y-63160806D01*
X115416227Y-63198891D01*
X115518250Y-63210000D01*
X115677000Y-63051250D01*
X115677000Y-62627000D01*
X115923000Y-62627000D01*
X115923000Y-63051250D01*
D23*
G36*
X146100000Y-96100000D02*
G01*
X91900000Y-96100000D01*
X91900000Y-91756234D01*
X93525000Y-91756234D01*
X93525000Y-92243766D01*
X93620113Y-92721931D01*
X93806684Y-93172352D01*
X94077542Y-93577720D01*
X94422280Y-93922458D01*
X94827648Y-94193316D01*
X95278069Y-94379887D01*
X95756234Y-94475000D01*
X96243766Y-94475000D01*
X96721931Y-94379887D01*
X97172352Y-94193316D01*
X97577720Y-93922458D01*
X97922458Y-93577720D01*
X98154796Y-93230000D01*
X135770766Y-93230000D01*
X135787660Y-93401530D01*
X135837694Y-93566468D01*
X135918944Y-93718476D01*
X136028288Y-93851712D01*
X136161524Y-93961056D01*
X136313532Y-94042306D01*
X136478470Y-94092340D01*
X136650000Y-94109234D01*
X137506250Y-94105000D01*
X137725000Y-93886250D01*
X137725000Y-92155000D01*
X138275000Y-92155000D01*
X138275000Y-93886250D01*
X138493750Y-94105000D01*
X139350000Y-94109234D01*
X139521530Y-94092340D01*
X139686468Y-94042306D01*
X139838476Y-93961056D01*
X139971712Y-93851712D01*
X140081056Y-93718476D01*
X140162306Y-93566468D01*
X140212340Y-93401530D01*
X140229234Y-93230000D01*
X140225000Y-92373750D01*
X140006250Y-92155000D01*
X138275000Y-92155000D01*
X137725000Y-92155000D01*
X135993750Y-92155000D01*
X135775000Y-92373750D01*
X135770766Y-93230000D01*
X98154796Y-93230000D01*
X98193316Y-93172352D01*
X98379887Y-92721931D01*
X98475000Y-92243766D01*
X98475000Y-91892500D01*
X125020766Y-91892500D01*
X125037660Y-92064030D01*
X125087694Y-92228968D01*
X125168944Y-92380976D01*
X125278288Y-92514212D01*
X125411524Y-92623556D01*
X125563532Y-92704806D01*
X125728470Y-92754840D01*
X125900000Y-92771734D01*
X126406250Y-92767500D01*
X126625000Y-92548750D01*
X126625000Y-91215000D01*
X127175000Y-91215000D01*
X127175000Y-92548750D01*
X127393750Y-92767500D01*
X127900000Y-92771734D01*
X128071530Y-92754840D01*
X128236468Y-92704806D01*
X128388476Y-92623556D01*
X128521712Y-92514212D01*
X128631056Y-92380976D01*
X128712306Y-92228968D01*
X128747593Y-92112645D01*
X128781444Y-92175976D01*
X128890788Y-92309212D01*
X129024024Y-92418556D01*
X129176032Y-92499806D01*
X129340970Y-92549840D01*
X129512500Y-92566734D01*
X129893750Y-92562500D01*
X130112500Y-92343750D01*
X130112500Y-91250000D01*
X130662500Y-91250000D01*
X130662500Y-92343750D01*
X130881250Y-92562500D01*
X131262500Y-92566734D01*
X131434030Y-92549840D01*
X131598968Y-92499806D01*
X131750976Y-92418556D01*
X131884212Y-92309212D01*
X131993556Y-92175976D01*
X132074806Y-92023968D01*
X132124840Y-91859030D01*
X132141734Y-91687500D01*
X132137500Y-91468750D01*
X131918750Y-91250000D01*
X130662500Y-91250000D01*
X130112500Y-91250000D01*
X128856250Y-91250000D01*
X128723750Y-91382500D01*
X128556250Y-91215000D01*
X127175000Y-91215000D01*
X126625000Y-91215000D01*
X125243750Y-91215000D01*
X125025000Y-91433750D01*
X125020766Y-91892500D01*
X98475000Y-91892500D01*
X98475000Y-91756234D01*
X98379887Y-91278069D01*
X98193316Y-90827648D01*
X97922458Y-90422280D01*
X97577720Y-90077542D01*
X97172352Y-89806684D01*
X96721931Y-89620113D01*
X96243766Y-89525000D01*
X95756234Y-89525000D01*
X95278069Y-89620113D01*
X94827648Y-89806684D01*
X94422280Y-90077542D01*
X94077542Y-90422280D01*
X93806684Y-90827648D01*
X93620113Y-91278069D01*
X93525000Y-91756234D01*
X91900000Y-91756234D01*
X91900000Y-60463109D01*
X98725000Y-60463109D01*
X98725000Y-64000000D01*
X98727353Y-64035894D01*
X98744390Y-64165304D01*
X98762970Y-64234648D01*
X98812913Y-64355222D01*
X98787660Y-64438470D01*
X98770766Y-64610000D01*
X98775000Y-65466250D01*
X98993750Y-65685000D01*
X100725000Y-65685000D01*
X100725000Y-65665000D01*
X101275000Y-65665000D01*
X101275000Y-65685000D01*
X101295000Y-65685000D01*
X101295000Y-66235000D01*
X101275000Y-66235000D01*
X101275000Y-66255000D01*
X100725000Y-66255000D01*
X100725000Y-66235000D01*
X98993750Y-66235000D01*
X98775000Y-66453750D01*
X98770766Y-67310000D01*
X98787660Y-67481530D01*
X98828822Y-67617220D01*
X98812920Y-67644762D01*
X98762970Y-67765352D01*
X98744390Y-67834696D01*
X98727353Y-67964106D01*
X98725000Y-68000000D01*
X98725000Y-79000000D01*
X98727353Y-79035894D01*
X98744390Y-79165304D01*
X98762970Y-79234648D01*
X98812913Y-79355222D01*
X98787660Y-79438470D01*
X98770766Y-79610000D01*
X98775000Y-80466250D01*
X98993750Y-80685000D01*
X100725000Y-80685000D01*
X100725000Y-80665000D01*
X101275000Y-80665000D01*
X101275000Y-80685000D01*
X101295000Y-80685000D01*
X101295000Y-81235000D01*
X101275000Y-81235000D01*
X101275000Y-81255000D01*
X100725000Y-81255000D01*
X100725000Y-81235000D01*
X98993750Y-81235000D01*
X98775000Y-81453750D01*
X98770766Y-82310000D01*
X98787660Y-82481530D01*
X98828822Y-82617220D01*
X98812920Y-82644762D01*
X98762970Y-82765352D01*
X98744390Y-82834696D01*
X98727353Y-82964106D01*
X98725000Y-83000000D01*
X98725000Y-86554508D01*
X98727119Y-86588584D01*
X98742474Y-86711546D01*
X98759236Y-86777610D01*
X98804360Y-86893020D01*
X98836851Y-86952929D01*
X98908970Y-87053697D01*
X98930527Y-87080175D01*
X101649443Y-90025667D01*
X101676930Y-90051614D01*
X101782881Y-90138671D01*
X101847170Y-90178110D01*
X101972787Y-90233109D01*
X102045372Y-90253598D01*
X102181206Y-90272402D01*
X102218916Y-90275000D01*
X125023419Y-90275000D01*
X125025000Y-90446250D01*
X125243750Y-90665000D01*
X126625000Y-90665000D01*
X126625000Y-90645000D01*
X127175000Y-90645000D01*
X127175000Y-90665000D01*
X128556250Y-90665000D01*
X128688750Y-90532500D01*
X128856250Y-90700000D01*
X130112500Y-90700000D01*
X130112500Y-90680000D01*
X130662500Y-90680000D01*
X130662500Y-90700000D01*
X131918750Y-90700000D01*
X132137500Y-90481250D01*
X132141492Y-90275000D01*
X135812981Y-90275000D01*
X135787660Y-90358470D01*
X135770766Y-90530000D01*
X135775000Y-91386250D01*
X135993750Y-91605000D01*
X137725000Y-91605000D01*
X137725000Y-91585000D01*
X138275000Y-91585000D01*
X138275000Y-91605000D01*
X140006250Y-91605000D01*
X140225000Y-91386250D01*
X140229234Y-90530000D01*
X140212340Y-90358470D01*
X140162306Y-90193532D01*
X140081056Y-90041524D01*
X140067582Y-90025106D01*
X140071724Y-90020964D01*
X140151184Y-89917411D01*
X140187080Y-89855238D01*
X140237030Y-89734648D01*
X140255610Y-89665304D01*
X140272647Y-89535894D01*
X140275000Y-89500000D01*
X140275000Y-72003369D01*
X140271646Y-71960550D01*
X140247402Y-71806744D01*
X140233829Y-71754571D01*
X140221059Y-71725259D01*
X140150678Y-71586369D01*
X140121714Y-71540901D01*
X140100546Y-71516938D01*
X139990853Y-71406432D01*
X139958307Y-71378406D01*
X137025090Y-69227379D01*
X137506250Y-69225000D01*
X137725000Y-69006250D01*
X137725000Y-67275000D01*
X138275000Y-67275000D01*
X138275000Y-69006250D01*
X138493750Y-69225000D01*
X139350000Y-69229234D01*
X139521530Y-69212340D01*
X139686468Y-69162306D01*
X139838476Y-69081056D01*
X139971712Y-68971712D01*
X140081056Y-68838476D01*
X140162306Y-68686468D01*
X140212340Y-68521530D01*
X140229234Y-68350000D01*
X140225000Y-67493750D01*
X140006250Y-67275000D01*
X138275000Y-67275000D01*
X137725000Y-67275000D01*
X137705000Y-67275000D01*
X137705000Y-66725000D01*
X137725000Y-66725000D01*
X137725000Y-66705000D01*
X138275000Y-66705000D01*
X138275000Y-66725000D01*
X140006250Y-66725000D01*
X140225000Y-66506250D01*
X140229234Y-65650000D01*
X140212340Y-65478470D01*
X140184839Y-65387811D01*
X140270964Y-65321724D01*
X140321724Y-65270964D01*
X140401184Y-65167411D01*
X140437080Y-65105238D01*
X140487030Y-64984648D01*
X140505610Y-64915304D01*
X140522647Y-64785894D01*
X140525000Y-64750000D01*
X140525000Y-54750000D01*
X140522647Y-54714106D01*
X140505610Y-54584696D01*
X140487030Y-54515352D01*
X140437080Y-54394762D01*
X140401184Y-54332589D01*
X140321724Y-54229036D01*
X140270964Y-54178276D01*
X140229233Y-54146254D01*
X140229233Y-53770000D01*
X140212339Y-53598470D01*
X140162305Y-53433532D01*
X140081056Y-53281524D01*
X139971712Y-53148288D01*
X139838476Y-53038944D01*
X139686468Y-52957695D01*
X139521530Y-52907661D01*
X139350000Y-52890767D01*
X136650000Y-52890767D01*
X136478470Y-52907661D01*
X136313532Y-52957695D01*
X136161524Y-53038944D01*
X136028288Y-53148288D01*
X135918944Y-53281524D01*
X135837695Y-53433532D01*
X135787661Y-53598470D01*
X135773229Y-53745000D01*
X135447539Y-53745000D01*
X135380000Y-53738348D01*
X135312461Y-53745000D01*
X135312451Y-53745000D01*
X135110453Y-53764895D01*
X134903584Y-53827648D01*
X134851264Y-53843519D01*
X134612394Y-53971198D01*
X134607761Y-53975000D01*
X105451155Y-53975000D01*
X105416188Y-53977232D01*
X105290067Y-53993400D01*
X105222393Y-54011041D01*
X105104428Y-54058500D01*
X105043395Y-54092639D01*
X104941215Y-54168318D01*
X104914443Y-54190924D01*
X98963288Y-59904033D01*
X98938440Y-59931321D01*
X98855134Y-60036148D01*
X98817448Y-60099416D01*
X98764948Y-60222591D01*
X98745404Y-60293596D01*
X98727476Y-60426288D01*
X98725000Y-60463109D01*
X91900000Y-60463109D01*
X91900000Y-54756234D01*
X93525000Y-54756234D01*
X93525000Y-55243766D01*
X93620113Y-55721931D01*
X93806684Y-56172352D01*
X94077542Y-56577720D01*
X94422280Y-56922458D01*
X94827648Y-57193316D01*
X95278069Y-57379887D01*
X95756234Y-57475000D01*
X96243766Y-57475000D01*
X96721931Y-57379887D01*
X97172352Y-57193316D01*
X97577720Y-56922458D01*
X97922458Y-56577720D01*
X98193316Y-56172352D01*
X98379887Y-55721931D01*
X98475000Y-55243766D01*
X98475000Y-54756234D01*
X98379887Y-54278069D01*
X98193316Y-53827648D01*
X97922458Y-53422280D01*
X97577720Y-53077542D01*
X97172352Y-52806684D01*
X96721931Y-52620113D01*
X96243766Y-52525000D01*
X95756234Y-52525000D01*
X95278069Y-52620113D01*
X94827648Y-52806684D01*
X94422280Y-53077542D01*
X94077542Y-53422280D01*
X93806684Y-53827648D01*
X93620113Y-54278069D01*
X93525000Y-54756234D01*
X91900000Y-54756234D01*
X91900000Y-50900000D01*
X146100001Y-50900000D01*
X146100000Y-96100000D01*
X146100000Y-96100000D01*
G37*
X146100000Y-96100000D02*
X91900000Y-96100000D01*
X91900000Y-91756234D01*
X93525000Y-91756234D01*
X93525000Y-92243766D01*
X93620113Y-92721931D01*
X93806684Y-93172352D01*
X94077542Y-93577720D01*
X94422280Y-93922458D01*
X94827648Y-94193316D01*
X95278069Y-94379887D01*
X95756234Y-94475000D01*
X96243766Y-94475000D01*
X96721931Y-94379887D01*
X97172352Y-94193316D01*
X97577720Y-93922458D01*
X97922458Y-93577720D01*
X98154796Y-93230000D01*
X135770766Y-93230000D01*
X135787660Y-93401530D01*
X135837694Y-93566468D01*
X135918944Y-93718476D01*
X136028288Y-93851712D01*
X136161524Y-93961056D01*
X136313532Y-94042306D01*
X136478470Y-94092340D01*
X136650000Y-94109234D01*
X137506250Y-94105000D01*
X137725000Y-93886250D01*
X137725000Y-92155000D01*
X138275000Y-92155000D01*
X138275000Y-93886250D01*
X138493750Y-94105000D01*
X139350000Y-94109234D01*
X139521530Y-94092340D01*
X139686468Y-94042306D01*
X139838476Y-93961056D01*
X139971712Y-93851712D01*
X140081056Y-93718476D01*
X140162306Y-93566468D01*
X140212340Y-93401530D01*
X140229234Y-93230000D01*
X140225000Y-92373750D01*
X140006250Y-92155000D01*
X138275000Y-92155000D01*
X137725000Y-92155000D01*
X135993750Y-92155000D01*
X135775000Y-92373750D01*
X135770766Y-93230000D01*
X98154796Y-93230000D01*
X98193316Y-93172352D01*
X98379887Y-92721931D01*
X98475000Y-92243766D01*
X98475000Y-91892500D01*
X125020766Y-91892500D01*
X125037660Y-92064030D01*
X125087694Y-92228968D01*
X125168944Y-92380976D01*
X125278288Y-92514212D01*
X125411524Y-92623556D01*
X125563532Y-92704806D01*
X125728470Y-92754840D01*
X125900000Y-92771734D01*
X126406250Y-92767500D01*
X126625000Y-92548750D01*
X126625000Y-91215000D01*
X127175000Y-91215000D01*
X127175000Y-92548750D01*
X127393750Y-92767500D01*
X127900000Y-92771734D01*
X128071530Y-92754840D01*
X128236468Y-92704806D01*
X128388476Y-92623556D01*
X128521712Y-92514212D01*
X128631056Y-92380976D01*
X128712306Y-92228968D01*
X128747593Y-92112645D01*
X128781444Y-92175976D01*
X128890788Y-92309212D01*
X129024024Y-92418556D01*
X129176032Y-92499806D01*
X129340970Y-92549840D01*
X129512500Y-92566734D01*
X129893750Y-92562500D01*
X130112500Y-92343750D01*
X130112500Y-91250000D01*
X130662500Y-91250000D01*
X130662500Y-92343750D01*
X130881250Y-92562500D01*
X131262500Y-92566734D01*
X131434030Y-92549840D01*
X131598968Y-92499806D01*
X131750976Y-92418556D01*
X131884212Y-92309212D01*
X131993556Y-92175976D01*
X132074806Y-92023968D01*
X132124840Y-91859030D01*
X132141734Y-91687500D01*
X132137500Y-91468750D01*
X131918750Y-91250000D01*
X130662500Y-91250000D01*
X130112500Y-91250000D01*
X128856250Y-91250000D01*
X128723750Y-91382500D01*
X128556250Y-91215000D01*
X127175000Y-91215000D01*
X126625000Y-91215000D01*
X125243750Y-91215000D01*
X125025000Y-91433750D01*
X125020766Y-91892500D01*
X98475000Y-91892500D01*
X98475000Y-91756234D01*
X98379887Y-91278069D01*
X98193316Y-90827648D01*
X97922458Y-90422280D01*
X97577720Y-90077542D01*
X97172352Y-89806684D01*
X96721931Y-89620113D01*
X96243766Y-89525000D01*
X95756234Y-89525000D01*
X95278069Y-89620113D01*
X94827648Y-89806684D01*
X94422280Y-90077542D01*
X94077542Y-90422280D01*
X93806684Y-90827648D01*
X93620113Y-91278069D01*
X93525000Y-91756234D01*
X91900000Y-91756234D01*
X91900000Y-60463109D01*
X98725000Y-60463109D01*
X98725000Y-64000000D01*
X98727353Y-64035894D01*
X98744390Y-64165304D01*
X98762970Y-64234648D01*
X98812913Y-64355222D01*
X98787660Y-64438470D01*
X98770766Y-64610000D01*
X98775000Y-65466250D01*
X98993750Y-65685000D01*
X100725000Y-65685000D01*
X100725000Y-65665000D01*
X101275000Y-65665000D01*
X101275000Y-65685000D01*
X101295000Y-65685000D01*
X101295000Y-66235000D01*
X101275000Y-66235000D01*
X101275000Y-66255000D01*
X100725000Y-66255000D01*
X100725000Y-66235000D01*
X98993750Y-66235000D01*
X98775000Y-66453750D01*
X98770766Y-67310000D01*
X98787660Y-67481530D01*
X98828822Y-67617220D01*
X98812920Y-67644762D01*
X98762970Y-67765352D01*
X98744390Y-67834696D01*
X98727353Y-67964106D01*
X98725000Y-68000000D01*
X98725000Y-79000000D01*
X98727353Y-79035894D01*
X98744390Y-79165304D01*
X98762970Y-79234648D01*
X98812913Y-79355222D01*
X98787660Y-79438470D01*
X98770766Y-79610000D01*
X98775000Y-80466250D01*
X98993750Y-80685000D01*
X100725000Y-80685000D01*
X100725000Y-80665000D01*
X101275000Y-80665000D01*
X101275000Y-80685000D01*
X101295000Y-80685000D01*
X101295000Y-81235000D01*
X101275000Y-81235000D01*
X101275000Y-81255000D01*
X100725000Y-81255000D01*
X100725000Y-81235000D01*
X98993750Y-81235000D01*
X98775000Y-81453750D01*
X98770766Y-82310000D01*
X98787660Y-82481530D01*
X98828822Y-82617220D01*
X98812920Y-82644762D01*
X98762970Y-82765352D01*
X98744390Y-82834696D01*
X98727353Y-82964106D01*
X98725000Y-83000000D01*
X98725000Y-86554508D01*
X98727119Y-86588584D01*
X98742474Y-86711546D01*
X98759236Y-86777610D01*
X98804360Y-86893020D01*
X98836851Y-86952929D01*
X98908970Y-87053697D01*
X98930527Y-87080175D01*
X101649443Y-90025667D01*
X101676930Y-90051614D01*
X101782881Y-90138671D01*
X101847170Y-90178110D01*
X101972787Y-90233109D01*
X102045372Y-90253598D01*
X102181206Y-90272402D01*
X102218916Y-90275000D01*
X125023419Y-90275000D01*
X125025000Y-90446250D01*
X125243750Y-90665000D01*
X126625000Y-90665000D01*
X126625000Y-90645000D01*
X127175000Y-90645000D01*
X127175000Y-90665000D01*
X128556250Y-90665000D01*
X128688750Y-90532500D01*
X128856250Y-90700000D01*
X130112500Y-90700000D01*
X130112500Y-90680000D01*
X130662500Y-90680000D01*
X130662500Y-90700000D01*
X131918750Y-90700000D01*
X132137500Y-90481250D01*
X132141492Y-90275000D01*
X135812981Y-90275000D01*
X135787660Y-90358470D01*
X135770766Y-90530000D01*
X135775000Y-91386250D01*
X135993750Y-91605000D01*
X137725000Y-91605000D01*
X137725000Y-91585000D01*
X138275000Y-91585000D01*
X138275000Y-91605000D01*
X140006250Y-91605000D01*
X140225000Y-91386250D01*
X140229234Y-90530000D01*
X140212340Y-90358470D01*
X140162306Y-90193532D01*
X140081056Y-90041524D01*
X140067582Y-90025106D01*
X140071724Y-90020964D01*
X140151184Y-89917411D01*
X140187080Y-89855238D01*
X140237030Y-89734648D01*
X140255610Y-89665304D01*
X140272647Y-89535894D01*
X140275000Y-89500000D01*
X140275000Y-72003369D01*
X140271646Y-71960550D01*
X140247402Y-71806744D01*
X140233829Y-71754571D01*
X140221059Y-71725259D01*
X140150678Y-71586369D01*
X140121714Y-71540901D01*
X140100546Y-71516938D01*
X139990853Y-71406432D01*
X139958307Y-71378406D01*
X137025090Y-69227379D01*
X137506250Y-69225000D01*
X137725000Y-69006250D01*
X137725000Y-67275000D01*
X138275000Y-67275000D01*
X138275000Y-69006250D01*
X138493750Y-69225000D01*
X139350000Y-69229234D01*
X139521530Y-69212340D01*
X139686468Y-69162306D01*
X139838476Y-69081056D01*
X139971712Y-68971712D01*
X140081056Y-68838476D01*
X140162306Y-68686468D01*
X140212340Y-68521530D01*
X140229234Y-68350000D01*
X140225000Y-67493750D01*
X140006250Y-67275000D01*
X138275000Y-67275000D01*
X137725000Y-67275000D01*
X137705000Y-67275000D01*
X137705000Y-66725000D01*
X137725000Y-66725000D01*
X137725000Y-66705000D01*
X138275000Y-66705000D01*
X138275000Y-66725000D01*
X140006250Y-66725000D01*
X140225000Y-66506250D01*
X140229234Y-65650000D01*
X140212340Y-65478470D01*
X140184839Y-65387811D01*
X140270964Y-65321724D01*
X140321724Y-65270964D01*
X140401184Y-65167411D01*
X140437080Y-65105238D01*
X140487030Y-64984648D01*
X140505610Y-64915304D01*
X140522647Y-64785894D01*
X140525000Y-64750000D01*
X140525000Y-54750000D01*
X140522647Y-54714106D01*
X140505610Y-54584696D01*
X140487030Y-54515352D01*
X140437080Y-54394762D01*
X140401184Y-54332589D01*
X140321724Y-54229036D01*
X140270964Y-54178276D01*
X140229233Y-54146254D01*
X140229233Y-53770000D01*
X140212339Y-53598470D01*
X140162305Y-53433532D01*
X140081056Y-53281524D01*
X139971712Y-53148288D01*
X139838476Y-53038944D01*
X139686468Y-52957695D01*
X139521530Y-52907661D01*
X139350000Y-52890767D01*
X136650000Y-52890767D01*
X136478470Y-52907661D01*
X136313532Y-52957695D01*
X136161524Y-53038944D01*
X136028288Y-53148288D01*
X135918944Y-53281524D01*
X135837695Y-53433532D01*
X135787661Y-53598470D01*
X135773229Y-53745000D01*
X135447539Y-53745000D01*
X135380000Y-53738348D01*
X135312461Y-53745000D01*
X135312451Y-53745000D01*
X135110453Y-53764895D01*
X134903584Y-53827648D01*
X134851264Y-53843519D01*
X134612394Y-53971198D01*
X134607761Y-53975000D01*
X105451155Y-53975000D01*
X105416188Y-53977232D01*
X105290067Y-53993400D01*
X105222393Y-54011041D01*
X105104428Y-54058500D01*
X105043395Y-54092639D01*
X104941215Y-54168318D01*
X104914443Y-54190924D01*
X98963288Y-59904033D01*
X98938440Y-59931321D01*
X98855134Y-60036148D01*
X98817448Y-60099416D01*
X98764948Y-60222591D01*
X98745404Y-60293596D01*
X98727476Y-60426288D01*
X98725000Y-60463109D01*
X91900000Y-60463109D01*
X91900000Y-54756234D01*
X93525000Y-54756234D01*
X93525000Y-55243766D01*
X93620113Y-55721931D01*
X93806684Y-56172352D01*
X94077542Y-56577720D01*
X94422280Y-56922458D01*
X94827648Y-57193316D01*
X95278069Y-57379887D01*
X95756234Y-57475000D01*
X96243766Y-57475000D01*
X96721931Y-57379887D01*
X97172352Y-57193316D01*
X97577720Y-56922458D01*
X97922458Y-56577720D01*
X98193316Y-56172352D01*
X98379887Y-55721931D01*
X98475000Y-55243766D01*
X98475000Y-54756234D01*
X98379887Y-54278069D01*
X98193316Y-53827648D01*
X97922458Y-53422280D01*
X97577720Y-53077542D01*
X97172352Y-52806684D01*
X96721931Y-52620113D01*
X96243766Y-52525000D01*
X95756234Y-52525000D01*
X95278069Y-52620113D01*
X94827648Y-52806684D01*
X94422280Y-53077542D01*
X94077542Y-53422280D01*
X93806684Y-53827648D01*
X93620113Y-54278069D01*
X93525000Y-54756234D01*
X91900000Y-54756234D01*
X91900000Y-50900000D01*
X146100001Y-50900000D01*
X146100000Y-96100000D01*
M02*
