G04 #@! TF.GenerationSoftware,KiCad,Pcbnew,(5.1.4)-1*
G04 #@! TF.CreationDate,2020-03-16T01:27:38+09:00*
G04 #@! TF.ProjectId,QX20CTRLV3,51583230-4354-4524-9c56-332e6b696361,rev?*
G04 #@! TF.SameCoordinates,Original*
G04 #@! TF.FileFunction,Soldermask,Top*
G04 #@! TF.FilePolarity,Negative*
%FSLAX46Y46*%
G04 Gerber Fmt 4.6, Leading zero omitted, Abs format (unit mm)*
G04 Created by KiCad (PCBNEW (5.1.4)-1) date 2020-03-16 01:27:38*
%MOMM*%
%LPD*%
G04 APERTURE LIST*
%ADD10C,0.100000*%
G04 APERTURE END LIST*
D10*
G36*
X146350025Y-94846115D02*
G01*
X146350028Y-94846116D01*
X146350027Y-94846116D01*
X146568413Y-94936574D01*
X146764955Y-95067899D01*
X146932101Y-95235045D01*
X147063426Y-95431587D01*
X147063427Y-95431589D01*
X147153885Y-95649975D01*
X147200000Y-95881809D01*
X147200000Y-96118191D01*
X147153885Y-96350025D01*
X147153884Y-96350027D01*
X147063426Y-96568413D01*
X146932101Y-96764955D01*
X146764955Y-96932101D01*
X146568413Y-97063426D01*
X146568412Y-97063427D01*
X146568411Y-97063427D01*
X146350025Y-97153885D01*
X146118191Y-97200000D01*
X145881809Y-97200000D01*
X145649975Y-97153885D01*
X145431589Y-97063427D01*
X145431588Y-97063427D01*
X145431587Y-97063426D01*
X145235045Y-96932101D01*
X145067899Y-96764955D01*
X144936574Y-96568413D01*
X144846116Y-96350027D01*
X144846115Y-96350025D01*
X144800000Y-96118191D01*
X144800000Y-95881809D01*
X144846115Y-95649975D01*
X144936573Y-95431589D01*
X144936574Y-95431587D01*
X145067899Y-95235045D01*
X145235045Y-95067899D01*
X145431587Y-94936574D01*
X145649973Y-94846116D01*
X145649972Y-94846116D01*
X145649975Y-94846115D01*
X145881809Y-94800000D01*
X146118191Y-94800000D01*
X146350025Y-94846115D01*
X146350025Y-94846115D01*
G37*
G36*
X104350025Y-94846115D02*
G01*
X104350028Y-94846116D01*
X104350027Y-94846116D01*
X104568413Y-94936574D01*
X104764955Y-95067899D01*
X104932101Y-95235045D01*
X105063426Y-95431587D01*
X105063427Y-95431589D01*
X105153885Y-95649975D01*
X105200000Y-95881809D01*
X105200000Y-96118191D01*
X105153885Y-96350025D01*
X105153884Y-96350027D01*
X105063426Y-96568413D01*
X104932101Y-96764955D01*
X104764955Y-96932101D01*
X104568413Y-97063426D01*
X104568412Y-97063427D01*
X104568411Y-97063427D01*
X104350025Y-97153885D01*
X104118191Y-97200000D01*
X103881809Y-97200000D01*
X103649975Y-97153885D01*
X103431589Y-97063427D01*
X103431588Y-97063427D01*
X103431587Y-97063426D01*
X103235045Y-96932101D01*
X103067899Y-96764955D01*
X102936574Y-96568413D01*
X102846116Y-96350027D01*
X102846115Y-96350025D01*
X102800000Y-96118191D01*
X102800000Y-95881809D01*
X102846115Y-95649975D01*
X102936573Y-95431589D01*
X102936574Y-95431587D01*
X103067899Y-95235045D01*
X103235045Y-95067899D01*
X103431587Y-94936574D01*
X103649973Y-94846116D01*
X103649972Y-94846116D01*
X103649975Y-94846115D01*
X103881809Y-94800000D01*
X104118191Y-94800000D01*
X104350025Y-94846115D01*
X104350025Y-94846115D01*
G37*
G36*
X137600000Y-96052500D02*
G01*
X135400000Y-96052500D01*
X135400000Y-93947500D01*
X137600000Y-93947500D01*
X137600000Y-96052500D01*
X137600000Y-96052500D01*
G37*
G36*
X136676514Y-91415115D02*
G01*
X136753826Y-91422729D01*
X136952223Y-91482912D01*
X137135067Y-91580644D01*
X137295330Y-91712170D01*
X137426856Y-91872433D01*
X137524588Y-92055277D01*
X137584771Y-92253674D01*
X137605092Y-92460000D01*
X137584771Y-92666326D01*
X137524588Y-92864723D01*
X137426856Y-93047567D01*
X137295330Y-93207830D01*
X137135067Y-93339356D01*
X136952223Y-93437088D01*
X136753826Y-93497271D01*
X136676513Y-93504886D01*
X136599202Y-93512500D01*
X136400798Y-93512500D01*
X136323487Y-93504886D01*
X136246174Y-93497271D01*
X136047777Y-93437088D01*
X135864933Y-93339356D01*
X135704670Y-93207830D01*
X135573144Y-93047567D01*
X135475412Y-92864723D01*
X135415229Y-92666326D01*
X135394908Y-92460000D01*
X135415229Y-92253674D01*
X135475412Y-92055277D01*
X135573144Y-91872433D01*
X135704670Y-91712170D01*
X135864933Y-91580644D01*
X136047777Y-91482912D01*
X136246174Y-91422729D01*
X136323486Y-91415115D01*
X136400798Y-91407500D01*
X136599202Y-91407500D01*
X136676514Y-91415115D01*
X136676514Y-91415115D01*
G37*
G36*
X123686231Y-90438746D02*
G01*
X123865307Y-90493068D01*
X123941190Y-90533628D01*
X124030344Y-90581281D01*
X124175001Y-90699999D01*
X124293719Y-90844656D01*
X124321744Y-90897088D01*
X124381932Y-91009692D01*
X124436254Y-91188768D01*
X124450000Y-91328335D01*
X124450000Y-91671664D01*
X124436254Y-91811231D01*
X124381932Y-91990308D01*
X124381931Y-91990309D01*
X124293719Y-92155344D01*
X124175001Y-92300001D01*
X124030344Y-92418719D01*
X123953112Y-92460000D01*
X123865308Y-92506932D01*
X123686232Y-92561254D01*
X123500000Y-92579596D01*
X123313769Y-92561254D01*
X123288969Y-92553731D01*
X123134693Y-92506932D01*
X123046889Y-92460000D01*
X122969657Y-92418719D01*
X122859639Y-92328429D01*
X122824999Y-92300001D01*
X122706282Y-92155345D01*
X122618068Y-91990308D01*
X122563746Y-91811232D01*
X122550000Y-91671665D01*
X122550000Y-91328336D01*
X122563746Y-91188769D01*
X122618068Y-91009693D01*
X122706282Y-90844655D01*
X122824999Y-90699999D01*
X122920598Y-90621542D01*
X122969656Y-90581281D01*
X123052173Y-90537175D01*
X123134692Y-90493068D01*
X123313768Y-90438746D01*
X123500000Y-90420404D01*
X123686231Y-90438746D01*
X123686231Y-90438746D01*
G37*
G36*
X126186231Y-90438746D02*
G01*
X126365307Y-90493068D01*
X126441190Y-90533628D01*
X126530344Y-90581281D01*
X126675001Y-90699999D01*
X126793719Y-90844656D01*
X126821744Y-90897088D01*
X126881932Y-91009692D01*
X126936254Y-91188768D01*
X126950000Y-91328335D01*
X126950000Y-91671664D01*
X126936254Y-91811231D01*
X126881932Y-91990308D01*
X126881931Y-91990309D01*
X126793719Y-92155344D01*
X126675001Y-92300001D01*
X126530344Y-92418719D01*
X126453112Y-92460000D01*
X126365308Y-92506932D01*
X126186232Y-92561254D01*
X126000000Y-92579596D01*
X125813769Y-92561254D01*
X125788969Y-92553731D01*
X125634693Y-92506932D01*
X125546889Y-92460000D01*
X125469657Y-92418719D01*
X125359639Y-92328429D01*
X125324999Y-92300001D01*
X125206282Y-92155345D01*
X125118068Y-91990308D01*
X125063746Y-91811232D01*
X125050000Y-91671665D01*
X125050000Y-91328336D01*
X125063746Y-91188769D01*
X125118068Y-91009693D01*
X125206282Y-90844655D01*
X125324999Y-90699999D01*
X125420598Y-90621542D01*
X125469656Y-90581281D01*
X125552173Y-90537175D01*
X125634692Y-90493068D01*
X125813768Y-90438746D01*
X126000000Y-90420404D01*
X126186231Y-90438746D01*
X126186231Y-90438746D01*
G37*
G36*
X118686231Y-90438746D02*
G01*
X118865307Y-90493068D01*
X118941190Y-90533628D01*
X119030344Y-90581281D01*
X119175001Y-90699999D01*
X119293719Y-90844656D01*
X119321744Y-90897088D01*
X119381932Y-91009692D01*
X119436254Y-91188768D01*
X119450000Y-91328335D01*
X119450000Y-91671664D01*
X119436254Y-91811231D01*
X119381932Y-91990308D01*
X119381931Y-91990309D01*
X119293719Y-92155344D01*
X119175001Y-92300001D01*
X119030344Y-92418719D01*
X118953112Y-92460000D01*
X118865308Y-92506932D01*
X118711032Y-92553731D01*
X118686232Y-92561254D01*
X118500000Y-92579596D01*
X118313769Y-92561254D01*
X118134693Y-92506932D01*
X118046889Y-92460000D01*
X117969657Y-92418719D01*
X117859639Y-92328429D01*
X117824999Y-92300001D01*
X117706282Y-92155345D01*
X117618068Y-91990308D01*
X117563746Y-91811232D01*
X117550000Y-91671665D01*
X117550000Y-91328336D01*
X117563746Y-91188769D01*
X117618068Y-91009693D01*
X117706282Y-90844655D01*
X117824999Y-90699999D01*
X117920598Y-90621542D01*
X117969656Y-90581281D01*
X118052173Y-90537175D01*
X118134692Y-90493068D01*
X118313768Y-90438746D01*
X118500000Y-90420404D01*
X118686231Y-90438746D01*
X118686231Y-90438746D01*
G37*
G36*
X121186231Y-90438746D02*
G01*
X121365307Y-90493068D01*
X121441190Y-90533628D01*
X121530344Y-90581281D01*
X121675001Y-90699999D01*
X121793719Y-90844656D01*
X121821744Y-90897088D01*
X121881932Y-91009692D01*
X121936254Y-91188768D01*
X121950000Y-91328335D01*
X121950000Y-91671664D01*
X121936254Y-91811231D01*
X121881932Y-91990308D01*
X121881931Y-91990309D01*
X121793719Y-92155344D01*
X121675001Y-92300001D01*
X121530344Y-92418719D01*
X121453112Y-92460000D01*
X121365308Y-92506932D01*
X121186232Y-92561254D01*
X121000000Y-92579596D01*
X120813769Y-92561254D01*
X120788969Y-92553731D01*
X120634693Y-92506932D01*
X120546889Y-92460000D01*
X120469657Y-92418719D01*
X120359639Y-92328429D01*
X120324999Y-92300001D01*
X120206282Y-92155345D01*
X120118068Y-91990308D01*
X120063746Y-91811232D01*
X120050000Y-91671665D01*
X120050000Y-91328336D01*
X120063746Y-91188769D01*
X120118068Y-91009693D01*
X120206282Y-90844655D01*
X120324999Y-90699999D01*
X120420598Y-90621542D01*
X120469656Y-90581281D01*
X120552173Y-90537175D01*
X120634692Y-90493068D01*
X120813768Y-90438746D01*
X121000000Y-90420404D01*
X121186231Y-90438746D01*
X121186231Y-90438746D01*
G37*
G36*
X116753458Y-90429927D02*
G01*
X116799209Y-90443805D01*
X116841372Y-90466343D01*
X116878328Y-90496672D01*
X116908657Y-90533628D01*
X116931195Y-90575791D01*
X116945073Y-90621542D01*
X116950000Y-90671571D01*
X116950000Y-92328429D01*
X116945073Y-92378458D01*
X116931195Y-92424209D01*
X116908657Y-92466372D01*
X116878328Y-92503328D01*
X116841372Y-92533657D01*
X116799209Y-92556195D01*
X116753458Y-92570073D01*
X116703429Y-92575000D01*
X115296571Y-92575000D01*
X115246542Y-92570073D01*
X115200791Y-92556195D01*
X115158628Y-92533657D01*
X115121672Y-92503328D01*
X115091343Y-92466372D01*
X115068805Y-92424209D01*
X115054927Y-92378458D01*
X115050000Y-92328429D01*
X115050000Y-90671571D01*
X115054927Y-90621542D01*
X115068805Y-90575791D01*
X115091343Y-90533628D01*
X115121672Y-90496672D01*
X115158628Y-90466343D01*
X115200791Y-90443805D01*
X115246542Y-90429927D01*
X115296571Y-90425000D01*
X116703429Y-90425000D01*
X116753458Y-90429927D01*
X116753458Y-90429927D01*
G37*
G36*
X142422948Y-88605722D02*
G01*
X142686831Y-88715026D01*
X142686833Y-88715027D01*
X142924321Y-88873711D01*
X143126289Y-89075679D01*
X143190762Y-89172170D01*
X143284974Y-89313169D01*
X143394278Y-89577052D01*
X143450000Y-89857186D01*
X143450000Y-90142814D01*
X143394278Y-90422948D01*
X143300271Y-90649901D01*
X143284973Y-90686833D01*
X143126289Y-90924321D01*
X142924321Y-91126289D01*
X142686833Y-91284973D01*
X142686832Y-91284974D01*
X142686831Y-91284974D01*
X142422948Y-91394278D01*
X142142814Y-91450000D01*
X141857186Y-91450000D01*
X141577052Y-91394278D01*
X141313169Y-91284974D01*
X141313168Y-91284974D01*
X141313167Y-91284973D01*
X141075679Y-91126289D01*
X140873711Y-90924321D01*
X140715027Y-90686833D01*
X140699729Y-90649901D01*
X140605722Y-90422948D01*
X140550000Y-90142814D01*
X140550000Y-89857186D01*
X140605722Y-89577052D01*
X140715026Y-89313169D01*
X140809238Y-89172170D01*
X140873711Y-89075679D01*
X141075679Y-88873711D01*
X141313167Y-88715027D01*
X141313169Y-88715026D01*
X141577052Y-88605722D01*
X141857186Y-88550000D01*
X142142814Y-88550000D01*
X142422948Y-88605722D01*
X142422948Y-88605722D01*
G37*
G36*
X136662263Y-88873711D02*
G01*
X136753826Y-88882729D01*
X136952223Y-88942912D01*
X137135067Y-89040644D01*
X137295330Y-89172170D01*
X137426856Y-89332433D01*
X137524588Y-89515277D01*
X137584771Y-89713674D01*
X137605092Y-89920000D01*
X137584771Y-90126326D01*
X137524588Y-90324723D01*
X137426856Y-90507567D01*
X137295330Y-90667830D01*
X137135067Y-90799356D01*
X136952223Y-90897088D01*
X136753826Y-90957271D01*
X136676514Y-90964885D01*
X136599202Y-90972500D01*
X136400798Y-90972500D01*
X136323486Y-90964885D01*
X136246174Y-90957271D01*
X136047777Y-90897088D01*
X135864933Y-90799356D01*
X135704670Y-90667830D01*
X135573144Y-90507567D01*
X135475412Y-90324723D01*
X135415229Y-90126326D01*
X135394908Y-89920000D01*
X135415229Y-89713674D01*
X135475412Y-89515277D01*
X135573144Y-89332433D01*
X135704670Y-89172170D01*
X135864933Y-89040644D01*
X136047777Y-88942912D01*
X136246174Y-88882729D01*
X136337737Y-88873711D01*
X136400798Y-88867500D01*
X136599202Y-88867500D01*
X136662263Y-88873711D01*
X136662263Y-88873711D01*
G37*
G36*
X142422948Y-84645722D02*
G01*
X142686831Y-84755026D01*
X142686833Y-84755027D01*
X142924321Y-84913711D01*
X143126289Y-85115679D01*
X143249389Y-85299912D01*
X143284974Y-85353169D01*
X143394278Y-85617052D01*
X143450000Y-85897186D01*
X143450000Y-86182814D01*
X143394278Y-86462948D01*
X143333737Y-86609107D01*
X143284973Y-86726833D01*
X143126289Y-86964321D01*
X142924321Y-87166289D01*
X142686833Y-87324973D01*
X142686832Y-87324974D01*
X142686831Y-87324974D01*
X142422948Y-87434278D01*
X142142814Y-87490000D01*
X141857186Y-87490000D01*
X141577052Y-87434278D01*
X141313169Y-87324974D01*
X141313168Y-87324974D01*
X141313167Y-87324973D01*
X141075679Y-87166289D01*
X140873711Y-86964321D01*
X140715027Y-86726833D01*
X140666263Y-86609107D01*
X140605722Y-86462948D01*
X140550000Y-86182814D01*
X140550000Y-85897186D01*
X140605722Y-85617052D01*
X140715026Y-85353169D01*
X140750611Y-85299912D01*
X140873711Y-85115679D01*
X141075679Y-84913711D01*
X141313167Y-84755027D01*
X141313169Y-84755026D01*
X141577052Y-84645722D01*
X141857186Y-84590000D01*
X142142814Y-84590000D01*
X142422948Y-84645722D01*
X142422948Y-84645722D01*
G37*
G36*
X108422948Y-84525722D02*
G01*
X108686831Y-84635026D01*
X108686833Y-84635027D01*
X108924321Y-84793711D01*
X109126289Y-84995679D01*
X109284973Y-85233167D01*
X109284974Y-85233169D01*
X109394278Y-85497052D01*
X109450000Y-85777186D01*
X109450000Y-86062814D01*
X109394278Y-86342948D01*
X109284974Y-86606831D01*
X109284973Y-86606833D01*
X109126289Y-86844321D01*
X108924321Y-87046289D01*
X108686833Y-87204973D01*
X108686832Y-87204974D01*
X108686831Y-87204974D01*
X108422948Y-87314278D01*
X108142814Y-87370000D01*
X107857186Y-87370000D01*
X107577052Y-87314278D01*
X107313169Y-87204974D01*
X107313168Y-87204974D01*
X107313167Y-87204973D01*
X107075679Y-87046289D01*
X106873711Y-86844321D01*
X106715027Y-86606833D01*
X106715026Y-86606831D01*
X106605722Y-86342948D01*
X106550000Y-86062814D01*
X106550000Y-85777186D01*
X106605722Y-85497052D01*
X106715026Y-85233169D01*
X106715027Y-85233167D01*
X106873711Y-84995679D01*
X107075679Y-84793711D01*
X107313167Y-84635027D01*
X107313169Y-84635026D01*
X107577052Y-84525722D01*
X107857186Y-84470000D01*
X108142814Y-84470000D01*
X108422948Y-84525722D01*
X108422948Y-84525722D01*
G37*
G36*
X131271607Y-85192591D02*
G01*
X131318951Y-85206953D01*
X131362588Y-85230278D01*
X131400834Y-85261666D01*
X131432222Y-85299912D01*
X131455547Y-85343549D01*
X131469909Y-85390893D01*
X131475000Y-85442586D01*
X131475000Y-86557414D01*
X131469909Y-86609107D01*
X131455547Y-86656451D01*
X131432222Y-86700088D01*
X131400834Y-86738334D01*
X131362588Y-86769722D01*
X131318951Y-86793047D01*
X131271607Y-86807409D01*
X131219914Y-86812500D01*
X129780086Y-86812500D01*
X129728393Y-86807409D01*
X129681049Y-86793047D01*
X129637412Y-86769722D01*
X129599166Y-86738334D01*
X129567778Y-86700088D01*
X129544453Y-86656451D01*
X129530091Y-86609107D01*
X129525000Y-86557414D01*
X129525000Y-85442586D01*
X129530091Y-85390893D01*
X129544453Y-85343549D01*
X129567778Y-85299912D01*
X129599166Y-85261666D01*
X129637412Y-85230278D01*
X129681049Y-85206953D01*
X129728393Y-85192591D01*
X129780086Y-85187500D01*
X131219914Y-85187500D01*
X131271607Y-85192591D01*
X131271607Y-85192591D01*
G37*
G36*
X114121607Y-82030091D02*
G01*
X114168951Y-82044453D01*
X114212588Y-82067778D01*
X114250834Y-82099166D01*
X114282222Y-82137412D01*
X114305547Y-82181049D01*
X114319909Y-82228393D01*
X114325000Y-82280086D01*
X114325000Y-83719914D01*
X114319909Y-83771607D01*
X114305547Y-83818951D01*
X114282222Y-83862588D01*
X114250834Y-83900834D01*
X114212588Y-83932222D01*
X114168951Y-83955547D01*
X114121607Y-83969909D01*
X114069914Y-83975000D01*
X112955086Y-83975000D01*
X112903393Y-83969909D01*
X112856049Y-83955547D01*
X112812412Y-83932222D01*
X112774166Y-83900834D01*
X112742778Y-83862588D01*
X112719453Y-83818951D01*
X112705091Y-83771607D01*
X112700000Y-83719914D01*
X112700000Y-82280086D01*
X112705091Y-82228393D01*
X112719453Y-82181049D01*
X112742778Y-82137412D01*
X112774166Y-82099166D01*
X112812412Y-82067778D01*
X112856049Y-82044453D01*
X112903393Y-82030091D01*
X112955086Y-82025000D01*
X114069914Y-82025000D01*
X114121607Y-82030091D01*
X114121607Y-82030091D01*
G37*
G36*
X117096607Y-82030091D02*
G01*
X117143951Y-82044453D01*
X117187588Y-82067778D01*
X117225834Y-82099166D01*
X117257222Y-82137412D01*
X117280547Y-82181049D01*
X117294909Y-82228393D01*
X117300000Y-82280086D01*
X117300000Y-83719914D01*
X117294909Y-83771607D01*
X117280547Y-83818951D01*
X117257222Y-83862588D01*
X117225834Y-83900834D01*
X117187588Y-83932222D01*
X117143951Y-83955547D01*
X117096607Y-83969909D01*
X117044914Y-83975000D01*
X115930086Y-83975000D01*
X115878393Y-83969909D01*
X115831049Y-83955547D01*
X115787412Y-83932222D01*
X115749166Y-83900834D01*
X115717778Y-83862588D01*
X115694453Y-83818951D01*
X115680091Y-83771607D01*
X115675000Y-83719914D01*
X115675000Y-82280086D01*
X115680091Y-82228393D01*
X115694453Y-82181049D01*
X115717778Y-82137412D01*
X115749166Y-82099166D01*
X115787412Y-82067778D01*
X115831049Y-82044453D01*
X115878393Y-82030091D01*
X115930086Y-82025000D01*
X117044914Y-82025000D01*
X117096607Y-82030091D01*
X117096607Y-82030091D01*
G37*
G36*
X131271607Y-82217591D02*
G01*
X131318951Y-82231953D01*
X131362588Y-82255278D01*
X131400834Y-82286666D01*
X131432222Y-82324912D01*
X131455547Y-82368549D01*
X131469909Y-82415893D01*
X131475000Y-82467586D01*
X131475000Y-83582414D01*
X131469909Y-83634107D01*
X131455547Y-83681451D01*
X131432222Y-83725088D01*
X131400834Y-83763334D01*
X131362588Y-83794722D01*
X131318951Y-83818047D01*
X131271607Y-83832409D01*
X131219914Y-83837500D01*
X129780086Y-83837500D01*
X129728393Y-83832409D01*
X129681049Y-83818047D01*
X129637412Y-83794722D01*
X129599166Y-83763334D01*
X129567778Y-83725088D01*
X129544453Y-83681451D01*
X129530091Y-83634107D01*
X129525000Y-83582414D01*
X129525000Y-82467586D01*
X129530091Y-82415893D01*
X129544453Y-82368549D01*
X129567778Y-82324912D01*
X129599166Y-82286666D01*
X129637412Y-82255278D01*
X129681049Y-82231953D01*
X129728393Y-82217591D01*
X129780086Y-82212500D01*
X131219914Y-82212500D01*
X131271607Y-82217591D01*
X131271607Y-82217591D01*
G37*
G36*
X142422948Y-80685722D02*
G01*
X142644408Y-80777454D01*
X142686833Y-80795027D01*
X142924321Y-80953711D01*
X143126289Y-81155679D01*
X143204793Y-81273169D01*
X143284974Y-81393169D01*
X143394278Y-81657052D01*
X143450000Y-81937186D01*
X143450000Y-82222814D01*
X143394278Y-82502948D01*
X143284974Y-82766831D01*
X143284973Y-82766833D01*
X143126289Y-83004321D01*
X142924321Y-83206289D01*
X142686833Y-83364973D01*
X142686832Y-83364974D01*
X142686831Y-83364974D01*
X142422948Y-83474278D01*
X142142814Y-83530000D01*
X141857186Y-83530000D01*
X141577052Y-83474278D01*
X141313169Y-83364974D01*
X141313168Y-83364974D01*
X141313167Y-83364973D01*
X141075679Y-83206289D01*
X140873711Y-83004321D01*
X140715027Y-82766833D01*
X140715026Y-82766831D01*
X140605722Y-82502948D01*
X140550000Y-82222814D01*
X140550000Y-81937186D01*
X140605722Y-81657052D01*
X140715026Y-81393169D01*
X140795207Y-81273169D01*
X140873711Y-81155679D01*
X141075679Y-80953711D01*
X141313167Y-80795027D01*
X141355592Y-80777454D01*
X141577052Y-80685722D01*
X141857186Y-80630000D01*
X142142814Y-80630000D01*
X142422948Y-80685722D01*
X142422948Y-80685722D01*
G37*
G36*
X108422948Y-80565722D02*
G01*
X108672534Y-80669104D01*
X108686833Y-80675027D01*
X108924321Y-80833711D01*
X109126289Y-81035679D01*
X109284973Y-81273167D01*
X109284974Y-81273169D01*
X109394278Y-81537052D01*
X109450000Y-81817186D01*
X109450000Y-82102814D01*
X109394278Y-82382948D01*
X109344572Y-82502948D01*
X109284973Y-82646833D01*
X109126289Y-82884321D01*
X108924321Y-83086289D01*
X108686833Y-83244973D01*
X108686832Y-83244974D01*
X108686831Y-83244974D01*
X108422948Y-83354278D01*
X108142814Y-83410000D01*
X107857186Y-83410000D01*
X107577052Y-83354278D01*
X107313169Y-83244974D01*
X107313168Y-83244974D01*
X107313167Y-83244973D01*
X107075679Y-83086289D01*
X106873711Y-82884321D01*
X106715027Y-82646833D01*
X106655428Y-82502948D01*
X106605722Y-82382948D01*
X106550000Y-82102814D01*
X106550000Y-81817186D01*
X106605722Y-81537052D01*
X106715026Y-81273169D01*
X106715027Y-81273167D01*
X106873711Y-81035679D01*
X107075679Y-80833711D01*
X107313167Y-80675027D01*
X107327466Y-80669104D01*
X107577052Y-80565722D01*
X107857186Y-80510000D01*
X108142814Y-80510000D01*
X108422948Y-80565722D01*
X108422948Y-80565722D01*
G37*
G36*
X126404216Y-80628119D02*
G01*
X126432309Y-80636641D01*
X126458204Y-80650483D01*
X126480896Y-80669104D01*
X126499517Y-80691796D01*
X126513359Y-80717691D01*
X126521881Y-80745784D01*
X126525000Y-80777454D01*
X126525000Y-82172546D01*
X126521881Y-82204216D01*
X126513359Y-82232309D01*
X126499517Y-82258204D01*
X126480896Y-82280896D01*
X126458204Y-82299517D01*
X126432309Y-82313359D01*
X126404216Y-82321881D01*
X126372546Y-82325000D01*
X125977454Y-82325000D01*
X125945784Y-82321881D01*
X125917691Y-82313359D01*
X125891796Y-82299517D01*
X125869104Y-82280896D01*
X125850483Y-82258204D01*
X125836641Y-82232309D01*
X125828119Y-82204216D01*
X125825000Y-82172546D01*
X125825000Y-80777454D01*
X125828119Y-80745784D01*
X125836641Y-80717691D01*
X125850483Y-80691796D01*
X125869104Y-80669104D01*
X125891796Y-80650483D01*
X125917691Y-80636641D01*
X125945784Y-80628119D01*
X125977454Y-80625000D01*
X126372546Y-80625000D01*
X126404216Y-80628119D01*
X126404216Y-80628119D01*
G37*
G36*
X125604216Y-80628119D02*
G01*
X125632309Y-80636641D01*
X125658204Y-80650483D01*
X125680896Y-80669104D01*
X125699517Y-80691796D01*
X125713359Y-80717691D01*
X125721881Y-80745784D01*
X125725000Y-80777454D01*
X125725000Y-82172546D01*
X125721881Y-82204216D01*
X125713359Y-82232309D01*
X125699517Y-82258204D01*
X125680896Y-82280896D01*
X125658204Y-82299517D01*
X125632309Y-82313359D01*
X125604216Y-82321881D01*
X125572546Y-82325000D01*
X125177454Y-82325000D01*
X125145784Y-82321881D01*
X125117691Y-82313359D01*
X125091796Y-82299517D01*
X125069104Y-82280896D01*
X125050483Y-82258204D01*
X125036641Y-82232309D01*
X125028119Y-82204216D01*
X125025000Y-82172546D01*
X125025000Y-80777454D01*
X125028119Y-80745784D01*
X125036641Y-80717691D01*
X125050483Y-80691796D01*
X125069104Y-80669104D01*
X125091796Y-80650483D01*
X125117691Y-80636641D01*
X125145784Y-80628119D01*
X125177454Y-80625000D01*
X125572546Y-80625000D01*
X125604216Y-80628119D01*
X125604216Y-80628119D01*
G37*
G36*
X124804216Y-80628119D02*
G01*
X124832309Y-80636641D01*
X124858204Y-80650483D01*
X124880896Y-80669104D01*
X124899517Y-80691796D01*
X124913359Y-80717691D01*
X124921881Y-80745784D01*
X124925000Y-80777454D01*
X124925000Y-82172546D01*
X124921881Y-82204216D01*
X124913359Y-82232309D01*
X124899517Y-82258204D01*
X124880896Y-82280896D01*
X124858204Y-82299517D01*
X124832309Y-82313359D01*
X124804216Y-82321881D01*
X124772546Y-82325000D01*
X124377454Y-82325000D01*
X124345784Y-82321881D01*
X124317691Y-82313359D01*
X124291796Y-82299517D01*
X124269104Y-82280896D01*
X124250483Y-82258204D01*
X124236641Y-82232309D01*
X124228119Y-82204216D01*
X124225000Y-82172546D01*
X124225000Y-80777454D01*
X124228119Y-80745784D01*
X124236641Y-80717691D01*
X124250483Y-80691796D01*
X124269104Y-80669104D01*
X124291796Y-80650483D01*
X124317691Y-80636641D01*
X124345784Y-80628119D01*
X124377454Y-80625000D01*
X124772546Y-80625000D01*
X124804216Y-80628119D01*
X124804216Y-80628119D01*
G37*
G36*
X123204216Y-80628119D02*
G01*
X123232309Y-80636641D01*
X123258204Y-80650483D01*
X123280896Y-80669104D01*
X123299517Y-80691796D01*
X123313359Y-80717691D01*
X123321881Y-80745784D01*
X123325000Y-80777454D01*
X123325000Y-82172546D01*
X123321881Y-82204216D01*
X123313359Y-82232309D01*
X123299517Y-82258204D01*
X123280896Y-82280896D01*
X123258204Y-82299517D01*
X123232309Y-82313359D01*
X123204216Y-82321881D01*
X123172546Y-82325000D01*
X122777454Y-82325000D01*
X122745784Y-82321881D01*
X122717691Y-82313359D01*
X122691796Y-82299517D01*
X122669104Y-82280896D01*
X122650483Y-82258204D01*
X122636641Y-82232309D01*
X122628119Y-82204216D01*
X122625000Y-82172546D01*
X122625000Y-80777454D01*
X122628119Y-80745784D01*
X122636641Y-80717691D01*
X122650483Y-80691796D01*
X122669104Y-80669104D01*
X122691796Y-80650483D01*
X122717691Y-80636641D01*
X122745784Y-80628119D01*
X122777454Y-80625000D01*
X123172546Y-80625000D01*
X123204216Y-80628119D01*
X123204216Y-80628119D01*
G37*
G36*
X122404216Y-80628119D02*
G01*
X122432309Y-80636641D01*
X122458204Y-80650483D01*
X122480896Y-80669104D01*
X122499517Y-80691796D01*
X122513359Y-80717691D01*
X122521881Y-80745784D01*
X122525000Y-80777454D01*
X122525000Y-82172546D01*
X122521881Y-82204216D01*
X122513359Y-82232309D01*
X122499517Y-82258204D01*
X122480896Y-82280896D01*
X122458204Y-82299517D01*
X122432309Y-82313359D01*
X122404216Y-82321881D01*
X122372546Y-82325000D01*
X121977454Y-82325000D01*
X121945784Y-82321881D01*
X121917691Y-82313359D01*
X121891796Y-82299517D01*
X121869104Y-82280896D01*
X121850483Y-82258204D01*
X121836641Y-82232309D01*
X121828119Y-82204216D01*
X121825000Y-82172546D01*
X121825000Y-80777454D01*
X121828119Y-80745784D01*
X121836641Y-80717691D01*
X121850483Y-80691796D01*
X121869104Y-80669104D01*
X121891796Y-80650483D01*
X121917691Y-80636641D01*
X121945784Y-80628119D01*
X121977454Y-80625000D01*
X122372546Y-80625000D01*
X122404216Y-80628119D01*
X122404216Y-80628119D01*
G37*
G36*
X121604216Y-80628119D02*
G01*
X121632309Y-80636641D01*
X121658204Y-80650483D01*
X121680896Y-80669104D01*
X121699517Y-80691796D01*
X121713359Y-80717691D01*
X121721881Y-80745784D01*
X121725000Y-80777454D01*
X121725000Y-82172546D01*
X121721881Y-82204216D01*
X121713359Y-82232309D01*
X121699517Y-82258204D01*
X121680896Y-82280896D01*
X121658204Y-82299517D01*
X121632309Y-82313359D01*
X121604216Y-82321881D01*
X121572546Y-82325000D01*
X121177454Y-82325000D01*
X121145784Y-82321881D01*
X121117691Y-82313359D01*
X121091796Y-82299517D01*
X121069104Y-82280896D01*
X121050483Y-82258204D01*
X121036641Y-82232309D01*
X121028119Y-82204216D01*
X121025000Y-82172546D01*
X121025000Y-80777454D01*
X121028119Y-80745784D01*
X121036641Y-80717691D01*
X121050483Y-80691796D01*
X121069104Y-80669104D01*
X121091796Y-80650483D01*
X121117691Y-80636641D01*
X121145784Y-80628119D01*
X121177454Y-80625000D01*
X121572546Y-80625000D01*
X121604216Y-80628119D01*
X121604216Y-80628119D01*
G37*
G36*
X127204216Y-80628119D02*
G01*
X127232309Y-80636641D01*
X127258204Y-80650483D01*
X127280896Y-80669104D01*
X127299517Y-80691796D01*
X127313359Y-80717691D01*
X127321881Y-80745784D01*
X127325000Y-80777454D01*
X127325000Y-82172546D01*
X127321881Y-82204216D01*
X127313359Y-82232309D01*
X127299517Y-82258204D01*
X127280896Y-82280896D01*
X127258204Y-82299517D01*
X127232309Y-82313359D01*
X127204216Y-82321881D01*
X127172546Y-82325000D01*
X126777454Y-82325000D01*
X126745784Y-82321881D01*
X126717691Y-82313359D01*
X126691796Y-82299517D01*
X126669104Y-82280896D01*
X126650483Y-82258204D01*
X126636641Y-82232309D01*
X126628119Y-82204216D01*
X126625000Y-82172546D01*
X126625000Y-80777454D01*
X126628119Y-80745784D01*
X126636641Y-80717691D01*
X126650483Y-80691796D01*
X126669104Y-80669104D01*
X126691796Y-80650483D01*
X126717691Y-80636641D01*
X126745784Y-80628119D01*
X126777454Y-80625000D01*
X127172546Y-80625000D01*
X127204216Y-80628119D01*
X127204216Y-80628119D01*
G37*
G36*
X124004216Y-80628119D02*
G01*
X124032309Y-80636641D01*
X124058204Y-80650483D01*
X124080896Y-80669104D01*
X124099517Y-80691796D01*
X124113359Y-80717691D01*
X124121881Y-80745784D01*
X124125000Y-80777454D01*
X124125000Y-82172546D01*
X124121881Y-82204216D01*
X124113359Y-82232309D01*
X124099517Y-82258204D01*
X124080896Y-82280896D01*
X124058204Y-82299517D01*
X124032309Y-82313359D01*
X124004216Y-82321881D01*
X123972546Y-82325000D01*
X123577454Y-82325000D01*
X123545784Y-82321881D01*
X123517691Y-82313359D01*
X123491796Y-82299517D01*
X123469104Y-82280896D01*
X123450483Y-82258204D01*
X123436641Y-82232309D01*
X123428119Y-82204216D01*
X123425000Y-82172546D01*
X123425000Y-80777454D01*
X123428119Y-80745784D01*
X123436641Y-80717691D01*
X123450483Y-80691796D01*
X123469104Y-80669104D01*
X123491796Y-80650483D01*
X123517691Y-80636641D01*
X123545784Y-80628119D01*
X123577454Y-80625000D01*
X123972546Y-80625000D01*
X124004216Y-80628119D01*
X124004216Y-80628119D01*
G37*
G36*
X138550000Y-81450000D02*
G01*
X137450000Y-81450000D01*
X137450000Y-80450000D01*
X138550000Y-80450000D01*
X138550000Y-81450000D01*
X138550000Y-81450000D01*
G37*
G36*
X114121607Y-79030091D02*
G01*
X114168951Y-79044453D01*
X114212588Y-79067778D01*
X114250834Y-79099166D01*
X114282222Y-79137412D01*
X114305547Y-79181049D01*
X114319909Y-79228393D01*
X114325000Y-79280086D01*
X114325000Y-80719914D01*
X114319909Y-80771607D01*
X114305547Y-80818951D01*
X114282222Y-80862588D01*
X114250834Y-80900834D01*
X114212588Y-80932222D01*
X114168951Y-80955547D01*
X114121607Y-80969909D01*
X114069914Y-80975000D01*
X112955086Y-80975000D01*
X112903393Y-80969909D01*
X112856049Y-80955547D01*
X112812412Y-80932222D01*
X112774166Y-80900834D01*
X112742778Y-80862588D01*
X112719453Y-80818951D01*
X112705091Y-80771607D01*
X112700000Y-80719914D01*
X112700000Y-79280086D01*
X112705091Y-79228393D01*
X112719453Y-79181049D01*
X112742778Y-79137412D01*
X112774166Y-79099166D01*
X112812412Y-79067778D01*
X112856049Y-79044453D01*
X112903393Y-79030091D01*
X112955086Y-79025000D01*
X114069914Y-79025000D01*
X114121607Y-79030091D01*
X114121607Y-79030091D01*
G37*
G36*
X117096607Y-79030091D02*
G01*
X117143951Y-79044453D01*
X117187588Y-79067778D01*
X117225834Y-79099166D01*
X117257222Y-79137412D01*
X117280547Y-79181049D01*
X117294909Y-79228393D01*
X117300000Y-79280086D01*
X117300000Y-80719914D01*
X117294909Y-80771607D01*
X117280547Y-80818951D01*
X117257222Y-80862588D01*
X117225834Y-80900834D01*
X117187588Y-80932222D01*
X117143951Y-80955547D01*
X117096607Y-80969909D01*
X117044914Y-80975000D01*
X115930086Y-80975000D01*
X115878393Y-80969909D01*
X115831049Y-80955547D01*
X115787412Y-80932222D01*
X115749166Y-80900834D01*
X115717778Y-80862588D01*
X115694453Y-80818951D01*
X115680091Y-80771607D01*
X115675000Y-80719914D01*
X115675000Y-79280086D01*
X115680091Y-79228393D01*
X115694453Y-79181049D01*
X115717778Y-79137412D01*
X115749166Y-79099166D01*
X115787412Y-79067778D01*
X115831049Y-79044453D01*
X115878393Y-79030091D01*
X115930086Y-79025000D01*
X117044914Y-79025000D01*
X117096607Y-79030091D01*
X117096607Y-79030091D01*
G37*
G36*
X136550000Y-80500000D02*
G01*
X135450000Y-80500000D01*
X135450000Y-79500000D01*
X136550000Y-79500000D01*
X136550000Y-80500000D01*
X136550000Y-80500000D01*
G37*
G36*
X129079216Y-79753119D02*
G01*
X129107309Y-79761641D01*
X129133204Y-79775483D01*
X129155896Y-79794104D01*
X129174517Y-79816796D01*
X129188359Y-79842691D01*
X129196881Y-79870784D01*
X129200000Y-79902454D01*
X129200000Y-80297546D01*
X129196881Y-80329216D01*
X129188359Y-80357309D01*
X129174517Y-80383204D01*
X129155896Y-80405896D01*
X129133204Y-80424517D01*
X129107309Y-80438359D01*
X129079216Y-80446881D01*
X129047546Y-80450000D01*
X127652454Y-80450000D01*
X127620784Y-80446881D01*
X127592691Y-80438359D01*
X127566796Y-80424517D01*
X127544104Y-80405896D01*
X127525483Y-80383204D01*
X127511641Y-80357309D01*
X127503119Y-80329216D01*
X127500000Y-80297546D01*
X127500000Y-79902454D01*
X127503119Y-79870784D01*
X127511641Y-79842691D01*
X127525483Y-79816796D01*
X127544104Y-79794104D01*
X127566796Y-79775483D01*
X127592691Y-79761641D01*
X127620784Y-79753119D01*
X127652454Y-79750000D01*
X129047546Y-79750000D01*
X129079216Y-79753119D01*
X129079216Y-79753119D01*
G37*
G36*
X120729216Y-79753119D02*
G01*
X120757309Y-79761641D01*
X120783204Y-79775483D01*
X120805896Y-79794104D01*
X120824517Y-79816796D01*
X120838359Y-79842691D01*
X120846881Y-79870784D01*
X120850000Y-79902454D01*
X120850000Y-80297546D01*
X120846881Y-80329216D01*
X120838359Y-80357309D01*
X120824517Y-80383204D01*
X120805896Y-80405896D01*
X120783204Y-80424517D01*
X120757309Y-80438359D01*
X120729216Y-80446881D01*
X120697546Y-80450000D01*
X119302454Y-80450000D01*
X119270784Y-80446881D01*
X119242691Y-80438359D01*
X119216796Y-80424517D01*
X119194104Y-80405896D01*
X119175483Y-80383204D01*
X119161641Y-80357309D01*
X119153119Y-80329216D01*
X119150000Y-80297546D01*
X119150000Y-79902454D01*
X119153119Y-79870784D01*
X119161641Y-79842691D01*
X119175483Y-79816796D01*
X119194104Y-79794104D01*
X119216796Y-79775483D01*
X119242691Y-79761641D01*
X119270784Y-79753119D01*
X119302454Y-79750000D01*
X120697546Y-79750000D01*
X120729216Y-79753119D01*
X120729216Y-79753119D01*
G37*
G36*
X120729216Y-78953119D02*
G01*
X120757309Y-78961641D01*
X120783204Y-78975483D01*
X120805896Y-78994104D01*
X120824517Y-79016796D01*
X120838359Y-79042691D01*
X120846881Y-79070784D01*
X120850000Y-79102454D01*
X120850000Y-79497546D01*
X120846881Y-79529216D01*
X120838359Y-79557309D01*
X120824517Y-79583204D01*
X120805896Y-79605896D01*
X120783204Y-79624517D01*
X120757309Y-79638359D01*
X120729216Y-79646881D01*
X120697546Y-79650000D01*
X119302454Y-79650000D01*
X119270784Y-79646881D01*
X119242691Y-79638359D01*
X119216796Y-79624517D01*
X119194104Y-79605896D01*
X119175483Y-79583204D01*
X119161641Y-79557309D01*
X119153119Y-79529216D01*
X119150000Y-79497546D01*
X119150000Y-79102454D01*
X119153119Y-79070784D01*
X119161641Y-79042691D01*
X119175483Y-79016796D01*
X119194104Y-78994104D01*
X119216796Y-78975483D01*
X119242691Y-78961641D01*
X119270784Y-78953119D01*
X119302454Y-78950000D01*
X120697546Y-78950000D01*
X120729216Y-78953119D01*
X120729216Y-78953119D01*
G37*
G36*
X129079216Y-78953119D02*
G01*
X129107309Y-78961641D01*
X129133204Y-78975483D01*
X129155896Y-78994104D01*
X129174517Y-79016796D01*
X129188359Y-79042691D01*
X129196881Y-79070784D01*
X129200000Y-79102454D01*
X129200000Y-79497546D01*
X129196881Y-79529216D01*
X129188359Y-79557309D01*
X129174517Y-79583204D01*
X129155896Y-79605896D01*
X129133204Y-79624517D01*
X129107309Y-79638359D01*
X129079216Y-79646881D01*
X129047546Y-79650000D01*
X127652454Y-79650000D01*
X127620784Y-79646881D01*
X127592691Y-79638359D01*
X127566796Y-79624517D01*
X127544104Y-79605896D01*
X127525483Y-79583204D01*
X127511641Y-79557309D01*
X127503119Y-79529216D01*
X127500000Y-79497546D01*
X127500000Y-79102454D01*
X127503119Y-79070784D01*
X127511641Y-79042691D01*
X127525483Y-79016796D01*
X127544104Y-78994104D01*
X127566796Y-78975483D01*
X127592691Y-78961641D01*
X127620784Y-78953119D01*
X127652454Y-78950000D01*
X129047546Y-78950000D01*
X129079216Y-78953119D01*
X129079216Y-78953119D01*
G37*
G36*
X142422948Y-76725722D02*
G01*
X142686831Y-76835026D01*
X142686833Y-76835027D01*
X142924321Y-76993711D01*
X143126289Y-77195679D01*
X143274034Y-77416796D01*
X143284974Y-77433169D01*
X143394278Y-77697052D01*
X143450000Y-77977186D01*
X143450000Y-78262814D01*
X143394278Y-78542948D01*
X143288324Y-78798744D01*
X143284973Y-78806833D01*
X143126289Y-79044321D01*
X142924321Y-79246289D01*
X142686833Y-79404973D01*
X142686832Y-79404974D01*
X142686831Y-79404974D01*
X142422948Y-79514278D01*
X142142814Y-79570000D01*
X141857186Y-79570000D01*
X141577052Y-79514278D01*
X141313169Y-79404974D01*
X141313168Y-79404974D01*
X141313167Y-79404973D01*
X141075679Y-79246289D01*
X140873711Y-79044321D01*
X140715027Y-78806833D01*
X140711676Y-78798744D01*
X140605722Y-78542948D01*
X140550000Y-78262814D01*
X140550000Y-77977186D01*
X140605722Y-77697052D01*
X140715026Y-77433169D01*
X140725966Y-77416796D01*
X140873711Y-77195679D01*
X141075679Y-76993711D01*
X141313167Y-76835027D01*
X141313169Y-76835026D01*
X141577052Y-76725722D01*
X141857186Y-76670000D01*
X142142814Y-76670000D01*
X142422948Y-76725722D01*
X142422948Y-76725722D01*
G37*
G36*
X138550000Y-79550000D02*
G01*
X137450000Y-79550000D01*
X137450000Y-78550000D01*
X138550000Y-78550000D01*
X138550000Y-79550000D01*
X138550000Y-79550000D01*
G37*
G36*
X109266608Y-76554613D02*
G01*
X109309298Y-76567564D01*
X109348632Y-76588588D01*
X109383114Y-76616886D01*
X109411412Y-76651368D01*
X109432436Y-76690702D01*
X109445387Y-76733392D01*
X109450000Y-76780232D01*
X109450000Y-79219768D01*
X109445387Y-79266608D01*
X109432436Y-79309298D01*
X109411412Y-79348632D01*
X109383114Y-79383114D01*
X109348632Y-79411412D01*
X109309298Y-79432436D01*
X109266608Y-79445387D01*
X109219768Y-79450000D01*
X106780232Y-79450000D01*
X106733392Y-79445387D01*
X106690702Y-79432436D01*
X106651368Y-79411412D01*
X106616886Y-79383114D01*
X106588588Y-79348632D01*
X106567564Y-79309298D01*
X106554613Y-79266608D01*
X106550000Y-79219768D01*
X106550000Y-76780232D01*
X106554613Y-76733392D01*
X106567564Y-76690702D01*
X106588588Y-76651368D01*
X106616886Y-76616886D01*
X106651368Y-76588588D01*
X106690702Y-76567564D01*
X106733392Y-76554613D01*
X106780232Y-76550000D01*
X109219768Y-76550000D01*
X109266608Y-76554613D01*
X109266608Y-76554613D01*
G37*
G36*
X120729216Y-78153119D02*
G01*
X120757309Y-78161641D01*
X120783204Y-78175483D01*
X120805896Y-78194104D01*
X120824517Y-78216796D01*
X120838359Y-78242691D01*
X120846881Y-78270784D01*
X120850000Y-78302454D01*
X120850000Y-78697546D01*
X120846881Y-78729216D01*
X120838359Y-78757309D01*
X120824517Y-78783204D01*
X120805896Y-78805896D01*
X120783204Y-78824517D01*
X120757309Y-78838359D01*
X120729216Y-78846881D01*
X120697546Y-78850000D01*
X119302454Y-78850000D01*
X119270784Y-78846881D01*
X119242691Y-78838359D01*
X119216796Y-78824517D01*
X119194104Y-78805896D01*
X119175483Y-78783204D01*
X119161641Y-78757309D01*
X119153119Y-78729216D01*
X119150000Y-78697546D01*
X119150000Y-78302454D01*
X119153119Y-78270784D01*
X119161641Y-78242691D01*
X119175483Y-78216796D01*
X119194104Y-78194104D01*
X119216796Y-78175483D01*
X119242691Y-78161641D01*
X119270784Y-78153119D01*
X119302454Y-78150000D01*
X120697546Y-78150000D01*
X120729216Y-78153119D01*
X120729216Y-78153119D01*
G37*
G36*
X129079216Y-78153119D02*
G01*
X129107309Y-78161641D01*
X129133204Y-78175483D01*
X129155896Y-78194104D01*
X129174517Y-78216796D01*
X129188359Y-78242691D01*
X129196881Y-78270784D01*
X129200000Y-78302454D01*
X129200000Y-78697546D01*
X129196881Y-78729216D01*
X129188359Y-78757309D01*
X129174517Y-78783204D01*
X129155896Y-78805896D01*
X129133204Y-78824517D01*
X129107309Y-78838359D01*
X129079216Y-78846881D01*
X129047546Y-78850000D01*
X127652454Y-78850000D01*
X127620784Y-78846881D01*
X127592691Y-78838359D01*
X127566796Y-78824517D01*
X127544104Y-78805896D01*
X127525483Y-78783204D01*
X127511641Y-78757309D01*
X127503119Y-78729216D01*
X127500000Y-78697546D01*
X127500000Y-78302454D01*
X127503119Y-78270784D01*
X127511641Y-78242691D01*
X127525483Y-78216796D01*
X127544104Y-78194104D01*
X127566796Y-78175483D01*
X127592691Y-78161641D01*
X127620784Y-78153119D01*
X127652454Y-78150000D01*
X129047546Y-78150000D01*
X129079216Y-78153119D01*
X129079216Y-78153119D01*
G37*
G36*
X120729216Y-77353119D02*
G01*
X120757309Y-77361641D01*
X120783204Y-77375483D01*
X120805896Y-77394104D01*
X120824517Y-77416796D01*
X120838359Y-77442691D01*
X120846881Y-77470784D01*
X120850000Y-77502454D01*
X120850000Y-77897546D01*
X120846881Y-77929216D01*
X120838359Y-77957309D01*
X120824517Y-77983204D01*
X120805896Y-78005896D01*
X120783204Y-78024517D01*
X120757309Y-78038359D01*
X120729216Y-78046881D01*
X120697546Y-78050000D01*
X119302454Y-78050000D01*
X119270784Y-78046881D01*
X119242691Y-78038359D01*
X119216796Y-78024517D01*
X119194104Y-78005896D01*
X119175483Y-77983204D01*
X119161641Y-77957309D01*
X119153119Y-77929216D01*
X119150000Y-77897546D01*
X119150000Y-77502454D01*
X119153119Y-77470784D01*
X119161641Y-77442691D01*
X119175483Y-77416796D01*
X119194104Y-77394104D01*
X119216796Y-77375483D01*
X119242691Y-77361641D01*
X119270784Y-77353119D01*
X119302454Y-77350000D01*
X120697546Y-77350000D01*
X120729216Y-77353119D01*
X120729216Y-77353119D01*
G37*
G36*
X129079216Y-77353119D02*
G01*
X129107309Y-77361641D01*
X129133204Y-77375483D01*
X129155896Y-77394104D01*
X129174517Y-77416796D01*
X129188359Y-77442691D01*
X129196881Y-77470784D01*
X129200000Y-77502454D01*
X129200000Y-77897546D01*
X129196881Y-77929216D01*
X129188359Y-77957309D01*
X129174517Y-77983204D01*
X129155896Y-78005896D01*
X129133204Y-78024517D01*
X129107309Y-78038359D01*
X129079216Y-78046881D01*
X129047546Y-78050000D01*
X127652454Y-78050000D01*
X127620784Y-78046881D01*
X127592691Y-78038359D01*
X127566796Y-78024517D01*
X127544104Y-78005896D01*
X127525483Y-77983204D01*
X127511641Y-77957309D01*
X127503119Y-77929216D01*
X127500000Y-77897546D01*
X127500000Y-77502454D01*
X127503119Y-77470784D01*
X127511641Y-77442691D01*
X127525483Y-77416796D01*
X127544104Y-77394104D01*
X127566796Y-77375483D01*
X127592691Y-77361641D01*
X127620784Y-77353119D01*
X127652454Y-77350000D01*
X129047546Y-77350000D01*
X129079216Y-77353119D01*
X129079216Y-77353119D01*
G37*
G36*
X117084107Y-75370091D02*
G01*
X117131451Y-75384453D01*
X117175088Y-75407778D01*
X117213334Y-75439166D01*
X117244722Y-75477412D01*
X117268047Y-75521049D01*
X117282409Y-75568393D01*
X117287500Y-75620086D01*
X117287500Y-77059914D01*
X117282409Y-77111607D01*
X117268047Y-77158951D01*
X117244722Y-77202588D01*
X117213334Y-77240834D01*
X117175088Y-77272222D01*
X117131451Y-77295547D01*
X117084107Y-77309909D01*
X117032414Y-77315000D01*
X115917586Y-77315000D01*
X115865893Y-77309909D01*
X115818549Y-77295547D01*
X115774912Y-77272222D01*
X115736666Y-77240834D01*
X115705278Y-77202588D01*
X115681953Y-77158951D01*
X115667591Y-77111607D01*
X115662500Y-77059914D01*
X115662500Y-75620086D01*
X115667591Y-75568393D01*
X115681953Y-75521049D01*
X115705278Y-75477412D01*
X115736666Y-75439166D01*
X115774912Y-75407778D01*
X115818549Y-75384453D01*
X115865893Y-75370091D01*
X115917586Y-75365000D01*
X117032414Y-75365000D01*
X117084107Y-75370091D01*
X117084107Y-75370091D01*
G37*
G36*
X114109107Y-75370091D02*
G01*
X114156451Y-75384453D01*
X114200088Y-75407778D01*
X114238334Y-75439166D01*
X114269722Y-75477412D01*
X114293047Y-75521049D01*
X114307409Y-75568393D01*
X114312500Y-75620086D01*
X114312500Y-77059914D01*
X114307409Y-77111607D01*
X114293047Y-77158951D01*
X114269722Y-77202588D01*
X114238334Y-77240834D01*
X114200088Y-77272222D01*
X114156451Y-77295547D01*
X114109107Y-77309909D01*
X114057414Y-77315000D01*
X112942586Y-77315000D01*
X112890893Y-77309909D01*
X112843549Y-77295547D01*
X112799912Y-77272222D01*
X112761666Y-77240834D01*
X112730278Y-77202588D01*
X112706953Y-77158951D01*
X112692591Y-77111607D01*
X112687500Y-77059914D01*
X112687500Y-75620086D01*
X112692591Y-75568393D01*
X112706953Y-75521049D01*
X112730278Y-75477412D01*
X112761666Y-75439166D01*
X112799912Y-75407778D01*
X112843549Y-75384453D01*
X112890893Y-75370091D01*
X112942586Y-75365000D01*
X114057414Y-75365000D01*
X114109107Y-75370091D01*
X114109107Y-75370091D01*
G37*
G36*
X120729216Y-76553119D02*
G01*
X120757309Y-76561641D01*
X120783204Y-76575483D01*
X120805896Y-76594104D01*
X120824517Y-76616796D01*
X120838359Y-76642691D01*
X120846881Y-76670784D01*
X120850000Y-76702454D01*
X120850000Y-77097546D01*
X120846881Y-77129216D01*
X120838359Y-77157309D01*
X120824517Y-77183204D01*
X120805896Y-77205896D01*
X120783204Y-77224517D01*
X120757309Y-77238359D01*
X120729216Y-77246881D01*
X120697546Y-77250000D01*
X119302454Y-77250000D01*
X119270784Y-77246881D01*
X119242691Y-77238359D01*
X119216796Y-77224517D01*
X119194104Y-77205896D01*
X119175483Y-77183204D01*
X119161641Y-77157309D01*
X119153119Y-77129216D01*
X119150000Y-77097546D01*
X119150000Y-76702454D01*
X119153119Y-76670784D01*
X119161641Y-76642691D01*
X119175483Y-76616796D01*
X119194104Y-76594104D01*
X119216796Y-76575483D01*
X119242691Y-76561641D01*
X119270784Y-76553119D01*
X119302454Y-76550000D01*
X120697546Y-76550000D01*
X120729216Y-76553119D01*
X120729216Y-76553119D01*
G37*
G36*
X129079216Y-76553119D02*
G01*
X129107309Y-76561641D01*
X129133204Y-76575483D01*
X129155896Y-76594104D01*
X129174517Y-76616796D01*
X129188359Y-76642691D01*
X129196881Y-76670784D01*
X129200000Y-76702454D01*
X129200000Y-77097546D01*
X129196881Y-77129216D01*
X129188359Y-77157309D01*
X129174517Y-77183204D01*
X129155896Y-77205896D01*
X129133204Y-77224517D01*
X129107309Y-77238359D01*
X129079216Y-77246881D01*
X129047546Y-77250000D01*
X127652454Y-77250000D01*
X127620784Y-77246881D01*
X127592691Y-77238359D01*
X127566796Y-77224517D01*
X127544104Y-77205896D01*
X127525483Y-77183204D01*
X127511641Y-77157309D01*
X127503119Y-77129216D01*
X127500000Y-77097546D01*
X127500000Y-76702454D01*
X127503119Y-76670784D01*
X127511641Y-76642691D01*
X127525483Y-76616796D01*
X127544104Y-76594104D01*
X127566796Y-76575483D01*
X127592691Y-76561641D01*
X127620784Y-76553119D01*
X127652454Y-76550000D01*
X129047546Y-76550000D01*
X129079216Y-76553119D01*
X129079216Y-76553119D01*
G37*
G36*
X129079216Y-75753119D02*
G01*
X129107309Y-75761641D01*
X129133204Y-75775483D01*
X129155896Y-75794104D01*
X129174517Y-75816796D01*
X129188359Y-75842691D01*
X129196881Y-75870784D01*
X129200000Y-75902454D01*
X129200000Y-76297546D01*
X129196881Y-76329216D01*
X129188359Y-76357309D01*
X129174517Y-76383204D01*
X129155896Y-76405896D01*
X129133204Y-76424517D01*
X129107309Y-76438359D01*
X129079216Y-76446881D01*
X129047546Y-76450000D01*
X127652454Y-76450000D01*
X127620784Y-76446881D01*
X127592691Y-76438359D01*
X127566796Y-76424517D01*
X127544104Y-76405896D01*
X127525483Y-76383204D01*
X127511641Y-76357309D01*
X127503119Y-76329216D01*
X127500000Y-76297546D01*
X127500000Y-75902454D01*
X127503119Y-75870784D01*
X127511641Y-75842691D01*
X127525483Y-75816796D01*
X127544104Y-75794104D01*
X127566796Y-75775483D01*
X127592691Y-75761641D01*
X127620784Y-75753119D01*
X127652454Y-75750000D01*
X129047546Y-75750000D01*
X129079216Y-75753119D01*
X129079216Y-75753119D01*
G37*
G36*
X120729216Y-75753119D02*
G01*
X120757309Y-75761641D01*
X120783204Y-75775483D01*
X120805896Y-75794104D01*
X120824517Y-75816796D01*
X120838359Y-75842691D01*
X120846881Y-75870784D01*
X120850000Y-75902454D01*
X120850000Y-76297546D01*
X120846881Y-76329216D01*
X120838359Y-76357309D01*
X120824517Y-76383204D01*
X120805896Y-76405896D01*
X120783204Y-76424517D01*
X120757309Y-76438359D01*
X120729216Y-76446881D01*
X120697546Y-76450000D01*
X119302454Y-76450000D01*
X119270784Y-76446881D01*
X119242691Y-76438359D01*
X119216796Y-76424517D01*
X119194104Y-76405896D01*
X119175483Y-76383204D01*
X119161641Y-76357309D01*
X119153119Y-76329216D01*
X119150000Y-76297546D01*
X119150000Y-75902454D01*
X119153119Y-75870784D01*
X119161641Y-75842691D01*
X119175483Y-75816796D01*
X119194104Y-75794104D01*
X119216796Y-75775483D01*
X119242691Y-75761641D01*
X119270784Y-75753119D01*
X119302454Y-75750000D01*
X120697546Y-75750000D01*
X120729216Y-75753119D01*
X120729216Y-75753119D01*
G37*
G36*
X129079216Y-74953119D02*
G01*
X129107309Y-74961641D01*
X129133204Y-74975483D01*
X129155896Y-74994104D01*
X129174517Y-75016796D01*
X129188359Y-75042691D01*
X129196881Y-75070784D01*
X129200000Y-75102454D01*
X129200000Y-75497546D01*
X129196881Y-75529216D01*
X129188359Y-75557309D01*
X129174517Y-75583204D01*
X129155896Y-75605896D01*
X129133204Y-75624517D01*
X129107309Y-75638359D01*
X129079216Y-75646881D01*
X129047546Y-75650000D01*
X127652454Y-75650000D01*
X127620784Y-75646881D01*
X127592691Y-75638359D01*
X127566796Y-75624517D01*
X127544104Y-75605896D01*
X127525483Y-75583204D01*
X127511641Y-75557309D01*
X127503119Y-75529216D01*
X127500000Y-75497546D01*
X127500000Y-75102454D01*
X127503119Y-75070784D01*
X127511641Y-75042691D01*
X127525483Y-75016796D01*
X127544104Y-74994104D01*
X127566796Y-74975483D01*
X127592691Y-74961641D01*
X127620784Y-74953119D01*
X127652454Y-74950000D01*
X129047546Y-74950000D01*
X129079216Y-74953119D01*
X129079216Y-74953119D01*
G37*
G36*
X120729216Y-74953119D02*
G01*
X120757309Y-74961641D01*
X120783204Y-74975483D01*
X120805896Y-74994104D01*
X120824517Y-75016796D01*
X120838359Y-75042691D01*
X120846881Y-75070784D01*
X120850000Y-75102454D01*
X120850000Y-75497546D01*
X120846881Y-75529216D01*
X120838359Y-75557309D01*
X120824517Y-75583204D01*
X120805896Y-75605896D01*
X120783204Y-75624517D01*
X120757309Y-75638359D01*
X120729216Y-75646881D01*
X120697546Y-75650000D01*
X119302454Y-75650000D01*
X119270784Y-75646881D01*
X119242691Y-75638359D01*
X119216796Y-75624517D01*
X119194104Y-75605896D01*
X119175483Y-75583204D01*
X119161641Y-75557309D01*
X119153119Y-75529216D01*
X119150000Y-75497546D01*
X119150000Y-75102454D01*
X119153119Y-75070784D01*
X119161641Y-75042691D01*
X119175483Y-75016796D01*
X119194104Y-74994104D01*
X119216796Y-74975483D01*
X119242691Y-74961641D01*
X119270784Y-74953119D01*
X119302454Y-74950000D01*
X120697546Y-74950000D01*
X120729216Y-74953119D01*
X120729216Y-74953119D01*
G37*
G36*
X120729216Y-74153119D02*
G01*
X120757309Y-74161641D01*
X120783204Y-74175483D01*
X120805896Y-74194104D01*
X120824517Y-74216796D01*
X120838359Y-74242691D01*
X120846881Y-74270784D01*
X120850000Y-74302454D01*
X120850000Y-74697546D01*
X120846881Y-74729216D01*
X120838359Y-74757309D01*
X120824517Y-74783204D01*
X120805896Y-74805896D01*
X120783204Y-74824517D01*
X120757309Y-74838359D01*
X120729216Y-74846881D01*
X120697546Y-74850000D01*
X119302454Y-74850000D01*
X119270784Y-74846881D01*
X119242691Y-74838359D01*
X119216796Y-74824517D01*
X119194104Y-74805896D01*
X119175483Y-74783204D01*
X119161641Y-74757309D01*
X119153119Y-74729216D01*
X119150000Y-74697546D01*
X119150000Y-74302454D01*
X119153119Y-74270784D01*
X119161641Y-74242691D01*
X119175483Y-74216796D01*
X119194104Y-74194104D01*
X119216796Y-74175483D01*
X119242691Y-74161641D01*
X119270784Y-74153119D01*
X119302454Y-74150000D01*
X120697546Y-74150000D01*
X120729216Y-74153119D01*
X120729216Y-74153119D01*
G37*
G36*
X129079216Y-74153119D02*
G01*
X129107309Y-74161641D01*
X129133204Y-74175483D01*
X129155896Y-74194104D01*
X129174517Y-74216796D01*
X129188359Y-74242691D01*
X129196881Y-74270784D01*
X129200000Y-74302454D01*
X129200000Y-74697546D01*
X129196881Y-74729216D01*
X129188359Y-74757309D01*
X129174517Y-74783204D01*
X129155896Y-74805896D01*
X129133204Y-74824517D01*
X129107309Y-74838359D01*
X129079216Y-74846881D01*
X129047546Y-74850000D01*
X127652454Y-74850000D01*
X127620784Y-74846881D01*
X127592691Y-74838359D01*
X127566796Y-74824517D01*
X127544104Y-74805896D01*
X127525483Y-74783204D01*
X127511641Y-74757309D01*
X127503119Y-74729216D01*
X127500000Y-74697546D01*
X127500000Y-74302454D01*
X127503119Y-74270784D01*
X127511641Y-74242691D01*
X127525483Y-74216796D01*
X127544104Y-74194104D01*
X127566796Y-74175483D01*
X127592691Y-74161641D01*
X127620784Y-74153119D01*
X127652454Y-74150000D01*
X129047546Y-74150000D01*
X129079216Y-74153119D01*
X129079216Y-74153119D01*
G37*
G36*
X124804216Y-72278119D02*
G01*
X124832309Y-72286641D01*
X124858204Y-72300483D01*
X124880896Y-72319104D01*
X124899517Y-72341796D01*
X124913359Y-72367691D01*
X124921881Y-72395784D01*
X124925000Y-72427454D01*
X124925000Y-73822546D01*
X124921881Y-73854216D01*
X124913359Y-73882309D01*
X124899517Y-73908204D01*
X124880896Y-73930896D01*
X124858204Y-73949517D01*
X124832309Y-73963359D01*
X124804216Y-73971881D01*
X124772546Y-73975000D01*
X124377454Y-73975000D01*
X124345784Y-73971881D01*
X124317691Y-73963359D01*
X124291796Y-73949517D01*
X124269104Y-73930896D01*
X124250483Y-73908204D01*
X124236641Y-73882309D01*
X124228119Y-73854216D01*
X124225000Y-73822546D01*
X124225000Y-72427454D01*
X124228119Y-72395784D01*
X124236641Y-72367691D01*
X124250483Y-72341796D01*
X124269104Y-72319104D01*
X124291796Y-72300483D01*
X124317691Y-72286641D01*
X124345784Y-72278119D01*
X124377454Y-72275000D01*
X124772546Y-72275000D01*
X124804216Y-72278119D01*
X124804216Y-72278119D01*
G37*
G36*
X113981607Y-72030091D02*
G01*
X114028951Y-72044453D01*
X114072588Y-72067778D01*
X114110834Y-72099166D01*
X114142222Y-72137412D01*
X114165547Y-72181049D01*
X114179909Y-72228393D01*
X114185000Y-72280086D01*
X114185000Y-73719914D01*
X114179909Y-73771607D01*
X114165547Y-73818951D01*
X114142222Y-73862588D01*
X114110834Y-73900834D01*
X114072588Y-73932222D01*
X114028951Y-73955547D01*
X113981607Y-73969909D01*
X113929914Y-73975000D01*
X112815086Y-73975000D01*
X112763393Y-73969909D01*
X112716049Y-73955547D01*
X112672412Y-73932222D01*
X112634166Y-73900834D01*
X112602778Y-73862588D01*
X112579453Y-73818951D01*
X112565091Y-73771607D01*
X112560000Y-73719914D01*
X112560000Y-72280086D01*
X112565091Y-72228393D01*
X112579453Y-72181049D01*
X112602778Y-72137412D01*
X112634166Y-72099166D01*
X112672412Y-72067778D01*
X112716049Y-72044453D01*
X112763393Y-72030091D01*
X112815086Y-72025000D01*
X113929914Y-72025000D01*
X113981607Y-72030091D01*
X113981607Y-72030091D01*
G37*
G36*
X121604216Y-72278119D02*
G01*
X121632309Y-72286641D01*
X121658204Y-72300483D01*
X121680896Y-72319104D01*
X121699517Y-72341796D01*
X121713359Y-72367691D01*
X121721881Y-72395784D01*
X121725000Y-72427454D01*
X121725000Y-73822546D01*
X121721881Y-73854216D01*
X121713359Y-73882309D01*
X121699517Y-73908204D01*
X121680896Y-73930896D01*
X121658204Y-73949517D01*
X121632309Y-73963359D01*
X121604216Y-73971881D01*
X121572546Y-73975000D01*
X121177454Y-73975000D01*
X121145784Y-73971881D01*
X121117691Y-73963359D01*
X121091796Y-73949517D01*
X121069104Y-73930896D01*
X121050483Y-73908204D01*
X121036641Y-73882309D01*
X121028119Y-73854216D01*
X121025000Y-73822546D01*
X121025000Y-72427454D01*
X121028119Y-72395784D01*
X121036641Y-72367691D01*
X121050483Y-72341796D01*
X121069104Y-72319104D01*
X121091796Y-72300483D01*
X121117691Y-72286641D01*
X121145784Y-72278119D01*
X121177454Y-72275000D01*
X121572546Y-72275000D01*
X121604216Y-72278119D01*
X121604216Y-72278119D01*
G37*
G36*
X122404216Y-72278119D02*
G01*
X122432309Y-72286641D01*
X122458204Y-72300483D01*
X122480896Y-72319104D01*
X122499517Y-72341796D01*
X122513359Y-72367691D01*
X122521881Y-72395784D01*
X122525000Y-72427454D01*
X122525000Y-73822546D01*
X122521881Y-73854216D01*
X122513359Y-73882309D01*
X122499517Y-73908204D01*
X122480896Y-73930896D01*
X122458204Y-73949517D01*
X122432309Y-73963359D01*
X122404216Y-73971881D01*
X122372546Y-73975000D01*
X121977454Y-73975000D01*
X121945784Y-73971881D01*
X121917691Y-73963359D01*
X121891796Y-73949517D01*
X121869104Y-73930896D01*
X121850483Y-73908204D01*
X121836641Y-73882309D01*
X121828119Y-73854216D01*
X121825000Y-73822546D01*
X121825000Y-72427454D01*
X121828119Y-72395784D01*
X121836641Y-72367691D01*
X121850483Y-72341796D01*
X121869104Y-72319104D01*
X121891796Y-72300483D01*
X121917691Y-72286641D01*
X121945784Y-72278119D01*
X121977454Y-72275000D01*
X122372546Y-72275000D01*
X122404216Y-72278119D01*
X122404216Y-72278119D01*
G37*
G36*
X123204216Y-72278119D02*
G01*
X123232309Y-72286641D01*
X123258204Y-72300483D01*
X123280896Y-72319104D01*
X123299517Y-72341796D01*
X123313359Y-72367691D01*
X123321881Y-72395784D01*
X123325000Y-72427454D01*
X123325000Y-73822546D01*
X123321881Y-73854216D01*
X123313359Y-73882309D01*
X123299517Y-73908204D01*
X123280896Y-73930896D01*
X123258204Y-73949517D01*
X123232309Y-73963359D01*
X123204216Y-73971881D01*
X123172546Y-73975000D01*
X122777454Y-73975000D01*
X122745784Y-73971881D01*
X122717691Y-73963359D01*
X122691796Y-73949517D01*
X122669104Y-73930896D01*
X122650483Y-73908204D01*
X122636641Y-73882309D01*
X122628119Y-73854216D01*
X122625000Y-73822546D01*
X122625000Y-72427454D01*
X122628119Y-72395784D01*
X122636641Y-72367691D01*
X122650483Y-72341796D01*
X122669104Y-72319104D01*
X122691796Y-72300483D01*
X122717691Y-72286641D01*
X122745784Y-72278119D01*
X122777454Y-72275000D01*
X123172546Y-72275000D01*
X123204216Y-72278119D01*
X123204216Y-72278119D01*
G37*
G36*
X116956607Y-72030091D02*
G01*
X117003951Y-72044453D01*
X117047588Y-72067778D01*
X117085834Y-72099166D01*
X117117222Y-72137412D01*
X117140547Y-72181049D01*
X117154909Y-72228393D01*
X117160000Y-72280086D01*
X117160000Y-73719914D01*
X117154909Y-73771607D01*
X117140547Y-73818951D01*
X117117222Y-73862588D01*
X117085834Y-73900834D01*
X117047588Y-73932222D01*
X117003951Y-73955547D01*
X116956607Y-73969909D01*
X116904914Y-73975000D01*
X115790086Y-73975000D01*
X115738393Y-73969909D01*
X115691049Y-73955547D01*
X115647412Y-73932222D01*
X115609166Y-73900834D01*
X115577778Y-73862588D01*
X115554453Y-73818951D01*
X115540091Y-73771607D01*
X115535000Y-73719914D01*
X115535000Y-72280086D01*
X115540091Y-72228393D01*
X115554453Y-72181049D01*
X115577778Y-72137412D01*
X115609166Y-72099166D01*
X115647412Y-72067778D01*
X115691049Y-72044453D01*
X115738393Y-72030091D01*
X115790086Y-72025000D01*
X116904914Y-72025000D01*
X116956607Y-72030091D01*
X116956607Y-72030091D01*
G37*
G36*
X124004216Y-72278119D02*
G01*
X124032309Y-72286641D01*
X124058204Y-72300483D01*
X124080896Y-72319104D01*
X124099517Y-72341796D01*
X124113359Y-72367691D01*
X124121881Y-72395784D01*
X124125000Y-72427454D01*
X124125000Y-73822546D01*
X124121881Y-73854216D01*
X124113359Y-73882309D01*
X124099517Y-73908204D01*
X124080896Y-73930896D01*
X124058204Y-73949517D01*
X124032309Y-73963359D01*
X124004216Y-73971881D01*
X123972546Y-73975000D01*
X123577454Y-73975000D01*
X123545784Y-73971881D01*
X123517691Y-73963359D01*
X123491796Y-73949517D01*
X123469104Y-73930896D01*
X123450483Y-73908204D01*
X123436641Y-73882309D01*
X123428119Y-73854216D01*
X123425000Y-73822546D01*
X123425000Y-72427454D01*
X123428119Y-72395784D01*
X123436641Y-72367691D01*
X123450483Y-72341796D01*
X123469104Y-72319104D01*
X123491796Y-72300483D01*
X123517691Y-72286641D01*
X123545784Y-72278119D01*
X123577454Y-72275000D01*
X123972546Y-72275000D01*
X124004216Y-72278119D01*
X124004216Y-72278119D01*
G37*
G36*
X127204216Y-72278119D02*
G01*
X127232309Y-72286641D01*
X127258204Y-72300483D01*
X127280896Y-72319104D01*
X127299517Y-72341796D01*
X127313359Y-72367691D01*
X127321881Y-72395784D01*
X127325000Y-72427454D01*
X127325000Y-73822546D01*
X127321881Y-73854216D01*
X127313359Y-73882309D01*
X127299517Y-73908204D01*
X127280896Y-73930896D01*
X127258204Y-73949517D01*
X127232309Y-73963359D01*
X127204216Y-73971881D01*
X127172546Y-73975000D01*
X126777454Y-73975000D01*
X126745784Y-73971881D01*
X126717691Y-73963359D01*
X126691796Y-73949517D01*
X126669104Y-73930896D01*
X126650483Y-73908204D01*
X126636641Y-73882309D01*
X126628119Y-73854216D01*
X126625000Y-73822546D01*
X126625000Y-72427454D01*
X126628119Y-72395784D01*
X126636641Y-72367691D01*
X126650483Y-72341796D01*
X126669104Y-72319104D01*
X126691796Y-72300483D01*
X126717691Y-72286641D01*
X126745784Y-72278119D01*
X126777454Y-72275000D01*
X127172546Y-72275000D01*
X127204216Y-72278119D01*
X127204216Y-72278119D01*
G37*
G36*
X126404216Y-72278119D02*
G01*
X126432309Y-72286641D01*
X126458204Y-72300483D01*
X126480896Y-72319104D01*
X126499517Y-72341796D01*
X126513359Y-72367691D01*
X126521881Y-72395784D01*
X126525000Y-72427454D01*
X126525000Y-73822546D01*
X126521881Y-73854216D01*
X126513359Y-73882309D01*
X126499517Y-73908204D01*
X126480896Y-73930896D01*
X126458204Y-73949517D01*
X126432309Y-73963359D01*
X126404216Y-73971881D01*
X126372546Y-73975000D01*
X125977454Y-73975000D01*
X125945784Y-73971881D01*
X125917691Y-73963359D01*
X125891796Y-73949517D01*
X125869104Y-73930896D01*
X125850483Y-73908204D01*
X125836641Y-73882309D01*
X125828119Y-73854216D01*
X125825000Y-73822546D01*
X125825000Y-72427454D01*
X125828119Y-72395784D01*
X125836641Y-72367691D01*
X125850483Y-72341796D01*
X125869104Y-72319104D01*
X125891796Y-72300483D01*
X125917691Y-72286641D01*
X125945784Y-72278119D01*
X125977454Y-72275000D01*
X126372546Y-72275000D01*
X126404216Y-72278119D01*
X126404216Y-72278119D01*
G37*
G36*
X125604216Y-72278119D02*
G01*
X125632309Y-72286641D01*
X125658204Y-72300483D01*
X125680896Y-72319104D01*
X125699517Y-72341796D01*
X125713359Y-72367691D01*
X125721881Y-72395784D01*
X125725000Y-72427454D01*
X125725000Y-73822546D01*
X125721881Y-73854216D01*
X125713359Y-73882309D01*
X125699517Y-73908204D01*
X125680896Y-73930896D01*
X125658204Y-73949517D01*
X125632309Y-73963359D01*
X125604216Y-73971881D01*
X125572546Y-73975000D01*
X125177454Y-73975000D01*
X125145784Y-73971881D01*
X125117691Y-73963359D01*
X125091796Y-73949517D01*
X125069104Y-73930896D01*
X125050483Y-73908204D01*
X125036641Y-73882309D01*
X125028119Y-73854216D01*
X125025000Y-73822546D01*
X125025000Y-72427454D01*
X125028119Y-72395784D01*
X125036641Y-72367691D01*
X125050483Y-72341796D01*
X125069104Y-72319104D01*
X125091796Y-72300483D01*
X125117691Y-72286641D01*
X125145784Y-72278119D01*
X125177454Y-72275000D01*
X125572546Y-72275000D01*
X125604216Y-72278119D01*
X125604216Y-72278119D01*
G37*
G36*
X142422948Y-70605722D02*
G01*
X142686831Y-70715026D01*
X142686833Y-70715027D01*
X142924321Y-70873711D01*
X143126289Y-71075679D01*
X143231520Y-71233169D01*
X143284974Y-71313169D01*
X143394278Y-71577052D01*
X143450000Y-71857186D01*
X143450000Y-72142814D01*
X143394278Y-72422948D01*
X143318111Y-72606831D01*
X143284973Y-72686833D01*
X143126289Y-72924321D01*
X142924321Y-73126289D01*
X142686833Y-73284973D01*
X142686832Y-73284974D01*
X142686831Y-73284974D01*
X142422948Y-73394278D01*
X142142814Y-73450000D01*
X141857186Y-73450000D01*
X141577052Y-73394278D01*
X141313169Y-73284974D01*
X141313168Y-73284974D01*
X141313167Y-73284973D01*
X141075679Y-73126289D01*
X140873711Y-72924321D01*
X140715027Y-72686833D01*
X140681889Y-72606831D01*
X140605722Y-72422948D01*
X140550000Y-72142814D01*
X140550000Y-71857186D01*
X140605722Y-71577052D01*
X140715026Y-71313169D01*
X140768480Y-71233169D01*
X140873711Y-71075679D01*
X141075679Y-70873711D01*
X141313167Y-70715027D01*
X141313169Y-70715026D01*
X141577052Y-70605722D01*
X141857186Y-70550000D01*
X142142814Y-70550000D01*
X142422948Y-70605722D01*
X142422948Y-70605722D01*
G37*
G36*
X108422948Y-70525722D02*
G01*
X108686831Y-70635026D01*
X108686833Y-70635027D01*
X108924321Y-70793711D01*
X109126289Y-70995679D01*
X109284973Y-71233167D01*
X109284974Y-71233169D01*
X109394278Y-71497052D01*
X109450000Y-71777186D01*
X109450000Y-72062814D01*
X109394278Y-72342948D01*
X109284974Y-72606831D01*
X109284973Y-72606833D01*
X109126289Y-72844321D01*
X108924321Y-73046289D01*
X108686833Y-73204973D01*
X108686832Y-73204974D01*
X108686831Y-73204974D01*
X108422948Y-73314278D01*
X108142814Y-73370000D01*
X107857186Y-73370000D01*
X107577052Y-73314278D01*
X107313169Y-73204974D01*
X107313168Y-73204974D01*
X107313167Y-73204973D01*
X107075679Y-73046289D01*
X106873711Y-72844321D01*
X106715027Y-72606833D01*
X106715026Y-72606831D01*
X106605722Y-72342948D01*
X106550000Y-72062814D01*
X106550000Y-71777186D01*
X106605722Y-71497052D01*
X106715026Y-71233169D01*
X106715027Y-71233167D01*
X106873711Y-70995679D01*
X107075679Y-70793711D01*
X107313167Y-70635027D01*
X107313169Y-70635026D01*
X107577052Y-70525722D01*
X107857186Y-70470000D01*
X108142814Y-70470000D01*
X108422948Y-70525722D01*
X108422948Y-70525722D01*
G37*
G36*
X128771607Y-69192591D02*
G01*
X128818951Y-69206953D01*
X128862588Y-69230278D01*
X128900834Y-69261666D01*
X128932222Y-69299912D01*
X128955547Y-69343549D01*
X128969909Y-69390893D01*
X128975000Y-69442586D01*
X128975000Y-70557414D01*
X128969909Y-70609107D01*
X128955547Y-70656451D01*
X128932222Y-70700088D01*
X128900834Y-70738334D01*
X128862588Y-70769722D01*
X128818951Y-70793047D01*
X128771607Y-70807409D01*
X128719914Y-70812500D01*
X127280086Y-70812500D01*
X127228393Y-70807409D01*
X127181049Y-70793047D01*
X127137412Y-70769722D01*
X127099166Y-70738334D01*
X127067778Y-70700088D01*
X127044453Y-70656451D01*
X127030091Y-70609107D01*
X127025000Y-70557414D01*
X127025000Y-69442586D01*
X127030091Y-69390893D01*
X127044453Y-69343549D01*
X127067778Y-69299912D01*
X127099166Y-69261666D01*
X127137412Y-69230278D01*
X127181049Y-69206953D01*
X127228393Y-69192591D01*
X127280086Y-69187500D01*
X128719914Y-69187500D01*
X128771607Y-69192591D01*
X128771607Y-69192591D01*
G37*
G36*
X120609107Y-68030091D02*
G01*
X120656451Y-68044453D01*
X120700088Y-68067778D01*
X120738334Y-68099166D01*
X120769722Y-68137412D01*
X120793047Y-68181049D01*
X120807409Y-68228393D01*
X120812500Y-68280086D01*
X120812500Y-69719914D01*
X120807409Y-69771607D01*
X120793047Y-69818951D01*
X120769722Y-69862588D01*
X120738334Y-69900834D01*
X120700088Y-69932222D01*
X120656451Y-69955547D01*
X120609107Y-69969909D01*
X120557414Y-69975000D01*
X119442586Y-69975000D01*
X119390893Y-69969909D01*
X119343549Y-69955547D01*
X119299912Y-69932222D01*
X119261666Y-69900834D01*
X119230278Y-69862588D01*
X119206953Y-69818951D01*
X119192591Y-69771607D01*
X119187500Y-69719914D01*
X119187500Y-68280086D01*
X119192591Y-68228393D01*
X119206953Y-68181049D01*
X119230278Y-68137412D01*
X119261666Y-68099166D01*
X119299912Y-68067778D01*
X119343549Y-68044453D01*
X119390893Y-68030091D01*
X119442586Y-68025000D01*
X120557414Y-68025000D01*
X120609107Y-68030091D01*
X120609107Y-68030091D01*
G37*
G36*
X117634107Y-68030091D02*
G01*
X117681451Y-68044453D01*
X117725088Y-68067778D01*
X117763334Y-68099166D01*
X117794722Y-68137412D01*
X117818047Y-68181049D01*
X117832409Y-68228393D01*
X117837500Y-68280086D01*
X117837500Y-69719914D01*
X117832409Y-69771607D01*
X117818047Y-69818951D01*
X117794722Y-69862588D01*
X117763334Y-69900834D01*
X117725088Y-69932222D01*
X117681451Y-69955547D01*
X117634107Y-69969909D01*
X117582414Y-69975000D01*
X116467586Y-69975000D01*
X116415893Y-69969909D01*
X116368549Y-69955547D01*
X116324912Y-69932222D01*
X116286666Y-69900834D01*
X116255278Y-69862588D01*
X116231953Y-69818951D01*
X116217591Y-69771607D01*
X116212500Y-69719914D01*
X116212500Y-68280086D01*
X116217591Y-68228393D01*
X116231953Y-68181049D01*
X116255278Y-68137412D01*
X116286666Y-68099166D01*
X116324912Y-68067778D01*
X116368549Y-68044453D01*
X116415893Y-68030091D01*
X116467586Y-68025000D01*
X117582414Y-68025000D01*
X117634107Y-68030091D01*
X117634107Y-68030091D01*
G37*
G36*
X142422948Y-66645722D02*
G01*
X142686831Y-66755026D01*
X142686833Y-66755027D01*
X142924321Y-66913711D01*
X143126289Y-67115679D01*
X143231520Y-67273169D01*
X143284974Y-67353169D01*
X143394278Y-67617052D01*
X143450000Y-67897186D01*
X143450000Y-68182814D01*
X143394278Y-68462948D01*
X143318111Y-68646831D01*
X143284973Y-68726833D01*
X143126289Y-68964321D01*
X142924321Y-69166289D01*
X142686833Y-69324973D01*
X142686832Y-69324974D01*
X142686831Y-69324974D01*
X142422948Y-69434278D01*
X142142814Y-69490000D01*
X141857186Y-69490000D01*
X141577052Y-69434278D01*
X141313169Y-69324974D01*
X141313168Y-69324974D01*
X141313167Y-69324973D01*
X141075679Y-69166289D01*
X140873711Y-68964321D01*
X140715027Y-68726833D01*
X140681889Y-68646831D01*
X140605722Y-68462948D01*
X140550000Y-68182814D01*
X140550000Y-67897186D01*
X140605722Y-67617052D01*
X140715026Y-67353169D01*
X140768480Y-67273169D01*
X140873711Y-67115679D01*
X141075679Y-66913711D01*
X141313167Y-66755027D01*
X141313169Y-66755026D01*
X141577052Y-66645722D01*
X141857186Y-66590000D01*
X142142814Y-66590000D01*
X142422948Y-66645722D01*
X142422948Y-66645722D01*
G37*
G36*
X108422948Y-66565722D02*
G01*
X108616087Y-66645723D01*
X108686833Y-66675027D01*
X108924321Y-66833711D01*
X109126289Y-67035679D01*
X109284973Y-67273167D01*
X109284974Y-67273169D01*
X109394278Y-67537052D01*
X109450000Y-67817186D01*
X109450000Y-68102814D01*
X109394278Y-68382948D01*
X109361140Y-68462949D01*
X109284973Y-68646833D01*
X109126289Y-68884321D01*
X108924321Y-69086289D01*
X108686833Y-69244973D01*
X108686832Y-69244974D01*
X108686831Y-69244974D01*
X108422948Y-69354278D01*
X108142814Y-69410000D01*
X107857186Y-69410000D01*
X107577052Y-69354278D01*
X107313169Y-69244974D01*
X107313168Y-69244974D01*
X107313167Y-69244973D01*
X107075679Y-69086289D01*
X106873711Y-68884321D01*
X106715027Y-68646833D01*
X106638860Y-68462949D01*
X106605722Y-68382948D01*
X106550000Y-68102814D01*
X106550000Y-67817186D01*
X106605722Y-67537052D01*
X106715026Y-67273169D01*
X106715027Y-67273167D01*
X106873711Y-67035679D01*
X107075679Y-66833711D01*
X107313167Y-66675027D01*
X107383913Y-66645723D01*
X107577052Y-66565722D01*
X107857186Y-66510000D01*
X108142814Y-66510000D01*
X108422948Y-66565722D01*
X108422948Y-66565722D01*
G37*
G36*
X128771607Y-66217591D02*
G01*
X128818951Y-66231953D01*
X128862588Y-66255278D01*
X128900834Y-66286666D01*
X128932222Y-66324912D01*
X128955547Y-66368549D01*
X128969909Y-66415893D01*
X128975000Y-66467586D01*
X128975000Y-67582414D01*
X128969909Y-67634107D01*
X128955547Y-67681451D01*
X128932222Y-67725088D01*
X128900834Y-67763334D01*
X128862588Y-67794722D01*
X128818951Y-67818047D01*
X128771607Y-67832409D01*
X128719914Y-67837500D01*
X127280086Y-67837500D01*
X127228393Y-67832409D01*
X127181049Y-67818047D01*
X127137412Y-67794722D01*
X127099166Y-67763334D01*
X127067778Y-67725088D01*
X127044453Y-67681451D01*
X127030091Y-67634107D01*
X127025000Y-67582414D01*
X127025000Y-66467586D01*
X127030091Y-66415893D01*
X127044453Y-66368549D01*
X127067778Y-66324912D01*
X127099166Y-66286666D01*
X127137412Y-66255278D01*
X127181049Y-66231953D01*
X127228393Y-66217591D01*
X127280086Y-66212500D01*
X128719914Y-66212500D01*
X128771607Y-66217591D01*
X128771607Y-66217591D01*
G37*
G36*
X114146232Y-64063746D02*
G01*
X114325308Y-64118068D01*
X114407826Y-64162175D01*
X114490344Y-64206281D01*
X114635001Y-64324999D01*
X114753719Y-64469656D01*
X114771514Y-64502949D01*
X114841932Y-64634692D01*
X114896254Y-64813768D01*
X114914596Y-65000000D01*
X114896254Y-65186232D01*
X114841932Y-65365308D01*
X114820852Y-65404746D01*
X114753719Y-65530344D01*
X114635001Y-65675001D01*
X114490344Y-65793719D01*
X114407826Y-65837825D01*
X114325308Y-65881932D01*
X114146232Y-65936254D01*
X114006666Y-65950000D01*
X113913334Y-65950000D01*
X113773768Y-65936254D01*
X113594692Y-65881932D01*
X113512173Y-65837825D01*
X113429656Y-65793719D01*
X113284999Y-65675001D01*
X113166281Y-65530344D01*
X113099148Y-65404746D01*
X113078068Y-65365308D01*
X113023746Y-65186232D01*
X113005404Y-65000000D01*
X113023746Y-64813768D01*
X113078068Y-64634692D01*
X113148486Y-64502949D01*
X113166281Y-64469656D01*
X113284999Y-64324999D01*
X113429656Y-64206281D01*
X113512174Y-64162175D01*
X113594692Y-64118068D01*
X113773768Y-64063746D01*
X113913334Y-64050000D01*
X114006666Y-64050000D01*
X114146232Y-64063746D01*
X114146232Y-64063746D01*
G37*
G36*
X116686232Y-64063746D02*
G01*
X116865308Y-64118068D01*
X116947826Y-64162175D01*
X117030344Y-64206281D01*
X117175001Y-64324999D01*
X117293719Y-64469656D01*
X117311514Y-64502949D01*
X117381932Y-64634692D01*
X117436254Y-64813768D01*
X117454596Y-65000000D01*
X117436254Y-65186232D01*
X117381932Y-65365308D01*
X117360852Y-65404746D01*
X117293719Y-65530344D01*
X117175001Y-65675001D01*
X117030344Y-65793719D01*
X116947826Y-65837825D01*
X116865308Y-65881932D01*
X116686232Y-65936254D01*
X116546666Y-65950000D01*
X116453334Y-65950000D01*
X116313768Y-65936254D01*
X116134692Y-65881932D01*
X116052173Y-65837825D01*
X115969656Y-65793719D01*
X115824999Y-65675001D01*
X115706281Y-65530344D01*
X115639148Y-65404746D01*
X115618068Y-65365308D01*
X115563746Y-65186232D01*
X115545404Y-65000000D01*
X115563746Y-64813768D01*
X115618068Y-64634692D01*
X115688486Y-64502949D01*
X115706281Y-64469656D01*
X115824999Y-64324999D01*
X115969656Y-64206281D01*
X116052174Y-64162175D01*
X116134692Y-64118068D01*
X116313768Y-64063746D01*
X116453334Y-64050000D01*
X116546666Y-64050000D01*
X116686232Y-64063746D01*
X116686232Y-64063746D01*
G37*
G36*
X119990000Y-65950000D02*
G01*
X118090000Y-65950000D01*
X118090000Y-64050000D01*
X119990000Y-64050000D01*
X119990000Y-65950000D01*
X119990000Y-65950000D01*
G37*
G36*
X142422948Y-62685722D02*
G01*
X142651115Y-62780232D01*
X142686833Y-62795027D01*
X142924321Y-62953711D01*
X143126289Y-63155679D01*
X143284973Y-63393167D01*
X143284974Y-63393169D01*
X143394278Y-63657052D01*
X143450000Y-63937186D01*
X143450000Y-64222814D01*
X143394278Y-64502948D01*
X143284974Y-64766831D01*
X143284973Y-64766833D01*
X143126289Y-65004321D01*
X142924321Y-65206289D01*
X142686833Y-65364973D01*
X142686832Y-65364974D01*
X142686831Y-65364974D01*
X142422948Y-65474278D01*
X142142814Y-65530000D01*
X141857186Y-65530000D01*
X141577052Y-65474278D01*
X141313169Y-65364974D01*
X141313168Y-65364974D01*
X141313167Y-65364973D01*
X141075679Y-65206289D01*
X140873711Y-65004321D01*
X140715027Y-64766833D01*
X140715026Y-64766831D01*
X140605722Y-64502948D01*
X140550000Y-64222814D01*
X140550000Y-63937186D01*
X140605722Y-63657052D01*
X140715026Y-63393169D01*
X140715027Y-63393167D01*
X140873711Y-63155679D01*
X141075679Y-62953711D01*
X141313167Y-62795027D01*
X141348885Y-62780232D01*
X141577052Y-62685722D01*
X141857186Y-62630000D01*
X142142814Y-62630000D01*
X142422948Y-62685722D01*
X142422948Y-62685722D01*
G37*
G36*
X109266608Y-62554613D02*
G01*
X109309298Y-62567564D01*
X109348632Y-62588588D01*
X109383114Y-62616886D01*
X109411412Y-62651368D01*
X109432436Y-62690702D01*
X109445387Y-62733392D01*
X109450000Y-62780232D01*
X109450000Y-65219768D01*
X109445387Y-65266608D01*
X109432436Y-65309298D01*
X109411412Y-65348632D01*
X109383114Y-65383114D01*
X109348632Y-65411412D01*
X109309298Y-65432436D01*
X109266608Y-65445387D01*
X109219768Y-65450000D01*
X106780232Y-65450000D01*
X106733392Y-65445387D01*
X106690702Y-65432436D01*
X106651368Y-65411412D01*
X106616886Y-65383114D01*
X106588588Y-65348632D01*
X106567564Y-65309298D01*
X106554613Y-65266608D01*
X106550000Y-65219768D01*
X106550000Y-62780232D01*
X106554613Y-62733392D01*
X106567564Y-62690702D01*
X106588588Y-62651368D01*
X106616886Y-62616886D01*
X106651368Y-62588588D01*
X106690702Y-62567564D01*
X106733392Y-62554613D01*
X106780232Y-62550000D01*
X109219768Y-62550000D01*
X109266608Y-62554613D01*
X109266608Y-62554613D01*
G37*
G36*
X125634107Y-62530091D02*
G01*
X125681451Y-62544453D01*
X125725088Y-62567778D01*
X125763334Y-62599166D01*
X125794722Y-62637412D01*
X125818047Y-62681049D01*
X125832409Y-62728393D01*
X125837500Y-62780086D01*
X125837500Y-64219914D01*
X125832409Y-64271607D01*
X125818047Y-64318951D01*
X125794722Y-64362588D01*
X125763334Y-64400834D01*
X125725088Y-64432222D01*
X125681451Y-64455547D01*
X125634107Y-64469909D01*
X125582414Y-64475000D01*
X124467586Y-64475000D01*
X124415893Y-64469909D01*
X124368549Y-64455547D01*
X124324912Y-64432222D01*
X124286666Y-64400834D01*
X124255278Y-64362588D01*
X124231953Y-64318951D01*
X124217591Y-64271607D01*
X124212500Y-64219914D01*
X124212500Y-62780086D01*
X124217591Y-62728393D01*
X124231953Y-62681049D01*
X124255278Y-62637412D01*
X124286666Y-62599166D01*
X124324912Y-62567778D01*
X124368549Y-62544453D01*
X124415893Y-62530091D01*
X124467586Y-62525000D01*
X125582414Y-62525000D01*
X125634107Y-62530091D01*
X125634107Y-62530091D01*
G37*
G36*
X128609107Y-62530091D02*
G01*
X128656451Y-62544453D01*
X128700088Y-62567778D01*
X128738334Y-62599166D01*
X128769722Y-62637412D01*
X128793047Y-62681049D01*
X128807409Y-62728393D01*
X128812500Y-62780086D01*
X128812500Y-64219914D01*
X128807409Y-64271607D01*
X128793047Y-64318951D01*
X128769722Y-64362588D01*
X128738334Y-64400834D01*
X128700088Y-64432222D01*
X128656451Y-64455547D01*
X128609107Y-64469909D01*
X128557414Y-64475000D01*
X127442586Y-64475000D01*
X127390893Y-64469909D01*
X127343549Y-64455547D01*
X127299912Y-64432222D01*
X127261666Y-64400834D01*
X127230278Y-64362588D01*
X127206953Y-64318951D01*
X127192591Y-64271607D01*
X127187500Y-64219914D01*
X127187500Y-62780086D01*
X127192591Y-62728393D01*
X127206953Y-62681049D01*
X127230278Y-62637412D01*
X127261666Y-62599166D01*
X127299912Y-62567778D01*
X127343549Y-62544453D01*
X127390893Y-62530091D01*
X127442586Y-62525000D01*
X128557414Y-62525000D01*
X128609107Y-62530091D01*
X128609107Y-62530091D01*
G37*
G36*
X142422948Y-58725722D02*
G01*
X142686831Y-58835026D01*
X142686833Y-58835027D01*
X142924321Y-58993711D01*
X143126289Y-59195679D01*
X143284973Y-59433167D01*
X143284974Y-59433169D01*
X143394278Y-59697052D01*
X143450000Y-59977186D01*
X143450000Y-60262814D01*
X143394278Y-60542948D01*
X143284974Y-60806831D01*
X143284973Y-60806833D01*
X143126289Y-61044321D01*
X142924321Y-61246289D01*
X142686833Y-61404973D01*
X142686832Y-61404974D01*
X142686831Y-61404974D01*
X142422948Y-61514278D01*
X142142814Y-61570000D01*
X141857186Y-61570000D01*
X141577052Y-61514278D01*
X141313169Y-61404974D01*
X141313168Y-61404974D01*
X141313167Y-61404973D01*
X141075679Y-61246289D01*
X140873711Y-61044321D01*
X140715027Y-60806833D01*
X140715026Y-60806831D01*
X140605722Y-60542948D01*
X140550000Y-60262814D01*
X140550000Y-59977186D01*
X140605722Y-59697052D01*
X140715026Y-59433169D01*
X140715027Y-59433167D01*
X140873711Y-59195679D01*
X141075679Y-58993711D01*
X141313167Y-58835027D01*
X141313169Y-58835026D01*
X141577052Y-58725722D01*
X141857186Y-58670000D01*
X142142814Y-58670000D01*
X142422948Y-58725722D01*
X142422948Y-58725722D01*
G37*
G36*
X129186232Y-55938746D02*
G01*
X129365308Y-55993068D01*
X129447827Y-56037175D01*
X129530344Y-56081281D01*
X129675001Y-56199999D01*
X129793719Y-56344656D01*
X129837825Y-56427173D01*
X129881932Y-56509692D01*
X129936254Y-56688769D01*
X129950000Y-56828336D01*
X129950000Y-57171665D01*
X129936254Y-57311232D01*
X129881932Y-57490308D01*
X129881931Y-57490309D01*
X129793719Y-57655344D01*
X129675001Y-57800001D01*
X129530344Y-57918719D01*
X129470284Y-57950821D01*
X129365307Y-58006932D01*
X129186231Y-58061254D01*
X129000000Y-58079596D01*
X128813768Y-58061254D01*
X128788968Y-58053731D01*
X128634692Y-58006932D01*
X128552174Y-57962825D01*
X128469656Y-57918719D01*
X128324999Y-57800001D01*
X128206281Y-57655344D01*
X128162175Y-57572826D01*
X128118068Y-57490307D01*
X128063746Y-57311231D01*
X128050000Y-57171664D01*
X128050000Y-56828335D01*
X128063746Y-56688768D01*
X128118068Y-56509692D01*
X128206282Y-56344655D01*
X128324999Y-56199999D01*
X128469656Y-56081282D01*
X128469655Y-56081282D01*
X128469657Y-56081281D01*
X128552174Y-56037175D01*
X128634693Y-55993068D01*
X128813769Y-55938746D01*
X129000000Y-55920404D01*
X129186232Y-55938746D01*
X129186232Y-55938746D01*
G37*
G36*
X131686232Y-55938746D02*
G01*
X131865308Y-55993068D01*
X131947827Y-56037175D01*
X132030344Y-56081281D01*
X132175001Y-56199999D01*
X132293719Y-56344656D01*
X132337825Y-56427173D01*
X132381932Y-56509692D01*
X132436254Y-56688769D01*
X132450000Y-56828336D01*
X132450000Y-57171665D01*
X132436254Y-57311232D01*
X132381932Y-57490308D01*
X132381931Y-57490309D01*
X132293719Y-57655344D01*
X132175001Y-57800001D01*
X132030344Y-57918719D01*
X131970284Y-57950821D01*
X131865307Y-58006932D01*
X131711031Y-58053731D01*
X131686231Y-58061254D01*
X131500000Y-58079596D01*
X131313768Y-58061254D01*
X131134692Y-58006932D01*
X131052174Y-57962825D01*
X130969656Y-57918719D01*
X130824999Y-57800001D01*
X130706281Y-57655344D01*
X130662175Y-57572826D01*
X130618068Y-57490307D01*
X130563746Y-57311231D01*
X130550000Y-57171664D01*
X130550000Y-56828335D01*
X130563746Y-56688768D01*
X130618068Y-56509692D01*
X130706282Y-56344655D01*
X130824999Y-56199999D01*
X130969656Y-56081282D01*
X130969655Y-56081282D01*
X130969657Y-56081281D01*
X131052174Y-56037175D01*
X131134693Y-55993068D01*
X131313769Y-55938746D01*
X131500000Y-55920404D01*
X131686232Y-55938746D01*
X131686232Y-55938746D01*
G37*
G36*
X117686232Y-55938746D02*
G01*
X117865308Y-55993068D01*
X117947827Y-56037175D01*
X118030344Y-56081281D01*
X118175001Y-56199999D01*
X118293719Y-56344656D01*
X118337825Y-56427173D01*
X118381932Y-56509692D01*
X118436254Y-56688769D01*
X118450000Y-56828336D01*
X118450000Y-57171665D01*
X118436254Y-57311232D01*
X118381932Y-57490308D01*
X118381931Y-57490309D01*
X118293719Y-57655344D01*
X118175001Y-57800001D01*
X118030344Y-57918719D01*
X117970284Y-57950821D01*
X117865307Y-58006932D01*
X117686231Y-58061254D01*
X117500000Y-58079596D01*
X117313768Y-58061254D01*
X117288968Y-58053731D01*
X117134692Y-58006932D01*
X117052174Y-57962825D01*
X116969656Y-57918719D01*
X116824999Y-57800001D01*
X116706281Y-57655344D01*
X116662175Y-57572826D01*
X116618068Y-57490307D01*
X116563746Y-57311231D01*
X116550000Y-57171664D01*
X116550000Y-56828335D01*
X116563746Y-56688768D01*
X116618068Y-56509692D01*
X116706282Y-56344655D01*
X116824999Y-56199999D01*
X116969656Y-56081282D01*
X116969655Y-56081282D01*
X116969657Y-56081281D01*
X117052174Y-56037175D01*
X117134693Y-55993068D01*
X117313769Y-55938746D01*
X117500000Y-55920404D01*
X117686232Y-55938746D01*
X117686232Y-55938746D01*
G37*
G36*
X115186232Y-55938746D02*
G01*
X115365308Y-55993068D01*
X115447827Y-56037175D01*
X115530344Y-56081281D01*
X115675001Y-56199999D01*
X115793719Y-56344656D01*
X115837825Y-56427173D01*
X115881932Y-56509692D01*
X115936254Y-56688769D01*
X115950000Y-56828336D01*
X115950000Y-57171665D01*
X115936254Y-57311232D01*
X115881932Y-57490308D01*
X115881931Y-57490309D01*
X115793719Y-57655344D01*
X115675001Y-57800001D01*
X115530344Y-57918719D01*
X115470284Y-57950821D01*
X115365307Y-58006932D01*
X115186231Y-58061254D01*
X115000000Y-58079596D01*
X114813768Y-58061254D01*
X114788968Y-58053731D01*
X114634692Y-58006932D01*
X114552174Y-57962825D01*
X114469656Y-57918719D01*
X114324999Y-57800001D01*
X114206281Y-57655344D01*
X114162175Y-57572826D01*
X114118068Y-57490307D01*
X114063746Y-57311231D01*
X114050000Y-57171664D01*
X114050000Y-56828335D01*
X114063746Y-56688768D01*
X114118068Y-56509692D01*
X114206282Y-56344655D01*
X114324999Y-56199999D01*
X114469656Y-56081282D01*
X114469655Y-56081282D01*
X114469657Y-56081281D01*
X114552174Y-56037175D01*
X114634693Y-55993068D01*
X114813769Y-55938746D01*
X115000000Y-55920404D01*
X115186232Y-55938746D01*
X115186232Y-55938746D01*
G37*
G36*
X112686232Y-55938746D02*
G01*
X112865308Y-55993068D01*
X112947827Y-56037175D01*
X113030344Y-56081281D01*
X113175001Y-56199999D01*
X113293719Y-56344656D01*
X113337825Y-56427173D01*
X113381932Y-56509692D01*
X113436254Y-56688769D01*
X113450000Y-56828336D01*
X113450000Y-57171665D01*
X113436254Y-57311232D01*
X113381932Y-57490308D01*
X113381931Y-57490309D01*
X113293719Y-57655344D01*
X113175001Y-57800001D01*
X113030344Y-57918719D01*
X112970284Y-57950821D01*
X112865307Y-58006932D01*
X112686231Y-58061254D01*
X112500000Y-58079596D01*
X112313768Y-58061254D01*
X112288968Y-58053731D01*
X112134692Y-58006932D01*
X112052174Y-57962825D01*
X111969656Y-57918719D01*
X111824999Y-57800001D01*
X111706281Y-57655344D01*
X111662175Y-57572826D01*
X111618068Y-57490307D01*
X111563746Y-57311231D01*
X111550000Y-57171664D01*
X111550000Y-56828335D01*
X111563746Y-56688768D01*
X111618068Y-56509692D01*
X111706282Y-56344655D01*
X111824999Y-56199999D01*
X111969656Y-56081282D01*
X111969655Y-56081282D01*
X111969657Y-56081281D01*
X112052174Y-56037175D01*
X112134693Y-55993068D01*
X112313769Y-55938746D01*
X112500000Y-55920404D01*
X112686232Y-55938746D01*
X112686232Y-55938746D01*
G37*
G36*
X134753458Y-55929927D02*
G01*
X134799209Y-55943805D01*
X134841372Y-55966343D01*
X134878328Y-55996672D01*
X134908657Y-56033628D01*
X134931195Y-56075791D01*
X134945073Y-56121542D01*
X134950000Y-56171571D01*
X134950000Y-57828429D01*
X134945073Y-57878458D01*
X134931195Y-57924209D01*
X134908657Y-57966372D01*
X134878328Y-58003328D01*
X134841372Y-58033657D01*
X134799209Y-58056195D01*
X134753458Y-58070073D01*
X134703429Y-58075000D01*
X133296571Y-58075000D01*
X133246542Y-58070073D01*
X133200791Y-58056195D01*
X133158628Y-58033657D01*
X133121672Y-58003328D01*
X133091343Y-57966372D01*
X133068805Y-57924209D01*
X133054927Y-57878458D01*
X133050000Y-57828429D01*
X133050000Y-56171571D01*
X133054927Y-56121542D01*
X133068805Y-56075791D01*
X133091343Y-56033628D01*
X133121672Y-55996672D01*
X133158628Y-55966343D01*
X133200791Y-55943805D01*
X133246542Y-55929927D01*
X133296571Y-55925000D01*
X134703429Y-55925000D01*
X134753458Y-55929927D01*
X134753458Y-55929927D01*
G37*
G36*
X120753458Y-55929927D02*
G01*
X120799209Y-55943805D01*
X120841372Y-55966343D01*
X120878328Y-55996672D01*
X120908657Y-56033628D01*
X120931195Y-56075791D01*
X120945073Y-56121542D01*
X120950000Y-56171571D01*
X120950000Y-57828429D01*
X120945073Y-57878458D01*
X120931195Y-57924209D01*
X120908657Y-57966372D01*
X120878328Y-58003328D01*
X120841372Y-58033657D01*
X120799209Y-58056195D01*
X120753458Y-58070073D01*
X120703429Y-58075000D01*
X119296571Y-58075000D01*
X119246542Y-58070073D01*
X119200791Y-58056195D01*
X119158628Y-58033657D01*
X119121672Y-58003328D01*
X119091343Y-57966372D01*
X119068805Y-57924209D01*
X119054927Y-57878458D01*
X119050000Y-57828429D01*
X119050000Y-56171571D01*
X119054927Y-56121542D01*
X119068805Y-56075791D01*
X119091343Y-56033628D01*
X119121672Y-55996672D01*
X119158628Y-55966343D01*
X119200791Y-55943805D01*
X119246542Y-55929927D01*
X119296571Y-55925000D01*
X120703429Y-55925000D01*
X120753458Y-55929927D01*
X120753458Y-55929927D01*
G37*
G36*
X146350025Y-52846115D02*
G01*
X146350028Y-52846116D01*
X146350027Y-52846116D01*
X146568413Y-52936574D01*
X146764955Y-53067899D01*
X146932101Y-53235045D01*
X147063426Y-53431587D01*
X147063427Y-53431589D01*
X147153885Y-53649975D01*
X147200000Y-53881809D01*
X147200000Y-54118191D01*
X147153885Y-54350025D01*
X147153884Y-54350027D01*
X147063426Y-54568413D01*
X146932101Y-54764955D01*
X146764955Y-54932101D01*
X146568413Y-55063426D01*
X146568412Y-55063427D01*
X146568411Y-55063427D01*
X146350025Y-55153885D01*
X146118191Y-55200000D01*
X145881809Y-55200000D01*
X145649975Y-55153885D01*
X145431589Y-55063427D01*
X145431588Y-55063427D01*
X145431587Y-55063426D01*
X145235045Y-54932101D01*
X145067899Y-54764955D01*
X144936574Y-54568413D01*
X144846116Y-54350027D01*
X144846115Y-54350025D01*
X144800000Y-54118191D01*
X144800000Y-53881809D01*
X144846115Y-53649975D01*
X144936573Y-53431589D01*
X144936574Y-53431587D01*
X145067899Y-53235045D01*
X145235045Y-53067899D01*
X145431587Y-52936574D01*
X145649973Y-52846116D01*
X145649972Y-52846116D01*
X145649975Y-52846115D01*
X145881809Y-52800000D01*
X146118191Y-52800000D01*
X146350025Y-52846115D01*
X146350025Y-52846115D01*
G37*
G36*
X104350025Y-52846115D02*
G01*
X104350028Y-52846116D01*
X104350027Y-52846116D01*
X104568413Y-52936574D01*
X104764955Y-53067899D01*
X104932101Y-53235045D01*
X105063426Y-53431587D01*
X105063427Y-53431589D01*
X105153885Y-53649975D01*
X105200000Y-53881809D01*
X105200000Y-54118191D01*
X105153885Y-54350025D01*
X105153884Y-54350027D01*
X105063426Y-54568413D01*
X104932101Y-54764955D01*
X104764955Y-54932101D01*
X104568413Y-55063426D01*
X104568412Y-55063427D01*
X104568411Y-55063427D01*
X104350025Y-55153885D01*
X104118191Y-55200000D01*
X103881809Y-55200000D01*
X103649975Y-55153885D01*
X103431589Y-55063427D01*
X103431588Y-55063427D01*
X103431587Y-55063426D01*
X103235045Y-54932101D01*
X103067899Y-54764955D01*
X102936574Y-54568413D01*
X102846116Y-54350027D01*
X102846115Y-54350025D01*
X102800000Y-54118191D01*
X102800000Y-53881809D01*
X102846115Y-53649975D01*
X102936573Y-53431589D01*
X102936574Y-53431587D01*
X103067899Y-53235045D01*
X103235045Y-53067899D01*
X103431587Y-52936574D01*
X103649973Y-52846116D01*
X103649972Y-52846116D01*
X103649975Y-52846115D01*
X103881809Y-52800000D01*
X104118191Y-52800000D01*
X104350025Y-52846115D01*
X104350025Y-52846115D01*
G37*
M02*
