G04 #@! TF.GenerationSoftware,KiCad,Pcbnew,(5.1.4)-1*
G04 #@! TF.CreationDate,2020-03-16T01:27:38+09:00*
G04 #@! TF.ProjectId,QX20CTRLV3,51583230-4354-4524-9c56-332e6b696361,rev?*
G04 #@! TF.SameCoordinates,Original*
G04 #@! TF.FileFunction,Legend,Top*
G04 #@! TF.FilePolarity,Positive*
%FSLAX46Y46*%
G04 Gerber Fmt 4.6, Leading zero omitted, Abs format (unit mm)*
G04 Created by KiCad (PCBNEW (5.1.4)-1) date 2020-03-16 01:27:38*
%MOMM*%
%LPD*%
G04 APERTURE LIST*
%ADD10C,0.200000*%
%ADD11C,0.120000*%
%ADD12C,0.150000*%
G04 APERTURE END LIST*
D10*
X135821428Y-74212232D02*
X135750000Y-74331874D01*
X135607142Y-74442589D01*
X135392857Y-74608660D01*
X135321428Y-74728303D01*
X135321428Y-74856874D01*
X135678571Y-74837232D02*
X135607142Y-74956874D01*
X135464285Y-75067589D01*
X135178571Y-75096160D01*
X134678571Y-75033660D01*
X134392857Y-74933660D01*
X134250000Y-74787232D01*
X134178571Y-74649732D01*
X134178571Y-74392589D01*
X134250000Y-74272946D01*
X134392857Y-74162232D01*
X134678571Y-74133660D01*
X135178571Y-74196160D01*
X135464285Y-74296160D01*
X135607142Y-74442589D01*
X135678571Y-74580089D01*
X135678571Y-74837232D01*
X134178571Y-73621160D02*
X135678571Y-72908660D01*
X134178571Y-72721160D02*
X135678571Y-73808660D01*
X134321428Y-72289017D02*
X134250000Y-72215803D01*
X134178571Y-72078303D01*
X134178571Y-71756874D01*
X134250000Y-71637232D01*
X134321428Y-71581874D01*
X134464285Y-71535446D01*
X134607142Y-71553303D01*
X134821428Y-71644374D01*
X135678571Y-72522946D01*
X135678571Y-71687232D01*
X134178571Y-70664017D02*
X134178571Y-70535446D01*
X134250000Y-70415803D01*
X134321428Y-70360446D01*
X134464285Y-70314017D01*
X134750000Y-70285446D01*
X135107142Y-70330089D01*
X135392857Y-70430089D01*
X135535714Y-70512232D01*
X135607142Y-70585446D01*
X135678571Y-70722946D01*
X135678571Y-70851517D01*
X135607142Y-70971160D01*
X135535714Y-71026517D01*
X135392857Y-71072946D01*
X135107142Y-71101517D01*
X134750000Y-71056874D01*
X134464285Y-70956874D01*
X134321428Y-70874732D01*
X134250000Y-70801517D01*
X134178571Y-70664017D01*
X135535714Y-69033660D02*
X135607142Y-69106875D01*
X135678571Y-69308660D01*
X135678571Y-69437232D01*
X135607142Y-69621160D01*
X135464285Y-69731875D01*
X135321428Y-69778303D01*
X135035714Y-69806874D01*
X134821428Y-69780089D01*
X134535714Y-69680089D01*
X134392857Y-69597946D01*
X134250000Y-69451517D01*
X134178571Y-69249732D01*
X134178571Y-69121160D01*
X134250000Y-68937232D01*
X134321428Y-68881875D01*
X134178571Y-68478303D02*
X134178571Y-67706875D01*
X135678571Y-68280089D02*
X134178571Y-68092589D01*
X135678571Y-66672946D02*
X134964285Y-67033660D01*
X135678571Y-67444375D02*
X134178571Y-67256875D01*
X134178571Y-66742589D01*
X134250000Y-66622946D01*
X134321428Y-66567589D01*
X134464285Y-66521160D01*
X134678571Y-66547946D01*
X134821428Y-66630089D01*
X134892857Y-66703303D01*
X134964285Y-66840803D01*
X134964285Y-67355089D01*
X135678571Y-65451517D02*
X135678571Y-66094375D01*
X134178571Y-65906875D01*
X134178571Y-65006875D02*
X135678571Y-64744375D01*
X134178571Y-64106875D01*
X134178571Y-63785446D02*
X134178571Y-62949732D01*
X134750000Y-63471160D01*
X134750000Y-63278303D01*
X134821428Y-63158660D01*
X134892857Y-63103303D01*
X135035714Y-63056875D01*
X135392857Y-63101517D01*
X135535714Y-63183660D01*
X135607142Y-63256875D01*
X135678571Y-63394375D01*
X135678571Y-63780089D01*
X135607142Y-63899732D01*
X135535714Y-63955089D01*
D11*
X104110000Y-61940000D02*
X104110000Y-73980000D01*
X104110000Y-75940000D02*
X104110000Y-87980000D01*
X145890000Y-74060000D02*
X145890000Y-58060000D01*
X145890000Y-92060000D02*
X145890000Y-76060000D01*
X137500000Y-96500000D02*
X139000000Y-96500000D01*
X139000000Y-96500000D02*
X139000000Y-98000000D01*
X139000000Y-98000000D02*
X137500000Y-98000000D01*
X137500000Y-98000000D02*
X137500000Y-96500000D01*
X138250000Y-97250000D02*
X138250000Y-87250000D01*
X113150000Y-88750000D02*
X113150000Y-90000000D01*
X114400000Y-88750000D02*
X113150000Y-88750000D01*
X127800000Y-94250000D02*
X121000000Y-94250000D01*
X127800000Y-91300000D02*
X127800000Y-94250000D01*
X128550000Y-91300000D02*
X127800000Y-91300000D01*
X114200000Y-94250000D02*
X121000000Y-94250000D01*
X114200000Y-91300000D02*
X114200000Y-94250000D01*
X113450000Y-91300000D02*
X114200000Y-91300000D01*
X128550000Y-89050000D02*
X126750000Y-89050000D01*
X128550000Y-89800000D02*
X128550000Y-89050000D01*
X126750000Y-89800000D02*
X128550000Y-89800000D01*
X126750000Y-89050000D02*
X126750000Y-89800000D01*
X115250000Y-89050000D02*
X113450000Y-89050000D01*
X115250000Y-89800000D02*
X115250000Y-89050000D01*
X113450000Y-89800000D02*
X115250000Y-89800000D01*
X113450000Y-89050000D02*
X113450000Y-89800000D01*
X125250000Y-89050000D02*
X116750000Y-89050000D01*
X125250000Y-89800000D02*
X125250000Y-89050000D01*
X116750000Y-89800000D02*
X125250000Y-89800000D01*
X116750000Y-89050000D02*
X116750000Y-89800000D01*
X128560000Y-89040000D02*
X113440000Y-89040000D01*
X128560000Y-95010000D02*
X128560000Y-89040000D01*
X113440000Y-95010000D02*
X128560000Y-95010000D01*
X113440000Y-89040000D02*
X113440000Y-95010000D01*
X122850000Y-59750000D02*
X122850000Y-58500000D01*
X121600000Y-59750000D02*
X122850000Y-59750000D01*
X110700000Y-54250000D02*
X116250000Y-54250000D01*
X110700000Y-57200000D02*
X110700000Y-54250000D01*
X109950000Y-57200000D02*
X110700000Y-57200000D01*
X121800000Y-54250000D02*
X116250000Y-54250000D01*
X121800000Y-57200000D02*
X121800000Y-54250000D01*
X122550000Y-57200000D02*
X121800000Y-57200000D01*
X109950000Y-59450000D02*
X111750000Y-59450000D01*
X109950000Y-58700000D02*
X109950000Y-59450000D01*
X111750000Y-58700000D02*
X109950000Y-58700000D01*
X111750000Y-59450000D02*
X111750000Y-58700000D01*
X120750000Y-59450000D02*
X122550000Y-59450000D01*
X120750000Y-58700000D02*
X120750000Y-59450000D01*
X122550000Y-58700000D02*
X120750000Y-58700000D01*
X122550000Y-59450000D02*
X122550000Y-58700000D01*
X113250000Y-59450000D02*
X119250000Y-59450000D01*
X113250000Y-58700000D02*
X113250000Y-59450000D01*
X119250000Y-58700000D02*
X113250000Y-58700000D01*
X119250000Y-59450000D02*
X119250000Y-58700000D01*
X109940000Y-59460000D02*
X122560000Y-59460000D01*
X109940000Y-53490000D02*
X109940000Y-59460000D01*
X122560000Y-53490000D02*
X109940000Y-53490000D01*
X122560000Y-59460000D02*
X122560000Y-53490000D01*
X136850000Y-59750000D02*
X136850000Y-58500000D01*
X135600000Y-59750000D02*
X136850000Y-59750000D01*
X127200000Y-54250000D02*
X131500000Y-54250000D01*
X127200000Y-57200000D02*
X127200000Y-54250000D01*
X126450000Y-57200000D02*
X127200000Y-57200000D01*
X135800000Y-54250000D02*
X131500000Y-54250000D01*
X135800000Y-57200000D02*
X135800000Y-54250000D01*
X136550000Y-57200000D02*
X135800000Y-57200000D01*
X126450000Y-59450000D02*
X128250000Y-59450000D01*
X126450000Y-58700000D02*
X126450000Y-59450000D01*
X128250000Y-58700000D02*
X126450000Y-58700000D01*
X128250000Y-59450000D02*
X128250000Y-58700000D01*
X134750000Y-59450000D02*
X136550000Y-59450000D01*
X134750000Y-58700000D02*
X134750000Y-59450000D01*
X136550000Y-58700000D02*
X134750000Y-58700000D01*
X136550000Y-59450000D02*
X136550000Y-58700000D01*
X129750000Y-59450000D02*
X133250000Y-59450000D01*
X129750000Y-58700000D02*
X129750000Y-59450000D01*
X133250000Y-58700000D02*
X129750000Y-58700000D01*
X133250000Y-59450000D02*
X133250000Y-58700000D01*
X126440000Y-59460000D02*
X136560000Y-59460000D01*
X126440000Y-53490000D02*
X126440000Y-59460000D01*
X136560000Y-53490000D02*
X126440000Y-53490000D01*
X136560000Y-59460000D02*
X136560000Y-53490000D01*
X120565000Y-73990000D02*
X119250000Y-73990000D01*
X120565000Y-73690000D02*
X120565000Y-73990000D01*
X120865000Y-73690000D02*
X120565000Y-73690000D01*
X127785000Y-73690000D02*
X127785000Y-73990000D01*
X127485000Y-73690000D02*
X127785000Y-73690000D01*
X120565000Y-80910000D02*
X120565000Y-80610000D01*
X120865000Y-80910000D02*
X120565000Y-80910000D01*
X127785000Y-80910000D02*
X127785000Y-80610000D01*
X127485000Y-80910000D02*
X127785000Y-80910000D01*
X120370000Y-63670000D02*
X120370000Y-65000000D01*
X119040000Y-63670000D02*
X120370000Y-63670000D01*
X117770000Y-63670000D02*
X117770000Y-66330000D01*
X117770000Y-66330000D02*
X112630000Y-66330000D01*
X117770000Y-63670000D02*
X112630000Y-63670000D01*
X112630000Y-63670000D02*
X112630000Y-66330000D01*
X125910436Y-64410000D02*
X127114564Y-64410000D01*
X125910436Y-62590000D02*
X127114564Y-62590000D01*
X119114564Y-68090000D02*
X117910436Y-68090000D01*
X119114564Y-69910000D02*
X117910436Y-69910000D01*
X136240000Y-78420000D02*
X137700000Y-78420000D01*
X136240000Y-81580000D02*
X138400000Y-81580000D01*
X136240000Y-81580000D02*
X136240000Y-80650000D01*
X136240000Y-78420000D02*
X136240000Y-79350000D01*
X126865000Y-66052500D02*
X126865000Y-70112500D01*
X129135000Y-66052500D02*
X126865000Y-66052500D01*
X129135000Y-70112500D02*
X129135000Y-66052500D01*
X129590000Y-83910436D02*
X129590000Y-85114564D01*
X131410000Y-83910436D02*
X131410000Y-85114564D01*
D12*
X114833333Y-78632380D02*
X114500000Y-78156190D01*
X114261904Y-78632380D02*
X114261904Y-77632380D01*
X114642857Y-77632380D01*
X114738095Y-77680000D01*
X114785714Y-77727619D01*
X114833333Y-77822857D01*
X114833333Y-77965714D01*
X114785714Y-78060952D01*
X114738095Y-78108571D01*
X114642857Y-78156190D01*
X114261904Y-78156190D01*
X115166666Y-77632380D02*
X115785714Y-77632380D01*
X115452380Y-78013333D01*
X115595238Y-78013333D01*
X115690476Y-78060952D01*
X115738095Y-78108571D01*
X115785714Y-78203809D01*
X115785714Y-78441904D01*
X115738095Y-78537142D01*
X115690476Y-78584761D01*
X115595238Y-78632380D01*
X115309523Y-78632380D01*
X115214285Y-78584761D01*
X115166666Y-78537142D01*
X114833333Y-85452380D02*
X114500000Y-84976190D01*
X114261904Y-85452380D02*
X114261904Y-84452380D01*
X114642857Y-84452380D01*
X114738095Y-84500000D01*
X114785714Y-84547619D01*
X114833333Y-84642857D01*
X114833333Y-84785714D01*
X114785714Y-84880952D01*
X114738095Y-84928571D01*
X114642857Y-84976190D01*
X114261904Y-84976190D01*
X115690476Y-84785714D02*
X115690476Y-85452380D01*
X115452380Y-84404761D02*
X115214285Y-85119047D01*
X115833333Y-85119047D01*
X111857142Y-73166666D02*
X111904761Y-73214285D01*
X111952380Y-73357142D01*
X111952380Y-73452380D01*
X111904761Y-73595238D01*
X111809523Y-73690476D01*
X111714285Y-73738095D01*
X111523809Y-73785714D01*
X111380952Y-73785714D01*
X111190476Y-73738095D01*
X111095238Y-73690476D01*
X111000000Y-73595238D01*
X110952380Y-73452380D01*
X110952380Y-73357142D01*
X111000000Y-73214285D01*
X111047619Y-73166666D01*
X111285714Y-72309523D02*
X111952380Y-72309523D01*
X110904761Y-72547619D02*
X111619047Y-72785714D01*
X111619047Y-72166666D01*
X111857142Y-76416666D02*
X111904761Y-76464285D01*
X111952380Y-76607142D01*
X111952380Y-76702380D01*
X111904761Y-76845238D01*
X111809523Y-76940476D01*
X111714285Y-76988095D01*
X111523809Y-77035714D01*
X111380952Y-77035714D01*
X111190476Y-76988095D01*
X111095238Y-76940476D01*
X111000000Y-76845238D01*
X110952380Y-76702380D01*
X110952380Y-76607142D01*
X111000000Y-76464285D01*
X111047619Y-76416666D01*
X110952380Y-76083333D02*
X110952380Y-75464285D01*
X111333333Y-75797619D01*
X111333333Y-75654761D01*
X111380952Y-75559523D01*
X111428571Y-75511904D01*
X111523809Y-75464285D01*
X111761904Y-75464285D01*
X111857142Y-75511904D01*
X111904761Y-75559523D01*
X111952380Y-75654761D01*
X111952380Y-75940476D01*
X111904761Y-76035714D01*
X111857142Y-76083333D01*
X104452380Y-68293333D02*
X105166666Y-68293333D01*
X105309523Y-68340952D01*
X105404761Y-68436190D01*
X105452380Y-68579047D01*
X105452380Y-68674285D01*
X104452380Y-67912380D02*
X104452380Y-67293333D01*
X104833333Y-67626666D01*
X104833333Y-67483809D01*
X104880952Y-67388571D01*
X104928571Y-67340952D01*
X105023809Y-67293333D01*
X105261904Y-67293333D01*
X105357142Y-67340952D01*
X105404761Y-67388571D01*
X105452380Y-67483809D01*
X105452380Y-67769523D01*
X105404761Y-67864761D01*
X105357142Y-67912380D01*
X104452380Y-82333333D02*
X105166666Y-82333333D01*
X105309523Y-82380952D01*
X105404761Y-82476190D01*
X105452380Y-82619047D01*
X105452380Y-82714285D01*
X104785714Y-81428571D02*
X105452380Y-81428571D01*
X104404761Y-81666666D02*
X105119047Y-81904761D01*
X105119047Y-81285714D01*
X144452380Y-66333333D02*
X145166666Y-66333333D01*
X145309523Y-66380952D01*
X145404761Y-66476190D01*
X145452380Y-66619047D01*
X145452380Y-66714285D01*
X144547619Y-65904761D02*
X144500000Y-65857142D01*
X144452380Y-65761904D01*
X144452380Y-65523809D01*
X144500000Y-65428571D01*
X144547619Y-65380952D01*
X144642857Y-65333333D01*
X144738095Y-65333333D01*
X144880952Y-65380952D01*
X145452380Y-65952380D01*
X145452380Y-65333333D01*
X144452380Y-84333333D02*
X145166666Y-84333333D01*
X145309523Y-84380952D01*
X145404761Y-84476190D01*
X145452380Y-84619047D01*
X145452380Y-84714285D01*
X145452380Y-83333333D02*
X145452380Y-83904761D01*
X145452380Y-83619047D02*
X144452380Y-83619047D01*
X144595238Y-83714285D01*
X144690476Y-83809523D01*
X144738095Y-83904761D01*
X138702380Y-93511904D02*
X139511904Y-93511904D01*
X139607142Y-93464285D01*
X139654761Y-93416666D01*
X139702380Y-93321428D01*
X139702380Y-93130952D01*
X139654761Y-93035714D01*
X139607142Y-92988095D01*
X139511904Y-92940476D01*
X138702380Y-92940476D01*
X139702380Y-91940476D02*
X139702380Y-92511904D01*
X139702380Y-92226190D02*
X138702380Y-92226190D01*
X138845238Y-92321428D01*
X138940476Y-92416666D01*
X138988095Y-92511904D01*
X120666666Y-87402380D02*
X120666666Y-88116666D01*
X120619047Y-88259523D01*
X120523809Y-88354761D01*
X120380952Y-88402380D01*
X120285714Y-88402380D01*
X121047619Y-87402380D02*
X121714285Y-87402380D01*
X121285714Y-88402380D01*
X115916666Y-60002380D02*
X115916666Y-60716666D01*
X115869047Y-60859523D01*
X115773809Y-60954761D01*
X115630952Y-61002380D01*
X115535714Y-61002380D01*
X116821428Y-60002380D02*
X116630952Y-60002380D01*
X116535714Y-60050000D01*
X116488095Y-60097619D01*
X116392857Y-60240476D01*
X116345238Y-60430952D01*
X116345238Y-60811904D01*
X116392857Y-60907142D01*
X116440476Y-60954761D01*
X116535714Y-61002380D01*
X116726190Y-61002380D01*
X116821428Y-60954761D01*
X116869047Y-60907142D01*
X116916666Y-60811904D01*
X116916666Y-60573809D01*
X116869047Y-60478571D01*
X116821428Y-60430952D01*
X116726190Y-60383333D01*
X116535714Y-60383333D01*
X116440476Y-60430952D01*
X116392857Y-60478571D01*
X116345238Y-60573809D01*
X131166666Y-60002380D02*
X131166666Y-60716666D01*
X131119047Y-60859523D01*
X131023809Y-60954761D01*
X130880952Y-61002380D01*
X130785714Y-61002380D01*
X132119047Y-60002380D02*
X131642857Y-60002380D01*
X131595238Y-60478571D01*
X131642857Y-60430952D01*
X131738095Y-60383333D01*
X131976190Y-60383333D01*
X132071428Y-60430952D01*
X132119047Y-60478571D01*
X132166666Y-60573809D01*
X132166666Y-60811904D01*
X132119047Y-60907142D01*
X132071428Y-60954761D01*
X131976190Y-61002380D01*
X131738095Y-61002380D01*
X131642857Y-60954761D01*
X131595238Y-60907142D01*
X123413095Y-70872380D02*
X123413095Y-71681904D01*
X123460714Y-71777142D01*
X123508333Y-71824761D01*
X123603571Y-71872380D01*
X123794047Y-71872380D01*
X123889285Y-71824761D01*
X123936904Y-71777142D01*
X123984523Y-71681904D01*
X123984523Y-70872380D01*
X124413095Y-70967619D02*
X124460714Y-70920000D01*
X124555952Y-70872380D01*
X124794047Y-70872380D01*
X124889285Y-70920000D01*
X124936904Y-70967619D01*
X124984523Y-71062857D01*
X124984523Y-71158095D01*
X124936904Y-71300952D01*
X124365476Y-71872380D01*
X124984523Y-71872380D01*
X121774761Y-66333333D02*
X121822380Y-66190476D01*
X121822380Y-65952380D01*
X121774761Y-65857142D01*
X121727142Y-65809523D01*
X121631904Y-65761904D01*
X121536666Y-65761904D01*
X121441428Y-65809523D01*
X121393809Y-65857142D01*
X121346190Y-65952380D01*
X121298571Y-66142857D01*
X121250952Y-66238095D01*
X121203333Y-66285714D01*
X121108095Y-66333333D01*
X121012857Y-66333333D01*
X120917619Y-66285714D01*
X120870000Y-66238095D01*
X120822380Y-66142857D01*
X120822380Y-65904761D01*
X120870000Y-65761904D01*
X120822380Y-65428571D02*
X121822380Y-65190476D01*
X121108095Y-65000000D01*
X121822380Y-64809523D01*
X120822380Y-64571428D01*
X120917619Y-64238095D02*
X120870000Y-64190476D01*
X120822380Y-64095238D01*
X120822380Y-63857142D01*
X120870000Y-63761904D01*
X120917619Y-63714285D01*
X121012857Y-63666666D01*
X121108095Y-63666666D01*
X121250952Y-63714285D01*
X121822380Y-64285714D01*
X121822380Y-63666666D01*
X126345833Y-62132380D02*
X126012500Y-61656190D01*
X125774404Y-62132380D02*
X125774404Y-61132380D01*
X126155357Y-61132380D01*
X126250595Y-61180000D01*
X126298214Y-61227619D01*
X126345833Y-61322857D01*
X126345833Y-61465714D01*
X126298214Y-61560952D01*
X126250595Y-61608571D01*
X126155357Y-61656190D01*
X125774404Y-61656190D01*
X126726785Y-61227619D02*
X126774404Y-61180000D01*
X126869642Y-61132380D01*
X127107738Y-61132380D01*
X127202976Y-61180000D01*
X127250595Y-61227619D01*
X127298214Y-61322857D01*
X127298214Y-61418095D01*
X127250595Y-61560952D01*
X126679166Y-62132380D01*
X127298214Y-62132380D01*
X118345833Y-71272380D02*
X118012500Y-70796190D01*
X117774404Y-71272380D02*
X117774404Y-70272380D01*
X118155357Y-70272380D01*
X118250595Y-70320000D01*
X118298214Y-70367619D01*
X118345833Y-70462857D01*
X118345833Y-70605714D01*
X118298214Y-70700952D01*
X118250595Y-70748571D01*
X118155357Y-70796190D01*
X117774404Y-70796190D01*
X119298214Y-71272380D02*
X118726785Y-71272380D01*
X119012500Y-71272380D02*
X119012500Y-70272380D01*
X118917261Y-70415238D01*
X118822023Y-70510476D01*
X118726785Y-70558095D01*
X136261904Y-82952380D02*
X136261904Y-81952380D01*
X136500000Y-81952380D01*
X136642857Y-82000000D01*
X136738095Y-82095238D01*
X136785714Y-82190476D01*
X136833333Y-82380952D01*
X136833333Y-82523809D01*
X136785714Y-82714285D01*
X136738095Y-82809523D01*
X136642857Y-82904761D01*
X136500000Y-82952380D01*
X136261904Y-82952380D01*
X137166666Y-81952380D02*
X137785714Y-81952380D01*
X137452380Y-82333333D01*
X137595238Y-82333333D01*
X137690476Y-82380952D01*
X137738095Y-82428571D01*
X137785714Y-82523809D01*
X137785714Y-82761904D01*
X137738095Y-82857142D01*
X137690476Y-82904761D01*
X137595238Y-82952380D01*
X137309523Y-82952380D01*
X137214285Y-82904761D01*
X137166666Y-82857142D01*
X130272380Y-69250595D02*
X129272380Y-69250595D01*
X129272380Y-69012500D01*
X129320000Y-68869642D01*
X129415238Y-68774404D01*
X129510476Y-68726785D01*
X129700952Y-68679166D01*
X129843809Y-68679166D01*
X130034285Y-68726785D01*
X130129523Y-68774404D01*
X130224761Y-68869642D01*
X130272380Y-69012500D01*
X130272380Y-69250595D01*
X129367619Y-68298214D02*
X129320000Y-68250595D01*
X129272380Y-68155357D01*
X129272380Y-67917261D01*
X129320000Y-67822023D01*
X129367619Y-67774404D01*
X129462857Y-67726785D01*
X129558095Y-67726785D01*
X129700952Y-67774404D01*
X130272380Y-68345833D01*
X130272380Y-67726785D01*
X132677142Y-84679166D02*
X132724761Y-84726785D01*
X132772380Y-84869642D01*
X132772380Y-84964880D01*
X132724761Y-85107738D01*
X132629523Y-85202976D01*
X132534285Y-85250595D01*
X132343809Y-85298214D01*
X132200952Y-85298214D01*
X132010476Y-85250595D01*
X131915238Y-85202976D01*
X131820000Y-85107738D01*
X131772380Y-84964880D01*
X131772380Y-84869642D01*
X131820000Y-84726785D01*
X131867619Y-84679166D01*
X131772380Y-83822023D02*
X131772380Y-84012500D01*
X131820000Y-84107738D01*
X131867619Y-84155357D01*
X132010476Y-84250595D01*
X132200952Y-84298214D01*
X132581904Y-84298214D01*
X132677142Y-84250595D01*
X132724761Y-84202976D01*
X132772380Y-84107738D01*
X132772380Y-83917261D01*
X132724761Y-83822023D01*
X132677142Y-83774404D01*
X132581904Y-83726785D01*
X132343809Y-83726785D01*
X132248571Y-83774404D01*
X132200952Y-83822023D01*
X132153333Y-83917261D01*
X132153333Y-84107738D01*
X132200952Y-84202976D01*
X132248571Y-84250595D01*
X132343809Y-84298214D01*
M02*
