G04 #@! TF.GenerationSoftware,KiCad,Pcbnew,(5.1.4)-1*
G04 #@! TF.CreationDate,2020-03-16T01:27:38+09:00*
G04 #@! TF.ProjectId,QX20CTRLV3,51583230-4354-4524-9c56-332e6b696361,rev?*
G04 #@! TF.SameCoordinates,Original*
G04 #@! TF.FileFunction,Copper,L2,Bot*
G04 #@! TF.FilePolarity,Positive*
%FSLAX46Y46*%
G04 Gerber Fmt 4.6, Leading zero omitted, Abs format (unit mm)*
G04 Created by KiCad (PCBNEW (5.1.4)-1) date 2020-03-16 01:27:38*
%MOMM*%
%LPD*%
G04 APERTURE LIST*
%ADD10C,2.700000*%
%ADD11C,0.100000*%
%ADD12O,2.000000X1.905000*%
%ADD13R,2.000000X1.905000*%
%ADD14O,1.700000X1.950000*%
%ADD15C,1.700000*%
%ADD16C,0.600000*%
%ADD17O,1.700000X1.700000*%
%ADD18R,1.700000X1.700000*%
%ADD19C,1.425000*%
%ADD20C,1.400000*%
%ADD21C,1.000000*%
%ADD22C,0.500000*%
%ADD23C,0.254000*%
G04 APERTURE END LIST*
D10*
X108000000Y-71920000D03*
X108000000Y-67960000D03*
D11*
G36*
X109124503Y-62651204D02*
G01*
X109148772Y-62654804D01*
X109172570Y-62660765D01*
X109195670Y-62669030D01*
X109217849Y-62679520D01*
X109238892Y-62692133D01*
X109258598Y-62706748D01*
X109276776Y-62723224D01*
X109293252Y-62741402D01*
X109307867Y-62761108D01*
X109320480Y-62782151D01*
X109330970Y-62804330D01*
X109339235Y-62827430D01*
X109345196Y-62851228D01*
X109348796Y-62875497D01*
X109350000Y-62900001D01*
X109350000Y-65099999D01*
X109348796Y-65124503D01*
X109345196Y-65148772D01*
X109339235Y-65172570D01*
X109330970Y-65195670D01*
X109320480Y-65217849D01*
X109307867Y-65238892D01*
X109293252Y-65258598D01*
X109276776Y-65276776D01*
X109258598Y-65293252D01*
X109238892Y-65307867D01*
X109217849Y-65320480D01*
X109195670Y-65330970D01*
X109172570Y-65339235D01*
X109148772Y-65345196D01*
X109124503Y-65348796D01*
X109099999Y-65350000D01*
X106900001Y-65350000D01*
X106875497Y-65348796D01*
X106851228Y-65345196D01*
X106827430Y-65339235D01*
X106804330Y-65330970D01*
X106782151Y-65320480D01*
X106761108Y-65307867D01*
X106741402Y-65293252D01*
X106723224Y-65276776D01*
X106706748Y-65258598D01*
X106692133Y-65238892D01*
X106679520Y-65217849D01*
X106669030Y-65195670D01*
X106660765Y-65172570D01*
X106654804Y-65148772D01*
X106651204Y-65124503D01*
X106650000Y-65099999D01*
X106650000Y-62900001D01*
X106651204Y-62875497D01*
X106654804Y-62851228D01*
X106660765Y-62827430D01*
X106669030Y-62804330D01*
X106679520Y-62782151D01*
X106692133Y-62761108D01*
X106706748Y-62741402D01*
X106723224Y-62723224D01*
X106741402Y-62706748D01*
X106761108Y-62692133D01*
X106782151Y-62679520D01*
X106804330Y-62669030D01*
X106827430Y-62660765D01*
X106851228Y-62654804D01*
X106875497Y-62651204D01*
X106900001Y-62650000D01*
X109099999Y-62650000D01*
X109124503Y-62651204D01*
X109124503Y-62651204D01*
G37*
D10*
X108000000Y-64000000D03*
X108000000Y-85920000D03*
X108000000Y-81960000D03*
D11*
G36*
X109124503Y-76651204D02*
G01*
X109148772Y-76654804D01*
X109172570Y-76660765D01*
X109195670Y-76669030D01*
X109217849Y-76679520D01*
X109238892Y-76692133D01*
X109258598Y-76706748D01*
X109276776Y-76723224D01*
X109293252Y-76741402D01*
X109307867Y-76761108D01*
X109320480Y-76782151D01*
X109330970Y-76804330D01*
X109339235Y-76827430D01*
X109345196Y-76851228D01*
X109348796Y-76875497D01*
X109350000Y-76900001D01*
X109350000Y-79099999D01*
X109348796Y-79124503D01*
X109345196Y-79148772D01*
X109339235Y-79172570D01*
X109330970Y-79195670D01*
X109320480Y-79217849D01*
X109307867Y-79238892D01*
X109293252Y-79258598D01*
X109276776Y-79276776D01*
X109258598Y-79293252D01*
X109238892Y-79307867D01*
X109217849Y-79320480D01*
X109195670Y-79330970D01*
X109172570Y-79339235D01*
X109148772Y-79345196D01*
X109124503Y-79348796D01*
X109099999Y-79350000D01*
X106900001Y-79350000D01*
X106875497Y-79348796D01*
X106851228Y-79345196D01*
X106827430Y-79339235D01*
X106804330Y-79330970D01*
X106782151Y-79320480D01*
X106761108Y-79307867D01*
X106741402Y-79293252D01*
X106723224Y-79276776D01*
X106706748Y-79258598D01*
X106692133Y-79238892D01*
X106679520Y-79217849D01*
X106669030Y-79195670D01*
X106660765Y-79172570D01*
X106654804Y-79148772D01*
X106651204Y-79124503D01*
X106650000Y-79099999D01*
X106650000Y-76900001D01*
X106651204Y-76875497D01*
X106654804Y-76851228D01*
X106660765Y-76827430D01*
X106669030Y-76804330D01*
X106679520Y-76782151D01*
X106692133Y-76761108D01*
X106706748Y-76741402D01*
X106723224Y-76723224D01*
X106741402Y-76706748D01*
X106761108Y-76692133D01*
X106782151Y-76679520D01*
X106804330Y-76669030D01*
X106827430Y-76660765D01*
X106851228Y-76654804D01*
X106875497Y-76651204D01*
X106900001Y-76650000D01*
X109099999Y-76650000D01*
X109124503Y-76651204D01*
X109124503Y-76651204D01*
G37*
D10*
X108000000Y-78000000D03*
X142000000Y-60120000D03*
X142000000Y-64080000D03*
X142000000Y-68040000D03*
X142000000Y-72000000D03*
X142000000Y-78120000D03*
X142000000Y-82080000D03*
X142000000Y-86040000D03*
X142000000Y-90000000D03*
D12*
X136500000Y-89920000D03*
X136500000Y-92460000D03*
D13*
X136500000Y-95000000D03*
D14*
X126000000Y-91500000D03*
X123500000Y-91500000D03*
X121000000Y-91500000D03*
X118500000Y-91500000D03*
D11*
G36*
X116624504Y-90526204D02*
G01*
X116648773Y-90529804D01*
X116672571Y-90535765D01*
X116695671Y-90544030D01*
X116717849Y-90554520D01*
X116738893Y-90567133D01*
X116758598Y-90581747D01*
X116776777Y-90598223D01*
X116793253Y-90616402D01*
X116807867Y-90636107D01*
X116820480Y-90657151D01*
X116830970Y-90679329D01*
X116839235Y-90702429D01*
X116845196Y-90726227D01*
X116848796Y-90750496D01*
X116850000Y-90775000D01*
X116850000Y-92225000D01*
X116848796Y-92249504D01*
X116845196Y-92273773D01*
X116839235Y-92297571D01*
X116830970Y-92320671D01*
X116820480Y-92342849D01*
X116807867Y-92363893D01*
X116793253Y-92383598D01*
X116776777Y-92401777D01*
X116758598Y-92418253D01*
X116738893Y-92432867D01*
X116717849Y-92445480D01*
X116695671Y-92455970D01*
X116672571Y-92464235D01*
X116648773Y-92470196D01*
X116624504Y-92473796D01*
X116600000Y-92475000D01*
X115400000Y-92475000D01*
X115375496Y-92473796D01*
X115351227Y-92470196D01*
X115327429Y-92464235D01*
X115304329Y-92455970D01*
X115282151Y-92445480D01*
X115261107Y-92432867D01*
X115241402Y-92418253D01*
X115223223Y-92401777D01*
X115206747Y-92383598D01*
X115192133Y-92363893D01*
X115179520Y-92342849D01*
X115169030Y-92320671D01*
X115160765Y-92297571D01*
X115154804Y-92273773D01*
X115151204Y-92249504D01*
X115150000Y-92225000D01*
X115150000Y-90775000D01*
X115151204Y-90750496D01*
X115154804Y-90726227D01*
X115160765Y-90702429D01*
X115169030Y-90679329D01*
X115179520Y-90657151D01*
X115192133Y-90636107D01*
X115206747Y-90616402D01*
X115223223Y-90598223D01*
X115241402Y-90581747D01*
X115261107Y-90567133D01*
X115282151Y-90554520D01*
X115304329Y-90544030D01*
X115327429Y-90535765D01*
X115351227Y-90529804D01*
X115375496Y-90526204D01*
X115400000Y-90525000D01*
X116600000Y-90525000D01*
X116624504Y-90526204D01*
X116624504Y-90526204D01*
G37*
D15*
X116000000Y-91500000D03*
D14*
X112500000Y-57000000D03*
X115000000Y-57000000D03*
X117500000Y-57000000D03*
D11*
G36*
X120624504Y-56026204D02*
G01*
X120648773Y-56029804D01*
X120672571Y-56035765D01*
X120695671Y-56044030D01*
X120717849Y-56054520D01*
X120738893Y-56067133D01*
X120758598Y-56081747D01*
X120776777Y-56098223D01*
X120793253Y-56116402D01*
X120807867Y-56136107D01*
X120820480Y-56157151D01*
X120830970Y-56179329D01*
X120839235Y-56202429D01*
X120845196Y-56226227D01*
X120848796Y-56250496D01*
X120850000Y-56275000D01*
X120850000Y-57725000D01*
X120848796Y-57749504D01*
X120845196Y-57773773D01*
X120839235Y-57797571D01*
X120830970Y-57820671D01*
X120820480Y-57842849D01*
X120807867Y-57863893D01*
X120793253Y-57883598D01*
X120776777Y-57901777D01*
X120758598Y-57918253D01*
X120738893Y-57932867D01*
X120717849Y-57945480D01*
X120695671Y-57955970D01*
X120672571Y-57964235D01*
X120648773Y-57970196D01*
X120624504Y-57973796D01*
X120600000Y-57975000D01*
X119400000Y-57975000D01*
X119375496Y-57973796D01*
X119351227Y-57970196D01*
X119327429Y-57964235D01*
X119304329Y-57955970D01*
X119282151Y-57945480D01*
X119261107Y-57932867D01*
X119241402Y-57918253D01*
X119223223Y-57901777D01*
X119206747Y-57883598D01*
X119192133Y-57863893D01*
X119179520Y-57842849D01*
X119169030Y-57820671D01*
X119160765Y-57797571D01*
X119154804Y-57773773D01*
X119151204Y-57749504D01*
X119150000Y-57725000D01*
X119150000Y-56275000D01*
X119151204Y-56250496D01*
X119154804Y-56226227D01*
X119160765Y-56202429D01*
X119169030Y-56179329D01*
X119179520Y-56157151D01*
X119192133Y-56136107D01*
X119206747Y-56116402D01*
X119223223Y-56098223D01*
X119241402Y-56081747D01*
X119261107Y-56067133D01*
X119282151Y-56054520D01*
X119304329Y-56044030D01*
X119327429Y-56035765D01*
X119351227Y-56029804D01*
X119375496Y-56026204D01*
X119400000Y-56025000D01*
X120600000Y-56025000D01*
X120624504Y-56026204D01*
X120624504Y-56026204D01*
G37*
D15*
X120000000Y-57000000D03*
D14*
X129000000Y-57000000D03*
X131500000Y-57000000D03*
D11*
G36*
X134624504Y-56026204D02*
G01*
X134648773Y-56029804D01*
X134672571Y-56035765D01*
X134695671Y-56044030D01*
X134717849Y-56054520D01*
X134738893Y-56067133D01*
X134758598Y-56081747D01*
X134776777Y-56098223D01*
X134793253Y-56116402D01*
X134807867Y-56136107D01*
X134820480Y-56157151D01*
X134830970Y-56179329D01*
X134839235Y-56202429D01*
X134845196Y-56226227D01*
X134848796Y-56250496D01*
X134850000Y-56275000D01*
X134850000Y-57725000D01*
X134848796Y-57749504D01*
X134845196Y-57773773D01*
X134839235Y-57797571D01*
X134830970Y-57820671D01*
X134820480Y-57842849D01*
X134807867Y-57863893D01*
X134793253Y-57883598D01*
X134776777Y-57901777D01*
X134758598Y-57918253D01*
X134738893Y-57932867D01*
X134717849Y-57945480D01*
X134695671Y-57955970D01*
X134672571Y-57964235D01*
X134648773Y-57970196D01*
X134624504Y-57973796D01*
X134600000Y-57975000D01*
X133400000Y-57975000D01*
X133375496Y-57973796D01*
X133351227Y-57970196D01*
X133327429Y-57964235D01*
X133304329Y-57955970D01*
X133282151Y-57945480D01*
X133261107Y-57932867D01*
X133241402Y-57918253D01*
X133223223Y-57901777D01*
X133206747Y-57883598D01*
X133192133Y-57863893D01*
X133179520Y-57842849D01*
X133169030Y-57820671D01*
X133160765Y-57797571D01*
X133154804Y-57773773D01*
X133151204Y-57749504D01*
X133150000Y-57725000D01*
X133150000Y-56275000D01*
X133151204Y-56250496D01*
X133154804Y-56226227D01*
X133160765Y-56202429D01*
X133169030Y-56179329D01*
X133179520Y-56157151D01*
X133192133Y-56136107D01*
X133206747Y-56116402D01*
X133223223Y-56098223D01*
X133241402Y-56081747D01*
X133261107Y-56067133D01*
X133282151Y-56054520D01*
X133304329Y-56044030D01*
X133327429Y-56035765D01*
X133351227Y-56029804D01*
X133375496Y-56026204D01*
X133400000Y-56025000D01*
X134600000Y-56025000D01*
X134624504Y-56026204D01*
X134624504Y-56026204D01*
G37*
D15*
X134000000Y-57000000D03*
D11*
G36*
X138289703Y-81470722D02*
G01*
X138304264Y-81472882D01*
X138318543Y-81476459D01*
X138332403Y-81481418D01*
X138345710Y-81487712D01*
X138358336Y-81495280D01*
X138370159Y-81504048D01*
X138381066Y-81513934D01*
X138390952Y-81524841D01*
X138399720Y-81536664D01*
X138407288Y-81549290D01*
X138413582Y-81562597D01*
X138418541Y-81576457D01*
X138422118Y-81590736D01*
X138424278Y-81605297D01*
X138425000Y-81620000D01*
X138425000Y-81920000D01*
X138424278Y-81934703D01*
X138422118Y-81949264D01*
X138418541Y-81963543D01*
X138413582Y-81977403D01*
X138407288Y-81990710D01*
X138399720Y-82003336D01*
X138390952Y-82015159D01*
X138381066Y-82026066D01*
X138370159Y-82035952D01*
X138358336Y-82044720D01*
X138345710Y-82052288D01*
X138332403Y-82058582D01*
X138318543Y-82063541D01*
X138304264Y-82067118D01*
X138289703Y-82069278D01*
X138275000Y-82070000D01*
X136625000Y-82070000D01*
X136610297Y-82069278D01*
X136595736Y-82067118D01*
X136581457Y-82063541D01*
X136567597Y-82058582D01*
X136554290Y-82052288D01*
X136541664Y-82044720D01*
X136529841Y-82035952D01*
X136518934Y-82026066D01*
X136509048Y-82015159D01*
X136500280Y-82003336D01*
X136492712Y-81990710D01*
X136486418Y-81977403D01*
X136481459Y-81963543D01*
X136477882Y-81949264D01*
X136475722Y-81934703D01*
X136475000Y-81920000D01*
X136475000Y-81620000D01*
X136475722Y-81605297D01*
X136477882Y-81590736D01*
X136481459Y-81576457D01*
X136486418Y-81562597D01*
X136492712Y-81549290D01*
X136500280Y-81536664D01*
X136509048Y-81524841D01*
X136518934Y-81513934D01*
X136529841Y-81504048D01*
X136541664Y-81495280D01*
X136554290Y-81487712D01*
X136567597Y-81481418D01*
X136581457Y-81476459D01*
X136595736Y-81472882D01*
X136610297Y-81470722D01*
X136625000Y-81470000D01*
X138275000Y-81470000D01*
X138289703Y-81470722D01*
X138289703Y-81470722D01*
G37*
D16*
X137450000Y-81770000D03*
D11*
G36*
X138289703Y-80200722D02*
G01*
X138304264Y-80202882D01*
X138318543Y-80206459D01*
X138332403Y-80211418D01*
X138345710Y-80217712D01*
X138358336Y-80225280D01*
X138370159Y-80234048D01*
X138381066Y-80243934D01*
X138390952Y-80254841D01*
X138399720Y-80266664D01*
X138407288Y-80279290D01*
X138413582Y-80292597D01*
X138418541Y-80306457D01*
X138422118Y-80320736D01*
X138424278Y-80335297D01*
X138425000Y-80350000D01*
X138425000Y-80650000D01*
X138424278Y-80664703D01*
X138422118Y-80679264D01*
X138418541Y-80693543D01*
X138413582Y-80707403D01*
X138407288Y-80720710D01*
X138399720Y-80733336D01*
X138390952Y-80745159D01*
X138381066Y-80756066D01*
X138370159Y-80765952D01*
X138358336Y-80774720D01*
X138345710Y-80782288D01*
X138332403Y-80788582D01*
X138318543Y-80793541D01*
X138304264Y-80797118D01*
X138289703Y-80799278D01*
X138275000Y-80800000D01*
X136625000Y-80800000D01*
X136610297Y-80799278D01*
X136595736Y-80797118D01*
X136581457Y-80793541D01*
X136567597Y-80788582D01*
X136554290Y-80782288D01*
X136541664Y-80774720D01*
X136529841Y-80765952D01*
X136518934Y-80756066D01*
X136509048Y-80745159D01*
X136500280Y-80733336D01*
X136492712Y-80720710D01*
X136486418Y-80707403D01*
X136481459Y-80693543D01*
X136477882Y-80679264D01*
X136475722Y-80664703D01*
X136475000Y-80650000D01*
X136475000Y-80350000D01*
X136475722Y-80335297D01*
X136477882Y-80320736D01*
X136481459Y-80306457D01*
X136486418Y-80292597D01*
X136492712Y-80279290D01*
X136500280Y-80266664D01*
X136509048Y-80254841D01*
X136518934Y-80243934D01*
X136529841Y-80234048D01*
X136541664Y-80225280D01*
X136554290Y-80217712D01*
X136567597Y-80211418D01*
X136581457Y-80206459D01*
X136595736Y-80202882D01*
X136610297Y-80200722D01*
X136625000Y-80200000D01*
X138275000Y-80200000D01*
X138289703Y-80200722D01*
X138289703Y-80200722D01*
G37*
D16*
X137450000Y-80500000D03*
D11*
G36*
X138289703Y-78930722D02*
G01*
X138304264Y-78932882D01*
X138318543Y-78936459D01*
X138332403Y-78941418D01*
X138345710Y-78947712D01*
X138358336Y-78955280D01*
X138370159Y-78964048D01*
X138381066Y-78973934D01*
X138390952Y-78984841D01*
X138399720Y-78996664D01*
X138407288Y-79009290D01*
X138413582Y-79022597D01*
X138418541Y-79036457D01*
X138422118Y-79050736D01*
X138424278Y-79065297D01*
X138425000Y-79080000D01*
X138425000Y-79380000D01*
X138424278Y-79394703D01*
X138422118Y-79409264D01*
X138418541Y-79423543D01*
X138413582Y-79437403D01*
X138407288Y-79450710D01*
X138399720Y-79463336D01*
X138390952Y-79475159D01*
X138381066Y-79486066D01*
X138370159Y-79495952D01*
X138358336Y-79504720D01*
X138345710Y-79512288D01*
X138332403Y-79518582D01*
X138318543Y-79523541D01*
X138304264Y-79527118D01*
X138289703Y-79529278D01*
X138275000Y-79530000D01*
X136625000Y-79530000D01*
X136610297Y-79529278D01*
X136595736Y-79527118D01*
X136581457Y-79523541D01*
X136567597Y-79518582D01*
X136554290Y-79512288D01*
X136541664Y-79504720D01*
X136529841Y-79495952D01*
X136518934Y-79486066D01*
X136509048Y-79475159D01*
X136500280Y-79463336D01*
X136492712Y-79450710D01*
X136486418Y-79437403D01*
X136481459Y-79423543D01*
X136477882Y-79409264D01*
X136475722Y-79394703D01*
X136475000Y-79380000D01*
X136475000Y-79080000D01*
X136475722Y-79065297D01*
X136477882Y-79050736D01*
X136481459Y-79036457D01*
X136486418Y-79022597D01*
X136492712Y-79009290D01*
X136500280Y-78996664D01*
X136509048Y-78984841D01*
X136518934Y-78973934D01*
X136529841Y-78964048D01*
X136541664Y-78955280D01*
X136554290Y-78947712D01*
X136567597Y-78941418D01*
X136581457Y-78936459D01*
X136595736Y-78932882D01*
X136610297Y-78930722D01*
X136625000Y-78930000D01*
X138275000Y-78930000D01*
X138289703Y-78930722D01*
X138289703Y-78930722D01*
G37*
D16*
X137450000Y-79230000D03*
D11*
G36*
X138289703Y-77660722D02*
G01*
X138304264Y-77662882D01*
X138318543Y-77666459D01*
X138332403Y-77671418D01*
X138345710Y-77677712D01*
X138358336Y-77685280D01*
X138370159Y-77694048D01*
X138381066Y-77703934D01*
X138390952Y-77714841D01*
X138399720Y-77726664D01*
X138407288Y-77739290D01*
X138413582Y-77752597D01*
X138418541Y-77766457D01*
X138422118Y-77780736D01*
X138424278Y-77795297D01*
X138425000Y-77810000D01*
X138425000Y-78110000D01*
X138424278Y-78124703D01*
X138422118Y-78139264D01*
X138418541Y-78153543D01*
X138413582Y-78167403D01*
X138407288Y-78180710D01*
X138399720Y-78193336D01*
X138390952Y-78205159D01*
X138381066Y-78216066D01*
X138370159Y-78225952D01*
X138358336Y-78234720D01*
X138345710Y-78242288D01*
X138332403Y-78248582D01*
X138318543Y-78253541D01*
X138304264Y-78257118D01*
X138289703Y-78259278D01*
X138275000Y-78260000D01*
X136625000Y-78260000D01*
X136610297Y-78259278D01*
X136595736Y-78257118D01*
X136581457Y-78253541D01*
X136567597Y-78248582D01*
X136554290Y-78242288D01*
X136541664Y-78234720D01*
X136529841Y-78225952D01*
X136518934Y-78216066D01*
X136509048Y-78205159D01*
X136500280Y-78193336D01*
X136492712Y-78180710D01*
X136486418Y-78167403D01*
X136481459Y-78153543D01*
X136477882Y-78139264D01*
X136475722Y-78124703D01*
X136475000Y-78110000D01*
X136475000Y-77810000D01*
X136475722Y-77795297D01*
X136477882Y-77780736D01*
X136481459Y-77766457D01*
X136486418Y-77752597D01*
X136492712Y-77739290D01*
X136500280Y-77726664D01*
X136509048Y-77714841D01*
X136518934Y-77703934D01*
X136529841Y-77694048D01*
X136541664Y-77685280D01*
X136554290Y-77677712D01*
X136567597Y-77671418D01*
X136581457Y-77666459D01*
X136595736Y-77662882D01*
X136610297Y-77660722D01*
X136625000Y-77660000D01*
X138275000Y-77660000D01*
X138289703Y-77660722D01*
X138289703Y-77660722D01*
G37*
D16*
X137450000Y-77960000D03*
D11*
G36*
X133339703Y-77660722D02*
G01*
X133354264Y-77662882D01*
X133368543Y-77666459D01*
X133382403Y-77671418D01*
X133395710Y-77677712D01*
X133408336Y-77685280D01*
X133420159Y-77694048D01*
X133431066Y-77703934D01*
X133440952Y-77714841D01*
X133449720Y-77726664D01*
X133457288Y-77739290D01*
X133463582Y-77752597D01*
X133468541Y-77766457D01*
X133472118Y-77780736D01*
X133474278Y-77795297D01*
X133475000Y-77810000D01*
X133475000Y-78110000D01*
X133474278Y-78124703D01*
X133472118Y-78139264D01*
X133468541Y-78153543D01*
X133463582Y-78167403D01*
X133457288Y-78180710D01*
X133449720Y-78193336D01*
X133440952Y-78205159D01*
X133431066Y-78216066D01*
X133420159Y-78225952D01*
X133408336Y-78234720D01*
X133395710Y-78242288D01*
X133382403Y-78248582D01*
X133368543Y-78253541D01*
X133354264Y-78257118D01*
X133339703Y-78259278D01*
X133325000Y-78260000D01*
X131675000Y-78260000D01*
X131660297Y-78259278D01*
X131645736Y-78257118D01*
X131631457Y-78253541D01*
X131617597Y-78248582D01*
X131604290Y-78242288D01*
X131591664Y-78234720D01*
X131579841Y-78225952D01*
X131568934Y-78216066D01*
X131559048Y-78205159D01*
X131550280Y-78193336D01*
X131542712Y-78180710D01*
X131536418Y-78167403D01*
X131531459Y-78153543D01*
X131527882Y-78139264D01*
X131525722Y-78124703D01*
X131525000Y-78110000D01*
X131525000Y-77810000D01*
X131525722Y-77795297D01*
X131527882Y-77780736D01*
X131531459Y-77766457D01*
X131536418Y-77752597D01*
X131542712Y-77739290D01*
X131550280Y-77726664D01*
X131559048Y-77714841D01*
X131568934Y-77703934D01*
X131579841Y-77694048D01*
X131591664Y-77685280D01*
X131604290Y-77677712D01*
X131617597Y-77671418D01*
X131631457Y-77666459D01*
X131645736Y-77662882D01*
X131660297Y-77660722D01*
X131675000Y-77660000D01*
X133325000Y-77660000D01*
X133339703Y-77660722D01*
X133339703Y-77660722D01*
G37*
D16*
X132500000Y-77960000D03*
D11*
G36*
X133339703Y-78930722D02*
G01*
X133354264Y-78932882D01*
X133368543Y-78936459D01*
X133382403Y-78941418D01*
X133395710Y-78947712D01*
X133408336Y-78955280D01*
X133420159Y-78964048D01*
X133431066Y-78973934D01*
X133440952Y-78984841D01*
X133449720Y-78996664D01*
X133457288Y-79009290D01*
X133463582Y-79022597D01*
X133468541Y-79036457D01*
X133472118Y-79050736D01*
X133474278Y-79065297D01*
X133475000Y-79080000D01*
X133475000Y-79380000D01*
X133474278Y-79394703D01*
X133472118Y-79409264D01*
X133468541Y-79423543D01*
X133463582Y-79437403D01*
X133457288Y-79450710D01*
X133449720Y-79463336D01*
X133440952Y-79475159D01*
X133431066Y-79486066D01*
X133420159Y-79495952D01*
X133408336Y-79504720D01*
X133395710Y-79512288D01*
X133382403Y-79518582D01*
X133368543Y-79523541D01*
X133354264Y-79527118D01*
X133339703Y-79529278D01*
X133325000Y-79530000D01*
X131675000Y-79530000D01*
X131660297Y-79529278D01*
X131645736Y-79527118D01*
X131631457Y-79523541D01*
X131617597Y-79518582D01*
X131604290Y-79512288D01*
X131591664Y-79504720D01*
X131579841Y-79495952D01*
X131568934Y-79486066D01*
X131559048Y-79475159D01*
X131550280Y-79463336D01*
X131542712Y-79450710D01*
X131536418Y-79437403D01*
X131531459Y-79423543D01*
X131527882Y-79409264D01*
X131525722Y-79394703D01*
X131525000Y-79380000D01*
X131525000Y-79080000D01*
X131525722Y-79065297D01*
X131527882Y-79050736D01*
X131531459Y-79036457D01*
X131536418Y-79022597D01*
X131542712Y-79009290D01*
X131550280Y-78996664D01*
X131559048Y-78984841D01*
X131568934Y-78973934D01*
X131579841Y-78964048D01*
X131591664Y-78955280D01*
X131604290Y-78947712D01*
X131617597Y-78941418D01*
X131631457Y-78936459D01*
X131645736Y-78932882D01*
X131660297Y-78930722D01*
X131675000Y-78930000D01*
X133325000Y-78930000D01*
X133339703Y-78930722D01*
X133339703Y-78930722D01*
G37*
D16*
X132500000Y-79230000D03*
D11*
G36*
X133339703Y-80200722D02*
G01*
X133354264Y-80202882D01*
X133368543Y-80206459D01*
X133382403Y-80211418D01*
X133395710Y-80217712D01*
X133408336Y-80225280D01*
X133420159Y-80234048D01*
X133431066Y-80243934D01*
X133440952Y-80254841D01*
X133449720Y-80266664D01*
X133457288Y-80279290D01*
X133463582Y-80292597D01*
X133468541Y-80306457D01*
X133472118Y-80320736D01*
X133474278Y-80335297D01*
X133475000Y-80350000D01*
X133475000Y-80650000D01*
X133474278Y-80664703D01*
X133472118Y-80679264D01*
X133468541Y-80693543D01*
X133463582Y-80707403D01*
X133457288Y-80720710D01*
X133449720Y-80733336D01*
X133440952Y-80745159D01*
X133431066Y-80756066D01*
X133420159Y-80765952D01*
X133408336Y-80774720D01*
X133395710Y-80782288D01*
X133382403Y-80788582D01*
X133368543Y-80793541D01*
X133354264Y-80797118D01*
X133339703Y-80799278D01*
X133325000Y-80800000D01*
X131675000Y-80800000D01*
X131660297Y-80799278D01*
X131645736Y-80797118D01*
X131631457Y-80793541D01*
X131617597Y-80788582D01*
X131604290Y-80782288D01*
X131591664Y-80774720D01*
X131579841Y-80765952D01*
X131568934Y-80756066D01*
X131559048Y-80745159D01*
X131550280Y-80733336D01*
X131542712Y-80720710D01*
X131536418Y-80707403D01*
X131531459Y-80693543D01*
X131527882Y-80679264D01*
X131525722Y-80664703D01*
X131525000Y-80650000D01*
X131525000Y-80350000D01*
X131525722Y-80335297D01*
X131527882Y-80320736D01*
X131531459Y-80306457D01*
X131536418Y-80292597D01*
X131542712Y-80279290D01*
X131550280Y-80266664D01*
X131559048Y-80254841D01*
X131568934Y-80243934D01*
X131579841Y-80234048D01*
X131591664Y-80225280D01*
X131604290Y-80217712D01*
X131617597Y-80211418D01*
X131631457Y-80206459D01*
X131645736Y-80202882D01*
X131660297Y-80200722D01*
X131675000Y-80200000D01*
X133325000Y-80200000D01*
X133339703Y-80200722D01*
X133339703Y-80200722D01*
G37*
D16*
X132500000Y-80500000D03*
D11*
G36*
X133339703Y-81470722D02*
G01*
X133354264Y-81472882D01*
X133368543Y-81476459D01*
X133382403Y-81481418D01*
X133395710Y-81487712D01*
X133408336Y-81495280D01*
X133420159Y-81504048D01*
X133431066Y-81513934D01*
X133440952Y-81524841D01*
X133449720Y-81536664D01*
X133457288Y-81549290D01*
X133463582Y-81562597D01*
X133468541Y-81576457D01*
X133472118Y-81590736D01*
X133474278Y-81605297D01*
X133475000Y-81620000D01*
X133475000Y-81920000D01*
X133474278Y-81934703D01*
X133472118Y-81949264D01*
X133468541Y-81963543D01*
X133463582Y-81977403D01*
X133457288Y-81990710D01*
X133449720Y-82003336D01*
X133440952Y-82015159D01*
X133431066Y-82026066D01*
X133420159Y-82035952D01*
X133408336Y-82044720D01*
X133395710Y-82052288D01*
X133382403Y-82058582D01*
X133368543Y-82063541D01*
X133354264Y-82067118D01*
X133339703Y-82069278D01*
X133325000Y-82070000D01*
X131675000Y-82070000D01*
X131660297Y-82069278D01*
X131645736Y-82067118D01*
X131631457Y-82063541D01*
X131617597Y-82058582D01*
X131604290Y-82052288D01*
X131591664Y-82044720D01*
X131579841Y-82035952D01*
X131568934Y-82026066D01*
X131559048Y-82015159D01*
X131550280Y-82003336D01*
X131542712Y-81990710D01*
X131536418Y-81977403D01*
X131531459Y-81963543D01*
X131527882Y-81949264D01*
X131525722Y-81934703D01*
X131525000Y-81920000D01*
X131525000Y-81620000D01*
X131525722Y-81605297D01*
X131527882Y-81590736D01*
X131531459Y-81576457D01*
X131536418Y-81562597D01*
X131542712Y-81549290D01*
X131550280Y-81536664D01*
X131559048Y-81524841D01*
X131568934Y-81513934D01*
X131579841Y-81504048D01*
X131591664Y-81495280D01*
X131604290Y-81487712D01*
X131617597Y-81481418D01*
X131631457Y-81476459D01*
X131645736Y-81472882D01*
X131660297Y-81470722D01*
X131675000Y-81470000D01*
X133325000Y-81470000D01*
X133339703Y-81470722D01*
X133339703Y-81470722D01*
G37*
D16*
X132500000Y-81770000D03*
D17*
X113960000Y-65000000D03*
X116500000Y-65000000D03*
D18*
X119040000Y-65000000D03*
D11*
G36*
X129399504Y-78788704D02*
G01*
X129423773Y-78792304D01*
X129447571Y-78798265D01*
X129470671Y-78806530D01*
X129492849Y-78817020D01*
X129513893Y-78829633D01*
X129533598Y-78844247D01*
X129551777Y-78860723D01*
X129568253Y-78878902D01*
X129582867Y-78898607D01*
X129595480Y-78919651D01*
X129605970Y-78941829D01*
X129614235Y-78964929D01*
X129620196Y-78988727D01*
X129623796Y-79012996D01*
X129625000Y-79037500D01*
X129625000Y-79962500D01*
X129623796Y-79987004D01*
X129620196Y-80011273D01*
X129614235Y-80035071D01*
X129605970Y-80058171D01*
X129595480Y-80080349D01*
X129582867Y-80101393D01*
X129568253Y-80121098D01*
X129551777Y-80139277D01*
X129533598Y-80155753D01*
X129513893Y-80170367D01*
X129492849Y-80182980D01*
X129470671Y-80193470D01*
X129447571Y-80201735D01*
X129423773Y-80207696D01*
X129399504Y-80211296D01*
X129375000Y-80212500D01*
X128125000Y-80212500D01*
X128100496Y-80211296D01*
X128076227Y-80207696D01*
X128052429Y-80201735D01*
X128029329Y-80193470D01*
X128007151Y-80182980D01*
X127986107Y-80170367D01*
X127966402Y-80155753D01*
X127948223Y-80139277D01*
X127931747Y-80121098D01*
X127917133Y-80101393D01*
X127904520Y-80080349D01*
X127894030Y-80058171D01*
X127885765Y-80035071D01*
X127879804Y-80011273D01*
X127876204Y-79987004D01*
X127875000Y-79962500D01*
X127875000Y-79037500D01*
X127876204Y-79012996D01*
X127879804Y-78988727D01*
X127885765Y-78964929D01*
X127894030Y-78941829D01*
X127904520Y-78919651D01*
X127917133Y-78898607D01*
X127931747Y-78878902D01*
X127948223Y-78860723D01*
X127966402Y-78844247D01*
X127986107Y-78829633D01*
X128007151Y-78817020D01*
X128029329Y-78806530D01*
X128052429Y-78798265D01*
X128076227Y-78792304D01*
X128100496Y-78788704D01*
X128125000Y-78787500D01*
X129375000Y-78787500D01*
X129399504Y-78788704D01*
X129399504Y-78788704D01*
G37*
D19*
X128750000Y-79500000D03*
D11*
G36*
X129399504Y-81763704D02*
G01*
X129423773Y-81767304D01*
X129447571Y-81773265D01*
X129470671Y-81781530D01*
X129492849Y-81792020D01*
X129513893Y-81804633D01*
X129533598Y-81819247D01*
X129551777Y-81835723D01*
X129568253Y-81853902D01*
X129582867Y-81873607D01*
X129595480Y-81894651D01*
X129605970Y-81916829D01*
X129614235Y-81939929D01*
X129620196Y-81963727D01*
X129623796Y-81987996D01*
X129625000Y-82012500D01*
X129625000Y-82937500D01*
X129623796Y-82962004D01*
X129620196Y-82986273D01*
X129614235Y-83010071D01*
X129605970Y-83033171D01*
X129595480Y-83055349D01*
X129582867Y-83076393D01*
X129568253Y-83096098D01*
X129551777Y-83114277D01*
X129533598Y-83130753D01*
X129513893Y-83145367D01*
X129492849Y-83157980D01*
X129470671Y-83168470D01*
X129447571Y-83176735D01*
X129423773Y-83182696D01*
X129399504Y-83186296D01*
X129375000Y-83187500D01*
X128125000Y-83187500D01*
X128100496Y-83186296D01*
X128076227Y-83182696D01*
X128052429Y-83176735D01*
X128029329Y-83168470D01*
X128007151Y-83157980D01*
X127986107Y-83145367D01*
X127966402Y-83130753D01*
X127948223Y-83114277D01*
X127931747Y-83096098D01*
X127917133Y-83076393D01*
X127904520Y-83055349D01*
X127894030Y-83033171D01*
X127885765Y-83010071D01*
X127879804Y-82986273D01*
X127876204Y-82962004D01*
X127875000Y-82937500D01*
X127875000Y-82012500D01*
X127876204Y-81987996D01*
X127879804Y-81963727D01*
X127885765Y-81939929D01*
X127894030Y-81916829D01*
X127904520Y-81894651D01*
X127917133Y-81873607D01*
X127931747Y-81853902D01*
X127948223Y-81835723D01*
X127966402Y-81819247D01*
X127986107Y-81804633D01*
X128007151Y-81792020D01*
X128029329Y-81781530D01*
X128052429Y-81773265D01*
X128076227Y-81767304D01*
X128100496Y-81763704D01*
X128125000Y-81762500D01*
X129375000Y-81762500D01*
X129399504Y-81763704D01*
X129399504Y-81763704D01*
G37*
D19*
X128750000Y-82475000D03*
D11*
G36*
X133649504Y-85813704D02*
G01*
X133673773Y-85817304D01*
X133697571Y-85823265D01*
X133720671Y-85831530D01*
X133742849Y-85842020D01*
X133763893Y-85854633D01*
X133783598Y-85869247D01*
X133801777Y-85885723D01*
X133818253Y-85903902D01*
X133832867Y-85923607D01*
X133845480Y-85944651D01*
X133855970Y-85966829D01*
X133864235Y-85989929D01*
X133870196Y-86013727D01*
X133873796Y-86037996D01*
X133875000Y-86062500D01*
X133875000Y-86987500D01*
X133873796Y-87012004D01*
X133870196Y-87036273D01*
X133864235Y-87060071D01*
X133855970Y-87083171D01*
X133845480Y-87105349D01*
X133832867Y-87126393D01*
X133818253Y-87146098D01*
X133801777Y-87164277D01*
X133783598Y-87180753D01*
X133763893Y-87195367D01*
X133742849Y-87207980D01*
X133720671Y-87218470D01*
X133697571Y-87226735D01*
X133673773Y-87232696D01*
X133649504Y-87236296D01*
X133625000Y-87237500D01*
X132375000Y-87237500D01*
X132350496Y-87236296D01*
X132326227Y-87232696D01*
X132302429Y-87226735D01*
X132279329Y-87218470D01*
X132257151Y-87207980D01*
X132236107Y-87195367D01*
X132216402Y-87180753D01*
X132198223Y-87164277D01*
X132181747Y-87146098D01*
X132167133Y-87126393D01*
X132154520Y-87105349D01*
X132144030Y-87083171D01*
X132135765Y-87060071D01*
X132129804Y-87036273D01*
X132126204Y-87012004D01*
X132125000Y-86987500D01*
X132125000Y-86062500D01*
X132126204Y-86037996D01*
X132129804Y-86013727D01*
X132135765Y-85989929D01*
X132144030Y-85966829D01*
X132154520Y-85944651D01*
X132167133Y-85923607D01*
X132181747Y-85903902D01*
X132198223Y-85885723D01*
X132216402Y-85869247D01*
X132236107Y-85854633D01*
X132257151Y-85842020D01*
X132279329Y-85831530D01*
X132302429Y-85823265D01*
X132326227Y-85817304D01*
X132350496Y-85813704D01*
X132375000Y-85812500D01*
X133625000Y-85812500D01*
X133649504Y-85813704D01*
X133649504Y-85813704D01*
G37*
D19*
X133000000Y-86525000D03*
D11*
G36*
X133649504Y-88788704D02*
G01*
X133673773Y-88792304D01*
X133697571Y-88798265D01*
X133720671Y-88806530D01*
X133742849Y-88817020D01*
X133763893Y-88829633D01*
X133783598Y-88844247D01*
X133801777Y-88860723D01*
X133818253Y-88878902D01*
X133832867Y-88898607D01*
X133845480Y-88919651D01*
X133855970Y-88941829D01*
X133864235Y-88964929D01*
X133870196Y-88988727D01*
X133873796Y-89012996D01*
X133875000Y-89037500D01*
X133875000Y-89962500D01*
X133873796Y-89987004D01*
X133870196Y-90011273D01*
X133864235Y-90035071D01*
X133855970Y-90058171D01*
X133845480Y-90080349D01*
X133832867Y-90101393D01*
X133818253Y-90121098D01*
X133801777Y-90139277D01*
X133783598Y-90155753D01*
X133763893Y-90170367D01*
X133742849Y-90182980D01*
X133720671Y-90193470D01*
X133697571Y-90201735D01*
X133673773Y-90207696D01*
X133649504Y-90211296D01*
X133625000Y-90212500D01*
X132375000Y-90212500D01*
X132350496Y-90211296D01*
X132326227Y-90207696D01*
X132302429Y-90201735D01*
X132279329Y-90193470D01*
X132257151Y-90182980D01*
X132236107Y-90170367D01*
X132216402Y-90155753D01*
X132198223Y-90139277D01*
X132181747Y-90121098D01*
X132167133Y-90101393D01*
X132154520Y-90080349D01*
X132144030Y-90058171D01*
X132135765Y-90035071D01*
X132129804Y-90011273D01*
X132126204Y-89987004D01*
X132125000Y-89962500D01*
X132125000Y-89037500D01*
X132126204Y-89012996D01*
X132129804Y-88988727D01*
X132135765Y-88964929D01*
X132144030Y-88941829D01*
X132154520Y-88919651D01*
X132167133Y-88898607D01*
X132181747Y-88878902D01*
X132198223Y-88860723D01*
X132216402Y-88844247D01*
X132236107Y-88829633D01*
X132257151Y-88817020D01*
X132279329Y-88806530D01*
X132302429Y-88798265D01*
X132326227Y-88792304D01*
X132350496Y-88788704D01*
X132375000Y-88787500D01*
X133625000Y-88787500D01*
X133649504Y-88788704D01*
X133649504Y-88788704D01*
G37*
D19*
X133000000Y-89500000D03*
D11*
G36*
X133649504Y-91301204D02*
G01*
X133673773Y-91304804D01*
X133697571Y-91310765D01*
X133720671Y-91319030D01*
X133742849Y-91329520D01*
X133763893Y-91342133D01*
X133783598Y-91356747D01*
X133801777Y-91373223D01*
X133818253Y-91391402D01*
X133832867Y-91411107D01*
X133845480Y-91432151D01*
X133855970Y-91454329D01*
X133864235Y-91477429D01*
X133870196Y-91501227D01*
X133873796Y-91525496D01*
X133875000Y-91550000D01*
X133875000Y-92475000D01*
X133873796Y-92499504D01*
X133870196Y-92523773D01*
X133864235Y-92547571D01*
X133855970Y-92570671D01*
X133845480Y-92592849D01*
X133832867Y-92613893D01*
X133818253Y-92633598D01*
X133801777Y-92651777D01*
X133783598Y-92668253D01*
X133763893Y-92682867D01*
X133742849Y-92695480D01*
X133720671Y-92705970D01*
X133697571Y-92714235D01*
X133673773Y-92720196D01*
X133649504Y-92723796D01*
X133625000Y-92725000D01*
X132375000Y-92725000D01*
X132350496Y-92723796D01*
X132326227Y-92720196D01*
X132302429Y-92714235D01*
X132279329Y-92705970D01*
X132257151Y-92695480D01*
X132236107Y-92682867D01*
X132216402Y-92668253D01*
X132198223Y-92651777D01*
X132181747Y-92633598D01*
X132167133Y-92613893D01*
X132154520Y-92592849D01*
X132144030Y-92570671D01*
X132135765Y-92547571D01*
X132129804Y-92523773D01*
X132126204Y-92499504D01*
X132125000Y-92475000D01*
X132125000Y-91550000D01*
X132126204Y-91525496D01*
X132129804Y-91501227D01*
X132135765Y-91477429D01*
X132144030Y-91454329D01*
X132154520Y-91432151D01*
X132167133Y-91411107D01*
X132181747Y-91391402D01*
X132198223Y-91373223D01*
X132216402Y-91356747D01*
X132236107Y-91342133D01*
X132257151Y-91329520D01*
X132279329Y-91319030D01*
X132302429Y-91310765D01*
X132326227Y-91304804D01*
X132350496Y-91301204D01*
X132375000Y-91300000D01*
X133625000Y-91300000D01*
X133649504Y-91301204D01*
X133649504Y-91301204D01*
G37*
D19*
X133000000Y-92012500D03*
D11*
G36*
X133649504Y-94276204D02*
G01*
X133673773Y-94279804D01*
X133697571Y-94285765D01*
X133720671Y-94294030D01*
X133742849Y-94304520D01*
X133763893Y-94317133D01*
X133783598Y-94331747D01*
X133801777Y-94348223D01*
X133818253Y-94366402D01*
X133832867Y-94386107D01*
X133845480Y-94407151D01*
X133855970Y-94429329D01*
X133864235Y-94452429D01*
X133870196Y-94476227D01*
X133873796Y-94500496D01*
X133875000Y-94525000D01*
X133875000Y-95450000D01*
X133873796Y-95474504D01*
X133870196Y-95498773D01*
X133864235Y-95522571D01*
X133855970Y-95545671D01*
X133845480Y-95567849D01*
X133832867Y-95588893D01*
X133818253Y-95608598D01*
X133801777Y-95626777D01*
X133783598Y-95643253D01*
X133763893Y-95657867D01*
X133742849Y-95670480D01*
X133720671Y-95680970D01*
X133697571Y-95689235D01*
X133673773Y-95695196D01*
X133649504Y-95698796D01*
X133625000Y-95700000D01*
X132375000Y-95700000D01*
X132350496Y-95698796D01*
X132326227Y-95695196D01*
X132302429Y-95689235D01*
X132279329Y-95680970D01*
X132257151Y-95670480D01*
X132236107Y-95657867D01*
X132216402Y-95643253D01*
X132198223Y-95626777D01*
X132181747Y-95608598D01*
X132167133Y-95588893D01*
X132154520Y-95567849D01*
X132144030Y-95545671D01*
X132135765Y-95522571D01*
X132129804Y-95498773D01*
X132126204Y-95474504D01*
X132125000Y-95450000D01*
X132125000Y-94525000D01*
X132126204Y-94500496D01*
X132129804Y-94476227D01*
X132135765Y-94452429D01*
X132144030Y-94429329D01*
X132154520Y-94407151D01*
X132167133Y-94386107D01*
X132181747Y-94366402D01*
X132198223Y-94348223D01*
X132216402Y-94331747D01*
X132236107Y-94317133D01*
X132257151Y-94304520D01*
X132279329Y-94294030D01*
X132302429Y-94285765D01*
X132326227Y-94279804D01*
X132350496Y-94276204D01*
X132375000Y-94275000D01*
X133625000Y-94275000D01*
X133649504Y-94276204D01*
X133649504Y-94276204D01*
G37*
D19*
X133000000Y-94987500D03*
D20*
X113960000Y-70790000D03*
X126250000Y-75500000D03*
X126000000Y-77500000D03*
X112000000Y-78500000D03*
X112000000Y-68000000D03*
D21*
X136080000Y-89500000D02*
X136500000Y-89920000D01*
X133000000Y-89500000D02*
X136080000Y-89500000D01*
X113960000Y-66202081D02*
X113960000Y-65000000D01*
X113960000Y-71435000D02*
X113960000Y-70790000D01*
X133000000Y-89500000D02*
X132025000Y-89500000D01*
X123887500Y-81362500D02*
X113960000Y-71435000D01*
D22*
X129020000Y-79230000D02*
X128750000Y-79500000D01*
X132500000Y-79230000D02*
X129020000Y-79230000D01*
D21*
X113960000Y-70790000D02*
X113960000Y-66202081D01*
X128750000Y-79500000D02*
X127500000Y-79500000D01*
X126262500Y-80737500D02*
X126262500Y-83737500D01*
X127500000Y-79500000D02*
X126262500Y-80737500D01*
X132025000Y-89500000D02*
X126262500Y-83737500D01*
X126262500Y-83737500D02*
X123887500Y-81362500D01*
D22*
X140890000Y-79230000D02*
X142000000Y-78120000D01*
X137450000Y-79230000D02*
X140890000Y-79230000D01*
X140420000Y-80500000D02*
X142000000Y-82080000D01*
X137450000Y-80500000D02*
X140420000Y-80500000D01*
X133575000Y-81770000D02*
X134750000Y-80595000D01*
X132500000Y-81770000D02*
X133575000Y-81770000D01*
X134750000Y-80595000D02*
X134750000Y-77250000D01*
X134750000Y-77250000D02*
X133000000Y-75500000D01*
X133000000Y-75500000D02*
X126250000Y-75500000D01*
X126460000Y-77960000D02*
X126000000Y-77500000D01*
X132500000Y-77960000D02*
X126460000Y-77960000D01*
X112000000Y-78500000D02*
X112000000Y-68000000D01*
X112000000Y-68000000D02*
X112000000Y-68000000D01*
D23*
G36*
X149248000Y-99248000D02*
G01*
X100752000Y-99248000D01*
X100752000Y-95820056D01*
X102173000Y-95820056D01*
X102173000Y-96179944D01*
X102243211Y-96532916D01*
X102380934Y-96865409D01*
X102580876Y-97164645D01*
X102835355Y-97419124D01*
X103134591Y-97619066D01*
X103467084Y-97756789D01*
X103820056Y-97827000D01*
X104179944Y-97827000D01*
X104532916Y-97756789D01*
X104865409Y-97619066D01*
X105164645Y-97419124D01*
X105419124Y-97164645D01*
X105619066Y-96865409D01*
X105756789Y-96532916D01*
X105827000Y-96179944D01*
X105827000Y-95820056D01*
X105803120Y-95700000D01*
X131486928Y-95700000D01*
X131499188Y-95824482D01*
X131535498Y-95944180D01*
X131594463Y-96054494D01*
X131673815Y-96151185D01*
X131770506Y-96230537D01*
X131880820Y-96289502D01*
X132000518Y-96325812D01*
X132125000Y-96338072D01*
X132714250Y-96335000D01*
X132873000Y-96176250D01*
X132873000Y-95114500D01*
X133127000Y-95114500D01*
X133127000Y-96176250D01*
X133285750Y-96335000D01*
X133875000Y-96338072D01*
X133999482Y-96325812D01*
X134119180Y-96289502D01*
X134229494Y-96230537D01*
X134326185Y-96151185D01*
X134405537Y-96054494D01*
X134460054Y-95952500D01*
X134861928Y-95952500D01*
X134874188Y-96076982D01*
X134910498Y-96196680D01*
X134969463Y-96306994D01*
X135048815Y-96403685D01*
X135145506Y-96483037D01*
X135255820Y-96542002D01*
X135375518Y-96578312D01*
X135500000Y-96590572D01*
X136214250Y-96587500D01*
X136373000Y-96428750D01*
X136373000Y-95127000D01*
X136627000Y-95127000D01*
X136627000Y-96428750D01*
X136785750Y-96587500D01*
X137500000Y-96590572D01*
X137624482Y-96578312D01*
X137744180Y-96542002D01*
X137854494Y-96483037D01*
X137951185Y-96403685D01*
X138030537Y-96306994D01*
X138089502Y-96196680D01*
X138125812Y-96076982D01*
X138138072Y-95952500D01*
X138137462Y-95820056D01*
X144173000Y-95820056D01*
X144173000Y-96179944D01*
X144243211Y-96532916D01*
X144380934Y-96865409D01*
X144580876Y-97164645D01*
X144835355Y-97419124D01*
X145134591Y-97619066D01*
X145467084Y-97756789D01*
X145820056Y-97827000D01*
X146179944Y-97827000D01*
X146532916Y-97756789D01*
X146865409Y-97619066D01*
X147164645Y-97419124D01*
X147419124Y-97164645D01*
X147619066Y-96865409D01*
X147756789Y-96532916D01*
X147827000Y-96179944D01*
X147827000Y-95820056D01*
X147756789Y-95467084D01*
X147619066Y-95134591D01*
X147419124Y-94835355D01*
X147164645Y-94580876D01*
X146865409Y-94380934D01*
X146532916Y-94243211D01*
X146179944Y-94173000D01*
X145820056Y-94173000D01*
X145467084Y-94243211D01*
X145134591Y-94380934D01*
X144835355Y-94580876D01*
X144580876Y-94835355D01*
X144380934Y-95134591D01*
X144243211Y-95467084D01*
X144173000Y-95820056D01*
X138137462Y-95820056D01*
X138135000Y-95285750D01*
X137976250Y-95127000D01*
X136627000Y-95127000D01*
X136373000Y-95127000D01*
X135023750Y-95127000D01*
X134865000Y-95285750D01*
X134861928Y-95952500D01*
X134460054Y-95952500D01*
X134464502Y-95944180D01*
X134500812Y-95824482D01*
X134513072Y-95700000D01*
X134510000Y-95273250D01*
X134351250Y-95114500D01*
X133127000Y-95114500D01*
X132873000Y-95114500D01*
X131648750Y-95114500D01*
X131490000Y-95273250D01*
X131486928Y-95700000D01*
X105803120Y-95700000D01*
X105756789Y-95467084D01*
X105619066Y-95134591D01*
X105419124Y-94835355D01*
X105164645Y-94580876D01*
X104865409Y-94380934D01*
X104532916Y-94243211D01*
X104179944Y-94173000D01*
X103820056Y-94173000D01*
X103467084Y-94243211D01*
X103134591Y-94380934D01*
X102835355Y-94580876D01*
X102580876Y-94835355D01*
X102380934Y-95134591D01*
X102243211Y-95467084D01*
X102173000Y-95820056D01*
X100752000Y-95820056D01*
X100752000Y-82008753D01*
X106005991Y-82008753D01*
X106053816Y-82396828D01*
X106176432Y-82768116D01*
X106314956Y-83027276D01*
X106615162Y-83165233D01*
X107820395Y-81960000D01*
X106615162Y-80754767D01*
X106314956Y-80892724D01*
X106139118Y-81241967D01*
X106034793Y-81618804D01*
X106005991Y-82008753D01*
X100752000Y-82008753D01*
X100752000Y-68008753D01*
X106005991Y-68008753D01*
X106053816Y-68396828D01*
X106176432Y-68768116D01*
X106314956Y-69027276D01*
X106615162Y-69165233D01*
X107820395Y-67960000D01*
X106615162Y-66754767D01*
X106314956Y-66892724D01*
X106139118Y-67241967D01*
X106034793Y-67618804D01*
X106005991Y-68008753D01*
X100752000Y-68008753D01*
X100752000Y-62900001D01*
X105919483Y-62900001D01*
X105919483Y-65099999D01*
X105938323Y-65291289D01*
X105994120Y-65475227D01*
X106084730Y-65644746D01*
X106206670Y-65793330D01*
X106355254Y-65915270D01*
X106524773Y-66005880D01*
X106708711Y-66061677D01*
X106900001Y-66080517D01*
X107361198Y-66080517D01*
X107191884Y-66136432D01*
X106932724Y-66274956D01*
X106794767Y-66575162D01*
X108000000Y-67780395D01*
X108014143Y-67766253D01*
X108123000Y-67875110D01*
X108123000Y-68044890D01*
X108014143Y-68153748D01*
X108000000Y-68139605D01*
X106794767Y-69344838D01*
X106932724Y-69645044D01*
X107281967Y-69820882D01*
X107523000Y-69887610D01*
X107523000Y-69897190D01*
X107394161Y-69922818D01*
X107016171Y-70079386D01*
X106675989Y-70306689D01*
X106386689Y-70595989D01*
X106159386Y-70936171D01*
X106002818Y-71314161D01*
X105923000Y-71715433D01*
X105923000Y-72124567D01*
X106002818Y-72525839D01*
X106159386Y-72903829D01*
X106386689Y-73244011D01*
X106675989Y-73533311D01*
X107016171Y-73760614D01*
X107394161Y-73917182D01*
X107523000Y-73942810D01*
X107523000Y-75919483D01*
X106900001Y-75919483D01*
X106708711Y-75938323D01*
X106524773Y-75994120D01*
X106355254Y-76084730D01*
X106206670Y-76206670D01*
X106084730Y-76355254D01*
X105994120Y-76524773D01*
X105938323Y-76708711D01*
X105919483Y-76900001D01*
X105919483Y-79099999D01*
X105938323Y-79291289D01*
X105994120Y-79475227D01*
X106084730Y-79644746D01*
X106206670Y-79793330D01*
X106355254Y-79915270D01*
X106524773Y-80005880D01*
X106708711Y-80061677D01*
X106900001Y-80080517D01*
X107361198Y-80080517D01*
X107191884Y-80136432D01*
X106932724Y-80274956D01*
X106794767Y-80575162D01*
X108000000Y-81780395D01*
X108014143Y-81766253D01*
X108123000Y-81875110D01*
X108123000Y-82044890D01*
X108014143Y-82153748D01*
X108000000Y-82139605D01*
X106794767Y-83344838D01*
X106932724Y-83645044D01*
X107281967Y-83820882D01*
X107533775Y-83890594D01*
X107533328Y-83895136D01*
X107394161Y-83922818D01*
X107016171Y-84079386D01*
X106675989Y-84306689D01*
X106386689Y-84595989D01*
X106159386Y-84936171D01*
X106002818Y-85314161D01*
X105923000Y-85715433D01*
X105923000Y-86124567D01*
X106002818Y-86525839D01*
X106159386Y-86903829D01*
X106386689Y-87244011D01*
X106675989Y-87533311D01*
X107016171Y-87760614D01*
X107394161Y-87917182D01*
X107523000Y-87942810D01*
X107523000Y-91750000D01*
X107547983Y-91938947D01*
X107598334Y-92072273D01*
X107673727Y-92193214D01*
X107771267Y-92297123D01*
X109771267Y-94047123D01*
X109846100Y-94104478D01*
X109971789Y-94171660D01*
X110108169Y-94213031D01*
X110250000Y-94227000D01*
X131491655Y-94227000D01*
X131486928Y-94275000D01*
X131490000Y-94701750D01*
X131648750Y-94860500D01*
X132873000Y-94860500D01*
X132873000Y-94840500D01*
X133127000Y-94840500D01*
X133127000Y-94860500D01*
X134351250Y-94860500D01*
X134510000Y-94701750D01*
X134513072Y-94275000D01*
X134508345Y-94227000D01*
X134862755Y-94227000D01*
X134865000Y-94714250D01*
X135023750Y-94873000D01*
X136373000Y-94873000D01*
X136373000Y-94853000D01*
X136627000Y-94853000D01*
X136627000Y-94873000D01*
X137976250Y-94873000D01*
X138135000Y-94714250D01*
X138137307Y-94213477D01*
X138141831Y-94213031D01*
X138278211Y-94171660D01*
X138403900Y-94104478D01*
X138514067Y-94014067D01*
X140514067Y-92014067D01*
X140604478Y-91903900D01*
X140671660Y-91778211D01*
X140713031Y-91641831D01*
X140727000Y-91500000D01*
X140727000Y-91452608D01*
X140794768Y-91384840D01*
X140932724Y-91685044D01*
X141281967Y-91860882D01*
X141658804Y-91965207D01*
X142048753Y-91994009D01*
X142436828Y-91946184D01*
X142808116Y-91823568D01*
X143067276Y-91685044D01*
X143205233Y-91384838D01*
X142000000Y-90179605D01*
X141985858Y-90193748D01*
X141806253Y-90014143D01*
X141820395Y-90000000D01*
X142179605Y-90000000D01*
X143384838Y-91205233D01*
X143685044Y-91067276D01*
X143860882Y-90718033D01*
X143965207Y-90341196D01*
X143994009Y-89951247D01*
X143946184Y-89563172D01*
X143823568Y-89191884D01*
X143685044Y-88932724D01*
X143384838Y-88794767D01*
X142179605Y-90000000D01*
X141820395Y-90000000D01*
X141806253Y-89985858D01*
X141985858Y-89806253D01*
X142000000Y-89820395D01*
X143205233Y-88615162D01*
X143067276Y-88314956D01*
X142718033Y-88139118D01*
X142456864Y-88066815D01*
X142605839Y-88037182D01*
X142983829Y-87880614D01*
X143324011Y-87653311D01*
X143613311Y-87364011D01*
X143840614Y-87023829D01*
X143997182Y-86645839D01*
X144077000Y-86244567D01*
X144077000Y-85835433D01*
X143997182Y-85434161D01*
X143840614Y-85056171D01*
X143613311Y-84715989D01*
X143324011Y-84426689D01*
X142983829Y-84199386D01*
X142727000Y-84093004D01*
X142727000Y-84026996D01*
X142983829Y-83920614D01*
X143324011Y-83693311D01*
X143613311Y-83404011D01*
X143840614Y-83063829D01*
X143997182Y-82685839D01*
X144077000Y-82284567D01*
X144077000Y-81875433D01*
X143997182Y-81474161D01*
X143840614Y-81096171D01*
X143613311Y-80755989D01*
X143324011Y-80466689D01*
X142983829Y-80239386D01*
X142727000Y-80133004D01*
X142727000Y-80066996D01*
X142983829Y-79960614D01*
X143324011Y-79733311D01*
X143613311Y-79444011D01*
X143840614Y-79103829D01*
X143997182Y-78725839D01*
X144077000Y-78324567D01*
X144077000Y-77915433D01*
X143997182Y-77514161D01*
X143840614Y-77136171D01*
X143613311Y-76795989D01*
X143324011Y-76506689D01*
X142983829Y-76279386D01*
X142727000Y-76173004D01*
X142727000Y-74000000D01*
X142720886Y-73905914D01*
X142709349Y-73856185D01*
X142808116Y-73823568D01*
X143067276Y-73685044D01*
X143205233Y-73384838D01*
X142127000Y-72306605D01*
X142127000Y-72000000D01*
X142179605Y-72000000D01*
X143384838Y-73205233D01*
X143685044Y-73067276D01*
X143860882Y-72718033D01*
X143965207Y-72341196D01*
X143994009Y-71951247D01*
X143946184Y-71563172D01*
X143823568Y-71191884D01*
X143685044Y-70932724D01*
X143384838Y-70794767D01*
X142179605Y-72000000D01*
X142127000Y-72000000D01*
X142127000Y-71693395D01*
X143205233Y-70615162D01*
X143067276Y-70314956D01*
X142718033Y-70139118D01*
X142713424Y-70137842D01*
X142727000Y-70000000D01*
X142727000Y-69986996D01*
X142983829Y-69880614D01*
X143324011Y-69653311D01*
X143613311Y-69364011D01*
X143840614Y-69023829D01*
X143997182Y-68645839D01*
X144077000Y-68244567D01*
X144077000Y-67835433D01*
X143997182Y-67434161D01*
X143840614Y-67056171D01*
X143613311Y-66715989D01*
X143324011Y-66426689D01*
X142983829Y-66199386D01*
X142727000Y-66093004D01*
X142727000Y-66026996D01*
X142983829Y-65920614D01*
X143324011Y-65693311D01*
X143613311Y-65404011D01*
X143840614Y-65063829D01*
X143997182Y-64685839D01*
X144077000Y-64284567D01*
X144077000Y-63875433D01*
X143997182Y-63474161D01*
X143840614Y-63096171D01*
X143613311Y-62755989D01*
X143324011Y-62466689D01*
X142983829Y-62239386D01*
X142727000Y-62133004D01*
X142727000Y-62066996D01*
X142983829Y-61960614D01*
X143324011Y-61733311D01*
X143613311Y-61444011D01*
X143840614Y-61103829D01*
X143997182Y-60725839D01*
X144077000Y-60324567D01*
X144077000Y-59915433D01*
X143997182Y-59514161D01*
X143840614Y-59136171D01*
X143613311Y-58795989D01*
X143324011Y-58506689D01*
X142983829Y-58279386D01*
X142727000Y-58173004D01*
X142727000Y-58000000D01*
X142719693Y-57897187D01*
X142685807Y-57758757D01*
X142625565Y-57629598D01*
X142541283Y-57514674D01*
X142436200Y-57418400D01*
X140436200Y-55918400D01*
X140278211Y-55828340D01*
X140141831Y-55786969D01*
X140000000Y-55773000D01*
X135438118Y-55773000D01*
X135415270Y-55730254D01*
X135293330Y-55581670D01*
X135144746Y-55459730D01*
X134975228Y-55369120D01*
X134791289Y-55313323D01*
X134600000Y-55294483D01*
X133400000Y-55294483D01*
X133208711Y-55313323D01*
X133024772Y-55369120D01*
X132855254Y-55459730D01*
X132706670Y-55581670D01*
X132587238Y-55727198D01*
X132380373Y-55557428D01*
X132106412Y-55410993D01*
X131809146Y-55320818D01*
X131500000Y-55290370D01*
X131190855Y-55320818D01*
X130893589Y-55410993D01*
X130619628Y-55557428D01*
X130379497Y-55754497D01*
X130364312Y-55773000D01*
X130135688Y-55773000D01*
X130120503Y-55754497D01*
X129880373Y-55557428D01*
X129606412Y-55410993D01*
X129309146Y-55320818D01*
X129000000Y-55290370D01*
X128690855Y-55320818D01*
X128393589Y-55410993D01*
X128119628Y-55557428D01*
X127879497Y-55754497D01*
X127864312Y-55773000D01*
X121438118Y-55773000D01*
X121415270Y-55730254D01*
X121293330Y-55581670D01*
X121144746Y-55459730D01*
X120975228Y-55369120D01*
X120791289Y-55313323D01*
X120600000Y-55294483D01*
X119400000Y-55294483D01*
X119208711Y-55313323D01*
X119024772Y-55369120D01*
X118855254Y-55459730D01*
X118706670Y-55581670D01*
X118587238Y-55727198D01*
X118380373Y-55557428D01*
X118106412Y-55410993D01*
X117809146Y-55320818D01*
X117500000Y-55290370D01*
X117190855Y-55320818D01*
X116893589Y-55410993D01*
X116619628Y-55557428D01*
X116379497Y-55754497D01*
X116364312Y-55773000D01*
X116135688Y-55773000D01*
X116120503Y-55754497D01*
X115880373Y-55557428D01*
X115606412Y-55410993D01*
X115309146Y-55320818D01*
X115000000Y-55290370D01*
X114690855Y-55320818D01*
X114393589Y-55410993D01*
X114119628Y-55557428D01*
X113879497Y-55754497D01*
X113864312Y-55773000D01*
X113635688Y-55773000D01*
X113620503Y-55754497D01*
X113380373Y-55557428D01*
X113106412Y-55410993D01*
X112809146Y-55320818D01*
X112500000Y-55290370D01*
X112190855Y-55320818D01*
X111893589Y-55410993D01*
X111619628Y-55557428D01*
X111379497Y-55754497D01*
X111364312Y-55773000D01*
X110500000Y-55773000D01*
X110400285Y-55779871D01*
X110261710Y-55813162D01*
X110132294Y-55872847D01*
X110132083Y-55873000D01*
X110000000Y-55873000D01*
X109975224Y-55875440D01*
X109951399Y-55882667D01*
X109929443Y-55894403D01*
X109904423Y-55916370D01*
X109351843Y-56547890D01*
X107767007Y-57956633D01*
X107645522Y-58096100D01*
X107578340Y-58221789D01*
X107536969Y-58358169D01*
X107523000Y-58500000D01*
X107523000Y-61919483D01*
X106900001Y-61919483D01*
X106708711Y-61938323D01*
X106524773Y-61994120D01*
X106355254Y-62084730D01*
X106206670Y-62206670D01*
X106084730Y-62355254D01*
X105994120Y-62524773D01*
X105938323Y-62708711D01*
X105919483Y-62900001D01*
X100752000Y-62900001D01*
X100752000Y-53820056D01*
X102173000Y-53820056D01*
X102173000Y-54179944D01*
X102243211Y-54532916D01*
X102380934Y-54865409D01*
X102580876Y-55164645D01*
X102835355Y-55419124D01*
X103134591Y-55619066D01*
X103467084Y-55756789D01*
X103820056Y-55827000D01*
X104179944Y-55827000D01*
X104532916Y-55756789D01*
X104865409Y-55619066D01*
X105164645Y-55419124D01*
X105419124Y-55164645D01*
X105619066Y-54865409D01*
X105756789Y-54532916D01*
X105827000Y-54179944D01*
X105827000Y-53820056D01*
X144173000Y-53820056D01*
X144173000Y-54179944D01*
X144243211Y-54532916D01*
X144380934Y-54865409D01*
X144580876Y-55164645D01*
X144835355Y-55419124D01*
X145134591Y-55619066D01*
X145467084Y-55756789D01*
X145820056Y-55827000D01*
X146179944Y-55827000D01*
X146532916Y-55756789D01*
X146865409Y-55619066D01*
X147164645Y-55419124D01*
X147419124Y-55164645D01*
X147619066Y-54865409D01*
X147756789Y-54532916D01*
X147827000Y-54179944D01*
X147827000Y-53820056D01*
X147756789Y-53467084D01*
X147619066Y-53134591D01*
X147419124Y-52835355D01*
X147164645Y-52580876D01*
X146865409Y-52380934D01*
X146532916Y-52243211D01*
X146179944Y-52173000D01*
X145820056Y-52173000D01*
X145467084Y-52243211D01*
X145134591Y-52380934D01*
X144835355Y-52580876D01*
X144580876Y-52835355D01*
X144380934Y-53134591D01*
X144243211Y-53467084D01*
X144173000Y-53820056D01*
X105827000Y-53820056D01*
X105756789Y-53467084D01*
X105619066Y-53134591D01*
X105419124Y-52835355D01*
X105164645Y-52580876D01*
X104865409Y-52380934D01*
X104532916Y-52243211D01*
X104179944Y-52173000D01*
X103820056Y-52173000D01*
X103467084Y-52243211D01*
X103134591Y-52380934D01*
X102835355Y-52580876D01*
X102580876Y-52835355D01*
X102380934Y-53134591D01*
X102243211Y-53467084D01*
X102173000Y-53820056D01*
X100752000Y-53820056D01*
X100752000Y-50752000D01*
X149248001Y-50752000D01*
X149248000Y-99248000D01*
X149248000Y-99248000D01*
G37*
X149248000Y-99248000D02*
X100752000Y-99248000D01*
X100752000Y-95820056D01*
X102173000Y-95820056D01*
X102173000Y-96179944D01*
X102243211Y-96532916D01*
X102380934Y-96865409D01*
X102580876Y-97164645D01*
X102835355Y-97419124D01*
X103134591Y-97619066D01*
X103467084Y-97756789D01*
X103820056Y-97827000D01*
X104179944Y-97827000D01*
X104532916Y-97756789D01*
X104865409Y-97619066D01*
X105164645Y-97419124D01*
X105419124Y-97164645D01*
X105619066Y-96865409D01*
X105756789Y-96532916D01*
X105827000Y-96179944D01*
X105827000Y-95820056D01*
X105803120Y-95700000D01*
X131486928Y-95700000D01*
X131499188Y-95824482D01*
X131535498Y-95944180D01*
X131594463Y-96054494D01*
X131673815Y-96151185D01*
X131770506Y-96230537D01*
X131880820Y-96289502D01*
X132000518Y-96325812D01*
X132125000Y-96338072D01*
X132714250Y-96335000D01*
X132873000Y-96176250D01*
X132873000Y-95114500D01*
X133127000Y-95114500D01*
X133127000Y-96176250D01*
X133285750Y-96335000D01*
X133875000Y-96338072D01*
X133999482Y-96325812D01*
X134119180Y-96289502D01*
X134229494Y-96230537D01*
X134326185Y-96151185D01*
X134405537Y-96054494D01*
X134460054Y-95952500D01*
X134861928Y-95952500D01*
X134874188Y-96076982D01*
X134910498Y-96196680D01*
X134969463Y-96306994D01*
X135048815Y-96403685D01*
X135145506Y-96483037D01*
X135255820Y-96542002D01*
X135375518Y-96578312D01*
X135500000Y-96590572D01*
X136214250Y-96587500D01*
X136373000Y-96428750D01*
X136373000Y-95127000D01*
X136627000Y-95127000D01*
X136627000Y-96428750D01*
X136785750Y-96587500D01*
X137500000Y-96590572D01*
X137624482Y-96578312D01*
X137744180Y-96542002D01*
X137854494Y-96483037D01*
X137951185Y-96403685D01*
X138030537Y-96306994D01*
X138089502Y-96196680D01*
X138125812Y-96076982D01*
X138138072Y-95952500D01*
X138137462Y-95820056D01*
X144173000Y-95820056D01*
X144173000Y-96179944D01*
X144243211Y-96532916D01*
X144380934Y-96865409D01*
X144580876Y-97164645D01*
X144835355Y-97419124D01*
X145134591Y-97619066D01*
X145467084Y-97756789D01*
X145820056Y-97827000D01*
X146179944Y-97827000D01*
X146532916Y-97756789D01*
X146865409Y-97619066D01*
X147164645Y-97419124D01*
X147419124Y-97164645D01*
X147619066Y-96865409D01*
X147756789Y-96532916D01*
X147827000Y-96179944D01*
X147827000Y-95820056D01*
X147756789Y-95467084D01*
X147619066Y-95134591D01*
X147419124Y-94835355D01*
X147164645Y-94580876D01*
X146865409Y-94380934D01*
X146532916Y-94243211D01*
X146179944Y-94173000D01*
X145820056Y-94173000D01*
X145467084Y-94243211D01*
X145134591Y-94380934D01*
X144835355Y-94580876D01*
X144580876Y-94835355D01*
X144380934Y-95134591D01*
X144243211Y-95467084D01*
X144173000Y-95820056D01*
X138137462Y-95820056D01*
X138135000Y-95285750D01*
X137976250Y-95127000D01*
X136627000Y-95127000D01*
X136373000Y-95127000D01*
X135023750Y-95127000D01*
X134865000Y-95285750D01*
X134861928Y-95952500D01*
X134460054Y-95952500D01*
X134464502Y-95944180D01*
X134500812Y-95824482D01*
X134513072Y-95700000D01*
X134510000Y-95273250D01*
X134351250Y-95114500D01*
X133127000Y-95114500D01*
X132873000Y-95114500D01*
X131648750Y-95114500D01*
X131490000Y-95273250D01*
X131486928Y-95700000D01*
X105803120Y-95700000D01*
X105756789Y-95467084D01*
X105619066Y-95134591D01*
X105419124Y-94835355D01*
X105164645Y-94580876D01*
X104865409Y-94380934D01*
X104532916Y-94243211D01*
X104179944Y-94173000D01*
X103820056Y-94173000D01*
X103467084Y-94243211D01*
X103134591Y-94380934D01*
X102835355Y-94580876D01*
X102580876Y-94835355D01*
X102380934Y-95134591D01*
X102243211Y-95467084D01*
X102173000Y-95820056D01*
X100752000Y-95820056D01*
X100752000Y-82008753D01*
X106005991Y-82008753D01*
X106053816Y-82396828D01*
X106176432Y-82768116D01*
X106314956Y-83027276D01*
X106615162Y-83165233D01*
X107820395Y-81960000D01*
X106615162Y-80754767D01*
X106314956Y-80892724D01*
X106139118Y-81241967D01*
X106034793Y-81618804D01*
X106005991Y-82008753D01*
X100752000Y-82008753D01*
X100752000Y-68008753D01*
X106005991Y-68008753D01*
X106053816Y-68396828D01*
X106176432Y-68768116D01*
X106314956Y-69027276D01*
X106615162Y-69165233D01*
X107820395Y-67960000D01*
X106615162Y-66754767D01*
X106314956Y-66892724D01*
X106139118Y-67241967D01*
X106034793Y-67618804D01*
X106005991Y-68008753D01*
X100752000Y-68008753D01*
X100752000Y-62900001D01*
X105919483Y-62900001D01*
X105919483Y-65099999D01*
X105938323Y-65291289D01*
X105994120Y-65475227D01*
X106084730Y-65644746D01*
X106206670Y-65793330D01*
X106355254Y-65915270D01*
X106524773Y-66005880D01*
X106708711Y-66061677D01*
X106900001Y-66080517D01*
X107361198Y-66080517D01*
X107191884Y-66136432D01*
X106932724Y-66274956D01*
X106794767Y-66575162D01*
X108000000Y-67780395D01*
X108014143Y-67766253D01*
X108123000Y-67875110D01*
X108123000Y-68044890D01*
X108014143Y-68153748D01*
X108000000Y-68139605D01*
X106794767Y-69344838D01*
X106932724Y-69645044D01*
X107281967Y-69820882D01*
X107523000Y-69887610D01*
X107523000Y-69897190D01*
X107394161Y-69922818D01*
X107016171Y-70079386D01*
X106675989Y-70306689D01*
X106386689Y-70595989D01*
X106159386Y-70936171D01*
X106002818Y-71314161D01*
X105923000Y-71715433D01*
X105923000Y-72124567D01*
X106002818Y-72525839D01*
X106159386Y-72903829D01*
X106386689Y-73244011D01*
X106675989Y-73533311D01*
X107016171Y-73760614D01*
X107394161Y-73917182D01*
X107523000Y-73942810D01*
X107523000Y-75919483D01*
X106900001Y-75919483D01*
X106708711Y-75938323D01*
X106524773Y-75994120D01*
X106355254Y-76084730D01*
X106206670Y-76206670D01*
X106084730Y-76355254D01*
X105994120Y-76524773D01*
X105938323Y-76708711D01*
X105919483Y-76900001D01*
X105919483Y-79099999D01*
X105938323Y-79291289D01*
X105994120Y-79475227D01*
X106084730Y-79644746D01*
X106206670Y-79793330D01*
X106355254Y-79915270D01*
X106524773Y-80005880D01*
X106708711Y-80061677D01*
X106900001Y-80080517D01*
X107361198Y-80080517D01*
X107191884Y-80136432D01*
X106932724Y-80274956D01*
X106794767Y-80575162D01*
X108000000Y-81780395D01*
X108014143Y-81766253D01*
X108123000Y-81875110D01*
X108123000Y-82044890D01*
X108014143Y-82153748D01*
X108000000Y-82139605D01*
X106794767Y-83344838D01*
X106932724Y-83645044D01*
X107281967Y-83820882D01*
X107533775Y-83890594D01*
X107533328Y-83895136D01*
X107394161Y-83922818D01*
X107016171Y-84079386D01*
X106675989Y-84306689D01*
X106386689Y-84595989D01*
X106159386Y-84936171D01*
X106002818Y-85314161D01*
X105923000Y-85715433D01*
X105923000Y-86124567D01*
X106002818Y-86525839D01*
X106159386Y-86903829D01*
X106386689Y-87244011D01*
X106675989Y-87533311D01*
X107016171Y-87760614D01*
X107394161Y-87917182D01*
X107523000Y-87942810D01*
X107523000Y-91750000D01*
X107547983Y-91938947D01*
X107598334Y-92072273D01*
X107673727Y-92193214D01*
X107771267Y-92297123D01*
X109771267Y-94047123D01*
X109846100Y-94104478D01*
X109971789Y-94171660D01*
X110108169Y-94213031D01*
X110250000Y-94227000D01*
X131491655Y-94227000D01*
X131486928Y-94275000D01*
X131490000Y-94701750D01*
X131648750Y-94860500D01*
X132873000Y-94860500D01*
X132873000Y-94840500D01*
X133127000Y-94840500D01*
X133127000Y-94860500D01*
X134351250Y-94860500D01*
X134510000Y-94701750D01*
X134513072Y-94275000D01*
X134508345Y-94227000D01*
X134862755Y-94227000D01*
X134865000Y-94714250D01*
X135023750Y-94873000D01*
X136373000Y-94873000D01*
X136373000Y-94853000D01*
X136627000Y-94853000D01*
X136627000Y-94873000D01*
X137976250Y-94873000D01*
X138135000Y-94714250D01*
X138137307Y-94213477D01*
X138141831Y-94213031D01*
X138278211Y-94171660D01*
X138403900Y-94104478D01*
X138514067Y-94014067D01*
X140514067Y-92014067D01*
X140604478Y-91903900D01*
X140671660Y-91778211D01*
X140713031Y-91641831D01*
X140727000Y-91500000D01*
X140727000Y-91452608D01*
X140794768Y-91384840D01*
X140932724Y-91685044D01*
X141281967Y-91860882D01*
X141658804Y-91965207D01*
X142048753Y-91994009D01*
X142436828Y-91946184D01*
X142808116Y-91823568D01*
X143067276Y-91685044D01*
X143205233Y-91384838D01*
X142000000Y-90179605D01*
X141985858Y-90193748D01*
X141806253Y-90014143D01*
X141820395Y-90000000D01*
X142179605Y-90000000D01*
X143384838Y-91205233D01*
X143685044Y-91067276D01*
X143860882Y-90718033D01*
X143965207Y-90341196D01*
X143994009Y-89951247D01*
X143946184Y-89563172D01*
X143823568Y-89191884D01*
X143685044Y-88932724D01*
X143384838Y-88794767D01*
X142179605Y-90000000D01*
X141820395Y-90000000D01*
X141806253Y-89985858D01*
X141985858Y-89806253D01*
X142000000Y-89820395D01*
X143205233Y-88615162D01*
X143067276Y-88314956D01*
X142718033Y-88139118D01*
X142456864Y-88066815D01*
X142605839Y-88037182D01*
X142983829Y-87880614D01*
X143324011Y-87653311D01*
X143613311Y-87364011D01*
X143840614Y-87023829D01*
X143997182Y-86645839D01*
X144077000Y-86244567D01*
X144077000Y-85835433D01*
X143997182Y-85434161D01*
X143840614Y-85056171D01*
X143613311Y-84715989D01*
X143324011Y-84426689D01*
X142983829Y-84199386D01*
X142727000Y-84093004D01*
X142727000Y-84026996D01*
X142983829Y-83920614D01*
X143324011Y-83693311D01*
X143613311Y-83404011D01*
X143840614Y-83063829D01*
X143997182Y-82685839D01*
X144077000Y-82284567D01*
X144077000Y-81875433D01*
X143997182Y-81474161D01*
X143840614Y-81096171D01*
X143613311Y-80755989D01*
X143324011Y-80466689D01*
X142983829Y-80239386D01*
X142727000Y-80133004D01*
X142727000Y-80066996D01*
X142983829Y-79960614D01*
X143324011Y-79733311D01*
X143613311Y-79444011D01*
X143840614Y-79103829D01*
X143997182Y-78725839D01*
X144077000Y-78324567D01*
X144077000Y-77915433D01*
X143997182Y-77514161D01*
X143840614Y-77136171D01*
X143613311Y-76795989D01*
X143324011Y-76506689D01*
X142983829Y-76279386D01*
X142727000Y-76173004D01*
X142727000Y-74000000D01*
X142720886Y-73905914D01*
X142709349Y-73856185D01*
X142808116Y-73823568D01*
X143067276Y-73685044D01*
X143205233Y-73384838D01*
X142127000Y-72306605D01*
X142127000Y-72000000D01*
X142179605Y-72000000D01*
X143384838Y-73205233D01*
X143685044Y-73067276D01*
X143860882Y-72718033D01*
X143965207Y-72341196D01*
X143994009Y-71951247D01*
X143946184Y-71563172D01*
X143823568Y-71191884D01*
X143685044Y-70932724D01*
X143384838Y-70794767D01*
X142179605Y-72000000D01*
X142127000Y-72000000D01*
X142127000Y-71693395D01*
X143205233Y-70615162D01*
X143067276Y-70314956D01*
X142718033Y-70139118D01*
X142713424Y-70137842D01*
X142727000Y-70000000D01*
X142727000Y-69986996D01*
X142983829Y-69880614D01*
X143324011Y-69653311D01*
X143613311Y-69364011D01*
X143840614Y-69023829D01*
X143997182Y-68645839D01*
X144077000Y-68244567D01*
X144077000Y-67835433D01*
X143997182Y-67434161D01*
X143840614Y-67056171D01*
X143613311Y-66715989D01*
X143324011Y-66426689D01*
X142983829Y-66199386D01*
X142727000Y-66093004D01*
X142727000Y-66026996D01*
X142983829Y-65920614D01*
X143324011Y-65693311D01*
X143613311Y-65404011D01*
X143840614Y-65063829D01*
X143997182Y-64685839D01*
X144077000Y-64284567D01*
X144077000Y-63875433D01*
X143997182Y-63474161D01*
X143840614Y-63096171D01*
X143613311Y-62755989D01*
X143324011Y-62466689D01*
X142983829Y-62239386D01*
X142727000Y-62133004D01*
X142727000Y-62066996D01*
X142983829Y-61960614D01*
X143324011Y-61733311D01*
X143613311Y-61444011D01*
X143840614Y-61103829D01*
X143997182Y-60725839D01*
X144077000Y-60324567D01*
X144077000Y-59915433D01*
X143997182Y-59514161D01*
X143840614Y-59136171D01*
X143613311Y-58795989D01*
X143324011Y-58506689D01*
X142983829Y-58279386D01*
X142727000Y-58173004D01*
X142727000Y-58000000D01*
X142719693Y-57897187D01*
X142685807Y-57758757D01*
X142625565Y-57629598D01*
X142541283Y-57514674D01*
X142436200Y-57418400D01*
X140436200Y-55918400D01*
X140278211Y-55828340D01*
X140141831Y-55786969D01*
X140000000Y-55773000D01*
X135438118Y-55773000D01*
X135415270Y-55730254D01*
X135293330Y-55581670D01*
X135144746Y-55459730D01*
X134975228Y-55369120D01*
X134791289Y-55313323D01*
X134600000Y-55294483D01*
X133400000Y-55294483D01*
X133208711Y-55313323D01*
X133024772Y-55369120D01*
X132855254Y-55459730D01*
X132706670Y-55581670D01*
X132587238Y-55727198D01*
X132380373Y-55557428D01*
X132106412Y-55410993D01*
X131809146Y-55320818D01*
X131500000Y-55290370D01*
X131190855Y-55320818D01*
X130893589Y-55410993D01*
X130619628Y-55557428D01*
X130379497Y-55754497D01*
X130364312Y-55773000D01*
X130135688Y-55773000D01*
X130120503Y-55754497D01*
X129880373Y-55557428D01*
X129606412Y-55410993D01*
X129309146Y-55320818D01*
X129000000Y-55290370D01*
X128690855Y-55320818D01*
X128393589Y-55410993D01*
X128119628Y-55557428D01*
X127879497Y-55754497D01*
X127864312Y-55773000D01*
X121438118Y-55773000D01*
X121415270Y-55730254D01*
X121293330Y-55581670D01*
X121144746Y-55459730D01*
X120975228Y-55369120D01*
X120791289Y-55313323D01*
X120600000Y-55294483D01*
X119400000Y-55294483D01*
X119208711Y-55313323D01*
X119024772Y-55369120D01*
X118855254Y-55459730D01*
X118706670Y-55581670D01*
X118587238Y-55727198D01*
X118380373Y-55557428D01*
X118106412Y-55410993D01*
X117809146Y-55320818D01*
X117500000Y-55290370D01*
X117190855Y-55320818D01*
X116893589Y-55410993D01*
X116619628Y-55557428D01*
X116379497Y-55754497D01*
X116364312Y-55773000D01*
X116135688Y-55773000D01*
X116120503Y-55754497D01*
X115880373Y-55557428D01*
X115606412Y-55410993D01*
X115309146Y-55320818D01*
X115000000Y-55290370D01*
X114690855Y-55320818D01*
X114393589Y-55410993D01*
X114119628Y-55557428D01*
X113879497Y-55754497D01*
X113864312Y-55773000D01*
X113635688Y-55773000D01*
X113620503Y-55754497D01*
X113380373Y-55557428D01*
X113106412Y-55410993D01*
X112809146Y-55320818D01*
X112500000Y-55290370D01*
X112190855Y-55320818D01*
X111893589Y-55410993D01*
X111619628Y-55557428D01*
X111379497Y-55754497D01*
X111364312Y-55773000D01*
X110500000Y-55773000D01*
X110400285Y-55779871D01*
X110261710Y-55813162D01*
X110132294Y-55872847D01*
X110132083Y-55873000D01*
X110000000Y-55873000D01*
X109975224Y-55875440D01*
X109951399Y-55882667D01*
X109929443Y-55894403D01*
X109904423Y-55916370D01*
X109351843Y-56547890D01*
X107767007Y-57956633D01*
X107645522Y-58096100D01*
X107578340Y-58221789D01*
X107536969Y-58358169D01*
X107523000Y-58500000D01*
X107523000Y-61919483D01*
X106900001Y-61919483D01*
X106708711Y-61938323D01*
X106524773Y-61994120D01*
X106355254Y-62084730D01*
X106206670Y-62206670D01*
X106084730Y-62355254D01*
X105994120Y-62524773D01*
X105938323Y-62708711D01*
X105919483Y-62900001D01*
X100752000Y-62900001D01*
X100752000Y-53820056D01*
X102173000Y-53820056D01*
X102173000Y-54179944D01*
X102243211Y-54532916D01*
X102380934Y-54865409D01*
X102580876Y-55164645D01*
X102835355Y-55419124D01*
X103134591Y-55619066D01*
X103467084Y-55756789D01*
X103820056Y-55827000D01*
X104179944Y-55827000D01*
X104532916Y-55756789D01*
X104865409Y-55619066D01*
X105164645Y-55419124D01*
X105419124Y-55164645D01*
X105619066Y-54865409D01*
X105756789Y-54532916D01*
X105827000Y-54179944D01*
X105827000Y-53820056D01*
X144173000Y-53820056D01*
X144173000Y-54179944D01*
X144243211Y-54532916D01*
X144380934Y-54865409D01*
X144580876Y-55164645D01*
X144835355Y-55419124D01*
X145134591Y-55619066D01*
X145467084Y-55756789D01*
X145820056Y-55827000D01*
X146179944Y-55827000D01*
X146532916Y-55756789D01*
X146865409Y-55619066D01*
X147164645Y-55419124D01*
X147419124Y-55164645D01*
X147619066Y-54865409D01*
X147756789Y-54532916D01*
X147827000Y-54179944D01*
X147827000Y-53820056D01*
X147756789Y-53467084D01*
X147619066Y-53134591D01*
X147419124Y-52835355D01*
X147164645Y-52580876D01*
X146865409Y-52380934D01*
X146532916Y-52243211D01*
X146179944Y-52173000D01*
X145820056Y-52173000D01*
X145467084Y-52243211D01*
X145134591Y-52380934D01*
X144835355Y-52580876D01*
X144580876Y-52835355D01*
X144380934Y-53134591D01*
X144243211Y-53467084D01*
X144173000Y-53820056D01*
X105827000Y-53820056D01*
X105756789Y-53467084D01*
X105619066Y-53134591D01*
X105419124Y-52835355D01*
X105164645Y-52580876D01*
X104865409Y-52380934D01*
X104532916Y-52243211D01*
X104179944Y-52173000D01*
X103820056Y-52173000D01*
X103467084Y-52243211D01*
X103134591Y-52380934D01*
X102835355Y-52580876D01*
X102580876Y-52835355D01*
X102380934Y-53134591D01*
X102243211Y-53467084D01*
X102173000Y-53820056D01*
X100752000Y-53820056D01*
X100752000Y-50752000D01*
X149248001Y-50752000D01*
X149248000Y-99248000D01*
G36*
X110923000Y-56797531D02*
G01*
X110923000Y-57202468D01*
X110945818Y-57434145D01*
X111035993Y-57731411D01*
X111182428Y-58005372D01*
X111379497Y-58245503D01*
X111619627Y-58442572D01*
X111893588Y-58589007D01*
X112190854Y-58679182D01*
X112500000Y-58709630D01*
X112809145Y-58679182D01*
X113106411Y-58589007D01*
X113380372Y-58442572D01*
X113620503Y-58245503D01*
X113815189Y-58008277D01*
X113910951Y-58134429D01*
X114128807Y-58327496D01*
X114380142Y-58474352D01*
X114643110Y-58566476D01*
X114873000Y-58445155D01*
X114873000Y-57127000D01*
X114853000Y-57127000D01*
X114853000Y-56873000D01*
X114873000Y-56873000D01*
X114873000Y-56853000D01*
X115127000Y-56853000D01*
X115127000Y-56873000D01*
X115147000Y-56873000D01*
X115147000Y-57127000D01*
X115127000Y-57127000D01*
X115127000Y-58445155D01*
X115356890Y-58566476D01*
X115619858Y-58474352D01*
X115871193Y-58327496D01*
X116089049Y-58134429D01*
X116184811Y-58008276D01*
X116379497Y-58245503D01*
X116619627Y-58442572D01*
X116893588Y-58589007D01*
X117190854Y-58679182D01*
X117500000Y-58709630D01*
X117809145Y-58679182D01*
X118106411Y-58589007D01*
X118380372Y-58442572D01*
X118587238Y-58272802D01*
X118706670Y-58418330D01*
X118855254Y-58540270D01*
X119024772Y-58630880D01*
X119208711Y-58686677D01*
X119400000Y-58705517D01*
X120600000Y-58705517D01*
X120791289Y-58686677D01*
X120975228Y-58630880D01*
X121144746Y-58540270D01*
X121293330Y-58418330D01*
X121415270Y-58269746D01*
X121505880Y-58100228D01*
X121561677Y-57916289D01*
X121580517Y-57725000D01*
X121580517Y-56627000D01*
X127439796Y-56627000D01*
X127423000Y-56797531D01*
X127423000Y-57202468D01*
X127445818Y-57434145D01*
X127535993Y-57731411D01*
X127682428Y-58005372D01*
X127879497Y-58245503D01*
X128119627Y-58442572D01*
X128393588Y-58589007D01*
X128690854Y-58679182D01*
X129000000Y-58709630D01*
X129309145Y-58679182D01*
X129606411Y-58589007D01*
X129880372Y-58442572D01*
X130120503Y-58245503D01*
X130250000Y-58087710D01*
X130379497Y-58245503D01*
X130619627Y-58442572D01*
X130893588Y-58589007D01*
X131190854Y-58679182D01*
X131500000Y-58709630D01*
X131809145Y-58679182D01*
X132106411Y-58589007D01*
X132380372Y-58442572D01*
X132588574Y-58271706D01*
X132619463Y-58329494D01*
X132698815Y-58426185D01*
X132795506Y-58505537D01*
X132905820Y-58564502D01*
X133025518Y-58600812D01*
X133150000Y-58613072D01*
X133714250Y-58610000D01*
X133873000Y-58451250D01*
X133873000Y-57127000D01*
X134127000Y-57127000D01*
X134127000Y-58451250D01*
X134285750Y-58610000D01*
X134850000Y-58613072D01*
X134974482Y-58600812D01*
X135094180Y-58564502D01*
X135204494Y-58505537D01*
X135301185Y-58426185D01*
X135380537Y-58329494D01*
X135439502Y-58219180D01*
X135475812Y-58099482D01*
X135488072Y-57975000D01*
X135485000Y-57285750D01*
X135326250Y-57127000D01*
X134127000Y-57127000D01*
X133873000Y-57127000D01*
X133853000Y-57127000D01*
X133853000Y-56873000D01*
X133873000Y-56873000D01*
X133873000Y-56853000D01*
X134127000Y-56853000D01*
X134127000Y-56873000D01*
X135326250Y-56873000D01*
X135485000Y-56714250D01*
X135485389Y-56627000D01*
X139957667Y-56627000D01*
X141845667Y-58043000D01*
X141795433Y-58043000D01*
X141394161Y-58122818D01*
X141016171Y-58279386D01*
X140675989Y-58506689D01*
X140386689Y-58795989D01*
X140159386Y-59136171D01*
X140002818Y-59514161D01*
X139923000Y-59915433D01*
X139923000Y-60324567D01*
X140002818Y-60725839D01*
X140159386Y-61103829D01*
X140386689Y-61444011D01*
X140675989Y-61733311D01*
X141016171Y-61960614D01*
X141352680Y-62100000D01*
X141016171Y-62239386D01*
X140675989Y-62466689D01*
X140386689Y-62755989D01*
X140159386Y-63096171D01*
X140002818Y-63474161D01*
X139923000Y-63875433D01*
X139923000Y-64284567D01*
X140002818Y-64685839D01*
X140159386Y-65063829D01*
X140386689Y-65404011D01*
X140675989Y-65693311D01*
X141016171Y-65920614D01*
X141394161Y-66077182D01*
X141531075Y-66104416D01*
X141191884Y-66216432D01*
X140932724Y-66354956D01*
X140794767Y-66655162D01*
X141873000Y-67733395D01*
X141873000Y-68346605D01*
X140794767Y-69424838D01*
X140932724Y-69725044D01*
X141281967Y-69900882D01*
X141543136Y-69973185D01*
X141394161Y-70002818D01*
X141016171Y-70159386D01*
X140675989Y-70386689D01*
X140386689Y-70675989D01*
X140159386Y-71016171D01*
X140002818Y-71394161D01*
X139923000Y-71795433D01*
X139923000Y-72204567D01*
X140002818Y-72605839D01*
X140159386Y-72983829D01*
X140386689Y-73324011D01*
X140675989Y-73613311D01*
X141016171Y-73840614D01*
X141394161Y-73997182D01*
X141795433Y-74077000D01*
X141873000Y-74077000D01*
X141873000Y-76043000D01*
X141795433Y-76043000D01*
X141394161Y-76122818D01*
X141016171Y-76279386D01*
X140675989Y-76506689D01*
X140386689Y-76795989D01*
X140159386Y-77136171D01*
X140002818Y-77514161D01*
X139923000Y-77915433D01*
X139923000Y-78253000D01*
X139141433Y-78253000D01*
X139155517Y-78110000D01*
X139155517Y-77810000D01*
X139138598Y-77638220D01*
X139088492Y-77473041D01*
X139007123Y-77320811D01*
X138897620Y-77187380D01*
X138764189Y-77077877D01*
X138611959Y-76996508D01*
X138446780Y-76946402D01*
X138275000Y-76929483D01*
X136625000Y-76929483D01*
X136453220Y-76946402D01*
X136288041Y-76996508D01*
X136135811Y-77077877D01*
X136002380Y-77187380D01*
X135892877Y-77320811D01*
X135811508Y-77473041D01*
X135761402Y-77638220D01*
X135744483Y-77810000D01*
X135744483Y-78110000D01*
X135761402Y-78281780D01*
X135811508Y-78446959D01*
X135890638Y-78595000D01*
X135811508Y-78743041D01*
X135761402Y-78908220D01*
X135744483Y-79080000D01*
X135744483Y-79380000D01*
X135761402Y-79551780D01*
X135811508Y-79716959D01*
X135890638Y-79865000D01*
X135811508Y-80013041D01*
X135761402Y-80178220D01*
X135744483Y-80350000D01*
X135744483Y-80650000D01*
X135761402Y-80821780D01*
X135811508Y-80986959D01*
X135890638Y-81135000D01*
X135811508Y-81283041D01*
X135761402Y-81448220D01*
X135744483Y-81620000D01*
X135744483Y-81920000D01*
X135761402Y-82091780D01*
X135811508Y-82256959D01*
X135892877Y-82409189D01*
X136002380Y-82542620D01*
X136135811Y-82652123D01*
X136288041Y-82733492D01*
X136453220Y-82783598D01*
X136625000Y-82800517D01*
X138275000Y-82800517D01*
X138446780Y-82783598D01*
X138611959Y-82733492D01*
X138764189Y-82652123D01*
X138897620Y-82542620D01*
X139007123Y-82409189D01*
X139088492Y-82256959D01*
X139138598Y-82091780D01*
X139155517Y-81920000D01*
X139155517Y-81620000D01*
X139141433Y-81477000D01*
X140002253Y-81477000D01*
X139923000Y-81875433D01*
X139923000Y-82284567D01*
X140002818Y-82685839D01*
X140159386Y-83063829D01*
X140386689Y-83404011D01*
X140675989Y-83693311D01*
X141016171Y-83920614D01*
X141394161Y-84077182D01*
X141531075Y-84104416D01*
X141191884Y-84216432D01*
X140932724Y-84354956D01*
X140794767Y-84655162D01*
X141873000Y-85733395D01*
X141873000Y-86346605D01*
X140794767Y-87424838D01*
X140932724Y-87725044D01*
X141143151Y-87830990D01*
X139916370Y-88904423D01*
X139899331Y-88922575D01*
X139886160Y-88943702D01*
X139877364Y-88966993D01*
X139873000Y-89000000D01*
X139873000Y-91447394D01*
X137947394Y-93373000D01*
X137838986Y-93373000D01*
X137875969Y-93326923D01*
X138019571Y-93051094D01*
X138090563Y-92832980D01*
X137970594Y-92587000D01*
X136627000Y-92587000D01*
X136627000Y-92607000D01*
X136373000Y-92607000D01*
X136373000Y-92587000D01*
X135029406Y-92587000D01*
X134909437Y-92832980D01*
X134980429Y-93051094D01*
X135124031Y-93326923D01*
X135161014Y-93373000D01*
X110297718Y-93373000D01*
X108377000Y-91692372D01*
X108377000Y-90775000D01*
X114419483Y-90775000D01*
X114419483Y-92225000D01*
X114438323Y-92416289D01*
X114494120Y-92600228D01*
X114584730Y-92769746D01*
X114706670Y-92918330D01*
X114855254Y-93040270D01*
X115024772Y-93130880D01*
X115208711Y-93186677D01*
X115400000Y-93205517D01*
X116600000Y-93205517D01*
X116791289Y-93186677D01*
X116975228Y-93130880D01*
X117144746Y-93040270D01*
X117293330Y-92918330D01*
X117412762Y-92772802D01*
X117619628Y-92942572D01*
X117893589Y-93089007D01*
X118190855Y-93179182D01*
X118500000Y-93209630D01*
X118809146Y-93179182D01*
X119106412Y-93089007D01*
X119380373Y-92942572D01*
X119620503Y-92745503D01*
X119750000Y-92587710D01*
X119879497Y-92745503D01*
X120119628Y-92942572D01*
X120393589Y-93089007D01*
X120690855Y-93179182D01*
X121000000Y-93209630D01*
X121309146Y-93179182D01*
X121606412Y-93089007D01*
X121880373Y-92942572D01*
X122120503Y-92745503D01*
X122250000Y-92587710D01*
X122379497Y-92745503D01*
X122619628Y-92942572D01*
X122893589Y-93089007D01*
X123190855Y-93179182D01*
X123500000Y-93209630D01*
X123809146Y-93179182D01*
X124106412Y-93089007D01*
X124380373Y-92942572D01*
X124620503Y-92745503D01*
X124815189Y-92508277D01*
X124910951Y-92634429D01*
X125128807Y-92827496D01*
X125380142Y-92974352D01*
X125643110Y-93066476D01*
X125873000Y-92945155D01*
X125873000Y-91627000D01*
X126127000Y-91627000D01*
X126127000Y-92945155D01*
X126356890Y-93066476D01*
X126619858Y-92974352D01*
X126871193Y-92827496D01*
X126986849Y-92725000D01*
X131486928Y-92725000D01*
X131499188Y-92849482D01*
X131535498Y-92969180D01*
X131594463Y-93079494D01*
X131673815Y-93176185D01*
X131770506Y-93255537D01*
X131880820Y-93314502D01*
X132000518Y-93350812D01*
X132125000Y-93363072D01*
X132714250Y-93360000D01*
X132873000Y-93201250D01*
X132873000Y-92139500D01*
X133127000Y-92139500D01*
X133127000Y-93201250D01*
X133285750Y-93360000D01*
X133875000Y-93363072D01*
X133999482Y-93350812D01*
X134119180Y-93314502D01*
X134229494Y-93255537D01*
X134326185Y-93176185D01*
X134405537Y-93079494D01*
X134464502Y-92969180D01*
X134500812Y-92849482D01*
X134513072Y-92725000D01*
X134510000Y-92298250D01*
X134351250Y-92139500D01*
X133127000Y-92139500D01*
X132873000Y-92139500D01*
X131648750Y-92139500D01*
X131490000Y-92298250D01*
X131486928Y-92725000D01*
X126986849Y-92725000D01*
X127089049Y-92634429D01*
X127265053Y-92402570D01*
X127392442Y-92140830D01*
X127466320Y-91859267D01*
X127326165Y-91627000D01*
X126127000Y-91627000D01*
X125873000Y-91627000D01*
X125853000Y-91627000D01*
X125853000Y-91373000D01*
X125873000Y-91373000D01*
X125873000Y-90054845D01*
X126127000Y-90054845D01*
X126127000Y-91373000D01*
X127326165Y-91373000D01*
X127466320Y-91140733D01*
X127392442Y-90859170D01*
X127265053Y-90597430D01*
X127089049Y-90365571D01*
X126871193Y-90172504D01*
X126619858Y-90025648D01*
X126356890Y-89933524D01*
X126127000Y-90054845D01*
X125873000Y-90054845D01*
X125643110Y-89933524D01*
X125380142Y-90025648D01*
X125128807Y-90172504D01*
X124910951Y-90365571D01*
X124815189Y-90491723D01*
X124620503Y-90254497D01*
X124380372Y-90057428D01*
X124106411Y-89910993D01*
X123809145Y-89820818D01*
X123500000Y-89790370D01*
X123190854Y-89820818D01*
X122893588Y-89910993D01*
X122619627Y-90057428D01*
X122379497Y-90254497D01*
X122250000Y-90412290D01*
X122120503Y-90254497D01*
X121880372Y-90057428D01*
X121606411Y-89910993D01*
X121309145Y-89820818D01*
X121000000Y-89790370D01*
X120690854Y-89820818D01*
X120393588Y-89910993D01*
X120119627Y-90057428D01*
X119879497Y-90254497D01*
X119750000Y-90412290D01*
X119620503Y-90254497D01*
X119380372Y-90057428D01*
X119106411Y-89910993D01*
X118809145Y-89820818D01*
X118500000Y-89790370D01*
X118190854Y-89820818D01*
X117893588Y-89910993D01*
X117619627Y-90057428D01*
X117412762Y-90227198D01*
X117293330Y-90081670D01*
X117144746Y-89959730D01*
X116975228Y-89869120D01*
X116791289Y-89813323D01*
X116600000Y-89794483D01*
X115400000Y-89794483D01*
X115208711Y-89813323D01*
X115024772Y-89869120D01*
X114855254Y-89959730D01*
X114706670Y-90081670D01*
X114584730Y-90230254D01*
X114494120Y-90399772D01*
X114438323Y-90583711D01*
X114419483Y-90775000D01*
X108377000Y-90775000D01*
X108377000Y-87873557D01*
X108436828Y-87866184D01*
X108808116Y-87743568D01*
X109067276Y-87605044D01*
X109205233Y-87304838D01*
X108377000Y-86476605D01*
X108377000Y-86117395D01*
X109384838Y-87125233D01*
X109685044Y-86987276D01*
X109860882Y-86638033D01*
X109965207Y-86261196D01*
X109994009Y-85871247D01*
X109946184Y-85483172D01*
X109823568Y-85111884D01*
X109685044Y-84852724D01*
X109384838Y-84714767D01*
X108377000Y-85722605D01*
X108377000Y-85363395D01*
X109205233Y-84535162D01*
X109067276Y-84234956D01*
X108718033Y-84059118D01*
X108456864Y-83986815D01*
X108605839Y-83957182D01*
X108983829Y-83800614D01*
X109324011Y-83573311D01*
X109613311Y-83284011D01*
X109840614Y-82943829D01*
X109997182Y-82565839D01*
X110077000Y-82164567D01*
X110077000Y-82104861D01*
X110095577Y-82083630D01*
X110110056Y-82063377D01*
X110120306Y-82040688D01*
X110125932Y-82016436D01*
X110126719Y-81991552D01*
X110122636Y-81966993D01*
X110113840Y-81943702D01*
X110100248Y-81922030D01*
X110077000Y-81892140D01*
X110077000Y-81755433D01*
X109997182Y-81354161D01*
X109840614Y-80976171D01*
X109613311Y-80635989D01*
X109324011Y-80346689D01*
X108983829Y-80119386D01*
X108889991Y-80080517D01*
X109099999Y-80080517D01*
X109291289Y-80061677D01*
X109475227Y-80005880D01*
X109644746Y-79915270D01*
X109793330Y-79793330D01*
X109915270Y-79644746D01*
X110005880Y-79475227D01*
X110061677Y-79291289D01*
X110080517Y-79099999D01*
X110080517Y-76900001D01*
X110061677Y-76708711D01*
X110005880Y-76524773D01*
X109915270Y-76355254D01*
X109793330Y-76206670D01*
X109644746Y-76084730D01*
X109475227Y-75994120D01*
X109291289Y-75938323D01*
X109099999Y-75919483D01*
X108377000Y-75919483D01*
X108377000Y-73873557D01*
X108436828Y-73866184D01*
X108808116Y-73743568D01*
X109067276Y-73605044D01*
X109205233Y-73304838D01*
X108377000Y-72476605D01*
X108377000Y-72117395D01*
X109384838Y-73125233D01*
X109685044Y-72987276D01*
X109860882Y-72638033D01*
X109965207Y-72261196D01*
X109994009Y-71871247D01*
X109946184Y-71483172D01*
X109823568Y-71111884D01*
X109685044Y-70852724D01*
X109384838Y-70714767D01*
X108377000Y-71722605D01*
X108377000Y-71363395D01*
X109205233Y-70535162D01*
X109067276Y-70234956D01*
X108718033Y-70059118D01*
X108456864Y-69986815D01*
X108605839Y-69957182D01*
X108983829Y-69800614D01*
X109324011Y-69573311D01*
X109613311Y-69284011D01*
X109840614Y-68943829D01*
X109997182Y-68565839D01*
X110077000Y-68164567D01*
X110077000Y-68102606D01*
X110089803Y-68089803D01*
X110105597Y-68070557D01*
X110117333Y-68048601D01*
X110124560Y-68024776D01*
X110127000Y-68000000D01*
X110124560Y-67975224D01*
X110117333Y-67951399D01*
X110105597Y-67929443D01*
X110095577Y-67916370D01*
X110077000Y-67895139D01*
X110077000Y-67859453D01*
X110573000Y-67859453D01*
X110573000Y-68140547D01*
X110627838Y-68416241D01*
X110735409Y-68675938D01*
X110891576Y-68909660D01*
X111023001Y-69041085D01*
X111023000Y-77458916D01*
X110891576Y-77590340D01*
X110735409Y-77824062D01*
X110627838Y-78083759D01*
X110573000Y-78359453D01*
X110573000Y-78640547D01*
X110627838Y-78916241D01*
X110735409Y-79175938D01*
X110891576Y-79409660D01*
X111090340Y-79608424D01*
X111324062Y-79764591D01*
X111583759Y-79872162D01*
X111859453Y-79927000D01*
X112140547Y-79927000D01*
X112416241Y-79872162D01*
X112675938Y-79764591D01*
X112909660Y-79608424D01*
X113108424Y-79409660D01*
X113264591Y-79175938D01*
X113372162Y-78916241D01*
X113427000Y-78640547D01*
X113427000Y-78359453D01*
X113372162Y-78083759D01*
X113264591Y-77824062D01*
X113108424Y-77590340D01*
X112977000Y-77458916D01*
X112977000Y-72171341D01*
X113088183Y-72306817D01*
X113135000Y-72345239D01*
X123062495Y-82272735D01*
X123062500Y-82272739D01*
X125352271Y-84562511D01*
X125390684Y-84609317D01*
X125437490Y-84647730D01*
X131114764Y-90325004D01*
X131153183Y-90371817D01*
X131340017Y-90525149D01*
X131490979Y-90605839D01*
X131553176Y-90639084D01*
X131724646Y-90691100D01*
X131800558Y-90753399D01*
X131770506Y-90769463D01*
X131673815Y-90848815D01*
X131594463Y-90945506D01*
X131535498Y-91055820D01*
X131499188Y-91175518D01*
X131486928Y-91300000D01*
X131490000Y-91726750D01*
X131648750Y-91885500D01*
X132873000Y-91885500D01*
X132873000Y-91865500D01*
X133127000Y-91865500D01*
X133127000Y-91885500D01*
X134351250Y-91885500D01*
X134510000Y-91726750D01*
X134513072Y-91300000D01*
X134500812Y-91175518D01*
X134464502Y-91055820D01*
X134405537Y-90945506D01*
X134326185Y-90848815D01*
X134229494Y-90769463D01*
X134199442Y-90753399D01*
X134231609Y-90727000D01*
X134979486Y-90727000D01*
X135049290Y-90857595D01*
X135259168Y-91113332D01*
X135432191Y-91255328D01*
X135318685Y-91350563D01*
X135124031Y-91593077D01*
X134980429Y-91868906D01*
X134909437Y-92087020D01*
X135029406Y-92333000D01*
X136373000Y-92333000D01*
X136373000Y-92313000D01*
X136627000Y-92313000D01*
X136627000Y-92333000D01*
X137970594Y-92333000D01*
X138090563Y-92087020D01*
X138019571Y-91868906D01*
X137875969Y-91593077D01*
X137681315Y-91350563D01*
X137567809Y-91255328D01*
X137740832Y-91113332D01*
X137950710Y-90857595D01*
X138106663Y-90565827D01*
X138202699Y-90249239D01*
X138235126Y-89920000D01*
X138202699Y-89590761D01*
X138106663Y-89274173D01*
X137950710Y-88982405D01*
X137740832Y-88726668D01*
X137485095Y-88516790D01*
X137193327Y-88360837D01*
X136876739Y-88264801D01*
X136630005Y-88240500D01*
X136369995Y-88240500D01*
X136123261Y-88264801D01*
X136107024Y-88269727D01*
X136080000Y-88267065D01*
X136019740Y-88273000D01*
X134231609Y-88273000D01*
X134169746Y-88222230D01*
X134000228Y-88131620D01*
X133816289Y-88075823D01*
X133625000Y-88056983D01*
X132375000Y-88056983D01*
X132322403Y-88062163D01*
X132135756Y-87875516D01*
X132714250Y-87872500D01*
X132873000Y-87713750D01*
X132873000Y-86652000D01*
X133127000Y-86652000D01*
X133127000Y-87713750D01*
X133285750Y-87872500D01*
X133875000Y-87875572D01*
X133999482Y-87863312D01*
X134119180Y-87827002D01*
X134229494Y-87768037D01*
X134326185Y-87688685D01*
X134405537Y-87591994D01*
X134464502Y-87481680D01*
X134500812Y-87361982D01*
X134513072Y-87237500D01*
X134510000Y-86810750D01*
X134351250Y-86652000D01*
X133127000Y-86652000D01*
X132873000Y-86652000D01*
X131648750Y-86652000D01*
X131490000Y-86810750D01*
X131487005Y-87226766D01*
X130072739Y-85812500D01*
X131486928Y-85812500D01*
X131490000Y-86239250D01*
X131648750Y-86398000D01*
X132873000Y-86398000D01*
X132873000Y-85336250D01*
X133127000Y-85336250D01*
X133127000Y-86398000D01*
X134351250Y-86398000D01*
X134510000Y-86239250D01*
X134511083Y-86088753D01*
X140005991Y-86088753D01*
X140053816Y-86476828D01*
X140176432Y-86848116D01*
X140314956Y-87107276D01*
X140615162Y-87245233D01*
X141820395Y-86040000D01*
X140615162Y-84834767D01*
X140314956Y-84972724D01*
X140139118Y-85321967D01*
X140034793Y-85698804D01*
X140005991Y-86088753D01*
X134511083Y-86088753D01*
X134513072Y-85812500D01*
X134500812Y-85688018D01*
X134464502Y-85568320D01*
X134405537Y-85458006D01*
X134326185Y-85361315D01*
X134229494Y-85281963D01*
X134119180Y-85222998D01*
X133999482Y-85186688D01*
X133875000Y-85174428D01*
X133285750Y-85177500D01*
X133127000Y-85336250D01*
X132873000Y-85336250D01*
X132714250Y-85177500D01*
X132125000Y-85174428D01*
X132000518Y-85186688D01*
X131880820Y-85222998D01*
X131770506Y-85281963D01*
X131673815Y-85361315D01*
X131594463Y-85458006D01*
X131535498Y-85568320D01*
X131499188Y-85688018D01*
X131486928Y-85812500D01*
X130072739Y-85812500D01*
X128127000Y-83866761D01*
X128127000Y-83824258D01*
X128464250Y-83822500D01*
X128623000Y-83663750D01*
X128623000Y-82602000D01*
X128877000Y-82602000D01*
X128877000Y-83663750D01*
X129035750Y-83822500D01*
X129625000Y-83825572D01*
X129749482Y-83813312D01*
X129869180Y-83777002D01*
X129979494Y-83718037D01*
X130076185Y-83638685D01*
X130155537Y-83541994D01*
X130214502Y-83431680D01*
X130250812Y-83311982D01*
X130263072Y-83187500D01*
X130260000Y-82760750D01*
X130101250Y-82602000D01*
X128877000Y-82602000D01*
X128623000Y-82602000D01*
X128603000Y-82602000D01*
X128603000Y-82348000D01*
X128623000Y-82348000D01*
X128623000Y-81286250D01*
X128877000Y-81286250D01*
X128877000Y-82348000D01*
X130101250Y-82348000D01*
X130260000Y-82189250D01*
X130263072Y-81762500D01*
X130250812Y-81638018D01*
X130214502Y-81518320D01*
X130155537Y-81408006D01*
X130076185Y-81311315D01*
X129979494Y-81231963D01*
X129869180Y-81172998D01*
X129749482Y-81136688D01*
X129625000Y-81124428D01*
X129035750Y-81127500D01*
X128877000Y-81286250D01*
X128623000Y-81286250D01*
X128464250Y-81127500D01*
X128127000Y-81125742D01*
X128127000Y-80943017D01*
X129375000Y-80943017D01*
X129566289Y-80924177D01*
X129750228Y-80868380D01*
X129919746Y-80777770D01*
X130068330Y-80655830D01*
X130190270Y-80507246D01*
X130280880Y-80337728D01*
X130320536Y-80207000D01*
X130888437Y-80207000D01*
X130890000Y-80214250D01*
X131048750Y-80373000D01*
X132373000Y-80373000D01*
X132373000Y-80353000D01*
X132627000Y-80353000D01*
X132627000Y-80373000D01*
X132647000Y-80373000D01*
X132647000Y-80627000D01*
X132627000Y-80627000D01*
X132627000Y-80647000D01*
X132373000Y-80647000D01*
X132373000Y-80627000D01*
X131048750Y-80627000D01*
X130890000Y-80785750D01*
X130886928Y-80800000D01*
X130899188Y-80924482D01*
X130935498Y-81044180D01*
X130966450Y-81102087D01*
X130942877Y-81130811D01*
X130861508Y-81283041D01*
X130811402Y-81448220D01*
X130794483Y-81620000D01*
X130794483Y-81920000D01*
X130811402Y-82091780D01*
X130861508Y-82256959D01*
X130942877Y-82409189D01*
X131052380Y-82542620D01*
X131185811Y-82652123D01*
X131338041Y-82733492D01*
X131503220Y-82783598D01*
X131675000Y-82800517D01*
X133325000Y-82800517D01*
X133496780Y-82783598D01*
X133614753Y-82747812D01*
X133766525Y-82732863D01*
X133834141Y-82712352D01*
X133950691Y-82676997D01*
X134120418Y-82586276D01*
X134269186Y-82464186D01*
X134299784Y-82426902D01*
X135406907Y-81319780D01*
X135444186Y-81289186D01*
X135566276Y-81140418D01*
X135656997Y-80970691D01*
X135702169Y-80821780D01*
X135712863Y-80786526D01*
X135731727Y-80595000D01*
X135727000Y-80547007D01*
X135727000Y-77297993D01*
X135731727Y-77250000D01*
X135712863Y-77058474D01*
X135673734Y-76929483D01*
X135656997Y-76874309D01*
X135566276Y-76704582D01*
X135444186Y-76555814D01*
X135406902Y-76525216D01*
X133724784Y-74843098D01*
X133694186Y-74805814D01*
X133545418Y-74683724D01*
X133375691Y-74593003D01*
X133191525Y-74537137D01*
X133047993Y-74523000D01*
X133000000Y-74518273D01*
X132952007Y-74523000D01*
X127291084Y-74523000D01*
X127159660Y-74391576D01*
X126925938Y-74235409D01*
X126666241Y-74127838D01*
X126390547Y-74073000D01*
X126109453Y-74073000D01*
X125833759Y-74127838D01*
X125574062Y-74235409D01*
X125340340Y-74391576D01*
X125141576Y-74590340D01*
X124985409Y-74824062D01*
X124965138Y-74873000D01*
X119133239Y-74873000D01*
X115354446Y-71094207D01*
X115387000Y-70930547D01*
X115387000Y-70649453D01*
X115332162Y-70373759D01*
X115224591Y-70114062D01*
X115187000Y-70057803D01*
X115187000Y-68088753D01*
X140005991Y-68088753D01*
X140053816Y-68476828D01*
X140176432Y-68848116D01*
X140314956Y-69107276D01*
X140615162Y-69245233D01*
X141820395Y-68040000D01*
X140615162Y-66834767D01*
X140314956Y-66972724D01*
X140139118Y-67321967D01*
X140034793Y-67698804D01*
X140005991Y-68088753D01*
X115187000Y-68088753D01*
X115187000Y-65990736D01*
X115230000Y-65938340D01*
X115379497Y-66120503D01*
X115619627Y-66317572D01*
X115893588Y-66464007D01*
X116190854Y-66554182D01*
X116422531Y-66577000D01*
X116577469Y-66577000D01*
X116809146Y-66554182D01*
X117106412Y-66464007D01*
X117380373Y-66317572D01*
X117616378Y-66123888D01*
X117659463Y-66204494D01*
X117738815Y-66301185D01*
X117835506Y-66380537D01*
X117945820Y-66439502D01*
X118065518Y-66475812D01*
X118190000Y-66488072D01*
X118754250Y-66485000D01*
X118913000Y-66326250D01*
X118913000Y-65127000D01*
X119167000Y-65127000D01*
X119167000Y-66326250D01*
X119325750Y-66485000D01*
X119890000Y-66488072D01*
X120014482Y-66475812D01*
X120134180Y-66439502D01*
X120244494Y-66380537D01*
X120341185Y-66301185D01*
X120420537Y-66204494D01*
X120479502Y-66094180D01*
X120515812Y-65974482D01*
X120528072Y-65850000D01*
X120525000Y-65285750D01*
X120366250Y-65127000D01*
X119167000Y-65127000D01*
X118913000Y-65127000D01*
X118893000Y-65127000D01*
X118893000Y-64873000D01*
X118913000Y-64873000D01*
X118913000Y-63673750D01*
X119167000Y-63673750D01*
X119167000Y-64873000D01*
X120366250Y-64873000D01*
X120525000Y-64714250D01*
X120528072Y-64150000D01*
X120515812Y-64025518D01*
X120479502Y-63905820D01*
X120420537Y-63795506D01*
X120341185Y-63698815D01*
X120244494Y-63619463D01*
X120134180Y-63560498D01*
X120014482Y-63524188D01*
X119890000Y-63511928D01*
X119325750Y-63515000D01*
X119167000Y-63673750D01*
X118913000Y-63673750D01*
X118754250Y-63515000D01*
X118190000Y-63511928D01*
X118065518Y-63524188D01*
X117945820Y-63560498D01*
X117835506Y-63619463D01*
X117738815Y-63698815D01*
X117659463Y-63795506D01*
X117616378Y-63876112D01*
X117380373Y-63682428D01*
X117106412Y-63535993D01*
X116809146Y-63445818D01*
X116577469Y-63423000D01*
X116422531Y-63423000D01*
X116190854Y-63445818D01*
X115893588Y-63535993D01*
X115619627Y-63682428D01*
X115379497Y-63879497D01*
X115230000Y-64061660D01*
X115080503Y-63879497D01*
X114840373Y-63682428D01*
X114566412Y-63535993D01*
X114269146Y-63445818D01*
X114037469Y-63423000D01*
X113882531Y-63423000D01*
X113650854Y-63445818D01*
X113353588Y-63535993D01*
X113079627Y-63682428D01*
X112839497Y-63879497D01*
X112642428Y-64119627D01*
X112495993Y-64393588D01*
X112405818Y-64690854D01*
X112375370Y-65000000D01*
X112405818Y-65309146D01*
X112495993Y-65606412D01*
X112642428Y-65880373D01*
X112733000Y-65990736D01*
X112733000Y-66262348D01*
X112733001Y-66262358D01*
X112733001Y-66773537D01*
X112675938Y-66735409D01*
X112416241Y-66627838D01*
X112140547Y-66573000D01*
X111859453Y-66573000D01*
X111583759Y-66627838D01*
X111324062Y-66735409D01*
X111090340Y-66891576D01*
X110891576Y-67090340D01*
X110735409Y-67324062D01*
X110627838Y-67583759D01*
X110573000Y-67859453D01*
X110077000Y-67859453D01*
X110077000Y-67755433D01*
X109997182Y-67354161D01*
X109840614Y-66976171D01*
X109613311Y-66635989D01*
X109324011Y-66346689D01*
X108983829Y-66119386D01*
X108889991Y-66080517D01*
X109099999Y-66080517D01*
X109291289Y-66061677D01*
X109475227Y-66005880D01*
X109644746Y-65915270D01*
X109793330Y-65793330D01*
X109915270Y-65644746D01*
X110005880Y-65475227D01*
X110061677Y-65291289D01*
X110080517Y-65099999D01*
X110080517Y-62900001D01*
X110061677Y-62708711D01*
X110005880Y-62524773D01*
X109915270Y-62355254D01*
X109793330Y-62206670D01*
X109644746Y-62084730D01*
X109475227Y-61994120D01*
X109291289Y-61938323D01*
X109099999Y-61919483D01*
X108377000Y-61919483D01*
X108377000Y-58557031D01*
X110548285Y-56627000D01*
X110939796Y-56627000D01*
X110923000Y-56797531D01*
X110923000Y-56797531D01*
G37*
X110923000Y-56797531D02*
X110923000Y-57202468D01*
X110945818Y-57434145D01*
X111035993Y-57731411D01*
X111182428Y-58005372D01*
X111379497Y-58245503D01*
X111619627Y-58442572D01*
X111893588Y-58589007D01*
X112190854Y-58679182D01*
X112500000Y-58709630D01*
X112809145Y-58679182D01*
X113106411Y-58589007D01*
X113380372Y-58442572D01*
X113620503Y-58245503D01*
X113815189Y-58008277D01*
X113910951Y-58134429D01*
X114128807Y-58327496D01*
X114380142Y-58474352D01*
X114643110Y-58566476D01*
X114873000Y-58445155D01*
X114873000Y-57127000D01*
X114853000Y-57127000D01*
X114853000Y-56873000D01*
X114873000Y-56873000D01*
X114873000Y-56853000D01*
X115127000Y-56853000D01*
X115127000Y-56873000D01*
X115147000Y-56873000D01*
X115147000Y-57127000D01*
X115127000Y-57127000D01*
X115127000Y-58445155D01*
X115356890Y-58566476D01*
X115619858Y-58474352D01*
X115871193Y-58327496D01*
X116089049Y-58134429D01*
X116184811Y-58008276D01*
X116379497Y-58245503D01*
X116619627Y-58442572D01*
X116893588Y-58589007D01*
X117190854Y-58679182D01*
X117500000Y-58709630D01*
X117809145Y-58679182D01*
X118106411Y-58589007D01*
X118380372Y-58442572D01*
X118587238Y-58272802D01*
X118706670Y-58418330D01*
X118855254Y-58540270D01*
X119024772Y-58630880D01*
X119208711Y-58686677D01*
X119400000Y-58705517D01*
X120600000Y-58705517D01*
X120791289Y-58686677D01*
X120975228Y-58630880D01*
X121144746Y-58540270D01*
X121293330Y-58418330D01*
X121415270Y-58269746D01*
X121505880Y-58100228D01*
X121561677Y-57916289D01*
X121580517Y-57725000D01*
X121580517Y-56627000D01*
X127439796Y-56627000D01*
X127423000Y-56797531D01*
X127423000Y-57202468D01*
X127445818Y-57434145D01*
X127535993Y-57731411D01*
X127682428Y-58005372D01*
X127879497Y-58245503D01*
X128119627Y-58442572D01*
X128393588Y-58589007D01*
X128690854Y-58679182D01*
X129000000Y-58709630D01*
X129309145Y-58679182D01*
X129606411Y-58589007D01*
X129880372Y-58442572D01*
X130120503Y-58245503D01*
X130250000Y-58087710D01*
X130379497Y-58245503D01*
X130619627Y-58442572D01*
X130893588Y-58589007D01*
X131190854Y-58679182D01*
X131500000Y-58709630D01*
X131809145Y-58679182D01*
X132106411Y-58589007D01*
X132380372Y-58442572D01*
X132588574Y-58271706D01*
X132619463Y-58329494D01*
X132698815Y-58426185D01*
X132795506Y-58505537D01*
X132905820Y-58564502D01*
X133025518Y-58600812D01*
X133150000Y-58613072D01*
X133714250Y-58610000D01*
X133873000Y-58451250D01*
X133873000Y-57127000D01*
X134127000Y-57127000D01*
X134127000Y-58451250D01*
X134285750Y-58610000D01*
X134850000Y-58613072D01*
X134974482Y-58600812D01*
X135094180Y-58564502D01*
X135204494Y-58505537D01*
X135301185Y-58426185D01*
X135380537Y-58329494D01*
X135439502Y-58219180D01*
X135475812Y-58099482D01*
X135488072Y-57975000D01*
X135485000Y-57285750D01*
X135326250Y-57127000D01*
X134127000Y-57127000D01*
X133873000Y-57127000D01*
X133853000Y-57127000D01*
X133853000Y-56873000D01*
X133873000Y-56873000D01*
X133873000Y-56853000D01*
X134127000Y-56853000D01*
X134127000Y-56873000D01*
X135326250Y-56873000D01*
X135485000Y-56714250D01*
X135485389Y-56627000D01*
X139957667Y-56627000D01*
X141845667Y-58043000D01*
X141795433Y-58043000D01*
X141394161Y-58122818D01*
X141016171Y-58279386D01*
X140675989Y-58506689D01*
X140386689Y-58795989D01*
X140159386Y-59136171D01*
X140002818Y-59514161D01*
X139923000Y-59915433D01*
X139923000Y-60324567D01*
X140002818Y-60725839D01*
X140159386Y-61103829D01*
X140386689Y-61444011D01*
X140675989Y-61733311D01*
X141016171Y-61960614D01*
X141352680Y-62100000D01*
X141016171Y-62239386D01*
X140675989Y-62466689D01*
X140386689Y-62755989D01*
X140159386Y-63096171D01*
X140002818Y-63474161D01*
X139923000Y-63875433D01*
X139923000Y-64284567D01*
X140002818Y-64685839D01*
X140159386Y-65063829D01*
X140386689Y-65404011D01*
X140675989Y-65693311D01*
X141016171Y-65920614D01*
X141394161Y-66077182D01*
X141531075Y-66104416D01*
X141191884Y-66216432D01*
X140932724Y-66354956D01*
X140794767Y-66655162D01*
X141873000Y-67733395D01*
X141873000Y-68346605D01*
X140794767Y-69424838D01*
X140932724Y-69725044D01*
X141281967Y-69900882D01*
X141543136Y-69973185D01*
X141394161Y-70002818D01*
X141016171Y-70159386D01*
X140675989Y-70386689D01*
X140386689Y-70675989D01*
X140159386Y-71016171D01*
X140002818Y-71394161D01*
X139923000Y-71795433D01*
X139923000Y-72204567D01*
X140002818Y-72605839D01*
X140159386Y-72983829D01*
X140386689Y-73324011D01*
X140675989Y-73613311D01*
X141016171Y-73840614D01*
X141394161Y-73997182D01*
X141795433Y-74077000D01*
X141873000Y-74077000D01*
X141873000Y-76043000D01*
X141795433Y-76043000D01*
X141394161Y-76122818D01*
X141016171Y-76279386D01*
X140675989Y-76506689D01*
X140386689Y-76795989D01*
X140159386Y-77136171D01*
X140002818Y-77514161D01*
X139923000Y-77915433D01*
X139923000Y-78253000D01*
X139141433Y-78253000D01*
X139155517Y-78110000D01*
X139155517Y-77810000D01*
X139138598Y-77638220D01*
X139088492Y-77473041D01*
X139007123Y-77320811D01*
X138897620Y-77187380D01*
X138764189Y-77077877D01*
X138611959Y-76996508D01*
X138446780Y-76946402D01*
X138275000Y-76929483D01*
X136625000Y-76929483D01*
X136453220Y-76946402D01*
X136288041Y-76996508D01*
X136135811Y-77077877D01*
X136002380Y-77187380D01*
X135892877Y-77320811D01*
X135811508Y-77473041D01*
X135761402Y-77638220D01*
X135744483Y-77810000D01*
X135744483Y-78110000D01*
X135761402Y-78281780D01*
X135811508Y-78446959D01*
X135890638Y-78595000D01*
X135811508Y-78743041D01*
X135761402Y-78908220D01*
X135744483Y-79080000D01*
X135744483Y-79380000D01*
X135761402Y-79551780D01*
X135811508Y-79716959D01*
X135890638Y-79865000D01*
X135811508Y-80013041D01*
X135761402Y-80178220D01*
X135744483Y-80350000D01*
X135744483Y-80650000D01*
X135761402Y-80821780D01*
X135811508Y-80986959D01*
X135890638Y-81135000D01*
X135811508Y-81283041D01*
X135761402Y-81448220D01*
X135744483Y-81620000D01*
X135744483Y-81920000D01*
X135761402Y-82091780D01*
X135811508Y-82256959D01*
X135892877Y-82409189D01*
X136002380Y-82542620D01*
X136135811Y-82652123D01*
X136288041Y-82733492D01*
X136453220Y-82783598D01*
X136625000Y-82800517D01*
X138275000Y-82800517D01*
X138446780Y-82783598D01*
X138611959Y-82733492D01*
X138764189Y-82652123D01*
X138897620Y-82542620D01*
X139007123Y-82409189D01*
X139088492Y-82256959D01*
X139138598Y-82091780D01*
X139155517Y-81920000D01*
X139155517Y-81620000D01*
X139141433Y-81477000D01*
X140002253Y-81477000D01*
X139923000Y-81875433D01*
X139923000Y-82284567D01*
X140002818Y-82685839D01*
X140159386Y-83063829D01*
X140386689Y-83404011D01*
X140675989Y-83693311D01*
X141016171Y-83920614D01*
X141394161Y-84077182D01*
X141531075Y-84104416D01*
X141191884Y-84216432D01*
X140932724Y-84354956D01*
X140794767Y-84655162D01*
X141873000Y-85733395D01*
X141873000Y-86346605D01*
X140794767Y-87424838D01*
X140932724Y-87725044D01*
X141143151Y-87830990D01*
X139916370Y-88904423D01*
X139899331Y-88922575D01*
X139886160Y-88943702D01*
X139877364Y-88966993D01*
X139873000Y-89000000D01*
X139873000Y-91447394D01*
X137947394Y-93373000D01*
X137838986Y-93373000D01*
X137875969Y-93326923D01*
X138019571Y-93051094D01*
X138090563Y-92832980D01*
X137970594Y-92587000D01*
X136627000Y-92587000D01*
X136627000Y-92607000D01*
X136373000Y-92607000D01*
X136373000Y-92587000D01*
X135029406Y-92587000D01*
X134909437Y-92832980D01*
X134980429Y-93051094D01*
X135124031Y-93326923D01*
X135161014Y-93373000D01*
X110297718Y-93373000D01*
X108377000Y-91692372D01*
X108377000Y-90775000D01*
X114419483Y-90775000D01*
X114419483Y-92225000D01*
X114438323Y-92416289D01*
X114494120Y-92600228D01*
X114584730Y-92769746D01*
X114706670Y-92918330D01*
X114855254Y-93040270D01*
X115024772Y-93130880D01*
X115208711Y-93186677D01*
X115400000Y-93205517D01*
X116600000Y-93205517D01*
X116791289Y-93186677D01*
X116975228Y-93130880D01*
X117144746Y-93040270D01*
X117293330Y-92918330D01*
X117412762Y-92772802D01*
X117619628Y-92942572D01*
X117893589Y-93089007D01*
X118190855Y-93179182D01*
X118500000Y-93209630D01*
X118809146Y-93179182D01*
X119106412Y-93089007D01*
X119380373Y-92942572D01*
X119620503Y-92745503D01*
X119750000Y-92587710D01*
X119879497Y-92745503D01*
X120119628Y-92942572D01*
X120393589Y-93089007D01*
X120690855Y-93179182D01*
X121000000Y-93209630D01*
X121309146Y-93179182D01*
X121606412Y-93089007D01*
X121880373Y-92942572D01*
X122120503Y-92745503D01*
X122250000Y-92587710D01*
X122379497Y-92745503D01*
X122619628Y-92942572D01*
X122893589Y-93089007D01*
X123190855Y-93179182D01*
X123500000Y-93209630D01*
X123809146Y-93179182D01*
X124106412Y-93089007D01*
X124380373Y-92942572D01*
X124620503Y-92745503D01*
X124815189Y-92508277D01*
X124910951Y-92634429D01*
X125128807Y-92827496D01*
X125380142Y-92974352D01*
X125643110Y-93066476D01*
X125873000Y-92945155D01*
X125873000Y-91627000D01*
X126127000Y-91627000D01*
X126127000Y-92945155D01*
X126356890Y-93066476D01*
X126619858Y-92974352D01*
X126871193Y-92827496D01*
X126986849Y-92725000D01*
X131486928Y-92725000D01*
X131499188Y-92849482D01*
X131535498Y-92969180D01*
X131594463Y-93079494D01*
X131673815Y-93176185D01*
X131770506Y-93255537D01*
X131880820Y-93314502D01*
X132000518Y-93350812D01*
X132125000Y-93363072D01*
X132714250Y-93360000D01*
X132873000Y-93201250D01*
X132873000Y-92139500D01*
X133127000Y-92139500D01*
X133127000Y-93201250D01*
X133285750Y-93360000D01*
X133875000Y-93363072D01*
X133999482Y-93350812D01*
X134119180Y-93314502D01*
X134229494Y-93255537D01*
X134326185Y-93176185D01*
X134405537Y-93079494D01*
X134464502Y-92969180D01*
X134500812Y-92849482D01*
X134513072Y-92725000D01*
X134510000Y-92298250D01*
X134351250Y-92139500D01*
X133127000Y-92139500D01*
X132873000Y-92139500D01*
X131648750Y-92139500D01*
X131490000Y-92298250D01*
X131486928Y-92725000D01*
X126986849Y-92725000D01*
X127089049Y-92634429D01*
X127265053Y-92402570D01*
X127392442Y-92140830D01*
X127466320Y-91859267D01*
X127326165Y-91627000D01*
X126127000Y-91627000D01*
X125873000Y-91627000D01*
X125853000Y-91627000D01*
X125853000Y-91373000D01*
X125873000Y-91373000D01*
X125873000Y-90054845D01*
X126127000Y-90054845D01*
X126127000Y-91373000D01*
X127326165Y-91373000D01*
X127466320Y-91140733D01*
X127392442Y-90859170D01*
X127265053Y-90597430D01*
X127089049Y-90365571D01*
X126871193Y-90172504D01*
X126619858Y-90025648D01*
X126356890Y-89933524D01*
X126127000Y-90054845D01*
X125873000Y-90054845D01*
X125643110Y-89933524D01*
X125380142Y-90025648D01*
X125128807Y-90172504D01*
X124910951Y-90365571D01*
X124815189Y-90491723D01*
X124620503Y-90254497D01*
X124380372Y-90057428D01*
X124106411Y-89910993D01*
X123809145Y-89820818D01*
X123500000Y-89790370D01*
X123190854Y-89820818D01*
X122893588Y-89910993D01*
X122619627Y-90057428D01*
X122379497Y-90254497D01*
X122250000Y-90412290D01*
X122120503Y-90254497D01*
X121880372Y-90057428D01*
X121606411Y-89910993D01*
X121309145Y-89820818D01*
X121000000Y-89790370D01*
X120690854Y-89820818D01*
X120393588Y-89910993D01*
X120119627Y-90057428D01*
X119879497Y-90254497D01*
X119750000Y-90412290D01*
X119620503Y-90254497D01*
X119380372Y-90057428D01*
X119106411Y-89910993D01*
X118809145Y-89820818D01*
X118500000Y-89790370D01*
X118190854Y-89820818D01*
X117893588Y-89910993D01*
X117619627Y-90057428D01*
X117412762Y-90227198D01*
X117293330Y-90081670D01*
X117144746Y-89959730D01*
X116975228Y-89869120D01*
X116791289Y-89813323D01*
X116600000Y-89794483D01*
X115400000Y-89794483D01*
X115208711Y-89813323D01*
X115024772Y-89869120D01*
X114855254Y-89959730D01*
X114706670Y-90081670D01*
X114584730Y-90230254D01*
X114494120Y-90399772D01*
X114438323Y-90583711D01*
X114419483Y-90775000D01*
X108377000Y-90775000D01*
X108377000Y-87873557D01*
X108436828Y-87866184D01*
X108808116Y-87743568D01*
X109067276Y-87605044D01*
X109205233Y-87304838D01*
X108377000Y-86476605D01*
X108377000Y-86117395D01*
X109384838Y-87125233D01*
X109685044Y-86987276D01*
X109860882Y-86638033D01*
X109965207Y-86261196D01*
X109994009Y-85871247D01*
X109946184Y-85483172D01*
X109823568Y-85111884D01*
X109685044Y-84852724D01*
X109384838Y-84714767D01*
X108377000Y-85722605D01*
X108377000Y-85363395D01*
X109205233Y-84535162D01*
X109067276Y-84234956D01*
X108718033Y-84059118D01*
X108456864Y-83986815D01*
X108605839Y-83957182D01*
X108983829Y-83800614D01*
X109324011Y-83573311D01*
X109613311Y-83284011D01*
X109840614Y-82943829D01*
X109997182Y-82565839D01*
X110077000Y-82164567D01*
X110077000Y-82104861D01*
X110095577Y-82083630D01*
X110110056Y-82063377D01*
X110120306Y-82040688D01*
X110125932Y-82016436D01*
X110126719Y-81991552D01*
X110122636Y-81966993D01*
X110113840Y-81943702D01*
X110100248Y-81922030D01*
X110077000Y-81892140D01*
X110077000Y-81755433D01*
X109997182Y-81354161D01*
X109840614Y-80976171D01*
X109613311Y-80635989D01*
X109324011Y-80346689D01*
X108983829Y-80119386D01*
X108889991Y-80080517D01*
X109099999Y-80080517D01*
X109291289Y-80061677D01*
X109475227Y-80005880D01*
X109644746Y-79915270D01*
X109793330Y-79793330D01*
X109915270Y-79644746D01*
X110005880Y-79475227D01*
X110061677Y-79291289D01*
X110080517Y-79099999D01*
X110080517Y-76900001D01*
X110061677Y-76708711D01*
X110005880Y-76524773D01*
X109915270Y-76355254D01*
X109793330Y-76206670D01*
X109644746Y-76084730D01*
X109475227Y-75994120D01*
X109291289Y-75938323D01*
X109099999Y-75919483D01*
X108377000Y-75919483D01*
X108377000Y-73873557D01*
X108436828Y-73866184D01*
X108808116Y-73743568D01*
X109067276Y-73605044D01*
X109205233Y-73304838D01*
X108377000Y-72476605D01*
X108377000Y-72117395D01*
X109384838Y-73125233D01*
X109685044Y-72987276D01*
X109860882Y-72638033D01*
X109965207Y-72261196D01*
X109994009Y-71871247D01*
X109946184Y-71483172D01*
X109823568Y-71111884D01*
X109685044Y-70852724D01*
X109384838Y-70714767D01*
X108377000Y-71722605D01*
X108377000Y-71363395D01*
X109205233Y-70535162D01*
X109067276Y-70234956D01*
X108718033Y-70059118D01*
X108456864Y-69986815D01*
X108605839Y-69957182D01*
X108983829Y-69800614D01*
X109324011Y-69573311D01*
X109613311Y-69284011D01*
X109840614Y-68943829D01*
X109997182Y-68565839D01*
X110077000Y-68164567D01*
X110077000Y-68102606D01*
X110089803Y-68089803D01*
X110105597Y-68070557D01*
X110117333Y-68048601D01*
X110124560Y-68024776D01*
X110127000Y-68000000D01*
X110124560Y-67975224D01*
X110117333Y-67951399D01*
X110105597Y-67929443D01*
X110095577Y-67916370D01*
X110077000Y-67895139D01*
X110077000Y-67859453D01*
X110573000Y-67859453D01*
X110573000Y-68140547D01*
X110627838Y-68416241D01*
X110735409Y-68675938D01*
X110891576Y-68909660D01*
X111023001Y-69041085D01*
X111023000Y-77458916D01*
X110891576Y-77590340D01*
X110735409Y-77824062D01*
X110627838Y-78083759D01*
X110573000Y-78359453D01*
X110573000Y-78640547D01*
X110627838Y-78916241D01*
X110735409Y-79175938D01*
X110891576Y-79409660D01*
X111090340Y-79608424D01*
X111324062Y-79764591D01*
X111583759Y-79872162D01*
X111859453Y-79927000D01*
X112140547Y-79927000D01*
X112416241Y-79872162D01*
X112675938Y-79764591D01*
X112909660Y-79608424D01*
X113108424Y-79409660D01*
X113264591Y-79175938D01*
X113372162Y-78916241D01*
X113427000Y-78640547D01*
X113427000Y-78359453D01*
X113372162Y-78083759D01*
X113264591Y-77824062D01*
X113108424Y-77590340D01*
X112977000Y-77458916D01*
X112977000Y-72171341D01*
X113088183Y-72306817D01*
X113135000Y-72345239D01*
X123062495Y-82272735D01*
X123062500Y-82272739D01*
X125352271Y-84562511D01*
X125390684Y-84609317D01*
X125437490Y-84647730D01*
X131114764Y-90325004D01*
X131153183Y-90371817D01*
X131340017Y-90525149D01*
X131490979Y-90605839D01*
X131553176Y-90639084D01*
X131724646Y-90691100D01*
X131800558Y-90753399D01*
X131770506Y-90769463D01*
X131673815Y-90848815D01*
X131594463Y-90945506D01*
X131535498Y-91055820D01*
X131499188Y-91175518D01*
X131486928Y-91300000D01*
X131490000Y-91726750D01*
X131648750Y-91885500D01*
X132873000Y-91885500D01*
X132873000Y-91865500D01*
X133127000Y-91865500D01*
X133127000Y-91885500D01*
X134351250Y-91885500D01*
X134510000Y-91726750D01*
X134513072Y-91300000D01*
X134500812Y-91175518D01*
X134464502Y-91055820D01*
X134405537Y-90945506D01*
X134326185Y-90848815D01*
X134229494Y-90769463D01*
X134199442Y-90753399D01*
X134231609Y-90727000D01*
X134979486Y-90727000D01*
X135049290Y-90857595D01*
X135259168Y-91113332D01*
X135432191Y-91255328D01*
X135318685Y-91350563D01*
X135124031Y-91593077D01*
X134980429Y-91868906D01*
X134909437Y-92087020D01*
X135029406Y-92333000D01*
X136373000Y-92333000D01*
X136373000Y-92313000D01*
X136627000Y-92313000D01*
X136627000Y-92333000D01*
X137970594Y-92333000D01*
X138090563Y-92087020D01*
X138019571Y-91868906D01*
X137875969Y-91593077D01*
X137681315Y-91350563D01*
X137567809Y-91255328D01*
X137740832Y-91113332D01*
X137950710Y-90857595D01*
X138106663Y-90565827D01*
X138202699Y-90249239D01*
X138235126Y-89920000D01*
X138202699Y-89590761D01*
X138106663Y-89274173D01*
X137950710Y-88982405D01*
X137740832Y-88726668D01*
X137485095Y-88516790D01*
X137193327Y-88360837D01*
X136876739Y-88264801D01*
X136630005Y-88240500D01*
X136369995Y-88240500D01*
X136123261Y-88264801D01*
X136107024Y-88269727D01*
X136080000Y-88267065D01*
X136019740Y-88273000D01*
X134231609Y-88273000D01*
X134169746Y-88222230D01*
X134000228Y-88131620D01*
X133816289Y-88075823D01*
X133625000Y-88056983D01*
X132375000Y-88056983D01*
X132322403Y-88062163D01*
X132135756Y-87875516D01*
X132714250Y-87872500D01*
X132873000Y-87713750D01*
X132873000Y-86652000D01*
X133127000Y-86652000D01*
X133127000Y-87713750D01*
X133285750Y-87872500D01*
X133875000Y-87875572D01*
X133999482Y-87863312D01*
X134119180Y-87827002D01*
X134229494Y-87768037D01*
X134326185Y-87688685D01*
X134405537Y-87591994D01*
X134464502Y-87481680D01*
X134500812Y-87361982D01*
X134513072Y-87237500D01*
X134510000Y-86810750D01*
X134351250Y-86652000D01*
X133127000Y-86652000D01*
X132873000Y-86652000D01*
X131648750Y-86652000D01*
X131490000Y-86810750D01*
X131487005Y-87226766D01*
X130072739Y-85812500D01*
X131486928Y-85812500D01*
X131490000Y-86239250D01*
X131648750Y-86398000D01*
X132873000Y-86398000D01*
X132873000Y-85336250D01*
X133127000Y-85336250D01*
X133127000Y-86398000D01*
X134351250Y-86398000D01*
X134510000Y-86239250D01*
X134511083Y-86088753D01*
X140005991Y-86088753D01*
X140053816Y-86476828D01*
X140176432Y-86848116D01*
X140314956Y-87107276D01*
X140615162Y-87245233D01*
X141820395Y-86040000D01*
X140615162Y-84834767D01*
X140314956Y-84972724D01*
X140139118Y-85321967D01*
X140034793Y-85698804D01*
X140005991Y-86088753D01*
X134511083Y-86088753D01*
X134513072Y-85812500D01*
X134500812Y-85688018D01*
X134464502Y-85568320D01*
X134405537Y-85458006D01*
X134326185Y-85361315D01*
X134229494Y-85281963D01*
X134119180Y-85222998D01*
X133999482Y-85186688D01*
X133875000Y-85174428D01*
X133285750Y-85177500D01*
X133127000Y-85336250D01*
X132873000Y-85336250D01*
X132714250Y-85177500D01*
X132125000Y-85174428D01*
X132000518Y-85186688D01*
X131880820Y-85222998D01*
X131770506Y-85281963D01*
X131673815Y-85361315D01*
X131594463Y-85458006D01*
X131535498Y-85568320D01*
X131499188Y-85688018D01*
X131486928Y-85812500D01*
X130072739Y-85812500D01*
X128127000Y-83866761D01*
X128127000Y-83824258D01*
X128464250Y-83822500D01*
X128623000Y-83663750D01*
X128623000Y-82602000D01*
X128877000Y-82602000D01*
X128877000Y-83663750D01*
X129035750Y-83822500D01*
X129625000Y-83825572D01*
X129749482Y-83813312D01*
X129869180Y-83777002D01*
X129979494Y-83718037D01*
X130076185Y-83638685D01*
X130155537Y-83541994D01*
X130214502Y-83431680D01*
X130250812Y-83311982D01*
X130263072Y-83187500D01*
X130260000Y-82760750D01*
X130101250Y-82602000D01*
X128877000Y-82602000D01*
X128623000Y-82602000D01*
X128603000Y-82602000D01*
X128603000Y-82348000D01*
X128623000Y-82348000D01*
X128623000Y-81286250D01*
X128877000Y-81286250D01*
X128877000Y-82348000D01*
X130101250Y-82348000D01*
X130260000Y-82189250D01*
X130263072Y-81762500D01*
X130250812Y-81638018D01*
X130214502Y-81518320D01*
X130155537Y-81408006D01*
X130076185Y-81311315D01*
X129979494Y-81231963D01*
X129869180Y-81172998D01*
X129749482Y-81136688D01*
X129625000Y-81124428D01*
X129035750Y-81127500D01*
X128877000Y-81286250D01*
X128623000Y-81286250D01*
X128464250Y-81127500D01*
X128127000Y-81125742D01*
X128127000Y-80943017D01*
X129375000Y-80943017D01*
X129566289Y-80924177D01*
X129750228Y-80868380D01*
X129919746Y-80777770D01*
X130068330Y-80655830D01*
X130190270Y-80507246D01*
X130280880Y-80337728D01*
X130320536Y-80207000D01*
X130888437Y-80207000D01*
X130890000Y-80214250D01*
X131048750Y-80373000D01*
X132373000Y-80373000D01*
X132373000Y-80353000D01*
X132627000Y-80353000D01*
X132627000Y-80373000D01*
X132647000Y-80373000D01*
X132647000Y-80627000D01*
X132627000Y-80627000D01*
X132627000Y-80647000D01*
X132373000Y-80647000D01*
X132373000Y-80627000D01*
X131048750Y-80627000D01*
X130890000Y-80785750D01*
X130886928Y-80800000D01*
X130899188Y-80924482D01*
X130935498Y-81044180D01*
X130966450Y-81102087D01*
X130942877Y-81130811D01*
X130861508Y-81283041D01*
X130811402Y-81448220D01*
X130794483Y-81620000D01*
X130794483Y-81920000D01*
X130811402Y-82091780D01*
X130861508Y-82256959D01*
X130942877Y-82409189D01*
X131052380Y-82542620D01*
X131185811Y-82652123D01*
X131338041Y-82733492D01*
X131503220Y-82783598D01*
X131675000Y-82800517D01*
X133325000Y-82800517D01*
X133496780Y-82783598D01*
X133614753Y-82747812D01*
X133766525Y-82732863D01*
X133834141Y-82712352D01*
X133950691Y-82676997D01*
X134120418Y-82586276D01*
X134269186Y-82464186D01*
X134299784Y-82426902D01*
X135406907Y-81319780D01*
X135444186Y-81289186D01*
X135566276Y-81140418D01*
X135656997Y-80970691D01*
X135702169Y-80821780D01*
X135712863Y-80786526D01*
X135731727Y-80595000D01*
X135727000Y-80547007D01*
X135727000Y-77297993D01*
X135731727Y-77250000D01*
X135712863Y-77058474D01*
X135673734Y-76929483D01*
X135656997Y-76874309D01*
X135566276Y-76704582D01*
X135444186Y-76555814D01*
X135406902Y-76525216D01*
X133724784Y-74843098D01*
X133694186Y-74805814D01*
X133545418Y-74683724D01*
X133375691Y-74593003D01*
X133191525Y-74537137D01*
X133047993Y-74523000D01*
X133000000Y-74518273D01*
X132952007Y-74523000D01*
X127291084Y-74523000D01*
X127159660Y-74391576D01*
X126925938Y-74235409D01*
X126666241Y-74127838D01*
X126390547Y-74073000D01*
X126109453Y-74073000D01*
X125833759Y-74127838D01*
X125574062Y-74235409D01*
X125340340Y-74391576D01*
X125141576Y-74590340D01*
X124985409Y-74824062D01*
X124965138Y-74873000D01*
X119133239Y-74873000D01*
X115354446Y-71094207D01*
X115387000Y-70930547D01*
X115387000Y-70649453D01*
X115332162Y-70373759D01*
X115224591Y-70114062D01*
X115187000Y-70057803D01*
X115187000Y-68088753D01*
X140005991Y-68088753D01*
X140053816Y-68476828D01*
X140176432Y-68848116D01*
X140314956Y-69107276D01*
X140615162Y-69245233D01*
X141820395Y-68040000D01*
X140615162Y-66834767D01*
X140314956Y-66972724D01*
X140139118Y-67321967D01*
X140034793Y-67698804D01*
X140005991Y-68088753D01*
X115187000Y-68088753D01*
X115187000Y-65990736D01*
X115230000Y-65938340D01*
X115379497Y-66120503D01*
X115619627Y-66317572D01*
X115893588Y-66464007D01*
X116190854Y-66554182D01*
X116422531Y-66577000D01*
X116577469Y-66577000D01*
X116809146Y-66554182D01*
X117106412Y-66464007D01*
X117380373Y-66317572D01*
X117616378Y-66123888D01*
X117659463Y-66204494D01*
X117738815Y-66301185D01*
X117835506Y-66380537D01*
X117945820Y-66439502D01*
X118065518Y-66475812D01*
X118190000Y-66488072D01*
X118754250Y-66485000D01*
X118913000Y-66326250D01*
X118913000Y-65127000D01*
X119167000Y-65127000D01*
X119167000Y-66326250D01*
X119325750Y-66485000D01*
X119890000Y-66488072D01*
X120014482Y-66475812D01*
X120134180Y-66439502D01*
X120244494Y-66380537D01*
X120341185Y-66301185D01*
X120420537Y-66204494D01*
X120479502Y-66094180D01*
X120515812Y-65974482D01*
X120528072Y-65850000D01*
X120525000Y-65285750D01*
X120366250Y-65127000D01*
X119167000Y-65127000D01*
X118913000Y-65127000D01*
X118893000Y-65127000D01*
X118893000Y-64873000D01*
X118913000Y-64873000D01*
X118913000Y-63673750D01*
X119167000Y-63673750D01*
X119167000Y-64873000D01*
X120366250Y-64873000D01*
X120525000Y-64714250D01*
X120528072Y-64150000D01*
X120515812Y-64025518D01*
X120479502Y-63905820D01*
X120420537Y-63795506D01*
X120341185Y-63698815D01*
X120244494Y-63619463D01*
X120134180Y-63560498D01*
X120014482Y-63524188D01*
X119890000Y-63511928D01*
X119325750Y-63515000D01*
X119167000Y-63673750D01*
X118913000Y-63673750D01*
X118754250Y-63515000D01*
X118190000Y-63511928D01*
X118065518Y-63524188D01*
X117945820Y-63560498D01*
X117835506Y-63619463D01*
X117738815Y-63698815D01*
X117659463Y-63795506D01*
X117616378Y-63876112D01*
X117380373Y-63682428D01*
X117106412Y-63535993D01*
X116809146Y-63445818D01*
X116577469Y-63423000D01*
X116422531Y-63423000D01*
X116190854Y-63445818D01*
X115893588Y-63535993D01*
X115619627Y-63682428D01*
X115379497Y-63879497D01*
X115230000Y-64061660D01*
X115080503Y-63879497D01*
X114840373Y-63682428D01*
X114566412Y-63535993D01*
X114269146Y-63445818D01*
X114037469Y-63423000D01*
X113882531Y-63423000D01*
X113650854Y-63445818D01*
X113353588Y-63535993D01*
X113079627Y-63682428D01*
X112839497Y-63879497D01*
X112642428Y-64119627D01*
X112495993Y-64393588D01*
X112405818Y-64690854D01*
X112375370Y-65000000D01*
X112405818Y-65309146D01*
X112495993Y-65606412D01*
X112642428Y-65880373D01*
X112733000Y-65990736D01*
X112733000Y-66262348D01*
X112733001Y-66262358D01*
X112733001Y-66773537D01*
X112675938Y-66735409D01*
X112416241Y-66627838D01*
X112140547Y-66573000D01*
X111859453Y-66573000D01*
X111583759Y-66627838D01*
X111324062Y-66735409D01*
X111090340Y-66891576D01*
X110891576Y-67090340D01*
X110735409Y-67324062D01*
X110627838Y-67583759D01*
X110573000Y-67859453D01*
X110077000Y-67859453D01*
X110077000Y-67755433D01*
X109997182Y-67354161D01*
X109840614Y-66976171D01*
X109613311Y-66635989D01*
X109324011Y-66346689D01*
X108983829Y-66119386D01*
X108889991Y-66080517D01*
X109099999Y-66080517D01*
X109291289Y-66061677D01*
X109475227Y-66005880D01*
X109644746Y-65915270D01*
X109793330Y-65793330D01*
X109915270Y-65644746D01*
X110005880Y-65475227D01*
X110061677Y-65291289D01*
X110080517Y-65099999D01*
X110080517Y-62900001D01*
X110061677Y-62708711D01*
X110005880Y-62524773D01*
X109915270Y-62355254D01*
X109793330Y-62206670D01*
X109644746Y-62084730D01*
X109475227Y-61994120D01*
X109291289Y-61938323D01*
X109099999Y-61919483D01*
X108377000Y-61919483D01*
X108377000Y-58557031D01*
X110548285Y-56627000D01*
X110939796Y-56627000D01*
X110923000Y-56797531D01*
M02*
