G04 #@! TF.GenerationSoftware,KiCad,Pcbnew,(5.1.4)-1*
G04 #@! TF.CreationDate,2020-01-17T23:34:28+09:00*
G04 #@! TF.ProjectId,QX20CTRLV1,51583230-4354-4524-9c56-312e6b696361,rev?*
G04 #@! TF.SameCoordinates,Original*
G04 #@! TF.FileFunction,Paste,Top*
G04 #@! TF.FilePolarity,Positive*
%FSLAX46Y46*%
G04 Gerber Fmt 4.6, Leading zero omitted, Abs format (unit mm)*
G04 Created by KiCad (PCBNEW (5.1.4)-1) date 2020-01-17 23:34:28*
%MOMM*%
%LPD*%
G04 APERTURE LIST*
%ADD10C,0.100000*%
%ADD11C,0.500000*%
%ADD12C,1.425000*%
%ADD13R,0.900000X0.800000*%
%ADD14C,0.600000*%
G04 APERTURE END LIST*
D10*
G36*
X121837252Y-76075602D02*
G01*
X121849386Y-76077402D01*
X121861286Y-76080382D01*
X121872835Y-76084515D01*
X121883925Y-76089760D01*
X121894446Y-76096066D01*
X121904299Y-76103374D01*
X121913388Y-76111612D01*
X121921626Y-76120701D01*
X121928934Y-76130554D01*
X121935240Y-76141075D01*
X121940485Y-76152165D01*
X121944618Y-76163714D01*
X121947598Y-76175614D01*
X121949398Y-76187748D01*
X121950000Y-76200000D01*
X121950000Y-77450000D01*
X121949398Y-77462252D01*
X121947598Y-77474386D01*
X121944618Y-77486286D01*
X121940485Y-77497835D01*
X121935240Y-77508925D01*
X121928934Y-77519446D01*
X121921626Y-77529299D01*
X121913388Y-77538388D01*
X121904299Y-77546626D01*
X121894446Y-77553934D01*
X121883925Y-77560240D01*
X121872835Y-77565485D01*
X121861286Y-77569618D01*
X121849386Y-77572598D01*
X121837252Y-77574398D01*
X121825000Y-77575000D01*
X121575000Y-77575000D01*
X121562748Y-77574398D01*
X121550614Y-77572598D01*
X121538714Y-77569618D01*
X121527165Y-77565485D01*
X121516075Y-77560240D01*
X121505554Y-77553934D01*
X121495701Y-77546626D01*
X121486612Y-77538388D01*
X121478374Y-77529299D01*
X121471066Y-77519446D01*
X121464760Y-77508925D01*
X121459515Y-77497835D01*
X121455382Y-77486286D01*
X121452402Y-77474386D01*
X121450602Y-77462252D01*
X121450000Y-77450000D01*
X121450000Y-76200000D01*
X121450602Y-76187748D01*
X121452402Y-76175614D01*
X121455382Y-76163714D01*
X121459515Y-76152165D01*
X121464760Y-76141075D01*
X121471066Y-76130554D01*
X121478374Y-76120701D01*
X121486612Y-76111612D01*
X121495701Y-76103374D01*
X121505554Y-76096066D01*
X121516075Y-76089760D01*
X121527165Y-76084515D01*
X121538714Y-76080382D01*
X121550614Y-76077402D01*
X121562748Y-76075602D01*
X121575000Y-76075000D01*
X121825000Y-76075000D01*
X121837252Y-76075602D01*
X121837252Y-76075602D01*
G37*
D11*
X121700000Y-76825000D03*
D10*
G36*
X122637252Y-76075602D02*
G01*
X122649386Y-76077402D01*
X122661286Y-76080382D01*
X122672835Y-76084515D01*
X122683925Y-76089760D01*
X122694446Y-76096066D01*
X122704299Y-76103374D01*
X122713388Y-76111612D01*
X122721626Y-76120701D01*
X122728934Y-76130554D01*
X122735240Y-76141075D01*
X122740485Y-76152165D01*
X122744618Y-76163714D01*
X122747598Y-76175614D01*
X122749398Y-76187748D01*
X122750000Y-76200000D01*
X122750000Y-77450000D01*
X122749398Y-77462252D01*
X122747598Y-77474386D01*
X122744618Y-77486286D01*
X122740485Y-77497835D01*
X122735240Y-77508925D01*
X122728934Y-77519446D01*
X122721626Y-77529299D01*
X122713388Y-77538388D01*
X122704299Y-77546626D01*
X122694446Y-77553934D01*
X122683925Y-77560240D01*
X122672835Y-77565485D01*
X122661286Y-77569618D01*
X122649386Y-77572598D01*
X122637252Y-77574398D01*
X122625000Y-77575000D01*
X122375000Y-77575000D01*
X122362748Y-77574398D01*
X122350614Y-77572598D01*
X122338714Y-77569618D01*
X122327165Y-77565485D01*
X122316075Y-77560240D01*
X122305554Y-77553934D01*
X122295701Y-77546626D01*
X122286612Y-77538388D01*
X122278374Y-77529299D01*
X122271066Y-77519446D01*
X122264760Y-77508925D01*
X122259515Y-77497835D01*
X122255382Y-77486286D01*
X122252402Y-77474386D01*
X122250602Y-77462252D01*
X122250000Y-77450000D01*
X122250000Y-76200000D01*
X122250602Y-76187748D01*
X122252402Y-76175614D01*
X122255382Y-76163714D01*
X122259515Y-76152165D01*
X122264760Y-76141075D01*
X122271066Y-76130554D01*
X122278374Y-76120701D01*
X122286612Y-76111612D01*
X122295701Y-76103374D01*
X122305554Y-76096066D01*
X122316075Y-76089760D01*
X122327165Y-76084515D01*
X122338714Y-76080382D01*
X122350614Y-76077402D01*
X122362748Y-76075602D01*
X122375000Y-76075000D01*
X122625000Y-76075000D01*
X122637252Y-76075602D01*
X122637252Y-76075602D01*
G37*
D11*
X122500000Y-76825000D03*
D10*
G36*
X123437252Y-76075602D02*
G01*
X123449386Y-76077402D01*
X123461286Y-76080382D01*
X123472835Y-76084515D01*
X123483925Y-76089760D01*
X123494446Y-76096066D01*
X123504299Y-76103374D01*
X123513388Y-76111612D01*
X123521626Y-76120701D01*
X123528934Y-76130554D01*
X123535240Y-76141075D01*
X123540485Y-76152165D01*
X123544618Y-76163714D01*
X123547598Y-76175614D01*
X123549398Y-76187748D01*
X123550000Y-76200000D01*
X123550000Y-77450000D01*
X123549398Y-77462252D01*
X123547598Y-77474386D01*
X123544618Y-77486286D01*
X123540485Y-77497835D01*
X123535240Y-77508925D01*
X123528934Y-77519446D01*
X123521626Y-77529299D01*
X123513388Y-77538388D01*
X123504299Y-77546626D01*
X123494446Y-77553934D01*
X123483925Y-77560240D01*
X123472835Y-77565485D01*
X123461286Y-77569618D01*
X123449386Y-77572598D01*
X123437252Y-77574398D01*
X123425000Y-77575000D01*
X123175000Y-77575000D01*
X123162748Y-77574398D01*
X123150614Y-77572598D01*
X123138714Y-77569618D01*
X123127165Y-77565485D01*
X123116075Y-77560240D01*
X123105554Y-77553934D01*
X123095701Y-77546626D01*
X123086612Y-77538388D01*
X123078374Y-77529299D01*
X123071066Y-77519446D01*
X123064760Y-77508925D01*
X123059515Y-77497835D01*
X123055382Y-77486286D01*
X123052402Y-77474386D01*
X123050602Y-77462252D01*
X123050000Y-77450000D01*
X123050000Y-76200000D01*
X123050602Y-76187748D01*
X123052402Y-76175614D01*
X123055382Y-76163714D01*
X123059515Y-76152165D01*
X123064760Y-76141075D01*
X123071066Y-76130554D01*
X123078374Y-76120701D01*
X123086612Y-76111612D01*
X123095701Y-76103374D01*
X123105554Y-76096066D01*
X123116075Y-76089760D01*
X123127165Y-76084515D01*
X123138714Y-76080382D01*
X123150614Y-76077402D01*
X123162748Y-76075602D01*
X123175000Y-76075000D01*
X123425000Y-76075000D01*
X123437252Y-76075602D01*
X123437252Y-76075602D01*
G37*
D11*
X123300000Y-76825000D03*
D10*
G36*
X124237252Y-76075602D02*
G01*
X124249386Y-76077402D01*
X124261286Y-76080382D01*
X124272835Y-76084515D01*
X124283925Y-76089760D01*
X124294446Y-76096066D01*
X124304299Y-76103374D01*
X124313388Y-76111612D01*
X124321626Y-76120701D01*
X124328934Y-76130554D01*
X124335240Y-76141075D01*
X124340485Y-76152165D01*
X124344618Y-76163714D01*
X124347598Y-76175614D01*
X124349398Y-76187748D01*
X124350000Y-76200000D01*
X124350000Y-77450000D01*
X124349398Y-77462252D01*
X124347598Y-77474386D01*
X124344618Y-77486286D01*
X124340485Y-77497835D01*
X124335240Y-77508925D01*
X124328934Y-77519446D01*
X124321626Y-77529299D01*
X124313388Y-77538388D01*
X124304299Y-77546626D01*
X124294446Y-77553934D01*
X124283925Y-77560240D01*
X124272835Y-77565485D01*
X124261286Y-77569618D01*
X124249386Y-77572598D01*
X124237252Y-77574398D01*
X124225000Y-77575000D01*
X123975000Y-77575000D01*
X123962748Y-77574398D01*
X123950614Y-77572598D01*
X123938714Y-77569618D01*
X123927165Y-77565485D01*
X123916075Y-77560240D01*
X123905554Y-77553934D01*
X123895701Y-77546626D01*
X123886612Y-77538388D01*
X123878374Y-77529299D01*
X123871066Y-77519446D01*
X123864760Y-77508925D01*
X123859515Y-77497835D01*
X123855382Y-77486286D01*
X123852402Y-77474386D01*
X123850602Y-77462252D01*
X123850000Y-77450000D01*
X123850000Y-76200000D01*
X123850602Y-76187748D01*
X123852402Y-76175614D01*
X123855382Y-76163714D01*
X123859515Y-76152165D01*
X123864760Y-76141075D01*
X123871066Y-76130554D01*
X123878374Y-76120701D01*
X123886612Y-76111612D01*
X123895701Y-76103374D01*
X123905554Y-76096066D01*
X123916075Y-76089760D01*
X123927165Y-76084515D01*
X123938714Y-76080382D01*
X123950614Y-76077402D01*
X123962748Y-76075602D01*
X123975000Y-76075000D01*
X124225000Y-76075000D01*
X124237252Y-76075602D01*
X124237252Y-76075602D01*
G37*
D11*
X124100000Y-76825000D03*
D10*
G36*
X125037252Y-76075602D02*
G01*
X125049386Y-76077402D01*
X125061286Y-76080382D01*
X125072835Y-76084515D01*
X125083925Y-76089760D01*
X125094446Y-76096066D01*
X125104299Y-76103374D01*
X125113388Y-76111612D01*
X125121626Y-76120701D01*
X125128934Y-76130554D01*
X125135240Y-76141075D01*
X125140485Y-76152165D01*
X125144618Y-76163714D01*
X125147598Y-76175614D01*
X125149398Y-76187748D01*
X125150000Y-76200000D01*
X125150000Y-77450000D01*
X125149398Y-77462252D01*
X125147598Y-77474386D01*
X125144618Y-77486286D01*
X125140485Y-77497835D01*
X125135240Y-77508925D01*
X125128934Y-77519446D01*
X125121626Y-77529299D01*
X125113388Y-77538388D01*
X125104299Y-77546626D01*
X125094446Y-77553934D01*
X125083925Y-77560240D01*
X125072835Y-77565485D01*
X125061286Y-77569618D01*
X125049386Y-77572598D01*
X125037252Y-77574398D01*
X125025000Y-77575000D01*
X124775000Y-77575000D01*
X124762748Y-77574398D01*
X124750614Y-77572598D01*
X124738714Y-77569618D01*
X124727165Y-77565485D01*
X124716075Y-77560240D01*
X124705554Y-77553934D01*
X124695701Y-77546626D01*
X124686612Y-77538388D01*
X124678374Y-77529299D01*
X124671066Y-77519446D01*
X124664760Y-77508925D01*
X124659515Y-77497835D01*
X124655382Y-77486286D01*
X124652402Y-77474386D01*
X124650602Y-77462252D01*
X124650000Y-77450000D01*
X124650000Y-76200000D01*
X124650602Y-76187748D01*
X124652402Y-76175614D01*
X124655382Y-76163714D01*
X124659515Y-76152165D01*
X124664760Y-76141075D01*
X124671066Y-76130554D01*
X124678374Y-76120701D01*
X124686612Y-76111612D01*
X124695701Y-76103374D01*
X124705554Y-76096066D01*
X124716075Y-76089760D01*
X124727165Y-76084515D01*
X124738714Y-76080382D01*
X124750614Y-76077402D01*
X124762748Y-76075602D01*
X124775000Y-76075000D01*
X125025000Y-76075000D01*
X125037252Y-76075602D01*
X125037252Y-76075602D01*
G37*
D11*
X124900000Y-76825000D03*
D10*
G36*
X125837252Y-76075602D02*
G01*
X125849386Y-76077402D01*
X125861286Y-76080382D01*
X125872835Y-76084515D01*
X125883925Y-76089760D01*
X125894446Y-76096066D01*
X125904299Y-76103374D01*
X125913388Y-76111612D01*
X125921626Y-76120701D01*
X125928934Y-76130554D01*
X125935240Y-76141075D01*
X125940485Y-76152165D01*
X125944618Y-76163714D01*
X125947598Y-76175614D01*
X125949398Y-76187748D01*
X125950000Y-76200000D01*
X125950000Y-77450000D01*
X125949398Y-77462252D01*
X125947598Y-77474386D01*
X125944618Y-77486286D01*
X125940485Y-77497835D01*
X125935240Y-77508925D01*
X125928934Y-77519446D01*
X125921626Y-77529299D01*
X125913388Y-77538388D01*
X125904299Y-77546626D01*
X125894446Y-77553934D01*
X125883925Y-77560240D01*
X125872835Y-77565485D01*
X125861286Y-77569618D01*
X125849386Y-77572598D01*
X125837252Y-77574398D01*
X125825000Y-77575000D01*
X125575000Y-77575000D01*
X125562748Y-77574398D01*
X125550614Y-77572598D01*
X125538714Y-77569618D01*
X125527165Y-77565485D01*
X125516075Y-77560240D01*
X125505554Y-77553934D01*
X125495701Y-77546626D01*
X125486612Y-77538388D01*
X125478374Y-77529299D01*
X125471066Y-77519446D01*
X125464760Y-77508925D01*
X125459515Y-77497835D01*
X125455382Y-77486286D01*
X125452402Y-77474386D01*
X125450602Y-77462252D01*
X125450000Y-77450000D01*
X125450000Y-76200000D01*
X125450602Y-76187748D01*
X125452402Y-76175614D01*
X125455382Y-76163714D01*
X125459515Y-76152165D01*
X125464760Y-76141075D01*
X125471066Y-76130554D01*
X125478374Y-76120701D01*
X125486612Y-76111612D01*
X125495701Y-76103374D01*
X125505554Y-76096066D01*
X125516075Y-76089760D01*
X125527165Y-76084515D01*
X125538714Y-76080382D01*
X125550614Y-76077402D01*
X125562748Y-76075602D01*
X125575000Y-76075000D01*
X125825000Y-76075000D01*
X125837252Y-76075602D01*
X125837252Y-76075602D01*
G37*
D11*
X125700000Y-76825000D03*
D10*
G36*
X126637252Y-76075602D02*
G01*
X126649386Y-76077402D01*
X126661286Y-76080382D01*
X126672835Y-76084515D01*
X126683925Y-76089760D01*
X126694446Y-76096066D01*
X126704299Y-76103374D01*
X126713388Y-76111612D01*
X126721626Y-76120701D01*
X126728934Y-76130554D01*
X126735240Y-76141075D01*
X126740485Y-76152165D01*
X126744618Y-76163714D01*
X126747598Y-76175614D01*
X126749398Y-76187748D01*
X126750000Y-76200000D01*
X126750000Y-77450000D01*
X126749398Y-77462252D01*
X126747598Y-77474386D01*
X126744618Y-77486286D01*
X126740485Y-77497835D01*
X126735240Y-77508925D01*
X126728934Y-77519446D01*
X126721626Y-77529299D01*
X126713388Y-77538388D01*
X126704299Y-77546626D01*
X126694446Y-77553934D01*
X126683925Y-77560240D01*
X126672835Y-77565485D01*
X126661286Y-77569618D01*
X126649386Y-77572598D01*
X126637252Y-77574398D01*
X126625000Y-77575000D01*
X126375000Y-77575000D01*
X126362748Y-77574398D01*
X126350614Y-77572598D01*
X126338714Y-77569618D01*
X126327165Y-77565485D01*
X126316075Y-77560240D01*
X126305554Y-77553934D01*
X126295701Y-77546626D01*
X126286612Y-77538388D01*
X126278374Y-77529299D01*
X126271066Y-77519446D01*
X126264760Y-77508925D01*
X126259515Y-77497835D01*
X126255382Y-77486286D01*
X126252402Y-77474386D01*
X126250602Y-77462252D01*
X126250000Y-77450000D01*
X126250000Y-76200000D01*
X126250602Y-76187748D01*
X126252402Y-76175614D01*
X126255382Y-76163714D01*
X126259515Y-76152165D01*
X126264760Y-76141075D01*
X126271066Y-76130554D01*
X126278374Y-76120701D01*
X126286612Y-76111612D01*
X126295701Y-76103374D01*
X126305554Y-76096066D01*
X126316075Y-76089760D01*
X126327165Y-76084515D01*
X126338714Y-76080382D01*
X126350614Y-76077402D01*
X126362748Y-76075602D01*
X126375000Y-76075000D01*
X126625000Y-76075000D01*
X126637252Y-76075602D01*
X126637252Y-76075602D01*
G37*
D11*
X126500000Y-76825000D03*
D10*
G36*
X127437252Y-76075602D02*
G01*
X127449386Y-76077402D01*
X127461286Y-76080382D01*
X127472835Y-76084515D01*
X127483925Y-76089760D01*
X127494446Y-76096066D01*
X127504299Y-76103374D01*
X127513388Y-76111612D01*
X127521626Y-76120701D01*
X127528934Y-76130554D01*
X127535240Y-76141075D01*
X127540485Y-76152165D01*
X127544618Y-76163714D01*
X127547598Y-76175614D01*
X127549398Y-76187748D01*
X127550000Y-76200000D01*
X127550000Y-77450000D01*
X127549398Y-77462252D01*
X127547598Y-77474386D01*
X127544618Y-77486286D01*
X127540485Y-77497835D01*
X127535240Y-77508925D01*
X127528934Y-77519446D01*
X127521626Y-77529299D01*
X127513388Y-77538388D01*
X127504299Y-77546626D01*
X127494446Y-77553934D01*
X127483925Y-77560240D01*
X127472835Y-77565485D01*
X127461286Y-77569618D01*
X127449386Y-77572598D01*
X127437252Y-77574398D01*
X127425000Y-77575000D01*
X127175000Y-77575000D01*
X127162748Y-77574398D01*
X127150614Y-77572598D01*
X127138714Y-77569618D01*
X127127165Y-77565485D01*
X127116075Y-77560240D01*
X127105554Y-77553934D01*
X127095701Y-77546626D01*
X127086612Y-77538388D01*
X127078374Y-77529299D01*
X127071066Y-77519446D01*
X127064760Y-77508925D01*
X127059515Y-77497835D01*
X127055382Y-77486286D01*
X127052402Y-77474386D01*
X127050602Y-77462252D01*
X127050000Y-77450000D01*
X127050000Y-76200000D01*
X127050602Y-76187748D01*
X127052402Y-76175614D01*
X127055382Y-76163714D01*
X127059515Y-76152165D01*
X127064760Y-76141075D01*
X127071066Y-76130554D01*
X127078374Y-76120701D01*
X127086612Y-76111612D01*
X127095701Y-76103374D01*
X127105554Y-76096066D01*
X127116075Y-76089760D01*
X127127165Y-76084515D01*
X127138714Y-76080382D01*
X127150614Y-76077402D01*
X127162748Y-76075602D01*
X127175000Y-76075000D01*
X127425000Y-76075000D01*
X127437252Y-76075602D01*
X127437252Y-76075602D01*
G37*
D11*
X127300000Y-76825000D03*
D10*
G36*
X129312252Y-77950602D02*
G01*
X129324386Y-77952402D01*
X129336286Y-77955382D01*
X129347835Y-77959515D01*
X129358925Y-77964760D01*
X129369446Y-77971066D01*
X129379299Y-77978374D01*
X129388388Y-77986612D01*
X129396626Y-77995701D01*
X129403934Y-78005554D01*
X129410240Y-78016075D01*
X129415485Y-78027165D01*
X129419618Y-78038714D01*
X129422598Y-78050614D01*
X129424398Y-78062748D01*
X129425000Y-78075000D01*
X129425000Y-78325000D01*
X129424398Y-78337252D01*
X129422598Y-78349386D01*
X129419618Y-78361286D01*
X129415485Y-78372835D01*
X129410240Y-78383925D01*
X129403934Y-78394446D01*
X129396626Y-78404299D01*
X129388388Y-78413388D01*
X129379299Y-78421626D01*
X129369446Y-78428934D01*
X129358925Y-78435240D01*
X129347835Y-78440485D01*
X129336286Y-78444618D01*
X129324386Y-78447598D01*
X129312252Y-78449398D01*
X129300000Y-78450000D01*
X128050000Y-78450000D01*
X128037748Y-78449398D01*
X128025614Y-78447598D01*
X128013714Y-78444618D01*
X128002165Y-78440485D01*
X127991075Y-78435240D01*
X127980554Y-78428934D01*
X127970701Y-78421626D01*
X127961612Y-78413388D01*
X127953374Y-78404299D01*
X127946066Y-78394446D01*
X127939760Y-78383925D01*
X127934515Y-78372835D01*
X127930382Y-78361286D01*
X127927402Y-78349386D01*
X127925602Y-78337252D01*
X127925000Y-78325000D01*
X127925000Y-78075000D01*
X127925602Y-78062748D01*
X127927402Y-78050614D01*
X127930382Y-78038714D01*
X127934515Y-78027165D01*
X127939760Y-78016075D01*
X127946066Y-78005554D01*
X127953374Y-77995701D01*
X127961612Y-77986612D01*
X127970701Y-77978374D01*
X127980554Y-77971066D01*
X127991075Y-77964760D01*
X128002165Y-77959515D01*
X128013714Y-77955382D01*
X128025614Y-77952402D01*
X128037748Y-77950602D01*
X128050000Y-77950000D01*
X129300000Y-77950000D01*
X129312252Y-77950602D01*
X129312252Y-77950602D01*
G37*
D11*
X128675000Y-78200000D03*
D10*
G36*
X129312252Y-78750602D02*
G01*
X129324386Y-78752402D01*
X129336286Y-78755382D01*
X129347835Y-78759515D01*
X129358925Y-78764760D01*
X129369446Y-78771066D01*
X129379299Y-78778374D01*
X129388388Y-78786612D01*
X129396626Y-78795701D01*
X129403934Y-78805554D01*
X129410240Y-78816075D01*
X129415485Y-78827165D01*
X129419618Y-78838714D01*
X129422598Y-78850614D01*
X129424398Y-78862748D01*
X129425000Y-78875000D01*
X129425000Y-79125000D01*
X129424398Y-79137252D01*
X129422598Y-79149386D01*
X129419618Y-79161286D01*
X129415485Y-79172835D01*
X129410240Y-79183925D01*
X129403934Y-79194446D01*
X129396626Y-79204299D01*
X129388388Y-79213388D01*
X129379299Y-79221626D01*
X129369446Y-79228934D01*
X129358925Y-79235240D01*
X129347835Y-79240485D01*
X129336286Y-79244618D01*
X129324386Y-79247598D01*
X129312252Y-79249398D01*
X129300000Y-79250000D01*
X128050000Y-79250000D01*
X128037748Y-79249398D01*
X128025614Y-79247598D01*
X128013714Y-79244618D01*
X128002165Y-79240485D01*
X127991075Y-79235240D01*
X127980554Y-79228934D01*
X127970701Y-79221626D01*
X127961612Y-79213388D01*
X127953374Y-79204299D01*
X127946066Y-79194446D01*
X127939760Y-79183925D01*
X127934515Y-79172835D01*
X127930382Y-79161286D01*
X127927402Y-79149386D01*
X127925602Y-79137252D01*
X127925000Y-79125000D01*
X127925000Y-78875000D01*
X127925602Y-78862748D01*
X127927402Y-78850614D01*
X127930382Y-78838714D01*
X127934515Y-78827165D01*
X127939760Y-78816075D01*
X127946066Y-78805554D01*
X127953374Y-78795701D01*
X127961612Y-78786612D01*
X127970701Y-78778374D01*
X127980554Y-78771066D01*
X127991075Y-78764760D01*
X128002165Y-78759515D01*
X128013714Y-78755382D01*
X128025614Y-78752402D01*
X128037748Y-78750602D01*
X128050000Y-78750000D01*
X129300000Y-78750000D01*
X129312252Y-78750602D01*
X129312252Y-78750602D01*
G37*
D11*
X128675000Y-79000000D03*
D10*
G36*
X129312252Y-79550602D02*
G01*
X129324386Y-79552402D01*
X129336286Y-79555382D01*
X129347835Y-79559515D01*
X129358925Y-79564760D01*
X129369446Y-79571066D01*
X129379299Y-79578374D01*
X129388388Y-79586612D01*
X129396626Y-79595701D01*
X129403934Y-79605554D01*
X129410240Y-79616075D01*
X129415485Y-79627165D01*
X129419618Y-79638714D01*
X129422598Y-79650614D01*
X129424398Y-79662748D01*
X129425000Y-79675000D01*
X129425000Y-79925000D01*
X129424398Y-79937252D01*
X129422598Y-79949386D01*
X129419618Y-79961286D01*
X129415485Y-79972835D01*
X129410240Y-79983925D01*
X129403934Y-79994446D01*
X129396626Y-80004299D01*
X129388388Y-80013388D01*
X129379299Y-80021626D01*
X129369446Y-80028934D01*
X129358925Y-80035240D01*
X129347835Y-80040485D01*
X129336286Y-80044618D01*
X129324386Y-80047598D01*
X129312252Y-80049398D01*
X129300000Y-80050000D01*
X128050000Y-80050000D01*
X128037748Y-80049398D01*
X128025614Y-80047598D01*
X128013714Y-80044618D01*
X128002165Y-80040485D01*
X127991075Y-80035240D01*
X127980554Y-80028934D01*
X127970701Y-80021626D01*
X127961612Y-80013388D01*
X127953374Y-80004299D01*
X127946066Y-79994446D01*
X127939760Y-79983925D01*
X127934515Y-79972835D01*
X127930382Y-79961286D01*
X127927402Y-79949386D01*
X127925602Y-79937252D01*
X127925000Y-79925000D01*
X127925000Y-79675000D01*
X127925602Y-79662748D01*
X127927402Y-79650614D01*
X127930382Y-79638714D01*
X127934515Y-79627165D01*
X127939760Y-79616075D01*
X127946066Y-79605554D01*
X127953374Y-79595701D01*
X127961612Y-79586612D01*
X127970701Y-79578374D01*
X127980554Y-79571066D01*
X127991075Y-79564760D01*
X128002165Y-79559515D01*
X128013714Y-79555382D01*
X128025614Y-79552402D01*
X128037748Y-79550602D01*
X128050000Y-79550000D01*
X129300000Y-79550000D01*
X129312252Y-79550602D01*
X129312252Y-79550602D01*
G37*
D11*
X128675000Y-79800000D03*
D10*
G36*
X129312252Y-80350602D02*
G01*
X129324386Y-80352402D01*
X129336286Y-80355382D01*
X129347835Y-80359515D01*
X129358925Y-80364760D01*
X129369446Y-80371066D01*
X129379299Y-80378374D01*
X129388388Y-80386612D01*
X129396626Y-80395701D01*
X129403934Y-80405554D01*
X129410240Y-80416075D01*
X129415485Y-80427165D01*
X129419618Y-80438714D01*
X129422598Y-80450614D01*
X129424398Y-80462748D01*
X129425000Y-80475000D01*
X129425000Y-80725000D01*
X129424398Y-80737252D01*
X129422598Y-80749386D01*
X129419618Y-80761286D01*
X129415485Y-80772835D01*
X129410240Y-80783925D01*
X129403934Y-80794446D01*
X129396626Y-80804299D01*
X129388388Y-80813388D01*
X129379299Y-80821626D01*
X129369446Y-80828934D01*
X129358925Y-80835240D01*
X129347835Y-80840485D01*
X129336286Y-80844618D01*
X129324386Y-80847598D01*
X129312252Y-80849398D01*
X129300000Y-80850000D01*
X128050000Y-80850000D01*
X128037748Y-80849398D01*
X128025614Y-80847598D01*
X128013714Y-80844618D01*
X128002165Y-80840485D01*
X127991075Y-80835240D01*
X127980554Y-80828934D01*
X127970701Y-80821626D01*
X127961612Y-80813388D01*
X127953374Y-80804299D01*
X127946066Y-80794446D01*
X127939760Y-80783925D01*
X127934515Y-80772835D01*
X127930382Y-80761286D01*
X127927402Y-80749386D01*
X127925602Y-80737252D01*
X127925000Y-80725000D01*
X127925000Y-80475000D01*
X127925602Y-80462748D01*
X127927402Y-80450614D01*
X127930382Y-80438714D01*
X127934515Y-80427165D01*
X127939760Y-80416075D01*
X127946066Y-80405554D01*
X127953374Y-80395701D01*
X127961612Y-80386612D01*
X127970701Y-80378374D01*
X127980554Y-80371066D01*
X127991075Y-80364760D01*
X128002165Y-80359515D01*
X128013714Y-80355382D01*
X128025614Y-80352402D01*
X128037748Y-80350602D01*
X128050000Y-80350000D01*
X129300000Y-80350000D01*
X129312252Y-80350602D01*
X129312252Y-80350602D01*
G37*
D11*
X128675000Y-80600000D03*
D10*
G36*
X129312252Y-81150602D02*
G01*
X129324386Y-81152402D01*
X129336286Y-81155382D01*
X129347835Y-81159515D01*
X129358925Y-81164760D01*
X129369446Y-81171066D01*
X129379299Y-81178374D01*
X129388388Y-81186612D01*
X129396626Y-81195701D01*
X129403934Y-81205554D01*
X129410240Y-81216075D01*
X129415485Y-81227165D01*
X129419618Y-81238714D01*
X129422598Y-81250614D01*
X129424398Y-81262748D01*
X129425000Y-81275000D01*
X129425000Y-81525000D01*
X129424398Y-81537252D01*
X129422598Y-81549386D01*
X129419618Y-81561286D01*
X129415485Y-81572835D01*
X129410240Y-81583925D01*
X129403934Y-81594446D01*
X129396626Y-81604299D01*
X129388388Y-81613388D01*
X129379299Y-81621626D01*
X129369446Y-81628934D01*
X129358925Y-81635240D01*
X129347835Y-81640485D01*
X129336286Y-81644618D01*
X129324386Y-81647598D01*
X129312252Y-81649398D01*
X129300000Y-81650000D01*
X128050000Y-81650000D01*
X128037748Y-81649398D01*
X128025614Y-81647598D01*
X128013714Y-81644618D01*
X128002165Y-81640485D01*
X127991075Y-81635240D01*
X127980554Y-81628934D01*
X127970701Y-81621626D01*
X127961612Y-81613388D01*
X127953374Y-81604299D01*
X127946066Y-81594446D01*
X127939760Y-81583925D01*
X127934515Y-81572835D01*
X127930382Y-81561286D01*
X127927402Y-81549386D01*
X127925602Y-81537252D01*
X127925000Y-81525000D01*
X127925000Y-81275000D01*
X127925602Y-81262748D01*
X127927402Y-81250614D01*
X127930382Y-81238714D01*
X127934515Y-81227165D01*
X127939760Y-81216075D01*
X127946066Y-81205554D01*
X127953374Y-81195701D01*
X127961612Y-81186612D01*
X127970701Y-81178374D01*
X127980554Y-81171066D01*
X127991075Y-81164760D01*
X128002165Y-81159515D01*
X128013714Y-81155382D01*
X128025614Y-81152402D01*
X128037748Y-81150602D01*
X128050000Y-81150000D01*
X129300000Y-81150000D01*
X129312252Y-81150602D01*
X129312252Y-81150602D01*
G37*
D11*
X128675000Y-81400000D03*
D10*
G36*
X129312252Y-81950602D02*
G01*
X129324386Y-81952402D01*
X129336286Y-81955382D01*
X129347835Y-81959515D01*
X129358925Y-81964760D01*
X129369446Y-81971066D01*
X129379299Y-81978374D01*
X129388388Y-81986612D01*
X129396626Y-81995701D01*
X129403934Y-82005554D01*
X129410240Y-82016075D01*
X129415485Y-82027165D01*
X129419618Y-82038714D01*
X129422598Y-82050614D01*
X129424398Y-82062748D01*
X129425000Y-82075000D01*
X129425000Y-82325000D01*
X129424398Y-82337252D01*
X129422598Y-82349386D01*
X129419618Y-82361286D01*
X129415485Y-82372835D01*
X129410240Y-82383925D01*
X129403934Y-82394446D01*
X129396626Y-82404299D01*
X129388388Y-82413388D01*
X129379299Y-82421626D01*
X129369446Y-82428934D01*
X129358925Y-82435240D01*
X129347835Y-82440485D01*
X129336286Y-82444618D01*
X129324386Y-82447598D01*
X129312252Y-82449398D01*
X129300000Y-82450000D01*
X128050000Y-82450000D01*
X128037748Y-82449398D01*
X128025614Y-82447598D01*
X128013714Y-82444618D01*
X128002165Y-82440485D01*
X127991075Y-82435240D01*
X127980554Y-82428934D01*
X127970701Y-82421626D01*
X127961612Y-82413388D01*
X127953374Y-82404299D01*
X127946066Y-82394446D01*
X127939760Y-82383925D01*
X127934515Y-82372835D01*
X127930382Y-82361286D01*
X127927402Y-82349386D01*
X127925602Y-82337252D01*
X127925000Y-82325000D01*
X127925000Y-82075000D01*
X127925602Y-82062748D01*
X127927402Y-82050614D01*
X127930382Y-82038714D01*
X127934515Y-82027165D01*
X127939760Y-82016075D01*
X127946066Y-82005554D01*
X127953374Y-81995701D01*
X127961612Y-81986612D01*
X127970701Y-81978374D01*
X127980554Y-81971066D01*
X127991075Y-81964760D01*
X128002165Y-81959515D01*
X128013714Y-81955382D01*
X128025614Y-81952402D01*
X128037748Y-81950602D01*
X128050000Y-81950000D01*
X129300000Y-81950000D01*
X129312252Y-81950602D01*
X129312252Y-81950602D01*
G37*
D11*
X128675000Y-82200000D03*
D10*
G36*
X129312252Y-82750602D02*
G01*
X129324386Y-82752402D01*
X129336286Y-82755382D01*
X129347835Y-82759515D01*
X129358925Y-82764760D01*
X129369446Y-82771066D01*
X129379299Y-82778374D01*
X129388388Y-82786612D01*
X129396626Y-82795701D01*
X129403934Y-82805554D01*
X129410240Y-82816075D01*
X129415485Y-82827165D01*
X129419618Y-82838714D01*
X129422598Y-82850614D01*
X129424398Y-82862748D01*
X129425000Y-82875000D01*
X129425000Y-83125000D01*
X129424398Y-83137252D01*
X129422598Y-83149386D01*
X129419618Y-83161286D01*
X129415485Y-83172835D01*
X129410240Y-83183925D01*
X129403934Y-83194446D01*
X129396626Y-83204299D01*
X129388388Y-83213388D01*
X129379299Y-83221626D01*
X129369446Y-83228934D01*
X129358925Y-83235240D01*
X129347835Y-83240485D01*
X129336286Y-83244618D01*
X129324386Y-83247598D01*
X129312252Y-83249398D01*
X129300000Y-83250000D01*
X128050000Y-83250000D01*
X128037748Y-83249398D01*
X128025614Y-83247598D01*
X128013714Y-83244618D01*
X128002165Y-83240485D01*
X127991075Y-83235240D01*
X127980554Y-83228934D01*
X127970701Y-83221626D01*
X127961612Y-83213388D01*
X127953374Y-83204299D01*
X127946066Y-83194446D01*
X127939760Y-83183925D01*
X127934515Y-83172835D01*
X127930382Y-83161286D01*
X127927402Y-83149386D01*
X127925602Y-83137252D01*
X127925000Y-83125000D01*
X127925000Y-82875000D01*
X127925602Y-82862748D01*
X127927402Y-82850614D01*
X127930382Y-82838714D01*
X127934515Y-82827165D01*
X127939760Y-82816075D01*
X127946066Y-82805554D01*
X127953374Y-82795701D01*
X127961612Y-82786612D01*
X127970701Y-82778374D01*
X127980554Y-82771066D01*
X127991075Y-82764760D01*
X128002165Y-82759515D01*
X128013714Y-82755382D01*
X128025614Y-82752402D01*
X128037748Y-82750602D01*
X128050000Y-82750000D01*
X129300000Y-82750000D01*
X129312252Y-82750602D01*
X129312252Y-82750602D01*
G37*
D11*
X128675000Y-83000000D03*
D10*
G36*
X129312252Y-83550602D02*
G01*
X129324386Y-83552402D01*
X129336286Y-83555382D01*
X129347835Y-83559515D01*
X129358925Y-83564760D01*
X129369446Y-83571066D01*
X129379299Y-83578374D01*
X129388388Y-83586612D01*
X129396626Y-83595701D01*
X129403934Y-83605554D01*
X129410240Y-83616075D01*
X129415485Y-83627165D01*
X129419618Y-83638714D01*
X129422598Y-83650614D01*
X129424398Y-83662748D01*
X129425000Y-83675000D01*
X129425000Y-83925000D01*
X129424398Y-83937252D01*
X129422598Y-83949386D01*
X129419618Y-83961286D01*
X129415485Y-83972835D01*
X129410240Y-83983925D01*
X129403934Y-83994446D01*
X129396626Y-84004299D01*
X129388388Y-84013388D01*
X129379299Y-84021626D01*
X129369446Y-84028934D01*
X129358925Y-84035240D01*
X129347835Y-84040485D01*
X129336286Y-84044618D01*
X129324386Y-84047598D01*
X129312252Y-84049398D01*
X129300000Y-84050000D01*
X128050000Y-84050000D01*
X128037748Y-84049398D01*
X128025614Y-84047598D01*
X128013714Y-84044618D01*
X128002165Y-84040485D01*
X127991075Y-84035240D01*
X127980554Y-84028934D01*
X127970701Y-84021626D01*
X127961612Y-84013388D01*
X127953374Y-84004299D01*
X127946066Y-83994446D01*
X127939760Y-83983925D01*
X127934515Y-83972835D01*
X127930382Y-83961286D01*
X127927402Y-83949386D01*
X127925602Y-83937252D01*
X127925000Y-83925000D01*
X127925000Y-83675000D01*
X127925602Y-83662748D01*
X127927402Y-83650614D01*
X127930382Y-83638714D01*
X127934515Y-83627165D01*
X127939760Y-83616075D01*
X127946066Y-83605554D01*
X127953374Y-83595701D01*
X127961612Y-83586612D01*
X127970701Y-83578374D01*
X127980554Y-83571066D01*
X127991075Y-83564760D01*
X128002165Y-83559515D01*
X128013714Y-83555382D01*
X128025614Y-83552402D01*
X128037748Y-83550602D01*
X128050000Y-83550000D01*
X129300000Y-83550000D01*
X129312252Y-83550602D01*
X129312252Y-83550602D01*
G37*
D11*
X128675000Y-83800000D03*
D10*
G36*
X127437252Y-84425602D02*
G01*
X127449386Y-84427402D01*
X127461286Y-84430382D01*
X127472835Y-84434515D01*
X127483925Y-84439760D01*
X127494446Y-84446066D01*
X127504299Y-84453374D01*
X127513388Y-84461612D01*
X127521626Y-84470701D01*
X127528934Y-84480554D01*
X127535240Y-84491075D01*
X127540485Y-84502165D01*
X127544618Y-84513714D01*
X127547598Y-84525614D01*
X127549398Y-84537748D01*
X127550000Y-84550000D01*
X127550000Y-85800000D01*
X127549398Y-85812252D01*
X127547598Y-85824386D01*
X127544618Y-85836286D01*
X127540485Y-85847835D01*
X127535240Y-85858925D01*
X127528934Y-85869446D01*
X127521626Y-85879299D01*
X127513388Y-85888388D01*
X127504299Y-85896626D01*
X127494446Y-85903934D01*
X127483925Y-85910240D01*
X127472835Y-85915485D01*
X127461286Y-85919618D01*
X127449386Y-85922598D01*
X127437252Y-85924398D01*
X127425000Y-85925000D01*
X127175000Y-85925000D01*
X127162748Y-85924398D01*
X127150614Y-85922598D01*
X127138714Y-85919618D01*
X127127165Y-85915485D01*
X127116075Y-85910240D01*
X127105554Y-85903934D01*
X127095701Y-85896626D01*
X127086612Y-85888388D01*
X127078374Y-85879299D01*
X127071066Y-85869446D01*
X127064760Y-85858925D01*
X127059515Y-85847835D01*
X127055382Y-85836286D01*
X127052402Y-85824386D01*
X127050602Y-85812252D01*
X127050000Y-85800000D01*
X127050000Y-84550000D01*
X127050602Y-84537748D01*
X127052402Y-84525614D01*
X127055382Y-84513714D01*
X127059515Y-84502165D01*
X127064760Y-84491075D01*
X127071066Y-84480554D01*
X127078374Y-84470701D01*
X127086612Y-84461612D01*
X127095701Y-84453374D01*
X127105554Y-84446066D01*
X127116075Y-84439760D01*
X127127165Y-84434515D01*
X127138714Y-84430382D01*
X127150614Y-84427402D01*
X127162748Y-84425602D01*
X127175000Y-84425000D01*
X127425000Y-84425000D01*
X127437252Y-84425602D01*
X127437252Y-84425602D01*
G37*
D11*
X127300000Y-85175000D03*
D10*
G36*
X126637252Y-84425602D02*
G01*
X126649386Y-84427402D01*
X126661286Y-84430382D01*
X126672835Y-84434515D01*
X126683925Y-84439760D01*
X126694446Y-84446066D01*
X126704299Y-84453374D01*
X126713388Y-84461612D01*
X126721626Y-84470701D01*
X126728934Y-84480554D01*
X126735240Y-84491075D01*
X126740485Y-84502165D01*
X126744618Y-84513714D01*
X126747598Y-84525614D01*
X126749398Y-84537748D01*
X126750000Y-84550000D01*
X126750000Y-85800000D01*
X126749398Y-85812252D01*
X126747598Y-85824386D01*
X126744618Y-85836286D01*
X126740485Y-85847835D01*
X126735240Y-85858925D01*
X126728934Y-85869446D01*
X126721626Y-85879299D01*
X126713388Y-85888388D01*
X126704299Y-85896626D01*
X126694446Y-85903934D01*
X126683925Y-85910240D01*
X126672835Y-85915485D01*
X126661286Y-85919618D01*
X126649386Y-85922598D01*
X126637252Y-85924398D01*
X126625000Y-85925000D01*
X126375000Y-85925000D01*
X126362748Y-85924398D01*
X126350614Y-85922598D01*
X126338714Y-85919618D01*
X126327165Y-85915485D01*
X126316075Y-85910240D01*
X126305554Y-85903934D01*
X126295701Y-85896626D01*
X126286612Y-85888388D01*
X126278374Y-85879299D01*
X126271066Y-85869446D01*
X126264760Y-85858925D01*
X126259515Y-85847835D01*
X126255382Y-85836286D01*
X126252402Y-85824386D01*
X126250602Y-85812252D01*
X126250000Y-85800000D01*
X126250000Y-84550000D01*
X126250602Y-84537748D01*
X126252402Y-84525614D01*
X126255382Y-84513714D01*
X126259515Y-84502165D01*
X126264760Y-84491075D01*
X126271066Y-84480554D01*
X126278374Y-84470701D01*
X126286612Y-84461612D01*
X126295701Y-84453374D01*
X126305554Y-84446066D01*
X126316075Y-84439760D01*
X126327165Y-84434515D01*
X126338714Y-84430382D01*
X126350614Y-84427402D01*
X126362748Y-84425602D01*
X126375000Y-84425000D01*
X126625000Y-84425000D01*
X126637252Y-84425602D01*
X126637252Y-84425602D01*
G37*
D11*
X126500000Y-85175000D03*
D10*
G36*
X125837252Y-84425602D02*
G01*
X125849386Y-84427402D01*
X125861286Y-84430382D01*
X125872835Y-84434515D01*
X125883925Y-84439760D01*
X125894446Y-84446066D01*
X125904299Y-84453374D01*
X125913388Y-84461612D01*
X125921626Y-84470701D01*
X125928934Y-84480554D01*
X125935240Y-84491075D01*
X125940485Y-84502165D01*
X125944618Y-84513714D01*
X125947598Y-84525614D01*
X125949398Y-84537748D01*
X125950000Y-84550000D01*
X125950000Y-85800000D01*
X125949398Y-85812252D01*
X125947598Y-85824386D01*
X125944618Y-85836286D01*
X125940485Y-85847835D01*
X125935240Y-85858925D01*
X125928934Y-85869446D01*
X125921626Y-85879299D01*
X125913388Y-85888388D01*
X125904299Y-85896626D01*
X125894446Y-85903934D01*
X125883925Y-85910240D01*
X125872835Y-85915485D01*
X125861286Y-85919618D01*
X125849386Y-85922598D01*
X125837252Y-85924398D01*
X125825000Y-85925000D01*
X125575000Y-85925000D01*
X125562748Y-85924398D01*
X125550614Y-85922598D01*
X125538714Y-85919618D01*
X125527165Y-85915485D01*
X125516075Y-85910240D01*
X125505554Y-85903934D01*
X125495701Y-85896626D01*
X125486612Y-85888388D01*
X125478374Y-85879299D01*
X125471066Y-85869446D01*
X125464760Y-85858925D01*
X125459515Y-85847835D01*
X125455382Y-85836286D01*
X125452402Y-85824386D01*
X125450602Y-85812252D01*
X125450000Y-85800000D01*
X125450000Y-84550000D01*
X125450602Y-84537748D01*
X125452402Y-84525614D01*
X125455382Y-84513714D01*
X125459515Y-84502165D01*
X125464760Y-84491075D01*
X125471066Y-84480554D01*
X125478374Y-84470701D01*
X125486612Y-84461612D01*
X125495701Y-84453374D01*
X125505554Y-84446066D01*
X125516075Y-84439760D01*
X125527165Y-84434515D01*
X125538714Y-84430382D01*
X125550614Y-84427402D01*
X125562748Y-84425602D01*
X125575000Y-84425000D01*
X125825000Y-84425000D01*
X125837252Y-84425602D01*
X125837252Y-84425602D01*
G37*
D11*
X125700000Y-85175000D03*
D10*
G36*
X125037252Y-84425602D02*
G01*
X125049386Y-84427402D01*
X125061286Y-84430382D01*
X125072835Y-84434515D01*
X125083925Y-84439760D01*
X125094446Y-84446066D01*
X125104299Y-84453374D01*
X125113388Y-84461612D01*
X125121626Y-84470701D01*
X125128934Y-84480554D01*
X125135240Y-84491075D01*
X125140485Y-84502165D01*
X125144618Y-84513714D01*
X125147598Y-84525614D01*
X125149398Y-84537748D01*
X125150000Y-84550000D01*
X125150000Y-85800000D01*
X125149398Y-85812252D01*
X125147598Y-85824386D01*
X125144618Y-85836286D01*
X125140485Y-85847835D01*
X125135240Y-85858925D01*
X125128934Y-85869446D01*
X125121626Y-85879299D01*
X125113388Y-85888388D01*
X125104299Y-85896626D01*
X125094446Y-85903934D01*
X125083925Y-85910240D01*
X125072835Y-85915485D01*
X125061286Y-85919618D01*
X125049386Y-85922598D01*
X125037252Y-85924398D01*
X125025000Y-85925000D01*
X124775000Y-85925000D01*
X124762748Y-85924398D01*
X124750614Y-85922598D01*
X124738714Y-85919618D01*
X124727165Y-85915485D01*
X124716075Y-85910240D01*
X124705554Y-85903934D01*
X124695701Y-85896626D01*
X124686612Y-85888388D01*
X124678374Y-85879299D01*
X124671066Y-85869446D01*
X124664760Y-85858925D01*
X124659515Y-85847835D01*
X124655382Y-85836286D01*
X124652402Y-85824386D01*
X124650602Y-85812252D01*
X124650000Y-85800000D01*
X124650000Y-84550000D01*
X124650602Y-84537748D01*
X124652402Y-84525614D01*
X124655382Y-84513714D01*
X124659515Y-84502165D01*
X124664760Y-84491075D01*
X124671066Y-84480554D01*
X124678374Y-84470701D01*
X124686612Y-84461612D01*
X124695701Y-84453374D01*
X124705554Y-84446066D01*
X124716075Y-84439760D01*
X124727165Y-84434515D01*
X124738714Y-84430382D01*
X124750614Y-84427402D01*
X124762748Y-84425602D01*
X124775000Y-84425000D01*
X125025000Y-84425000D01*
X125037252Y-84425602D01*
X125037252Y-84425602D01*
G37*
D11*
X124900000Y-85175000D03*
D10*
G36*
X124237252Y-84425602D02*
G01*
X124249386Y-84427402D01*
X124261286Y-84430382D01*
X124272835Y-84434515D01*
X124283925Y-84439760D01*
X124294446Y-84446066D01*
X124304299Y-84453374D01*
X124313388Y-84461612D01*
X124321626Y-84470701D01*
X124328934Y-84480554D01*
X124335240Y-84491075D01*
X124340485Y-84502165D01*
X124344618Y-84513714D01*
X124347598Y-84525614D01*
X124349398Y-84537748D01*
X124350000Y-84550000D01*
X124350000Y-85800000D01*
X124349398Y-85812252D01*
X124347598Y-85824386D01*
X124344618Y-85836286D01*
X124340485Y-85847835D01*
X124335240Y-85858925D01*
X124328934Y-85869446D01*
X124321626Y-85879299D01*
X124313388Y-85888388D01*
X124304299Y-85896626D01*
X124294446Y-85903934D01*
X124283925Y-85910240D01*
X124272835Y-85915485D01*
X124261286Y-85919618D01*
X124249386Y-85922598D01*
X124237252Y-85924398D01*
X124225000Y-85925000D01*
X123975000Y-85925000D01*
X123962748Y-85924398D01*
X123950614Y-85922598D01*
X123938714Y-85919618D01*
X123927165Y-85915485D01*
X123916075Y-85910240D01*
X123905554Y-85903934D01*
X123895701Y-85896626D01*
X123886612Y-85888388D01*
X123878374Y-85879299D01*
X123871066Y-85869446D01*
X123864760Y-85858925D01*
X123859515Y-85847835D01*
X123855382Y-85836286D01*
X123852402Y-85824386D01*
X123850602Y-85812252D01*
X123850000Y-85800000D01*
X123850000Y-84550000D01*
X123850602Y-84537748D01*
X123852402Y-84525614D01*
X123855382Y-84513714D01*
X123859515Y-84502165D01*
X123864760Y-84491075D01*
X123871066Y-84480554D01*
X123878374Y-84470701D01*
X123886612Y-84461612D01*
X123895701Y-84453374D01*
X123905554Y-84446066D01*
X123916075Y-84439760D01*
X123927165Y-84434515D01*
X123938714Y-84430382D01*
X123950614Y-84427402D01*
X123962748Y-84425602D01*
X123975000Y-84425000D01*
X124225000Y-84425000D01*
X124237252Y-84425602D01*
X124237252Y-84425602D01*
G37*
D11*
X124100000Y-85175000D03*
D10*
G36*
X123437252Y-84425602D02*
G01*
X123449386Y-84427402D01*
X123461286Y-84430382D01*
X123472835Y-84434515D01*
X123483925Y-84439760D01*
X123494446Y-84446066D01*
X123504299Y-84453374D01*
X123513388Y-84461612D01*
X123521626Y-84470701D01*
X123528934Y-84480554D01*
X123535240Y-84491075D01*
X123540485Y-84502165D01*
X123544618Y-84513714D01*
X123547598Y-84525614D01*
X123549398Y-84537748D01*
X123550000Y-84550000D01*
X123550000Y-85800000D01*
X123549398Y-85812252D01*
X123547598Y-85824386D01*
X123544618Y-85836286D01*
X123540485Y-85847835D01*
X123535240Y-85858925D01*
X123528934Y-85869446D01*
X123521626Y-85879299D01*
X123513388Y-85888388D01*
X123504299Y-85896626D01*
X123494446Y-85903934D01*
X123483925Y-85910240D01*
X123472835Y-85915485D01*
X123461286Y-85919618D01*
X123449386Y-85922598D01*
X123437252Y-85924398D01*
X123425000Y-85925000D01*
X123175000Y-85925000D01*
X123162748Y-85924398D01*
X123150614Y-85922598D01*
X123138714Y-85919618D01*
X123127165Y-85915485D01*
X123116075Y-85910240D01*
X123105554Y-85903934D01*
X123095701Y-85896626D01*
X123086612Y-85888388D01*
X123078374Y-85879299D01*
X123071066Y-85869446D01*
X123064760Y-85858925D01*
X123059515Y-85847835D01*
X123055382Y-85836286D01*
X123052402Y-85824386D01*
X123050602Y-85812252D01*
X123050000Y-85800000D01*
X123050000Y-84550000D01*
X123050602Y-84537748D01*
X123052402Y-84525614D01*
X123055382Y-84513714D01*
X123059515Y-84502165D01*
X123064760Y-84491075D01*
X123071066Y-84480554D01*
X123078374Y-84470701D01*
X123086612Y-84461612D01*
X123095701Y-84453374D01*
X123105554Y-84446066D01*
X123116075Y-84439760D01*
X123127165Y-84434515D01*
X123138714Y-84430382D01*
X123150614Y-84427402D01*
X123162748Y-84425602D01*
X123175000Y-84425000D01*
X123425000Y-84425000D01*
X123437252Y-84425602D01*
X123437252Y-84425602D01*
G37*
D11*
X123300000Y-85175000D03*
D10*
G36*
X122637252Y-84425602D02*
G01*
X122649386Y-84427402D01*
X122661286Y-84430382D01*
X122672835Y-84434515D01*
X122683925Y-84439760D01*
X122694446Y-84446066D01*
X122704299Y-84453374D01*
X122713388Y-84461612D01*
X122721626Y-84470701D01*
X122728934Y-84480554D01*
X122735240Y-84491075D01*
X122740485Y-84502165D01*
X122744618Y-84513714D01*
X122747598Y-84525614D01*
X122749398Y-84537748D01*
X122750000Y-84550000D01*
X122750000Y-85800000D01*
X122749398Y-85812252D01*
X122747598Y-85824386D01*
X122744618Y-85836286D01*
X122740485Y-85847835D01*
X122735240Y-85858925D01*
X122728934Y-85869446D01*
X122721626Y-85879299D01*
X122713388Y-85888388D01*
X122704299Y-85896626D01*
X122694446Y-85903934D01*
X122683925Y-85910240D01*
X122672835Y-85915485D01*
X122661286Y-85919618D01*
X122649386Y-85922598D01*
X122637252Y-85924398D01*
X122625000Y-85925000D01*
X122375000Y-85925000D01*
X122362748Y-85924398D01*
X122350614Y-85922598D01*
X122338714Y-85919618D01*
X122327165Y-85915485D01*
X122316075Y-85910240D01*
X122305554Y-85903934D01*
X122295701Y-85896626D01*
X122286612Y-85888388D01*
X122278374Y-85879299D01*
X122271066Y-85869446D01*
X122264760Y-85858925D01*
X122259515Y-85847835D01*
X122255382Y-85836286D01*
X122252402Y-85824386D01*
X122250602Y-85812252D01*
X122250000Y-85800000D01*
X122250000Y-84550000D01*
X122250602Y-84537748D01*
X122252402Y-84525614D01*
X122255382Y-84513714D01*
X122259515Y-84502165D01*
X122264760Y-84491075D01*
X122271066Y-84480554D01*
X122278374Y-84470701D01*
X122286612Y-84461612D01*
X122295701Y-84453374D01*
X122305554Y-84446066D01*
X122316075Y-84439760D01*
X122327165Y-84434515D01*
X122338714Y-84430382D01*
X122350614Y-84427402D01*
X122362748Y-84425602D01*
X122375000Y-84425000D01*
X122625000Y-84425000D01*
X122637252Y-84425602D01*
X122637252Y-84425602D01*
G37*
D11*
X122500000Y-85175000D03*
D10*
G36*
X121837252Y-84425602D02*
G01*
X121849386Y-84427402D01*
X121861286Y-84430382D01*
X121872835Y-84434515D01*
X121883925Y-84439760D01*
X121894446Y-84446066D01*
X121904299Y-84453374D01*
X121913388Y-84461612D01*
X121921626Y-84470701D01*
X121928934Y-84480554D01*
X121935240Y-84491075D01*
X121940485Y-84502165D01*
X121944618Y-84513714D01*
X121947598Y-84525614D01*
X121949398Y-84537748D01*
X121950000Y-84550000D01*
X121950000Y-85800000D01*
X121949398Y-85812252D01*
X121947598Y-85824386D01*
X121944618Y-85836286D01*
X121940485Y-85847835D01*
X121935240Y-85858925D01*
X121928934Y-85869446D01*
X121921626Y-85879299D01*
X121913388Y-85888388D01*
X121904299Y-85896626D01*
X121894446Y-85903934D01*
X121883925Y-85910240D01*
X121872835Y-85915485D01*
X121861286Y-85919618D01*
X121849386Y-85922598D01*
X121837252Y-85924398D01*
X121825000Y-85925000D01*
X121575000Y-85925000D01*
X121562748Y-85924398D01*
X121550614Y-85922598D01*
X121538714Y-85919618D01*
X121527165Y-85915485D01*
X121516075Y-85910240D01*
X121505554Y-85903934D01*
X121495701Y-85896626D01*
X121486612Y-85888388D01*
X121478374Y-85879299D01*
X121471066Y-85869446D01*
X121464760Y-85858925D01*
X121459515Y-85847835D01*
X121455382Y-85836286D01*
X121452402Y-85824386D01*
X121450602Y-85812252D01*
X121450000Y-85800000D01*
X121450000Y-84550000D01*
X121450602Y-84537748D01*
X121452402Y-84525614D01*
X121455382Y-84513714D01*
X121459515Y-84502165D01*
X121464760Y-84491075D01*
X121471066Y-84480554D01*
X121478374Y-84470701D01*
X121486612Y-84461612D01*
X121495701Y-84453374D01*
X121505554Y-84446066D01*
X121516075Y-84439760D01*
X121527165Y-84434515D01*
X121538714Y-84430382D01*
X121550614Y-84427402D01*
X121562748Y-84425602D01*
X121575000Y-84425000D01*
X121825000Y-84425000D01*
X121837252Y-84425602D01*
X121837252Y-84425602D01*
G37*
D11*
X121700000Y-85175000D03*
D10*
G36*
X120962252Y-83550602D02*
G01*
X120974386Y-83552402D01*
X120986286Y-83555382D01*
X120997835Y-83559515D01*
X121008925Y-83564760D01*
X121019446Y-83571066D01*
X121029299Y-83578374D01*
X121038388Y-83586612D01*
X121046626Y-83595701D01*
X121053934Y-83605554D01*
X121060240Y-83616075D01*
X121065485Y-83627165D01*
X121069618Y-83638714D01*
X121072598Y-83650614D01*
X121074398Y-83662748D01*
X121075000Y-83675000D01*
X121075000Y-83925000D01*
X121074398Y-83937252D01*
X121072598Y-83949386D01*
X121069618Y-83961286D01*
X121065485Y-83972835D01*
X121060240Y-83983925D01*
X121053934Y-83994446D01*
X121046626Y-84004299D01*
X121038388Y-84013388D01*
X121029299Y-84021626D01*
X121019446Y-84028934D01*
X121008925Y-84035240D01*
X120997835Y-84040485D01*
X120986286Y-84044618D01*
X120974386Y-84047598D01*
X120962252Y-84049398D01*
X120950000Y-84050000D01*
X119700000Y-84050000D01*
X119687748Y-84049398D01*
X119675614Y-84047598D01*
X119663714Y-84044618D01*
X119652165Y-84040485D01*
X119641075Y-84035240D01*
X119630554Y-84028934D01*
X119620701Y-84021626D01*
X119611612Y-84013388D01*
X119603374Y-84004299D01*
X119596066Y-83994446D01*
X119589760Y-83983925D01*
X119584515Y-83972835D01*
X119580382Y-83961286D01*
X119577402Y-83949386D01*
X119575602Y-83937252D01*
X119575000Y-83925000D01*
X119575000Y-83675000D01*
X119575602Y-83662748D01*
X119577402Y-83650614D01*
X119580382Y-83638714D01*
X119584515Y-83627165D01*
X119589760Y-83616075D01*
X119596066Y-83605554D01*
X119603374Y-83595701D01*
X119611612Y-83586612D01*
X119620701Y-83578374D01*
X119630554Y-83571066D01*
X119641075Y-83564760D01*
X119652165Y-83559515D01*
X119663714Y-83555382D01*
X119675614Y-83552402D01*
X119687748Y-83550602D01*
X119700000Y-83550000D01*
X120950000Y-83550000D01*
X120962252Y-83550602D01*
X120962252Y-83550602D01*
G37*
D11*
X120325000Y-83800000D03*
D10*
G36*
X120962252Y-82750602D02*
G01*
X120974386Y-82752402D01*
X120986286Y-82755382D01*
X120997835Y-82759515D01*
X121008925Y-82764760D01*
X121019446Y-82771066D01*
X121029299Y-82778374D01*
X121038388Y-82786612D01*
X121046626Y-82795701D01*
X121053934Y-82805554D01*
X121060240Y-82816075D01*
X121065485Y-82827165D01*
X121069618Y-82838714D01*
X121072598Y-82850614D01*
X121074398Y-82862748D01*
X121075000Y-82875000D01*
X121075000Y-83125000D01*
X121074398Y-83137252D01*
X121072598Y-83149386D01*
X121069618Y-83161286D01*
X121065485Y-83172835D01*
X121060240Y-83183925D01*
X121053934Y-83194446D01*
X121046626Y-83204299D01*
X121038388Y-83213388D01*
X121029299Y-83221626D01*
X121019446Y-83228934D01*
X121008925Y-83235240D01*
X120997835Y-83240485D01*
X120986286Y-83244618D01*
X120974386Y-83247598D01*
X120962252Y-83249398D01*
X120950000Y-83250000D01*
X119700000Y-83250000D01*
X119687748Y-83249398D01*
X119675614Y-83247598D01*
X119663714Y-83244618D01*
X119652165Y-83240485D01*
X119641075Y-83235240D01*
X119630554Y-83228934D01*
X119620701Y-83221626D01*
X119611612Y-83213388D01*
X119603374Y-83204299D01*
X119596066Y-83194446D01*
X119589760Y-83183925D01*
X119584515Y-83172835D01*
X119580382Y-83161286D01*
X119577402Y-83149386D01*
X119575602Y-83137252D01*
X119575000Y-83125000D01*
X119575000Y-82875000D01*
X119575602Y-82862748D01*
X119577402Y-82850614D01*
X119580382Y-82838714D01*
X119584515Y-82827165D01*
X119589760Y-82816075D01*
X119596066Y-82805554D01*
X119603374Y-82795701D01*
X119611612Y-82786612D01*
X119620701Y-82778374D01*
X119630554Y-82771066D01*
X119641075Y-82764760D01*
X119652165Y-82759515D01*
X119663714Y-82755382D01*
X119675614Y-82752402D01*
X119687748Y-82750602D01*
X119700000Y-82750000D01*
X120950000Y-82750000D01*
X120962252Y-82750602D01*
X120962252Y-82750602D01*
G37*
D11*
X120325000Y-83000000D03*
D10*
G36*
X120962252Y-81950602D02*
G01*
X120974386Y-81952402D01*
X120986286Y-81955382D01*
X120997835Y-81959515D01*
X121008925Y-81964760D01*
X121019446Y-81971066D01*
X121029299Y-81978374D01*
X121038388Y-81986612D01*
X121046626Y-81995701D01*
X121053934Y-82005554D01*
X121060240Y-82016075D01*
X121065485Y-82027165D01*
X121069618Y-82038714D01*
X121072598Y-82050614D01*
X121074398Y-82062748D01*
X121075000Y-82075000D01*
X121075000Y-82325000D01*
X121074398Y-82337252D01*
X121072598Y-82349386D01*
X121069618Y-82361286D01*
X121065485Y-82372835D01*
X121060240Y-82383925D01*
X121053934Y-82394446D01*
X121046626Y-82404299D01*
X121038388Y-82413388D01*
X121029299Y-82421626D01*
X121019446Y-82428934D01*
X121008925Y-82435240D01*
X120997835Y-82440485D01*
X120986286Y-82444618D01*
X120974386Y-82447598D01*
X120962252Y-82449398D01*
X120950000Y-82450000D01*
X119700000Y-82450000D01*
X119687748Y-82449398D01*
X119675614Y-82447598D01*
X119663714Y-82444618D01*
X119652165Y-82440485D01*
X119641075Y-82435240D01*
X119630554Y-82428934D01*
X119620701Y-82421626D01*
X119611612Y-82413388D01*
X119603374Y-82404299D01*
X119596066Y-82394446D01*
X119589760Y-82383925D01*
X119584515Y-82372835D01*
X119580382Y-82361286D01*
X119577402Y-82349386D01*
X119575602Y-82337252D01*
X119575000Y-82325000D01*
X119575000Y-82075000D01*
X119575602Y-82062748D01*
X119577402Y-82050614D01*
X119580382Y-82038714D01*
X119584515Y-82027165D01*
X119589760Y-82016075D01*
X119596066Y-82005554D01*
X119603374Y-81995701D01*
X119611612Y-81986612D01*
X119620701Y-81978374D01*
X119630554Y-81971066D01*
X119641075Y-81964760D01*
X119652165Y-81959515D01*
X119663714Y-81955382D01*
X119675614Y-81952402D01*
X119687748Y-81950602D01*
X119700000Y-81950000D01*
X120950000Y-81950000D01*
X120962252Y-81950602D01*
X120962252Y-81950602D01*
G37*
D11*
X120325000Y-82200000D03*
D10*
G36*
X120962252Y-81150602D02*
G01*
X120974386Y-81152402D01*
X120986286Y-81155382D01*
X120997835Y-81159515D01*
X121008925Y-81164760D01*
X121019446Y-81171066D01*
X121029299Y-81178374D01*
X121038388Y-81186612D01*
X121046626Y-81195701D01*
X121053934Y-81205554D01*
X121060240Y-81216075D01*
X121065485Y-81227165D01*
X121069618Y-81238714D01*
X121072598Y-81250614D01*
X121074398Y-81262748D01*
X121075000Y-81275000D01*
X121075000Y-81525000D01*
X121074398Y-81537252D01*
X121072598Y-81549386D01*
X121069618Y-81561286D01*
X121065485Y-81572835D01*
X121060240Y-81583925D01*
X121053934Y-81594446D01*
X121046626Y-81604299D01*
X121038388Y-81613388D01*
X121029299Y-81621626D01*
X121019446Y-81628934D01*
X121008925Y-81635240D01*
X120997835Y-81640485D01*
X120986286Y-81644618D01*
X120974386Y-81647598D01*
X120962252Y-81649398D01*
X120950000Y-81650000D01*
X119700000Y-81650000D01*
X119687748Y-81649398D01*
X119675614Y-81647598D01*
X119663714Y-81644618D01*
X119652165Y-81640485D01*
X119641075Y-81635240D01*
X119630554Y-81628934D01*
X119620701Y-81621626D01*
X119611612Y-81613388D01*
X119603374Y-81604299D01*
X119596066Y-81594446D01*
X119589760Y-81583925D01*
X119584515Y-81572835D01*
X119580382Y-81561286D01*
X119577402Y-81549386D01*
X119575602Y-81537252D01*
X119575000Y-81525000D01*
X119575000Y-81275000D01*
X119575602Y-81262748D01*
X119577402Y-81250614D01*
X119580382Y-81238714D01*
X119584515Y-81227165D01*
X119589760Y-81216075D01*
X119596066Y-81205554D01*
X119603374Y-81195701D01*
X119611612Y-81186612D01*
X119620701Y-81178374D01*
X119630554Y-81171066D01*
X119641075Y-81164760D01*
X119652165Y-81159515D01*
X119663714Y-81155382D01*
X119675614Y-81152402D01*
X119687748Y-81150602D01*
X119700000Y-81150000D01*
X120950000Y-81150000D01*
X120962252Y-81150602D01*
X120962252Y-81150602D01*
G37*
D11*
X120325000Y-81400000D03*
D10*
G36*
X120962252Y-80350602D02*
G01*
X120974386Y-80352402D01*
X120986286Y-80355382D01*
X120997835Y-80359515D01*
X121008925Y-80364760D01*
X121019446Y-80371066D01*
X121029299Y-80378374D01*
X121038388Y-80386612D01*
X121046626Y-80395701D01*
X121053934Y-80405554D01*
X121060240Y-80416075D01*
X121065485Y-80427165D01*
X121069618Y-80438714D01*
X121072598Y-80450614D01*
X121074398Y-80462748D01*
X121075000Y-80475000D01*
X121075000Y-80725000D01*
X121074398Y-80737252D01*
X121072598Y-80749386D01*
X121069618Y-80761286D01*
X121065485Y-80772835D01*
X121060240Y-80783925D01*
X121053934Y-80794446D01*
X121046626Y-80804299D01*
X121038388Y-80813388D01*
X121029299Y-80821626D01*
X121019446Y-80828934D01*
X121008925Y-80835240D01*
X120997835Y-80840485D01*
X120986286Y-80844618D01*
X120974386Y-80847598D01*
X120962252Y-80849398D01*
X120950000Y-80850000D01*
X119700000Y-80850000D01*
X119687748Y-80849398D01*
X119675614Y-80847598D01*
X119663714Y-80844618D01*
X119652165Y-80840485D01*
X119641075Y-80835240D01*
X119630554Y-80828934D01*
X119620701Y-80821626D01*
X119611612Y-80813388D01*
X119603374Y-80804299D01*
X119596066Y-80794446D01*
X119589760Y-80783925D01*
X119584515Y-80772835D01*
X119580382Y-80761286D01*
X119577402Y-80749386D01*
X119575602Y-80737252D01*
X119575000Y-80725000D01*
X119575000Y-80475000D01*
X119575602Y-80462748D01*
X119577402Y-80450614D01*
X119580382Y-80438714D01*
X119584515Y-80427165D01*
X119589760Y-80416075D01*
X119596066Y-80405554D01*
X119603374Y-80395701D01*
X119611612Y-80386612D01*
X119620701Y-80378374D01*
X119630554Y-80371066D01*
X119641075Y-80364760D01*
X119652165Y-80359515D01*
X119663714Y-80355382D01*
X119675614Y-80352402D01*
X119687748Y-80350602D01*
X119700000Y-80350000D01*
X120950000Y-80350000D01*
X120962252Y-80350602D01*
X120962252Y-80350602D01*
G37*
D11*
X120325000Y-80600000D03*
D10*
G36*
X120962252Y-79550602D02*
G01*
X120974386Y-79552402D01*
X120986286Y-79555382D01*
X120997835Y-79559515D01*
X121008925Y-79564760D01*
X121019446Y-79571066D01*
X121029299Y-79578374D01*
X121038388Y-79586612D01*
X121046626Y-79595701D01*
X121053934Y-79605554D01*
X121060240Y-79616075D01*
X121065485Y-79627165D01*
X121069618Y-79638714D01*
X121072598Y-79650614D01*
X121074398Y-79662748D01*
X121075000Y-79675000D01*
X121075000Y-79925000D01*
X121074398Y-79937252D01*
X121072598Y-79949386D01*
X121069618Y-79961286D01*
X121065485Y-79972835D01*
X121060240Y-79983925D01*
X121053934Y-79994446D01*
X121046626Y-80004299D01*
X121038388Y-80013388D01*
X121029299Y-80021626D01*
X121019446Y-80028934D01*
X121008925Y-80035240D01*
X120997835Y-80040485D01*
X120986286Y-80044618D01*
X120974386Y-80047598D01*
X120962252Y-80049398D01*
X120950000Y-80050000D01*
X119700000Y-80050000D01*
X119687748Y-80049398D01*
X119675614Y-80047598D01*
X119663714Y-80044618D01*
X119652165Y-80040485D01*
X119641075Y-80035240D01*
X119630554Y-80028934D01*
X119620701Y-80021626D01*
X119611612Y-80013388D01*
X119603374Y-80004299D01*
X119596066Y-79994446D01*
X119589760Y-79983925D01*
X119584515Y-79972835D01*
X119580382Y-79961286D01*
X119577402Y-79949386D01*
X119575602Y-79937252D01*
X119575000Y-79925000D01*
X119575000Y-79675000D01*
X119575602Y-79662748D01*
X119577402Y-79650614D01*
X119580382Y-79638714D01*
X119584515Y-79627165D01*
X119589760Y-79616075D01*
X119596066Y-79605554D01*
X119603374Y-79595701D01*
X119611612Y-79586612D01*
X119620701Y-79578374D01*
X119630554Y-79571066D01*
X119641075Y-79564760D01*
X119652165Y-79559515D01*
X119663714Y-79555382D01*
X119675614Y-79552402D01*
X119687748Y-79550602D01*
X119700000Y-79550000D01*
X120950000Y-79550000D01*
X120962252Y-79550602D01*
X120962252Y-79550602D01*
G37*
D11*
X120325000Y-79800000D03*
D10*
G36*
X120962252Y-78750602D02*
G01*
X120974386Y-78752402D01*
X120986286Y-78755382D01*
X120997835Y-78759515D01*
X121008925Y-78764760D01*
X121019446Y-78771066D01*
X121029299Y-78778374D01*
X121038388Y-78786612D01*
X121046626Y-78795701D01*
X121053934Y-78805554D01*
X121060240Y-78816075D01*
X121065485Y-78827165D01*
X121069618Y-78838714D01*
X121072598Y-78850614D01*
X121074398Y-78862748D01*
X121075000Y-78875000D01*
X121075000Y-79125000D01*
X121074398Y-79137252D01*
X121072598Y-79149386D01*
X121069618Y-79161286D01*
X121065485Y-79172835D01*
X121060240Y-79183925D01*
X121053934Y-79194446D01*
X121046626Y-79204299D01*
X121038388Y-79213388D01*
X121029299Y-79221626D01*
X121019446Y-79228934D01*
X121008925Y-79235240D01*
X120997835Y-79240485D01*
X120986286Y-79244618D01*
X120974386Y-79247598D01*
X120962252Y-79249398D01*
X120950000Y-79250000D01*
X119700000Y-79250000D01*
X119687748Y-79249398D01*
X119675614Y-79247598D01*
X119663714Y-79244618D01*
X119652165Y-79240485D01*
X119641075Y-79235240D01*
X119630554Y-79228934D01*
X119620701Y-79221626D01*
X119611612Y-79213388D01*
X119603374Y-79204299D01*
X119596066Y-79194446D01*
X119589760Y-79183925D01*
X119584515Y-79172835D01*
X119580382Y-79161286D01*
X119577402Y-79149386D01*
X119575602Y-79137252D01*
X119575000Y-79125000D01*
X119575000Y-78875000D01*
X119575602Y-78862748D01*
X119577402Y-78850614D01*
X119580382Y-78838714D01*
X119584515Y-78827165D01*
X119589760Y-78816075D01*
X119596066Y-78805554D01*
X119603374Y-78795701D01*
X119611612Y-78786612D01*
X119620701Y-78778374D01*
X119630554Y-78771066D01*
X119641075Y-78764760D01*
X119652165Y-78759515D01*
X119663714Y-78755382D01*
X119675614Y-78752402D01*
X119687748Y-78750602D01*
X119700000Y-78750000D01*
X120950000Y-78750000D01*
X120962252Y-78750602D01*
X120962252Y-78750602D01*
G37*
D11*
X120325000Y-79000000D03*
D10*
G36*
X120962252Y-77950602D02*
G01*
X120974386Y-77952402D01*
X120986286Y-77955382D01*
X120997835Y-77959515D01*
X121008925Y-77964760D01*
X121019446Y-77971066D01*
X121029299Y-77978374D01*
X121038388Y-77986612D01*
X121046626Y-77995701D01*
X121053934Y-78005554D01*
X121060240Y-78016075D01*
X121065485Y-78027165D01*
X121069618Y-78038714D01*
X121072598Y-78050614D01*
X121074398Y-78062748D01*
X121075000Y-78075000D01*
X121075000Y-78325000D01*
X121074398Y-78337252D01*
X121072598Y-78349386D01*
X121069618Y-78361286D01*
X121065485Y-78372835D01*
X121060240Y-78383925D01*
X121053934Y-78394446D01*
X121046626Y-78404299D01*
X121038388Y-78413388D01*
X121029299Y-78421626D01*
X121019446Y-78428934D01*
X121008925Y-78435240D01*
X120997835Y-78440485D01*
X120986286Y-78444618D01*
X120974386Y-78447598D01*
X120962252Y-78449398D01*
X120950000Y-78450000D01*
X119700000Y-78450000D01*
X119687748Y-78449398D01*
X119675614Y-78447598D01*
X119663714Y-78444618D01*
X119652165Y-78440485D01*
X119641075Y-78435240D01*
X119630554Y-78428934D01*
X119620701Y-78421626D01*
X119611612Y-78413388D01*
X119603374Y-78404299D01*
X119596066Y-78394446D01*
X119589760Y-78383925D01*
X119584515Y-78372835D01*
X119580382Y-78361286D01*
X119577402Y-78349386D01*
X119575602Y-78337252D01*
X119575000Y-78325000D01*
X119575000Y-78075000D01*
X119575602Y-78062748D01*
X119577402Y-78050614D01*
X119580382Y-78038714D01*
X119584515Y-78027165D01*
X119589760Y-78016075D01*
X119596066Y-78005554D01*
X119603374Y-77995701D01*
X119611612Y-77986612D01*
X119620701Y-77978374D01*
X119630554Y-77971066D01*
X119641075Y-77964760D01*
X119652165Y-77959515D01*
X119663714Y-77955382D01*
X119675614Y-77952402D01*
X119687748Y-77950602D01*
X119700000Y-77950000D01*
X120950000Y-77950000D01*
X120962252Y-77950602D01*
X120962252Y-77950602D01*
G37*
D11*
X120325000Y-78200000D03*
D10*
G36*
X107649504Y-103288704D02*
G01*
X107673773Y-103292304D01*
X107697571Y-103298265D01*
X107720671Y-103306530D01*
X107742849Y-103317020D01*
X107763893Y-103329633D01*
X107783598Y-103344247D01*
X107801777Y-103360723D01*
X107818253Y-103378902D01*
X107832867Y-103398607D01*
X107845480Y-103419651D01*
X107855970Y-103441829D01*
X107864235Y-103464929D01*
X107870196Y-103488727D01*
X107873796Y-103512996D01*
X107875000Y-103537500D01*
X107875000Y-104462500D01*
X107873796Y-104487004D01*
X107870196Y-104511273D01*
X107864235Y-104535071D01*
X107855970Y-104558171D01*
X107845480Y-104580349D01*
X107832867Y-104601393D01*
X107818253Y-104621098D01*
X107801777Y-104639277D01*
X107783598Y-104655753D01*
X107763893Y-104670367D01*
X107742849Y-104682980D01*
X107720671Y-104693470D01*
X107697571Y-104701735D01*
X107673773Y-104707696D01*
X107649504Y-104711296D01*
X107625000Y-104712500D01*
X106375000Y-104712500D01*
X106350496Y-104711296D01*
X106326227Y-104707696D01*
X106302429Y-104701735D01*
X106279329Y-104693470D01*
X106257151Y-104682980D01*
X106236107Y-104670367D01*
X106216402Y-104655753D01*
X106198223Y-104639277D01*
X106181747Y-104621098D01*
X106167133Y-104601393D01*
X106154520Y-104580349D01*
X106144030Y-104558171D01*
X106135765Y-104535071D01*
X106129804Y-104511273D01*
X106126204Y-104487004D01*
X106125000Y-104462500D01*
X106125000Y-103537500D01*
X106126204Y-103512996D01*
X106129804Y-103488727D01*
X106135765Y-103464929D01*
X106144030Y-103441829D01*
X106154520Y-103419651D01*
X106167133Y-103398607D01*
X106181747Y-103378902D01*
X106198223Y-103360723D01*
X106216402Y-103344247D01*
X106236107Y-103329633D01*
X106257151Y-103317020D01*
X106279329Y-103306530D01*
X106302429Y-103298265D01*
X106326227Y-103292304D01*
X106350496Y-103288704D01*
X106375000Y-103287500D01*
X107625000Y-103287500D01*
X107649504Y-103288704D01*
X107649504Y-103288704D01*
G37*
D12*
X107000000Y-104000000D03*
D10*
G36*
X107649504Y-100313704D02*
G01*
X107673773Y-100317304D01*
X107697571Y-100323265D01*
X107720671Y-100331530D01*
X107742849Y-100342020D01*
X107763893Y-100354633D01*
X107783598Y-100369247D01*
X107801777Y-100385723D01*
X107818253Y-100403902D01*
X107832867Y-100423607D01*
X107845480Y-100444651D01*
X107855970Y-100466829D01*
X107864235Y-100489929D01*
X107870196Y-100513727D01*
X107873796Y-100537996D01*
X107875000Y-100562500D01*
X107875000Y-101487500D01*
X107873796Y-101512004D01*
X107870196Y-101536273D01*
X107864235Y-101560071D01*
X107855970Y-101583171D01*
X107845480Y-101605349D01*
X107832867Y-101626393D01*
X107818253Y-101646098D01*
X107801777Y-101664277D01*
X107783598Y-101680753D01*
X107763893Y-101695367D01*
X107742849Y-101707980D01*
X107720671Y-101718470D01*
X107697571Y-101726735D01*
X107673773Y-101732696D01*
X107649504Y-101736296D01*
X107625000Y-101737500D01*
X106375000Y-101737500D01*
X106350496Y-101736296D01*
X106326227Y-101732696D01*
X106302429Y-101726735D01*
X106279329Y-101718470D01*
X106257151Y-101707980D01*
X106236107Y-101695367D01*
X106216402Y-101680753D01*
X106198223Y-101664277D01*
X106181747Y-101646098D01*
X106167133Y-101626393D01*
X106154520Y-101605349D01*
X106144030Y-101583171D01*
X106135765Y-101560071D01*
X106129804Y-101536273D01*
X106126204Y-101512004D01*
X106125000Y-101487500D01*
X106125000Y-100562500D01*
X106126204Y-100537996D01*
X106129804Y-100513727D01*
X106135765Y-100489929D01*
X106144030Y-100466829D01*
X106154520Y-100444651D01*
X106167133Y-100423607D01*
X106181747Y-100403902D01*
X106198223Y-100385723D01*
X106216402Y-100369247D01*
X106236107Y-100354633D01*
X106257151Y-100342020D01*
X106279329Y-100331530D01*
X106302429Y-100323265D01*
X106326227Y-100317304D01*
X106350496Y-100313704D01*
X106375000Y-100312500D01*
X107625000Y-100312500D01*
X107649504Y-100313704D01*
X107649504Y-100313704D01*
G37*
D12*
X107000000Y-101025000D03*
D10*
G36*
X98649504Y-101263704D02*
G01*
X98673773Y-101267304D01*
X98697571Y-101273265D01*
X98720671Y-101281530D01*
X98742849Y-101292020D01*
X98763893Y-101304633D01*
X98783598Y-101319247D01*
X98801777Y-101335723D01*
X98818253Y-101353902D01*
X98832867Y-101373607D01*
X98845480Y-101394651D01*
X98855970Y-101416829D01*
X98864235Y-101439929D01*
X98870196Y-101463727D01*
X98873796Y-101487996D01*
X98875000Y-101512500D01*
X98875000Y-102437500D01*
X98873796Y-102462004D01*
X98870196Y-102486273D01*
X98864235Y-102510071D01*
X98855970Y-102533171D01*
X98845480Y-102555349D01*
X98832867Y-102576393D01*
X98818253Y-102596098D01*
X98801777Y-102614277D01*
X98783598Y-102630753D01*
X98763893Y-102645367D01*
X98742849Y-102657980D01*
X98720671Y-102668470D01*
X98697571Y-102676735D01*
X98673773Y-102682696D01*
X98649504Y-102686296D01*
X98625000Y-102687500D01*
X97375000Y-102687500D01*
X97350496Y-102686296D01*
X97326227Y-102682696D01*
X97302429Y-102676735D01*
X97279329Y-102668470D01*
X97257151Y-102657980D01*
X97236107Y-102645367D01*
X97216402Y-102630753D01*
X97198223Y-102614277D01*
X97181747Y-102596098D01*
X97167133Y-102576393D01*
X97154520Y-102555349D01*
X97144030Y-102533171D01*
X97135765Y-102510071D01*
X97129804Y-102486273D01*
X97126204Y-102462004D01*
X97125000Y-102437500D01*
X97125000Y-101512500D01*
X97126204Y-101487996D01*
X97129804Y-101463727D01*
X97135765Y-101439929D01*
X97144030Y-101416829D01*
X97154520Y-101394651D01*
X97167133Y-101373607D01*
X97181747Y-101353902D01*
X97198223Y-101335723D01*
X97216402Y-101319247D01*
X97236107Y-101304633D01*
X97257151Y-101292020D01*
X97279329Y-101281530D01*
X97302429Y-101273265D01*
X97326227Y-101267304D01*
X97350496Y-101263704D01*
X97375000Y-101262500D01*
X98625000Y-101262500D01*
X98649504Y-101263704D01*
X98649504Y-101263704D01*
G37*
D12*
X98000000Y-101975000D03*
D10*
G36*
X98649504Y-98288704D02*
G01*
X98673773Y-98292304D01*
X98697571Y-98298265D01*
X98720671Y-98306530D01*
X98742849Y-98317020D01*
X98763893Y-98329633D01*
X98783598Y-98344247D01*
X98801777Y-98360723D01*
X98818253Y-98378902D01*
X98832867Y-98398607D01*
X98845480Y-98419651D01*
X98855970Y-98441829D01*
X98864235Y-98464929D01*
X98870196Y-98488727D01*
X98873796Y-98512996D01*
X98875000Y-98537500D01*
X98875000Y-99462500D01*
X98873796Y-99487004D01*
X98870196Y-99511273D01*
X98864235Y-99535071D01*
X98855970Y-99558171D01*
X98845480Y-99580349D01*
X98832867Y-99601393D01*
X98818253Y-99621098D01*
X98801777Y-99639277D01*
X98783598Y-99655753D01*
X98763893Y-99670367D01*
X98742849Y-99682980D01*
X98720671Y-99693470D01*
X98697571Y-99701735D01*
X98673773Y-99707696D01*
X98649504Y-99711296D01*
X98625000Y-99712500D01*
X97375000Y-99712500D01*
X97350496Y-99711296D01*
X97326227Y-99707696D01*
X97302429Y-99701735D01*
X97279329Y-99693470D01*
X97257151Y-99682980D01*
X97236107Y-99670367D01*
X97216402Y-99655753D01*
X97198223Y-99639277D01*
X97181747Y-99621098D01*
X97167133Y-99601393D01*
X97154520Y-99580349D01*
X97144030Y-99558171D01*
X97135765Y-99535071D01*
X97129804Y-99511273D01*
X97126204Y-99487004D01*
X97125000Y-99462500D01*
X97125000Y-98537500D01*
X97126204Y-98512996D01*
X97129804Y-98488727D01*
X97135765Y-98464929D01*
X97144030Y-98441829D01*
X97154520Y-98419651D01*
X97167133Y-98398607D01*
X97181747Y-98378902D01*
X97198223Y-98360723D01*
X97216402Y-98344247D01*
X97236107Y-98329633D01*
X97257151Y-98317020D01*
X97279329Y-98306530D01*
X97302429Y-98298265D01*
X97326227Y-98292304D01*
X97350496Y-98288704D01*
X97375000Y-98287500D01*
X98625000Y-98287500D01*
X98649504Y-98288704D01*
X98649504Y-98288704D01*
G37*
D12*
X98000000Y-99000000D03*
D10*
G36*
X116987004Y-81126204D02*
G01*
X117011273Y-81129804D01*
X117035071Y-81135765D01*
X117058171Y-81144030D01*
X117080349Y-81154520D01*
X117101393Y-81167133D01*
X117121098Y-81181747D01*
X117139277Y-81198223D01*
X117155753Y-81216402D01*
X117170367Y-81236107D01*
X117182980Y-81257151D01*
X117193470Y-81279329D01*
X117201735Y-81302429D01*
X117207696Y-81326227D01*
X117211296Y-81350496D01*
X117212500Y-81375000D01*
X117212500Y-82625000D01*
X117211296Y-82649504D01*
X117207696Y-82673773D01*
X117201735Y-82697571D01*
X117193470Y-82720671D01*
X117182980Y-82742849D01*
X117170367Y-82763893D01*
X117155753Y-82783598D01*
X117139277Y-82801777D01*
X117121098Y-82818253D01*
X117101393Y-82832867D01*
X117080349Y-82845480D01*
X117058171Y-82855970D01*
X117035071Y-82864235D01*
X117011273Y-82870196D01*
X116987004Y-82873796D01*
X116962500Y-82875000D01*
X116037500Y-82875000D01*
X116012996Y-82873796D01*
X115988727Y-82870196D01*
X115964929Y-82864235D01*
X115941829Y-82855970D01*
X115919651Y-82845480D01*
X115898607Y-82832867D01*
X115878902Y-82818253D01*
X115860723Y-82801777D01*
X115844247Y-82783598D01*
X115829633Y-82763893D01*
X115817020Y-82742849D01*
X115806530Y-82720671D01*
X115798265Y-82697571D01*
X115792304Y-82673773D01*
X115788704Y-82649504D01*
X115787500Y-82625000D01*
X115787500Y-81375000D01*
X115788704Y-81350496D01*
X115792304Y-81326227D01*
X115798265Y-81302429D01*
X115806530Y-81279329D01*
X115817020Y-81257151D01*
X115829633Y-81236107D01*
X115844247Y-81216402D01*
X115860723Y-81198223D01*
X115878902Y-81181747D01*
X115898607Y-81167133D01*
X115919651Y-81154520D01*
X115941829Y-81144030D01*
X115964929Y-81135765D01*
X115988727Y-81129804D01*
X116012996Y-81126204D01*
X116037500Y-81125000D01*
X116962500Y-81125000D01*
X116987004Y-81126204D01*
X116987004Y-81126204D01*
G37*
D12*
X116500000Y-82000000D03*
D10*
G36*
X114012004Y-81126204D02*
G01*
X114036273Y-81129804D01*
X114060071Y-81135765D01*
X114083171Y-81144030D01*
X114105349Y-81154520D01*
X114126393Y-81167133D01*
X114146098Y-81181747D01*
X114164277Y-81198223D01*
X114180753Y-81216402D01*
X114195367Y-81236107D01*
X114207980Y-81257151D01*
X114218470Y-81279329D01*
X114226735Y-81302429D01*
X114232696Y-81326227D01*
X114236296Y-81350496D01*
X114237500Y-81375000D01*
X114237500Y-82625000D01*
X114236296Y-82649504D01*
X114232696Y-82673773D01*
X114226735Y-82697571D01*
X114218470Y-82720671D01*
X114207980Y-82742849D01*
X114195367Y-82763893D01*
X114180753Y-82783598D01*
X114164277Y-82801777D01*
X114146098Y-82818253D01*
X114126393Y-82832867D01*
X114105349Y-82845480D01*
X114083171Y-82855970D01*
X114060071Y-82864235D01*
X114036273Y-82870196D01*
X114012004Y-82873796D01*
X113987500Y-82875000D01*
X113062500Y-82875000D01*
X113037996Y-82873796D01*
X113013727Y-82870196D01*
X112989929Y-82864235D01*
X112966829Y-82855970D01*
X112944651Y-82845480D01*
X112923607Y-82832867D01*
X112903902Y-82818253D01*
X112885723Y-82801777D01*
X112869247Y-82783598D01*
X112854633Y-82763893D01*
X112842020Y-82742849D01*
X112831530Y-82720671D01*
X112823265Y-82697571D01*
X112817304Y-82673773D01*
X112813704Y-82649504D01*
X112812500Y-82625000D01*
X112812500Y-81375000D01*
X112813704Y-81350496D01*
X112817304Y-81326227D01*
X112823265Y-81302429D01*
X112831530Y-81279329D01*
X112842020Y-81257151D01*
X112854633Y-81236107D01*
X112869247Y-81216402D01*
X112885723Y-81198223D01*
X112903902Y-81181747D01*
X112923607Y-81167133D01*
X112944651Y-81154520D01*
X112966829Y-81144030D01*
X112989929Y-81135765D01*
X113013727Y-81129804D01*
X113037996Y-81126204D01*
X113062500Y-81125000D01*
X113987500Y-81125000D01*
X114012004Y-81126204D01*
X114012004Y-81126204D01*
G37*
D12*
X113525000Y-82000000D03*
D10*
G36*
X114012004Y-77126204D02*
G01*
X114036273Y-77129804D01*
X114060071Y-77135765D01*
X114083171Y-77144030D01*
X114105349Y-77154520D01*
X114126393Y-77167133D01*
X114146098Y-77181747D01*
X114164277Y-77198223D01*
X114180753Y-77216402D01*
X114195367Y-77236107D01*
X114207980Y-77257151D01*
X114218470Y-77279329D01*
X114226735Y-77302429D01*
X114232696Y-77326227D01*
X114236296Y-77350496D01*
X114237500Y-77375000D01*
X114237500Y-78625000D01*
X114236296Y-78649504D01*
X114232696Y-78673773D01*
X114226735Y-78697571D01*
X114218470Y-78720671D01*
X114207980Y-78742849D01*
X114195367Y-78763893D01*
X114180753Y-78783598D01*
X114164277Y-78801777D01*
X114146098Y-78818253D01*
X114126393Y-78832867D01*
X114105349Y-78845480D01*
X114083171Y-78855970D01*
X114060071Y-78864235D01*
X114036273Y-78870196D01*
X114012004Y-78873796D01*
X113987500Y-78875000D01*
X113062500Y-78875000D01*
X113037996Y-78873796D01*
X113013727Y-78870196D01*
X112989929Y-78864235D01*
X112966829Y-78855970D01*
X112944651Y-78845480D01*
X112923607Y-78832867D01*
X112903902Y-78818253D01*
X112885723Y-78801777D01*
X112869247Y-78783598D01*
X112854633Y-78763893D01*
X112842020Y-78742849D01*
X112831530Y-78720671D01*
X112823265Y-78697571D01*
X112817304Y-78673773D01*
X112813704Y-78649504D01*
X112812500Y-78625000D01*
X112812500Y-77375000D01*
X112813704Y-77350496D01*
X112817304Y-77326227D01*
X112823265Y-77302429D01*
X112831530Y-77279329D01*
X112842020Y-77257151D01*
X112854633Y-77236107D01*
X112869247Y-77216402D01*
X112885723Y-77198223D01*
X112903902Y-77181747D01*
X112923607Y-77167133D01*
X112944651Y-77154520D01*
X112966829Y-77144030D01*
X112989929Y-77135765D01*
X113013727Y-77129804D01*
X113037996Y-77126204D01*
X113062500Y-77125000D01*
X113987500Y-77125000D01*
X114012004Y-77126204D01*
X114012004Y-77126204D01*
G37*
D12*
X113525000Y-78000000D03*
D10*
G36*
X116987004Y-77126204D02*
G01*
X117011273Y-77129804D01*
X117035071Y-77135765D01*
X117058171Y-77144030D01*
X117080349Y-77154520D01*
X117101393Y-77167133D01*
X117121098Y-77181747D01*
X117139277Y-77198223D01*
X117155753Y-77216402D01*
X117170367Y-77236107D01*
X117182980Y-77257151D01*
X117193470Y-77279329D01*
X117201735Y-77302429D01*
X117207696Y-77326227D01*
X117211296Y-77350496D01*
X117212500Y-77375000D01*
X117212500Y-78625000D01*
X117211296Y-78649504D01*
X117207696Y-78673773D01*
X117201735Y-78697571D01*
X117193470Y-78720671D01*
X117182980Y-78742849D01*
X117170367Y-78763893D01*
X117155753Y-78783598D01*
X117139277Y-78801777D01*
X117121098Y-78818253D01*
X117101393Y-78832867D01*
X117080349Y-78845480D01*
X117058171Y-78855970D01*
X117035071Y-78864235D01*
X117011273Y-78870196D01*
X116987004Y-78873796D01*
X116962500Y-78875000D01*
X116037500Y-78875000D01*
X116012996Y-78873796D01*
X115988727Y-78870196D01*
X115964929Y-78864235D01*
X115941829Y-78855970D01*
X115919651Y-78845480D01*
X115898607Y-78832867D01*
X115878902Y-78818253D01*
X115860723Y-78801777D01*
X115844247Y-78783598D01*
X115829633Y-78763893D01*
X115817020Y-78742849D01*
X115806530Y-78720671D01*
X115798265Y-78697571D01*
X115792304Y-78673773D01*
X115788704Y-78649504D01*
X115787500Y-78625000D01*
X115787500Y-77375000D01*
X115788704Y-77350496D01*
X115792304Y-77326227D01*
X115798265Y-77302429D01*
X115806530Y-77279329D01*
X115817020Y-77257151D01*
X115829633Y-77236107D01*
X115844247Y-77216402D01*
X115860723Y-77198223D01*
X115878902Y-77181747D01*
X115898607Y-77167133D01*
X115919651Y-77154520D01*
X115941829Y-77144030D01*
X115964929Y-77135765D01*
X115988727Y-77129804D01*
X116012996Y-77126204D01*
X116037500Y-77125000D01*
X116962500Y-77125000D01*
X116987004Y-77126204D01*
X116987004Y-77126204D01*
G37*
D12*
X116500000Y-78000000D03*
D10*
G36*
X130649504Y-86288704D02*
G01*
X130673773Y-86292304D01*
X130697571Y-86298265D01*
X130720671Y-86306530D01*
X130742849Y-86317020D01*
X130763893Y-86329633D01*
X130783598Y-86344247D01*
X130801777Y-86360723D01*
X130818253Y-86378902D01*
X130832867Y-86398607D01*
X130845480Y-86419651D01*
X130855970Y-86441829D01*
X130864235Y-86464929D01*
X130870196Y-86488727D01*
X130873796Y-86512996D01*
X130875000Y-86537500D01*
X130875000Y-87462500D01*
X130873796Y-87487004D01*
X130870196Y-87511273D01*
X130864235Y-87535071D01*
X130855970Y-87558171D01*
X130845480Y-87580349D01*
X130832867Y-87601393D01*
X130818253Y-87621098D01*
X130801777Y-87639277D01*
X130783598Y-87655753D01*
X130763893Y-87670367D01*
X130742849Y-87682980D01*
X130720671Y-87693470D01*
X130697571Y-87701735D01*
X130673773Y-87707696D01*
X130649504Y-87711296D01*
X130625000Y-87712500D01*
X129375000Y-87712500D01*
X129350496Y-87711296D01*
X129326227Y-87707696D01*
X129302429Y-87701735D01*
X129279329Y-87693470D01*
X129257151Y-87682980D01*
X129236107Y-87670367D01*
X129216402Y-87655753D01*
X129198223Y-87639277D01*
X129181747Y-87621098D01*
X129167133Y-87601393D01*
X129154520Y-87580349D01*
X129144030Y-87558171D01*
X129135765Y-87535071D01*
X129129804Y-87511273D01*
X129126204Y-87487004D01*
X129125000Y-87462500D01*
X129125000Y-86537500D01*
X129126204Y-86512996D01*
X129129804Y-86488727D01*
X129135765Y-86464929D01*
X129144030Y-86441829D01*
X129154520Y-86419651D01*
X129167133Y-86398607D01*
X129181747Y-86378902D01*
X129198223Y-86360723D01*
X129216402Y-86344247D01*
X129236107Y-86329633D01*
X129257151Y-86317020D01*
X129279329Y-86306530D01*
X129302429Y-86298265D01*
X129326227Y-86292304D01*
X129350496Y-86288704D01*
X129375000Y-86287500D01*
X130625000Y-86287500D01*
X130649504Y-86288704D01*
X130649504Y-86288704D01*
G37*
D12*
X130000000Y-87000000D03*
D10*
G36*
X130649504Y-89263704D02*
G01*
X130673773Y-89267304D01*
X130697571Y-89273265D01*
X130720671Y-89281530D01*
X130742849Y-89292020D01*
X130763893Y-89304633D01*
X130783598Y-89319247D01*
X130801777Y-89335723D01*
X130818253Y-89353902D01*
X130832867Y-89373607D01*
X130845480Y-89394651D01*
X130855970Y-89416829D01*
X130864235Y-89439929D01*
X130870196Y-89463727D01*
X130873796Y-89487996D01*
X130875000Y-89512500D01*
X130875000Y-90437500D01*
X130873796Y-90462004D01*
X130870196Y-90486273D01*
X130864235Y-90510071D01*
X130855970Y-90533171D01*
X130845480Y-90555349D01*
X130832867Y-90576393D01*
X130818253Y-90596098D01*
X130801777Y-90614277D01*
X130783598Y-90630753D01*
X130763893Y-90645367D01*
X130742849Y-90657980D01*
X130720671Y-90668470D01*
X130697571Y-90676735D01*
X130673773Y-90682696D01*
X130649504Y-90686296D01*
X130625000Y-90687500D01*
X129375000Y-90687500D01*
X129350496Y-90686296D01*
X129326227Y-90682696D01*
X129302429Y-90676735D01*
X129279329Y-90668470D01*
X129257151Y-90657980D01*
X129236107Y-90645367D01*
X129216402Y-90630753D01*
X129198223Y-90614277D01*
X129181747Y-90596098D01*
X129167133Y-90576393D01*
X129154520Y-90555349D01*
X129144030Y-90533171D01*
X129135765Y-90510071D01*
X129129804Y-90486273D01*
X129126204Y-90462004D01*
X129125000Y-90437500D01*
X129125000Y-89512500D01*
X129126204Y-89487996D01*
X129129804Y-89463727D01*
X129135765Y-89439929D01*
X129144030Y-89416829D01*
X129154520Y-89394651D01*
X129167133Y-89373607D01*
X129181747Y-89353902D01*
X129198223Y-89335723D01*
X129216402Y-89319247D01*
X129236107Y-89304633D01*
X129257151Y-89292020D01*
X129279329Y-89281530D01*
X129302429Y-89273265D01*
X129326227Y-89267304D01*
X129350496Y-89263704D01*
X129375000Y-89262500D01*
X130625000Y-89262500D01*
X130649504Y-89263704D01*
X130649504Y-89263704D01*
G37*
D12*
X130000000Y-89975000D03*
D10*
G36*
X125149504Y-98788704D02*
G01*
X125173773Y-98792304D01*
X125197571Y-98798265D01*
X125220671Y-98806530D01*
X125242849Y-98817020D01*
X125263893Y-98829633D01*
X125283598Y-98844247D01*
X125301777Y-98860723D01*
X125318253Y-98878902D01*
X125332867Y-98898607D01*
X125345480Y-98919651D01*
X125355970Y-98941829D01*
X125364235Y-98964929D01*
X125370196Y-98988727D01*
X125373796Y-99012996D01*
X125375000Y-99037500D01*
X125375000Y-99962500D01*
X125373796Y-99987004D01*
X125370196Y-100011273D01*
X125364235Y-100035071D01*
X125355970Y-100058171D01*
X125345480Y-100080349D01*
X125332867Y-100101393D01*
X125318253Y-100121098D01*
X125301777Y-100139277D01*
X125283598Y-100155753D01*
X125263893Y-100170367D01*
X125242849Y-100182980D01*
X125220671Y-100193470D01*
X125197571Y-100201735D01*
X125173773Y-100207696D01*
X125149504Y-100211296D01*
X125125000Y-100212500D01*
X123875000Y-100212500D01*
X123850496Y-100211296D01*
X123826227Y-100207696D01*
X123802429Y-100201735D01*
X123779329Y-100193470D01*
X123757151Y-100182980D01*
X123736107Y-100170367D01*
X123716402Y-100155753D01*
X123698223Y-100139277D01*
X123681747Y-100121098D01*
X123667133Y-100101393D01*
X123654520Y-100080349D01*
X123644030Y-100058171D01*
X123635765Y-100035071D01*
X123629804Y-100011273D01*
X123626204Y-99987004D01*
X123625000Y-99962500D01*
X123625000Y-99037500D01*
X123626204Y-99012996D01*
X123629804Y-98988727D01*
X123635765Y-98964929D01*
X123644030Y-98941829D01*
X123654520Y-98919651D01*
X123667133Y-98898607D01*
X123681747Y-98878902D01*
X123698223Y-98860723D01*
X123716402Y-98844247D01*
X123736107Y-98829633D01*
X123757151Y-98817020D01*
X123779329Y-98806530D01*
X123802429Y-98798265D01*
X123826227Y-98792304D01*
X123850496Y-98788704D01*
X123875000Y-98787500D01*
X125125000Y-98787500D01*
X125149504Y-98788704D01*
X125149504Y-98788704D01*
G37*
D12*
X124500000Y-99500000D03*
D10*
G36*
X125149504Y-95813704D02*
G01*
X125173773Y-95817304D01*
X125197571Y-95823265D01*
X125220671Y-95831530D01*
X125242849Y-95842020D01*
X125263893Y-95854633D01*
X125283598Y-95869247D01*
X125301777Y-95885723D01*
X125318253Y-95903902D01*
X125332867Y-95923607D01*
X125345480Y-95944651D01*
X125355970Y-95966829D01*
X125364235Y-95989929D01*
X125370196Y-96013727D01*
X125373796Y-96037996D01*
X125375000Y-96062500D01*
X125375000Y-96987500D01*
X125373796Y-97012004D01*
X125370196Y-97036273D01*
X125364235Y-97060071D01*
X125355970Y-97083171D01*
X125345480Y-97105349D01*
X125332867Y-97126393D01*
X125318253Y-97146098D01*
X125301777Y-97164277D01*
X125283598Y-97180753D01*
X125263893Y-97195367D01*
X125242849Y-97207980D01*
X125220671Y-97218470D01*
X125197571Y-97226735D01*
X125173773Y-97232696D01*
X125149504Y-97236296D01*
X125125000Y-97237500D01*
X123875000Y-97237500D01*
X123850496Y-97236296D01*
X123826227Y-97232696D01*
X123802429Y-97226735D01*
X123779329Y-97218470D01*
X123757151Y-97207980D01*
X123736107Y-97195367D01*
X123716402Y-97180753D01*
X123698223Y-97164277D01*
X123681747Y-97146098D01*
X123667133Y-97126393D01*
X123654520Y-97105349D01*
X123644030Y-97083171D01*
X123635765Y-97060071D01*
X123629804Y-97036273D01*
X123626204Y-97012004D01*
X123625000Y-96987500D01*
X123625000Y-96062500D01*
X123626204Y-96037996D01*
X123629804Y-96013727D01*
X123635765Y-95989929D01*
X123644030Y-95966829D01*
X123654520Y-95944651D01*
X123667133Y-95923607D01*
X123681747Y-95903902D01*
X123698223Y-95885723D01*
X123716402Y-95869247D01*
X123736107Y-95854633D01*
X123757151Y-95842020D01*
X123779329Y-95831530D01*
X123802429Y-95823265D01*
X123826227Y-95817304D01*
X123850496Y-95813704D01*
X123875000Y-95812500D01*
X125125000Y-95812500D01*
X125149504Y-95813704D01*
X125149504Y-95813704D01*
G37*
D12*
X124500000Y-96525000D03*
D10*
G36*
X130149504Y-63288704D02*
G01*
X130173773Y-63292304D01*
X130197571Y-63298265D01*
X130220671Y-63306530D01*
X130242849Y-63317020D01*
X130263893Y-63329633D01*
X130283598Y-63344247D01*
X130301777Y-63360723D01*
X130318253Y-63378902D01*
X130332867Y-63398607D01*
X130345480Y-63419651D01*
X130355970Y-63441829D01*
X130364235Y-63464929D01*
X130370196Y-63488727D01*
X130373796Y-63512996D01*
X130375000Y-63537500D01*
X130375000Y-64462500D01*
X130373796Y-64487004D01*
X130370196Y-64511273D01*
X130364235Y-64535071D01*
X130355970Y-64558171D01*
X130345480Y-64580349D01*
X130332867Y-64601393D01*
X130318253Y-64621098D01*
X130301777Y-64639277D01*
X130283598Y-64655753D01*
X130263893Y-64670367D01*
X130242849Y-64682980D01*
X130220671Y-64693470D01*
X130197571Y-64701735D01*
X130173773Y-64707696D01*
X130149504Y-64711296D01*
X130125000Y-64712500D01*
X128875000Y-64712500D01*
X128850496Y-64711296D01*
X128826227Y-64707696D01*
X128802429Y-64701735D01*
X128779329Y-64693470D01*
X128757151Y-64682980D01*
X128736107Y-64670367D01*
X128716402Y-64655753D01*
X128698223Y-64639277D01*
X128681747Y-64621098D01*
X128667133Y-64601393D01*
X128654520Y-64580349D01*
X128644030Y-64558171D01*
X128635765Y-64535071D01*
X128629804Y-64511273D01*
X128626204Y-64487004D01*
X128625000Y-64462500D01*
X128625000Y-63537500D01*
X128626204Y-63512996D01*
X128629804Y-63488727D01*
X128635765Y-63464929D01*
X128644030Y-63441829D01*
X128654520Y-63419651D01*
X128667133Y-63398607D01*
X128681747Y-63378902D01*
X128698223Y-63360723D01*
X128716402Y-63344247D01*
X128736107Y-63329633D01*
X128757151Y-63317020D01*
X128779329Y-63306530D01*
X128802429Y-63298265D01*
X128826227Y-63292304D01*
X128850496Y-63288704D01*
X128875000Y-63287500D01*
X130125000Y-63287500D01*
X130149504Y-63288704D01*
X130149504Y-63288704D01*
G37*
D12*
X129500000Y-64000000D03*
D10*
G36*
X130149504Y-66263704D02*
G01*
X130173773Y-66267304D01*
X130197571Y-66273265D01*
X130220671Y-66281530D01*
X130242849Y-66292020D01*
X130263893Y-66304633D01*
X130283598Y-66319247D01*
X130301777Y-66335723D01*
X130318253Y-66353902D01*
X130332867Y-66373607D01*
X130345480Y-66394651D01*
X130355970Y-66416829D01*
X130364235Y-66439929D01*
X130370196Y-66463727D01*
X130373796Y-66487996D01*
X130375000Y-66512500D01*
X130375000Y-67437500D01*
X130373796Y-67462004D01*
X130370196Y-67486273D01*
X130364235Y-67510071D01*
X130355970Y-67533171D01*
X130345480Y-67555349D01*
X130332867Y-67576393D01*
X130318253Y-67596098D01*
X130301777Y-67614277D01*
X130283598Y-67630753D01*
X130263893Y-67645367D01*
X130242849Y-67657980D01*
X130220671Y-67668470D01*
X130197571Y-67676735D01*
X130173773Y-67682696D01*
X130149504Y-67686296D01*
X130125000Y-67687500D01*
X128875000Y-67687500D01*
X128850496Y-67686296D01*
X128826227Y-67682696D01*
X128802429Y-67676735D01*
X128779329Y-67668470D01*
X128757151Y-67657980D01*
X128736107Y-67645367D01*
X128716402Y-67630753D01*
X128698223Y-67614277D01*
X128681747Y-67596098D01*
X128667133Y-67576393D01*
X128654520Y-67555349D01*
X128644030Y-67533171D01*
X128635765Y-67510071D01*
X128629804Y-67486273D01*
X128626204Y-67462004D01*
X128625000Y-67437500D01*
X128625000Y-66512500D01*
X128626204Y-66487996D01*
X128629804Y-66463727D01*
X128635765Y-66439929D01*
X128644030Y-66416829D01*
X128654520Y-66394651D01*
X128667133Y-66373607D01*
X128681747Y-66353902D01*
X128698223Y-66335723D01*
X128716402Y-66319247D01*
X128736107Y-66304633D01*
X128757151Y-66292020D01*
X128779329Y-66281530D01*
X128802429Y-66273265D01*
X128826227Y-66267304D01*
X128850496Y-66263704D01*
X128875000Y-66262500D01*
X130125000Y-66262500D01*
X130149504Y-66263704D01*
X130149504Y-66263704D01*
G37*
D12*
X129500000Y-66975000D03*
D13*
X137000000Y-97100000D03*
X137000000Y-99000000D03*
X139000000Y-98050000D03*
D10*
G36*
X118974504Y-95626204D02*
G01*
X118998773Y-95629804D01*
X119022571Y-95635765D01*
X119045671Y-95644030D01*
X119067849Y-95654520D01*
X119088893Y-95667133D01*
X119108598Y-95681747D01*
X119126777Y-95698223D01*
X119143253Y-95716402D01*
X119157867Y-95736107D01*
X119170480Y-95757151D01*
X119180970Y-95779329D01*
X119189235Y-95802429D01*
X119195196Y-95826227D01*
X119198796Y-95850496D01*
X119200000Y-95875000D01*
X119200000Y-97125000D01*
X119198796Y-97149504D01*
X119195196Y-97173773D01*
X119189235Y-97197571D01*
X119180970Y-97220671D01*
X119170480Y-97242849D01*
X119157867Y-97263893D01*
X119143253Y-97283598D01*
X119126777Y-97301777D01*
X119108598Y-97318253D01*
X119088893Y-97332867D01*
X119067849Y-97345480D01*
X119045671Y-97355970D01*
X119022571Y-97364235D01*
X118998773Y-97370196D01*
X118974504Y-97373796D01*
X118950000Y-97375000D01*
X118025000Y-97375000D01*
X118000496Y-97373796D01*
X117976227Y-97370196D01*
X117952429Y-97364235D01*
X117929329Y-97355970D01*
X117907151Y-97345480D01*
X117886107Y-97332867D01*
X117866402Y-97318253D01*
X117848223Y-97301777D01*
X117831747Y-97283598D01*
X117817133Y-97263893D01*
X117804520Y-97242849D01*
X117794030Y-97220671D01*
X117785765Y-97197571D01*
X117779804Y-97173773D01*
X117776204Y-97149504D01*
X117775000Y-97125000D01*
X117775000Y-95875000D01*
X117776204Y-95850496D01*
X117779804Y-95826227D01*
X117785765Y-95802429D01*
X117794030Y-95779329D01*
X117804520Y-95757151D01*
X117817133Y-95736107D01*
X117831747Y-95716402D01*
X117848223Y-95698223D01*
X117866402Y-95681747D01*
X117886107Y-95667133D01*
X117907151Y-95654520D01*
X117929329Y-95644030D01*
X117952429Y-95635765D01*
X117976227Y-95629804D01*
X118000496Y-95626204D01*
X118025000Y-95625000D01*
X118950000Y-95625000D01*
X118974504Y-95626204D01*
X118974504Y-95626204D01*
G37*
D12*
X118487500Y-96500000D03*
D10*
G36*
X115999504Y-95626204D02*
G01*
X116023773Y-95629804D01*
X116047571Y-95635765D01*
X116070671Y-95644030D01*
X116092849Y-95654520D01*
X116113893Y-95667133D01*
X116133598Y-95681747D01*
X116151777Y-95698223D01*
X116168253Y-95716402D01*
X116182867Y-95736107D01*
X116195480Y-95757151D01*
X116205970Y-95779329D01*
X116214235Y-95802429D01*
X116220196Y-95826227D01*
X116223796Y-95850496D01*
X116225000Y-95875000D01*
X116225000Y-97125000D01*
X116223796Y-97149504D01*
X116220196Y-97173773D01*
X116214235Y-97197571D01*
X116205970Y-97220671D01*
X116195480Y-97242849D01*
X116182867Y-97263893D01*
X116168253Y-97283598D01*
X116151777Y-97301777D01*
X116133598Y-97318253D01*
X116113893Y-97332867D01*
X116092849Y-97345480D01*
X116070671Y-97355970D01*
X116047571Y-97364235D01*
X116023773Y-97370196D01*
X115999504Y-97373796D01*
X115975000Y-97375000D01*
X115050000Y-97375000D01*
X115025496Y-97373796D01*
X115001227Y-97370196D01*
X114977429Y-97364235D01*
X114954329Y-97355970D01*
X114932151Y-97345480D01*
X114911107Y-97332867D01*
X114891402Y-97318253D01*
X114873223Y-97301777D01*
X114856747Y-97283598D01*
X114842133Y-97263893D01*
X114829520Y-97242849D01*
X114819030Y-97220671D01*
X114810765Y-97197571D01*
X114804804Y-97173773D01*
X114801204Y-97149504D01*
X114800000Y-97125000D01*
X114800000Y-95875000D01*
X114801204Y-95850496D01*
X114804804Y-95826227D01*
X114810765Y-95802429D01*
X114819030Y-95779329D01*
X114829520Y-95757151D01*
X114842133Y-95736107D01*
X114856747Y-95716402D01*
X114873223Y-95698223D01*
X114891402Y-95681747D01*
X114911107Y-95667133D01*
X114932151Y-95654520D01*
X114954329Y-95644030D01*
X114977429Y-95635765D01*
X115001227Y-95629804D01*
X115025496Y-95626204D01*
X115050000Y-95625000D01*
X115975000Y-95625000D01*
X115999504Y-95626204D01*
X115999504Y-95626204D01*
G37*
D12*
X115512500Y-96500000D03*
D10*
G36*
X115999504Y-99626204D02*
G01*
X116023773Y-99629804D01*
X116047571Y-99635765D01*
X116070671Y-99644030D01*
X116092849Y-99654520D01*
X116113893Y-99667133D01*
X116133598Y-99681747D01*
X116151777Y-99698223D01*
X116168253Y-99716402D01*
X116182867Y-99736107D01*
X116195480Y-99757151D01*
X116205970Y-99779329D01*
X116214235Y-99802429D01*
X116220196Y-99826227D01*
X116223796Y-99850496D01*
X116225000Y-99875000D01*
X116225000Y-101125000D01*
X116223796Y-101149504D01*
X116220196Y-101173773D01*
X116214235Y-101197571D01*
X116205970Y-101220671D01*
X116195480Y-101242849D01*
X116182867Y-101263893D01*
X116168253Y-101283598D01*
X116151777Y-101301777D01*
X116133598Y-101318253D01*
X116113893Y-101332867D01*
X116092849Y-101345480D01*
X116070671Y-101355970D01*
X116047571Y-101364235D01*
X116023773Y-101370196D01*
X115999504Y-101373796D01*
X115975000Y-101375000D01*
X115050000Y-101375000D01*
X115025496Y-101373796D01*
X115001227Y-101370196D01*
X114977429Y-101364235D01*
X114954329Y-101355970D01*
X114932151Y-101345480D01*
X114911107Y-101332867D01*
X114891402Y-101318253D01*
X114873223Y-101301777D01*
X114856747Y-101283598D01*
X114842133Y-101263893D01*
X114829520Y-101242849D01*
X114819030Y-101220671D01*
X114810765Y-101197571D01*
X114804804Y-101173773D01*
X114801204Y-101149504D01*
X114800000Y-101125000D01*
X114800000Y-99875000D01*
X114801204Y-99850496D01*
X114804804Y-99826227D01*
X114810765Y-99802429D01*
X114819030Y-99779329D01*
X114829520Y-99757151D01*
X114842133Y-99736107D01*
X114856747Y-99716402D01*
X114873223Y-99698223D01*
X114891402Y-99681747D01*
X114911107Y-99667133D01*
X114932151Y-99654520D01*
X114954329Y-99644030D01*
X114977429Y-99635765D01*
X115001227Y-99629804D01*
X115025496Y-99626204D01*
X115050000Y-99625000D01*
X115975000Y-99625000D01*
X115999504Y-99626204D01*
X115999504Y-99626204D01*
G37*
D12*
X115512500Y-100500000D03*
D10*
G36*
X118974504Y-99626204D02*
G01*
X118998773Y-99629804D01*
X119022571Y-99635765D01*
X119045671Y-99644030D01*
X119067849Y-99654520D01*
X119088893Y-99667133D01*
X119108598Y-99681747D01*
X119126777Y-99698223D01*
X119143253Y-99716402D01*
X119157867Y-99736107D01*
X119170480Y-99757151D01*
X119180970Y-99779329D01*
X119189235Y-99802429D01*
X119195196Y-99826227D01*
X119198796Y-99850496D01*
X119200000Y-99875000D01*
X119200000Y-101125000D01*
X119198796Y-101149504D01*
X119195196Y-101173773D01*
X119189235Y-101197571D01*
X119180970Y-101220671D01*
X119170480Y-101242849D01*
X119157867Y-101263893D01*
X119143253Y-101283598D01*
X119126777Y-101301777D01*
X119108598Y-101318253D01*
X119088893Y-101332867D01*
X119067849Y-101345480D01*
X119045671Y-101355970D01*
X119022571Y-101364235D01*
X118998773Y-101370196D01*
X118974504Y-101373796D01*
X118950000Y-101375000D01*
X118025000Y-101375000D01*
X118000496Y-101373796D01*
X117976227Y-101370196D01*
X117952429Y-101364235D01*
X117929329Y-101355970D01*
X117907151Y-101345480D01*
X117886107Y-101332867D01*
X117866402Y-101318253D01*
X117848223Y-101301777D01*
X117831747Y-101283598D01*
X117817133Y-101263893D01*
X117804520Y-101242849D01*
X117794030Y-101220671D01*
X117785765Y-101197571D01*
X117779804Y-101173773D01*
X117776204Y-101149504D01*
X117775000Y-101125000D01*
X117775000Y-99875000D01*
X117776204Y-99850496D01*
X117779804Y-99826227D01*
X117785765Y-99802429D01*
X117794030Y-99779329D01*
X117804520Y-99757151D01*
X117817133Y-99736107D01*
X117831747Y-99716402D01*
X117848223Y-99698223D01*
X117866402Y-99681747D01*
X117886107Y-99667133D01*
X117907151Y-99654520D01*
X117929329Y-99644030D01*
X117952429Y-99635765D01*
X117976227Y-99629804D01*
X118000496Y-99626204D01*
X118025000Y-99625000D01*
X118950000Y-99625000D01*
X118974504Y-99626204D01*
X118974504Y-99626204D01*
G37*
D12*
X118487500Y-100500000D03*
D10*
G36*
X123149504Y-69288704D02*
G01*
X123173773Y-69292304D01*
X123197571Y-69298265D01*
X123220671Y-69306530D01*
X123242849Y-69317020D01*
X123263893Y-69329633D01*
X123283598Y-69344247D01*
X123301777Y-69360723D01*
X123318253Y-69378902D01*
X123332867Y-69398607D01*
X123345480Y-69419651D01*
X123355970Y-69441829D01*
X123364235Y-69464929D01*
X123370196Y-69488727D01*
X123373796Y-69512996D01*
X123375000Y-69537500D01*
X123375000Y-70462500D01*
X123373796Y-70487004D01*
X123370196Y-70511273D01*
X123364235Y-70535071D01*
X123355970Y-70558171D01*
X123345480Y-70580349D01*
X123332867Y-70601393D01*
X123318253Y-70621098D01*
X123301777Y-70639277D01*
X123283598Y-70655753D01*
X123263893Y-70670367D01*
X123242849Y-70682980D01*
X123220671Y-70693470D01*
X123197571Y-70701735D01*
X123173773Y-70707696D01*
X123149504Y-70711296D01*
X123125000Y-70712500D01*
X121875000Y-70712500D01*
X121850496Y-70711296D01*
X121826227Y-70707696D01*
X121802429Y-70701735D01*
X121779329Y-70693470D01*
X121757151Y-70682980D01*
X121736107Y-70670367D01*
X121716402Y-70655753D01*
X121698223Y-70639277D01*
X121681747Y-70621098D01*
X121667133Y-70601393D01*
X121654520Y-70580349D01*
X121644030Y-70558171D01*
X121635765Y-70535071D01*
X121629804Y-70511273D01*
X121626204Y-70487004D01*
X121625000Y-70462500D01*
X121625000Y-69537500D01*
X121626204Y-69512996D01*
X121629804Y-69488727D01*
X121635765Y-69464929D01*
X121644030Y-69441829D01*
X121654520Y-69419651D01*
X121667133Y-69398607D01*
X121681747Y-69378902D01*
X121698223Y-69360723D01*
X121716402Y-69344247D01*
X121736107Y-69329633D01*
X121757151Y-69317020D01*
X121779329Y-69306530D01*
X121802429Y-69298265D01*
X121826227Y-69292304D01*
X121850496Y-69288704D01*
X121875000Y-69287500D01*
X123125000Y-69287500D01*
X123149504Y-69288704D01*
X123149504Y-69288704D01*
G37*
D12*
X122500000Y-70000000D03*
D10*
G36*
X123149504Y-72263704D02*
G01*
X123173773Y-72267304D01*
X123197571Y-72273265D01*
X123220671Y-72281530D01*
X123242849Y-72292020D01*
X123263893Y-72304633D01*
X123283598Y-72319247D01*
X123301777Y-72335723D01*
X123318253Y-72353902D01*
X123332867Y-72373607D01*
X123345480Y-72394651D01*
X123355970Y-72416829D01*
X123364235Y-72439929D01*
X123370196Y-72463727D01*
X123373796Y-72487996D01*
X123375000Y-72512500D01*
X123375000Y-73437500D01*
X123373796Y-73462004D01*
X123370196Y-73486273D01*
X123364235Y-73510071D01*
X123355970Y-73533171D01*
X123345480Y-73555349D01*
X123332867Y-73576393D01*
X123318253Y-73596098D01*
X123301777Y-73614277D01*
X123283598Y-73630753D01*
X123263893Y-73645367D01*
X123242849Y-73657980D01*
X123220671Y-73668470D01*
X123197571Y-73676735D01*
X123173773Y-73682696D01*
X123149504Y-73686296D01*
X123125000Y-73687500D01*
X121875000Y-73687500D01*
X121850496Y-73686296D01*
X121826227Y-73682696D01*
X121802429Y-73676735D01*
X121779329Y-73668470D01*
X121757151Y-73657980D01*
X121736107Y-73645367D01*
X121716402Y-73630753D01*
X121698223Y-73614277D01*
X121681747Y-73596098D01*
X121667133Y-73576393D01*
X121654520Y-73555349D01*
X121644030Y-73533171D01*
X121635765Y-73510071D01*
X121629804Y-73486273D01*
X121626204Y-73462004D01*
X121625000Y-73437500D01*
X121625000Y-72512500D01*
X121626204Y-72487996D01*
X121629804Y-72463727D01*
X121635765Y-72439929D01*
X121644030Y-72416829D01*
X121654520Y-72394651D01*
X121667133Y-72373607D01*
X121681747Y-72353902D01*
X121698223Y-72335723D01*
X121716402Y-72319247D01*
X121736107Y-72304633D01*
X121757151Y-72292020D01*
X121779329Y-72281530D01*
X121802429Y-72273265D01*
X121826227Y-72267304D01*
X121850496Y-72263704D01*
X121875000Y-72262500D01*
X123125000Y-72262500D01*
X123149504Y-72263704D01*
X123149504Y-72263704D01*
G37*
D12*
X122500000Y-72975000D03*
D10*
G36*
X126149504Y-72263704D02*
G01*
X126173773Y-72267304D01*
X126197571Y-72273265D01*
X126220671Y-72281530D01*
X126242849Y-72292020D01*
X126263893Y-72304633D01*
X126283598Y-72319247D01*
X126301777Y-72335723D01*
X126318253Y-72353902D01*
X126332867Y-72373607D01*
X126345480Y-72394651D01*
X126355970Y-72416829D01*
X126364235Y-72439929D01*
X126370196Y-72463727D01*
X126373796Y-72487996D01*
X126375000Y-72512500D01*
X126375000Y-73437500D01*
X126373796Y-73462004D01*
X126370196Y-73486273D01*
X126364235Y-73510071D01*
X126355970Y-73533171D01*
X126345480Y-73555349D01*
X126332867Y-73576393D01*
X126318253Y-73596098D01*
X126301777Y-73614277D01*
X126283598Y-73630753D01*
X126263893Y-73645367D01*
X126242849Y-73657980D01*
X126220671Y-73668470D01*
X126197571Y-73676735D01*
X126173773Y-73682696D01*
X126149504Y-73686296D01*
X126125000Y-73687500D01*
X124875000Y-73687500D01*
X124850496Y-73686296D01*
X124826227Y-73682696D01*
X124802429Y-73676735D01*
X124779329Y-73668470D01*
X124757151Y-73657980D01*
X124736107Y-73645367D01*
X124716402Y-73630753D01*
X124698223Y-73614277D01*
X124681747Y-73596098D01*
X124667133Y-73576393D01*
X124654520Y-73555349D01*
X124644030Y-73533171D01*
X124635765Y-73510071D01*
X124629804Y-73486273D01*
X124626204Y-73462004D01*
X124625000Y-73437500D01*
X124625000Y-72512500D01*
X124626204Y-72487996D01*
X124629804Y-72463727D01*
X124635765Y-72439929D01*
X124644030Y-72416829D01*
X124654520Y-72394651D01*
X124667133Y-72373607D01*
X124681747Y-72353902D01*
X124698223Y-72335723D01*
X124716402Y-72319247D01*
X124736107Y-72304633D01*
X124757151Y-72292020D01*
X124779329Y-72281530D01*
X124802429Y-72273265D01*
X124826227Y-72267304D01*
X124850496Y-72263704D01*
X124875000Y-72262500D01*
X126125000Y-72262500D01*
X126149504Y-72263704D01*
X126149504Y-72263704D01*
G37*
D12*
X125500000Y-72975000D03*
D10*
G36*
X126149504Y-69288704D02*
G01*
X126173773Y-69292304D01*
X126197571Y-69298265D01*
X126220671Y-69306530D01*
X126242849Y-69317020D01*
X126263893Y-69329633D01*
X126283598Y-69344247D01*
X126301777Y-69360723D01*
X126318253Y-69378902D01*
X126332867Y-69398607D01*
X126345480Y-69419651D01*
X126355970Y-69441829D01*
X126364235Y-69464929D01*
X126370196Y-69488727D01*
X126373796Y-69512996D01*
X126375000Y-69537500D01*
X126375000Y-70462500D01*
X126373796Y-70487004D01*
X126370196Y-70511273D01*
X126364235Y-70535071D01*
X126355970Y-70558171D01*
X126345480Y-70580349D01*
X126332867Y-70601393D01*
X126318253Y-70621098D01*
X126301777Y-70639277D01*
X126283598Y-70655753D01*
X126263893Y-70670367D01*
X126242849Y-70682980D01*
X126220671Y-70693470D01*
X126197571Y-70701735D01*
X126173773Y-70707696D01*
X126149504Y-70711296D01*
X126125000Y-70712500D01*
X124875000Y-70712500D01*
X124850496Y-70711296D01*
X124826227Y-70707696D01*
X124802429Y-70701735D01*
X124779329Y-70693470D01*
X124757151Y-70682980D01*
X124736107Y-70670367D01*
X124716402Y-70655753D01*
X124698223Y-70639277D01*
X124681747Y-70621098D01*
X124667133Y-70601393D01*
X124654520Y-70580349D01*
X124644030Y-70558171D01*
X124635765Y-70535071D01*
X124629804Y-70511273D01*
X124626204Y-70487004D01*
X124625000Y-70462500D01*
X124625000Y-69537500D01*
X124626204Y-69512996D01*
X124629804Y-69488727D01*
X124635765Y-69464929D01*
X124644030Y-69441829D01*
X124654520Y-69419651D01*
X124667133Y-69398607D01*
X124681747Y-69378902D01*
X124698223Y-69360723D01*
X124716402Y-69344247D01*
X124736107Y-69329633D01*
X124757151Y-69317020D01*
X124779329Y-69306530D01*
X124802429Y-69298265D01*
X124826227Y-69292304D01*
X124850496Y-69288704D01*
X124875000Y-69287500D01*
X126125000Y-69287500D01*
X126149504Y-69288704D01*
X126149504Y-69288704D01*
G37*
D12*
X125500000Y-70000000D03*
D10*
G36*
X90649504Y-72288704D02*
G01*
X90673773Y-72292304D01*
X90697571Y-72298265D01*
X90720671Y-72306530D01*
X90742849Y-72317020D01*
X90763893Y-72329633D01*
X90783598Y-72344247D01*
X90801777Y-72360723D01*
X90818253Y-72378902D01*
X90832867Y-72398607D01*
X90845480Y-72419651D01*
X90855970Y-72441829D01*
X90864235Y-72464929D01*
X90870196Y-72488727D01*
X90873796Y-72512996D01*
X90875000Y-72537500D01*
X90875000Y-73462500D01*
X90873796Y-73487004D01*
X90870196Y-73511273D01*
X90864235Y-73535071D01*
X90855970Y-73558171D01*
X90845480Y-73580349D01*
X90832867Y-73601393D01*
X90818253Y-73621098D01*
X90801777Y-73639277D01*
X90783598Y-73655753D01*
X90763893Y-73670367D01*
X90742849Y-73682980D01*
X90720671Y-73693470D01*
X90697571Y-73701735D01*
X90673773Y-73707696D01*
X90649504Y-73711296D01*
X90625000Y-73712500D01*
X89375000Y-73712500D01*
X89350496Y-73711296D01*
X89326227Y-73707696D01*
X89302429Y-73701735D01*
X89279329Y-73693470D01*
X89257151Y-73682980D01*
X89236107Y-73670367D01*
X89216402Y-73655753D01*
X89198223Y-73639277D01*
X89181747Y-73621098D01*
X89167133Y-73601393D01*
X89154520Y-73580349D01*
X89144030Y-73558171D01*
X89135765Y-73535071D01*
X89129804Y-73511273D01*
X89126204Y-73487004D01*
X89125000Y-73462500D01*
X89125000Y-72537500D01*
X89126204Y-72512996D01*
X89129804Y-72488727D01*
X89135765Y-72464929D01*
X89144030Y-72441829D01*
X89154520Y-72419651D01*
X89167133Y-72398607D01*
X89181747Y-72378902D01*
X89198223Y-72360723D01*
X89216402Y-72344247D01*
X89236107Y-72329633D01*
X89257151Y-72317020D01*
X89279329Y-72306530D01*
X89302429Y-72298265D01*
X89326227Y-72292304D01*
X89350496Y-72288704D01*
X89375000Y-72287500D01*
X90625000Y-72287500D01*
X90649504Y-72288704D01*
X90649504Y-72288704D01*
G37*
D12*
X90000000Y-73000000D03*
D10*
G36*
X90649504Y-75263704D02*
G01*
X90673773Y-75267304D01*
X90697571Y-75273265D01*
X90720671Y-75281530D01*
X90742849Y-75292020D01*
X90763893Y-75304633D01*
X90783598Y-75319247D01*
X90801777Y-75335723D01*
X90818253Y-75353902D01*
X90832867Y-75373607D01*
X90845480Y-75394651D01*
X90855970Y-75416829D01*
X90864235Y-75439929D01*
X90870196Y-75463727D01*
X90873796Y-75487996D01*
X90875000Y-75512500D01*
X90875000Y-76437500D01*
X90873796Y-76462004D01*
X90870196Y-76486273D01*
X90864235Y-76510071D01*
X90855970Y-76533171D01*
X90845480Y-76555349D01*
X90832867Y-76576393D01*
X90818253Y-76596098D01*
X90801777Y-76614277D01*
X90783598Y-76630753D01*
X90763893Y-76645367D01*
X90742849Y-76657980D01*
X90720671Y-76668470D01*
X90697571Y-76676735D01*
X90673773Y-76682696D01*
X90649504Y-76686296D01*
X90625000Y-76687500D01*
X89375000Y-76687500D01*
X89350496Y-76686296D01*
X89326227Y-76682696D01*
X89302429Y-76676735D01*
X89279329Y-76668470D01*
X89257151Y-76657980D01*
X89236107Y-76645367D01*
X89216402Y-76630753D01*
X89198223Y-76614277D01*
X89181747Y-76596098D01*
X89167133Y-76576393D01*
X89154520Y-76555349D01*
X89144030Y-76533171D01*
X89135765Y-76510071D01*
X89129804Y-76486273D01*
X89126204Y-76462004D01*
X89125000Y-76437500D01*
X89125000Y-75512500D01*
X89126204Y-75487996D01*
X89129804Y-75463727D01*
X89135765Y-75439929D01*
X89144030Y-75416829D01*
X89154520Y-75394651D01*
X89167133Y-75373607D01*
X89181747Y-75353902D01*
X89198223Y-75335723D01*
X89216402Y-75319247D01*
X89236107Y-75304633D01*
X89257151Y-75292020D01*
X89279329Y-75281530D01*
X89302429Y-75273265D01*
X89326227Y-75267304D01*
X89350496Y-75263704D01*
X89375000Y-75262500D01*
X90625000Y-75262500D01*
X90649504Y-75263704D01*
X90649504Y-75263704D01*
G37*
D12*
X90000000Y-75975000D03*
D10*
G36*
X90649504Y-90288704D02*
G01*
X90673773Y-90292304D01*
X90697571Y-90298265D01*
X90720671Y-90306530D01*
X90742849Y-90317020D01*
X90763893Y-90329633D01*
X90783598Y-90344247D01*
X90801777Y-90360723D01*
X90818253Y-90378902D01*
X90832867Y-90398607D01*
X90845480Y-90419651D01*
X90855970Y-90441829D01*
X90864235Y-90464929D01*
X90870196Y-90488727D01*
X90873796Y-90512996D01*
X90875000Y-90537500D01*
X90875000Y-91462500D01*
X90873796Y-91487004D01*
X90870196Y-91511273D01*
X90864235Y-91535071D01*
X90855970Y-91558171D01*
X90845480Y-91580349D01*
X90832867Y-91601393D01*
X90818253Y-91621098D01*
X90801777Y-91639277D01*
X90783598Y-91655753D01*
X90763893Y-91670367D01*
X90742849Y-91682980D01*
X90720671Y-91693470D01*
X90697571Y-91701735D01*
X90673773Y-91707696D01*
X90649504Y-91711296D01*
X90625000Y-91712500D01*
X89375000Y-91712500D01*
X89350496Y-91711296D01*
X89326227Y-91707696D01*
X89302429Y-91701735D01*
X89279329Y-91693470D01*
X89257151Y-91682980D01*
X89236107Y-91670367D01*
X89216402Y-91655753D01*
X89198223Y-91639277D01*
X89181747Y-91621098D01*
X89167133Y-91601393D01*
X89154520Y-91580349D01*
X89144030Y-91558171D01*
X89135765Y-91535071D01*
X89129804Y-91511273D01*
X89126204Y-91487004D01*
X89125000Y-91462500D01*
X89125000Y-90537500D01*
X89126204Y-90512996D01*
X89129804Y-90488727D01*
X89135765Y-90464929D01*
X89144030Y-90441829D01*
X89154520Y-90419651D01*
X89167133Y-90398607D01*
X89181747Y-90378902D01*
X89198223Y-90360723D01*
X89216402Y-90344247D01*
X89236107Y-90329633D01*
X89257151Y-90317020D01*
X89279329Y-90306530D01*
X89302429Y-90298265D01*
X89326227Y-90292304D01*
X89350496Y-90288704D01*
X89375000Y-90287500D01*
X90625000Y-90287500D01*
X90649504Y-90288704D01*
X90649504Y-90288704D01*
G37*
D12*
X90000000Y-91000000D03*
D10*
G36*
X90649504Y-87313704D02*
G01*
X90673773Y-87317304D01*
X90697571Y-87323265D01*
X90720671Y-87331530D01*
X90742849Y-87342020D01*
X90763893Y-87354633D01*
X90783598Y-87369247D01*
X90801777Y-87385723D01*
X90818253Y-87403902D01*
X90832867Y-87423607D01*
X90845480Y-87444651D01*
X90855970Y-87466829D01*
X90864235Y-87489929D01*
X90870196Y-87513727D01*
X90873796Y-87537996D01*
X90875000Y-87562500D01*
X90875000Y-88487500D01*
X90873796Y-88512004D01*
X90870196Y-88536273D01*
X90864235Y-88560071D01*
X90855970Y-88583171D01*
X90845480Y-88605349D01*
X90832867Y-88626393D01*
X90818253Y-88646098D01*
X90801777Y-88664277D01*
X90783598Y-88680753D01*
X90763893Y-88695367D01*
X90742849Y-88707980D01*
X90720671Y-88718470D01*
X90697571Y-88726735D01*
X90673773Y-88732696D01*
X90649504Y-88736296D01*
X90625000Y-88737500D01*
X89375000Y-88737500D01*
X89350496Y-88736296D01*
X89326227Y-88732696D01*
X89302429Y-88726735D01*
X89279329Y-88718470D01*
X89257151Y-88707980D01*
X89236107Y-88695367D01*
X89216402Y-88680753D01*
X89198223Y-88664277D01*
X89181747Y-88646098D01*
X89167133Y-88626393D01*
X89154520Y-88605349D01*
X89144030Y-88583171D01*
X89135765Y-88560071D01*
X89129804Y-88536273D01*
X89126204Y-88512004D01*
X89125000Y-88487500D01*
X89125000Y-87562500D01*
X89126204Y-87537996D01*
X89129804Y-87513727D01*
X89135765Y-87489929D01*
X89144030Y-87466829D01*
X89154520Y-87444651D01*
X89167133Y-87423607D01*
X89181747Y-87403902D01*
X89198223Y-87385723D01*
X89216402Y-87369247D01*
X89236107Y-87354633D01*
X89257151Y-87342020D01*
X89279329Y-87331530D01*
X89302429Y-87323265D01*
X89326227Y-87317304D01*
X89350496Y-87313704D01*
X89375000Y-87312500D01*
X90625000Y-87312500D01*
X90649504Y-87313704D01*
X90649504Y-87313704D01*
G37*
D12*
X90000000Y-88025000D03*
D10*
G36*
X116962004Y-72126204D02*
G01*
X116986273Y-72129804D01*
X117010071Y-72135765D01*
X117033171Y-72144030D01*
X117055349Y-72154520D01*
X117076393Y-72167133D01*
X117096098Y-72181747D01*
X117114277Y-72198223D01*
X117130753Y-72216402D01*
X117145367Y-72236107D01*
X117157980Y-72257151D01*
X117168470Y-72279329D01*
X117176735Y-72302429D01*
X117182696Y-72326227D01*
X117186296Y-72350496D01*
X117187500Y-72375000D01*
X117187500Y-73625000D01*
X117186296Y-73649504D01*
X117182696Y-73673773D01*
X117176735Y-73697571D01*
X117168470Y-73720671D01*
X117157980Y-73742849D01*
X117145367Y-73763893D01*
X117130753Y-73783598D01*
X117114277Y-73801777D01*
X117096098Y-73818253D01*
X117076393Y-73832867D01*
X117055349Y-73845480D01*
X117033171Y-73855970D01*
X117010071Y-73864235D01*
X116986273Y-73870196D01*
X116962004Y-73873796D01*
X116937500Y-73875000D01*
X116012500Y-73875000D01*
X115987996Y-73873796D01*
X115963727Y-73870196D01*
X115939929Y-73864235D01*
X115916829Y-73855970D01*
X115894651Y-73845480D01*
X115873607Y-73832867D01*
X115853902Y-73818253D01*
X115835723Y-73801777D01*
X115819247Y-73783598D01*
X115804633Y-73763893D01*
X115792020Y-73742849D01*
X115781530Y-73720671D01*
X115773265Y-73697571D01*
X115767304Y-73673773D01*
X115763704Y-73649504D01*
X115762500Y-73625000D01*
X115762500Y-72375000D01*
X115763704Y-72350496D01*
X115767304Y-72326227D01*
X115773265Y-72302429D01*
X115781530Y-72279329D01*
X115792020Y-72257151D01*
X115804633Y-72236107D01*
X115819247Y-72216402D01*
X115835723Y-72198223D01*
X115853902Y-72181747D01*
X115873607Y-72167133D01*
X115894651Y-72154520D01*
X115916829Y-72144030D01*
X115939929Y-72135765D01*
X115963727Y-72129804D01*
X115987996Y-72126204D01*
X116012500Y-72125000D01*
X116937500Y-72125000D01*
X116962004Y-72126204D01*
X116962004Y-72126204D01*
G37*
D12*
X116475000Y-73000000D03*
D10*
G36*
X113987004Y-72126204D02*
G01*
X114011273Y-72129804D01*
X114035071Y-72135765D01*
X114058171Y-72144030D01*
X114080349Y-72154520D01*
X114101393Y-72167133D01*
X114121098Y-72181747D01*
X114139277Y-72198223D01*
X114155753Y-72216402D01*
X114170367Y-72236107D01*
X114182980Y-72257151D01*
X114193470Y-72279329D01*
X114201735Y-72302429D01*
X114207696Y-72326227D01*
X114211296Y-72350496D01*
X114212500Y-72375000D01*
X114212500Y-73625000D01*
X114211296Y-73649504D01*
X114207696Y-73673773D01*
X114201735Y-73697571D01*
X114193470Y-73720671D01*
X114182980Y-73742849D01*
X114170367Y-73763893D01*
X114155753Y-73783598D01*
X114139277Y-73801777D01*
X114121098Y-73818253D01*
X114101393Y-73832867D01*
X114080349Y-73845480D01*
X114058171Y-73855970D01*
X114035071Y-73864235D01*
X114011273Y-73870196D01*
X113987004Y-73873796D01*
X113962500Y-73875000D01*
X113037500Y-73875000D01*
X113012996Y-73873796D01*
X112988727Y-73870196D01*
X112964929Y-73864235D01*
X112941829Y-73855970D01*
X112919651Y-73845480D01*
X112898607Y-73832867D01*
X112878902Y-73818253D01*
X112860723Y-73801777D01*
X112844247Y-73783598D01*
X112829633Y-73763893D01*
X112817020Y-73742849D01*
X112806530Y-73720671D01*
X112798265Y-73697571D01*
X112792304Y-73673773D01*
X112788704Y-73649504D01*
X112787500Y-73625000D01*
X112787500Y-72375000D01*
X112788704Y-72350496D01*
X112792304Y-72326227D01*
X112798265Y-72302429D01*
X112806530Y-72279329D01*
X112817020Y-72257151D01*
X112829633Y-72236107D01*
X112844247Y-72216402D01*
X112860723Y-72198223D01*
X112878902Y-72181747D01*
X112898607Y-72167133D01*
X112919651Y-72154520D01*
X112941829Y-72144030D01*
X112964929Y-72135765D01*
X112988727Y-72129804D01*
X113012996Y-72126204D01*
X113037500Y-72125000D01*
X113962500Y-72125000D01*
X113987004Y-72126204D01*
X113987004Y-72126204D01*
G37*
D12*
X113500000Y-73000000D03*
D10*
G36*
X130149504Y-72263704D02*
G01*
X130173773Y-72267304D01*
X130197571Y-72273265D01*
X130220671Y-72281530D01*
X130242849Y-72292020D01*
X130263893Y-72304633D01*
X130283598Y-72319247D01*
X130301777Y-72335723D01*
X130318253Y-72353902D01*
X130332867Y-72373607D01*
X130345480Y-72394651D01*
X130355970Y-72416829D01*
X130364235Y-72439929D01*
X130370196Y-72463727D01*
X130373796Y-72487996D01*
X130375000Y-72512500D01*
X130375000Y-73437500D01*
X130373796Y-73462004D01*
X130370196Y-73486273D01*
X130364235Y-73510071D01*
X130355970Y-73533171D01*
X130345480Y-73555349D01*
X130332867Y-73576393D01*
X130318253Y-73596098D01*
X130301777Y-73614277D01*
X130283598Y-73630753D01*
X130263893Y-73645367D01*
X130242849Y-73657980D01*
X130220671Y-73668470D01*
X130197571Y-73676735D01*
X130173773Y-73682696D01*
X130149504Y-73686296D01*
X130125000Y-73687500D01*
X128875000Y-73687500D01*
X128850496Y-73686296D01*
X128826227Y-73682696D01*
X128802429Y-73676735D01*
X128779329Y-73668470D01*
X128757151Y-73657980D01*
X128736107Y-73645367D01*
X128716402Y-73630753D01*
X128698223Y-73614277D01*
X128681747Y-73596098D01*
X128667133Y-73576393D01*
X128654520Y-73555349D01*
X128644030Y-73533171D01*
X128635765Y-73510071D01*
X128629804Y-73486273D01*
X128626204Y-73462004D01*
X128625000Y-73437500D01*
X128625000Y-72512500D01*
X128626204Y-72487996D01*
X128629804Y-72463727D01*
X128635765Y-72439929D01*
X128644030Y-72416829D01*
X128654520Y-72394651D01*
X128667133Y-72373607D01*
X128681747Y-72353902D01*
X128698223Y-72335723D01*
X128716402Y-72319247D01*
X128736107Y-72304633D01*
X128757151Y-72292020D01*
X128779329Y-72281530D01*
X128802429Y-72273265D01*
X128826227Y-72267304D01*
X128850496Y-72263704D01*
X128875000Y-72262500D01*
X130125000Y-72262500D01*
X130149504Y-72263704D01*
X130149504Y-72263704D01*
G37*
D12*
X129500000Y-72975000D03*
D10*
G36*
X130149504Y-69288704D02*
G01*
X130173773Y-69292304D01*
X130197571Y-69298265D01*
X130220671Y-69306530D01*
X130242849Y-69317020D01*
X130263893Y-69329633D01*
X130283598Y-69344247D01*
X130301777Y-69360723D01*
X130318253Y-69378902D01*
X130332867Y-69398607D01*
X130345480Y-69419651D01*
X130355970Y-69441829D01*
X130364235Y-69464929D01*
X130370196Y-69488727D01*
X130373796Y-69512996D01*
X130375000Y-69537500D01*
X130375000Y-70462500D01*
X130373796Y-70487004D01*
X130370196Y-70511273D01*
X130364235Y-70535071D01*
X130355970Y-70558171D01*
X130345480Y-70580349D01*
X130332867Y-70601393D01*
X130318253Y-70621098D01*
X130301777Y-70639277D01*
X130283598Y-70655753D01*
X130263893Y-70670367D01*
X130242849Y-70682980D01*
X130220671Y-70693470D01*
X130197571Y-70701735D01*
X130173773Y-70707696D01*
X130149504Y-70711296D01*
X130125000Y-70712500D01*
X128875000Y-70712500D01*
X128850496Y-70711296D01*
X128826227Y-70707696D01*
X128802429Y-70701735D01*
X128779329Y-70693470D01*
X128757151Y-70682980D01*
X128736107Y-70670367D01*
X128716402Y-70655753D01*
X128698223Y-70639277D01*
X128681747Y-70621098D01*
X128667133Y-70601393D01*
X128654520Y-70580349D01*
X128644030Y-70558171D01*
X128635765Y-70535071D01*
X128629804Y-70511273D01*
X128626204Y-70487004D01*
X128625000Y-70462500D01*
X128625000Y-69537500D01*
X128626204Y-69512996D01*
X128629804Y-69488727D01*
X128635765Y-69464929D01*
X128644030Y-69441829D01*
X128654520Y-69419651D01*
X128667133Y-69398607D01*
X128681747Y-69378902D01*
X128698223Y-69360723D01*
X128716402Y-69344247D01*
X128736107Y-69329633D01*
X128757151Y-69317020D01*
X128779329Y-69306530D01*
X128802429Y-69298265D01*
X128826227Y-69292304D01*
X128850496Y-69288704D01*
X128875000Y-69287500D01*
X130125000Y-69287500D01*
X130149504Y-69288704D01*
X130149504Y-69288704D01*
G37*
D12*
X129500000Y-70000000D03*
D10*
G36*
X133462004Y-92126204D02*
G01*
X133486273Y-92129804D01*
X133510071Y-92135765D01*
X133533171Y-92144030D01*
X133555349Y-92154520D01*
X133576393Y-92167133D01*
X133596098Y-92181747D01*
X133614277Y-92198223D01*
X133630753Y-92216402D01*
X133645367Y-92236107D01*
X133657980Y-92257151D01*
X133668470Y-92279329D01*
X133676735Y-92302429D01*
X133682696Y-92326227D01*
X133686296Y-92350496D01*
X133687500Y-92375000D01*
X133687500Y-93625000D01*
X133686296Y-93649504D01*
X133682696Y-93673773D01*
X133676735Y-93697571D01*
X133668470Y-93720671D01*
X133657980Y-93742849D01*
X133645367Y-93763893D01*
X133630753Y-93783598D01*
X133614277Y-93801777D01*
X133596098Y-93818253D01*
X133576393Y-93832867D01*
X133555349Y-93845480D01*
X133533171Y-93855970D01*
X133510071Y-93864235D01*
X133486273Y-93870196D01*
X133462004Y-93873796D01*
X133437500Y-93875000D01*
X132512500Y-93875000D01*
X132487996Y-93873796D01*
X132463727Y-93870196D01*
X132439929Y-93864235D01*
X132416829Y-93855970D01*
X132394651Y-93845480D01*
X132373607Y-93832867D01*
X132353902Y-93818253D01*
X132335723Y-93801777D01*
X132319247Y-93783598D01*
X132304633Y-93763893D01*
X132292020Y-93742849D01*
X132281530Y-93720671D01*
X132273265Y-93697571D01*
X132267304Y-93673773D01*
X132263704Y-93649504D01*
X132262500Y-93625000D01*
X132262500Y-92375000D01*
X132263704Y-92350496D01*
X132267304Y-92326227D01*
X132273265Y-92302429D01*
X132281530Y-92279329D01*
X132292020Y-92257151D01*
X132304633Y-92236107D01*
X132319247Y-92216402D01*
X132335723Y-92198223D01*
X132353902Y-92181747D01*
X132373607Y-92167133D01*
X132394651Y-92154520D01*
X132416829Y-92144030D01*
X132439929Y-92135765D01*
X132463727Y-92129804D01*
X132487996Y-92126204D01*
X132512500Y-92125000D01*
X133437500Y-92125000D01*
X133462004Y-92126204D01*
X133462004Y-92126204D01*
G37*
D12*
X132975000Y-93000000D03*
D10*
G36*
X130487004Y-92126204D02*
G01*
X130511273Y-92129804D01*
X130535071Y-92135765D01*
X130558171Y-92144030D01*
X130580349Y-92154520D01*
X130601393Y-92167133D01*
X130621098Y-92181747D01*
X130639277Y-92198223D01*
X130655753Y-92216402D01*
X130670367Y-92236107D01*
X130682980Y-92257151D01*
X130693470Y-92279329D01*
X130701735Y-92302429D01*
X130707696Y-92326227D01*
X130711296Y-92350496D01*
X130712500Y-92375000D01*
X130712500Y-93625000D01*
X130711296Y-93649504D01*
X130707696Y-93673773D01*
X130701735Y-93697571D01*
X130693470Y-93720671D01*
X130682980Y-93742849D01*
X130670367Y-93763893D01*
X130655753Y-93783598D01*
X130639277Y-93801777D01*
X130621098Y-93818253D01*
X130601393Y-93832867D01*
X130580349Y-93845480D01*
X130558171Y-93855970D01*
X130535071Y-93864235D01*
X130511273Y-93870196D01*
X130487004Y-93873796D01*
X130462500Y-93875000D01*
X129537500Y-93875000D01*
X129512996Y-93873796D01*
X129488727Y-93870196D01*
X129464929Y-93864235D01*
X129441829Y-93855970D01*
X129419651Y-93845480D01*
X129398607Y-93832867D01*
X129378902Y-93818253D01*
X129360723Y-93801777D01*
X129344247Y-93783598D01*
X129329633Y-93763893D01*
X129317020Y-93742849D01*
X129306530Y-93720671D01*
X129298265Y-93697571D01*
X129292304Y-93673773D01*
X129288704Y-93649504D01*
X129287500Y-93625000D01*
X129287500Y-92375000D01*
X129288704Y-92350496D01*
X129292304Y-92326227D01*
X129298265Y-92302429D01*
X129306530Y-92279329D01*
X129317020Y-92257151D01*
X129329633Y-92236107D01*
X129344247Y-92216402D01*
X129360723Y-92198223D01*
X129378902Y-92181747D01*
X129398607Y-92167133D01*
X129419651Y-92154520D01*
X129441829Y-92144030D01*
X129464929Y-92135765D01*
X129488727Y-92129804D01*
X129512996Y-92126204D01*
X129537500Y-92125000D01*
X130462500Y-92125000D01*
X130487004Y-92126204D01*
X130487004Y-92126204D01*
G37*
D12*
X130000000Y-93000000D03*
D10*
G36*
X128512004Y-102126204D02*
G01*
X128536273Y-102129804D01*
X128560071Y-102135765D01*
X128583171Y-102144030D01*
X128605349Y-102154520D01*
X128626393Y-102167133D01*
X128646098Y-102181747D01*
X128664277Y-102198223D01*
X128680753Y-102216402D01*
X128695367Y-102236107D01*
X128707980Y-102257151D01*
X128718470Y-102279329D01*
X128726735Y-102302429D01*
X128732696Y-102326227D01*
X128736296Y-102350496D01*
X128737500Y-102375000D01*
X128737500Y-103625000D01*
X128736296Y-103649504D01*
X128732696Y-103673773D01*
X128726735Y-103697571D01*
X128718470Y-103720671D01*
X128707980Y-103742849D01*
X128695367Y-103763893D01*
X128680753Y-103783598D01*
X128664277Y-103801777D01*
X128646098Y-103818253D01*
X128626393Y-103832867D01*
X128605349Y-103845480D01*
X128583171Y-103855970D01*
X128560071Y-103864235D01*
X128536273Y-103870196D01*
X128512004Y-103873796D01*
X128487500Y-103875000D01*
X127562500Y-103875000D01*
X127537996Y-103873796D01*
X127513727Y-103870196D01*
X127489929Y-103864235D01*
X127466829Y-103855970D01*
X127444651Y-103845480D01*
X127423607Y-103832867D01*
X127403902Y-103818253D01*
X127385723Y-103801777D01*
X127369247Y-103783598D01*
X127354633Y-103763893D01*
X127342020Y-103742849D01*
X127331530Y-103720671D01*
X127323265Y-103697571D01*
X127317304Y-103673773D01*
X127313704Y-103649504D01*
X127312500Y-103625000D01*
X127312500Y-102375000D01*
X127313704Y-102350496D01*
X127317304Y-102326227D01*
X127323265Y-102302429D01*
X127331530Y-102279329D01*
X127342020Y-102257151D01*
X127354633Y-102236107D01*
X127369247Y-102216402D01*
X127385723Y-102198223D01*
X127403902Y-102181747D01*
X127423607Y-102167133D01*
X127444651Y-102154520D01*
X127466829Y-102144030D01*
X127489929Y-102135765D01*
X127513727Y-102129804D01*
X127537996Y-102126204D01*
X127562500Y-102125000D01*
X128487500Y-102125000D01*
X128512004Y-102126204D01*
X128512004Y-102126204D01*
G37*
D12*
X128025000Y-103000000D03*
D10*
G36*
X131487004Y-102126204D02*
G01*
X131511273Y-102129804D01*
X131535071Y-102135765D01*
X131558171Y-102144030D01*
X131580349Y-102154520D01*
X131601393Y-102167133D01*
X131621098Y-102181747D01*
X131639277Y-102198223D01*
X131655753Y-102216402D01*
X131670367Y-102236107D01*
X131682980Y-102257151D01*
X131693470Y-102279329D01*
X131701735Y-102302429D01*
X131707696Y-102326227D01*
X131711296Y-102350496D01*
X131712500Y-102375000D01*
X131712500Y-103625000D01*
X131711296Y-103649504D01*
X131707696Y-103673773D01*
X131701735Y-103697571D01*
X131693470Y-103720671D01*
X131682980Y-103742849D01*
X131670367Y-103763893D01*
X131655753Y-103783598D01*
X131639277Y-103801777D01*
X131621098Y-103818253D01*
X131601393Y-103832867D01*
X131580349Y-103845480D01*
X131558171Y-103855970D01*
X131535071Y-103864235D01*
X131511273Y-103870196D01*
X131487004Y-103873796D01*
X131462500Y-103875000D01*
X130537500Y-103875000D01*
X130512996Y-103873796D01*
X130488727Y-103870196D01*
X130464929Y-103864235D01*
X130441829Y-103855970D01*
X130419651Y-103845480D01*
X130398607Y-103832867D01*
X130378902Y-103818253D01*
X130360723Y-103801777D01*
X130344247Y-103783598D01*
X130329633Y-103763893D01*
X130317020Y-103742849D01*
X130306530Y-103720671D01*
X130298265Y-103697571D01*
X130292304Y-103673773D01*
X130288704Y-103649504D01*
X130287500Y-103625000D01*
X130287500Y-102375000D01*
X130288704Y-102350496D01*
X130292304Y-102326227D01*
X130298265Y-102302429D01*
X130306530Y-102279329D01*
X130317020Y-102257151D01*
X130329633Y-102236107D01*
X130344247Y-102216402D01*
X130360723Y-102198223D01*
X130378902Y-102181747D01*
X130398607Y-102167133D01*
X130419651Y-102154520D01*
X130441829Y-102144030D01*
X130464929Y-102135765D01*
X130488727Y-102129804D01*
X130512996Y-102126204D01*
X130537500Y-102125000D01*
X131462500Y-102125000D01*
X131487004Y-102126204D01*
X131487004Y-102126204D01*
G37*
D12*
X131000000Y-103000000D03*
D10*
G36*
X147462004Y-83126204D02*
G01*
X147486273Y-83129804D01*
X147510071Y-83135765D01*
X147533171Y-83144030D01*
X147555349Y-83154520D01*
X147576393Y-83167133D01*
X147596098Y-83181747D01*
X147614277Y-83198223D01*
X147630753Y-83216402D01*
X147645367Y-83236107D01*
X147657980Y-83257151D01*
X147668470Y-83279329D01*
X147676735Y-83302429D01*
X147682696Y-83326227D01*
X147686296Y-83350496D01*
X147687500Y-83375000D01*
X147687500Y-84625000D01*
X147686296Y-84649504D01*
X147682696Y-84673773D01*
X147676735Y-84697571D01*
X147668470Y-84720671D01*
X147657980Y-84742849D01*
X147645367Y-84763893D01*
X147630753Y-84783598D01*
X147614277Y-84801777D01*
X147596098Y-84818253D01*
X147576393Y-84832867D01*
X147555349Y-84845480D01*
X147533171Y-84855970D01*
X147510071Y-84864235D01*
X147486273Y-84870196D01*
X147462004Y-84873796D01*
X147437500Y-84875000D01*
X146512500Y-84875000D01*
X146487996Y-84873796D01*
X146463727Y-84870196D01*
X146439929Y-84864235D01*
X146416829Y-84855970D01*
X146394651Y-84845480D01*
X146373607Y-84832867D01*
X146353902Y-84818253D01*
X146335723Y-84801777D01*
X146319247Y-84783598D01*
X146304633Y-84763893D01*
X146292020Y-84742849D01*
X146281530Y-84720671D01*
X146273265Y-84697571D01*
X146267304Y-84673773D01*
X146263704Y-84649504D01*
X146262500Y-84625000D01*
X146262500Y-83375000D01*
X146263704Y-83350496D01*
X146267304Y-83326227D01*
X146273265Y-83302429D01*
X146281530Y-83279329D01*
X146292020Y-83257151D01*
X146304633Y-83236107D01*
X146319247Y-83216402D01*
X146335723Y-83198223D01*
X146353902Y-83181747D01*
X146373607Y-83167133D01*
X146394651Y-83154520D01*
X146416829Y-83144030D01*
X146439929Y-83135765D01*
X146463727Y-83129804D01*
X146487996Y-83126204D01*
X146512500Y-83125000D01*
X147437500Y-83125000D01*
X147462004Y-83126204D01*
X147462004Y-83126204D01*
G37*
D12*
X146975000Y-84000000D03*
D10*
G36*
X144487004Y-83126204D02*
G01*
X144511273Y-83129804D01*
X144535071Y-83135765D01*
X144558171Y-83144030D01*
X144580349Y-83154520D01*
X144601393Y-83167133D01*
X144621098Y-83181747D01*
X144639277Y-83198223D01*
X144655753Y-83216402D01*
X144670367Y-83236107D01*
X144682980Y-83257151D01*
X144693470Y-83279329D01*
X144701735Y-83302429D01*
X144707696Y-83326227D01*
X144711296Y-83350496D01*
X144712500Y-83375000D01*
X144712500Y-84625000D01*
X144711296Y-84649504D01*
X144707696Y-84673773D01*
X144701735Y-84697571D01*
X144693470Y-84720671D01*
X144682980Y-84742849D01*
X144670367Y-84763893D01*
X144655753Y-84783598D01*
X144639277Y-84801777D01*
X144621098Y-84818253D01*
X144601393Y-84832867D01*
X144580349Y-84845480D01*
X144558171Y-84855970D01*
X144535071Y-84864235D01*
X144511273Y-84870196D01*
X144487004Y-84873796D01*
X144462500Y-84875000D01*
X143537500Y-84875000D01*
X143512996Y-84873796D01*
X143488727Y-84870196D01*
X143464929Y-84864235D01*
X143441829Y-84855970D01*
X143419651Y-84845480D01*
X143398607Y-84832867D01*
X143378902Y-84818253D01*
X143360723Y-84801777D01*
X143344247Y-84783598D01*
X143329633Y-84763893D01*
X143317020Y-84742849D01*
X143306530Y-84720671D01*
X143298265Y-84697571D01*
X143292304Y-84673773D01*
X143288704Y-84649504D01*
X143287500Y-84625000D01*
X143287500Y-83375000D01*
X143288704Y-83350496D01*
X143292304Y-83326227D01*
X143298265Y-83302429D01*
X143306530Y-83279329D01*
X143317020Y-83257151D01*
X143329633Y-83236107D01*
X143344247Y-83216402D01*
X143360723Y-83198223D01*
X143378902Y-83181747D01*
X143398607Y-83167133D01*
X143419651Y-83154520D01*
X143441829Y-83144030D01*
X143464929Y-83135765D01*
X143488727Y-83129804D01*
X143512996Y-83126204D01*
X143537500Y-83125000D01*
X144462500Y-83125000D01*
X144487004Y-83126204D01*
X144487004Y-83126204D01*
G37*
D12*
X144000000Y-84000000D03*
D10*
G36*
X129364703Y-95795722D02*
G01*
X129379264Y-95797882D01*
X129393543Y-95801459D01*
X129407403Y-95806418D01*
X129420710Y-95812712D01*
X129433336Y-95820280D01*
X129445159Y-95829048D01*
X129456066Y-95838934D01*
X129465952Y-95849841D01*
X129474720Y-95861664D01*
X129482288Y-95874290D01*
X129488582Y-95887597D01*
X129493541Y-95901457D01*
X129497118Y-95915736D01*
X129499278Y-95930297D01*
X129500000Y-95945000D01*
X129500000Y-96245000D01*
X129499278Y-96259703D01*
X129497118Y-96274264D01*
X129493541Y-96288543D01*
X129488582Y-96302403D01*
X129482288Y-96315710D01*
X129474720Y-96328336D01*
X129465952Y-96340159D01*
X129456066Y-96351066D01*
X129445159Y-96360952D01*
X129433336Y-96369720D01*
X129420710Y-96377288D01*
X129407403Y-96383582D01*
X129393543Y-96388541D01*
X129379264Y-96392118D01*
X129364703Y-96394278D01*
X129350000Y-96395000D01*
X127700000Y-96395000D01*
X127685297Y-96394278D01*
X127670736Y-96392118D01*
X127656457Y-96388541D01*
X127642597Y-96383582D01*
X127629290Y-96377288D01*
X127616664Y-96369720D01*
X127604841Y-96360952D01*
X127593934Y-96351066D01*
X127584048Y-96340159D01*
X127575280Y-96328336D01*
X127567712Y-96315710D01*
X127561418Y-96302403D01*
X127556459Y-96288543D01*
X127552882Y-96274264D01*
X127550722Y-96259703D01*
X127550000Y-96245000D01*
X127550000Y-95945000D01*
X127550722Y-95930297D01*
X127552882Y-95915736D01*
X127556459Y-95901457D01*
X127561418Y-95887597D01*
X127567712Y-95874290D01*
X127575280Y-95861664D01*
X127584048Y-95849841D01*
X127593934Y-95838934D01*
X127604841Y-95829048D01*
X127616664Y-95820280D01*
X127629290Y-95812712D01*
X127642597Y-95806418D01*
X127656457Y-95801459D01*
X127670736Y-95797882D01*
X127685297Y-95795722D01*
X127700000Y-95795000D01*
X129350000Y-95795000D01*
X129364703Y-95795722D01*
X129364703Y-95795722D01*
G37*
D14*
X128525000Y-96095000D03*
D10*
G36*
X129364703Y-97065722D02*
G01*
X129379264Y-97067882D01*
X129393543Y-97071459D01*
X129407403Y-97076418D01*
X129420710Y-97082712D01*
X129433336Y-97090280D01*
X129445159Y-97099048D01*
X129456066Y-97108934D01*
X129465952Y-97119841D01*
X129474720Y-97131664D01*
X129482288Y-97144290D01*
X129488582Y-97157597D01*
X129493541Y-97171457D01*
X129497118Y-97185736D01*
X129499278Y-97200297D01*
X129500000Y-97215000D01*
X129500000Y-97515000D01*
X129499278Y-97529703D01*
X129497118Y-97544264D01*
X129493541Y-97558543D01*
X129488582Y-97572403D01*
X129482288Y-97585710D01*
X129474720Y-97598336D01*
X129465952Y-97610159D01*
X129456066Y-97621066D01*
X129445159Y-97630952D01*
X129433336Y-97639720D01*
X129420710Y-97647288D01*
X129407403Y-97653582D01*
X129393543Y-97658541D01*
X129379264Y-97662118D01*
X129364703Y-97664278D01*
X129350000Y-97665000D01*
X127700000Y-97665000D01*
X127685297Y-97664278D01*
X127670736Y-97662118D01*
X127656457Y-97658541D01*
X127642597Y-97653582D01*
X127629290Y-97647288D01*
X127616664Y-97639720D01*
X127604841Y-97630952D01*
X127593934Y-97621066D01*
X127584048Y-97610159D01*
X127575280Y-97598336D01*
X127567712Y-97585710D01*
X127561418Y-97572403D01*
X127556459Y-97558543D01*
X127552882Y-97544264D01*
X127550722Y-97529703D01*
X127550000Y-97515000D01*
X127550000Y-97215000D01*
X127550722Y-97200297D01*
X127552882Y-97185736D01*
X127556459Y-97171457D01*
X127561418Y-97157597D01*
X127567712Y-97144290D01*
X127575280Y-97131664D01*
X127584048Y-97119841D01*
X127593934Y-97108934D01*
X127604841Y-97099048D01*
X127616664Y-97090280D01*
X127629290Y-97082712D01*
X127642597Y-97076418D01*
X127656457Y-97071459D01*
X127670736Y-97067882D01*
X127685297Y-97065722D01*
X127700000Y-97065000D01*
X129350000Y-97065000D01*
X129364703Y-97065722D01*
X129364703Y-97065722D01*
G37*
D14*
X128525000Y-97365000D03*
D10*
G36*
X129364703Y-98335722D02*
G01*
X129379264Y-98337882D01*
X129393543Y-98341459D01*
X129407403Y-98346418D01*
X129420710Y-98352712D01*
X129433336Y-98360280D01*
X129445159Y-98369048D01*
X129456066Y-98378934D01*
X129465952Y-98389841D01*
X129474720Y-98401664D01*
X129482288Y-98414290D01*
X129488582Y-98427597D01*
X129493541Y-98441457D01*
X129497118Y-98455736D01*
X129499278Y-98470297D01*
X129500000Y-98485000D01*
X129500000Y-98785000D01*
X129499278Y-98799703D01*
X129497118Y-98814264D01*
X129493541Y-98828543D01*
X129488582Y-98842403D01*
X129482288Y-98855710D01*
X129474720Y-98868336D01*
X129465952Y-98880159D01*
X129456066Y-98891066D01*
X129445159Y-98900952D01*
X129433336Y-98909720D01*
X129420710Y-98917288D01*
X129407403Y-98923582D01*
X129393543Y-98928541D01*
X129379264Y-98932118D01*
X129364703Y-98934278D01*
X129350000Y-98935000D01*
X127700000Y-98935000D01*
X127685297Y-98934278D01*
X127670736Y-98932118D01*
X127656457Y-98928541D01*
X127642597Y-98923582D01*
X127629290Y-98917288D01*
X127616664Y-98909720D01*
X127604841Y-98900952D01*
X127593934Y-98891066D01*
X127584048Y-98880159D01*
X127575280Y-98868336D01*
X127567712Y-98855710D01*
X127561418Y-98842403D01*
X127556459Y-98828543D01*
X127552882Y-98814264D01*
X127550722Y-98799703D01*
X127550000Y-98785000D01*
X127550000Y-98485000D01*
X127550722Y-98470297D01*
X127552882Y-98455736D01*
X127556459Y-98441457D01*
X127561418Y-98427597D01*
X127567712Y-98414290D01*
X127575280Y-98401664D01*
X127584048Y-98389841D01*
X127593934Y-98378934D01*
X127604841Y-98369048D01*
X127616664Y-98360280D01*
X127629290Y-98352712D01*
X127642597Y-98346418D01*
X127656457Y-98341459D01*
X127670736Y-98337882D01*
X127685297Y-98335722D01*
X127700000Y-98335000D01*
X129350000Y-98335000D01*
X129364703Y-98335722D01*
X129364703Y-98335722D01*
G37*
D14*
X128525000Y-98635000D03*
D10*
G36*
X129364703Y-99605722D02*
G01*
X129379264Y-99607882D01*
X129393543Y-99611459D01*
X129407403Y-99616418D01*
X129420710Y-99622712D01*
X129433336Y-99630280D01*
X129445159Y-99639048D01*
X129456066Y-99648934D01*
X129465952Y-99659841D01*
X129474720Y-99671664D01*
X129482288Y-99684290D01*
X129488582Y-99697597D01*
X129493541Y-99711457D01*
X129497118Y-99725736D01*
X129499278Y-99740297D01*
X129500000Y-99755000D01*
X129500000Y-100055000D01*
X129499278Y-100069703D01*
X129497118Y-100084264D01*
X129493541Y-100098543D01*
X129488582Y-100112403D01*
X129482288Y-100125710D01*
X129474720Y-100138336D01*
X129465952Y-100150159D01*
X129456066Y-100161066D01*
X129445159Y-100170952D01*
X129433336Y-100179720D01*
X129420710Y-100187288D01*
X129407403Y-100193582D01*
X129393543Y-100198541D01*
X129379264Y-100202118D01*
X129364703Y-100204278D01*
X129350000Y-100205000D01*
X127700000Y-100205000D01*
X127685297Y-100204278D01*
X127670736Y-100202118D01*
X127656457Y-100198541D01*
X127642597Y-100193582D01*
X127629290Y-100187288D01*
X127616664Y-100179720D01*
X127604841Y-100170952D01*
X127593934Y-100161066D01*
X127584048Y-100150159D01*
X127575280Y-100138336D01*
X127567712Y-100125710D01*
X127561418Y-100112403D01*
X127556459Y-100098543D01*
X127552882Y-100084264D01*
X127550722Y-100069703D01*
X127550000Y-100055000D01*
X127550000Y-99755000D01*
X127550722Y-99740297D01*
X127552882Y-99725736D01*
X127556459Y-99711457D01*
X127561418Y-99697597D01*
X127567712Y-99684290D01*
X127575280Y-99671664D01*
X127584048Y-99659841D01*
X127593934Y-99648934D01*
X127604841Y-99639048D01*
X127616664Y-99630280D01*
X127629290Y-99622712D01*
X127642597Y-99616418D01*
X127656457Y-99611459D01*
X127670736Y-99607882D01*
X127685297Y-99605722D01*
X127700000Y-99605000D01*
X129350000Y-99605000D01*
X129364703Y-99605722D01*
X129364703Y-99605722D01*
G37*
D14*
X128525000Y-99905000D03*
D10*
G36*
X134314703Y-99605722D02*
G01*
X134329264Y-99607882D01*
X134343543Y-99611459D01*
X134357403Y-99616418D01*
X134370710Y-99622712D01*
X134383336Y-99630280D01*
X134395159Y-99639048D01*
X134406066Y-99648934D01*
X134415952Y-99659841D01*
X134424720Y-99671664D01*
X134432288Y-99684290D01*
X134438582Y-99697597D01*
X134443541Y-99711457D01*
X134447118Y-99725736D01*
X134449278Y-99740297D01*
X134450000Y-99755000D01*
X134450000Y-100055000D01*
X134449278Y-100069703D01*
X134447118Y-100084264D01*
X134443541Y-100098543D01*
X134438582Y-100112403D01*
X134432288Y-100125710D01*
X134424720Y-100138336D01*
X134415952Y-100150159D01*
X134406066Y-100161066D01*
X134395159Y-100170952D01*
X134383336Y-100179720D01*
X134370710Y-100187288D01*
X134357403Y-100193582D01*
X134343543Y-100198541D01*
X134329264Y-100202118D01*
X134314703Y-100204278D01*
X134300000Y-100205000D01*
X132650000Y-100205000D01*
X132635297Y-100204278D01*
X132620736Y-100202118D01*
X132606457Y-100198541D01*
X132592597Y-100193582D01*
X132579290Y-100187288D01*
X132566664Y-100179720D01*
X132554841Y-100170952D01*
X132543934Y-100161066D01*
X132534048Y-100150159D01*
X132525280Y-100138336D01*
X132517712Y-100125710D01*
X132511418Y-100112403D01*
X132506459Y-100098543D01*
X132502882Y-100084264D01*
X132500722Y-100069703D01*
X132500000Y-100055000D01*
X132500000Y-99755000D01*
X132500722Y-99740297D01*
X132502882Y-99725736D01*
X132506459Y-99711457D01*
X132511418Y-99697597D01*
X132517712Y-99684290D01*
X132525280Y-99671664D01*
X132534048Y-99659841D01*
X132543934Y-99648934D01*
X132554841Y-99639048D01*
X132566664Y-99630280D01*
X132579290Y-99622712D01*
X132592597Y-99616418D01*
X132606457Y-99611459D01*
X132620736Y-99607882D01*
X132635297Y-99605722D01*
X132650000Y-99605000D01*
X134300000Y-99605000D01*
X134314703Y-99605722D01*
X134314703Y-99605722D01*
G37*
D14*
X133475000Y-99905000D03*
D10*
G36*
X134314703Y-98335722D02*
G01*
X134329264Y-98337882D01*
X134343543Y-98341459D01*
X134357403Y-98346418D01*
X134370710Y-98352712D01*
X134383336Y-98360280D01*
X134395159Y-98369048D01*
X134406066Y-98378934D01*
X134415952Y-98389841D01*
X134424720Y-98401664D01*
X134432288Y-98414290D01*
X134438582Y-98427597D01*
X134443541Y-98441457D01*
X134447118Y-98455736D01*
X134449278Y-98470297D01*
X134450000Y-98485000D01*
X134450000Y-98785000D01*
X134449278Y-98799703D01*
X134447118Y-98814264D01*
X134443541Y-98828543D01*
X134438582Y-98842403D01*
X134432288Y-98855710D01*
X134424720Y-98868336D01*
X134415952Y-98880159D01*
X134406066Y-98891066D01*
X134395159Y-98900952D01*
X134383336Y-98909720D01*
X134370710Y-98917288D01*
X134357403Y-98923582D01*
X134343543Y-98928541D01*
X134329264Y-98932118D01*
X134314703Y-98934278D01*
X134300000Y-98935000D01*
X132650000Y-98935000D01*
X132635297Y-98934278D01*
X132620736Y-98932118D01*
X132606457Y-98928541D01*
X132592597Y-98923582D01*
X132579290Y-98917288D01*
X132566664Y-98909720D01*
X132554841Y-98900952D01*
X132543934Y-98891066D01*
X132534048Y-98880159D01*
X132525280Y-98868336D01*
X132517712Y-98855710D01*
X132511418Y-98842403D01*
X132506459Y-98828543D01*
X132502882Y-98814264D01*
X132500722Y-98799703D01*
X132500000Y-98785000D01*
X132500000Y-98485000D01*
X132500722Y-98470297D01*
X132502882Y-98455736D01*
X132506459Y-98441457D01*
X132511418Y-98427597D01*
X132517712Y-98414290D01*
X132525280Y-98401664D01*
X132534048Y-98389841D01*
X132543934Y-98378934D01*
X132554841Y-98369048D01*
X132566664Y-98360280D01*
X132579290Y-98352712D01*
X132592597Y-98346418D01*
X132606457Y-98341459D01*
X132620736Y-98337882D01*
X132635297Y-98335722D01*
X132650000Y-98335000D01*
X134300000Y-98335000D01*
X134314703Y-98335722D01*
X134314703Y-98335722D01*
G37*
D14*
X133475000Y-98635000D03*
D10*
G36*
X134314703Y-97065722D02*
G01*
X134329264Y-97067882D01*
X134343543Y-97071459D01*
X134357403Y-97076418D01*
X134370710Y-97082712D01*
X134383336Y-97090280D01*
X134395159Y-97099048D01*
X134406066Y-97108934D01*
X134415952Y-97119841D01*
X134424720Y-97131664D01*
X134432288Y-97144290D01*
X134438582Y-97157597D01*
X134443541Y-97171457D01*
X134447118Y-97185736D01*
X134449278Y-97200297D01*
X134450000Y-97215000D01*
X134450000Y-97515000D01*
X134449278Y-97529703D01*
X134447118Y-97544264D01*
X134443541Y-97558543D01*
X134438582Y-97572403D01*
X134432288Y-97585710D01*
X134424720Y-97598336D01*
X134415952Y-97610159D01*
X134406066Y-97621066D01*
X134395159Y-97630952D01*
X134383336Y-97639720D01*
X134370710Y-97647288D01*
X134357403Y-97653582D01*
X134343543Y-97658541D01*
X134329264Y-97662118D01*
X134314703Y-97664278D01*
X134300000Y-97665000D01*
X132650000Y-97665000D01*
X132635297Y-97664278D01*
X132620736Y-97662118D01*
X132606457Y-97658541D01*
X132592597Y-97653582D01*
X132579290Y-97647288D01*
X132566664Y-97639720D01*
X132554841Y-97630952D01*
X132543934Y-97621066D01*
X132534048Y-97610159D01*
X132525280Y-97598336D01*
X132517712Y-97585710D01*
X132511418Y-97572403D01*
X132506459Y-97558543D01*
X132502882Y-97544264D01*
X132500722Y-97529703D01*
X132500000Y-97515000D01*
X132500000Y-97215000D01*
X132500722Y-97200297D01*
X132502882Y-97185736D01*
X132506459Y-97171457D01*
X132511418Y-97157597D01*
X132517712Y-97144290D01*
X132525280Y-97131664D01*
X132534048Y-97119841D01*
X132543934Y-97108934D01*
X132554841Y-97099048D01*
X132566664Y-97090280D01*
X132579290Y-97082712D01*
X132592597Y-97076418D01*
X132606457Y-97071459D01*
X132620736Y-97067882D01*
X132635297Y-97065722D01*
X132650000Y-97065000D01*
X134300000Y-97065000D01*
X134314703Y-97065722D01*
X134314703Y-97065722D01*
G37*
D14*
X133475000Y-97365000D03*
D10*
G36*
X134314703Y-95795722D02*
G01*
X134329264Y-95797882D01*
X134343543Y-95801459D01*
X134357403Y-95806418D01*
X134370710Y-95812712D01*
X134383336Y-95820280D01*
X134395159Y-95829048D01*
X134406066Y-95838934D01*
X134415952Y-95849841D01*
X134424720Y-95861664D01*
X134432288Y-95874290D01*
X134438582Y-95887597D01*
X134443541Y-95901457D01*
X134447118Y-95915736D01*
X134449278Y-95930297D01*
X134450000Y-95945000D01*
X134450000Y-96245000D01*
X134449278Y-96259703D01*
X134447118Y-96274264D01*
X134443541Y-96288543D01*
X134438582Y-96302403D01*
X134432288Y-96315710D01*
X134424720Y-96328336D01*
X134415952Y-96340159D01*
X134406066Y-96351066D01*
X134395159Y-96360952D01*
X134383336Y-96369720D01*
X134370710Y-96377288D01*
X134357403Y-96383582D01*
X134343543Y-96388541D01*
X134329264Y-96392118D01*
X134314703Y-96394278D01*
X134300000Y-96395000D01*
X132650000Y-96395000D01*
X132635297Y-96394278D01*
X132620736Y-96392118D01*
X132606457Y-96388541D01*
X132592597Y-96383582D01*
X132579290Y-96377288D01*
X132566664Y-96369720D01*
X132554841Y-96360952D01*
X132543934Y-96351066D01*
X132534048Y-96340159D01*
X132525280Y-96328336D01*
X132517712Y-96315710D01*
X132511418Y-96302403D01*
X132506459Y-96288543D01*
X132502882Y-96274264D01*
X132500722Y-96259703D01*
X132500000Y-96245000D01*
X132500000Y-95945000D01*
X132500722Y-95930297D01*
X132502882Y-95915736D01*
X132506459Y-95901457D01*
X132511418Y-95887597D01*
X132517712Y-95874290D01*
X132525280Y-95861664D01*
X132534048Y-95849841D01*
X132543934Y-95838934D01*
X132554841Y-95829048D01*
X132566664Y-95820280D01*
X132579290Y-95812712D01*
X132592597Y-95806418D01*
X132606457Y-95801459D01*
X132620736Y-95797882D01*
X132635297Y-95795722D01*
X132650000Y-95795000D01*
X134300000Y-95795000D01*
X134314703Y-95795722D01*
X134314703Y-95795722D01*
G37*
D14*
X133475000Y-96095000D03*
M02*
