G04 #@! TF.GenerationSoftware,KiCad,Pcbnew,(5.1.4)-1*
G04 #@! TF.CreationDate,2020-01-17T23:34:28+09:00*
G04 #@! TF.ProjectId,QX20CTRLV1,51583230-4354-4524-9c56-312e6b696361,rev?*
G04 #@! TF.SameCoordinates,Original*
G04 #@! TF.FileFunction,Legend,Top*
G04 #@! TF.FilePolarity,Positive*
%FSLAX46Y46*%
G04 Gerber Fmt 4.6, Leading zero omitted, Abs format (unit mm)*
G04 Created by KiCad (PCBNEW (5.1.4)-1) date 2020-01-17 23:34:28*
%MOMM*%
%LPD*%
G04 APERTURE LIST*
%ADD10C,0.120000*%
%ADD11C,0.150000*%
G04 APERTURE END LIST*
D10*
X97840000Y-64600000D02*
G75*
G03X97840000Y-64600000I-1000000J0D01*
G01*
X97840000Y-67140000D02*
G75*
G03X97840000Y-67140000I-1000000J0D01*
G01*
X97840000Y-69680000D02*
G75*
G03X97840000Y-69680000I-1000000J0D01*
G01*
X108000000Y-64600000D02*
G75*
G03X108000000Y-64600000I-1000000J0D01*
G01*
X105460000Y-64600000D02*
G75*
G03X105460000Y-64600000I-1000000J0D01*
G01*
X102920000Y-64600000D02*
G75*
G03X102920000Y-64600000I-1000000J0D01*
G01*
X100380000Y-64600000D02*
G75*
G03X100380000Y-64600000I-1000000J0D01*
G01*
X108000000Y-67140000D02*
G75*
G03X108000000Y-67140000I-1000000J0D01*
G01*
X105460000Y-67140000D02*
G75*
G03X105460000Y-67140000I-1000000J0D01*
G01*
X102920000Y-67140000D02*
G75*
G03X102920000Y-67140000I-1000000J0D01*
G01*
X100380000Y-67140000D02*
G75*
G03X100380000Y-67140000I-1000000J0D01*
G01*
X108000000Y-69680000D02*
G75*
G03X108000000Y-69680000I-1000000J0D01*
G01*
X105460000Y-69680000D02*
G75*
G03X105460000Y-69680000I-1000000J0D01*
G01*
X102920000Y-69680000D02*
G75*
G03X102920000Y-69680000I-1000000J0D01*
G01*
X100380000Y-69680000D02*
G75*
G03X100380000Y-69680000I-1000000J0D01*
G01*
X108000000Y-72220000D02*
G75*
G03X108000000Y-72220000I-1000000J0D01*
G01*
X105460000Y-72220000D02*
G75*
G03X105460000Y-72220000I-1000000J0D01*
G01*
X102920000Y-72220000D02*
G75*
G03X102920000Y-72220000I-1000000J0D01*
G01*
X100380000Y-72220000D02*
G75*
G03X100380000Y-72220000I-1000000J0D01*
G01*
X97840000Y-72220000D02*
G75*
G03X97840000Y-72220000I-1000000J0D01*
G01*
X97840000Y-79840000D02*
G75*
G03X97840000Y-79840000I-1000000J0D01*
G01*
X100380000Y-79840000D02*
G75*
G03X100380000Y-79840000I-1000000J0D01*
G01*
X102920000Y-79840000D02*
G75*
G03X102920000Y-79840000I-1000000J0D01*
G01*
X105460000Y-79840000D02*
G75*
G03X105460000Y-79840000I-1000000J0D01*
G01*
X108000000Y-79840000D02*
G75*
G03X108000000Y-79840000I-1000000J0D01*
G01*
X97840000Y-82380000D02*
G75*
G03X97840000Y-82380000I-1000000J0D01*
G01*
X100380000Y-82380000D02*
G75*
G03X100380000Y-82380000I-1000000J0D01*
G01*
X102920000Y-82380000D02*
G75*
G03X102920000Y-82380000I-1000000J0D01*
G01*
X105460000Y-82380000D02*
G75*
G03X105460000Y-82380000I-1000000J0D01*
G01*
X108000000Y-82380000D02*
G75*
G03X108000000Y-82380000I-1000000J0D01*
G01*
X97840000Y-84920000D02*
G75*
G03X97840000Y-84920000I-1000000J0D01*
G01*
X100380000Y-84920000D02*
G75*
G03X100380000Y-84920000I-1000000J0D01*
G01*
X102920000Y-84920000D02*
G75*
G03X102920000Y-84920000I-1000000J0D01*
G01*
X105460000Y-84920000D02*
G75*
G03X105460000Y-84920000I-1000000J0D01*
G01*
X108000000Y-84920000D02*
G75*
G03X108000000Y-84920000I-1000000J0D01*
G01*
X97840000Y-87460000D02*
G75*
G03X97840000Y-87460000I-1000000J0D01*
G01*
X100380000Y-87460000D02*
G75*
G03X100380000Y-87460000I-1000000J0D01*
G01*
X102920000Y-87460000D02*
G75*
G03X102920000Y-87460000I-1000000J0D01*
G01*
X105460000Y-87460000D02*
G75*
G03X105460000Y-87460000I-1000000J0D01*
G01*
X108000000Y-87460000D02*
G75*
G03X108000000Y-87460000I-1000000J0D01*
G01*
X132670000Y-68670000D02*
X134000000Y-68670000D01*
X132670000Y-70000000D02*
X132670000Y-68670000D01*
X132670000Y-71270000D02*
X135330000Y-71270000D01*
X135330000Y-71270000D02*
X135330000Y-78950000D01*
X132670000Y-71270000D02*
X132670000Y-78950000D01*
X132670000Y-78950000D02*
X135330000Y-78950000D01*
X120890000Y-77690000D02*
X119575000Y-77690000D01*
X120890000Y-77390000D02*
X120890000Y-77690000D01*
X121190000Y-77390000D02*
X120890000Y-77390000D01*
X128110000Y-77390000D02*
X128110000Y-77690000D01*
X127810000Y-77390000D02*
X128110000Y-77390000D01*
X120890000Y-84610000D02*
X120890000Y-84310000D01*
X121190000Y-84610000D02*
X120890000Y-84610000D01*
X128110000Y-84610000D02*
X128110000Y-84310000D01*
X127810000Y-84610000D02*
X128110000Y-84610000D01*
X106090000Y-103114564D02*
X106090000Y-101910436D01*
X107910000Y-103114564D02*
X107910000Y-101910436D01*
X97090000Y-99885436D02*
X97090000Y-101089564D01*
X98910000Y-99885436D02*
X98910000Y-101089564D01*
X99730000Y-106580000D02*
X99730000Y-96340000D01*
X104371000Y-106580000D02*
X104371000Y-96340000D01*
X99730000Y-106580000D02*
X104371000Y-106580000D01*
X99730000Y-96340000D02*
X104371000Y-96340000D01*
X101240000Y-106580000D02*
X101240000Y-96340000D01*
X99730000Y-103310000D02*
X101240000Y-103310000D01*
X99730000Y-99609000D02*
X101240000Y-99609000D01*
X146890000Y-78940000D02*
X146890000Y-62940000D01*
X146890000Y-62940000D02*
X150310000Y-62940000D01*
X150310000Y-62940000D02*
X150310000Y-63990000D01*
X150310000Y-63990000D02*
X156510000Y-63990000D01*
X156510000Y-63990000D02*
X156510000Y-77890000D01*
X156510000Y-77890000D02*
X150310000Y-77890000D01*
X150310000Y-77890000D02*
X150310000Y-78940000D01*
X150310000Y-78940000D02*
X146890000Y-78940000D01*
X156510000Y-77700000D02*
X158010000Y-77700000D01*
X158010000Y-77700000D02*
X158010000Y-76060000D01*
X158010000Y-76060000D02*
X156510000Y-76060000D01*
X156510000Y-73740000D02*
X158010000Y-73740000D01*
X158010000Y-73740000D02*
X158010000Y-72100000D01*
X158010000Y-72100000D02*
X156510000Y-72100000D01*
X156510000Y-69780000D02*
X158010000Y-69780000D01*
X158010000Y-69780000D02*
X158010000Y-68140000D01*
X158010000Y-68140000D02*
X156510000Y-68140000D01*
X156510000Y-65820000D02*
X158010000Y-65820000D01*
X158010000Y-65820000D02*
X158010000Y-64180000D01*
X158010000Y-64180000D02*
X156510000Y-64180000D01*
X141390000Y-76880000D02*
X141390000Y-78490000D01*
X141390000Y-78490000D02*
X143000000Y-78490000D01*
X114410436Y-82910000D02*
X115614564Y-82910000D01*
X114410436Y-81090000D02*
X115614564Y-81090000D01*
X114410436Y-77090000D02*
X115614564Y-77090000D01*
X114410436Y-78910000D02*
X115614564Y-78910000D01*
X130910000Y-89089564D02*
X130910000Y-87885436D01*
X129090000Y-89089564D02*
X129090000Y-87885436D01*
X123590000Y-98614564D02*
X123590000Y-97410436D01*
X125410000Y-98614564D02*
X125410000Y-97410436D01*
X130635000Y-67087500D02*
X130635000Y-63027500D01*
X130635000Y-63027500D02*
X128365000Y-63027500D01*
X128365000Y-63027500D02*
X128365000Y-67087500D01*
X138760000Y-99630000D02*
X138760000Y-98700000D01*
X138760000Y-96470000D02*
X138760000Y-97400000D01*
X138760000Y-96470000D02*
X136600000Y-96470000D01*
X138760000Y-99630000D02*
X137300000Y-99630000D01*
X141390000Y-105490000D02*
X143000000Y-105490000D01*
X141390000Y-103880000D02*
X141390000Y-105490000D01*
X158010000Y-91180000D02*
X156510000Y-91180000D01*
X158010000Y-92820000D02*
X158010000Y-91180000D01*
X156510000Y-92820000D02*
X158010000Y-92820000D01*
X158010000Y-95140000D02*
X156510000Y-95140000D01*
X158010000Y-96780000D02*
X158010000Y-95140000D01*
X156510000Y-96780000D02*
X158010000Y-96780000D01*
X158010000Y-99100000D02*
X156510000Y-99100000D01*
X158010000Y-100740000D02*
X158010000Y-99100000D01*
X156510000Y-100740000D02*
X158010000Y-100740000D01*
X158010000Y-103060000D02*
X156510000Y-103060000D01*
X158010000Y-104700000D02*
X158010000Y-103060000D01*
X156510000Y-104700000D02*
X158010000Y-104700000D01*
X150310000Y-105940000D02*
X146890000Y-105940000D01*
X150310000Y-104890000D02*
X150310000Y-105940000D01*
X156510000Y-104890000D02*
X150310000Y-104890000D01*
X156510000Y-90990000D02*
X156510000Y-104890000D01*
X150310000Y-90990000D02*
X156510000Y-90990000D01*
X150310000Y-89940000D02*
X150310000Y-90990000D01*
X146890000Y-89940000D02*
X150310000Y-89940000D01*
X146890000Y-105940000D02*
X146890000Y-89940000D01*
X87110000Y-71390000D02*
X85500000Y-71390000D01*
X87110000Y-73000000D02*
X87110000Y-71390000D01*
X70490000Y-81740000D02*
X71990000Y-81740000D01*
X70490000Y-80100000D02*
X70490000Y-81740000D01*
X71990000Y-80100000D02*
X70490000Y-80100000D01*
X70490000Y-77780000D02*
X71990000Y-77780000D01*
X70490000Y-76140000D02*
X70490000Y-77780000D01*
X71990000Y-76140000D02*
X70490000Y-76140000D01*
X70490000Y-73820000D02*
X71990000Y-73820000D01*
X70490000Y-72180000D02*
X70490000Y-73820000D01*
X71990000Y-72180000D02*
X70490000Y-72180000D01*
X78190000Y-70940000D02*
X81610000Y-70940000D01*
X78190000Y-71990000D02*
X78190000Y-70940000D01*
X71990000Y-71990000D02*
X78190000Y-71990000D01*
X71990000Y-81930000D02*
X71990000Y-71990000D01*
X78190000Y-81930000D02*
X71990000Y-81930000D01*
X78190000Y-82980000D02*
X78190000Y-81930000D01*
X81610000Y-82980000D02*
X78190000Y-82980000D01*
X81610000Y-70940000D02*
X81610000Y-82980000D01*
X81610000Y-85940000D02*
X81610000Y-97980000D01*
X81610000Y-97980000D02*
X78190000Y-97980000D01*
X78190000Y-97980000D02*
X78190000Y-96930000D01*
X78190000Y-96930000D02*
X71990000Y-96930000D01*
X71990000Y-96930000D02*
X71990000Y-86990000D01*
X71990000Y-86990000D02*
X78190000Y-86990000D01*
X78190000Y-86990000D02*
X78190000Y-85940000D01*
X78190000Y-85940000D02*
X81610000Y-85940000D01*
X71990000Y-87180000D02*
X70490000Y-87180000D01*
X70490000Y-87180000D02*
X70490000Y-88820000D01*
X70490000Y-88820000D02*
X71990000Y-88820000D01*
X71990000Y-91140000D02*
X70490000Y-91140000D01*
X70490000Y-91140000D02*
X70490000Y-92780000D01*
X70490000Y-92780000D02*
X71990000Y-92780000D01*
X71990000Y-95100000D02*
X70490000Y-95100000D01*
X70490000Y-95100000D02*
X70490000Y-96740000D01*
X70490000Y-96740000D02*
X71990000Y-96740000D01*
X87110000Y-88000000D02*
X87110000Y-86390000D01*
X87110000Y-86390000D02*
X85500000Y-86390000D01*
X113830000Y-100730000D02*
X111170000Y-100730000D01*
X113830000Y-100730000D02*
X113830000Y-95590000D01*
X113830000Y-95590000D02*
X111170000Y-95590000D01*
X111170000Y-100730000D02*
X111170000Y-95590000D01*
X111170000Y-103330000D02*
X111170000Y-102000000D01*
X112500000Y-103330000D02*
X111170000Y-103330000D01*
X123230000Y-64670000D02*
X123230000Y-67330000D01*
X123230000Y-64670000D02*
X115550000Y-64670000D01*
X115550000Y-64670000D02*
X115550000Y-67330000D01*
X123230000Y-67330000D02*
X115550000Y-67330000D01*
X125830000Y-67330000D02*
X124500000Y-67330000D01*
X125830000Y-66000000D02*
X125830000Y-67330000D01*
X116397936Y-97410000D02*
X117602064Y-97410000D01*
X116397936Y-95590000D02*
X117602064Y-95590000D01*
X116397936Y-99590000D02*
X117602064Y-99590000D01*
X116397936Y-101410000D02*
X117602064Y-101410000D01*
X123410000Y-70885436D02*
X123410000Y-72089564D01*
X121590000Y-70885436D02*
X121590000Y-72089564D01*
X124590000Y-70885436D02*
X124590000Y-72089564D01*
X126410000Y-70885436D02*
X126410000Y-72089564D01*
X90910000Y-73885436D02*
X90910000Y-75089564D01*
X89090000Y-73885436D02*
X89090000Y-75089564D01*
X89090000Y-88910436D02*
X89090000Y-90114564D01*
X90910000Y-88910436D02*
X90910000Y-90114564D01*
X115589564Y-73910000D02*
X114385436Y-73910000D01*
X115589564Y-72090000D02*
X114385436Y-72090000D01*
X128590000Y-72089564D02*
X128590000Y-70885436D01*
X130410000Y-72089564D02*
X130410000Y-70885436D01*
X130885436Y-93910000D02*
X132089564Y-93910000D01*
X130885436Y-92090000D02*
X132089564Y-92090000D01*
X128910436Y-102090000D02*
X130114564Y-102090000D01*
X128910436Y-103910000D02*
X130114564Y-103910000D01*
X144885436Y-84910000D02*
X146089564Y-84910000D01*
X144885436Y-83090000D02*
X146089564Y-83090000D01*
X131000000Y-100560000D02*
X132950000Y-100560000D01*
X131000000Y-100560000D02*
X129050000Y-100560000D01*
X131000000Y-95440000D02*
X132950000Y-95440000D01*
X131000000Y-95440000D02*
X127550000Y-95440000D01*
D11*
X108833333Y-80292380D02*
X108833333Y-79292380D01*
X109214285Y-79292380D01*
X109309523Y-79340000D01*
X109357142Y-79387619D01*
X109404761Y-79482857D01*
X109404761Y-79625714D01*
X109357142Y-79720952D01*
X109309523Y-79768571D01*
X109214285Y-79816190D01*
X108833333Y-79816190D01*
X109785714Y-80006666D02*
X110261904Y-80006666D01*
X109690476Y-80292380D02*
X110023809Y-79292380D01*
X110357142Y-80292380D01*
X110880952Y-79292380D02*
X110976190Y-79292380D01*
X111071428Y-79340000D01*
X111119047Y-79387619D01*
X111166666Y-79482857D01*
X111214285Y-79673333D01*
X111214285Y-79911428D01*
X111166666Y-80101904D01*
X111119047Y-80197142D01*
X111071428Y-80244761D01*
X110976190Y-80292380D01*
X110880952Y-80292380D01*
X110785714Y-80244761D01*
X110738095Y-80197142D01*
X110690476Y-80101904D01*
X110642857Y-79911428D01*
X110642857Y-79673333D01*
X110690476Y-79482857D01*
X110738095Y-79387619D01*
X110785714Y-79340000D01*
X110880952Y-79292380D01*
X108833333Y-82832380D02*
X108833333Y-81832380D01*
X109214285Y-81832380D01*
X109309523Y-81880000D01*
X109357142Y-81927619D01*
X109404761Y-82022857D01*
X109404761Y-82165714D01*
X109357142Y-82260952D01*
X109309523Y-82308571D01*
X109214285Y-82356190D01*
X108833333Y-82356190D01*
X109785714Y-82546666D02*
X110261904Y-82546666D01*
X109690476Y-82832380D02*
X110023809Y-81832380D01*
X110357142Y-82832380D01*
X111214285Y-82832380D02*
X110642857Y-82832380D01*
X110928571Y-82832380D02*
X110928571Y-81832380D01*
X110833333Y-81975238D01*
X110738095Y-82070476D01*
X110642857Y-82118095D01*
X108833333Y-85372380D02*
X108833333Y-84372380D01*
X109214285Y-84372380D01*
X109309523Y-84420000D01*
X109357142Y-84467619D01*
X109404761Y-84562857D01*
X109404761Y-84705714D01*
X109357142Y-84800952D01*
X109309523Y-84848571D01*
X109214285Y-84896190D01*
X108833333Y-84896190D01*
X109785714Y-85086666D02*
X110261904Y-85086666D01*
X109690476Y-85372380D02*
X110023809Y-84372380D01*
X110357142Y-85372380D01*
X110642857Y-84467619D02*
X110690476Y-84420000D01*
X110785714Y-84372380D01*
X111023809Y-84372380D01*
X111119047Y-84420000D01*
X111166666Y-84467619D01*
X111214285Y-84562857D01*
X111214285Y-84658095D01*
X111166666Y-84800952D01*
X110595238Y-85372380D01*
X111214285Y-85372380D01*
X94340000Y-88221904D02*
X94292380Y-88317142D01*
X94292380Y-88460000D01*
X94340000Y-88602857D01*
X94435238Y-88698095D01*
X94530476Y-88745714D01*
X94720952Y-88793333D01*
X94863809Y-88793333D01*
X95054285Y-88745714D01*
X95149523Y-88698095D01*
X95244761Y-88602857D01*
X95292380Y-88460000D01*
X95292380Y-88364761D01*
X95244761Y-88221904D01*
X95197142Y-88174285D01*
X94863809Y-88174285D01*
X94863809Y-88364761D01*
X95292380Y-87745714D02*
X94292380Y-87745714D01*
X95292380Y-87174285D01*
X94292380Y-87174285D01*
X95292380Y-86698095D02*
X94292380Y-86698095D01*
X94292380Y-86460000D01*
X94340000Y-86317142D01*
X94435238Y-86221904D01*
X94530476Y-86174285D01*
X94720952Y-86126666D01*
X94863809Y-86126666D01*
X95054285Y-86174285D01*
X95149523Y-86221904D01*
X95244761Y-86317142D01*
X95292380Y-86460000D01*
X95292380Y-86698095D01*
X98141904Y-88912380D02*
X98760952Y-88912380D01*
X98427619Y-89293333D01*
X98570476Y-89293333D01*
X98665714Y-89340952D01*
X98713333Y-89388571D01*
X98760952Y-89483809D01*
X98760952Y-89721904D01*
X98713333Y-89817142D01*
X98665714Y-89864761D01*
X98570476Y-89912380D01*
X98284761Y-89912380D01*
X98189523Y-89864761D01*
X98141904Y-89817142D01*
X99046666Y-88912380D02*
X99380000Y-89912380D01*
X99713333Y-88912380D01*
X99951428Y-88912380D02*
X100570476Y-88912380D01*
X100237142Y-89293333D01*
X100380000Y-89293333D01*
X100475238Y-89340952D01*
X100522857Y-89388571D01*
X100570476Y-89483809D01*
X100570476Y-89721904D01*
X100522857Y-89817142D01*
X100475238Y-89864761D01*
X100380000Y-89912380D01*
X100094285Y-89912380D01*
X99999047Y-89864761D01*
X99951428Y-89817142D01*
X108833333Y-87912380D02*
X108833333Y-86912380D01*
X109214285Y-86912380D01*
X109309523Y-86960000D01*
X109357142Y-87007619D01*
X109404761Y-87102857D01*
X109404761Y-87245714D01*
X109357142Y-87340952D01*
X109309523Y-87388571D01*
X109214285Y-87436190D01*
X108833333Y-87436190D01*
X109785714Y-87626666D02*
X110261904Y-87626666D01*
X109690476Y-87912380D02*
X110023809Y-86912380D01*
X110357142Y-87912380D01*
X110595238Y-86912380D02*
X111214285Y-86912380D01*
X110880952Y-87293333D01*
X111023809Y-87293333D01*
X111119047Y-87340952D01*
X111166666Y-87388571D01*
X111214285Y-87483809D01*
X111214285Y-87721904D01*
X111166666Y-87817142D01*
X111119047Y-87864761D01*
X111023809Y-87912380D01*
X110738095Y-87912380D01*
X110642857Y-87864761D01*
X110595238Y-87817142D01*
X132642857Y-68074761D02*
X132785714Y-68122380D01*
X133023809Y-68122380D01*
X133119047Y-68074761D01*
X133166666Y-68027142D01*
X133214285Y-67931904D01*
X133214285Y-67836666D01*
X133166666Y-67741428D01*
X133119047Y-67693809D01*
X133023809Y-67646190D01*
X132833333Y-67598571D01*
X132738095Y-67550952D01*
X132690476Y-67503333D01*
X132642857Y-67408095D01*
X132642857Y-67312857D01*
X132690476Y-67217619D01*
X132738095Y-67170000D01*
X132833333Y-67122380D01*
X133071428Y-67122380D01*
X133214285Y-67170000D01*
X133547619Y-67122380D02*
X133785714Y-68122380D01*
X133976190Y-67408095D01*
X134166666Y-68122380D01*
X134404761Y-67122380D01*
X134785714Y-68122380D02*
X134785714Y-67122380D01*
X135023809Y-67122380D01*
X135166666Y-67170000D01*
X135261904Y-67265238D01*
X135309523Y-67360476D01*
X135357142Y-67550952D01*
X135357142Y-67693809D01*
X135309523Y-67884285D01*
X135261904Y-67979523D01*
X135166666Y-68074761D01*
X135023809Y-68122380D01*
X134785714Y-68122380D01*
X123738095Y-74572380D02*
X123738095Y-75381904D01*
X123785714Y-75477142D01*
X123833333Y-75524761D01*
X123928571Y-75572380D01*
X124119047Y-75572380D01*
X124214285Y-75524761D01*
X124261904Y-75477142D01*
X124309523Y-75381904D01*
X124309523Y-74572380D01*
X125309523Y-75572380D02*
X124738095Y-75572380D01*
X125023809Y-75572380D02*
X125023809Y-74572380D01*
X124928571Y-74715238D01*
X124833333Y-74810476D01*
X124738095Y-74858095D01*
X106833333Y-99357142D02*
X106785714Y-99404761D01*
X106642857Y-99452380D01*
X106547619Y-99452380D01*
X106404761Y-99404761D01*
X106309523Y-99309523D01*
X106261904Y-99214285D01*
X106214285Y-99023809D01*
X106214285Y-98880952D01*
X106261904Y-98690476D01*
X106309523Y-98595238D01*
X106404761Y-98500000D01*
X106547619Y-98452380D01*
X106642857Y-98452380D01*
X106785714Y-98500000D01*
X106833333Y-98547619D01*
X107690476Y-98785714D02*
X107690476Y-99452380D01*
X107452380Y-98404761D02*
X107214285Y-99119047D01*
X107833333Y-99119047D01*
X97833333Y-97332142D02*
X97785714Y-97379761D01*
X97642857Y-97427380D01*
X97547619Y-97427380D01*
X97404761Y-97379761D01*
X97309523Y-97284523D01*
X97261904Y-97189285D01*
X97214285Y-96998809D01*
X97214285Y-96855952D01*
X97261904Y-96665476D01*
X97309523Y-96570238D01*
X97404761Y-96475000D01*
X97547619Y-96427380D01*
X97642857Y-96427380D01*
X97785714Y-96475000D01*
X97833333Y-96522619D01*
X98690476Y-96427380D02*
X98500000Y-96427380D01*
X98404761Y-96475000D01*
X98357142Y-96522619D01*
X98261904Y-96665476D01*
X98214285Y-96855952D01*
X98214285Y-97236904D01*
X98261904Y-97332142D01*
X98309523Y-97379761D01*
X98404761Y-97427380D01*
X98595238Y-97427380D01*
X98690476Y-97379761D01*
X98738095Y-97332142D01*
X98785714Y-97236904D01*
X98785714Y-96998809D01*
X98738095Y-96903571D01*
X98690476Y-96855952D01*
X98595238Y-96808333D01*
X98404761Y-96808333D01*
X98309523Y-96855952D01*
X98261904Y-96903571D01*
X98214285Y-96998809D01*
X101238095Y-94452380D02*
X101238095Y-95261904D01*
X101285714Y-95357142D01*
X101333333Y-95404761D01*
X101428571Y-95452380D01*
X101619047Y-95452380D01*
X101714285Y-95404761D01*
X101761904Y-95357142D01*
X101809523Y-95261904D01*
X101809523Y-94452380D01*
X102190476Y-94452380D02*
X102809523Y-94452380D01*
X102476190Y-94833333D01*
X102619047Y-94833333D01*
X102714285Y-94880952D01*
X102761904Y-94928571D01*
X102809523Y-95023809D01*
X102809523Y-95261904D01*
X102761904Y-95357142D01*
X102714285Y-95404761D01*
X102619047Y-95452380D01*
X102333333Y-95452380D01*
X102238095Y-95404761D01*
X102190476Y-95357142D01*
X150217142Y-72239047D02*
X150264761Y-72286666D01*
X150312380Y-72429523D01*
X150312380Y-72524761D01*
X150264761Y-72667619D01*
X150169523Y-72762857D01*
X150074285Y-72810476D01*
X149883809Y-72858095D01*
X149740952Y-72858095D01*
X149550476Y-72810476D01*
X149455238Y-72762857D01*
X149360000Y-72667619D01*
X149312380Y-72524761D01*
X149312380Y-72429523D01*
X149360000Y-72286666D01*
X149407619Y-72239047D01*
X150026666Y-71858095D02*
X150026666Y-71381904D01*
X150312380Y-71953333D02*
X149312380Y-71620000D01*
X150312380Y-71286666D01*
X150312380Y-70953333D02*
X149312380Y-70953333D01*
X150312380Y-70381904D01*
X149312380Y-70381904D01*
X149407619Y-69953333D02*
X149360000Y-69905714D01*
X149312380Y-69810476D01*
X149312380Y-69572380D01*
X149360000Y-69477142D01*
X149407619Y-69429523D01*
X149502857Y-69381904D01*
X149598095Y-69381904D01*
X149740952Y-69429523D01*
X150312380Y-70000952D01*
X150312380Y-69381904D01*
X151000000Y-81202380D02*
X151333333Y-82202380D01*
X151666666Y-81202380D01*
X152000000Y-82202380D02*
X152000000Y-81202380D01*
X152428571Y-81916666D02*
X152904761Y-81916666D01*
X152333333Y-82202380D02*
X152666666Y-81202380D01*
X153000000Y-82202380D01*
X76000000Y-99702380D02*
X76333333Y-100702380D01*
X76666666Y-99702380D01*
X77000000Y-100702380D02*
X77000000Y-99702380D01*
X77428571Y-100416666D02*
X77904761Y-100416666D01*
X77333333Y-100702380D02*
X77666666Y-99702380D01*
X78000000Y-100702380D01*
X76000000Y-61702380D02*
X76333333Y-62702380D01*
X76666666Y-61702380D01*
X77000000Y-62702380D02*
X77000000Y-61702380D01*
X77428571Y-62416666D02*
X77904761Y-62416666D01*
X77333333Y-62702380D02*
X77666666Y-61702380D01*
X78000000Y-62702380D01*
X114845833Y-80537142D02*
X114798214Y-80584761D01*
X114655357Y-80632380D01*
X114560119Y-80632380D01*
X114417261Y-80584761D01*
X114322023Y-80489523D01*
X114274404Y-80394285D01*
X114226785Y-80203809D01*
X114226785Y-80060952D01*
X114274404Y-79870476D01*
X114322023Y-79775238D01*
X114417261Y-79680000D01*
X114560119Y-79632380D01*
X114655357Y-79632380D01*
X114798214Y-79680000D01*
X114845833Y-79727619D01*
X115798214Y-80632380D02*
X115226785Y-80632380D01*
X115512500Y-80632380D02*
X115512500Y-79632380D01*
X115417261Y-79775238D01*
X115322023Y-79870476D01*
X115226785Y-79918095D01*
X114845833Y-76537142D02*
X114798214Y-76584761D01*
X114655357Y-76632380D01*
X114560119Y-76632380D01*
X114417261Y-76584761D01*
X114322023Y-76489523D01*
X114274404Y-76394285D01*
X114226785Y-76203809D01*
X114226785Y-76060952D01*
X114274404Y-75870476D01*
X114322023Y-75775238D01*
X114417261Y-75680000D01*
X114560119Y-75632380D01*
X114655357Y-75632380D01*
X114798214Y-75680000D01*
X114845833Y-75727619D01*
X115226785Y-75727619D02*
X115274404Y-75680000D01*
X115369642Y-75632380D01*
X115607738Y-75632380D01*
X115702976Y-75680000D01*
X115750595Y-75727619D01*
X115798214Y-75822857D01*
X115798214Y-75918095D01*
X115750595Y-76060952D01*
X115179166Y-76632380D01*
X115798214Y-76632380D01*
X128537142Y-88654166D02*
X128584761Y-88701785D01*
X128632380Y-88844642D01*
X128632380Y-88939880D01*
X128584761Y-89082738D01*
X128489523Y-89177976D01*
X128394285Y-89225595D01*
X128203809Y-89273214D01*
X128060952Y-89273214D01*
X127870476Y-89225595D01*
X127775238Y-89177976D01*
X127680000Y-89082738D01*
X127632380Y-88939880D01*
X127632380Y-88844642D01*
X127680000Y-88701785D01*
X127727619Y-88654166D01*
X127632380Y-88320833D02*
X127632380Y-87701785D01*
X128013333Y-88035119D01*
X128013333Y-87892261D01*
X128060952Y-87797023D01*
X128108571Y-87749404D01*
X128203809Y-87701785D01*
X128441904Y-87701785D01*
X128537142Y-87749404D01*
X128584761Y-87797023D01*
X128632380Y-87892261D01*
X128632380Y-88177976D01*
X128584761Y-88273214D01*
X128537142Y-88320833D01*
X123037142Y-98179166D02*
X123084761Y-98226785D01*
X123132380Y-98369642D01*
X123132380Y-98464880D01*
X123084761Y-98607738D01*
X122989523Y-98702976D01*
X122894285Y-98750595D01*
X122703809Y-98798214D01*
X122560952Y-98798214D01*
X122370476Y-98750595D01*
X122275238Y-98702976D01*
X122180000Y-98607738D01*
X122132380Y-98464880D01*
X122132380Y-98369642D01*
X122180000Y-98226785D01*
X122227619Y-98179166D01*
X122132380Y-97274404D02*
X122132380Y-97750595D01*
X122608571Y-97798214D01*
X122560952Y-97750595D01*
X122513333Y-97655357D01*
X122513333Y-97417261D01*
X122560952Y-97322023D01*
X122608571Y-97274404D01*
X122703809Y-97226785D01*
X122941904Y-97226785D01*
X123037142Y-97274404D01*
X123084761Y-97322023D01*
X123132380Y-97417261D01*
X123132380Y-97655357D01*
X123084761Y-97750595D01*
X123037142Y-97798214D01*
X131772380Y-66225595D02*
X130772380Y-66225595D01*
X130772380Y-65987500D01*
X130820000Y-65844642D01*
X130915238Y-65749404D01*
X131010476Y-65701785D01*
X131200952Y-65654166D01*
X131343809Y-65654166D01*
X131534285Y-65701785D01*
X131629523Y-65749404D01*
X131724761Y-65844642D01*
X131772380Y-65987500D01*
X131772380Y-66225595D01*
X131772380Y-64701785D02*
X131772380Y-65273214D01*
X131772380Y-64987500D02*
X130772380Y-64987500D01*
X130915238Y-65082738D01*
X131010476Y-65177976D01*
X131058095Y-65273214D01*
X137261904Y-96002380D02*
X137261904Y-95002380D01*
X137500000Y-95002380D01*
X137642857Y-95050000D01*
X137738095Y-95145238D01*
X137785714Y-95240476D01*
X137833333Y-95430952D01*
X137833333Y-95573809D01*
X137785714Y-95764285D01*
X137738095Y-95859523D01*
X137642857Y-95954761D01*
X137500000Y-96002380D01*
X137261904Y-96002380D01*
X138214285Y-95097619D02*
X138261904Y-95050000D01*
X138357142Y-95002380D01*
X138595238Y-95002380D01*
X138690476Y-95050000D01*
X138738095Y-95097619D01*
X138785714Y-95192857D01*
X138785714Y-95288095D01*
X138738095Y-95430952D01*
X138166666Y-96002380D01*
X138785714Y-96002380D01*
X150217142Y-99059047D02*
X150264761Y-99106666D01*
X150312380Y-99249523D01*
X150312380Y-99344761D01*
X150264761Y-99487619D01*
X150169523Y-99582857D01*
X150074285Y-99630476D01*
X149883809Y-99678095D01*
X149740952Y-99678095D01*
X149550476Y-99630476D01*
X149455238Y-99582857D01*
X149360000Y-99487619D01*
X149312380Y-99344761D01*
X149312380Y-99249523D01*
X149360000Y-99106666D01*
X149407619Y-99059047D01*
X150026666Y-98678095D02*
X150026666Y-98201904D01*
X150312380Y-98773333D02*
X149312380Y-98440000D01*
X150312380Y-98106666D01*
X150312380Y-97773333D02*
X149312380Y-97773333D01*
X150312380Y-97201904D01*
X149312380Y-97201904D01*
X150312380Y-96201904D02*
X150312380Y-96773333D01*
X150312380Y-96487619D02*
X149312380Y-96487619D01*
X149455238Y-96582857D01*
X149550476Y-96678095D01*
X149598095Y-96773333D01*
X88454761Y-78650476D02*
X88502380Y-78507619D01*
X88502380Y-78269523D01*
X88454761Y-78174285D01*
X88407142Y-78126666D01*
X88311904Y-78079047D01*
X88216666Y-78079047D01*
X88121428Y-78126666D01*
X88073809Y-78174285D01*
X88026190Y-78269523D01*
X87978571Y-78460000D01*
X87930952Y-78555238D01*
X87883333Y-78602857D01*
X87788095Y-78650476D01*
X87692857Y-78650476D01*
X87597619Y-78602857D01*
X87550000Y-78555238D01*
X87502380Y-78460000D01*
X87502380Y-78221904D01*
X87550000Y-78079047D01*
X88502380Y-77079047D02*
X88026190Y-77412380D01*
X88502380Y-77650476D02*
X87502380Y-77650476D01*
X87502380Y-77269523D01*
X87550000Y-77174285D01*
X87597619Y-77126666D01*
X87692857Y-77079047D01*
X87835714Y-77079047D01*
X87930952Y-77126666D01*
X87978571Y-77174285D01*
X88026190Y-77269523D01*
X88026190Y-77650476D01*
X87502380Y-76793333D02*
X88502380Y-76460000D01*
X87502380Y-76126666D01*
X88502380Y-75269523D02*
X88502380Y-75840952D01*
X88502380Y-75555238D02*
X87502380Y-75555238D01*
X87645238Y-75650476D01*
X87740476Y-75745714D01*
X87788095Y-75840952D01*
X88454761Y-93650476D02*
X88502380Y-93507619D01*
X88502380Y-93269523D01*
X88454761Y-93174285D01*
X88407142Y-93126666D01*
X88311904Y-93079047D01*
X88216666Y-93079047D01*
X88121428Y-93126666D01*
X88073809Y-93174285D01*
X88026190Y-93269523D01*
X87978571Y-93460000D01*
X87930952Y-93555238D01*
X87883333Y-93602857D01*
X87788095Y-93650476D01*
X87692857Y-93650476D01*
X87597619Y-93602857D01*
X87550000Y-93555238D01*
X87502380Y-93460000D01*
X87502380Y-93221904D01*
X87550000Y-93079047D01*
X88502380Y-92079047D02*
X88026190Y-92412380D01*
X88502380Y-92650476D02*
X87502380Y-92650476D01*
X87502380Y-92269523D01*
X87550000Y-92174285D01*
X87597619Y-92126666D01*
X87692857Y-92079047D01*
X87835714Y-92079047D01*
X87930952Y-92126666D01*
X87978571Y-92174285D01*
X88026190Y-92269523D01*
X88026190Y-92650476D01*
X87502380Y-91793333D02*
X88502380Y-91460000D01*
X87502380Y-91126666D01*
X87597619Y-90840952D02*
X87550000Y-90793333D01*
X87502380Y-90698095D01*
X87502380Y-90460000D01*
X87550000Y-90364761D01*
X87597619Y-90317142D01*
X87692857Y-90269523D01*
X87788095Y-90269523D01*
X87930952Y-90317142D01*
X88502380Y-90888571D01*
X88502380Y-90269523D01*
X110904761Y-104222380D02*
X110904761Y-105031904D01*
X110952380Y-105127142D01*
X111000000Y-105174761D01*
X111095238Y-105222380D01*
X111285714Y-105222380D01*
X111380952Y-105174761D01*
X111428571Y-105127142D01*
X111476190Y-105031904D01*
X111476190Y-104222380D01*
X111904761Y-104936666D02*
X112380952Y-104936666D01*
X111809523Y-105222380D02*
X112142857Y-104222380D01*
X112476190Y-105222380D01*
X113380952Y-105222380D02*
X113047619Y-104746190D01*
X112809523Y-105222380D02*
X112809523Y-104222380D01*
X113190476Y-104222380D01*
X113285714Y-104270000D01*
X113333333Y-104317619D01*
X113380952Y-104412857D01*
X113380952Y-104555714D01*
X113333333Y-104650952D01*
X113285714Y-104698571D01*
X113190476Y-104746190D01*
X112809523Y-104746190D01*
X113666666Y-104222380D02*
X114238095Y-104222380D01*
X113952380Y-105222380D02*
X113952380Y-104222380D01*
X127722380Y-66976190D02*
X126722380Y-66976190D01*
X126817619Y-66547619D02*
X126770000Y-66500000D01*
X126722380Y-66404761D01*
X126722380Y-66166666D01*
X126770000Y-66071428D01*
X126817619Y-66023809D01*
X126912857Y-65976190D01*
X127008095Y-65976190D01*
X127150952Y-66023809D01*
X127722380Y-66595238D01*
X127722380Y-65976190D01*
X127627142Y-64976190D02*
X127674761Y-65023809D01*
X127722380Y-65166666D01*
X127722380Y-65261904D01*
X127674761Y-65404761D01*
X127579523Y-65500000D01*
X127484285Y-65547619D01*
X127293809Y-65595238D01*
X127150952Y-65595238D01*
X126960476Y-65547619D01*
X126865238Y-65500000D01*
X126770000Y-65404761D01*
X126722380Y-65261904D01*
X126722380Y-65166666D01*
X126770000Y-65023809D01*
X126817619Y-64976190D01*
X116833333Y-95132380D02*
X116500000Y-94656190D01*
X116261904Y-95132380D02*
X116261904Y-94132380D01*
X116642857Y-94132380D01*
X116738095Y-94180000D01*
X116785714Y-94227619D01*
X116833333Y-94322857D01*
X116833333Y-94465714D01*
X116785714Y-94560952D01*
X116738095Y-94608571D01*
X116642857Y-94656190D01*
X116261904Y-94656190D01*
X117785714Y-95132380D02*
X117214285Y-95132380D01*
X117500000Y-95132380D02*
X117500000Y-94132380D01*
X117404761Y-94275238D01*
X117309523Y-94370476D01*
X117214285Y-94418095D01*
X116833333Y-99132380D02*
X116500000Y-98656190D01*
X116261904Y-99132380D02*
X116261904Y-98132380D01*
X116642857Y-98132380D01*
X116738095Y-98180000D01*
X116785714Y-98227619D01*
X116833333Y-98322857D01*
X116833333Y-98465714D01*
X116785714Y-98560952D01*
X116738095Y-98608571D01*
X116642857Y-98656190D01*
X116261904Y-98656190D01*
X117214285Y-98227619D02*
X117261904Y-98180000D01*
X117357142Y-98132380D01*
X117595238Y-98132380D01*
X117690476Y-98180000D01*
X117738095Y-98227619D01*
X117785714Y-98322857D01*
X117785714Y-98418095D01*
X117738095Y-98560952D01*
X117166666Y-99132380D01*
X117785714Y-99132380D01*
X120952380Y-71654166D02*
X120476190Y-71987500D01*
X120952380Y-72225595D02*
X119952380Y-72225595D01*
X119952380Y-71844642D01*
X120000000Y-71749404D01*
X120047619Y-71701785D01*
X120142857Y-71654166D01*
X120285714Y-71654166D01*
X120380952Y-71701785D01*
X120428571Y-71749404D01*
X120476190Y-71844642D01*
X120476190Y-72225595D01*
X120285714Y-70797023D02*
X120952380Y-70797023D01*
X119904761Y-71035119D02*
X120619047Y-71273214D01*
X120619047Y-70654166D01*
X127772380Y-71654166D02*
X127296190Y-71987500D01*
X127772380Y-72225595D02*
X126772380Y-72225595D01*
X126772380Y-71844642D01*
X126820000Y-71749404D01*
X126867619Y-71701785D01*
X126962857Y-71654166D01*
X127105714Y-71654166D01*
X127200952Y-71701785D01*
X127248571Y-71749404D01*
X127296190Y-71844642D01*
X127296190Y-72225595D01*
X126772380Y-70749404D02*
X126772380Y-71225595D01*
X127248571Y-71273214D01*
X127200952Y-71225595D01*
X127153333Y-71130357D01*
X127153333Y-70892261D01*
X127200952Y-70797023D01*
X127248571Y-70749404D01*
X127343809Y-70701785D01*
X127581904Y-70701785D01*
X127677142Y-70749404D01*
X127724761Y-70797023D01*
X127772380Y-70892261D01*
X127772380Y-71130357D01*
X127724761Y-71225595D01*
X127677142Y-71273214D01*
X90452380Y-71166666D02*
X89976190Y-71500000D01*
X90452380Y-71738095D02*
X89452380Y-71738095D01*
X89452380Y-71357142D01*
X89500000Y-71261904D01*
X89547619Y-71214285D01*
X89642857Y-71166666D01*
X89785714Y-71166666D01*
X89880952Y-71214285D01*
X89928571Y-71261904D01*
X89976190Y-71357142D01*
X89976190Y-71738095D01*
X89452380Y-70309523D02*
X89452380Y-70500000D01*
X89500000Y-70595238D01*
X89547619Y-70642857D01*
X89690476Y-70738095D01*
X89880952Y-70785714D01*
X90261904Y-70785714D01*
X90357142Y-70738095D01*
X90404761Y-70690476D01*
X90452380Y-70595238D01*
X90452380Y-70404761D01*
X90404761Y-70309523D01*
X90357142Y-70261904D01*
X90261904Y-70214285D01*
X90023809Y-70214285D01*
X89928571Y-70261904D01*
X89880952Y-70309523D01*
X89833333Y-70404761D01*
X89833333Y-70595238D01*
X89880952Y-70690476D01*
X89928571Y-70738095D01*
X90023809Y-70785714D01*
X90452380Y-86191666D02*
X89976190Y-86525000D01*
X90452380Y-86763095D02*
X89452380Y-86763095D01*
X89452380Y-86382142D01*
X89500000Y-86286904D01*
X89547619Y-86239285D01*
X89642857Y-86191666D01*
X89785714Y-86191666D01*
X89880952Y-86239285D01*
X89928571Y-86286904D01*
X89976190Y-86382142D01*
X89976190Y-86763095D01*
X89452380Y-85858333D02*
X89452380Y-85191666D01*
X90452380Y-85620238D01*
X114820833Y-71452380D02*
X114487500Y-70976190D01*
X114249404Y-71452380D02*
X114249404Y-70452380D01*
X114630357Y-70452380D01*
X114725595Y-70500000D01*
X114773214Y-70547619D01*
X114820833Y-70642857D01*
X114820833Y-70785714D01*
X114773214Y-70880952D01*
X114725595Y-70928571D01*
X114630357Y-70976190D01*
X114249404Y-70976190D01*
X115392261Y-70880952D02*
X115297023Y-70833333D01*
X115249404Y-70785714D01*
X115201785Y-70690476D01*
X115201785Y-70642857D01*
X115249404Y-70547619D01*
X115297023Y-70500000D01*
X115392261Y-70452380D01*
X115582738Y-70452380D01*
X115677976Y-70500000D01*
X115725595Y-70547619D01*
X115773214Y-70642857D01*
X115773214Y-70690476D01*
X115725595Y-70785714D01*
X115677976Y-70833333D01*
X115582738Y-70880952D01*
X115392261Y-70880952D01*
X115297023Y-70928571D01*
X115249404Y-70976190D01*
X115201785Y-71071428D01*
X115201785Y-71261904D01*
X115249404Y-71357142D01*
X115297023Y-71404761D01*
X115392261Y-71452380D01*
X115582738Y-71452380D01*
X115677976Y-71404761D01*
X115725595Y-71357142D01*
X115773214Y-71261904D01*
X115773214Y-71071428D01*
X115725595Y-70976190D01*
X115677976Y-70928571D01*
X115582738Y-70880952D01*
X131952380Y-71666666D02*
X131476190Y-72000000D01*
X131952380Y-72238095D02*
X130952380Y-72238095D01*
X130952380Y-71857142D01*
X131000000Y-71761904D01*
X131047619Y-71714285D01*
X131142857Y-71666666D01*
X131285714Y-71666666D01*
X131380952Y-71714285D01*
X131428571Y-71761904D01*
X131476190Y-71857142D01*
X131476190Y-72238095D01*
X131952380Y-71190476D02*
X131952380Y-71000000D01*
X131904761Y-70904761D01*
X131857142Y-70857142D01*
X131714285Y-70761904D01*
X131523809Y-70714285D01*
X131142857Y-70714285D01*
X131047619Y-70761904D01*
X131000000Y-70809523D01*
X130952380Y-70904761D01*
X130952380Y-71095238D01*
X131000000Y-71190476D01*
X131047619Y-71238095D01*
X131142857Y-71285714D01*
X131380952Y-71285714D01*
X131476190Y-71238095D01*
X131523809Y-71190476D01*
X131571428Y-71095238D01*
X131571428Y-70904761D01*
X131523809Y-70809523D01*
X131476190Y-70761904D01*
X131380952Y-70714285D01*
X134993142Y-93416380D02*
X134659809Y-92940190D01*
X134421714Y-93416380D02*
X134421714Y-92416380D01*
X134802666Y-92416380D01*
X134897904Y-92464000D01*
X134945523Y-92511619D01*
X134993142Y-92606857D01*
X134993142Y-92749714D01*
X134945523Y-92844952D01*
X134897904Y-92892571D01*
X134802666Y-92940190D01*
X134421714Y-92940190D01*
X135945523Y-93416380D02*
X135374095Y-93416380D01*
X135659809Y-93416380D02*
X135659809Y-92416380D01*
X135564571Y-92559238D01*
X135469333Y-92654476D01*
X135374095Y-92702095D01*
X136564571Y-92416380D02*
X136659809Y-92416380D01*
X136755047Y-92464000D01*
X136802666Y-92511619D01*
X136850285Y-92606857D01*
X136897904Y-92797333D01*
X136897904Y-93035428D01*
X136850285Y-93225904D01*
X136802666Y-93321142D01*
X136755047Y-93368761D01*
X136659809Y-93416380D01*
X136564571Y-93416380D01*
X136469333Y-93368761D01*
X136421714Y-93321142D01*
X136374095Y-93225904D01*
X136326476Y-93035428D01*
X136326476Y-92797333D01*
X136374095Y-92606857D01*
X136421714Y-92511619D01*
X136469333Y-92464000D01*
X136564571Y-92416380D01*
X128857142Y-105452380D02*
X128523809Y-104976190D01*
X128285714Y-105452380D02*
X128285714Y-104452380D01*
X128666666Y-104452380D01*
X128761904Y-104500000D01*
X128809523Y-104547619D01*
X128857142Y-104642857D01*
X128857142Y-104785714D01*
X128809523Y-104880952D01*
X128761904Y-104928571D01*
X128666666Y-104976190D01*
X128285714Y-104976190D01*
X129809523Y-105452380D02*
X129238095Y-105452380D01*
X129523809Y-105452380D02*
X129523809Y-104452380D01*
X129428571Y-104595238D01*
X129333333Y-104690476D01*
X129238095Y-104738095D01*
X130761904Y-105452380D02*
X130190476Y-105452380D01*
X130476190Y-105452380D02*
X130476190Y-104452380D01*
X130380952Y-104595238D01*
X130285714Y-104690476D01*
X130190476Y-104738095D01*
X144344642Y-82632380D02*
X144011309Y-82156190D01*
X143773214Y-82632380D02*
X143773214Y-81632380D01*
X144154166Y-81632380D01*
X144249404Y-81680000D01*
X144297023Y-81727619D01*
X144344642Y-81822857D01*
X144344642Y-81965714D01*
X144297023Y-82060952D01*
X144249404Y-82108571D01*
X144154166Y-82156190D01*
X143773214Y-82156190D01*
X145344642Y-82537142D02*
X145297023Y-82584761D01*
X145154166Y-82632380D01*
X145058928Y-82632380D01*
X144916071Y-82584761D01*
X144820833Y-82489523D01*
X144773214Y-82394285D01*
X144725595Y-82203809D01*
X144725595Y-82060952D01*
X144773214Y-81870476D01*
X144820833Y-81775238D01*
X144916071Y-81680000D01*
X145058928Y-81632380D01*
X145154166Y-81632380D01*
X145297023Y-81680000D01*
X145344642Y-81727619D01*
X145725595Y-82346666D02*
X146201785Y-82346666D01*
X145630357Y-82632380D02*
X145963690Y-81632380D01*
X146297023Y-82632380D01*
X146630357Y-82632380D02*
X146630357Y-81632380D01*
X147201785Y-82632380D01*
X147201785Y-81632380D01*
X132588095Y-101052380D02*
X132588095Y-101861904D01*
X132635714Y-101957142D01*
X132683333Y-102004761D01*
X132778571Y-102052380D01*
X132969047Y-102052380D01*
X133064285Y-102004761D01*
X133111904Y-101957142D01*
X133159523Y-101861904D01*
X133159523Y-101052380D01*
X133588095Y-101147619D02*
X133635714Y-101100000D01*
X133730952Y-101052380D01*
X133969047Y-101052380D01*
X134064285Y-101100000D01*
X134111904Y-101147619D01*
X134159523Y-101242857D01*
X134159523Y-101338095D01*
X134111904Y-101480952D01*
X133540476Y-102052380D01*
X134159523Y-102052380D01*
M02*
