G04 #@! TF.GenerationSoftware,KiCad,Pcbnew,(5.1.4)-1*
G04 #@! TF.CreationDate,2020-01-17T23:34:28+09:00*
G04 #@! TF.ProjectId,QX20CTRLV1,51583230-4354-4524-9c56-312e6b696361,rev?*
G04 #@! TF.SameCoordinates,Original*
G04 #@! TF.FileFunction,Soldermask,Bot*
G04 #@! TF.FilePolarity,Negative*
%FSLAX46Y46*%
G04 Gerber Fmt 4.6, Leading zero omitted, Abs format (unit mm)*
G04 Created by KiCad (PCBNEW (5.1.4)-1) date 2020-01-17 23:34:28*
%MOMM*%
%LPD*%
G04 APERTURE LIST*
%ADD10C,0.100000*%
G04 APERTURE END LIST*
D10*
G36*
X144274031Y-102482621D02*
G01*
X144303486Y-102491556D01*
X144330623Y-102506062D01*
X144354414Y-102525586D01*
X144373938Y-102549377D01*
X144388444Y-102576514D01*
X144397379Y-102605969D01*
X144401000Y-102642734D01*
X144401000Y-105117266D01*
X144397379Y-105154031D01*
X144388444Y-105183486D01*
X144373938Y-105210623D01*
X144354414Y-105234414D01*
X144330623Y-105253938D01*
X144303486Y-105268444D01*
X144274031Y-105277379D01*
X144237266Y-105281000D01*
X141762734Y-105281000D01*
X141725969Y-105277379D01*
X141696514Y-105268444D01*
X141669377Y-105253938D01*
X141645586Y-105234414D01*
X141626062Y-105210623D01*
X141611556Y-105183486D01*
X141602621Y-105154031D01*
X141599000Y-105117266D01*
X141599000Y-102642734D01*
X141602621Y-102605969D01*
X141611556Y-102576514D01*
X141626062Y-102549377D01*
X141645586Y-102525586D01*
X141669377Y-102506062D01*
X141696514Y-102491556D01*
X141725969Y-102482621D01*
X141762734Y-102479000D01*
X144237266Y-102479000D01*
X144274031Y-102482621D01*
X144274031Y-102482621D01*
G37*
G36*
X104051000Y-105003500D02*
G01*
X101949000Y-105003500D01*
X101949000Y-102996500D01*
X104051000Y-102996500D01*
X104051000Y-105003500D01*
X104051000Y-105003500D01*
G37*
G36*
X77525331Y-101268211D02*
G01*
X77853092Y-101403974D01*
X78148070Y-101601072D01*
X78398928Y-101851930D01*
X78596026Y-102146908D01*
X78731789Y-102474669D01*
X78801000Y-102822616D01*
X78801000Y-103177384D01*
X78731789Y-103525331D01*
X78596026Y-103853092D01*
X78398928Y-104148070D01*
X78148070Y-104398928D01*
X77853092Y-104596026D01*
X77525331Y-104731789D01*
X77177384Y-104801000D01*
X76822616Y-104801000D01*
X76474669Y-104731789D01*
X76146908Y-104596026D01*
X75851930Y-104398928D01*
X75601072Y-104148070D01*
X75403974Y-103853092D01*
X75268211Y-103525331D01*
X75199000Y-103177384D01*
X75199000Y-102822616D01*
X75268211Y-102474669D01*
X75403974Y-102146908D01*
X75601072Y-101851930D01*
X75851930Y-101601072D01*
X76146908Y-101403974D01*
X76474669Y-101268211D01*
X76822616Y-101199000D01*
X77177384Y-101199000D01*
X77525331Y-101268211D01*
X77525331Y-101268211D01*
G37*
G36*
X113401000Y-102901000D02*
G01*
X111599000Y-102901000D01*
X111599000Y-101099000D01*
X113401000Y-101099000D01*
X113401000Y-102901000D01*
X113401000Y-102901000D01*
G37*
G36*
X103145936Y-100461340D02*
G01*
X103244220Y-100471020D01*
X103433381Y-100528401D01*
X103607712Y-100621583D01*
X103760515Y-100746985D01*
X103885917Y-100899788D01*
X103979099Y-101074119D01*
X104036480Y-101263280D01*
X104055855Y-101460000D01*
X104036480Y-101656720D01*
X103979099Y-101845881D01*
X103885917Y-102020212D01*
X103760515Y-102173015D01*
X103607712Y-102298417D01*
X103433381Y-102391599D01*
X103244220Y-102448980D01*
X103145936Y-102458660D01*
X103096795Y-102463500D01*
X102903205Y-102463500D01*
X102854064Y-102458660D01*
X102755780Y-102448980D01*
X102566619Y-102391599D01*
X102392288Y-102298417D01*
X102239485Y-102173015D01*
X102114083Y-102020212D01*
X102020901Y-101845881D01*
X101963520Y-101656720D01*
X101944145Y-101460000D01*
X101963520Y-101263280D01*
X102020901Y-101074119D01*
X102114083Y-100899788D01*
X102239485Y-100746985D01*
X102392288Y-100621583D01*
X102566619Y-100528401D01*
X102755780Y-100471020D01*
X102854064Y-100461340D01*
X102903205Y-100456500D01*
X103096795Y-100456500D01*
X103145936Y-100461340D01*
X103145936Y-100461340D01*
G37*
G36*
X143318433Y-98554893D02*
G01*
X143408657Y-98572839D01*
X143514267Y-98616585D01*
X143663621Y-98678449D01*
X143663622Y-98678450D01*
X143893086Y-98831772D01*
X144088228Y-99026914D01*
X144148234Y-99116720D01*
X144241551Y-99256379D01*
X144252732Y-99283373D01*
X144334266Y-99480211D01*
X144347161Y-99511344D01*
X144401000Y-99782012D01*
X144401000Y-100057988D01*
X144347161Y-100328656D01*
X144241551Y-100583621D01*
X144190675Y-100659763D01*
X144088228Y-100813086D01*
X143893086Y-101008228D01*
X143757235Y-101099000D01*
X143663621Y-101161551D01*
X143573211Y-101199000D01*
X143408657Y-101267161D01*
X143318433Y-101285107D01*
X143137988Y-101321000D01*
X142862012Y-101321000D01*
X142681567Y-101285107D01*
X142591343Y-101267161D01*
X142426789Y-101199000D01*
X142336379Y-101161551D01*
X142242765Y-101099000D01*
X142106914Y-101008228D01*
X141911772Y-100813086D01*
X141809325Y-100659763D01*
X141758449Y-100583621D01*
X141652839Y-100328656D01*
X141599000Y-100057988D01*
X141599000Y-99782012D01*
X141652839Y-99511344D01*
X141665735Y-99480211D01*
X141747268Y-99283373D01*
X141758449Y-99256379D01*
X141851766Y-99116720D01*
X141911772Y-99026914D01*
X142106914Y-98831772D01*
X142336378Y-98678450D01*
X142336379Y-98678449D01*
X142485733Y-98616585D01*
X142591343Y-98572839D01*
X142681567Y-98554893D01*
X142862012Y-98519000D01*
X143137988Y-98519000D01*
X143318433Y-98554893D01*
X143318433Y-98554893D01*
G37*
G36*
X112610443Y-98565519D02*
G01*
X112676627Y-98572037D01*
X112846466Y-98623557D01*
X113002991Y-98707222D01*
X113022560Y-98723282D01*
X113140186Y-98819814D01*
X113222405Y-98920000D01*
X113252778Y-98957009D01*
X113336443Y-99113534D01*
X113387963Y-99283373D01*
X113405359Y-99460000D01*
X113387963Y-99636627D01*
X113336443Y-99806466D01*
X113252778Y-99962991D01*
X113223448Y-99998729D01*
X113140186Y-100100186D01*
X113038729Y-100183448D01*
X113002991Y-100212778D01*
X112846466Y-100296443D01*
X112676627Y-100347963D01*
X112610443Y-100354481D01*
X112544260Y-100361000D01*
X112455740Y-100361000D01*
X112389557Y-100354481D01*
X112323373Y-100347963D01*
X112153534Y-100296443D01*
X111997009Y-100212778D01*
X111961271Y-100183448D01*
X111859814Y-100100186D01*
X111776552Y-99998729D01*
X111747222Y-99962991D01*
X111663557Y-99806466D01*
X111612037Y-99636627D01*
X111594641Y-99460000D01*
X111612037Y-99283373D01*
X111663557Y-99113534D01*
X111747222Y-98957009D01*
X111777595Y-98920000D01*
X111859814Y-98819814D01*
X111977440Y-98723282D01*
X111997009Y-98707222D01*
X112153534Y-98623557D01*
X112323373Y-98572037D01*
X112389558Y-98565518D01*
X112455740Y-98559000D01*
X112544260Y-98559000D01*
X112610443Y-98565519D01*
X112610443Y-98565519D01*
G37*
G36*
X103145936Y-97921340D02*
G01*
X103244220Y-97931020D01*
X103433381Y-97988401D01*
X103607712Y-98081583D01*
X103760515Y-98206985D01*
X103885917Y-98359788D01*
X103979099Y-98534119D01*
X104036480Y-98723280D01*
X104055855Y-98920000D01*
X104036480Y-99116720D01*
X103979099Y-99305881D01*
X103885917Y-99480212D01*
X103760515Y-99633015D01*
X103607712Y-99758417D01*
X103433381Y-99851599D01*
X103244220Y-99908980D01*
X103145936Y-99918660D01*
X103096795Y-99923500D01*
X102903205Y-99923500D01*
X102854064Y-99918660D01*
X102755780Y-99908980D01*
X102566619Y-99851599D01*
X102392288Y-99758417D01*
X102239485Y-99633015D01*
X102114083Y-99480212D01*
X102020901Y-99305881D01*
X101963520Y-99116720D01*
X101944145Y-98920000D01*
X101963520Y-98723280D01*
X102020901Y-98534119D01*
X102114083Y-98359788D01*
X102239485Y-98206985D01*
X102392288Y-98081583D01*
X102566619Y-97988401D01*
X102755780Y-97931020D01*
X102854064Y-97921340D01*
X102903205Y-97916500D01*
X103096795Y-97916500D01*
X103145936Y-97921340D01*
X103145936Y-97921340D01*
G37*
G36*
X112610443Y-96025519D02*
G01*
X112676627Y-96032037D01*
X112846466Y-96083557D01*
X113002991Y-96167222D01*
X113038729Y-96196552D01*
X113140186Y-96279814D01*
X113213096Y-96368657D01*
X113252778Y-96417009D01*
X113336443Y-96573534D01*
X113387963Y-96743373D01*
X113405359Y-96920000D01*
X113387963Y-97096627D01*
X113336443Y-97266466D01*
X113252778Y-97422991D01*
X113223448Y-97458729D01*
X113140186Y-97560186D01*
X113038729Y-97643448D01*
X113002991Y-97672778D01*
X112846466Y-97756443D01*
X112676627Y-97807963D01*
X112610443Y-97814481D01*
X112544260Y-97821000D01*
X112455740Y-97821000D01*
X112389557Y-97814481D01*
X112323373Y-97807963D01*
X112153534Y-97756443D01*
X111997009Y-97672778D01*
X111961271Y-97643448D01*
X111859814Y-97560186D01*
X111776552Y-97458729D01*
X111747222Y-97422991D01*
X111663557Y-97266466D01*
X111612037Y-97096627D01*
X111594641Y-96920000D01*
X111612037Y-96743373D01*
X111663557Y-96573534D01*
X111747222Y-96417009D01*
X111786904Y-96368657D01*
X111859814Y-96279814D01*
X111961271Y-96196552D01*
X111997009Y-96167222D01*
X112153534Y-96083557D01*
X112323373Y-96032037D01*
X112389557Y-96025519D01*
X112455740Y-96019000D01*
X112544260Y-96019000D01*
X112610443Y-96025519D01*
X112610443Y-96025519D01*
G37*
G36*
X143318433Y-94594893D02*
G01*
X143408657Y-94612839D01*
X143514267Y-94656585D01*
X143663621Y-94718449D01*
X143663622Y-94718450D01*
X143893086Y-94871772D01*
X144088228Y-95066914D01*
X144190675Y-95220237D01*
X144241551Y-95296379D01*
X144303415Y-95445733D01*
X144330593Y-95511344D01*
X144347161Y-95551344D01*
X144401000Y-95822012D01*
X144401000Y-96097988D01*
X144365107Y-96278433D01*
X144355118Y-96328656D01*
X144347161Y-96368656D01*
X144241551Y-96623621D01*
X144241550Y-96623622D01*
X144088228Y-96853086D01*
X143893086Y-97048228D01*
X143820654Y-97096625D01*
X143663621Y-97201551D01*
X143514267Y-97263415D01*
X143408657Y-97307161D01*
X143318433Y-97325107D01*
X143137988Y-97361000D01*
X142862012Y-97361000D01*
X142681567Y-97325107D01*
X142591343Y-97307161D01*
X142485733Y-97263415D01*
X142336379Y-97201551D01*
X142179346Y-97096625D01*
X142106914Y-97048228D01*
X141911772Y-96853086D01*
X141758450Y-96623622D01*
X141758449Y-96623621D01*
X141652839Y-96368656D01*
X141644883Y-96328656D01*
X141634893Y-96278433D01*
X141599000Y-96097988D01*
X141599000Y-95822012D01*
X141652839Y-95551344D01*
X141669408Y-95511344D01*
X141696585Y-95445733D01*
X141758449Y-95296379D01*
X141809325Y-95220237D01*
X141911772Y-95066914D01*
X142106914Y-94871772D01*
X142336378Y-94718450D01*
X142336379Y-94718449D01*
X142485733Y-94656585D01*
X142591343Y-94612839D01*
X142681567Y-94594893D01*
X142862012Y-94559000D01*
X143137988Y-94559000D01*
X143318433Y-94594893D01*
X143318433Y-94594893D01*
G37*
G36*
X85818433Y-94554893D02*
G01*
X85908657Y-94572839D01*
X86005225Y-94612839D01*
X86163621Y-94678449D01*
X86163622Y-94678450D01*
X86393086Y-94831772D01*
X86588228Y-95026914D01*
X86690675Y-95180237D01*
X86741551Y-95256379D01*
X86803415Y-95405733D01*
X86847161Y-95511343D01*
X86865107Y-95601567D01*
X86901000Y-95782012D01*
X86901000Y-96057988D01*
X86879272Y-96167221D01*
X86847161Y-96328657D01*
X86830592Y-96368657D01*
X86741551Y-96583621D01*
X86741550Y-96583622D01*
X86588228Y-96813086D01*
X86393086Y-97008228D01*
X86333221Y-97048228D01*
X86163621Y-97161551D01*
X86067052Y-97201551D01*
X85908657Y-97267161D01*
X85818433Y-97285107D01*
X85637988Y-97321000D01*
X85362012Y-97321000D01*
X85181567Y-97285107D01*
X85091343Y-97267161D01*
X84932948Y-97201551D01*
X84836379Y-97161551D01*
X84666779Y-97048228D01*
X84606914Y-97008228D01*
X84411772Y-96813086D01*
X84258450Y-96583622D01*
X84258449Y-96583621D01*
X84169408Y-96368657D01*
X84152839Y-96328657D01*
X84120728Y-96167221D01*
X84099000Y-96057988D01*
X84099000Y-95782012D01*
X84134893Y-95601567D01*
X84152839Y-95511343D01*
X84196585Y-95405733D01*
X84258449Y-95256379D01*
X84309325Y-95180237D01*
X84411772Y-95026914D01*
X84606914Y-94831772D01*
X84836378Y-94678450D01*
X84836379Y-94678449D01*
X84994775Y-94612839D01*
X85091343Y-94572839D01*
X85181567Y-94554893D01*
X85362012Y-94519000D01*
X85637988Y-94519000D01*
X85818433Y-94554893D01*
X85818433Y-94554893D01*
G37*
G36*
X143318433Y-90634893D02*
G01*
X143408657Y-90652839D01*
X143514267Y-90696585D01*
X143663621Y-90758449D01*
X143663622Y-90758450D01*
X143893086Y-90911772D01*
X144088228Y-91106914D01*
X144190675Y-91260237D01*
X144241551Y-91336379D01*
X144303415Y-91485733D01*
X144330593Y-91551344D01*
X144347161Y-91591344D01*
X144393044Y-91822012D01*
X144401000Y-91862014D01*
X144401000Y-92137986D01*
X144355118Y-92368656D01*
X144347161Y-92408656D01*
X144241551Y-92663621D01*
X144241550Y-92663622D01*
X144088228Y-92893086D01*
X143893086Y-93088228D01*
X143739763Y-93190675D01*
X143663621Y-93241551D01*
X143514267Y-93303415D01*
X143408657Y-93347161D01*
X143318433Y-93365107D01*
X143137988Y-93401000D01*
X142862012Y-93401000D01*
X142681567Y-93365107D01*
X142591343Y-93347161D01*
X142485733Y-93303415D01*
X142336379Y-93241551D01*
X142260237Y-93190675D01*
X142106914Y-93088228D01*
X141911772Y-92893086D01*
X141758450Y-92663622D01*
X141758449Y-92663621D01*
X141652839Y-92408656D01*
X141644883Y-92368656D01*
X141599000Y-92137986D01*
X141599000Y-91862014D01*
X141606957Y-91822012D01*
X141652839Y-91591344D01*
X141669408Y-91551344D01*
X141696585Y-91485733D01*
X141758449Y-91336379D01*
X141809325Y-91260237D01*
X141911772Y-91106914D01*
X142106914Y-90911772D01*
X142336378Y-90758450D01*
X142336379Y-90758449D01*
X142485733Y-90696585D01*
X142591343Y-90652839D01*
X142681567Y-90634893D01*
X142862012Y-90599000D01*
X143137988Y-90599000D01*
X143318433Y-90634893D01*
X143318433Y-90634893D01*
G37*
G36*
X85818433Y-90594893D02*
G01*
X85908657Y-90612839D01*
X86005225Y-90652839D01*
X86163621Y-90718449D01*
X86163622Y-90718450D01*
X86393086Y-90871772D01*
X86588228Y-91066914D01*
X86690675Y-91220237D01*
X86741551Y-91296379D01*
X86803415Y-91445733D01*
X86847161Y-91551343D01*
X86865107Y-91641567D01*
X86901000Y-91822012D01*
X86901000Y-92097988D01*
X86865107Y-92278433D01*
X86847161Y-92368657D01*
X86830592Y-92408657D01*
X86741551Y-92623621D01*
X86741550Y-92623622D01*
X86588228Y-92853086D01*
X86393086Y-93048228D01*
X86333221Y-93088228D01*
X86163621Y-93201551D01*
X86067052Y-93241551D01*
X85908657Y-93307161D01*
X85818433Y-93325107D01*
X85637988Y-93361000D01*
X85362012Y-93361000D01*
X85181567Y-93325107D01*
X85091343Y-93307161D01*
X84932948Y-93241551D01*
X84836379Y-93201551D01*
X84666779Y-93088228D01*
X84606914Y-93048228D01*
X84411772Y-92853086D01*
X84258450Y-92623622D01*
X84258449Y-92623621D01*
X84169408Y-92408657D01*
X84152839Y-92368657D01*
X84134893Y-92278433D01*
X84099000Y-92097988D01*
X84099000Y-91822012D01*
X84134893Y-91641567D01*
X84152839Y-91551343D01*
X84196585Y-91445733D01*
X84258449Y-91296379D01*
X84309325Y-91220237D01*
X84411772Y-91066914D01*
X84606914Y-90871772D01*
X84836378Y-90718450D01*
X84836379Y-90718449D01*
X84994775Y-90652839D01*
X85091343Y-90612839D01*
X85181567Y-90594893D01*
X85362012Y-90559000D01*
X85637988Y-90559000D01*
X85818433Y-90594893D01*
X85818433Y-90594893D01*
G37*
G36*
X86774031Y-86602621D02*
G01*
X86803486Y-86611556D01*
X86830623Y-86626062D01*
X86854414Y-86645586D01*
X86873938Y-86669377D01*
X86888444Y-86696514D01*
X86897379Y-86725969D01*
X86901000Y-86762734D01*
X86901000Y-89237266D01*
X86897379Y-89274031D01*
X86888444Y-89303486D01*
X86873938Y-89330623D01*
X86854414Y-89354414D01*
X86830623Y-89373938D01*
X86803486Y-89388444D01*
X86774031Y-89397379D01*
X86737266Y-89401000D01*
X84262734Y-89401000D01*
X84225969Y-89397379D01*
X84196514Y-89388444D01*
X84169377Y-89373938D01*
X84145586Y-89354414D01*
X84126062Y-89330623D01*
X84111556Y-89303486D01*
X84102621Y-89274031D01*
X84099000Y-89237266D01*
X84099000Y-86762734D01*
X84102621Y-86725969D01*
X84111556Y-86696514D01*
X84126062Y-86669377D01*
X84145586Y-86645586D01*
X84169377Y-86626062D01*
X84196514Y-86611556D01*
X84225969Y-86602621D01*
X84262734Y-86599000D01*
X86737266Y-86599000D01*
X86774031Y-86602621D01*
X86774031Y-86602621D01*
G37*
G36*
X102153642Y-86689781D02*
G01*
X102299414Y-86750162D01*
X102299416Y-86750163D01*
X102430608Y-86837822D01*
X102542178Y-86949392D01*
X102629837Y-87080584D01*
X102629838Y-87080586D01*
X102690219Y-87226358D01*
X102721000Y-87381107D01*
X102721000Y-87538893D01*
X102690219Y-87693642D01*
X102629838Y-87839414D01*
X102629837Y-87839416D01*
X102542178Y-87970608D01*
X102430608Y-88082178D01*
X102299416Y-88169837D01*
X102299415Y-88169838D01*
X102299414Y-88169838D01*
X102153642Y-88230219D01*
X101998893Y-88261000D01*
X101841107Y-88261000D01*
X101686358Y-88230219D01*
X101540586Y-88169838D01*
X101540585Y-88169838D01*
X101540584Y-88169837D01*
X101409392Y-88082178D01*
X101297822Y-87970608D01*
X101210163Y-87839416D01*
X101210162Y-87839414D01*
X101149781Y-87693642D01*
X101119000Y-87538893D01*
X101119000Y-87381107D01*
X101149781Y-87226358D01*
X101210162Y-87080586D01*
X101210163Y-87080584D01*
X101297822Y-86949392D01*
X101409392Y-86837822D01*
X101540584Y-86750163D01*
X101540586Y-86750162D01*
X101686358Y-86689781D01*
X101841107Y-86659000D01*
X101998893Y-86659000D01*
X102153642Y-86689781D01*
X102153642Y-86689781D01*
G37*
G36*
X99613642Y-86689781D02*
G01*
X99759414Y-86750162D01*
X99759416Y-86750163D01*
X99890608Y-86837822D01*
X100002178Y-86949392D01*
X100089837Y-87080584D01*
X100089838Y-87080586D01*
X100150219Y-87226358D01*
X100181000Y-87381107D01*
X100181000Y-87538893D01*
X100150219Y-87693642D01*
X100089838Y-87839414D01*
X100089837Y-87839416D01*
X100002178Y-87970608D01*
X99890608Y-88082178D01*
X99759416Y-88169837D01*
X99759415Y-88169838D01*
X99759414Y-88169838D01*
X99613642Y-88230219D01*
X99458893Y-88261000D01*
X99301107Y-88261000D01*
X99146358Y-88230219D01*
X99000586Y-88169838D01*
X99000585Y-88169838D01*
X99000584Y-88169837D01*
X98869392Y-88082178D01*
X98757822Y-87970608D01*
X98670163Y-87839416D01*
X98670162Y-87839414D01*
X98609781Y-87693642D01*
X98579000Y-87538893D01*
X98579000Y-87381107D01*
X98609781Y-87226358D01*
X98670162Y-87080586D01*
X98670163Y-87080584D01*
X98757822Y-86949392D01*
X98869392Y-86837822D01*
X99000584Y-86750163D01*
X99000586Y-86750162D01*
X99146358Y-86689781D01*
X99301107Y-86659000D01*
X99458893Y-86659000D01*
X99613642Y-86689781D01*
X99613642Y-86689781D01*
G37*
G36*
X97073642Y-86689781D02*
G01*
X97219414Y-86750162D01*
X97219416Y-86750163D01*
X97350608Y-86837822D01*
X97462178Y-86949392D01*
X97549837Y-87080584D01*
X97549838Y-87080586D01*
X97610219Y-87226358D01*
X97641000Y-87381107D01*
X97641000Y-87538893D01*
X97610219Y-87693642D01*
X97549838Y-87839414D01*
X97549837Y-87839416D01*
X97462178Y-87970608D01*
X97350608Y-88082178D01*
X97219416Y-88169837D01*
X97219415Y-88169838D01*
X97219414Y-88169838D01*
X97073642Y-88230219D01*
X96918893Y-88261000D01*
X96761107Y-88261000D01*
X96606358Y-88230219D01*
X96460586Y-88169838D01*
X96460585Y-88169838D01*
X96460584Y-88169837D01*
X96329392Y-88082178D01*
X96217822Y-87970608D01*
X96130163Y-87839416D01*
X96130162Y-87839414D01*
X96069781Y-87693642D01*
X96039000Y-87538893D01*
X96039000Y-87381107D01*
X96069781Y-87226358D01*
X96130162Y-87080586D01*
X96130163Y-87080584D01*
X96217822Y-86949392D01*
X96329392Y-86837822D01*
X96460584Y-86750163D01*
X96460586Y-86750162D01*
X96606358Y-86689781D01*
X96761107Y-86659000D01*
X96918893Y-86659000D01*
X97073642Y-86689781D01*
X97073642Y-86689781D01*
G37*
G36*
X104693642Y-86689781D02*
G01*
X104839414Y-86750162D01*
X104839416Y-86750163D01*
X104970608Y-86837822D01*
X105082178Y-86949392D01*
X105169837Y-87080584D01*
X105169838Y-87080586D01*
X105230219Y-87226358D01*
X105261000Y-87381107D01*
X105261000Y-87538893D01*
X105230219Y-87693642D01*
X105169838Y-87839414D01*
X105169837Y-87839416D01*
X105082178Y-87970608D01*
X104970608Y-88082178D01*
X104839416Y-88169837D01*
X104839415Y-88169838D01*
X104839414Y-88169838D01*
X104693642Y-88230219D01*
X104538893Y-88261000D01*
X104381107Y-88261000D01*
X104226358Y-88230219D01*
X104080586Y-88169838D01*
X104080585Y-88169838D01*
X104080584Y-88169837D01*
X103949392Y-88082178D01*
X103837822Y-87970608D01*
X103750163Y-87839416D01*
X103750162Y-87839414D01*
X103689781Y-87693642D01*
X103659000Y-87538893D01*
X103659000Y-87381107D01*
X103689781Y-87226358D01*
X103750162Y-87080586D01*
X103750163Y-87080584D01*
X103837822Y-86949392D01*
X103949392Y-86837822D01*
X104080584Y-86750163D01*
X104080586Y-86750162D01*
X104226358Y-86689781D01*
X104381107Y-86659000D01*
X104538893Y-86659000D01*
X104693642Y-86689781D01*
X104693642Y-86689781D01*
G37*
G36*
X107233642Y-86689781D02*
G01*
X107379414Y-86750162D01*
X107379416Y-86750163D01*
X107510608Y-86837822D01*
X107622178Y-86949392D01*
X107709837Y-87080584D01*
X107709838Y-87080586D01*
X107770219Y-87226358D01*
X107801000Y-87381107D01*
X107801000Y-87538893D01*
X107770219Y-87693642D01*
X107709838Y-87839414D01*
X107709837Y-87839416D01*
X107622178Y-87970608D01*
X107510608Y-88082178D01*
X107379416Y-88169837D01*
X107379415Y-88169838D01*
X107379414Y-88169838D01*
X107233642Y-88230219D01*
X107078893Y-88261000D01*
X106921107Y-88261000D01*
X106766358Y-88230219D01*
X106620586Y-88169838D01*
X106620585Y-88169838D01*
X106620584Y-88169837D01*
X106489392Y-88082178D01*
X106377822Y-87970608D01*
X106290163Y-87839416D01*
X106290162Y-87839414D01*
X106229781Y-87693642D01*
X106199000Y-87538893D01*
X106199000Y-87381107D01*
X106229781Y-87226358D01*
X106290162Y-87080586D01*
X106290163Y-87080584D01*
X106377822Y-86949392D01*
X106489392Y-86837822D01*
X106620584Y-86750163D01*
X106620586Y-86750162D01*
X106766358Y-86689781D01*
X106921107Y-86659000D01*
X107078893Y-86659000D01*
X107233642Y-86689781D01*
X107233642Y-86689781D01*
G37*
G36*
X152525331Y-82768211D02*
G01*
X152853092Y-82903974D01*
X153148070Y-83101072D01*
X153398928Y-83351930D01*
X153596026Y-83646908D01*
X153731789Y-83974669D01*
X153801000Y-84322616D01*
X153801000Y-84677384D01*
X153731789Y-85025331D01*
X153596026Y-85353092D01*
X153398928Y-85648070D01*
X153148070Y-85898928D01*
X152853092Y-86096026D01*
X152525331Y-86231789D01*
X152177384Y-86301000D01*
X151822616Y-86301000D01*
X151474669Y-86231789D01*
X151146908Y-86096026D01*
X150851930Y-85898928D01*
X150601072Y-85648070D01*
X150403974Y-85353092D01*
X150268211Y-85025331D01*
X150199000Y-84677384D01*
X150199000Y-84322616D01*
X150268211Y-83974669D01*
X150403974Y-83646908D01*
X150601072Y-83351930D01*
X150851930Y-83101072D01*
X151146908Y-82903974D01*
X151474669Y-82768211D01*
X151822616Y-82699000D01*
X152177384Y-82699000D01*
X152525331Y-82768211D01*
X152525331Y-82768211D01*
G37*
G36*
X97073642Y-84149781D02*
G01*
X97219414Y-84210162D01*
X97219416Y-84210163D01*
X97350608Y-84297822D01*
X97462178Y-84409392D01*
X97549837Y-84540584D01*
X97549838Y-84540586D01*
X97610219Y-84686358D01*
X97641000Y-84841107D01*
X97641000Y-84998893D01*
X97610219Y-85153642D01*
X97549838Y-85299414D01*
X97549837Y-85299416D01*
X97462178Y-85430608D01*
X97350608Y-85542178D01*
X97219416Y-85629837D01*
X97219415Y-85629838D01*
X97219414Y-85629838D01*
X97073642Y-85690219D01*
X96918893Y-85721000D01*
X96761107Y-85721000D01*
X96606358Y-85690219D01*
X96460586Y-85629838D01*
X96460585Y-85629838D01*
X96460584Y-85629837D01*
X96329392Y-85542178D01*
X96217822Y-85430608D01*
X96130163Y-85299416D01*
X96130162Y-85299414D01*
X96069781Y-85153642D01*
X96039000Y-84998893D01*
X96039000Y-84841107D01*
X96069781Y-84686358D01*
X96130162Y-84540586D01*
X96130163Y-84540584D01*
X96217822Y-84409392D01*
X96329392Y-84297822D01*
X96460584Y-84210163D01*
X96460586Y-84210162D01*
X96606358Y-84149781D01*
X96761107Y-84119000D01*
X96918893Y-84119000D01*
X97073642Y-84149781D01*
X97073642Y-84149781D01*
G37*
G36*
X107233642Y-84149781D02*
G01*
X107379414Y-84210162D01*
X107379416Y-84210163D01*
X107510608Y-84297822D01*
X107622178Y-84409392D01*
X107709837Y-84540584D01*
X107709838Y-84540586D01*
X107770219Y-84686358D01*
X107801000Y-84841107D01*
X107801000Y-84998893D01*
X107770219Y-85153642D01*
X107709838Y-85299414D01*
X107709837Y-85299416D01*
X107622178Y-85430608D01*
X107510608Y-85542178D01*
X107379416Y-85629837D01*
X107379415Y-85629838D01*
X107379414Y-85629838D01*
X107233642Y-85690219D01*
X107078893Y-85721000D01*
X106921107Y-85721000D01*
X106766358Y-85690219D01*
X106620586Y-85629838D01*
X106620585Y-85629838D01*
X106620584Y-85629837D01*
X106489392Y-85542178D01*
X106377822Y-85430608D01*
X106290163Y-85299416D01*
X106290162Y-85299414D01*
X106229781Y-85153642D01*
X106199000Y-84998893D01*
X106199000Y-84841107D01*
X106229781Y-84686358D01*
X106290162Y-84540586D01*
X106290163Y-84540584D01*
X106377822Y-84409392D01*
X106489392Y-84297822D01*
X106620584Y-84210163D01*
X106620586Y-84210162D01*
X106766358Y-84149781D01*
X106921107Y-84119000D01*
X107078893Y-84119000D01*
X107233642Y-84149781D01*
X107233642Y-84149781D01*
G37*
G36*
X99613642Y-84149781D02*
G01*
X99759414Y-84210162D01*
X99759416Y-84210163D01*
X99890608Y-84297822D01*
X100002178Y-84409392D01*
X100089837Y-84540584D01*
X100089838Y-84540586D01*
X100150219Y-84686358D01*
X100181000Y-84841107D01*
X100181000Y-84998893D01*
X100150219Y-85153642D01*
X100089838Y-85299414D01*
X100089837Y-85299416D01*
X100002178Y-85430608D01*
X99890608Y-85542178D01*
X99759416Y-85629837D01*
X99759415Y-85629838D01*
X99759414Y-85629838D01*
X99613642Y-85690219D01*
X99458893Y-85721000D01*
X99301107Y-85721000D01*
X99146358Y-85690219D01*
X99000586Y-85629838D01*
X99000585Y-85629838D01*
X99000584Y-85629837D01*
X98869392Y-85542178D01*
X98757822Y-85430608D01*
X98670163Y-85299416D01*
X98670162Y-85299414D01*
X98609781Y-85153642D01*
X98579000Y-84998893D01*
X98579000Y-84841107D01*
X98609781Y-84686358D01*
X98670162Y-84540586D01*
X98670163Y-84540584D01*
X98757822Y-84409392D01*
X98869392Y-84297822D01*
X99000584Y-84210163D01*
X99000586Y-84210162D01*
X99146358Y-84149781D01*
X99301107Y-84119000D01*
X99458893Y-84119000D01*
X99613642Y-84149781D01*
X99613642Y-84149781D01*
G37*
G36*
X102153642Y-84149781D02*
G01*
X102299414Y-84210162D01*
X102299416Y-84210163D01*
X102430608Y-84297822D01*
X102542178Y-84409392D01*
X102629837Y-84540584D01*
X102629838Y-84540586D01*
X102690219Y-84686358D01*
X102721000Y-84841107D01*
X102721000Y-84998893D01*
X102690219Y-85153642D01*
X102629838Y-85299414D01*
X102629837Y-85299416D01*
X102542178Y-85430608D01*
X102430608Y-85542178D01*
X102299416Y-85629837D01*
X102299415Y-85629838D01*
X102299414Y-85629838D01*
X102153642Y-85690219D01*
X101998893Y-85721000D01*
X101841107Y-85721000D01*
X101686358Y-85690219D01*
X101540586Y-85629838D01*
X101540585Y-85629838D01*
X101540584Y-85629837D01*
X101409392Y-85542178D01*
X101297822Y-85430608D01*
X101210163Y-85299416D01*
X101210162Y-85299414D01*
X101149781Y-85153642D01*
X101119000Y-84998893D01*
X101119000Y-84841107D01*
X101149781Y-84686358D01*
X101210162Y-84540586D01*
X101210163Y-84540584D01*
X101297822Y-84409392D01*
X101409392Y-84297822D01*
X101540584Y-84210163D01*
X101540586Y-84210162D01*
X101686358Y-84149781D01*
X101841107Y-84119000D01*
X101998893Y-84119000D01*
X102153642Y-84149781D01*
X102153642Y-84149781D01*
G37*
G36*
X104693642Y-84149781D02*
G01*
X104839414Y-84210162D01*
X104839416Y-84210163D01*
X104970608Y-84297822D01*
X105082178Y-84409392D01*
X105169837Y-84540584D01*
X105169838Y-84540586D01*
X105230219Y-84686358D01*
X105261000Y-84841107D01*
X105261000Y-84998893D01*
X105230219Y-85153642D01*
X105169838Y-85299414D01*
X105169837Y-85299416D01*
X105082178Y-85430608D01*
X104970608Y-85542178D01*
X104839416Y-85629837D01*
X104839415Y-85629838D01*
X104839414Y-85629838D01*
X104693642Y-85690219D01*
X104538893Y-85721000D01*
X104381107Y-85721000D01*
X104226358Y-85690219D01*
X104080586Y-85629838D01*
X104080585Y-85629838D01*
X104080584Y-85629837D01*
X103949392Y-85542178D01*
X103837822Y-85430608D01*
X103750163Y-85299416D01*
X103750162Y-85299414D01*
X103689781Y-85153642D01*
X103659000Y-84998893D01*
X103659000Y-84841107D01*
X103689781Y-84686358D01*
X103750162Y-84540586D01*
X103750163Y-84540584D01*
X103837822Y-84409392D01*
X103949392Y-84297822D01*
X104080584Y-84210163D01*
X104080586Y-84210162D01*
X104226358Y-84149781D01*
X104381107Y-84119000D01*
X104538893Y-84119000D01*
X104693642Y-84149781D01*
X104693642Y-84149781D01*
G37*
G36*
X104693642Y-81609781D02*
G01*
X104839414Y-81670162D01*
X104839416Y-81670163D01*
X104970608Y-81757822D01*
X105082178Y-81869392D01*
X105169837Y-82000584D01*
X105169838Y-82000586D01*
X105230219Y-82146358D01*
X105261000Y-82301107D01*
X105261000Y-82458893D01*
X105230219Y-82613642D01*
X105194862Y-82699000D01*
X105169837Y-82759416D01*
X105082178Y-82890608D01*
X104970608Y-83002178D01*
X104839416Y-83089837D01*
X104839415Y-83089838D01*
X104839414Y-83089838D01*
X104693642Y-83150219D01*
X104538893Y-83181000D01*
X104381107Y-83181000D01*
X104226358Y-83150219D01*
X104080586Y-83089838D01*
X104080585Y-83089838D01*
X104080584Y-83089837D01*
X103949392Y-83002178D01*
X103837822Y-82890608D01*
X103750163Y-82759416D01*
X103725138Y-82699000D01*
X103689781Y-82613642D01*
X103659000Y-82458893D01*
X103659000Y-82301107D01*
X103689781Y-82146358D01*
X103750162Y-82000586D01*
X103750163Y-82000584D01*
X103837822Y-81869392D01*
X103949392Y-81757822D01*
X104080584Y-81670163D01*
X104080586Y-81670162D01*
X104226358Y-81609781D01*
X104381107Y-81579000D01*
X104538893Y-81579000D01*
X104693642Y-81609781D01*
X104693642Y-81609781D01*
G37*
G36*
X97073642Y-81609781D02*
G01*
X97219414Y-81670162D01*
X97219416Y-81670163D01*
X97350608Y-81757822D01*
X97462178Y-81869392D01*
X97549837Y-82000584D01*
X97549838Y-82000586D01*
X97610219Y-82146358D01*
X97641000Y-82301107D01*
X97641000Y-82458893D01*
X97610219Y-82613642D01*
X97574862Y-82699000D01*
X97549837Y-82759416D01*
X97462178Y-82890608D01*
X97350608Y-83002178D01*
X97219416Y-83089837D01*
X97219415Y-83089838D01*
X97219414Y-83089838D01*
X97073642Y-83150219D01*
X96918893Y-83181000D01*
X96761107Y-83181000D01*
X96606358Y-83150219D01*
X96460586Y-83089838D01*
X96460585Y-83089838D01*
X96460584Y-83089837D01*
X96329392Y-83002178D01*
X96217822Y-82890608D01*
X96130163Y-82759416D01*
X96105138Y-82699000D01*
X96069781Y-82613642D01*
X96039000Y-82458893D01*
X96039000Y-82301107D01*
X96069781Y-82146358D01*
X96130162Y-82000586D01*
X96130163Y-82000584D01*
X96217822Y-81869392D01*
X96329392Y-81757822D01*
X96460584Y-81670163D01*
X96460586Y-81670162D01*
X96606358Y-81609781D01*
X96761107Y-81579000D01*
X96918893Y-81579000D01*
X97073642Y-81609781D01*
X97073642Y-81609781D01*
G37*
G36*
X99613642Y-81609781D02*
G01*
X99759414Y-81670162D01*
X99759416Y-81670163D01*
X99890608Y-81757822D01*
X100002178Y-81869392D01*
X100089837Y-82000584D01*
X100089838Y-82000586D01*
X100150219Y-82146358D01*
X100181000Y-82301107D01*
X100181000Y-82458893D01*
X100150219Y-82613642D01*
X100114862Y-82699000D01*
X100089837Y-82759416D01*
X100002178Y-82890608D01*
X99890608Y-83002178D01*
X99759416Y-83089837D01*
X99759415Y-83089838D01*
X99759414Y-83089838D01*
X99613642Y-83150219D01*
X99458893Y-83181000D01*
X99301107Y-83181000D01*
X99146358Y-83150219D01*
X99000586Y-83089838D01*
X99000585Y-83089838D01*
X99000584Y-83089837D01*
X98869392Y-83002178D01*
X98757822Y-82890608D01*
X98670163Y-82759416D01*
X98645138Y-82699000D01*
X98609781Y-82613642D01*
X98579000Y-82458893D01*
X98579000Y-82301107D01*
X98609781Y-82146358D01*
X98670162Y-82000586D01*
X98670163Y-82000584D01*
X98757822Y-81869392D01*
X98869392Y-81757822D01*
X99000584Y-81670163D01*
X99000586Y-81670162D01*
X99146358Y-81609781D01*
X99301107Y-81579000D01*
X99458893Y-81579000D01*
X99613642Y-81609781D01*
X99613642Y-81609781D01*
G37*
G36*
X102153642Y-81609781D02*
G01*
X102299414Y-81670162D01*
X102299416Y-81670163D01*
X102430608Y-81757822D01*
X102542178Y-81869392D01*
X102629837Y-82000584D01*
X102629838Y-82000586D01*
X102690219Y-82146358D01*
X102721000Y-82301107D01*
X102721000Y-82458893D01*
X102690219Y-82613642D01*
X102654862Y-82699000D01*
X102629837Y-82759416D01*
X102542178Y-82890608D01*
X102430608Y-83002178D01*
X102299416Y-83089837D01*
X102299415Y-83089838D01*
X102299414Y-83089838D01*
X102153642Y-83150219D01*
X101998893Y-83181000D01*
X101841107Y-83181000D01*
X101686358Y-83150219D01*
X101540586Y-83089838D01*
X101540585Y-83089838D01*
X101540584Y-83089837D01*
X101409392Y-83002178D01*
X101297822Y-82890608D01*
X101210163Y-82759416D01*
X101185138Y-82699000D01*
X101149781Y-82613642D01*
X101119000Y-82458893D01*
X101119000Y-82301107D01*
X101149781Y-82146358D01*
X101210162Y-82000586D01*
X101210163Y-82000584D01*
X101297822Y-81869392D01*
X101409392Y-81757822D01*
X101540584Y-81670163D01*
X101540586Y-81670162D01*
X101686358Y-81609781D01*
X101841107Y-81579000D01*
X101998893Y-81579000D01*
X102153642Y-81609781D01*
X102153642Y-81609781D01*
G37*
G36*
X107233642Y-81609781D02*
G01*
X107379414Y-81670162D01*
X107379416Y-81670163D01*
X107510608Y-81757822D01*
X107622178Y-81869392D01*
X107709837Y-82000584D01*
X107709838Y-82000586D01*
X107770219Y-82146358D01*
X107801000Y-82301107D01*
X107801000Y-82458893D01*
X107770219Y-82613642D01*
X107734862Y-82699000D01*
X107709837Y-82759416D01*
X107622178Y-82890608D01*
X107510608Y-83002178D01*
X107379416Y-83089837D01*
X107379415Y-83089838D01*
X107379414Y-83089838D01*
X107233642Y-83150219D01*
X107078893Y-83181000D01*
X106921107Y-83181000D01*
X106766358Y-83150219D01*
X106620586Y-83089838D01*
X106620585Y-83089838D01*
X106620584Y-83089837D01*
X106489392Y-83002178D01*
X106377822Y-82890608D01*
X106290163Y-82759416D01*
X106265138Y-82699000D01*
X106229781Y-82613642D01*
X106199000Y-82458893D01*
X106199000Y-82301107D01*
X106229781Y-82146358D01*
X106290162Y-82000586D01*
X106290163Y-82000584D01*
X106377822Y-81869392D01*
X106489392Y-81757822D01*
X106620584Y-81670163D01*
X106620586Y-81670162D01*
X106766358Y-81609781D01*
X106921107Y-81579000D01*
X107078893Y-81579000D01*
X107233642Y-81609781D01*
X107233642Y-81609781D01*
G37*
G36*
X85818433Y-79554893D02*
G01*
X85908657Y-79572839D01*
X85989576Y-79606357D01*
X86163621Y-79678449D01*
X86163622Y-79678450D01*
X86393086Y-79831772D01*
X86588228Y-80026914D01*
X86619450Y-80073642D01*
X86741551Y-80256379D01*
X86847161Y-80511344D01*
X86901000Y-80782012D01*
X86901000Y-81057988D01*
X86847161Y-81328656D01*
X86741551Y-81583621D01*
X86741550Y-81583622D01*
X86588228Y-81813086D01*
X86393086Y-82008228D01*
X86239763Y-82110675D01*
X86163621Y-82161551D01*
X86014267Y-82223415D01*
X85908657Y-82267161D01*
X85818433Y-82285107D01*
X85637988Y-82321000D01*
X85362012Y-82321000D01*
X85181567Y-82285107D01*
X85091343Y-82267161D01*
X84985733Y-82223415D01*
X84836379Y-82161551D01*
X84760237Y-82110675D01*
X84606914Y-82008228D01*
X84411772Y-81813086D01*
X84258450Y-81583622D01*
X84258449Y-81583621D01*
X84152839Y-81328656D01*
X84099000Y-81057988D01*
X84099000Y-80782012D01*
X84152839Y-80511344D01*
X84258449Y-80256379D01*
X84380550Y-80073642D01*
X84411772Y-80026914D01*
X84606914Y-79831772D01*
X84836378Y-79678450D01*
X84836379Y-79678449D01*
X85010424Y-79606357D01*
X85091343Y-79572839D01*
X85181567Y-79554893D01*
X85362012Y-79519000D01*
X85637988Y-79519000D01*
X85818433Y-79554893D01*
X85818433Y-79554893D01*
G37*
G36*
X99613642Y-79069781D02*
G01*
X99759414Y-79130162D01*
X99759416Y-79130163D01*
X99890608Y-79217822D01*
X100002178Y-79329392D01*
X100089837Y-79460584D01*
X100089838Y-79460586D01*
X100150219Y-79606358D01*
X100181000Y-79761107D01*
X100181000Y-79918893D01*
X100150219Y-80073642D01*
X100089838Y-80219414D01*
X100089837Y-80219416D01*
X100002178Y-80350608D01*
X99890608Y-80462178D01*
X99759416Y-80549837D01*
X99759415Y-80549838D01*
X99759414Y-80549838D01*
X99613642Y-80610219D01*
X99458893Y-80641000D01*
X99301107Y-80641000D01*
X99146358Y-80610219D01*
X99000586Y-80549838D01*
X99000585Y-80549838D01*
X99000584Y-80549837D01*
X98869392Y-80462178D01*
X98757822Y-80350608D01*
X98670163Y-80219416D01*
X98670162Y-80219414D01*
X98609781Y-80073642D01*
X98579000Y-79918893D01*
X98579000Y-79761107D01*
X98609781Y-79606358D01*
X98670162Y-79460586D01*
X98670163Y-79460584D01*
X98757822Y-79329392D01*
X98869392Y-79217822D01*
X99000584Y-79130163D01*
X99000586Y-79130162D01*
X99146358Y-79069781D01*
X99301107Y-79039000D01*
X99458893Y-79039000D01*
X99613642Y-79069781D01*
X99613642Y-79069781D01*
G37*
G36*
X102153642Y-79069781D02*
G01*
X102299414Y-79130162D01*
X102299416Y-79130163D01*
X102430608Y-79217822D01*
X102542178Y-79329392D01*
X102629837Y-79460584D01*
X102629838Y-79460586D01*
X102690219Y-79606358D01*
X102721000Y-79761107D01*
X102721000Y-79918893D01*
X102690219Y-80073642D01*
X102629838Y-80219414D01*
X102629837Y-80219416D01*
X102542178Y-80350608D01*
X102430608Y-80462178D01*
X102299416Y-80549837D01*
X102299415Y-80549838D01*
X102299414Y-80549838D01*
X102153642Y-80610219D01*
X101998893Y-80641000D01*
X101841107Y-80641000D01*
X101686358Y-80610219D01*
X101540586Y-80549838D01*
X101540585Y-80549838D01*
X101540584Y-80549837D01*
X101409392Y-80462178D01*
X101297822Y-80350608D01*
X101210163Y-80219416D01*
X101210162Y-80219414D01*
X101149781Y-80073642D01*
X101119000Y-79918893D01*
X101119000Y-79761107D01*
X101149781Y-79606358D01*
X101210162Y-79460586D01*
X101210163Y-79460584D01*
X101297822Y-79329392D01*
X101409392Y-79217822D01*
X101540584Y-79130163D01*
X101540586Y-79130162D01*
X101686358Y-79069781D01*
X101841107Y-79039000D01*
X101998893Y-79039000D01*
X102153642Y-79069781D01*
X102153642Y-79069781D01*
G37*
G36*
X107233642Y-79069781D02*
G01*
X107379414Y-79130162D01*
X107379416Y-79130163D01*
X107510608Y-79217822D01*
X107622178Y-79329392D01*
X107709837Y-79460584D01*
X107709838Y-79460586D01*
X107770219Y-79606358D01*
X107801000Y-79761107D01*
X107801000Y-79918893D01*
X107770219Y-80073642D01*
X107709838Y-80219414D01*
X107709837Y-80219416D01*
X107622178Y-80350608D01*
X107510608Y-80462178D01*
X107379416Y-80549837D01*
X107379415Y-80549838D01*
X107379414Y-80549838D01*
X107233642Y-80610219D01*
X107078893Y-80641000D01*
X106921107Y-80641000D01*
X106766358Y-80610219D01*
X106620586Y-80549838D01*
X106620585Y-80549838D01*
X106620584Y-80549837D01*
X106489392Y-80462178D01*
X106377822Y-80350608D01*
X106290163Y-80219416D01*
X106290162Y-80219414D01*
X106229781Y-80073642D01*
X106199000Y-79918893D01*
X106199000Y-79761107D01*
X106229781Y-79606358D01*
X106290162Y-79460586D01*
X106290163Y-79460584D01*
X106377822Y-79329392D01*
X106489392Y-79217822D01*
X106620584Y-79130163D01*
X106620586Y-79130162D01*
X106766358Y-79069781D01*
X106921107Y-79039000D01*
X107078893Y-79039000D01*
X107233642Y-79069781D01*
X107233642Y-79069781D01*
G37*
G36*
X104693642Y-79069781D02*
G01*
X104839414Y-79130162D01*
X104839416Y-79130163D01*
X104970608Y-79217822D01*
X105082178Y-79329392D01*
X105169837Y-79460584D01*
X105169838Y-79460586D01*
X105230219Y-79606358D01*
X105261000Y-79761107D01*
X105261000Y-79918893D01*
X105230219Y-80073642D01*
X105169838Y-80219414D01*
X105169837Y-80219416D01*
X105082178Y-80350608D01*
X104970608Y-80462178D01*
X104839416Y-80549837D01*
X104839415Y-80549838D01*
X104839414Y-80549838D01*
X104693642Y-80610219D01*
X104538893Y-80641000D01*
X104381107Y-80641000D01*
X104226358Y-80610219D01*
X104080586Y-80549838D01*
X104080585Y-80549838D01*
X104080584Y-80549837D01*
X103949392Y-80462178D01*
X103837822Y-80350608D01*
X103750163Y-80219416D01*
X103750162Y-80219414D01*
X103689781Y-80073642D01*
X103659000Y-79918893D01*
X103659000Y-79761107D01*
X103689781Y-79606358D01*
X103750162Y-79460586D01*
X103750163Y-79460584D01*
X103837822Y-79329392D01*
X103949392Y-79217822D01*
X104080584Y-79130163D01*
X104080586Y-79130162D01*
X104226358Y-79069781D01*
X104381107Y-79039000D01*
X104538893Y-79039000D01*
X104693642Y-79069781D01*
X104693642Y-79069781D01*
G37*
G36*
X97073642Y-79069781D02*
G01*
X97219414Y-79130162D01*
X97219416Y-79130163D01*
X97350608Y-79217822D01*
X97462178Y-79329392D01*
X97549837Y-79460584D01*
X97549838Y-79460586D01*
X97610219Y-79606358D01*
X97641000Y-79761107D01*
X97641000Y-79918893D01*
X97610219Y-80073642D01*
X97549838Y-80219414D01*
X97549837Y-80219416D01*
X97462178Y-80350608D01*
X97350608Y-80462178D01*
X97219416Y-80549837D01*
X97219415Y-80549838D01*
X97219414Y-80549838D01*
X97073642Y-80610219D01*
X96918893Y-80641000D01*
X96761107Y-80641000D01*
X96606358Y-80610219D01*
X96460586Y-80549838D01*
X96460585Y-80549838D01*
X96460584Y-80549837D01*
X96329392Y-80462178D01*
X96217822Y-80350608D01*
X96130163Y-80219416D01*
X96130162Y-80219414D01*
X96069781Y-80073642D01*
X96039000Y-79918893D01*
X96039000Y-79761107D01*
X96069781Y-79606358D01*
X96130162Y-79460586D01*
X96130163Y-79460584D01*
X96217822Y-79329392D01*
X96329392Y-79217822D01*
X96460584Y-79130163D01*
X96460586Y-79130162D01*
X96606358Y-79069781D01*
X96761107Y-79039000D01*
X96918893Y-79039000D01*
X97073642Y-79069781D01*
X97073642Y-79069781D01*
G37*
G36*
X134110442Y-76725518D02*
G01*
X134176627Y-76732037D01*
X134346466Y-76783557D01*
X134502991Y-76867222D01*
X134538729Y-76896552D01*
X134640186Y-76979814D01*
X134723448Y-77081271D01*
X134752778Y-77117009D01*
X134836443Y-77273534D01*
X134887963Y-77443373D01*
X134905359Y-77620000D01*
X134887963Y-77796627D01*
X134836443Y-77966466D01*
X134752778Y-78122991D01*
X134727304Y-78154031D01*
X134640186Y-78260186D01*
X134538729Y-78343448D01*
X134502991Y-78372778D01*
X134346466Y-78456443D01*
X134176627Y-78507963D01*
X134110443Y-78514481D01*
X134044260Y-78521000D01*
X133955740Y-78521000D01*
X133889557Y-78514481D01*
X133823373Y-78507963D01*
X133653534Y-78456443D01*
X133497009Y-78372778D01*
X133461271Y-78343448D01*
X133359814Y-78260186D01*
X133272696Y-78154031D01*
X133247222Y-78122991D01*
X133163557Y-77966466D01*
X133112037Y-77796627D01*
X133094641Y-77620000D01*
X133112037Y-77443373D01*
X133163557Y-77273534D01*
X133247222Y-77117009D01*
X133276552Y-77081271D01*
X133359814Y-76979814D01*
X133461271Y-76896552D01*
X133497009Y-76867222D01*
X133653534Y-76783557D01*
X133823373Y-76732037D01*
X133889558Y-76725518D01*
X133955740Y-76719000D01*
X134044260Y-76719000D01*
X134110442Y-76725518D01*
X134110442Y-76725518D01*
G37*
G36*
X85758589Y-75582989D02*
G01*
X85908657Y-75612839D01*
X85980829Y-75642734D01*
X86163621Y-75718449D01*
X86193547Y-75738445D01*
X86393086Y-75871772D01*
X86588228Y-76066914D01*
X86690675Y-76220237D01*
X86741551Y-76296379D01*
X86847161Y-76551344D01*
X86901000Y-76822012D01*
X86901000Y-77097988D01*
X86847161Y-77368656D01*
X86741551Y-77623621D01*
X86741550Y-77623622D01*
X86588228Y-77853086D01*
X86393086Y-78048228D01*
X86239763Y-78150675D01*
X86163621Y-78201551D01*
X86014267Y-78263415D01*
X85908657Y-78307161D01*
X85818433Y-78325107D01*
X85637988Y-78361000D01*
X85362012Y-78361000D01*
X85181567Y-78325107D01*
X85091343Y-78307161D01*
X84985733Y-78263415D01*
X84836379Y-78201551D01*
X84760237Y-78150675D01*
X84606914Y-78048228D01*
X84411772Y-77853086D01*
X84258450Y-77623622D01*
X84258449Y-77623621D01*
X84152839Y-77368656D01*
X84099000Y-77097988D01*
X84099000Y-76822012D01*
X84152839Y-76551344D01*
X84258449Y-76296379D01*
X84309325Y-76220237D01*
X84411772Y-76066914D01*
X84606914Y-75871772D01*
X84806453Y-75738445D01*
X84836379Y-75718449D01*
X85019171Y-75642734D01*
X85091343Y-75612839D01*
X85241411Y-75582989D01*
X85362012Y-75559000D01*
X85637988Y-75559000D01*
X85758589Y-75582989D01*
X85758589Y-75582989D01*
G37*
G36*
X144274031Y-75482621D02*
G01*
X144303486Y-75491556D01*
X144330623Y-75506062D01*
X144354414Y-75525586D01*
X144373938Y-75549377D01*
X144388444Y-75576514D01*
X144397379Y-75605969D01*
X144401000Y-75642734D01*
X144401000Y-78117266D01*
X144397379Y-78154031D01*
X144388444Y-78183486D01*
X144373938Y-78210623D01*
X144354414Y-78234414D01*
X144330623Y-78253938D01*
X144303486Y-78268444D01*
X144274031Y-78277379D01*
X144237266Y-78281000D01*
X141762734Y-78281000D01*
X141725969Y-78277379D01*
X141696514Y-78268444D01*
X141669377Y-78253938D01*
X141645586Y-78234414D01*
X141626062Y-78210623D01*
X141611556Y-78183486D01*
X141602621Y-78154031D01*
X141599000Y-78117266D01*
X141599000Y-75642734D01*
X141602621Y-75605969D01*
X141611556Y-75576514D01*
X141626062Y-75549377D01*
X141645586Y-75525586D01*
X141669377Y-75506062D01*
X141696514Y-75491556D01*
X141725969Y-75482621D01*
X141762734Y-75479000D01*
X144237266Y-75479000D01*
X144274031Y-75482621D01*
X144274031Y-75482621D01*
G37*
G36*
X134110442Y-74185518D02*
G01*
X134176627Y-74192037D01*
X134346466Y-74243557D01*
X134502991Y-74327222D01*
X134536124Y-74354414D01*
X134640186Y-74439814D01*
X134723448Y-74541271D01*
X134752778Y-74577009D01*
X134836443Y-74733534D01*
X134887963Y-74903373D01*
X134905359Y-75080000D01*
X134887963Y-75256627D01*
X134836443Y-75426466D01*
X134752778Y-75582991D01*
X134733920Y-75605969D01*
X134640186Y-75720186D01*
X134538729Y-75803448D01*
X134502991Y-75832778D01*
X134346466Y-75916443D01*
X134176627Y-75967963D01*
X134110442Y-75974482D01*
X134044260Y-75981000D01*
X133955740Y-75981000D01*
X133889558Y-75974482D01*
X133823373Y-75967963D01*
X133653534Y-75916443D01*
X133497009Y-75832778D01*
X133461271Y-75803448D01*
X133359814Y-75720186D01*
X133266080Y-75605969D01*
X133247222Y-75582991D01*
X133163557Y-75426466D01*
X133112037Y-75256627D01*
X133094641Y-75080000D01*
X133112037Y-74903373D01*
X133163557Y-74733534D01*
X133247222Y-74577009D01*
X133276552Y-74541271D01*
X133359814Y-74439814D01*
X133463876Y-74354414D01*
X133497009Y-74327222D01*
X133653534Y-74243557D01*
X133823373Y-74192037D01*
X133889558Y-74185518D01*
X133955740Y-74179000D01*
X134044260Y-74179000D01*
X134110442Y-74185518D01*
X134110442Y-74185518D01*
G37*
G36*
X86774031Y-71602621D02*
G01*
X86803486Y-71611556D01*
X86830623Y-71626062D01*
X86854414Y-71645586D01*
X86873938Y-71669377D01*
X86888444Y-71696514D01*
X86897379Y-71725969D01*
X86901000Y-71762734D01*
X86901000Y-74237266D01*
X86897379Y-74274031D01*
X86888444Y-74303486D01*
X86873938Y-74330623D01*
X86854414Y-74354414D01*
X86830623Y-74373938D01*
X86803486Y-74388444D01*
X86774031Y-74397379D01*
X86737266Y-74401000D01*
X84262734Y-74401000D01*
X84225969Y-74397379D01*
X84196514Y-74388444D01*
X84169377Y-74373938D01*
X84145586Y-74354414D01*
X84126062Y-74330623D01*
X84111556Y-74303486D01*
X84102621Y-74274031D01*
X84099000Y-74237266D01*
X84099000Y-71762734D01*
X84102621Y-71725969D01*
X84111556Y-71696514D01*
X84126062Y-71669377D01*
X84145586Y-71645586D01*
X84169377Y-71626062D01*
X84196514Y-71611556D01*
X84225969Y-71602621D01*
X84262734Y-71599000D01*
X86737266Y-71599000D01*
X86774031Y-71602621D01*
X86774031Y-71602621D01*
G37*
G36*
X143318433Y-71554893D02*
G01*
X143408657Y-71572839D01*
X143480556Y-71602621D01*
X143663621Y-71678449D01*
X143663622Y-71678450D01*
X143893086Y-71831772D01*
X144088228Y-72026914D01*
X144190675Y-72180237D01*
X144241551Y-72256379D01*
X144285869Y-72363373D01*
X144323261Y-72453643D01*
X144347161Y-72511344D01*
X144401000Y-72782012D01*
X144401000Y-73057988D01*
X144376693Y-73180186D01*
X144347161Y-73328657D01*
X144327367Y-73376443D01*
X144241551Y-73583621D01*
X144241550Y-73583622D01*
X144088228Y-73813086D01*
X143893086Y-74008228D01*
X143739763Y-74110675D01*
X143663621Y-74161551D01*
X143590021Y-74192037D01*
X143408657Y-74267161D01*
X143318433Y-74285107D01*
X143137988Y-74321000D01*
X142862012Y-74321000D01*
X142681567Y-74285107D01*
X142591343Y-74267161D01*
X142409979Y-74192037D01*
X142336379Y-74161551D01*
X142260237Y-74110675D01*
X142106914Y-74008228D01*
X141911772Y-73813086D01*
X141758450Y-73583622D01*
X141758449Y-73583621D01*
X141672633Y-73376443D01*
X141652839Y-73328657D01*
X141623307Y-73180186D01*
X141599000Y-73057988D01*
X141599000Y-72782012D01*
X141652839Y-72511344D01*
X141676740Y-72453643D01*
X141714131Y-72363373D01*
X141758449Y-72256379D01*
X141809325Y-72180237D01*
X141911772Y-72026914D01*
X142106914Y-71831772D01*
X142336378Y-71678450D01*
X142336379Y-71678449D01*
X142519444Y-71602621D01*
X142591343Y-71572839D01*
X142681567Y-71554893D01*
X142862012Y-71519000D01*
X143137988Y-71519000D01*
X143318433Y-71554893D01*
X143318433Y-71554893D01*
G37*
G36*
X134110442Y-71645518D02*
G01*
X134176627Y-71652037D01*
X134346466Y-71703557D01*
X134346468Y-71703558D01*
X134357384Y-71709393D01*
X134502991Y-71787222D01*
X134528102Y-71807830D01*
X134640186Y-71899814D01*
X134711209Y-71986357D01*
X134752778Y-72037009D01*
X134836443Y-72193534D01*
X134887963Y-72363373D01*
X134905359Y-72540000D01*
X134887963Y-72716627D01*
X134836443Y-72886466D01*
X134752778Y-73042991D01*
X134740470Y-73057988D01*
X134640186Y-73180186D01*
X134538729Y-73263448D01*
X134502991Y-73292778D01*
X134346466Y-73376443D01*
X134176627Y-73427963D01*
X134110442Y-73434482D01*
X134044260Y-73441000D01*
X133955740Y-73441000D01*
X133889558Y-73434482D01*
X133823373Y-73427963D01*
X133653534Y-73376443D01*
X133497009Y-73292778D01*
X133461271Y-73263448D01*
X133359814Y-73180186D01*
X133259530Y-73057988D01*
X133247222Y-73042991D01*
X133163557Y-72886466D01*
X133112037Y-72716627D01*
X133094641Y-72540000D01*
X133112037Y-72363373D01*
X133163557Y-72193534D01*
X133247222Y-72037009D01*
X133288791Y-71986357D01*
X133359814Y-71899814D01*
X133471898Y-71807830D01*
X133497009Y-71787222D01*
X133642616Y-71709393D01*
X133653532Y-71703558D01*
X133653534Y-71703557D01*
X133823373Y-71652037D01*
X133889558Y-71645518D01*
X133955740Y-71639000D01*
X134044260Y-71639000D01*
X134110442Y-71645518D01*
X134110442Y-71645518D01*
G37*
G36*
X99613642Y-71449781D02*
G01*
X99759414Y-71510162D01*
X99759416Y-71510163D01*
X99890608Y-71597822D01*
X100002178Y-71709392D01*
X100083949Y-71831772D01*
X100089838Y-71840586D01*
X100150219Y-71986358D01*
X100181000Y-72141107D01*
X100181000Y-72298893D01*
X100150219Y-72453642D01*
X100126318Y-72511343D01*
X100089837Y-72599416D01*
X100002178Y-72730608D01*
X99890608Y-72842178D01*
X99759416Y-72929837D01*
X99759415Y-72929838D01*
X99759414Y-72929838D01*
X99613642Y-72990219D01*
X99458893Y-73021000D01*
X99301107Y-73021000D01*
X99146358Y-72990219D01*
X99000586Y-72929838D01*
X99000585Y-72929838D01*
X99000584Y-72929837D01*
X98869392Y-72842178D01*
X98757822Y-72730608D01*
X98670163Y-72599416D01*
X98633682Y-72511343D01*
X98609781Y-72453642D01*
X98579000Y-72298893D01*
X98579000Y-72141107D01*
X98609781Y-71986358D01*
X98670162Y-71840586D01*
X98676051Y-71831772D01*
X98757822Y-71709392D01*
X98869392Y-71597822D01*
X99000584Y-71510163D01*
X99000586Y-71510162D01*
X99146358Y-71449781D01*
X99301107Y-71419000D01*
X99458893Y-71419000D01*
X99613642Y-71449781D01*
X99613642Y-71449781D01*
G37*
G36*
X107233642Y-71449781D02*
G01*
X107379414Y-71510162D01*
X107379416Y-71510163D01*
X107510608Y-71597822D01*
X107622178Y-71709392D01*
X107703949Y-71831772D01*
X107709838Y-71840586D01*
X107770219Y-71986358D01*
X107801000Y-72141107D01*
X107801000Y-72298893D01*
X107770219Y-72453642D01*
X107746318Y-72511343D01*
X107709837Y-72599416D01*
X107622178Y-72730608D01*
X107510608Y-72842178D01*
X107379416Y-72929837D01*
X107379415Y-72929838D01*
X107379414Y-72929838D01*
X107233642Y-72990219D01*
X107078893Y-73021000D01*
X106921107Y-73021000D01*
X106766358Y-72990219D01*
X106620586Y-72929838D01*
X106620585Y-72929838D01*
X106620584Y-72929837D01*
X106489392Y-72842178D01*
X106377822Y-72730608D01*
X106290163Y-72599416D01*
X106253682Y-72511343D01*
X106229781Y-72453642D01*
X106199000Y-72298893D01*
X106199000Y-72141107D01*
X106229781Y-71986358D01*
X106290162Y-71840586D01*
X106296051Y-71831772D01*
X106377822Y-71709392D01*
X106489392Y-71597822D01*
X106620584Y-71510163D01*
X106620586Y-71510162D01*
X106766358Y-71449781D01*
X106921107Y-71419000D01*
X107078893Y-71419000D01*
X107233642Y-71449781D01*
X107233642Y-71449781D01*
G37*
G36*
X104693642Y-71449781D02*
G01*
X104839414Y-71510162D01*
X104839416Y-71510163D01*
X104970608Y-71597822D01*
X105082178Y-71709392D01*
X105163949Y-71831772D01*
X105169838Y-71840586D01*
X105230219Y-71986358D01*
X105261000Y-72141107D01*
X105261000Y-72298893D01*
X105230219Y-72453642D01*
X105206318Y-72511343D01*
X105169837Y-72599416D01*
X105082178Y-72730608D01*
X104970608Y-72842178D01*
X104839416Y-72929837D01*
X104839415Y-72929838D01*
X104839414Y-72929838D01*
X104693642Y-72990219D01*
X104538893Y-73021000D01*
X104381107Y-73021000D01*
X104226358Y-72990219D01*
X104080586Y-72929838D01*
X104080585Y-72929838D01*
X104080584Y-72929837D01*
X103949392Y-72842178D01*
X103837822Y-72730608D01*
X103750163Y-72599416D01*
X103713682Y-72511343D01*
X103689781Y-72453642D01*
X103659000Y-72298893D01*
X103659000Y-72141107D01*
X103689781Y-71986358D01*
X103750162Y-71840586D01*
X103756051Y-71831772D01*
X103837822Y-71709392D01*
X103949392Y-71597822D01*
X104080584Y-71510163D01*
X104080586Y-71510162D01*
X104226358Y-71449781D01*
X104381107Y-71419000D01*
X104538893Y-71419000D01*
X104693642Y-71449781D01*
X104693642Y-71449781D01*
G37*
G36*
X102153642Y-71449781D02*
G01*
X102299414Y-71510162D01*
X102299416Y-71510163D01*
X102430608Y-71597822D01*
X102542178Y-71709392D01*
X102623949Y-71831772D01*
X102629838Y-71840586D01*
X102690219Y-71986358D01*
X102721000Y-72141107D01*
X102721000Y-72298893D01*
X102690219Y-72453642D01*
X102666318Y-72511343D01*
X102629837Y-72599416D01*
X102542178Y-72730608D01*
X102430608Y-72842178D01*
X102299416Y-72929837D01*
X102299415Y-72929838D01*
X102299414Y-72929838D01*
X102153642Y-72990219D01*
X101998893Y-73021000D01*
X101841107Y-73021000D01*
X101686358Y-72990219D01*
X101540586Y-72929838D01*
X101540585Y-72929838D01*
X101540584Y-72929837D01*
X101409392Y-72842178D01*
X101297822Y-72730608D01*
X101210163Y-72599416D01*
X101173682Y-72511343D01*
X101149781Y-72453642D01*
X101119000Y-72298893D01*
X101119000Y-72141107D01*
X101149781Y-71986358D01*
X101210162Y-71840586D01*
X101216051Y-71831772D01*
X101297822Y-71709392D01*
X101409392Y-71597822D01*
X101540584Y-71510163D01*
X101540586Y-71510162D01*
X101686358Y-71449781D01*
X101841107Y-71419000D01*
X101998893Y-71419000D01*
X102153642Y-71449781D01*
X102153642Y-71449781D01*
G37*
G36*
X97073642Y-71449781D02*
G01*
X97219414Y-71510162D01*
X97219416Y-71510163D01*
X97350608Y-71597822D01*
X97462178Y-71709392D01*
X97543949Y-71831772D01*
X97549838Y-71840586D01*
X97610219Y-71986358D01*
X97641000Y-72141107D01*
X97641000Y-72298893D01*
X97610219Y-72453642D01*
X97586318Y-72511343D01*
X97549837Y-72599416D01*
X97462178Y-72730608D01*
X97350608Y-72842178D01*
X97219416Y-72929837D01*
X97219415Y-72929838D01*
X97219414Y-72929838D01*
X97073642Y-72990219D01*
X96918893Y-73021000D01*
X96761107Y-73021000D01*
X96606358Y-72990219D01*
X96460586Y-72929838D01*
X96460585Y-72929838D01*
X96460584Y-72929837D01*
X96329392Y-72842178D01*
X96217822Y-72730608D01*
X96130163Y-72599416D01*
X96093682Y-72511343D01*
X96069781Y-72453642D01*
X96039000Y-72298893D01*
X96039000Y-72141107D01*
X96069781Y-71986358D01*
X96130162Y-71840586D01*
X96136051Y-71831772D01*
X96217822Y-71709392D01*
X96329392Y-71597822D01*
X96460584Y-71510163D01*
X96460586Y-71510162D01*
X96606358Y-71449781D01*
X96761107Y-71419000D01*
X96918893Y-71419000D01*
X97073642Y-71449781D01*
X97073642Y-71449781D01*
G37*
G36*
X134901000Y-70901000D02*
G01*
X133099000Y-70901000D01*
X133099000Y-69099000D01*
X134901000Y-69099000D01*
X134901000Y-70901000D01*
X134901000Y-70901000D01*
G37*
G36*
X107233642Y-68909781D02*
G01*
X107379414Y-68970162D01*
X107379416Y-68970163D01*
X107510608Y-69057822D01*
X107622178Y-69169392D01*
X107709837Y-69300584D01*
X107709838Y-69300586D01*
X107770219Y-69446358D01*
X107801000Y-69601107D01*
X107801000Y-69758893D01*
X107770219Y-69913642D01*
X107714471Y-70048228D01*
X107709837Y-70059416D01*
X107622178Y-70190608D01*
X107510608Y-70302178D01*
X107379416Y-70389837D01*
X107379415Y-70389838D01*
X107379414Y-70389838D01*
X107233642Y-70450219D01*
X107078893Y-70481000D01*
X106921107Y-70481000D01*
X106766358Y-70450219D01*
X106620586Y-70389838D01*
X106620585Y-70389838D01*
X106620584Y-70389837D01*
X106489392Y-70302178D01*
X106377822Y-70190608D01*
X106290163Y-70059416D01*
X106285529Y-70048228D01*
X106229781Y-69913642D01*
X106199000Y-69758893D01*
X106199000Y-69601107D01*
X106229781Y-69446358D01*
X106290162Y-69300586D01*
X106290163Y-69300584D01*
X106377822Y-69169392D01*
X106489392Y-69057822D01*
X106620584Y-68970163D01*
X106620586Y-68970162D01*
X106766358Y-68909781D01*
X106921107Y-68879000D01*
X107078893Y-68879000D01*
X107233642Y-68909781D01*
X107233642Y-68909781D01*
G37*
G36*
X104693642Y-68909781D02*
G01*
X104839414Y-68970162D01*
X104839416Y-68970163D01*
X104970608Y-69057822D01*
X105082178Y-69169392D01*
X105169837Y-69300584D01*
X105169838Y-69300586D01*
X105230219Y-69446358D01*
X105261000Y-69601107D01*
X105261000Y-69758893D01*
X105230219Y-69913642D01*
X105174471Y-70048228D01*
X105169837Y-70059416D01*
X105082178Y-70190608D01*
X104970608Y-70302178D01*
X104839416Y-70389837D01*
X104839415Y-70389838D01*
X104839414Y-70389838D01*
X104693642Y-70450219D01*
X104538893Y-70481000D01*
X104381107Y-70481000D01*
X104226358Y-70450219D01*
X104080586Y-70389838D01*
X104080585Y-70389838D01*
X104080584Y-70389837D01*
X103949392Y-70302178D01*
X103837822Y-70190608D01*
X103750163Y-70059416D01*
X103745529Y-70048228D01*
X103689781Y-69913642D01*
X103659000Y-69758893D01*
X103659000Y-69601107D01*
X103689781Y-69446358D01*
X103750162Y-69300586D01*
X103750163Y-69300584D01*
X103837822Y-69169392D01*
X103949392Y-69057822D01*
X104080584Y-68970163D01*
X104080586Y-68970162D01*
X104226358Y-68909781D01*
X104381107Y-68879000D01*
X104538893Y-68879000D01*
X104693642Y-68909781D01*
X104693642Y-68909781D01*
G37*
G36*
X99613642Y-68909781D02*
G01*
X99759414Y-68970162D01*
X99759416Y-68970163D01*
X99890608Y-69057822D01*
X100002178Y-69169392D01*
X100089837Y-69300584D01*
X100089838Y-69300586D01*
X100150219Y-69446358D01*
X100181000Y-69601107D01*
X100181000Y-69758893D01*
X100150219Y-69913642D01*
X100094471Y-70048228D01*
X100089837Y-70059416D01*
X100002178Y-70190608D01*
X99890608Y-70302178D01*
X99759416Y-70389837D01*
X99759415Y-70389838D01*
X99759414Y-70389838D01*
X99613642Y-70450219D01*
X99458893Y-70481000D01*
X99301107Y-70481000D01*
X99146358Y-70450219D01*
X99000586Y-70389838D01*
X99000585Y-70389838D01*
X99000584Y-70389837D01*
X98869392Y-70302178D01*
X98757822Y-70190608D01*
X98670163Y-70059416D01*
X98665529Y-70048228D01*
X98609781Y-69913642D01*
X98579000Y-69758893D01*
X98579000Y-69601107D01*
X98609781Y-69446358D01*
X98670162Y-69300586D01*
X98670163Y-69300584D01*
X98757822Y-69169392D01*
X98869392Y-69057822D01*
X99000584Y-68970163D01*
X99000586Y-68970162D01*
X99146358Y-68909781D01*
X99301107Y-68879000D01*
X99458893Y-68879000D01*
X99613642Y-68909781D01*
X99613642Y-68909781D01*
G37*
G36*
X97073642Y-68909781D02*
G01*
X97219414Y-68970162D01*
X97219416Y-68970163D01*
X97350608Y-69057822D01*
X97462178Y-69169392D01*
X97549837Y-69300584D01*
X97549838Y-69300586D01*
X97610219Y-69446358D01*
X97641000Y-69601107D01*
X97641000Y-69758893D01*
X97610219Y-69913642D01*
X97554471Y-70048228D01*
X97549837Y-70059416D01*
X97462178Y-70190608D01*
X97350608Y-70302178D01*
X97219416Y-70389837D01*
X97219415Y-70389838D01*
X97219414Y-70389838D01*
X97073642Y-70450219D01*
X96918893Y-70481000D01*
X96761107Y-70481000D01*
X96606358Y-70450219D01*
X96460586Y-70389838D01*
X96460585Y-70389838D01*
X96460584Y-70389837D01*
X96329392Y-70302178D01*
X96217822Y-70190608D01*
X96130163Y-70059416D01*
X96125529Y-70048228D01*
X96069781Y-69913642D01*
X96039000Y-69758893D01*
X96039000Y-69601107D01*
X96069781Y-69446358D01*
X96130162Y-69300586D01*
X96130163Y-69300584D01*
X96217822Y-69169392D01*
X96329392Y-69057822D01*
X96460584Y-68970163D01*
X96460586Y-68970162D01*
X96606358Y-68909781D01*
X96761107Y-68879000D01*
X96918893Y-68879000D01*
X97073642Y-68909781D01*
X97073642Y-68909781D01*
G37*
G36*
X102153642Y-68909781D02*
G01*
X102299414Y-68970162D01*
X102299416Y-68970163D01*
X102430608Y-69057822D01*
X102542178Y-69169392D01*
X102629837Y-69300584D01*
X102629838Y-69300586D01*
X102690219Y-69446358D01*
X102721000Y-69601107D01*
X102721000Y-69758893D01*
X102690219Y-69913642D01*
X102634471Y-70048228D01*
X102629837Y-70059416D01*
X102542178Y-70190608D01*
X102430608Y-70302178D01*
X102299416Y-70389837D01*
X102299415Y-70389838D01*
X102299414Y-70389838D01*
X102153642Y-70450219D01*
X101998893Y-70481000D01*
X101841107Y-70481000D01*
X101686358Y-70450219D01*
X101540586Y-70389838D01*
X101540585Y-70389838D01*
X101540584Y-70389837D01*
X101409392Y-70302178D01*
X101297822Y-70190608D01*
X101210163Y-70059416D01*
X101205529Y-70048228D01*
X101149781Y-69913642D01*
X101119000Y-69758893D01*
X101119000Y-69601107D01*
X101149781Y-69446358D01*
X101210162Y-69300586D01*
X101210163Y-69300584D01*
X101297822Y-69169392D01*
X101409392Y-69057822D01*
X101540584Y-68970163D01*
X101540586Y-68970162D01*
X101686358Y-68909781D01*
X101841107Y-68879000D01*
X101998893Y-68879000D01*
X102153642Y-68909781D01*
X102153642Y-68909781D01*
G37*
G36*
X143318433Y-67594893D02*
G01*
X143408657Y-67612839D01*
X143514267Y-67656585D01*
X143663621Y-67718449D01*
X143663622Y-67718450D01*
X143893086Y-67871772D01*
X144088228Y-68066914D01*
X144190675Y-68220237D01*
X144241551Y-68296379D01*
X144347161Y-68551344D01*
X144401000Y-68822012D01*
X144401000Y-69097988D01*
X144347161Y-69368656D01*
X144241551Y-69623621D01*
X144241550Y-69623622D01*
X144088228Y-69853086D01*
X143893086Y-70048228D01*
X143739763Y-70150675D01*
X143663621Y-70201551D01*
X143514267Y-70263415D01*
X143408657Y-70307161D01*
X143318433Y-70325107D01*
X143137988Y-70361000D01*
X142862012Y-70361000D01*
X142681567Y-70325107D01*
X142591343Y-70307161D01*
X142485733Y-70263415D01*
X142336379Y-70201551D01*
X142260237Y-70150675D01*
X142106914Y-70048228D01*
X141911772Y-69853086D01*
X141758450Y-69623622D01*
X141758449Y-69623621D01*
X141652839Y-69368656D01*
X141599000Y-69097988D01*
X141599000Y-68822012D01*
X141652839Y-68551344D01*
X141758449Y-68296379D01*
X141809325Y-68220237D01*
X141911772Y-68066914D01*
X142106914Y-67871772D01*
X142336378Y-67718450D01*
X142336379Y-67718449D01*
X142485733Y-67656585D01*
X142591343Y-67612839D01*
X142681567Y-67594893D01*
X142862012Y-67559000D01*
X143137988Y-67559000D01*
X143318433Y-67594893D01*
X143318433Y-67594893D01*
G37*
G36*
X104693642Y-66369781D02*
G01*
X104839414Y-66430162D01*
X104839416Y-66430163D01*
X104970608Y-66517822D01*
X105082178Y-66629392D01*
X105089390Y-66640186D01*
X105169838Y-66760586D01*
X105230219Y-66906358D01*
X105261000Y-67061107D01*
X105261000Y-67218893D01*
X105230219Y-67373642D01*
X105169838Y-67519414D01*
X105169837Y-67519416D01*
X105082178Y-67650608D01*
X104970608Y-67762178D01*
X104839416Y-67849837D01*
X104839415Y-67849838D01*
X104839414Y-67849838D01*
X104693642Y-67910219D01*
X104538893Y-67941000D01*
X104381107Y-67941000D01*
X104226358Y-67910219D01*
X104080586Y-67849838D01*
X104080585Y-67849838D01*
X104080584Y-67849837D01*
X103949392Y-67762178D01*
X103837822Y-67650608D01*
X103750163Y-67519416D01*
X103750162Y-67519414D01*
X103689781Y-67373642D01*
X103659000Y-67218893D01*
X103659000Y-67061107D01*
X103689781Y-66906358D01*
X103750162Y-66760586D01*
X103830610Y-66640186D01*
X103837822Y-66629392D01*
X103949392Y-66517822D01*
X104080584Y-66430163D01*
X104080586Y-66430162D01*
X104226358Y-66369781D01*
X104381107Y-66339000D01*
X104538893Y-66339000D01*
X104693642Y-66369781D01*
X104693642Y-66369781D01*
G37*
G36*
X107233642Y-66369781D02*
G01*
X107379414Y-66430162D01*
X107379416Y-66430163D01*
X107510608Y-66517822D01*
X107622178Y-66629392D01*
X107629390Y-66640186D01*
X107709838Y-66760586D01*
X107770219Y-66906358D01*
X107801000Y-67061107D01*
X107801000Y-67218893D01*
X107770219Y-67373642D01*
X107709838Y-67519414D01*
X107709837Y-67519416D01*
X107622178Y-67650608D01*
X107510608Y-67762178D01*
X107379416Y-67849837D01*
X107379415Y-67849838D01*
X107379414Y-67849838D01*
X107233642Y-67910219D01*
X107078893Y-67941000D01*
X106921107Y-67941000D01*
X106766358Y-67910219D01*
X106620586Y-67849838D01*
X106620585Y-67849838D01*
X106620584Y-67849837D01*
X106489392Y-67762178D01*
X106377822Y-67650608D01*
X106290163Y-67519416D01*
X106290162Y-67519414D01*
X106229781Y-67373642D01*
X106199000Y-67218893D01*
X106199000Y-67061107D01*
X106229781Y-66906358D01*
X106290162Y-66760586D01*
X106370610Y-66640186D01*
X106377822Y-66629392D01*
X106489392Y-66517822D01*
X106620584Y-66430163D01*
X106620586Y-66430162D01*
X106766358Y-66369781D01*
X106921107Y-66339000D01*
X107078893Y-66339000D01*
X107233642Y-66369781D01*
X107233642Y-66369781D01*
G37*
G36*
X99613642Y-66369781D02*
G01*
X99759414Y-66430162D01*
X99759416Y-66430163D01*
X99890608Y-66517822D01*
X100002178Y-66629392D01*
X100009390Y-66640186D01*
X100089838Y-66760586D01*
X100150219Y-66906358D01*
X100181000Y-67061107D01*
X100181000Y-67218893D01*
X100150219Y-67373642D01*
X100089838Y-67519414D01*
X100089837Y-67519416D01*
X100002178Y-67650608D01*
X99890608Y-67762178D01*
X99759416Y-67849837D01*
X99759415Y-67849838D01*
X99759414Y-67849838D01*
X99613642Y-67910219D01*
X99458893Y-67941000D01*
X99301107Y-67941000D01*
X99146358Y-67910219D01*
X99000586Y-67849838D01*
X99000585Y-67849838D01*
X99000584Y-67849837D01*
X98869392Y-67762178D01*
X98757822Y-67650608D01*
X98670163Y-67519416D01*
X98670162Y-67519414D01*
X98609781Y-67373642D01*
X98579000Y-67218893D01*
X98579000Y-67061107D01*
X98609781Y-66906358D01*
X98670162Y-66760586D01*
X98750610Y-66640186D01*
X98757822Y-66629392D01*
X98869392Y-66517822D01*
X99000584Y-66430163D01*
X99000586Y-66430162D01*
X99146358Y-66369781D01*
X99301107Y-66339000D01*
X99458893Y-66339000D01*
X99613642Y-66369781D01*
X99613642Y-66369781D01*
G37*
G36*
X102153642Y-66369781D02*
G01*
X102299414Y-66430162D01*
X102299416Y-66430163D01*
X102430608Y-66517822D01*
X102542178Y-66629392D01*
X102549390Y-66640186D01*
X102629838Y-66760586D01*
X102690219Y-66906358D01*
X102721000Y-67061107D01*
X102721000Y-67218893D01*
X102690219Y-67373642D01*
X102629838Y-67519414D01*
X102629837Y-67519416D01*
X102542178Y-67650608D01*
X102430608Y-67762178D01*
X102299416Y-67849837D01*
X102299415Y-67849838D01*
X102299414Y-67849838D01*
X102153642Y-67910219D01*
X101998893Y-67941000D01*
X101841107Y-67941000D01*
X101686358Y-67910219D01*
X101540586Y-67849838D01*
X101540585Y-67849838D01*
X101540584Y-67849837D01*
X101409392Y-67762178D01*
X101297822Y-67650608D01*
X101210163Y-67519416D01*
X101210162Y-67519414D01*
X101149781Y-67373642D01*
X101119000Y-67218893D01*
X101119000Y-67061107D01*
X101149781Y-66906358D01*
X101210162Y-66760586D01*
X101290610Y-66640186D01*
X101297822Y-66629392D01*
X101409392Y-66517822D01*
X101540584Y-66430163D01*
X101540586Y-66430162D01*
X101686358Y-66369781D01*
X101841107Y-66339000D01*
X101998893Y-66339000D01*
X102153642Y-66369781D01*
X102153642Y-66369781D01*
G37*
G36*
X97073642Y-66369781D02*
G01*
X97219414Y-66430162D01*
X97219416Y-66430163D01*
X97350608Y-66517822D01*
X97462178Y-66629392D01*
X97469390Y-66640186D01*
X97549838Y-66760586D01*
X97610219Y-66906358D01*
X97641000Y-67061107D01*
X97641000Y-67218893D01*
X97610219Y-67373642D01*
X97549838Y-67519414D01*
X97549837Y-67519416D01*
X97462178Y-67650608D01*
X97350608Y-67762178D01*
X97219416Y-67849837D01*
X97219415Y-67849838D01*
X97219414Y-67849838D01*
X97073642Y-67910219D01*
X96918893Y-67941000D01*
X96761107Y-67941000D01*
X96606358Y-67910219D01*
X96460586Y-67849838D01*
X96460585Y-67849838D01*
X96460584Y-67849837D01*
X96329392Y-67762178D01*
X96217822Y-67650608D01*
X96130163Y-67519416D01*
X96130162Y-67519414D01*
X96069781Y-67373642D01*
X96039000Y-67218893D01*
X96039000Y-67061107D01*
X96069781Y-66906358D01*
X96130162Y-66760586D01*
X96210610Y-66640186D01*
X96217822Y-66629392D01*
X96329392Y-66517822D01*
X96460584Y-66430163D01*
X96460586Y-66430162D01*
X96606358Y-66369781D01*
X96761107Y-66339000D01*
X96918893Y-66339000D01*
X97073642Y-66369781D01*
X97073642Y-66369781D01*
G37*
G36*
X122070442Y-65105518D02*
G01*
X122136627Y-65112037D01*
X122306466Y-65163557D01*
X122306468Y-65163558D01*
X122332334Y-65177384D01*
X122462991Y-65247222D01*
X122498729Y-65276552D01*
X122600186Y-65359814D01*
X122683448Y-65461271D01*
X122712778Y-65497009D01*
X122796443Y-65653534D01*
X122847963Y-65823373D01*
X122865359Y-66000000D01*
X122847963Y-66176627D01*
X122796443Y-66346466D01*
X122712778Y-66502991D01*
X122700606Y-66517822D01*
X122600186Y-66640186D01*
X122498729Y-66723448D01*
X122462991Y-66752778D01*
X122306466Y-66836443D01*
X122136627Y-66887963D01*
X122070443Y-66894481D01*
X122004260Y-66901000D01*
X121915740Y-66901000D01*
X121849557Y-66894481D01*
X121783373Y-66887963D01*
X121613534Y-66836443D01*
X121457009Y-66752778D01*
X121421271Y-66723448D01*
X121319814Y-66640186D01*
X121219394Y-66517822D01*
X121207222Y-66502991D01*
X121123557Y-66346466D01*
X121072037Y-66176627D01*
X121054641Y-66000000D01*
X121072037Y-65823373D01*
X121123557Y-65653534D01*
X121207222Y-65497009D01*
X121236552Y-65461271D01*
X121319814Y-65359814D01*
X121421271Y-65276552D01*
X121457009Y-65247222D01*
X121587666Y-65177384D01*
X121613532Y-65163558D01*
X121613534Y-65163557D01*
X121783373Y-65112037D01*
X121849558Y-65105518D01*
X121915740Y-65099000D01*
X122004260Y-65099000D01*
X122070442Y-65105518D01*
X122070442Y-65105518D01*
G37*
G36*
X116990442Y-65105518D02*
G01*
X117056627Y-65112037D01*
X117226466Y-65163557D01*
X117226468Y-65163558D01*
X117252334Y-65177384D01*
X117382991Y-65247222D01*
X117418729Y-65276552D01*
X117520186Y-65359814D01*
X117603448Y-65461271D01*
X117632778Y-65497009D01*
X117716443Y-65653534D01*
X117767963Y-65823373D01*
X117785359Y-66000000D01*
X117767963Y-66176627D01*
X117716443Y-66346466D01*
X117632778Y-66502991D01*
X117620606Y-66517822D01*
X117520186Y-66640186D01*
X117418729Y-66723448D01*
X117382991Y-66752778D01*
X117226466Y-66836443D01*
X117056627Y-66887963D01*
X116990443Y-66894481D01*
X116924260Y-66901000D01*
X116835740Y-66901000D01*
X116769557Y-66894481D01*
X116703373Y-66887963D01*
X116533534Y-66836443D01*
X116377009Y-66752778D01*
X116341271Y-66723448D01*
X116239814Y-66640186D01*
X116139394Y-66517822D01*
X116127222Y-66502991D01*
X116043557Y-66346466D01*
X115992037Y-66176627D01*
X115974641Y-66000000D01*
X115992037Y-65823373D01*
X116043557Y-65653534D01*
X116127222Y-65497009D01*
X116156552Y-65461271D01*
X116239814Y-65359814D01*
X116341271Y-65276552D01*
X116377009Y-65247222D01*
X116507666Y-65177384D01*
X116533532Y-65163558D01*
X116533534Y-65163557D01*
X116703373Y-65112037D01*
X116769558Y-65105518D01*
X116835740Y-65099000D01*
X116924260Y-65099000D01*
X116990442Y-65105518D01*
X116990442Y-65105518D01*
G37*
G36*
X125401000Y-66901000D02*
G01*
X123599000Y-66901000D01*
X123599000Y-65099000D01*
X125401000Y-65099000D01*
X125401000Y-66901000D01*
X125401000Y-66901000D01*
G37*
G36*
X119530442Y-65105518D02*
G01*
X119596627Y-65112037D01*
X119766466Y-65163557D01*
X119766468Y-65163558D01*
X119792334Y-65177384D01*
X119922991Y-65247222D01*
X119958729Y-65276552D01*
X120060186Y-65359814D01*
X120143448Y-65461271D01*
X120172778Y-65497009D01*
X120256443Y-65653534D01*
X120307963Y-65823373D01*
X120325359Y-66000000D01*
X120307963Y-66176627D01*
X120256443Y-66346466D01*
X120172778Y-66502991D01*
X120160606Y-66517822D01*
X120060186Y-66640186D01*
X119958729Y-66723448D01*
X119922991Y-66752778D01*
X119766466Y-66836443D01*
X119596627Y-66887963D01*
X119530443Y-66894481D01*
X119464260Y-66901000D01*
X119375740Y-66901000D01*
X119309557Y-66894481D01*
X119243373Y-66887963D01*
X119073534Y-66836443D01*
X118917009Y-66752778D01*
X118881271Y-66723448D01*
X118779814Y-66640186D01*
X118679394Y-66517822D01*
X118667222Y-66502991D01*
X118583557Y-66346466D01*
X118532037Y-66176627D01*
X118514641Y-66000000D01*
X118532037Y-65823373D01*
X118583557Y-65653534D01*
X118667222Y-65497009D01*
X118696552Y-65461271D01*
X118779814Y-65359814D01*
X118881271Y-65276552D01*
X118917009Y-65247222D01*
X119047666Y-65177384D01*
X119073532Y-65163558D01*
X119073534Y-65163557D01*
X119243373Y-65112037D01*
X119309558Y-65105518D01*
X119375740Y-65099000D01*
X119464260Y-65099000D01*
X119530442Y-65105518D01*
X119530442Y-65105518D01*
G37*
G36*
X77525331Y-63268211D02*
G01*
X77853092Y-63403974D01*
X78148070Y-63601072D01*
X78398928Y-63851930D01*
X78596026Y-64146908D01*
X78731789Y-64474669D01*
X78801000Y-64822616D01*
X78801000Y-65177384D01*
X78731789Y-65525331D01*
X78596026Y-65853092D01*
X78398928Y-66148070D01*
X78148070Y-66398928D01*
X77853092Y-66596026D01*
X77525331Y-66731789D01*
X77177384Y-66801000D01*
X76822616Y-66801000D01*
X76474669Y-66731789D01*
X76146908Y-66596026D01*
X75851930Y-66398928D01*
X75601072Y-66148070D01*
X75403974Y-65853092D01*
X75268211Y-65525331D01*
X75199000Y-65177384D01*
X75199000Y-64822616D01*
X75268211Y-64474669D01*
X75403974Y-64146908D01*
X75601072Y-63851930D01*
X75851930Y-63601072D01*
X76146908Y-63403974D01*
X76474669Y-63268211D01*
X76822616Y-63199000D01*
X77177384Y-63199000D01*
X77525331Y-63268211D01*
X77525331Y-63268211D01*
G37*
G36*
X143318433Y-63634893D02*
G01*
X143408657Y-63652839D01*
X143514267Y-63696585D01*
X143663621Y-63758449D01*
X143663622Y-63758450D01*
X143893086Y-63911772D01*
X144088228Y-64106914D01*
X144164179Y-64220584D01*
X144241551Y-64336379D01*
X144347161Y-64591344D01*
X144401000Y-64862012D01*
X144401000Y-65137988D01*
X144347161Y-65408656D01*
X144241551Y-65663621D01*
X144241550Y-65663622D01*
X144088228Y-65893086D01*
X143893086Y-66088228D01*
X143760790Y-66176625D01*
X143663621Y-66241551D01*
X143514267Y-66303415D01*
X143408657Y-66347161D01*
X143318433Y-66365107D01*
X143137988Y-66401000D01*
X142862012Y-66401000D01*
X142681567Y-66365107D01*
X142591343Y-66347161D01*
X142485733Y-66303415D01*
X142336379Y-66241551D01*
X142239210Y-66176625D01*
X142106914Y-66088228D01*
X141911772Y-65893086D01*
X141758450Y-65663622D01*
X141758449Y-65663621D01*
X141652839Y-65408656D01*
X141599000Y-65137988D01*
X141599000Y-64862012D01*
X141652839Y-64591344D01*
X141758449Y-64336379D01*
X141835821Y-64220584D01*
X141911772Y-64106914D01*
X142106914Y-63911772D01*
X142336378Y-63758450D01*
X142336379Y-63758449D01*
X142485733Y-63696585D01*
X142591343Y-63652839D01*
X142681567Y-63634893D01*
X142862012Y-63599000D01*
X143137988Y-63599000D01*
X143318433Y-63634893D01*
X143318433Y-63634893D01*
G37*
G36*
X99613642Y-63829781D02*
G01*
X99759414Y-63890162D01*
X99759416Y-63890163D01*
X99890608Y-63977822D01*
X100002178Y-64089392D01*
X100089837Y-64220584D01*
X100089838Y-64220586D01*
X100150219Y-64366358D01*
X100181000Y-64521107D01*
X100181000Y-64678893D01*
X100150219Y-64833642D01*
X100089838Y-64979414D01*
X100089837Y-64979416D01*
X100002178Y-65110608D01*
X99890608Y-65222178D01*
X99759416Y-65309837D01*
X99759415Y-65309838D01*
X99759414Y-65309838D01*
X99613642Y-65370219D01*
X99458893Y-65401000D01*
X99301107Y-65401000D01*
X99146358Y-65370219D01*
X99000586Y-65309838D01*
X99000585Y-65309838D01*
X99000584Y-65309837D01*
X98869392Y-65222178D01*
X98757822Y-65110608D01*
X98670163Y-64979416D01*
X98670162Y-64979414D01*
X98609781Y-64833642D01*
X98579000Y-64678893D01*
X98579000Y-64521107D01*
X98609781Y-64366358D01*
X98670162Y-64220586D01*
X98670163Y-64220584D01*
X98757822Y-64089392D01*
X98869392Y-63977822D01*
X99000584Y-63890163D01*
X99000586Y-63890162D01*
X99146358Y-63829781D01*
X99301107Y-63799000D01*
X99458893Y-63799000D01*
X99613642Y-63829781D01*
X99613642Y-63829781D01*
G37*
G36*
X102153642Y-63829781D02*
G01*
X102299414Y-63890162D01*
X102299416Y-63890163D01*
X102430608Y-63977822D01*
X102542178Y-64089392D01*
X102629837Y-64220584D01*
X102629838Y-64220586D01*
X102690219Y-64366358D01*
X102721000Y-64521107D01*
X102721000Y-64678893D01*
X102690219Y-64833642D01*
X102629838Y-64979414D01*
X102629837Y-64979416D01*
X102542178Y-65110608D01*
X102430608Y-65222178D01*
X102299416Y-65309837D01*
X102299415Y-65309838D01*
X102299414Y-65309838D01*
X102153642Y-65370219D01*
X101998893Y-65401000D01*
X101841107Y-65401000D01*
X101686358Y-65370219D01*
X101540586Y-65309838D01*
X101540585Y-65309838D01*
X101540584Y-65309837D01*
X101409392Y-65222178D01*
X101297822Y-65110608D01*
X101210163Y-64979416D01*
X101210162Y-64979414D01*
X101149781Y-64833642D01*
X101119000Y-64678893D01*
X101119000Y-64521107D01*
X101149781Y-64366358D01*
X101210162Y-64220586D01*
X101210163Y-64220584D01*
X101297822Y-64089392D01*
X101409392Y-63977822D01*
X101540584Y-63890163D01*
X101540586Y-63890162D01*
X101686358Y-63829781D01*
X101841107Y-63799000D01*
X101998893Y-63799000D01*
X102153642Y-63829781D01*
X102153642Y-63829781D01*
G37*
G36*
X104693642Y-63829781D02*
G01*
X104839414Y-63890162D01*
X104839416Y-63890163D01*
X104970608Y-63977822D01*
X105082178Y-64089392D01*
X105169837Y-64220584D01*
X105169838Y-64220586D01*
X105230219Y-64366358D01*
X105261000Y-64521107D01*
X105261000Y-64678893D01*
X105230219Y-64833642D01*
X105169838Y-64979414D01*
X105169837Y-64979416D01*
X105082178Y-65110608D01*
X104970608Y-65222178D01*
X104839416Y-65309837D01*
X104839415Y-65309838D01*
X104839414Y-65309838D01*
X104693642Y-65370219D01*
X104538893Y-65401000D01*
X104381107Y-65401000D01*
X104226358Y-65370219D01*
X104080586Y-65309838D01*
X104080585Y-65309838D01*
X104080584Y-65309837D01*
X103949392Y-65222178D01*
X103837822Y-65110608D01*
X103750163Y-64979416D01*
X103750162Y-64979414D01*
X103689781Y-64833642D01*
X103659000Y-64678893D01*
X103659000Y-64521107D01*
X103689781Y-64366358D01*
X103750162Y-64220586D01*
X103750163Y-64220584D01*
X103837822Y-64089392D01*
X103949392Y-63977822D01*
X104080584Y-63890163D01*
X104080586Y-63890162D01*
X104226358Y-63829781D01*
X104381107Y-63799000D01*
X104538893Y-63799000D01*
X104693642Y-63829781D01*
X104693642Y-63829781D01*
G37*
G36*
X107233642Y-63829781D02*
G01*
X107379414Y-63890162D01*
X107379416Y-63890163D01*
X107510608Y-63977822D01*
X107622178Y-64089392D01*
X107709837Y-64220584D01*
X107709838Y-64220586D01*
X107770219Y-64366358D01*
X107801000Y-64521107D01*
X107801000Y-64678893D01*
X107770219Y-64833642D01*
X107709838Y-64979414D01*
X107709837Y-64979416D01*
X107622178Y-65110608D01*
X107510608Y-65222178D01*
X107379416Y-65309837D01*
X107379415Y-65309838D01*
X107379414Y-65309838D01*
X107233642Y-65370219D01*
X107078893Y-65401000D01*
X106921107Y-65401000D01*
X106766358Y-65370219D01*
X106620586Y-65309838D01*
X106620585Y-65309838D01*
X106620584Y-65309837D01*
X106489392Y-65222178D01*
X106377822Y-65110608D01*
X106290163Y-64979416D01*
X106290162Y-64979414D01*
X106229781Y-64833642D01*
X106199000Y-64678893D01*
X106199000Y-64521107D01*
X106229781Y-64366358D01*
X106290162Y-64220586D01*
X106290163Y-64220584D01*
X106377822Y-64089392D01*
X106489392Y-63977822D01*
X106620584Y-63890163D01*
X106620586Y-63890162D01*
X106766358Y-63829781D01*
X106921107Y-63799000D01*
X107078893Y-63799000D01*
X107233642Y-63829781D01*
X107233642Y-63829781D01*
G37*
G36*
X97073642Y-63829781D02*
G01*
X97219414Y-63890162D01*
X97219416Y-63890163D01*
X97350608Y-63977822D01*
X97462178Y-64089392D01*
X97549837Y-64220584D01*
X97549838Y-64220586D01*
X97610219Y-64366358D01*
X97641000Y-64521107D01*
X97641000Y-64678893D01*
X97610219Y-64833642D01*
X97549838Y-64979414D01*
X97549837Y-64979416D01*
X97462178Y-65110608D01*
X97350608Y-65222178D01*
X97219416Y-65309837D01*
X97219415Y-65309838D01*
X97219414Y-65309838D01*
X97073642Y-65370219D01*
X96918893Y-65401000D01*
X96761107Y-65401000D01*
X96606358Y-65370219D01*
X96460586Y-65309838D01*
X96460585Y-65309838D01*
X96460584Y-65309837D01*
X96329392Y-65222178D01*
X96217822Y-65110608D01*
X96130163Y-64979416D01*
X96130162Y-64979414D01*
X96069781Y-64833642D01*
X96039000Y-64678893D01*
X96039000Y-64521107D01*
X96069781Y-64366358D01*
X96130162Y-64220586D01*
X96130163Y-64220584D01*
X96217822Y-64089392D01*
X96329392Y-63977822D01*
X96460584Y-63890163D01*
X96460586Y-63890162D01*
X96606358Y-63829781D01*
X96761107Y-63799000D01*
X96918893Y-63799000D01*
X97073642Y-63829781D01*
X97073642Y-63829781D01*
G37*
M02*
