G04 #@! TF.GenerationSoftware,KiCad,Pcbnew,(5.1.4)-1*
G04 #@! TF.CreationDate,2020-02-18T17:55:52+09:00*
G04 #@! TF.ProjectId,QX20CTRLV2,51583230-4354-4524-9c56-322e6b696361,rev?*
G04 #@! TF.SameCoordinates,Original*
G04 #@! TF.FileFunction,Copper,L2,Bot*
G04 #@! TF.FilePolarity,Positive*
%FSLAX46Y46*%
G04 Gerber Fmt 4.6, Leading zero omitted, Abs format (unit mm)*
G04 Created by KiCad (PCBNEW (5.1.4)-1) date 2020-02-18 17:55:52*
%MOMM*%
%LPD*%
G04 APERTURE LIST*
%ADD10C,2.700000*%
%ADD11C,0.250000*%
%ADD12R,1.700000X1.700000*%
%ADD13O,1.700000X1.700000*%
%ADD14R,2.000000X1.905000*%
%ADD15O,2.000000X1.905000*%
%ADD16C,1.150000*%
%ADD17C,3.000000*%
%ADD18C,1.000000*%
%ADD19C,5.000000*%
%ADD20C,0.254000*%
G04 APERTURE END LIST*
D10*
X161000000Y-58120000D03*
X161000000Y-62080000D03*
X161000000Y-66040000D03*
D11*
G36*
X162123512Y-68651209D02*
G01*
X162147887Y-68654825D01*
X162171790Y-68660812D01*
X162194992Y-68669114D01*
X162217268Y-68679650D01*
X162238404Y-68692318D01*
X162258196Y-68706997D01*
X162276455Y-68723545D01*
X162293003Y-68741804D01*
X162307682Y-68761596D01*
X162320350Y-68782732D01*
X162330886Y-68805008D01*
X162339188Y-68828210D01*
X162345175Y-68852113D01*
X162348791Y-68876488D01*
X162350000Y-68901100D01*
X162350000Y-71098900D01*
X162348791Y-71123512D01*
X162345175Y-71147887D01*
X162339188Y-71171790D01*
X162330886Y-71194992D01*
X162320350Y-71217268D01*
X162307682Y-71238404D01*
X162293003Y-71258196D01*
X162276455Y-71276455D01*
X162258196Y-71293003D01*
X162238404Y-71307682D01*
X162217268Y-71320350D01*
X162194992Y-71330886D01*
X162171790Y-71339188D01*
X162147887Y-71345175D01*
X162123512Y-71348791D01*
X162098900Y-71350000D01*
X159901100Y-71350000D01*
X159876488Y-71348791D01*
X159852113Y-71345175D01*
X159828210Y-71339188D01*
X159805008Y-71330886D01*
X159782732Y-71320350D01*
X159761596Y-71307682D01*
X159741804Y-71293003D01*
X159723545Y-71276455D01*
X159706997Y-71258196D01*
X159692318Y-71238404D01*
X159679650Y-71217268D01*
X159669114Y-71194992D01*
X159660812Y-71171790D01*
X159654825Y-71147887D01*
X159651209Y-71123512D01*
X159650000Y-71098900D01*
X159650000Y-68901100D01*
X159651209Y-68876488D01*
X159654825Y-68852113D01*
X159660812Y-68828210D01*
X159669114Y-68805008D01*
X159679650Y-68782732D01*
X159692318Y-68761596D01*
X159706997Y-68741804D01*
X159723545Y-68723545D01*
X159741804Y-68706997D01*
X159761596Y-68692318D01*
X159782732Y-68679650D01*
X159805008Y-68669114D01*
X159828210Y-68660812D01*
X159852113Y-68654825D01*
X159876488Y-68651209D01*
X159901100Y-68650000D01*
X162098900Y-68650000D01*
X162123512Y-68651209D01*
X162123512Y-68651209D01*
G37*
D10*
X161000000Y-70000000D03*
X161000000Y-75120000D03*
X161000000Y-79080000D03*
X161000000Y-83040000D03*
D11*
G36*
X162123512Y-85651209D02*
G01*
X162147887Y-85654825D01*
X162171790Y-85660812D01*
X162194992Y-85669114D01*
X162217268Y-85679650D01*
X162238404Y-85692318D01*
X162258196Y-85706997D01*
X162276455Y-85723545D01*
X162293003Y-85741804D01*
X162307682Y-85761596D01*
X162320350Y-85782732D01*
X162330886Y-85805008D01*
X162339188Y-85828210D01*
X162345175Y-85852113D01*
X162348791Y-85876488D01*
X162350000Y-85901100D01*
X162350000Y-88098900D01*
X162348791Y-88123512D01*
X162345175Y-88147887D01*
X162339188Y-88171790D01*
X162330886Y-88194992D01*
X162320350Y-88217268D01*
X162307682Y-88238404D01*
X162293003Y-88258196D01*
X162276455Y-88276455D01*
X162258196Y-88293003D01*
X162238404Y-88307682D01*
X162217268Y-88320350D01*
X162194992Y-88330886D01*
X162171790Y-88339188D01*
X162147887Y-88345175D01*
X162123512Y-88348791D01*
X162098900Y-88350000D01*
X159901100Y-88350000D01*
X159876488Y-88348791D01*
X159852113Y-88345175D01*
X159828210Y-88339188D01*
X159805008Y-88330886D01*
X159782732Y-88320350D01*
X159761596Y-88307682D01*
X159741804Y-88293003D01*
X159723545Y-88276455D01*
X159706997Y-88258196D01*
X159692318Y-88238404D01*
X159679650Y-88217268D01*
X159669114Y-88194992D01*
X159660812Y-88171790D01*
X159654825Y-88147887D01*
X159651209Y-88123512D01*
X159650000Y-88098900D01*
X159650000Y-85901100D01*
X159651209Y-85876488D01*
X159654825Y-85852113D01*
X159660812Y-85828210D01*
X159669114Y-85805008D01*
X159679650Y-85782732D01*
X159692318Y-85761596D01*
X159706997Y-85741804D01*
X159723545Y-85723545D01*
X159741804Y-85706997D01*
X159761596Y-85692318D01*
X159782732Y-85679650D01*
X159805008Y-85669114D01*
X159828210Y-85660812D01*
X159852113Y-85654825D01*
X159876488Y-85651209D01*
X159901100Y-85650000D01*
X162098900Y-85650000D01*
X162123512Y-85651209D01*
X162123512Y-85651209D01*
G37*
D10*
X161000000Y-87000000D03*
X109000000Y-69920000D03*
X109000000Y-65960000D03*
X109000000Y-62000000D03*
X109000000Y-75000000D03*
X109000000Y-78960000D03*
X109000000Y-82920000D03*
D12*
X139000000Y-76500000D03*
D13*
X139000000Y-73960000D03*
X139000000Y-71420000D03*
D12*
X132000000Y-57500000D03*
D13*
X129460000Y-57500000D03*
X126920000Y-57500000D03*
X124380000Y-57500000D03*
D12*
X119000000Y-65000000D03*
D13*
X119000000Y-62460000D03*
X119000000Y-59920000D03*
D14*
X145500000Y-90500000D03*
D15*
X145500000Y-87960000D03*
X145500000Y-85420000D03*
D16*
X130500000Y-70500000D03*
X130500000Y-73500000D03*
X127500000Y-73500000D03*
X127500000Y-70500000D03*
X139500000Y-62500000D03*
X145500000Y-70500000D03*
X139500000Y-65500000D03*
X121000000Y-74500000D03*
X156000000Y-78000000D03*
X153500000Y-62000000D03*
X153500000Y-66500000D03*
X155500000Y-65500000D03*
X157500000Y-81500000D03*
X113000000Y-63000000D03*
X113472175Y-75027825D03*
D17*
X161000000Y-75120000D02*
X159620000Y-75120000D01*
X161000000Y-58120000D02*
X159620000Y-58120000D01*
D18*
X119080000Y-60000000D02*
X119000000Y-59920000D01*
X121000000Y-61000000D02*
X122000000Y-60000000D01*
X122000000Y-60000000D02*
X119080000Y-60000000D01*
X145500000Y-70500000D02*
X140500000Y-65500000D01*
X122000000Y-65500000D02*
X121000000Y-64500000D01*
X140500000Y-65500000D02*
X139500000Y-65500000D01*
X121000000Y-70500000D02*
X121000000Y-64500000D01*
X121000000Y-64500000D02*
X121000000Y-61000000D01*
X139500000Y-65500000D02*
X122000000Y-65500000D01*
X122000000Y-59880000D02*
X122000000Y-60000000D01*
X124380000Y-57500000D02*
X122000000Y-59880000D01*
X121000000Y-74500000D02*
X121000000Y-70500000D01*
D17*
X107050812Y-66000000D02*
X103000000Y-66000000D01*
X107090812Y-65960000D02*
X107050812Y-66000000D01*
X109000000Y-65960000D02*
X107090812Y-65960000D01*
X107050812Y-79000000D02*
X103000000Y-79000000D01*
X107090812Y-78960000D02*
X107050812Y-79000000D01*
X109000000Y-78960000D02*
X107090812Y-78960000D01*
D19*
X111472512Y-91812510D02*
X161187490Y-91812510D01*
X103000000Y-83339998D02*
X111472512Y-91812510D01*
X103000000Y-79000000D02*
X103000000Y-83339998D01*
X103000000Y-61345212D02*
X103000000Y-66000000D01*
X106595222Y-57749990D02*
X103000000Y-61345212D01*
X106910012Y-57749990D02*
X106595222Y-57749990D01*
X111660002Y-53000000D02*
X106910012Y-57749990D01*
X164000000Y-53000000D02*
X111660002Y-53000000D01*
X161187490Y-91812510D02*
X167074990Y-85925010D01*
X164000000Y-53000000D02*
X167074990Y-56074990D01*
D17*
X166000000Y-87000000D02*
X167074990Y-85925010D01*
X161000000Y-87000000D02*
X166000000Y-87000000D01*
X161000000Y-91625020D02*
X161187490Y-91812510D01*
X161000000Y-87000000D02*
X161000000Y-91625020D01*
X166524990Y-65925010D02*
X167074990Y-65925010D01*
X162450000Y-70000000D02*
X166524990Y-65925010D01*
X161000000Y-70000000D02*
X162450000Y-70000000D01*
D19*
X167074990Y-56074990D02*
X167074990Y-65925010D01*
D17*
X162500000Y-70000000D02*
X167074990Y-74574990D01*
X161000000Y-70000000D02*
X162500000Y-70000000D01*
D19*
X167074990Y-65925010D02*
X167074990Y-74574990D01*
X167074990Y-74574990D02*
X167074990Y-85925010D01*
X103000000Y-66000000D02*
X103000000Y-79000000D01*
D18*
X161000000Y-79080000D02*
X157080000Y-79080000D01*
X157080000Y-79080000D02*
X156000000Y-78000000D01*
X153580000Y-62080000D02*
X153500000Y-62000000D01*
X161000000Y-62080000D02*
X153580000Y-62080000D01*
X153500000Y-62000000D02*
X153500000Y-66500000D01*
X160960000Y-66000000D02*
X161000000Y-66040000D01*
X161000000Y-66040000D02*
X156040000Y-66040000D01*
X156040000Y-66040000D02*
X155500000Y-65500000D01*
X159040000Y-83040000D02*
X157500000Y-81500000D01*
X161000000Y-83040000D02*
X159040000Y-83040000D01*
D11*
X112000000Y-62000000D02*
X113000000Y-63000000D01*
X109000000Y-62000000D02*
X112000000Y-62000000D01*
X109000000Y-75000000D02*
X113444350Y-75000000D01*
X113444350Y-75000000D02*
X113472175Y-75027825D01*
D20*
G36*
X123550986Y-56259294D02*
G01*
X123324866Y-56444866D01*
X123139294Y-56670986D01*
X123001401Y-56928966D01*
X122916487Y-57208889D01*
X122900155Y-57374714D01*
X121409869Y-58865000D01*
X120055244Y-58865000D01*
X120055134Y-58864866D01*
X119829014Y-58679294D01*
X119571034Y-58541401D01*
X119291111Y-58456487D01*
X119072950Y-58435000D01*
X118927050Y-58435000D01*
X118708889Y-58456487D01*
X118428966Y-58541401D01*
X118170986Y-58679294D01*
X117944866Y-58864866D01*
X117759294Y-59090986D01*
X117621401Y-59348966D01*
X117536487Y-59628889D01*
X117507815Y-59920000D01*
X117536487Y-60211111D01*
X117621401Y-60491034D01*
X117759294Y-60749014D01*
X117944866Y-60975134D01*
X118170986Y-61160706D01*
X118225791Y-61190000D01*
X118170986Y-61219294D01*
X117944866Y-61404866D01*
X117759294Y-61630986D01*
X117621401Y-61888966D01*
X117536487Y-62168889D01*
X117507815Y-62460000D01*
X117536487Y-62751111D01*
X117621401Y-63031034D01*
X117759294Y-63289014D01*
X117944866Y-63515134D01*
X117974687Y-63539607D01*
X117905820Y-63560498D01*
X117795506Y-63619463D01*
X117698815Y-63698815D01*
X117619463Y-63795506D01*
X117560498Y-63905820D01*
X117524188Y-64025518D01*
X117511928Y-64150000D01*
X117515000Y-64714250D01*
X117673750Y-64873000D01*
X118873000Y-64873000D01*
X118873000Y-64853000D01*
X119127000Y-64853000D01*
X119127000Y-64873000D01*
X119147000Y-64873000D01*
X119147000Y-65127000D01*
X119127000Y-65127000D01*
X119127000Y-66326250D01*
X119285750Y-66485000D01*
X119850000Y-66488072D01*
X119865001Y-66486595D01*
X119865000Y-70555751D01*
X119865001Y-70555761D01*
X119865000Y-74078249D01*
X119836499Y-74147056D01*
X119790000Y-74380825D01*
X119790000Y-74619175D01*
X119836499Y-74852944D01*
X119927712Y-75073150D01*
X120060131Y-75271330D01*
X120228670Y-75439869D01*
X120426850Y-75572288D01*
X120647056Y-75663501D01*
X120880825Y-75710000D01*
X121119175Y-75710000D01*
X121352944Y-75663501D01*
X121573150Y-75572288D01*
X121771330Y-75439869D01*
X121939869Y-75271330D01*
X122072288Y-75073150D01*
X122163501Y-74852944D01*
X122210000Y-74619175D01*
X122210000Y-74380825D01*
X122163501Y-74147056D01*
X122135000Y-74078249D01*
X122135000Y-71420000D01*
X137507815Y-71420000D01*
X137536487Y-71711111D01*
X137621401Y-71991034D01*
X137759294Y-72249014D01*
X137944866Y-72475134D01*
X138170986Y-72660706D01*
X138225791Y-72690000D01*
X138170986Y-72719294D01*
X137944866Y-72904866D01*
X137759294Y-73130986D01*
X137621401Y-73388966D01*
X137536487Y-73668889D01*
X137507815Y-73960000D01*
X137536487Y-74251111D01*
X137621401Y-74531034D01*
X137759294Y-74789014D01*
X137944866Y-75015134D01*
X137974687Y-75039607D01*
X137905820Y-75060498D01*
X137795506Y-75119463D01*
X137698815Y-75198815D01*
X137619463Y-75295506D01*
X137560498Y-75405820D01*
X137524188Y-75525518D01*
X137511928Y-75650000D01*
X137515000Y-76214250D01*
X137673750Y-76373000D01*
X138873000Y-76373000D01*
X138873000Y-76353000D01*
X139127000Y-76353000D01*
X139127000Y-76373000D01*
X140326250Y-76373000D01*
X140485000Y-76214250D01*
X140488072Y-75650000D01*
X140475812Y-75525518D01*
X140439502Y-75405820D01*
X140380537Y-75295506D01*
X140301185Y-75198815D01*
X140204494Y-75119463D01*
X140094180Y-75060498D01*
X140025313Y-75039607D01*
X140055134Y-75015134D01*
X140240706Y-74789014D01*
X140245592Y-74779872D01*
X150765000Y-74779872D01*
X150765000Y-75220128D01*
X150850890Y-75651925D01*
X151019369Y-76058669D01*
X151263962Y-76424729D01*
X151575271Y-76736038D01*
X151941331Y-76980631D01*
X152348075Y-77149110D01*
X152779872Y-77235000D01*
X153220128Y-77235000D01*
X153651925Y-77149110D01*
X154058669Y-76980631D01*
X154424729Y-76736038D01*
X154736038Y-76424729D01*
X154980631Y-76058669D01*
X155149110Y-75651925D01*
X155235000Y-75220128D01*
X155235000Y-75168753D01*
X159005991Y-75168753D01*
X159053816Y-75556828D01*
X159176432Y-75928116D01*
X159314956Y-76187276D01*
X159615162Y-76325233D01*
X160820395Y-75120000D01*
X161179605Y-75120000D01*
X162384838Y-76325233D01*
X162685044Y-76187276D01*
X162860882Y-75838033D01*
X162965207Y-75461196D01*
X162994009Y-75071247D01*
X162946184Y-74683172D01*
X162823568Y-74311884D01*
X162685044Y-74052724D01*
X162384838Y-73914767D01*
X161179605Y-75120000D01*
X160820395Y-75120000D01*
X159615162Y-73914767D01*
X159314956Y-74052724D01*
X159139118Y-74401967D01*
X159034793Y-74778804D01*
X159005991Y-75168753D01*
X155235000Y-75168753D01*
X155235000Y-74779872D01*
X155149110Y-74348075D01*
X154980631Y-73941331D01*
X154842874Y-73735162D01*
X159794767Y-73735162D01*
X161000000Y-74940395D01*
X162205233Y-73735162D01*
X162067276Y-73434956D01*
X161718033Y-73259118D01*
X161341196Y-73154793D01*
X160951247Y-73125991D01*
X160563172Y-73173816D01*
X160191884Y-73296432D01*
X159932724Y-73434956D01*
X159794767Y-73735162D01*
X154842874Y-73735162D01*
X154736038Y-73575271D01*
X154424729Y-73263962D01*
X154058669Y-73019369D01*
X153651925Y-72850890D01*
X153220128Y-72765000D01*
X152779872Y-72765000D01*
X152348075Y-72850890D01*
X151941331Y-73019369D01*
X151575271Y-73263962D01*
X151263962Y-73575271D01*
X151019369Y-73941331D01*
X150850890Y-74348075D01*
X150765000Y-74779872D01*
X140245592Y-74779872D01*
X140378599Y-74531034D01*
X140463513Y-74251111D01*
X140492185Y-73960000D01*
X140463513Y-73668889D01*
X140378599Y-73388966D01*
X140240706Y-73130986D01*
X140055134Y-72904866D01*
X139829014Y-72719294D01*
X139774209Y-72690000D01*
X139829014Y-72660706D01*
X140055134Y-72475134D01*
X140240706Y-72249014D01*
X140378599Y-71991034D01*
X140463513Y-71711111D01*
X140492185Y-71420000D01*
X140463513Y-71128889D01*
X140378599Y-70848966D01*
X140240706Y-70590986D01*
X140055134Y-70364866D01*
X139829014Y-70179294D01*
X139571034Y-70041401D01*
X139291111Y-69956487D01*
X139072950Y-69935000D01*
X138927050Y-69935000D01*
X138708889Y-69956487D01*
X138428966Y-70041401D01*
X138170986Y-70179294D01*
X137944866Y-70364866D01*
X137759294Y-70590986D01*
X137621401Y-70848966D01*
X137536487Y-71128889D01*
X137507815Y-71420000D01*
X122135000Y-71420000D01*
X122135000Y-66635000D01*
X139078249Y-66635000D01*
X139147056Y-66663501D01*
X139380825Y-66710000D01*
X139619175Y-66710000D01*
X139852944Y-66663501D01*
X139921751Y-66635000D01*
X140029869Y-66635000D01*
X144399211Y-71004343D01*
X144427712Y-71073150D01*
X144560131Y-71271330D01*
X144728670Y-71439869D01*
X144926850Y-71572288D01*
X145147056Y-71663501D01*
X145380825Y-71710000D01*
X145619175Y-71710000D01*
X145852944Y-71663501D01*
X146073150Y-71572288D01*
X146271330Y-71439869D01*
X146439869Y-71271330D01*
X146572288Y-71073150D01*
X146663501Y-70852944D01*
X146710000Y-70619175D01*
X146710000Y-70380825D01*
X146663501Y-70147056D01*
X146572288Y-69926850D01*
X146439869Y-69728670D01*
X146271330Y-69560131D01*
X146073150Y-69427712D01*
X146004343Y-69399211D01*
X141341996Y-64736865D01*
X141306449Y-64693551D01*
X141133623Y-64551716D01*
X140936447Y-64446324D01*
X140722499Y-64381423D01*
X140555752Y-64365000D01*
X140555751Y-64365000D01*
X140500000Y-64359509D01*
X140444249Y-64365000D01*
X139921751Y-64365000D01*
X139852944Y-64336499D01*
X139619175Y-64290000D01*
X139380825Y-64290000D01*
X139147056Y-64336499D01*
X139078249Y-64365000D01*
X122470132Y-64365000D01*
X122135000Y-64029868D01*
X122135000Y-61470132D01*
X122763145Y-60841987D01*
X122806449Y-60806449D01*
X122948284Y-60633623D01*
X122991045Y-60553622D01*
X123053676Y-60436447D01*
X123055850Y-60429281D01*
X124505286Y-58979845D01*
X124671111Y-58963513D01*
X124951034Y-58878599D01*
X125209014Y-58740706D01*
X125435134Y-58555134D01*
X125620706Y-58329014D01*
X125655201Y-58264477D01*
X125724822Y-58381355D01*
X125919731Y-58597588D01*
X126153080Y-58771641D01*
X126415901Y-58896825D01*
X126563110Y-58941476D01*
X126793000Y-58820155D01*
X126793000Y-57627000D01*
X126773000Y-57627000D01*
X126773000Y-57373000D01*
X126793000Y-57373000D01*
X126793000Y-57353000D01*
X127047000Y-57353000D01*
X127047000Y-57373000D01*
X127067000Y-57373000D01*
X127067000Y-57627000D01*
X127047000Y-57627000D01*
X127047000Y-58820155D01*
X127276890Y-58941476D01*
X127424099Y-58896825D01*
X127686920Y-58771641D01*
X127920269Y-58597588D01*
X128115178Y-58381355D01*
X128184799Y-58264477D01*
X128219294Y-58329014D01*
X128404866Y-58555134D01*
X128630986Y-58740706D01*
X128888966Y-58878599D01*
X129168889Y-58963513D01*
X129387050Y-58985000D01*
X129532950Y-58985000D01*
X129751111Y-58963513D01*
X130031034Y-58878599D01*
X130289014Y-58740706D01*
X130515134Y-58555134D01*
X130539607Y-58525313D01*
X130560498Y-58594180D01*
X130619463Y-58704494D01*
X130698815Y-58801185D01*
X130795506Y-58880537D01*
X130905820Y-58939502D01*
X131025518Y-58975812D01*
X131150000Y-58988072D01*
X132850000Y-58988072D01*
X132974482Y-58975812D01*
X133094180Y-58939502D01*
X133204494Y-58880537D01*
X133301185Y-58801185D01*
X133380537Y-58704494D01*
X133439502Y-58594180D01*
X133475812Y-58474482D01*
X133488072Y-58350000D01*
X133488072Y-58168753D01*
X159005991Y-58168753D01*
X159053816Y-58556828D01*
X159176432Y-58928116D01*
X159314956Y-59187276D01*
X159615162Y-59325233D01*
X160820395Y-58120000D01*
X161179605Y-58120000D01*
X162384838Y-59325233D01*
X162685044Y-59187276D01*
X162860882Y-58838033D01*
X162965207Y-58461196D01*
X162994009Y-58071247D01*
X162946184Y-57683172D01*
X162823568Y-57311884D01*
X162685044Y-57052724D01*
X162384838Y-56914767D01*
X161179605Y-58120000D01*
X160820395Y-58120000D01*
X159615162Y-56914767D01*
X159314956Y-57052724D01*
X159139118Y-57401967D01*
X159034793Y-57778804D01*
X159005991Y-58168753D01*
X133488072Y-58168753D01*
X133488072Y-56650000D01*
X133475812Y-56525518D01*
X133439502Y-56405820D01*
X133380537Y-56295506D01*
X133301185Y-56198815D01*
X133223426Y-56135000D01*
X160878144Y-56135000D01*
X160563172Y-56173816D01*
X160191884Y-56296432D01*
X159932724Y-56434956D01*
X159794767Y-56735162D01*
X161000000Y-57940395D01*
X162205233Y-56735162D01*
X162067276Y-56434956D01*
X161718033Y-56259118D01*
X161341196Y-56154793D01*
X161073219Y-56135000D01*
X162701442Y-56135000D01*
X163939990Y-57373549D01*
X163939990Y-59873000D01*
X161940139Y-59873000D01*
X162067276Y-59805044D01*
X162205233Y-59504838D01*
X161000000Y-58299605D01*
X159794767Y-59504838D01*
X159932724Y-59805044D01*
X160281967Y-59980882D01*
X160658804Y-60085207D01*
X160800947Y-60095706D01*
X160420997Y-60171282D01*
X160059750Y-60320915D01*
X159734636Y-60538149D01*
X159458149Y-60814636D01*
X159371043Y-60945000D01*
X154099023Y-60945000D01*
X154073150Y-60927712D01*
X153852944Y-60836499D01*
X153619175Y-60790000D01*
X153380825Y-60790000D01*
X153147056Y-60836499D01*
X152926850Y-60927712D01*
X152728670Y-61060131D01*
X152560131Y-61228670D01*
X152427712Y-61426850D01*
X152336499Y-61647056D01*
X152290000Y-61880825D01*
X152290000Y-62119175D01*
X152336499Y-62352944D01*
X152365000Y-62421751D01*
X152365001Y-66078247D01*
X152336499Y-66147056D01*
X152290000Y-66380825D01*
X152290000Y-66619175D01*
X152336499Y-66852944D01*
X152427712Y-67073150D01*
X152560131Y-67271330D01*
X152728670Y-67439869D01*
X152926850Y-67572288D01*
X153147056Y-67663501D01*
X153380825Y-67710000D01*
X153619175Y-67710000D01*
X153852944Y-67663501D01*
X154073150Y-67572288D01*
X154271330Y-67439869D01*
X154439869Y-67271330D01*
X154572288Y-67073150D01*
X154663501Y-66852944D01*
X154710000Y-66619175D01*
X154710000Y-66421199D01*
X154728670Y-66439869D01*
X154926850Y-66572288D01*
X154995659Y-66600790D01*
X155198004Y-66803135D01*
X155233551Y-66846449D01*
X155406377Y-66988284D01*
X155603553Y-67093676D01*
X155817501Y-67158577D01*
X155984248Y-67175000D01*
X155984257Y-67175000D01*
X156039999Y-67180490D01*
X156095741Y-67175000D01*
X159371043Y-67175000D01*
X159458149Y-67305364D01*
X159734636Y-67581851D01*
X160059750Y-67799085D01*
X160415217Y-67946324D01*
X160198949Y-68011928D01*
X159901100Y-68011928D01*
X159727631Y-68029013D01*
X159560829Y-68079612D01*
X159407103Y-68161781D01*
X159272360Y-68272360D01*
X159161781Y-68407103D01*
X159079612Y-68560829D01*
X159029013Y-68727631D01*
X159011928Y-68901100D01*
X159011928Y-69198949D01*
X158895892Y-69581467D01*
X158854670Y-70000000D01*
X158895892Y-70418533D01*
X159011928Y-70801051D01*
X159011928Y-71098900D01*
X159029013Y-71272369D01*
X159079612Y-71439171D01*
X159161781Y-71592897D01*
X159272360Y-71727640D01*
X159407103Y-71838219D01*
X159560829Y-71920388D01*
X159727631Y-71970987D01*
X159901100Y-71988072D01*
X160198949Y-71988072D01*
X160581467Y-72104108D01*
X160895118Y-72135000D01*
X161615655Y-72135000D01*
X163939990Y-74459336D01*
X163939990Y-76873000D01*
X161940139Y-76873000D01*
X162067276Y-76805044D01*
X162205233Y-76504838D01*
X161000000Y-75299605D01*
X159794767Y-76504838D01*
X159932724Y-76805044D01*
X160281967Y-76980882D01*
X160658804Y-77085207D01*
X160800947Y-77095706D01*
X160420997Y-77171282D01*
X160059750Y-77320915D01*
X159734636Y-77538149D01*
X159458149Y-77814636D01*
X159371043Y-77945000D01*
X157550132Y-77945000D01*
X157100789Y-77495658D01*
X157072288Y-77426850D01*
X156939869Y-77228670D01*
X156771330Y-77060131D01*
X156573150Y-76927712D01*
X156352944Y-76836499D01*
X156119175Y-76790000D01*
X155880825Y-76790000D01*
X155647056Y-76836499D01*
X155426850Y-76927712D01*
X155228670Y-77060131D01*
X155060131Y-77228670D01*
X154927712Y-77426850D01*
X154836499Y-77647056D01*
X154790000Y-77880825D01*
X154790000Y-78119175D01*
X154836499Y-78352944D01*
X154927712Y-78573150D01*
X155060131Y-78771330D01*
X155228670Y-78939869D01*
X155426850Y-79072288D01*
X155495658Y-79100789D01*
X156238013Y-79843146D01*
X156273551Y-79886449D01*
X156316854Y-79921987D01*
X156316856Y-79921989D01*
X156446377Y-80028284D01*
X156643553Y-80133676D01*
X156857501Y-80198577D01*
X157080000Y-80220491D01*
X157135752Y-80215000D01*
X159371043Y-80215000D01*
X159458149Y-80345364D01*
X159734636Y-80621851D01*
X160059750Y-80839085D01*
X160420997Y-80988718D01*
X160779358Y-81060000D01*
X160420997Y-81131282D01*
X160059750Y-81280915D01*
X159734636Y-81498149D01*
X159458149Y-81774636D01*
X159426754Y-81821622D01*
X158600790Y-80995658D01*
X158572288Y-80926850D01*
X158439869Y-80728670D01*
X158271330Y-80560131D01*
X158073150Y-80427712D01*
X157852944Y-80336499D01*
X157619175Y-80290000D01*
X157380825Y-80290000D01*
X157147056Y-80336499D01*
X156926850Y-80427712D01*
X156728670Y-80560131D01*
X156560131Y-80728670D01*
X156427712Y-80926850D01*
X156336499Y-81147056D01*
X156290000Y-81380825D01*
X156290000Y-81619175D01*
X156336499Y-81852944D01*
X156427712Y-82073150D01*
X156560131Y-82271330D01*
X156728670Y-82439869D01*
X156926850Y-82572288D01*
X156995658Y-82600790D01*
X158198009Y-83803140D01*
X158233551Y-83846449D01*
X158406377Y-83988284D01*
X158603553Y-84093676D01*
X158817501Y-84158577D01*
X158982939Y-84174871D01*
X159040000Y-84180491D01*
X159095752Y-84175000D01*
X159371043Y-84175000D01*
X159458149Y-84305364D01*
X159734636Y-84581851D01*
X160059750Y-84799085D01*
X160415217Y-84946324D01*
X160198949Y-85011928D01*
X159901100Y-85011928D01*
X159727631Y-85029013D01*
X159560829Y-85079612D01*
X159407103Y-85161781D01*
X159272360Y-85272360D01*
X159161781Y-85407103D01*
X159079612Y-85560829D01*
X159029013Y-85727631D01*
X159011928Y-85901100D01*
X159011928Y-86198949D01*
X158895892Y-86581467D01*
X158854670Y-87000000D01*
X158865000Y-87104882D01*
X158865000Y-88677510D01*
X146953756Y-88677510D01*
X147019571Y-88551094D01*
X147090563Y-88332980D01*
X146970594Y-88087000D01*
X145627000Y-88087000D01*
X145627000Y-88107000D01*
X145373000Y-88107000D01*
X145373000Y-88087000D01*
X144029406Y-88087000D01*
X143909437Y-88332980D01*
X143980429Y-88551094D01*
X144046244Y-88677510D01*
X112771072Y-88677510D01*
X109513561Y-85420000D01*
X143857319Y-85420000D01*
X143887970Y-85731204D01*
X143978745Y-86030449D01*
X144126155Y-86306235D01*
X144324537Y-86547963D01*
X144503899Y-86695163D01*
X144318685Y-86850563D01*
X144124031Y-87093077D01*
X143980429Y-87368906D01*
X143909437Y-87587020D01*
X144029406Y-87833000D01*
X145373000Y-87833000D01*
X145373000Y-87813000D01*
X145627000Y-87813000D01*
X145627000Y-87833000D01*
X146970594Y-87833000D01*
X147090563Y-87587020D01*
X147019571Y-87368906D01*
X146875969Y-87093077D01*
X146681315Y-86850563D01*
X146496101Y-86695163D01*
X146675463Y-86547963D01*
X146873845Y-86306235D01*
X147021255Y-86030449D01*
X147112030Y-85731204D01*
X147142681Y-85420000D01*
X147112030Y-85108796D01*
X147021255Y-84809551D01*
X146873845Y-84533765D01*
X146675463Y-84292037D01*
X146433735Y-84093655D01*
X146157949Y-83946245D01*
X145858704Y-83855470D01*
X145625486Y-83832500D01*
X145374514Y-83832500D01*
X145141296Y-83855470D01*
X144842051Y-83946245D01*
X144566265Y-84093655D01*
X144324537Y-84292037D01*
X144126155Y-84533765D01*
X143978745Y-84809551D01*
X143887970Y-85108796D01*
X143857319Y-85420000D01*
X109513561Y-85420000D01*
X109004285Y-84910725D01*
X109048753Y-84914009D01*
X109436828Y-84866184D01*
X109808116Y-84743568D01*
X110067276Y-84605044D01*
X110205233Y-84304838D01*
X109000000Y-83099605D01*
X108985858Y-83113748D01*
X108806253Y-82934143D01*
X108820395Y-82920000D01*
X109179605Y-82920000D01*
X110384838Y-84125233D01*
X110685044Y-83987276D01*
X110860882Y-83638033D01*
X110965207Y-83261196D01*
X110994009Y-82871247D01*
X110946184Y-82483172D01*
X110823568Y-82111884D01*
X110685044Y-81852724D01*
X110384838Y-81714767D01*
X109179605Y-82920000D01*
X108820395Y-82920000D01*
X107615162Y-81714767D01*
X107314956Y-81852724D01*
X107139118Y-82201967D01*
X107034793Y-82578804D01*
X107009865Y-82916304D01*
X106135000Y-82041440D01*
X106135000Y-81135000D01*
X106945940Y-81135000D01*
X107050812Y-81145329D01*
X107155684Y-81135000D01*
X107155694Y-81135000D01*
X107469345Y-81104108D01*
X107499370Y-81095000D01*
X108196220Y-81095000D01*
X108191884Y-81096432D01*
X107932724Y-81234956D01*
X107794767Y-81535162D01*
X109000000Y-82740395D01*
X110205233Y-81535162D01*
X110067276Y-81234956D01*
X109718033Y-81059118D01*
X109570043Y-81018148D01*
X109820982Y-80942026D01*
X110191881Y-80743777D01*
X110516977Y-80476977D01*
X110783777Y-80151881D01*
X110982026Y-79780982D01*
X111104108Y-79378533D01*
X111145330Y-78960000D01*
X111104108Y-78541467D01*
X110982026Y-78139018D01*
X110783777Y-77768119D01*
X110516977Y-77443023D01*
X110403629Y-77350000D01*
X137511928Y-77350000D01*
X137524188Y-77474482D01*
X137560498Y-77594180D01*
X137619463Y-77704494D01*
X137698815Y-77801185D01*
X137795506Y-77880537D01*
X137905820Y-77939502D01*
X138025518Y-77975812D01*
X138150000Y-77988072D01*
X138714250Y-77985000D01*
X138873000Y-77826250D01*
X138873000Y-76627000D01*
X139127000Y-76627000D01*
X139127000Y-77826250D01*
X139285750Y-77985000D01*
X139850000Y-77988072D01*
X139974482Y-77975812D01*
X140094180Y-77939502D01*
X140204494Y-77880537D01*
X140301185Y-77801185D01*
X140380537Y-77704494D01*
X140439502Y-77594180D01*
X140475812Y-77474482D01*
X140488072Y-77350000D01*
X140485000Y-76785750D01*
X140326250Y-76627000D01*
X139127000Y-76627000D01*
X138873000Y-76627000D01*
X137673750Y-76627000D01*
X137515000Y-76785750D01*
X137511928Y-77350000D01*
X110403629Y-77350000D01*
X110191881Y-77176223D01*
X109820982Y-76977974D01*
X109584783Y-76906324D01*
X109940250Y-76759085D01*
X110265364Y-76541851D01*
X110541851Y-76265364D01*
X110759085Y-75940250D01*
X110833747Y-75760000D01*
X112506144Y-75760000D01*
X112532306Y-75799155D01*
X112700845Y-75967694D01*
X112899025Y-76100113D01*
X113119231Y-76191326D01*
X113353000Y-76237825D01*
X113591350Y-76237825D01*
X113825119Y-76191326D01*
X114045325Y-76100113D01*
X114243505Y-75967694D01*
X114412044Y-75799155D01*
X114544463Y-75600975D01*
X114635676Y-75380769D01*
X114682175Y-75147000D01*
X114682175Y-74908650D01*
X114635676Y-74674881D01*
X114544463Y-74454675D01*
X114412044Y-74256495D01*
X114243505Y-74087956D01*
X114045325Y-73955537D01*
X113825119Y-73864324D01*
X113591350Y-73817825D01*
X113353000Y-73817825D01*
X113119231Y-73864324D01*
X112899025Y-73955537D01*
X112700845Y-74087956D01*
X112548801Y-74240000D01*
X110833747Y-74240000D01*
X110759085Y-74059750D01*
X110541851Y-73734636D01*
X110265364Y-73458149D01*
X109940250Y-73240915D01*
X109579003Y-73091282D01*
X109195505Y-73015000D01*
X108804495Y-73015000D01*
X108420997Y-73091282D01*
X108059750Y-73240915D01*
X107734636Y-73458149D01*
X107458149Y-73734636D01*
X107240915Y-74059750D01*
X107091282Y-74420997D01*
X107015000Y-74804495D01*
X107015000Y-75195505D01*
X107091282Y-75579003D01*
X107240915Y-75940250D01*
X107458149Y-76265364D01*
X107734636Y-76541851D01*
X108059750Y-76759085D01*
X108218883Y-76825000D01*
X107195686Y-76825000D01*
X107090812Y-76814671D01*
X106985938Y-76825000D01*
X106985930Y-76825000D01*
X106672279Y-76855892D01*
X106642254Y-76865000D01*
X106135000Y-76865000D01*
X106135000Y-71304838D01*
X107794767Y-71304838D01*
X107932724Y-71605044D01*
X108281967Y-71780882D01*
X108658804Y-71885207D01*
X109048753Y-71914009D01*
X109436828Y-71866184D01*
X109808116Y-71743568D01*
X110067276Y-71605044D01*
X110205233Y-71304838D01*
X109000000Y-70099605D01*
X107794767Y-71304838D01*
X106135000Y-71304838D01*
X106135000Y-69968753D01*
X107005991Y-69968753D01*
X107053816Y-70356828D01*
X107176432Y-70728116D01*
X107314956Y-70987276D01*
X107615162Y-71125233D01*
X108820395Y-69920000D01*
X109179605Y-69920000D01*
X110384838Y-71125233D01*
X110685044Y-70987276D01*
X110860882Y-70638033D01*
X110965207Y-70261196D01*
X110994009Y-69871247D01*
X110946184Y-69483172D01*
X110823568Y-69111884D01*
X110685044Y-68852724D01*
X110384838Y-68714767D01*
X109179605Y-69920000D01*
X108820395Y-69920000D01*
X107615162Y-68714767D01*
X107314956Y-68852724D01*
X107139118Y-69201967D01*
X107034793Y-69578804D01*
X107005991Y-69968753D01*
X106135000Y-69968753D01*
X106135000Y-68135000D01*
X106945940Y-68135000D01*
X107050812Y-68145329D01*
X107155684Y-68135000D01*
X107155694Y-68135000D01*
X107469345Y-68104108D01*
X107499370Y-68095000D01*
X108196220Y-68095000D01*
X108191884Y-68096432D01*
X107932724Y-68234956D01*
X107794767Y-68535162D01*
X109000000Y-69740395D01*
X110205233Y-68535162D01*
X110067276Y-68234956D01*
X109718033Y-68059118D01*
X109570043Y-68018148D01*
X109820982Y-67942026D01*
X110191881Y-67743777D01*
X110516977Y-67476977D01*
X110783777Y-67151881D01*
X110982026Y-66780982D01*
X111104108Y-66378533D01*
X111145330Y-65960000D01*
X111134496Y-65850000D01*
X117511928Y-65850000D01*
X117524188Y-65974482D01*
X117560498Y-66094180D01*
X117619463Y-66204494D01*
X117698815Y-66301185D01*
X117795506Y-66380537D01*
X117905820Y-66439502D01*
X118025518Y-66475812D01*
X118150000Y-66488072D01*
X118714250Y-66485000D01*
X118873000Y-66326250D01*
X118873000Y-65127000D01*
X117673750Y-65127000D01*
X117515000Y-65285750D01*
X117511928Y-65850000D01*
X111134496Y-65850000D01*
X111104108Y-65541467D01*
X110982026Y-65139018D01*
X110783777Y-64768119D01*
X110516977Y-64443023D01*
X110191881Y-64176223D01*
X109820982Y-63977974D01*
X109584783Y-63906324D01*
X109940250Y-63759085D01*
X110265364Y-63541851D01*
X110541851Y-63265364D01*
X110759085Y-62940250D01*
X110833747Y-62760000D01*
X111685199Y-62760000D01*
X111792658Y-62867460D01*
X111790000Y-62880825D01*
X111790000Y-63119175D01*
X111836499Y-63352944D01*
X111927712Y-63573150D01*
X112060131Y-63771330D01*
X112228670Y-63939869D01*
X112426850Y-64072288D01*
X112647056Y-64163501D01*
X112880825Y-64210000D01*
X113119175Y-64210000D01*
X113352944Y-64163501D01*
X113573150Y-64072288D01*
X113771330Y-63939869D01*
X113939869Y-63771330D01*
X114072288Y-63573150D01*
X114163501Y-63352944D01*
X114210000Y-63119175D01*
X114210000Y-62880825D01*
X114163501Y-62647056D01*
X114072288Y-62426850D01*
X113939869Y-62228670D01*
X113771330Y-62060131D01*
X113573150Y-61927712D01*
X113352944Y-61836499D01*
X113119175Y-61790000D01*
X112880825Y-61790000D01*
X112867460Y-61792658D01*
X112563804Y-61489002D01*
X112540001Y-61459999D01*
X112424276Y-61365026D01*
X112292247Y-61294454D01*
X112148986Y-61250997D01*
X112037333Y-61240000D01*
X112037322Y-61240000D01*
X112000000Y-61236324D01*
X111962678Y-61240000D01*
X110833747Y-61240000D01*
X110759085Y-61059750D01*
X110541851Y-60734636D01*
X110265364Y-60458149D01*
X109940250Y-60240915D01*
X109579003Y-60091282D01*
X109195505Y-60015000D01*
X109091817Y-60015000D01*
X109137517Y-59977495D01*
X109235694Y-59857866D01*
X112958562Y-56135000D01*
X123783524Y-56135000D01*
X123550986Y-56259294D01*
X123550986Y-56259294D01*
G37*
X123550986Y-56259294D02*
X123324866Y-56444866D01*
X123139294Y-56670986D01*
X123001401Y-56928966D01*
X122916487Y-57208889D01*
X122900155Y-57374714D01*
X121409869Y-58865000D01*
X120055244Y-58865000D01*
X120055134Y-58864866D01*
X119829014Y-58679294D01*
X119571034Y-58541401D01*
X119291111Y-58456487D01*
X119072950Y-58435000D01*
X118927050Y-58435000D01*
X118708889Y-58456487D01*
X118428966Y-58541401D01*
X118170986Y-58679294D01*
X117944866Y-58864866D01*
X117759294Y-59090986D01*
X117621401Y-59348966D01*
X117536487Y-59628889D01*
X117507815Y-59920000D01*
X117536487Y-60211111D01*
X117621401Y-60491034D01*
X117759294Y-60749014D01*
X117944866Y-60975134D01*
X118170986Y-61160706D01*
X118225791Y-61190000D01*
X118170986Y-61219294D01*
X117944866Y-61404866D01*
X117759294Y-61630986D01*
X117621401Y-61888966D01*
X117536487Y-62168889D01*
X117507815Y-62460000D01*
X117536487Y-62751111D01*
X117621401Y-63031034D01*
X117759294Y-63289014D01*
X117944866Y-63515134D01*
X117974687Y-63539607D01*
X117905820Y-63560498D01*
X117795506Y-63619463D01*
X117698815Y-63698815D01*
X117619463Y-63795506D01*
X117560498Y-63905820D01*
X117524188Y-64025518D01*
X117511928Y-64150000D01*
X117515000Y-64714250D01*
X117673750Y-64873000D01*
X118873000Y-64873000D01*
X118873000Y-64853000D01*
X119127000Y-64853000D01*
X119127000Y-64873000D01*
X119147000Y-64873000D01*
X119147000Y-65127000D01*
X119127000Y-65127000D01*
X119127000Y-66326250D01*
X119285750Y-66485000D01*
X119850000Y-66488072D01*
X119865001Y-66486595D01*
X119865000Y-70555751D01*
X119865001Y-70555761D01*
X119865000Y-74078249D01*
X119836499Y-74147056D01*
X119790000Y-74380825D01*
X119790000Y-74619175D01*
X119836499Y-74852944D01*
X119927712Y-75073150D01*
X120060131Y-75271330D01*
X120228670Y-75439869D01*
X120426850Y-75572288D01*
X120647056Y-75663501D01*
X120880825Y-75710000D01*
X121119175Y-75710000D01*
X121352944Y-75663501D01*
X121573150Y-75572288D01*
X121771330Y-75439869D01*
X121939869Y-75271330D01*
X122072288Y-75073150D01*
X122163501Y-74852944D01*
X122210000Y-74619175D01*
X122210000Y-74380825D01*
X122163501Y-74147056D01*
X122135000Y-74078249D01*
X122135000Y-71420000D01*
X137507815Y-71420000D01*
X137536487Y-71711111D01*
X137621401Y-71991034D01*
X137759294Y-72249014D01*
X137944866Y-72475134D01*
X138170986Y-72660706D01*
X138225791Y-72690000D01*
X138170986Y-72719294D01*
X137944866Y-72904866D01*
X137759294Y-73130986D01*
X137621401Y-73388966D01*
X137536487Y-73668889D01*
X137507815Y-73960000D01*
X137536487Y-74251111D01*
X137621401Y-74531034D01*
X137759294Y-74789014D01*
X137944866Y-75015134D01*
X137974687Y-75039607D01*
X137905820Y-75060498D01*
X137795506Y-75119463D01*
X137698815Y-75198815D01*
X137619463Y-75295506D01*
X137560498Y-75405820D01*
X137524188Y-75525518D01*
X137511928Y-75650000D01*
X137515000Y-76214250D01*
X137673750Y-76373000D01*
X138873000Y-76373000D01*
X138873000Y-76353000D01*
X139127000Y-76353000D01*
X139127000Y-76373000D01*
X140326250Y-76373000D01*
X140485000Y-76214250D01*
X140488072Y-75650000D01*
X140475812Y-75525518D01*
X140439502Y-75405820D01*
X140380537Y-75295506D01*
X140301185Y-75198815D01*
X140204494Y-75119463D01*
X140094180Y-75060498D01*
X140025313Y-75039607D01*
X140055134Y-75015134D01*
X140240706Y-74789014D01*
X140245592Y-74779872D01*
X150765000Y-74779872D01*
X150765000Y-75220128D01*
X150850890Y-75651925D01*
X151019369Y-76058669D01*
X151263962Y-76424729D01*
X151575271Y-76736038D01*
X151941331Y-76980631D01*
X152348075Y-77149110D01*
X152779872Y-77235000D01*
X153220128Y-77235000D01*
X153651925Y-77149110D01*
X154058669Y-76980631D01*
X154424729Y-76736038D01*
X154736038Y-76424729D01*
X154980631Y-76058669D01*
X155149110Y-75651925D01*
X155235000Y-75220128D01*
X155235000Y-75168753D01*
X159005991Y-75168753D01*
X159053816Y-75556828D01*
X159176432Y-75928116D01*
X159314956Y-76187276D01*
X159615162Y-76325233D01*
X160820395Y-75120000D01*
X161179605Y-75120000D01*
X162384838Y-76325233D01*
X162685044Y-76187276D01*
X162860882Y-75838033D01*
X162965207Y-75461196D01*
X162994009Y-75071247D01*
X162946184Y-74683172D01*
X162823568Y-74311884D01*
X162685044Y-74052724D01*
X162384838Y-73914767D01*
X161179605Y-75120000D01*
X160820395Y-75120000D01*
X159615162Y-73914767D01*
X159314956Y-74052724D01*
X159139118Y-74401967D01*
X159034793Y-74778804D01*
X159005991Y-75168753D01*
X155235000Y-75168753D01*
X155235000Y-74779872D01*
X155149110Y-74348075D01*
X154980631Y-73941331D01*
X154842874Y-73735162D01*
X159794767Y-73735162D01*
X161000000Y-74940395D01*
X162205233Y-73735162D01*
X162067276Y-73434956D01*
X161718033Y-73259118D01*
X161341196Y-73154793D01*
X160951247Y-73125991D01*
X160563172Y-73173816D01*
X160191884Y-73296432D01*
X159932724Y-73434956D01*
X159794767Y-73735162D01*
X154842874Y-73735162D01*
X154736038Y-73575271D01*
X154424729Y-73263962D01*
X154058669Y-73019369D01*
X153651925Y-72850890D01*
X153220128Y-72765000D01*
X152779872Y-72765000D01*
X152348075Y-72850890D01*
X151941331Y-73019369D01*
X151575271Y-73263962D01*
X151263962Y-73575271D01*
X151019369Y-73941331D01*
X150850890Y-74348075D01*
X150765000Y-74779872D01*
X140245592Y-74779872D01*
X140378599Y-74531034D01*
X140463513Y-74251111D01*
X140492185Y-73960000D01*
X140463513Y-73668889D01*
X140378599Y-73388966D01*
X140240706Y-73130986D01*
X140055134Y-72904866D01*
X139829014Y-72719294D01*
X139774209Y-72690000D01*
X139829014Y-72660706D01*
X140055134Y-72475134D01*
X140240706Y-72249014D01*
X140378599Y-71991034D01*
X140463513Y-71711111D01*
X140492185Y-71420000D01*
X140463513Y-71128889D01*
X140378599Y-70848966D01*
X140240706Y-70590986D01*
X140055134Y-70364866D01*
X139829014Y-70179294D01*
X139571034Y-70041401D01*
X139291111Y-69956487D01*
X139072950Y-69935000D01*
X138927050Y-69935000D01*
X138708889Y-69956487D01*
X138428966Y-70041401D01*
X138170986Y-70179294D01*
X137944866Y-70364866D01*
X137759294Y-70590986D01*
X137621401Y-70848966D01*
X137536487Y-71128889D01*
X137507815Y-71420000D01*
X122135000Y-71420000D01*
X122135000Y-66635000D01*
X139078249Y-66635000D01*
X139147056Y-66663501D01*
X139380825Y-66710000D01*
X139619175Y-66710000D01*
X139852944Y-66663501D01*
X139921751Y-66635000D01*
X140029869Y-66635000D01*
X144399211Y-71004343D01*
X144427712Y-71073150D01*
X144560131Y-71271330D01*
X144728670Y-71439869D01*
X144926850Y-71572288D01*
X145147056Y-71663501D01*
X145380825Y-71710000D01*
X145619175Y-71710000D01*
X145852944Y-71663501D01*
X146073150Y-71572288D01*
X146271330Y-71439869D01*
X146439869Y-71271330D01*
X146572288Y-71073150D01*
X146663501Y-70852944D01*
X146710000Y-70619175D01*
X146710000Y-70380825D01*
X146663501Y-70147056D01*
X146572288Y-69926850D01*
X146439869Y-69728670D01*
X146271330Y-69560131D01*
X146073150Y-69427712D01*
X146004343Y-69399211D01*
X141341996Y-64736865D01*
X141306449Y-64693551D01*
X141133623Y-64551716D01*
X140936447Y-64446324D01*
X140722499Y-64381423D01*
X140555752Y-64365000D01*
X140555751Y-64365000D01*
X140500000Y-64359509D01*
X140444249Y-64365000D01*
X139921751Y-64365000D01*
X139852944Y-64336499D01*
X139619175Y-64290000D01*
X139380825Y-64290000D01*
X139147056Y-64336499D01*
X139078249Y-64365000D01*
X122470132Y-64365000D01*
X122135000Y-64029868D01*
X122135000Y-61470132D01*
X122763145Y-60841987D01*
X122806449Y-60806449D01*
X122948284Y-60633623D01*
X122991045Y-60553622D01*
X123053676Y-60436447D01*
X123055850Y-60429281D01*
X124505286Y-58979845D01*
X124671111Y-58963513D01*
X124951034Y-58878599D01*
X125209014Y-58740706D01*
X125435134Y-58555134D01*
X125620706Y-58329014D01*
X125655201Y-58264477D01*
X125724822Y-58381355D01*
X125919731Y-58597588D01*
X126153080Y-58771641D01*
X126415901Y-58896825D01*
X126563110Y-58941476D01*
X126793000Y-58820155D01*
X126793000Y-57627000D01*
X126773000Y-57627000D01*
X126773000Y-57373000D01*
X126793000Y-57373000D01*
X126793000Y-57353000D01*
X127047000Y-57353000D01*
X127047000Y-57373000D01*
X127067000Y-57373000D01*
X127067000Y-57627000D01*
X127047000Y-57627000D01*
X127047000Y-58820155D01*
X127276890Y-58941476D01*
X127424099Y-58896825D01*
X127686920Y-58771641D01*
X127920269Y-58597588D01*
X128115178Y-58381355D01*
X128184799Y-58264477D01*
X128219294Y-58329014D01*
X128404866Y-58555134D01*
X128630986Y-58740706D01*
X128888966Y-58878599D01*
X129168889Y-58963513D01*
X129387050Y-58985000D01*
X129532950Y-58985000D01*
X129751111Y-58963513D01*
X130031034Y-58878599D01*
X130289014Y-58740706D01*
X130515134Y-58555134D01*
X130539607Y-58525313D01*
X130560498Y-58594180D01*
X130619463Y-58704494D01*
X130698815Y-58801185D01*
X130795506Y-58880537D01*
X130905820Y-58939502D01*
X131025518Y-58975812D01*
X131150000Y-58988072D01*
X132850000Y-58988072D01*
X132974482Y-58975812D01*
X133094180Y-58939502D01*
X133204494Y-58880537D01*
X133301185Y-58801185D01*
X133380537Y-58704494D01*
X133439502Y-58594180D01*
X133475812Y-58474482D01*
X133488072Y-58350000D01*
X133488072Y-58168753D01*
X159005991Y-58168753D01*
X159053816Y-58556828D01*
X159176432Y-58928116D01*
X159314956Y-59187276D01*
X159615162Y-59325233D01*
X160820395Y-58120000D01*
X161179605Y-58120000D01*
X162384838Y-59325233D01*
X162685044Y-59187276D01*
X162860882Y-58838033D01*
X162965207Y-58461196D01*
X162994009Y-58071247D01*
X162946184Y-57683172D01*
X162823568Y-57311884D01*
X162685044Y-57052724D01*
X162384838Y-56914767D01*
X161179605Y-58120000D01*
X160820395Y-58120000D01*
X159615162Y-56914767D01*
X159314956Y-57052724D01*
X159139118Y-57401967D01*
X159034793Y-57778804D01*
X159005991Y-58168753D01*
X133488072Y-58168753D01*
X133488072Y-56650000D01*
X133475812Y-56525518D01*
X133439502Y-56405820D01*
X133380537Y-56295506D01*
X133301185Y-56198815D01*
X133223426Y-56135000D01*
X160878144Y-56135000D01*
X160563172Y-56173816D01*
X160191884Y-56296432D01*
X159932724Y-56434956D01*
X159794767Y-56735162D01*
X161000000Y-57940395D01*
X162205233Y-56735162D01*
X162067276Y-56434956D01*
X161718033Y-56259118D01*
X161341196Y-56154793D01*
X161073219Y-56135000D01*
X162701442Y-56135000D01*
X163939990Y-57373549D01*
X163939990Y-59873000D01*
X161940139Y-59873000D01*
X162067276Y-59805044D01*
X162205233Y-59504838D01*
X161000000Y-58299605D01*
X159794767Y-59504838D01*
X159932724Y-59805044D01*
X160281967Y-59980882D01*
X160658804Y-60085207D01*
X160800947Y-60095706D01*
X160420997Y-60171282D01*
X160059750Y-60320915D01*
X159734636Y-60538149D01*
X159458149Y-60814636D01*
X159371043Y-60945000D01*
X154099023Y-60945000D01*
X154073150Y-60927712D01*
X153852944Y-60836499D01*
X153619175Y-60790000D01*
X153380825Y-60790000D01*
X153147056Y-60836499D01*
X152926850Y-60927712D01*
X152728670Y-61060131D01*
X152560131Y-61228670D01*
X152427712Y-61426850D01*
X152336499Y-61647056D01*
X152290000Y-61880825D01*
X152290000Y-62119175D01*
X152336499Y-62352944D01*
X152365000Y-62421751D01*
X152365001Y-66078247D01*
X152336499Y-66147056D01*
X152290000Y-66380825D01*
X152290000Y-66619175D01*
X152336499Y-66852944D01*
X152427712Y-67073150D01*
X152560131Y-67271330D01*
X152728670Y-67439869D01*
X152926850Y-67572288D01*
X153147056Y-67663501D01*
X153380825Y-67710000D01*
X153619175Y-67710000D01*
X153852944Y-67663501D01*
X154073150Y-67572288D01*
X154271330Y-67439869D01*
X154439869Y-67271330D01*
X154572288Y-67073150D01*
X154663501Y-66852944D01*
X154710000Y-66619175D01*
X154710000Y-66421199D01*
X154728670Y-66439869D01*
X154926850Y-66572288D01*
X154995659Y-66600790D01*
X155198004Y-66803135D01*
X155233551Y-66846449D01*
X155406377Y-66988284D01*
X155603553Y-67093676D01*
X155817501Y-67158577D01*
X155984248Y-67175000D01*
X155984257Y-67175000D01*
X156039999Y-67180490D01*
X156095741Y-67175000D01*
X159371043Y-67175000D01*
X159458149Y-67305364D01*
X159734636Y-67581851D01*
X160059750Y-67799085D01*
X160415217Y-67946324D01*
X160198949Y-68011928D01*
X159901100Y-68011928D01*
X159727631Y-68029013D01*
X159560829Y-68079612D01*
X159407103Y-68161781D01*
X159272360Y-68272360D01*
X159161781Y-68407103D01*
X159079612Y-68560829D01*
X159029013Y-68727631D01*
X159011928Y-68901100D01*
X159011928Y-69198949D01*
X158895892Y-69581467D01*
X158854670Y-70000000D01*
X158895892Y-70418533D01*
X159011928Y-70801051D01*
X159011928Y-71098900D01*
X159029013Y-71272369D01*
X159079612Y-71439171D01*
X159161781Y-71592897D01*
X159272360Y-71727640D01*
X159407103Y-71838219D01*
X159560829Y-71920388D01*
X159727631Y-71970987D01*
X159901100Y-71988072D01*
X160198949Y-71988072D01*
X160581467Y-72104108D01*
X160895118Y-72135000D01*
X161615655Y-72135000D01*
X163939990Y-74459336D01*
X163939990Y-76873000D01*
X161940139Y-76873000D01*
X162067276Y-76805044D01*
X162205233Y-76504838D01*
X161000000Y-75299605D01*
X159794767Y-76504838D01*
X159932724Y-76805044D01*
X160281967Y-76980882D01*
X160658804Y-77085207D01*
X160800947Y-77095706D01*
X160420997Y-77171282D01*
X160059750Y-77320915D01*
X159734636Y-77538149D01*
X159458149Y-77814636D01*
X159371043Y-77945000D01*
X157550132Y-77945000D01*
X157100789Y-77495658D01*
X157072288Y-77426850D01*
X156939869Y-77228670D01*
X156771330Y-77060131D01*
X156573150Y-76927712D01*
X156352944Y-76836499D01*
X156119175Y-76790000D01*
X155880825Y-76790000D01*
X155647056Y-76836499D01*
X155426850Y-76927712D01*
X155228670Y-77060131D01*
X155060131Y-77228670D01*
X154927712Y-77426850D01*
X154836499Y-77647056D01*
X154790000Y-77880825D01*
X154790000Y-78119175D01*
X154836499Y-78352944D01*
X154927712Y-78573150D01*
X155060131Y-78771330D01*
X155228670Y-78939869D01*
X155426850Y-79072288D01*
X155495658Y-79100789D01*
X156238013Y-79843146D01*
X156273551Y-79886449D01*
X156316854Y-79921987D01*
X156316856Y-79921989D01*
X156446377Y-80028284D01*
X156643553Y-80133676D01*
X156857501Y-80198577D01*
X157080000Y-80220491D01*
X157135752Y-80215000D01*
X159371043Y-80215000D01*
X159458149Y-80345364D01*
X159734636Y-80621851D01*
X160059750Y-80839085D01*
X160420997Y-80988718D01*
X160779358Y-81060000D01*
X160420997Y-81131282D01*
X160059750Y-81280915D01*
X159734636Y-81498149D01*
X159458149Y-81774636D01*
X159426754Y-81821622D01*
X158600790Y-80995658D01*
X158572288Y-80926850D01*
X158439869Y-80728670D01*
X158271330Y-80560131D01*
X158073150Y-80427712D01*
X157852944Y-80336499D01*
X157619175Y-80290000D01*
X157380825Y-80290000D01*
X157147056Y-80336499D01*
X156926850Y-80427712D01*
X156728670Y-80560131D01*
X156560131Y-80728670D01*
X156427712Y-80926850D01*
X156336499Y-81147056D01*
X156290000Y-81380825D01*
X156290000Y-81619175D01*
X156336499Y-81852944D01*
X156427712Y-82073150D01*
X156560131Y-82271330D01*
X156728670Y-82439869D01*
X156926850Y-82572288D01*
X156995658Y-82600790D01*
X158198009Y-83803140D01*
X158233551Y-83846449D01*
X158406377Y-83988284D01*
X158603553Y-84093676D01*
X158817501Y-84158577D01*
X158982939Y-84174871D01*
X159040000Y-84180491D01*
X159095752Y-84175000D01*
X159371043Y-84175000D01*
X159458149Y-84305364D01*
X159734636Y-84581851D01*
X160059750Y-84799085D01*
X160415217Y-84946324D01*
X160198949Y-85011928D01*
X159901100Y-85011928D01*
X159727631Y-85029013D01*
X159560829Y-85079612D01*
X159407103Y-85161781D01*
X159272360Y-85272360D01*
X159161781Y-85407103D01*
X159079612Y-85560829D01*
X159029013Y-85727631D01*
X159011928Y-85901100D01*
X159011928Y-86198949D01*
X158895892Y-86581467D01*
X158854670Y-87000000D01*
X158865000Y-87104882D01*
X158865000Y-88677510D01*
X146953756Y-88677510D01*
X147019571Y-88551094D01*
X147090563Y-88332980D01*
X146970594Y-88087000D01*
X145627000Y-88087000D01*
X145627000Y-88107000D01*
X145373000Y-88107000D01*
X145373000Y-88087000D01*
X144029406Y-88087000D01*
X143909437Y-88332980D01*
X143980429Y-88551094D01*
X144046244Y-88677510D01*
X112771072Y-88677510D01*
X109513561Y-85420000D01*
X143857319Y-85420000D01*
X143887970Y-85731204D01*
X143978745Y-86030449D01*
X144126155Y-86306235D01*
X144324537Y-86547963D01*
X144503899Y-86695163D01*
X144318685Y-86850563D01*
X144124031Y-87093077D01*
X143980429Y-87368906D01*
X143909437Y-87587020D01*
X144029406Y-87833000D01*
X145373000Y-87833000D01*
X145373000Y-87813000D01*
X145627000Y-87813000D01*
X145627000Y-87833000D01*
X146970594Y-87833000D01*
X147090563Y-87587020D01*
X147019571Y-87368906D01*
X146875969Y-87093077D01*
X146681315Y-86850563D01*
X146496101Y-86695163D01*
X146675463Y-86547963D01*
X146873845Y-86306235D01*
X147021255Y-86030449D01*
X147112030Y-85731204D01*
X147142681Y-85420000D01*
X147112030Y-85108796D01*
X147021255Y-84809551D01*
X146873845Y-84533765D01*
X146675463Y-84292037D01*
X146433735Y-84093655D01*
X146157949Y-83946245D01*
X145858704Y-83855470D01*
X145625486Y-83832500D01*
X145374514Y-83832500D01*
X145141296Y-83855470D01*
X144842051Y-83946245D01*
X144566265Y-84093655D01*
X144324537Y-84292037D01*
X144126155Y-84533765D01*
X143978745Y-84809551D01*
X143887970Y-85108796D01*
X143857319Y-85420000D01*
X109513561Y-85420000D01*
X109004285Y-84910725D01*
X109048753Y-84914009D01*
X109436828Y-84866184D01*
X109808116Y-84743568D01*
X110067276Y-84605044D01*
X110205233Y-84304838D01*
X109000000Y-83099605D01*
X108985858Y-83113748D01*
X108806253Y-82934143D01*
X108820395Y-82920000D01*
X109179605Y-82920000D01*
X110384838Y-84125233D01*
X110685044Y-83987276D01*
X110860882Y-83638033D01*
X110965207Y-83261196D01*
X110994009Y-82871247D01*
X110946184Y-82483172D01*
X110823568Y-82111884D01*
X110685044Y-81852724D01*
X110384838Y-81714767D01*
X109179605Y-82920000D01*
X108820395Y-82920000D01*
X107615162Y-81714767D01*
X107314956Y-81852724D01*
X107139118Y-82201967D01*
X107034793Y-82578804D01*
X107009865Y-82916304D01*
X106135000Y-82041440D01*
X106135000Y-81135000D01*
X106945940Y-81135000D01*
X107050812Y-81145329D01*
X107155684Y-81135000D01*
X107155694Y-81135000D01*
X107469345Y-81104108D01*
X107499370Y-81095000D01*
X108196220Y-81095000D01*
X108191884Y-81096432D01*
X107932724Y-81234956D01*
X107794767Y-81535162D01*
X109000000Y-82740395D01*
X110205233Y-81535162D01*
X110067276Y-81234956D01*
X109718033Y-81059118D01*
X109570043Y-81018148D01*
X109820982Y-80942026D01*
X110191881Y-80743777D01*
X110516977Y-80476977D01*
X110783777Y-80151881D01*
X110982026Y-79780982D01*
X111104108Y-79378533D01*
X111145330Y-78960000D01*
X111104108Y-78541467D01*
X110982026Y-78139018D01*
X110783777Y-77768119D01*
X110516977Y-77443023D01*
X110403629Y-77350000D01*
X137511928Y-77350000D01*
X137524188Y-77474482D01*
X137560498Y-77594180D01*
X137619463Y-77704494D01*
X137698815Y-77801185D01*
X137795506Y-77880537D01*
X137905820Y-77939502D01*
X138025518Y-77975812D01*
X138150000Y-77988072D01*
X138714250Y-77985000D01*
X138873000Y-77826250D01*
X138873000Y-76627000D01*
X139127000Y-76627000D01*
X139127000Y-77826250D01*
X139285750Y-77985000D01*
X139850000Y-77988072D01*
X139974482Y-77975812D01*
X140094180Y-77939502D01*
X140204494Y-77880537D01*
X140301185Y-77801185D01*
X140380537Y-77704494D01*
X140439502Y-77594180D01*
X140475812Y-77474482D01*
X140488072Y-77350000D01*
X140485000Y-76785750D01*
X140326250Y-76627000D01*
X139127000Y-76627000D01*
X138873000Y-76627000D01*
X137673750Y-76627000D01*
X137515000Y-76785750D01*
X137511928Y-77350000D01*
X110403629Y-77350000D01*
X110191881Y-77176223D01*
X109820982Y-76977974D01*
X109584783Y-76906324D01*
X109940250Y-76759085D01*
X110265364Y-76541851D01*
X110541851Y-76265364D01*
X110759085Y-75940250D01*
X110833747Y-75760000D01*
X112506144Y-75760000D01*
X112532306Y-75799155D01*
X112700845Y-75967694D01*
X112899025Y-76100113D01*
X113119231Y-76191326D01*
X113353000Y-76237825D01*
X113591350Y-76237825D01*
X113825119Y-76191326D01*
X114045325Y-76100113D01*
X114243505Y-75967694D01*
X114412044Y-75799155D01*
X114544463Y-75600975D01*
X114635676Y-75380769D01*
X114682175Y-75147000D01*
X114682175Y-74908650D01*
X114635676Y-74674881D01*
X114544463Y-74454675D01*
X114412044Y-74256495D01*
X114243505Y-74087956D01*
X114045325Y-73955537D01*
X113825119Y-73864324D01*
X113591350Y-73817825D01*
X113353000Y-73817825D01*
X113119231Y-73864324D01*
X112899025Y-73955537D01*
X112700845Y-74087956D01*
X112548801Y-74240000D01*
X110833747Y-74240000D01*
X110759085Y-74059750D01*
X110541851Y-73734636D01*
X110265364Y-73458149D01*
X109940250Y-73240915D01*
X109579003Y-73091282D01*
X109195505Y-73015000D01*
X108804495Y-73015000D01*
X108420997Y-73091282D01*
X108059750Y-73240915D01*
X107734636Y-73458149D01*
X107458149Y-73734636D01*
X107240915Y-74059750D01*
X107091282Y-74420997D01*
X107015000Y-74804495D01*
X107015000Y-75195505D01*
X107091282Y-75579003D01*
X107240915Y-75940250D01*
X107458149Y-76265364D01*
X107734636Y-76541851D01*
X108059750Y-76759085D01*
X108218883Y-76825000D01*
X107195686Y-76825000D01*
X107090812Y-76814671D01*
X106985938Y-76825000D01*
X106985930Y-76825000D01*
X106672279Y-76855892D01*
X106642254Y-76865000D01*
X106135000Y-76865000D01*
X106135000Y-71304838D01*
X107794767Y-71304838D01*
X107932724Y-71605044D01*
X108281967Y-71780882D01*
X108658804Y-71885207D01*
X109048753Y-71914009D01*
X109436828Y-71866184D01*
X109808116Y-71743568D01*
X110067276Y-71605044D01*
X110205233Y-71304838D01*
X109000000Y-70099605D01*
X107794767Y-71304838D01*
X106135000Y-71304838D01*
X106135000Y-69968753D01*
X107005991Y-69968753D01*
X107053816Y-70356828D01*
X107176432Y-70728116D01*
X107314956Y-70987276D01*
X107615162Y-71125233D01*
X108820395Y-69920000D01*
X109179605Y-69920000D01*
X110384838Y-71125233D01*
X110685044Y-70987276D01*
X110860882Y-70638033D01*
X110965207Y-70261196D01*
X110994009Y-69871247D01*
X110946184Y-69483172D01*
X110823568Y-69111884D01*
X110685044Y-68852724D01*
X110384838Y-68714767D01*
X109179605Y-69920000D01*
X108820395Y-69920000D01*
X107615162Y-68714767D01*
X107314956Y-68852724D01*
X107139118Y-69201967D01*
X107034793Y-69578804D01*
X107005991Y-69968753D01*
X106135000Y-69968753D01*
X106135000Y-68135000D01*
X106945940Y-68135000D01*
X107050812Y-68145329D01*
X107155684Y-68135000D01*
X107155694Y-68135000D01*
X107469345Y-68104108D01*
X107499370Y-68095000D01*
X108196220Y-68095000D01*
X108191884Y-68096432D01*
X107932724Y-68234956D01*
X107794767Y-68535162D01*
X109000000Y-69740395D01*
X110205233Y-68535162D01*
X110067276Y-68234956D01*
X109718033Y-68059118D01*
X109570043Y-68018148D01*
X109820982Y-67942026D01*
X110191881Y-67743777D01*
X110516977Y-67476977D01*
X110783777Y-67151881D01*
X110982026Y-66780982D01*
X111104108Y-66378533D01*
X111145330Y-65960000D01*
X111134496Y-65850000D01*
X117511928Y-65850000D01*
X117524188Y-65974482D01*
X117560498Y-66094180D01*
X117619463Y-66204494D01*
X117698815Y-66301185D01*
X117795506Y-66380537D01*
X117905820Y-66439502D01*
X118025518Y-66475812D01*
X118150000Y-66488072D01*
X118714250Y-66485000D01*
X118873000Y-66326250D01*
X118873000Y-65127000D01*
X117673750Y-65127000D01*
X117515000Y-65285750D01*
X117511928Y-65850000D01*
X111134496Y-65850000D01*
X111104108Y-65541467D01*
X110982026Y-65139018D01*
X110783777Y-64768119D01*
X110516977Y-64443023D01*
X110191881Y-64176223D01*
X109820982Y-63977974D01*
X109584783Y-63906324D01*
X109940250Y-63759085D01*
X110265364Y-63541851D01*
X110541851Y-63265364D01*
X110759085Y-62940250D01*
X110833747Y-62760000D01*
X111685199Y-62760000D01*
X111792658Y-62867460D01*
X111790000Y-62880825D01*
X111790000Y-63119175D01*
X111836499Y-63352944D01*
X111927712Y-63573150D01*
X112060131Y-63771330D01*
X112228670Y-63939869D01*
X112426850Y-64072288D01*
X112647056Y-64163501D01*
X112880825Y-64210000D01*
X113119175Y-64210000D01*
X113352944Y-64163501D01*
X113573150Y-64072288D01*
X113771330Y-63939869D01*
X113939869Y-63771330D01*
X114072288Y-63573150D01*
X114163501Y-63352944D01*
X114210000Y-63119175D01*
X114210000Y-62880825D01*
X114163501Y-62647056D01*
X114072288Y-62426850D01*
X113939869Y-62228670D01*
X113771330Y-62060131D01*
X113573150Y-61927712D01*
X113352944Y-61836499D01*
X113119175Y-61790000D01*
X112880825Y-61790000D01*
X112867460Y-61792658D01*
X112563804Y-61489002D01*
X112540001Y-61459999D01*
X112424276Y-61365026D01*
X112292247Y-61294454D01*
X112148986Y-61250997D01*
X112037333Y-61240000D01*
X112037322Y-61240000D01*
X112000000Y-61236324D01*
X111962678Y-61240000D01*
X110833747Y-61240000D01*
X110759085Y-61059750D01*
X110541851Y-60734636D01*
X110265364Y-60458149D01*
X109940250Y-60240915D01*
X109579003Y-60091282D01*
X109195505Y-60015000D01*
X109091817Y-60015000D01*
X109137517Y-59977495D01*
X109235694Y-59857866D01*
X112958562Y-56135000D01*
X123783524Y-56135000D01*
X123550986Y-56259294D01*
M02*
