G04 #@! TF.GenerationSoftware,KiCad,Pcbnew,(5.1.5)-3*
G04 #@! TF.CreationDate,2020-02-29T02:49:16+09:00*
G04 #@! TF.ProjectId,QX20CTRLV2,51583230-4354-4524-9c56-322e6b696361,rev?*
G04 #@! TF.SameCoordinates,Original*
G04 #@! TF.FileFunction,Soldermask,Top*
G04 #@! TF.FilePolarity,Negative*
%FSLAX46Y46*%
G04 Gerber Fmt 4.6, Leading zero omitted, Abs format (unit mm)*
G04 Created by KiCad (PCBNEW (5.1.5)-3) date 2020-02-29 02:49:16*
%MOMM*%
%LPD*%
G04 APERTURE LIST*
%ADD10C,0.250000*%
G04 APERTURE END LIST*
D10*
G36*
X120301000Y-93651000D02*
G01*
X119549000Y-93651000D01*
X119549000Y-92499000D01*
X120301000Y-92499000D01*
X120301000Y-93651000D01*
G37*
G36*
X128301000Y-93651000D02*
G01*
X127549000Y-93651000D01*
X127549000Y-92499000D01*
X128301000Y-92499000D01*
X128301000Y-93651000D01*
G37*
G36*
X130451000Y-93651000D02*
G01*
X129699000Y-93651000D01*
X129699000Y-92499000D01*
X130451000Y-92499000D01*
X130451000Y-93651000D01*
G37*
G36*
X122451000Y-93651000D02*
G01*
X121699000Y-93651000D01*
X121699000Y-92499000D01*
X122451000Y-92499000D01*
X122451000Y-93651000D01*
G37*
G36*
X104375256Y-89391298D02*
G01*
X104481579Y-89412447D01*
X104782042Y-89536903D01*
X105052451Y-89717585D01*
X105282415Y-89947549D01*
X105463097Y-90217958D01*
X105587553Y-90518421D01*
X105651000Y-90837391D01*
X105651000Y-91162609D01*
X105587553Y-91481579D01*
X105463097Y-91782042D01*
X105282415Y-92052451D01*
X105052451Y-92282415D01*
X104782042Y-92463097D01*
X104481579Y-92587553D01*
X104375256Y-92608702D01*
X104162611Y-92651000D01*
X103837389Y-92651000D01*
X103624744Y-92608702D01*
X103518421Y-92587553D01*
X103217958Y-92463097D01*
X102947549Y-92282415D01*
X102717585Y-92052451D01*
X102536903Y-91782042D01*
X102412447Y-91481579D01*
X102349000Y-91162609D01*
X102349000Y-90837391D01*
X102412447Y-90518421D01*
X102536903Y-90217958D01*
X102717585Y-89947549D01*
X102947549Y-89717585D01*
X103217958Y-89536903D01*
X103518421Y-89412447D01*
X103624744Y-89391298D01*
X103837389Y-89349000D01*
X104162611Y-89349000D01*
X104375256Y-89391298D01*
G37*
G36*
X146551000Y-91503500D02*
G01*
X144449000Y-91503500D01*
X144449000Y-89496500D01*
X146551000Y-89496500D01*
X146551000Y-91503500D01*
G37*
G36*
X130451000Y-89501000D02*
G01*
X129699000Y-89501000D01*
X129699000Y-88349000D01*
X130451000Y-88349000D01*
X130451000Y-89501000D01*
G37*
G36*
X128301000Y-89501000D02*
G01*
X127549000Y-89501000D01*
X127549000Y-88349000D01*
X128301000Y-88349000D01*
X128301000Y-89501000D01*
G37*
G36*
X120301000Y-89501000D02*
G01*
X119549000Y-89501000D01*
X119549000Y-88349000D01*
X120301000Y-88349000D01*
X120301000Y-89501000D01*
G37*
G36*
X122451000Y-89501000D02*
G01*
X121699000Y-89501000D01*
X121699000Y-88349000D01*
X122451000Y-88349000D01*
X122451000Y-89501000D01*
G37*
G36*
X145645936Y-86961340D02*
G01*
X145744220Y-86971020D01*
X145933381Y-87028401D01*
X146107712Y-87121583D01*
X146260515Y-87246985D01*
X146385917Y-87399788D01*
X146479099Y-87574119D01*
X146536480Y-87763280D01*
X146555855Y-87960000D01*
X146536480Y-88156720D01*
X146479099Y-88345881D01*
X146385917Y-88520212D01*
X146260515Y-88673015D01*
X146107712Y-88798417D01*
X145933381Y-88891599D01*
X145744220Y-88948980D01*
X145645936Y-88958660D01*
X145596795Y-88963500D01*
X145403205Y-88963500D01*
X145354064Y-88958660D01*
X145255780Y-88948980D01*
X145066619Y-88891599D01*
X144892288Y-88798417D01*
X144739485Y-88673015D01*
X144614083Y-88520212D01*
X144520901Y-88345881D01*
X144463520Y-88156720D01*
X144444145Y-87960000D01*
X144463520Y-87763280D01*
X144520901Y-87574119D01*
X144614083Y-87399788D01*
X144739485Y-87246985D01*
X144892288Y-87121583D01*
X145066619Y-87028401D01*
X145255780Y-86971020D01*
X145354064Y-86961340D01*
X145403205Y-86956500D01*
X145596795Y-86956500D01*
X145645936Y-86961340D01*
G37*
G36*
X145645936Y-84421340D02*
G01*
X145744220Y-84431020D01*
X145933381Y-84488401D01*
X146107712Y-84581583D01*
X146260515Y-84706985D01*
X146385917Y-84859788D01*
X146479099Y-85034119D01*
X146536480Y-85223280D01*
X146555855Y-85420000D01*
X146536480Y-85616720D01*
X146479099Y-85805881D01*
X146385917Y-85980212D01*
X146260515Y-86133015D01*
X146107712Y-86258417D01*
X145933381Y-86351599D01*
X145744220Y-86408980D01*
X145645936Y-86418660D01*
X145596795Y-86423500D01*
X145403205Y-86423500D01*
X145354064Y-86418660D01*
X145255780Y-86408980D01*
X145066619Y-86351599D01*
X144892288Y-86258417D01*
X144739485Y-86133015D01*
X144614083Y-85980212D01*
X144520901Y-85805881D01*
X144463520Y-85616720D01*
X144444145Y-85420000D01*
X144463520Y-85223280D01*
X144520901Y-85034119D01*
X144614083Y-84859788D01*
X144739485Y-84706985D01*
X144892288Y-84581583D01*
X145066619Y-84488401D01*
X145255780Y-84431020D01*
X145354064Y-84421340D01*
X145403205Y-84416500D01*
X145596795Y-84416500D01*
X145645936Y-84421340D01*
G37*
G36*
X122951000Y-84651000D02*
G01*
X122199000Y-84651000D01*
X122199000Y-83499000D01*
X122951000Y-83499000D01*
X122951000Y-84651000D01*
G37*
G36*
X120801000Y-84651000D02*
G01*
X120049000Y-84651000D01*
X120049000Y-83499000D01*
X120801000Y-83499000D01*
X120801000Y-84651000D01*
G37*
G36*
X130451000Y-84651000D02*
G01*
X129699000Y-84651000D01*
X129699000Y-83499000D01*
X130451000Y-83499000D01*
X130451000Y-84651000D01*
G37*
G36*
X128301000Y-84651000D02*
G01*
X127549000Y-84651000D01*
X127549000Y-83499000D01*
X128301000Y-83499000D01*
X128301000Y-84651000D01*
G37*
G36*
X134775562Y-81240681D02*
G01*
X134810481Y-81251274D01*
X134842663Y-81268476D01*
X134870873Y-81291627D01*
X134894024Y-81319837D01*
X134911226Y-81352019D01*
X134921819Y-81386938D01*
X134926000Y-81429395D01*
X134926000Y-82570605D01*
X134921819Y-82613062D01*
X134911226Y-82647981D01*
X134894024Y-82680163D01*
X134870873Y-82708373D01*
X134842663Y-82731524D01*
X134810481Y-82748726D01*
X134775562Y-82759319D01*
X134733105Y-82763500D01*
X133266895Y-82763500D01*
X133224438Y-82759319D01*
X133189519Y-82748726D01*
X133157337Y-82731524D01*
X133129127Y-82708373D01*
X133105976Y-82680163D01*
X133088774Y-82647981D01*
X133078181Y-82613062D01*
X133074000Y-82570605D01*
X133074000Y-81429395D01*
X133078181Y-81386938D01*
X133088774Y-81352019D01*
X133105976Y-81319837D01*
X133129127Y-81291627D01*
X133157337Y-81268476D01*
X133189519Y-81251274D01*
X133224438Y-81240681D01*
X133266895Y-81236500D01*
X134733105Y-81236500D01*
X134775562Y-81240681D01*
G37*
G36*
X151901000Y-81901000D02*
G01*
X150099000Y-81901000D01*
X150099000Y-80099000D01*
X151901000Y-80099000D01*
X151901000Y-81901000D01*
G37*
G36*
X120801000Y-80501000D02*
G01*
X120049000Y-80501000D01*
X120049000Y-79349000D01*
X120801000Y-79349000D01*
X120801000Y-80501000D01*
G37*
G36*
X130451000Y-80501000D02*
G01*
X129699000Y-80501000D01*
X129699000Y-79349000D01*
X130451000Y-79349000D01*
X130451000Y-80501000D01*
G37*
G36*
X128301000Y-80501000D02*
G01*
X127549000Y-80501000D01*
X127549000Y-79349000D01*
X128301000Y-79349000D01*
X128301000Y-80501000D01*
G37*
G36*
X122951000Y-80501000D02*
G01*
X122199000Y-80501000D01*
X122199000Y-79349000D01*
X122951000Y-79349000D01*
X122951000Y-80501000D01*
G37*
G36*
X134775562Y-78265681D02*
G01*
X134810481Y-78276274D01*
X134842663Y-78293476D01*
X134870873Y-78316627D01*
X134894024Y-78344837D01*
X134911226Y-78377019D01*
X134921819Y-78411938D01*
X134926000Y-78454395D01*
X134926000Y-79595605D01*
X134921819Y-79638062D01*
X134911226Y-79672981D01*
X134894024Y-79705163D01*
X134870873Y-79733373D01*
X134842663Y-79756524D01*
X134810481Y-79773726D01*
X134775562Y-79784319D01*
X134733105Y-79788500D01*
X133266895Y-79788500D01*
X133224438Y-79784319D01*
X133189519Y-79773726D01*
X133157337Y-79756524D01*
X133129127Y-79733373D01*
X133105976Y-79705163D01*
X133088774Y-79672981D01*
X133078181Y-79638062D01*
X133074000Y-79595605D01*
X133074000Y-78454395D01*
X133078181Y-78411938D01*
X133088774Y-78377019D01*
X133105976Y-78344837D01*
X133129127Y-78316627D01*
X133157337Y-78293476D01*
X133189519Y-78276274D01*
X133224438Y-78265681D01*
X133266895Y-78261500D01*
X134733105Y-78261500D01*
X134775562Y-78265681D01*
G37*
G36*
X151113512Y-77563927D02*
G01*
X151262812Y-77593624D01*
X151426784Y-77661544D01*
X151574354Y-77760147D01*
X151699853Y-77885646D01*
X151798456Y-78033216D01*
X151866376Y-78197188D01*
X151901000Y-78371259D01*
X151901000Y-78548741D01*
X151866376Y-78722812D01*
X151798456Y-78886784D01*
X151699853Y-79034354D01*
X151574354Y-79159853D01*
X151426784Y-79258456D01*
X151262812Y-79326376D01*
X151113512Y-79356073D01*
X151088742Y-79361000D01*
X150911258Y-79361000D01*
X150886488Y-79356073D01*
X150737188Y-79326376D01*
X150573216Y-79258456D01*
X150425646Y-79159853D01*
X150300147Y-79034354D01*
X150201544Y-78886784D01*
X150133624Y-78722812D01*
X150099000Y-78548741D01*
X150099000Y-78371259D01*
X150133624Y-78197188D01*
X150201544Y-78033216D01*
X150300147Y-77885646D01*
X150425646Y-77760147D01*
X150573216Y-77661544D01*
X150737188Y-77593624D01*
X150886488Y-77563927D01*
X150911258Y-77559000D01*
X151088742Y-77559000D01*
X151113512Y-77563927D01*
G37*
G36*
X126430051Y-75376284D02*
G01*
X126446443Y-75381257D01*
X126461555Y-75389334D01*
X126474798Y-75400202D01*
X126485667Y-75413447D01*
X126489761Y-75421106D01*
X126503374Y-75441480D01*
X126520701Y-75458807D01*
X126541076Y-75472421D01*
X126563714Y-75481798D01*
X126587748Y-75486579D01*
X126612252Y-75486579D01*
X126636285Y-75481799D01*
X126658924Y-75472421D01*
X126679298Y-75458808D01*
X126696625Y-75441481D01*
X126710239Y-75421106D01*
X126714333Y-75413447D01*
X126725202Y-75400202D01*
X126738445Y-75389334D01*
X126753557Y-75381257D01*
X126769949Y-75376284D01*
X126793141Y-75374000D01*
X127206859Y-75374000D01*
X127230051Y-75376284D01*
X127246443Y-75381257D01*
X127261555Y-75389334D01*
X127274798Y-75400202D01*
X127285667Y-75413447D01*
X127289761Y-75421106D01*
X127303374Y-75441480D01*
X127320701Y-75458807D01*
X127341076Y-75472421D01*
X127363714Y-75481798D01*
X127387748Y-75486579D01*
X127412252Y-75486579D01*
X127436285Y-75481799D01*
X127458924Y-75472421D01*
X127479298Y-75458808D01*
X127496625Y-75441481D01*
X127510239Y-75421106D01*
X127514333Y-75413447D01*
X127525202Y-75400202D01*
X127538445Y-75389334D01*
X127553557Y-75381257D01*
X127569949Y-75376284D01*
X127593141Y-75374000D01*
X128006859Y-75374000D01*
X128030051Y-75376284D01*
X128046443Y-75381257D01*
X128061555Y-75389334D01*
X128074798Y-75400202D01*
X128085667Y-75413447D01*
X128089761Y-75421106D01*
X128103374Y-75441480D01*
X128120701Y-75458807D01*
X128141076Y-75472421D01*
X128163714Y-75481798D01*
X128187748Y-75486579D01*
X128212252Y-75486579D01*
X128236285Y-75481799D01*
X128258924Y-75472421D01*
X128279298Y-75458808D01*
X128296625Y-75441481D01*
X128310239Y-75421106D01*
X128314333Y-75413447D01*
X128325202Y-75400202D01*
X128338445Y-75389334D01*
X128353557Y-75381257D01*
X128369949Y-75376284D01*
X128393141Y-75374000D01*
X128806859Y-75374000D01*
X128830051Y-75376284D01*
X128846443Y-75381257D01*
X128861555Y-75389334D01*
X128874798Y-75400202D01*
X128885667Y-75413447D01*
X128889761Y-75421106D01*
X128903374Y-75441480D01*
X128920701Y-75458807D01*
X128941076Y-75472421D01*
X128963714Y-75481798D01*
X128987748Y-75486579D01*
X129012252Y-75486579D01*
X129036285Y-75481799D01*
X129058924Y-75472421D01*
X129079298Y-75458808D01*
X129096625Y-75441481D01*
X129110239Y-75421106D01*
X129114333Y-75413447D01*
X129125202Y-75400202D01*
X129138445Y-75389334D01*
X129153557Y-75381257D01*
X129169949Y-75376284D01*
X129193141Y-75374000D01*
X129606859Y-75374000D01*
X129630051Y-75376284D01*
X129646443Y-75381257D01*
X129661555Y-75389334D01*
X129674798Y-75400202D01*
X129685667Y-75413447D01*
X129689761Y-75421106D01*
X129703374Y-75441480D01*
X129720701Y-75458807D01*
X129741076Y-75472421D01*
X129763714Y-75481798D01*
X129787748Y-75486579D01*
X129812252Y-75486579D01*
X129836285Y-75481799D01*
X129858924Y-75472421D01*
X129879298Y-75458808D01*
X129896625Y-75441481D01*
X129910239Y-75421106D01*
X129914333Y-75413447D01*
X129925202Y-75400202D01*
X129938445Y-75389334D01*
X129953557Y-75381257D01*
X129969949Y-75376284D01*
X129993141Y-75374000D01*
X130406859Y-75374000D01*
X130430051Y-75376284D01*
X130446443Y-75381257D01*
X130461555Y-75389334D01*
X130474798Y-75400202D01*
X130485667Y-75413447D01*
X130489761Y-75421106D01*
X130503374Y-75441480D01*
X130520701Y-75458807D01*
X130541076Y-75472421D01*
X130563714Y-75481798D01*
X130587748Y-75486579D01*
X130612252Y-75486579D01*
X130636285Y-75481799D01*
X130658924Y-75472421D01*
X130679298Y-75458808D01*
X130696625Y-75441481D01*
X130710239Y-75421106D01*
X130714333Y-75413447D01*
X130725202Y-75400202D01*
X130738445Y-75389334D01*
X130753557Y-75381257D01*
X130769949Y-75376284D01*
X130793141Y-75374000D01*
X131206859Y-75374000D01*
X131230051Y-75376284D01*
X131246443Y-75381257D01*
X131261555Y-75389334D01*
X131274798Y-75400202D01*
X131285667Y-75413447D01*
X131289761Y-75421106D01*
X131303374Y-75441480D01*
X131320701Y-75458807D01*
X131341076Y-75472421D01*
X131363714Y-75481798D01*
X131387748Y-75486579D01*
X131412252Y-75486579D01*
X131436285Y-75481799D01*
X131458924Y-75472421D01*
X131479298Y-75458808D01*
X131496625Y-75441481D01*
X131510239Y-75421106D01*
X131514333Y-75413447D01*
X131525202Y-75400202D01*
X131538445Y-75389334D01*
X131553557Y-75381257D01*
X131569949Y-75376284D01*
X131593141Y-75374000D01*
X132006859Y-75374000D01*
X132030051Y-75376284D01*
X132046443Y-75381257D01*
X132061555Y-75389334D01*
X132074798Y-75400202D01*
X132085666Y-75413445D01*
X132093743Y-75428557D01*
X132098716Y-75444949D01*
X132101000Y-75468141D01*
X132101000Y-76881859D01*
X132098716Y-76905051D01*
X132093743Y-76921443D01*
X132085666Y-76936555D01*
X132074798Y-76949798D01*
X132061555Y-76960666D01*
X132046443Y-76968743D01*
X132030051Y-76973716D01*
X132006859Y-76976000D01*
X131593141Y-76976000D01*
X131569949Y-76973716D01*
X131553557Y-76968743D01*
X131538445Y-76960666D01*
X131525202Y-76949798D01*
X131514333Y-76936553D01*
X131510239Y-76928894D01*
X131496626Y-76908520D01*
X131479299Y-76891193D01*
X131458924Y-76877579D01*
X131436286Y-76868202D01*
X131412252Y-76863421D01*
X131387748Y-76863421D01*
X131363715Y-76868201D01*
X131341076Y-76877579D01*
X131320702Y-76891192D01*
X131303375Y-76908519D01*
X131289761Y-76928894D01*
X131285667Y-76936553D01*
X131274798Y-76949798D01*
X131261555Y-76960666D01*
X131246443Y-76968743D01*
X131230051Y-76973716D01*
X131206859Y-76976000D01*
X130793141Y-76976000D01*
X130769949Y-76973716D01*
X130753557Y-76968743D01*
X130738445Y-76960666D01*
X130725202Y-76949798D01*
X130714333Y-76936553D01*
X130710239Y-76928894D01*
X130696626Y-76908520D01*
X130679299Y-76891193D01*
X130658924Y-76877579D01*
X130636286Y-76868202D01*
X130612252Y-76863421D01*
X130587748Y-76863421D01*
X130563715Y-76868201D01*
X130541076Y-76877579D01*
X130520702Y-76891192D01*
X130503375Y-76908519D01*
X130489761Y-76928894D01*
X130485667Y-76936553D01*
X130474798Y-76949798D01*
X130461555Y-76960666D01*
X130446443Y-76968743D01*
X130430051Y-76973716D01*
X130406859Y-76976000D01*
X129993141Y-76976000D01*
X129969949Y-76973716D01*
X129953557Y-76968743D01*
X129938445Y-76960666D01*
X129925202Y-76949798D01*
X129914333Y-76936553D01*
X129910239Y-76928894D01*
X129896626Y-76908520D01*
X129879299Y-76891193D01*
X129858924Y-76877579D01*
X129836286Y-76868202D01*
X129812252Y-76863421D01*
X129787748Y-76863421D01*
X129763715Y-76868201D01*
X129741076Y-76877579D01*
X129720702Y-76891192D01*
X129703375Y-76908519D01*
X129689761Y-76928894D01*
X129685667Y-76936553D01*
X129674798Y-76949798D01*
X129661555Y-76960666D01*
X129646443Y-76968743D01*
X129630051Y-76973716D01*
X129606859Y-76976000D01*
X129193141Y-76976000D01*
X129169949Y-76973716D01*
X129153557Y-76968743D01*
X129138445Y-76960666D01*
X129125202Y-76949798D01*
X129114333Y-76936553D01*
X129110239Y-76928894D01*
X129096626Y-76908520D01*
X129079299Y-76891193D01*
X129058924Y-76877579D01*
X129036286Y-76868202D01*
X129012252Y-76863421D01*
X128987748Y-76863421D01*
X128963715Y-76868201D01*
X128941076Y-76877579D01*
X128920702Y-76891192D01*
X128903375Y-76908519D01*
X128889761Y-76928894D01*
X128885667Y-76936553D01*
X128874798Y-76949798D01*
X128861555Y-76960666D01*
X128846443Y-76968743D01*
X128830051Y-76973716D01*
X128806859Y-76976000D01*
X128393141Y-76976000D01*
X128369949Y-76973716D01*
X128353557Y-76968743D01*
X128338445Y-76960666D01*
X128325202Y-76949798D01*
X128314333Y-76936553D01*
X128310239Y-76928894D01*
X128296626Y-76908520D01*
X128279299Y-76891193D01*
X128258924Y-76877579D01*
X128236286Y-76868202D01*
X128212252Y-76863421D01*
X128187748Y-76863421D01*
X128163715Y-76868201D01*
X128141076Y-76877579D01*
X128120702Y-76891192D01*
X128103375Y-76908519D01*
X128089761Y-76928894D01*
X128085667Y-76936553D01*
X128074798Y-76949798D01*
X128061555Y-76960666D01*
X128046443Y-76968743D01*
X128030051Y-76973716D01*
X128006859Y-76976000D01*
X127593141Y-76976000D01*
X127569949Y-76973716D01*
X127553557Y-76968743D01*
X127538445Y-76960666D01*
X127525202Y-76949798D01*
X127514333Y-76936553D01*
X127510239Y-76928894D01*
X127496626Y-76908520D01*
X127479299Y-76891193D01*
X127458924Y-76877579D01*
X127436286Y-76868202D01*
X127412252Y-76863421D01*
X127387748Y-76863421D01*
X127363715Y-76868201D01*
X127341076Y-76877579D01*
X127320702Y-76891192D01*
X127303375Y-76908519D01*
X127289761Y-76928894D01*
X127285667Y-76936553D01*
X127274798Y-76949798D01*
X127261555Y-76960666D01*
X127246443Y-76968743D01*
X127230051Y-76973716D01*
X127206859Y-76976000D01*
X126793141Y-76976000D01*
X126769949Y-76973716D01*
X126753557Y-76968743D01*
X126738445Y-76960666D01*
X126725202Y-76949798D01*
X126714333Y-76936553D01*
X126710239Y-76928894D01*
X126696626Y-76908520D01*
X126679299Y-76891193D01*
X126658924Y-76877579D01*
X126636286Y-76868202D01*
X126612252Y-76863421D01*
X126587748Y-76863421D01*
X126563715Y-76868201D01*
X126541076Y-76877579D01*
X126520702Y-76891192D01*
X126503375Y-76908519D01*
X126489761Y-76928894D01*
X126485667Y-76936553D01*
X126474798Y-76949798D01*
X126461555Y-76960666D01*
X126446443Y-76968743D01*
X126430051Y-76973716D01*
X126406859Y-76976000D01*
X125993141Y-76976000D01*
X125969949Y-76973716D01*
X125953557Y-76968743D01*
X125938445Y-76960666D01*
X125925202Y-76949798D01*
X125914334Y-76936555D01*
X125906257Y-76921443D01*
X125901284Y-76905051D01*
X125899000Y-76881859D01*
X125899000Y-75468141D01*
X125901284Y-75444949D01*
X125906257Y-75428557D01*
X125914334Y-75413445D01*
X125925202Y-75400202D01*
X125938445Y-75389334D01*
X125953557Y-75381257D01*
X125969949Y-75376284D01*
X125993141Y-75374000D01*
X126406859Y-75374000D01*
X126430051Y-75376284D01*
G37*
G36*
X151113512Y-75023927D02*
G01*
X151262812Y-75053624D01*
X151426784Y-75121544D01*
X151574354Y-75220147D01*
X151699853Y-75345646D01*
X151798456Y-75493216D01*
X151866376Y-75657188D01*
X151901000Y-75831259D01*
X151901000Y-76008741D01*
X151866376Y-76182812D01*
X151798456Y-76346784D01*
X151699853Y-76494354D01*
X151574354Y-76619853D01*
X151426784Y-76718456D01*
X151262812Y-76786376D01*
X151113512Y-76816073D01*
X151088742Y-76821000D01*
X150911258Y-76821000D01*
X150886488Y-76816073D01*
X150737188Y-76786376D01*
X150573216Y-76718456D01*
X150425646Y-76619853D01*
X150300147Y-76494354D01*
X150201544Y-76346784D01*
X150133624Y-76182812D01*
X150099000Y-76008741D01*
X150099000Y-75831259D01*
X150133624Y-75657188D01*
X150201544Y-75493216D01*
X150300147Y-75345646D01*
X150425646Y-75220147D01*
X150573216Y-75121544D01*
X150737188Y-75053624D01*
X150886488Y-75023927D01*
X150911258Y-75019000D01*
X151088742Y-75019000D01*
X151113512Y-75023927D01*
G37*
G36*
X133905051Y-68901284D02*
G01*
X133921443Y-68906257D01*
X133936555Y-68914334D01*
X133949798Y-68925202D01*
X133960666Y-68938445D01*
X133968743Y-68953557D01*
X133973716Y-68969949D01*
X133976000Y-68993141D01*
X133976000Y-69406859D01*
X133973716Y-69430051D01*
X133968743Y-69446443D01*
X133960666Y-69461555D01*
X133949798Y-69474798D01*
X133936553Y-69485667D01*
X133928894Y-69489761D01*
X133908520Y-69503374D01*
X133891193Y-69520701D01*
X133877579Y-69541076D01*
X133868202Y-69563714D01*
X133863421Y-69587748D01*
X133863421Y-69612252D01*
X133868201Y-69636285D01*
X133877579Y-69658924D01*
X133891192Y-69679298D01*
X133908519Y-69696625D01*
X133928894Y-69710239D01*
X133936553Y-69714333D01*
X133949798Y-69725202D01*
X133960666Y-69738445D01*
X133968743Y-69753557D01*
X133973716Y-69769949D01*
X133976000Y-69793141D01*
X133976000Y-70206859D01*
X133973716Y-70230051D01*
X133968743Y-70246443D01*
X133960666Y-70261555D01*
X133949798Y-70274798D01*
X133936553Y-70285667D01*
X133928894Y-70289761D01*
X133908520Y-70303374D01*
X133891193Y-70320701D01*
X133877579Y-70341076D01*
X133868202Y-70363714D01*
X133863421Y-70387748D01*
X133863421Y-70412252D01*
X133868201Y-70436285D01*
X133877579Y-70458924D01*
X133891192Y-70479298D01*
X133908519Y-70496625D01*
X133928894Y-70510239D01*
X133936553Y-70514333D01*
X133949798Y-70525202D01*
X133960666Y-70538445D01*
X133968743Y-70553557D01*
X133973716Y-70569949D01*
X133976000Y-70593141D01*
X133976000Y-71006859D01*
X133973716Y-71030051D01*
X133968743Y-71046443D01*
X133960666Y-71061555D01*
X133949798Y-71074798D01*
X133936553Y-71085667D01*
X133928894Y-71089761D01*
X133908520Y-71103374D01*
X133891193Y-71120701D01*
X133877579Y-71141076D01*
X133868202Y-71163714D01*
X133863421Y-71187748D01*
X133863421Y-71212252D01*
X133868201Y-71236285D01*
X133877579Y-71258924D01*
X133891192Y-71279298D01*
X133908519Y-71296625D01*
X133928894Y-71310239D01*
X133936553Y-71314333D01*
X133949798Y-71325202D01*
X133960666Y-71338445D01*
X133968743Y-71353557D01*
X133973716Y-71369949D01*
X133976000Y-71393141D01*
X133976000Y-71806859D01*
X133973716Y-71830051D01*
X133968743Y-71846443D01*
X133960666Y-71861555D01*
X133949798Y-71874798D01*
X133936553Y-71885667D01*
X133928894Y-71889761D01*
X133908520Y-71903374D01*
X133891193Y-71920701D01*
X133877579Y-71941076D01*
X133868202Y-71963714D01*
X133863421Y-71987748D01*
X133863421Y-72012252D01*
X133868201Y-72036285D01*
X133877579Y-72058924D01*
X133891192Y-72079298D01*
X133908519Y-72096625D01*
X133928894Y-72110239D01*
X133936553Y-72114333D01*
X133949798Y-72125202D01*
X133960666Y-72138445D01*
X133968743Y-72153557D01*
X133973716Y-72169949D01*
X133976000Y-72193141D01*
X133976000Y-72606859D01*
X133973716Y-72630051D01*
X133968743Y-72646443D01*
X133960666Y-72661555D01*
X133949798Y-72674798D01*
X133936553Y-72685667D01*
X133928894Y-72689761D01*
X133908520Y-72703374D01*
X133891193Y-72720701D01*
X133877579Y-72741076D01*
X133868202Y-72763714D01*
X133863421Y-72787748D01*
X133863421Y-72812252D01*
X133868201Y-72836285D01*
X133877579Y-72858924D01*
X133891192Y-72879298D01*
X133908519Y-72896625D01*
X133928894Y-72910239D01*
X133936553Y-72914333D01*
X133949798Y-72925202D01*
X133960666Y-72938445D01*
X133968743Y-72953557D01*
X133973716Y-72969949D01*
X133976000Y-72993141D01*
X133976000Y-73406859D01*
X133973716Y-73430051D01*
X133968743Y-73446443D01*
X133960666Y-73461555D01*
X133949798Y-73474798D01*
X133936553Y-73485667D01*
X133928894Y-73489761D01*
X133908520Y-73503374D01*
X133891193Y-73520701D01*
X133877579Y-73541076D01*
X133868202Y-73563714D01*
X133863421Y-73587748D01*
X133863421Y-73612252D01*
X133868201Y-73636285D01*
X133877579Y-73658924D01*
X133891192Y-73679298D01*
X133908519Y-73696625D01*
X133928894Y-73710239D01*
X133936553Y-73714333D01*
X133949798Y-73725202D01*
X133960666Y-73738445D01*
X133968743Y-73753557D01*
X133973716Y-73769949D01*
X133976000Y-73793141D01*
X133976000Y-74206859D01*
X133973716Y-74230051D01*
X133968743Y-74246443D01*
X133960666Y-74261555D01*
X133949798Y-74274798D01*
X133936553Y-74285667D01*
X133928894Y-74289761D01*
X133908520Y-74303374D01*
X133891193Y-74320701D01*
X133877579Y-74341076D01*
X133868202Y-74363714D01*
X133863421Y-74387748D01*
X133863421Y-74412252D01*
X133868201Y-74436285D01*
X133877579Y-74458924D01*
X133891192Y-74479298D01*
X133908519Y-74496625D01*
X133928894Y-74510239D01*
X133936553Y-74514333D01*
X133949798Y-74525202D01*
X133960666Y-74538445D01*
X133968743Y-74553557D01*
X133973716Y-74569949D01*
X133976000Y-74593141D01*
X133976000Y-75006859D01*
X133973716Y-75030051D01*
X133968743Y-75046443D01*
X133960666Y-75061555D01*
X133949798Y-75074798D01*
X133936555Y-75085666D01*
X133921443Y-75093743D01*
X133905051Y-75098716D01*
X133881859Y-75101000D01*
X132468141Y-75101000D01*
X132444949Y-75098716D01*
X132428557Y-75093743D01*
X132413445Y-75085666D01*
X132400202Y-75074798D01*
X132389334Y-75061555D01*
X132381257Y-75046443D01*
X132376284Y-75030051D01*
X132374000Y-75006859D01*
X132374000Y-74593141D01*
X132376284Y-74569949D01*
X132381257Y-74553557D01*
X132389334Y-74538445D01*
X132400202Y-74525202D01*
X132413447Y-74514333D01*
X132421106Y-74510239D01*
X132441480Y-74496626D01*
X132458807Y-74479299D01*
X132472421Y-74458924D01*
X132481798Y-74436286D01*
X132486579Y-74412252D01*
X132486579Y-74387748D01*
X132481799Y-74363715D01*
X132472421Y-74341076D01*
X132458808Y-74320702D01*
X132441481Y-74303375D01*
X132421106Y-74289761D01*
X132413447Y-74285667D01*
X132400202Y-74274798D01*
X132389334Y-74261555D01*
X132381257Y-74246443D01*
X132376284Y-74230051D01*
X132374000Y-74206859D01*
X132374000Y-73793141D01*
X132376284Y-73769949D01*
X132381257Y-73753557D01*
X132389334Y-73738445D01*
X132400202Y-73725202D01*
X132413447Y-73714333D01*
X132421106Y-73710239D01*
X132441480Y-73696626D01*
X132458807Y-73679299D01*
X132472421Y-73658924D01*
X132481798Y-73636286D01*
X132486579Y-73612252D01*
X132486579Y-73587748D01*
X132481799Y-73563715D01*
X132472421Y-73541076D01*
X132458808Y-73520702D01*
X132441481Y-73503375D01*
X132421106Y-73489761D01*
X132413447Y-73485667D01*
X132400202Y-73474798D01*
X132389334Y-73461555D01*
X132381257Y-73446443D01*
X132376284Y-73430051D01*
X132374000Y-73406859D01*
X132374000Y-72993141D01*
X132376284Y-72969949D01*
X132381257Y-72953557D01*
X132389334Y-72938445D01*
X132400202Y-72925202D01*
X132413447Y-72914333D01*
X132421106Y-72910239D01*
X132441480Y-72896626D01*
X132458807Y-72879299D01*
X132472421Y-72858924D01*
X132481798Y-72836286D01*
X132486579Y-72812252D01*
X132486579Y-72787748D01*
X132481799Y-72763715D01*
X132472421Y-72741076D01*
X132458808Y-72720702D01*
X132441481Y-72703375D01*
X132421106Y-72689761D01*
X132413447Y-72685667D01*
X132400202Y-72674798D01*
X132389334Y-72661555D01*
X132381257Y-72646443D01*
X132376284Y-72630051D01*
X132374000Y-72606859D01*
X132374000Y-72193141D01*
X132376284Y-72169949D01*
X132381257Y-72153557D01*
X132389334Y-72138445D01*
X132400202Y-72125202D01*
X132413447Y-72114333D01*
X132421106Y-72110239D01*
X132441480Y-72096626D01*
X132458807Y-72079299D01*
X132472421Y-72058924D01*
X132481798Y-72036286D01*
X132486579Y-72012252D01*
X132486579Y-71987748D01*
X132481799Y-71963715D01*
X132472421Y-71941076D01*
X132458808Y-71920702D01*
X132441481Y-71903375D01*
X132421106Y-71889761D01*
X132413447Y-71885667D01*
X132400202Y-71874798D01*
X132389334Y-71861555D01*
X132381257Y-71846443D01*
X132376284Y-71830051D01*
X132374000Y-71806859D01*
X132374000Y-71393141D01*
X132376284Y-71369949D01*
X132381257Y-71353557D01*
X132389334Y-71338445D01*
X132400202Y-71325202D01*
X132413447Y-71314333D01*
X132421106Y-71310239D01*
X132441480Y-71296626D01*
X132458807Y-71279299D01*
X132472421Y-71258924D01*
X132481798Y-71236286D01*
X132486579Y-71212252D01*
X132486579Y-71187748D01*
X132481799Y-71163715D01*
X132472421Y-71141076D01*
X132458808Y-71120702D01*
X132441481Y-71103375D01*
X132421106Y-71089761D01*
X132413447Y-71085667D01*
X132400202Y-71074798D01*
X132389334Y-71061555D01*
X132381257Y-71046443D01*
X132376284Y-71030051D01*
X132374000Y-71006859D01*
X132374000Y-70593141D01*
X132376284Y-70569949D01*
X132381257Y-70553557D01*
X132389334Y-70538445D01*
X132400202Y-70525202D01*
X132413447Y-70514333D01*
X132421106Y-70510239D01*
X132441480Y-70496626D01*
X132458807Y-70479299D01*
X132472421Y-70458924D01*
X132481798Y-70436286D01*
X132486579Y-70412252D01*
X132486579Y-70387748D01*
X132481799Y-70363715D01*
X132472421Y-70341076D01*
X132458808Y-70320702D01*
X132441481Y-70303375D01*
X132421106Y-70289761D01*
X132413447Y-70285667D01*
X132400202Y-70274798D01*
X132389334Y-70261555D01*
X132381257Y-70246443D01*
X132376284Y-70230051D01*
X132374000Y-70206859D01*
X132374000Y-69793141D01*
X132376284Y-69769949D01*
X132381257Y-69753557D01*
X132389334Y-69738445D01*
X132400202Y-69725202D01*
X132413447Y-69714333D01*
X132421106Y-69710239D01*
X132441480Y-69696626D01*
X132458807Y-69679299D01*
X132472421Y-69658924D01*
X132481798Y-69636286D01*
X132486579Y-69612252D01*
X132486579Y-69587748D01*
X132481799Y-69563715D01*
X132472421Y-69541076D01*
X132458808Y-69520702D01*
X132441481Y-69503375D01*
X132421106Y-69489761D01*
X132413447Y-69485667D01*
X132400202Y-69474798D01*
X132389334Y-69461555D01*
X132381257Y-69446443D01*
X132376284Y-69430051D01*
X132374000Y-69406859D01*
X132374000Y-68993141D01*
X132376284Y-68969949D01*
X132381257Y-68953557D01*
X132389334Y-68938445D01*
X132400202Y-68925202D01*
X132413445Y-68914334D01*
X132428557Y-68906257D01*
X132444949Y-68901284D01*
X132468141Y-68899000D01*
X133881859Y-68899000D01*
X133905051Y-68901284D01*
G37*
G36*
X125555051Y-68901284D02*
G01*
X125571443Y-68906257D01*
X125586555Y-68914334D01*
X125599798Y-68925202D01*
X125610666Y-68938445D01*
X125618743Y-68953557D01*
X125623716Y-68969949D01*
X125626000Y-68993141D01*
X125626000Y-69406859D01*
X125623716Y-69430051D01*
X125618743Y-69446443D01*
X125610666Y-69461555D01*
X125599798Y-69474798D01*
X125586553Y-69485667D01*
X125578894Y-69489761D01*
X125558520Y-69503374D01*
X125541193Y-69520701D01*
X125527579Y-69541076D01*
X125518202Y-69563714D01*
X125513421Y-69587748D01*
X125513421Y-69612252D01*
X125518201Y-69636285D01*
X125527579Y-69658924D01*
X125541192Y-69679298D01*
X125558519Y-69696625D01*
X125578894Y-69710239D01*
X125586553Y-69714333D01*
X125599798Y-69725202D01*
X125610666Y-69738445D01*
X125618743Y-69753557D01*
X125623716Y-69769949D01*
X125626000Y-69793141D01*
X125626000Y-70206859D01*
X125623716Y-70230051D01*
X125618743Y-70246443D01*
X125610666Y-70261555D01*
X125599798Y-70274798D01*
X125586553Y-70285667D01*
X125578894Y-70289761D01*
X125558520Y-70303374D01*
X125541193Y-70320701D01*
X125527579Y-70341076D01*
X125518202Y-70363714D01*
X125513421Y-70387748D01*
X125513421Y-70412252D01*
X125518201Y-70436285D01*
X125527579Y-70458924D01*
X125541192Y-70479298D01*
X125558519Y-70496625D01*
X125578894Y-70510239D01*
X125586553Y-70514333D01*
X125599798Y-70525202D01*
X125610666Y-70538445D01*
X125618743Y-70553557D01*
X125623716Y-70569949D01*
X125626000Y-70593141D01*
X125626000Y-71006859D01*
X125623716Y-71030051D01*
X125618743Y-71046443D01*
X125610666Y-71061555D01*
X125599798Y-71074798D01*
X125586553Y-71085667D01*
X125578894Y-71089761D01*
X125558520Y-71103374D01*
X125541193Y-71120701D01*
X125527579Y-71141076D01*
X125518202Y-71163714D01*
X125513421Y-71187748D01*
X125513421Y-71212252D01*
X125518201Y-71236285D01*
X125527579Y-71258924D01*
X125541192Y-71279298D01*
X125558519Y-71296625D01*
X125578894Y-71310239D01*
X125586553Y-71314333D01*
X125599798Y-71325202D01*
X125610666Y-71338445D01*
X125618743Y-71353557D01*
X125623716Y-71369949D01*
X125626000Y-71393141D01*
X125626000Y-71806859D01*
X125623716Y-71830051D01*
X125618743Y-71846443D01*
X125610666Y-71861555D01*
X125599798Y-71874798D01*
X125586553Y-71885667D01*
X125578894Y-71889761D01*
X125558520Y-71903374D01*
X125541193Y-71920701D01*
X125527579Y-71941076D01*
X125518202Y-71963714D01*
X125513421Y-71987748D01*
X125513421Y-72012252D01*
X125518201Y-72036285D01*
X125527579Y-72058924D01*
X125541192Y-72079298D01*
X125558519Y-72096625D01*
X125578894Y-72110239D01*
X125586553Y-72114333D01*
X125599798Y-72125202D01*
X125610666Y-72138445D01*
X125618743Y-72153557D01*
X125623716Y-72169949D01*
X125626000Y-72193141D01*
X125626000Y-72606859D01*
X125623716Y-72630051D01*
X125618743Y-72646443D01*
X125610666Y-72661555D01*
X125599798Y-72674798D01*
X125586553Y-72685667D01*
X125578894Y-72689761D01*
X125558520Y-72703374D01*
X125541193Y-72720701D01*
X125527579Y-72741076D01*
X125518202Y-72763714D01*
X125513421Y-72787748D01*
X125513421Y-72812252D01*
X125518201Y-72836285D01*
X125527579Y-72858924D01*
X125541192Y-72879298D01*
X125558519Y-72896625D01*
X125578894Y-72910239D01*
X125586553Y-72914333D01*
X125599798Y-72925202D01*
X125610666Y-72938445D01*
X125618743Y-72953557D01*
X125623716Y-72969949D01*
X125626000Y-72993141D01*
X125626000Y-73406859D01*
X125623716Y-73430051D01*
X125618743Y-73446443D01*
X125610666Y-73461555D01*
X125599798Y-73474798D01*
X125586553Y-73485667D01*
X125578894Y-73489761D01*
X125558520Y-73503374D01*
X125541193Y-73520701D01*
X125527579Y-73541076D01*
X125518202Y-73563714D01*
X125513421Y-73587748D01*
X125513421Y-73612252D01*
X125518201Y-73636285D01*
X125527579Y-73658924D01*
X125541192Y-73679298D01*
X125558519Y-73696625D01*
X125578894Y-73710239D01*
X125586553Y-73714333D01*
X125599798Y-73725202D01*
X125610666Y-73738445D01*
X125618743Y-73753557D01*
X125623716Y-73769949D01*
X125626000Y-73793141D01*
X125626000Y-74206859D01*
X125623716Y-74230051D01*
X125618743Y-74246443D01*
X125610666Y-74261555D01*
X125599798Y-74274798D01*
X125586553Y-74285667D01*
X125578894Y-74289761D01*
X125558520Y-74303374D01*
X125541193Y-74320701D01*
X125527579Y-74341076D01*
X125518202Y-74363714D01*
X125513421Y-74387748D01*
X125513421Y-74412252D01*
X125518201Y-74436285D01*
X125527579Y-74458924D01*
X125541192Y-74479298D01*
X125558519Y-74496625D01*
X125578894Y-74510239D01*
X125586553Y-74514333D01*
X125599798Y-74525202D01*
X125610666Y-74538445D01*
X125618743Y-74553557D01*
X125623716Y-74569949D01*
X125626000Y-74593141D01*
X125626000Y-75006859D01*
X125623716Y-75030051D01*
X125618743Y-75046443D01*
X125610666Y-75061555D01*
X125599798Y-75074798D01*
X125586555Y-75085666D01*
X125571443Y-75093743D01*
X125555051Y-75098716D01*
X125531859Y-75101000D01*
X124118141Y-75101000D01*
X124094949Y-75098716D01*
X124078557Y-75093743D01*
X124063445Y-75085666D01*
X124050202Y-75074798D01*
X124039334Y-75061555D01*
X124031257Y-75046443D01*
X124026284Y-75030051D01*
X124024000Y-75006859D01*
X124024000Y-74593141D01*
X124026284Y-74569949D01*
X124031257Y-74553557D01*
X124039334Y-74538445D01*
X124050202Y-74525202D01*
X124063447Y-74514333D01*
X124071106Y-74510239D01*
X124091480Y-74496626D01*
X124108807Y-74479299D01*
X124122421Y-74458924D01*
X124131798Y-74436286D01*
X124136579Y-74412252D01*
X124136579Y-74387748D01*
X124131799Y-74363715D01*
X124122421Y-74341076D01*
X124108808Y-74320702D01*
X124091481Y-74303375D01*
X124071106Y-74289761D01*
X124063447Y-74285667D01*
X124050202Y-74274798D01*
X124039334Y-74261555D01*
X124031257Y-74246443D01*
X124026284Y-74230051D01*
X124024000Y-74206859D01*
X124024000Y-73793141D01*
X124026284Y-73769949D01*
X124031257Y-73753557D01*
X124039334Y-73738445D01*
X124050202Y-73725202D01*
X124063447Y-73714333D01*
X124071106Y-73710239D01*
X124091480Y-73696626D01*
X124108807Y-73679299D01*
X124122421Y-73658924D01*
X124131798Y-73636286D01*
X124136579Y-73612252D01*
X124136579Y-73587748D01*
X124131799Y-73563715D01*
X124122421Y-73541076D01*
X124108808Y-73520702D01*
X124091481Y-73503375D01*
X124071106Y-73489761D01*
X124063447Y-73485667D01*
X124050202Y-73474798D01*
X124039334Y-73461555D01*
X124031257Y-73446443D01*
X124026284Y-73430051D01*
X124024000Y-73406859D01*
X124024000Y-72993141D01*
X124026284Y-72969949D01*
X124031257Y-72953557D01*
X124039334Y-72938445D01*
X124050202Y-72925202D01*
X124063447Y-72914333D01*
X124071106Y-72910239D01*
X124091480Y-72896626D01*
X124108807Y-72879299D01*
X124122421Y-72858924D01*
X124131798Y-72836286D01*
X124136579Y-72812252D01*
X124136579Y-72787748D01*
X124131799Y-72763715D01*
X124122421Y-72741076D01*
X124108808Y-72720702D01*
X124091481Y-72703375D01*
X124071106Y-72689761D01*
X124063447Y-72685667D01*
X124050202Y-72674798D01*
X124039334Y-72661555D01*
X124031257Y-72646443D01*
X124026284Y-72630051D01*
X124024000Y-72606859D01*
X124024000Y-72193141D01*
X124026284Y-72169949D01*
X124031257Y-72153557D01*
X124039334Y-72138445D01*
X124050202Y-72125202D01*
X124063447Y-72114333D01*
X124071106Y-72110239D01*
X124091480Y-72096626D01*
X124108807Y-72079299D01*
X124122421Y-72058924D01*
X124131798Y-72036286D01*
X124136579Y-72012252D01*
X124136579Y-71987748D01*
X124131799Y-71963715D01*
X124122421Y-71941076D01*
X124108808Y-71920702D01*
X124091481Y-71903375D01*
X124071106Y-71889761D01*
X124063447Y-71885667D01*
X124050202Y-71874798D01*
X124039334Y-71861555D01*
X124031257Y-71846443D01*
X124026284Y-71830051D01*
X124024000Y-71806859D01*
X124024000Y-71393141D01*
X124026284Y-71369949D01*
X124031257Y-71353557D01*
X124039334Y-71338445D01*
X124050202Y-71325202D01*
X124063447Y-71314333D01*
X124071106Y-71310239D01*
X124091480Y-71296626D01*
X124108807Y-71279299D01*
X124122421Y-71258924D01*
X124131798Y-71236286D01*
X124136579Y-71212252D01*
X124136579Y-71187748D01*
X124131799Y-71163715D01*
X124122421Y-71141076D01*
X124108808Y-71120702D01*
X124091481Y-71103375D01*
X124071106Y-71089761D01*
X124063447Y-71085667D01*
X124050202Y-71074798D01*
X124039334Y-71061555D01*
X124031257Y-71046443D01*
X124026284Y-71030051D01*
X124024000Y-71006859D01*
X124024000Y-70593141D01*
X124026284Y-70569949D01*
X124031257Y-70553557D01*
X124039334Y-70538445D01*
X124050202Y-70525202D01*
X124063447Y-70514333D01*
X124071106Y-70510239D01*
X124091480Y-70496626D01*
X124108807Y-70479299D01*
X124122421Y-70458924D01*
X124131798Y-70436286D01*
X124136579Y-70412252D01*
X124136579Y-70387748D01*
X124131799Y-70363715D01*
X124122421Y-70341076D01*
X124108808Y-70320702D01*
X124091481Y-70303375D01*
X124071106Y-70289761D01*
X124063447Y-70285667D01*
X124050202Y-70274798D01*
X124039334Y-70261555D01*
X124031257Y-70246443D01*
X124026284Y-70230051D01*
X124024000Y-70206859D01*
X124024000Y-69793141D01*
X124026284Y-69769949D01*
X124031257Y-69753557D01*
X124039334Y-69738445D01*
X124050202Y-69725202D01*
X124063447Y-69714333D01*
X124071106Y-69710239D01*
X124091480Y-69696626D01*
X124108807Y-69679299D01*
X124122421Y-69658924D01*
X124131798Y-69636286D01*
X124136579Y-69612252D01*
X124136579Y-69587748D01*
X124131799Y-69563715D01*
X124122421Y-69541076D01*
X124108808Y-69520702D01*
X124091481Y-69503375D01*
X124071106Y-69489761D01*
X124063447Y-69485667D01*
X124050202Y-69474798D01*
X124039334Y-69461555D01*
X124031257Y-69446443D01*
X124026284Y-69430051D01*
X124024000Y-69406859D01*
X124024000Y-68993141D01*
X124026284Y-68969949D01*
X124031257Y-68953557D01*
X124039334Y-68938445D01*
X124050202Y-68925202D01*
X124063445Y-68914334D01*
X124078557Y-68906257D01*
X124094949Y-68901284D01*
X124118141Y-68899000D01*
X125531859Y-68899000D01*
X125555051Y-68901284D01*
G37*
G36*
X121613062Y-71078181D02*
G01*
X121647981Y-71088774D01*
X121680163Y-71105976D01*
X121708373Y-71129127D01*
X121731524Y-71157337D01*
X121748726Y-71189519D01*
X121759319Y-71224438D01*
X121763500Y-71266895D01*
X121763500Y-72733105D01*
X121759319Y-72775562D01*
X121748726Y-72810481D01*
X121731524Y-72842663D01*
X121708373Y-72870873D01*
X121680163Y-72894024D01*
X121647981Y-72911226D01*
X121613062Y-72921819D01*
X121570605Y-72926000D01*
X120429395Y-72926000D01*
X120386938Y-72921819D01*
X120352019Y-72911226D01*
X120319837Y-72894024D01*
X120291627Y-72870873D01*
X120268476Y-72842663D01*
X120251274Y-72810481D01*
X120240681Y-72775562D01*
X120236500Y-72733105D01*
X120236500Y-71266895D01*
X120240681Y-71224438D01*
X120251274Y-71189519D01*
X120268476Y-71157337D01*
X120291627Y-71129127D01*
X120319837Y-71105976D01*
X120352019Y-71088774D01*
X120386938Y-71078181D01*
X120429395Y-71074000D01*
X121570605Y-71074000D01*
X121613062Y-71078181D01*
G37*
G36*
X118638062Y-71078181D02*
G01*
X118672981Y-71088774D01*
X118705163Y-71105976D01*
X118733373Y-71129127D01*
X118756524Y-71157337D01*
X118773726Y-71189519D01*
X118784319Y-71224438D01*
X118788500Y-71266895D01*
X118788500Y-72733105D01*
X118784319Y-72775562D01*
X118773726Y-72810481D01*
X118756524Y-72842663D01*
X118733373Y-72870873D01*
X118705163Y-72894024D01*
X118672981Y-72911226D01*
X118638062Y-72921819D01*
X118595605Y-72926000D01*
X117454395Y-72926000D01*
X117411938Y-72921819D01*
X117377019Y-72911226D01*
X117344837Y-72894024D01*
X117316627Y-72870873D01*
X117293476Y-72842663D01*
X117276274Y-72810481D01*
X117265681Y-72775562D01*
X117261500Y-72733105D01*
X117261500Y-71266895D01*
X117265681Y-71224438D01*
X117276274Y-71189519D01*
X117293476Y-71157337D01*
X117316627Y-71129127D01*
X117344837Y-71105976D01*
X117377019Y-71088774D01*
X117411938Y-71078181D01*
X117454395Y-71074000D01*
X118595605Y-71074000D01*
X118638062Y-71078181D01*
G37*
G36*
X145909928Y-72056764D02*
G01*
X145931009Y-72063160D01*
X145950445Y-72073548D01*
X145967476Y-72087524D01*
X145981452Y-72104555D01*
X145991840Y-72123991D01*
X145998236Y-72145072D01*
X146001000Y-72173140D01*
X146001000Y-72636860D01*
X145998236Y-72664928D01*
X145991840Y-72686009D01*
X145981452Y-72705445D01*
X145967476Y-72722476D01*
X145950445Y-72736452D01*
X145931009Y-72746840D01*
X145909928Y-72753236D01*
X145881860Y-72756000D01*
X144068140Y-72756000D01*
X144040072Y-72753236D01*
X144018991Y-72746840D01*
X143999555Y-72736452D01*
X143982524Y-72722476D01*
X143968548Y-72705445D01*
X143958160Y-72686009D01*
X143951764Y-72664928D01*
X143949000Y-72636860D01*
X143949000Y-72173140D01*
X143951764Y-72145072D01*
X143958160Y-72123991D01*
X143968548Y-72104555D01*
X143982524Y-72087524D01*
X143999555Y-72073548D01*
X144018991Y-72063160D01*
X144040072Y-72056764D01*
X144068140Y-72054000D01*
X145881860Y-72054000D01*
X145909928Y-72056764D01*
G37*
G36*
X140959928Y-72056764D02*
G01*
X140981009Y-72063160D01*
X141000445Y-72073548D01*
X141017476Y-72087524D01*
X141031452Y-72104555D01*
X141041840Y-72123991D01*
X141048236Y-72145072D01*
X141051000Y-72173140D01*
X141051000Y-72636860D01*
X141048236Y-72664928D01*
X141041840Y-72686009D01*
X141031452Y-72705445D01*
X141017476Y-72722476D01*
X141000445Y-72736452D01*
X140981009Y-72746840D01*
X140959928Y-72753236D01*
X140931860Y-72756000D01*
X139118140Y-72756000D01*
X139090072Y-72753236D01*
X139068991Y-72746840D01*
X139049555Y-72736452D01*
X139032524Y-72722476D01*
X139018548Y-72705445D01*
X139008160Y-72686009D01*
X139001764Y-72664928D01*
X138999000Y-72636860D01*
X138999000Y-72173140D01*
X139001764Y-72145072D01*
X139008160Y-72123991D01*
X139018548Y-72104555D01*
X139032524Y-72087524D01*
X139049555Y-72073548D01*
X139068991Y-72063160D01*
X139090072Y-72056764D01*
X139118140Y-72054000D01*
X140931860Y-72054000D01*
X140959928Y-72056764D01*
G37*
G36*
X149501000Y-71851000D02*
G01*
X148499000Y-71851000D01*
X148499000Y-70949000D01*
X149501000Y-70949000D01*
X149501000Y-71851000D01*
G37*
G36*
X140959928Y-70786764D02*
G01*
X140981009Y-70793160D01*
X141000445Y-70803548D01*
X141017476Y-70817524D01*
X141031452Y-70834555D01*
X141041840Y-70853991D01*
X141048236Y-70875072D01*
X141051000Y-70903140D01*
X141051000Y-71366860D01*
X141048236Y-71394928D01*
X141041840Y-71416009D01*
X141031452Y-71435445D01*
X141017476Y-71452476D01*
X141000445Y-71466452D01*
X140981009Y-71476840D01*
X140959928Y-71483236D01*
X140931860Y-71486000D01*
X139118140Y-71486000D01*
X139090072Y-71483236D01*
X139068991Y-71476840D01*
X139049555Y-71466452D01*
X139032524Y-71452476D01*
X139018548Y-71435445D01*
X139008160Y-71416009D01*
X139001764Y-71394928D01*
X138999000Y-71366860D01*
X138999000Y-70903140D01*
X139001764Y-70875072D01*
X139008160Y-70853991D01*
X139018548Y-70834555D01*
X139032524Y-70817524D01*
X139049555Y-70803548D01*
X139068991Y-70793160D01*
X139090072Y-70786764D01*
X139118140Y-70784000D01*
X140931860Y-70784000D01*
X140959928Y-70786764D01*
G37*
G36*
X145909928Y-70786764D02*
G01*
X145931009Y-70793160D01*
X145950445Y-70803548D01*
X145967476Y-70817524D01*
X145981452Y-70834555D01*
X145991840Y-70853991D01*
X145998236Y-70875072D01*
X146001000Y-70903140D01*
X146001000Y-71366860D01*
X145998236Y-71394928D01*
X145991840Y-71416009D01*
X145981452Y-71435445D01*
X145967476Y-71452476D01*
X145950445Y-71466452D01*
X145931009Y-71476840D01*
X145909928Y-71483236D01*
X145881860Y-71486000D01*
X144068140Y-71486000D01*
X144040072Y-71483236D01*
X144018991Y-71476840D01*
X143999555Y-71466452D01*
X143982524Y-71452476D01*
X143968548Y-71435445D01*
X143958160Y-71416009D01*
X143951764Y-71394928D01*
X143949000Y-71366860D01*
X143949000Y-70903140D01*
X143951764Y-70875072D01*
X143958160Y-70853991D01*
X143968548Y-70834555D01*
X143982524Y-70817524D01*
X143999555Y-70803548D01*
X144018991Y-70793160D01*
X144040072Y-70786764D01*
X144068140Y-70784000D01*
X145881860Y-70784000D01*
X145909928Y-70786764D01*
G37*
G36*
X151501000Y-70901000D02*
G01*
X150499000Y-70901000D01*
X150499000Y-69999000D01*
X151501000Y-69999000D01*
X151501000Y-70901000D01*
G37*
G36*
X145909928Y-69516764D02*
G01*
X145931009Y-69523160D01*
X145950445Y-69533548D01*
X145967476Y-69547524D01*
X145981452Y-69564555D01*
X145991840Y-69583991D01*
X145998236Y-69605072D01*
X146001000Y-69633140D01*
X146001000Y-70096860D01*
X145998236Y-70124928D01*
X145991840Y-70146009D01*
X145981452Y-70165445D01*
X145967476Y-70182476D01*
X145950445Y-70196452D01*
X145931009Y-70206840D01*
X145909928Y-70213236D01*
X145881860Y-70216000D01*
X144068140Y-70216000D01*
X144040072Y-70213236D01*
X144018991Y-70206840D01*
X143999555Y-70196452D01*
X143982524Y-70182476D01*
X143968548Y-70165445D01*
X143958160Y-70146009D01*
X143951764Y-70124928D01*
X143949000Y-70096860D01*
X143949000Y-69633140D01*
X143951764Y-69605072D01*
X143958160Y-69583991D01*
X143968548Y-69564555D01*
X143982524Y-69547524D01*
X143999555Y-69533548D01*
X144018991Y-69523160D01*
X144040072Y-69516764D01*
X144068140Y-69514000D01*
X145881860Y-69514000D01*
X145909928Y-69516764D01*
G37*
G36*
X140959928Y-69516764D02*
G01*
X140981009Y-69523160D01*
X141000445Y-69533548D01*
X141017476Y-69547524D01*
X141031452Y-69564555D01*
X141041840Y-69583991D01*
X141048236Y-69605072D01*
X141051000Y-69633140D01*
X141051000Y-70096860D01*
X141048236Y-70124928D01*
X141041840Y-70146009D01*
X141031452Y-70165445D01*
X141017476Y-70182476D01*
X141000445Y-70196452D01*
X140981009Y-70206840D01*
X140959928Y-70213236D01*
X140931860Y-70216000D01*
X139118140Y-70216000D01*
X139090072Y-70213236D01*
X139068991Y-70206840D01*
X139049555Y-70196452D01*
X139032524Y-70182476D01*
X139018548Y-70165445D01*
X139008160Y-70146009D01*
X139001764Y-70124928D01*
X138999000Y-70096860D01*
X138999000Y-69633140D01*
X139001764Y-69605072D01*
X139008160Y-69583991D01*
X139018548Y-69564555D01*
X139032524Y-69547524D01*
X139049555Y-69533548D01*
X139068991Y-69523160D01*
X139090072Y-69516764D01*
X139118140Y-69514000D01*
X140931860Y-69514000D01*
X140959928Y-69516764D01*
G37*
G36*
X149501000Y-69951000D02*
G01*
X148499000Y-69951000D01*
X148499000Y-69049000D01*
X149501000Y-69049000D01*
X149501000Y-69951000D01*
G37*
G36*
X121613062Y-68078181D02*
G01*
X121647981Y-68088774D01*
X121680163Y-68105976D01*
X121708373Y-68129127D01*
X121731524Y-68157337D01*
X121748726Y-68189519D01*
X121759319Y-68224438D01*
X121763500Y-68266895D01*
X121763500Y-69733105D01*
X121759319Y-69775562D01*
X121748726Y-69810481D01*
X121731524Y-69842663D01*
X121708373Y-69870873D01*
X121680163Y-69894024D01*
X121647981Y-69911226D01*
X121613062Y-69921819D01*
X121570605Y-69926000D01*
X120429395Y-69926000D01*
X120386938Y-69921819D01*
X120352019Y-69911226D01*
X120319837Y-69894024D01*
X120291627Y-69870873D01*
X120268476Y-69842663D01*
X120251274Y-69810481D01*
X120240681Y-69775562D01*
X120236500Y-69733105D01*
X120236500Y-68266895D01*
X120240681Y-68224438D01*
X120251274Y-68189519D01*
X120268476Y-68157337D01*
X120291627Y-68129127D01*
X120319837Y-68105976D01*
X120352019Y-68088774D01*
X120386938Y-68078181D01*
X120429395Y-68074000D01*
X121570605Y-68074000D01*
X121613062Y-68078181D01*
G37*
G36*
X118638062Y-68078181D02*
G01*
X118672981Y-68088774D01*
X118705163Y-68105976D01*
X118733373Y-68129127D01*
X118756524Y-68157337D01*
X118773726Y-68189519D01*
X118784319Y-68224438D01*
X118788500Y-68266895D01*
X118788500Y-69733105D01*
X118784319Y-69775562D01*
X118773726Y-69810481D01*
X118756524Y-69842663D01*
X118733373Y-69870873D01*
X118705163Y-69894024D01*
X118672981Y-69911226D01*
X118638062Y-69921819D01*
X118595605Y-69926000D01*
X117454395Y-69926000D01*
X117411938Y-69921819D01*
X117377019Y-69911226D01*
X117344837Y-69894024D01*
X117316627Y-69870873D01*
X117293476Y-69842663D01*
X117276274Y-69810481D01*
X117265681Y-69775562D01*
X117261500Y-69733105D01*
X117261500Y-68266895D01*
X117265681Y-68224438D01*
X117276274Y-68189519D01*
X117293476Y-68157337D01*
X117316627Y-68129127D01*
X117344837Y-68105976D01*
X117377019Y-68088774D01*
X117411938Y-68078181D01*
X117454395Y-68074000D01*
X118595605Y-68074000D01*
X118638062Y-68078181D01*
G37*
G36*
X140959928Y-68246764D02*
G01*
X140981009Y-68253160D01*
X141000445Y-68263548D01*
X141017476Y-68277524D01*
X141031452Y-68294555D01*
X141041840Y-68313991D01*
X141048236Y-68335072D01*
X141051000Y-68363140D01*
X141051000Y-68826860D01*
X141048236Y-68854928D01*
X141041840Y-68876009D01*
X141031452Y-68895445D01*
X141017476Y-68912476D01*
X141000445Y-68926452D01*
X140981009Y-68936840D01*
X140959928Y-68943236D01*
X140931860Y-68946000D01*
X139118140Y-68946000D01*
X139090072Y-68943236D01*
X139068991Y-68936840D01*
X139049555Y-68926452D01*
X139032524Y-68912476D01*
X139018548Y-68895445D01*
X139008160Y-68876009D01*
X139001764Y-68854928D01*
X138999000Y-68826860D01*
X138999000Y-68363140D01*
X139001764Y-68335072D01*
X139008160Y-68313991D01*
X139018548Y-68294555D01*
X139032524Y-68277524D01*
X139049555Y-68263548D01*
X139068991Y-68253160D01*
X139090072Y-68246764D01*
X139118140Y-68244000D01*
X140931860Y-68244000D01*
X140959928Y-68246764D01*
G37*
G36*
X145909928Y-68246764D02*
G01*
X145931009Y-68253160D01*
X145950445Y-68263548D01*
X145967476Y-68277524D01*
X145981452Y-68294555D01*
X145991840Y-68313991D01*
X145998236Y-68335072D01*
X146001000Y-68363140D01*
X146001000Y-68826860D01*
X145998236Y-68854928D01*
X145991840Y-68876009D01*
X145981452Y-68895445D01*
X145967476Y-68912476D01*
X145950445Y-68926452D01*
X145931009Y-68936840D01*
X145909928Y-68943236D01*
X145881860Y-68946000D01*
X144068140Y-68946000D01*
X144040072Y-68943236D01*
X144018991Y-68936840D01*
X143999555Y-68926452D01*
X143982524Y-68912476D01*
X143968548Y-68895445D01*
X143958160Y-68876009D01*
X143951764Y-68854928D01*
X143949000Y-68826860D01*
X143949000Y-68363140D01*
X143951764Y-68335072D01*
X143958160Y-68313991D01*
X143968548Y-68294555D01*
X143982524Y-68277524D01*
X143999555Y-68263548D01*
X144018991Y-68253160D01*
X144040072Y-68246764D01*
X144068140Y-68244000D01*
X145881860Y-68244000D01*
X145909928Y-68246764D01*
G37*
G36*
X126430051Y-67026284D02*
G01*
X126446443Y-67031257D01*
X126461555Y-67039334D01*
X126474798Y-67050202D01*
X126485667Y-67063447D01*
X126489761Y-67071106D01*
X126503374Y-67091480D01*
X126520701Y-67108807D01*
X126541076Y-67122421D01*
X126563714Y-67131798D01*
X126587748Y-67136579D01*
X126612252Y-67136579D01*
X126636285Y-67131799D01*
X126658924Y-67122421D01*
X126679298Y-67108808D01*
X126696625Y-67091481D01*
X126710239Y-67071106D01*
X126714333Y-67063447D01*
X126725202Y-67050202D01*
X126738445Y-67039334D01*
X126753557Y-67031257D01*
X126769949Y-67026284D01*
X126793141Y-67024000D01*
X127206859Y-67024000D01*
X127230051Y-67026284D01*
X127246443Y-67031257D01*
X127261555Y-67039334D01*
X127274798Y-67050202D01*
X127285667Y-67063447D01*
X127289761Y-67071106D01*
X127303374Y-67091480D01*
X127320701Y-67108807D01*
X127341076Y-67122421D01*
X127363714Y-67131798D01*
X127387748Y-67136579D01*
X127412252Y-67136579D01*
X127436285Y-67131799D01*
X127458924Y-67122421D01*
X127479298Y-67108808D01*
X127496625Y-67091481D01*
X127510239Y-67071106D01*
X127514333Y-67063447D01*
X127525202Y-67050202D01*
X127538445Y-67039334D01*
X127553557Y-67031257D01*
X127569949Y-67026284D01*
X127593141Y-67024000D01*
X128006859Y-67024000D01*
X128030051Y-67026284D01*
X128046443Y-67031257D01*
X128061555Y-67039334D01*
X128074798Y-67050202D01*
X128085667Y-67063447D01*
X128089761Y-67071106D01*
X128103374Y-67091480D01*
X128120701Y-67108807D01*
X128141076Y-67122421D01*
X128163714Y-67131798D01*
X128187748Y-67136579D01*
X128212252Y-67136579D01*
X128236285Y-67131799D01*
X128258924Y-67122421D01*
X128279298Y-67108808D01*
X128296625Y-67091481D01*
X128310239Y-67071106D01*
X128314333Y-67063447D01*
X128325202Y-67050202D01*
X128338445Y-67039334D01*
X128353557Y-67031257D01*
X128369949Y-67026284D01*
X128393141Y-67024000D01*
X128806859Y-67024000D01*
X128830051Y-67026284D01*
X128846443Y-67031257D01*
X128861555Y-67039334D01*
X128874798Y-67050202D01*
X128885667Y-67063447D01*
X128889761Y-67071106D01*
X128903374Y-67091480D01*
X128920701Y-67108807D01*
X128941076Y-67122421D01*
X128963714Y-67131798D01*
X128987748Y-67136579D01*
X129012252Y-67136579D01*
X129036285Y-67131799D01*
X129058924Y-67122421D01*
X129079298Y-67108808D01*
X129096625Y-67091481D01*
X129110239Y-67071106D01*
X129114333Y-67063447D01*
X129125202Y-67050202D01*
X129138445Y-67039334D01*
X129153557Y-67031257D01*
X129169949Y-67026284D01*
X129193141Y-67024000D01*
X129606859Y-67024000D01*
X129630051Y-67026284D01*
X129646443Y-67031257D01*
X129661555Y-67039334D01*
X129674798Y-67050202D01*
X129685667Y-67063447D01*
X129689761Y-67071106D01*
X129703374Y-67091480D01*
X129720701Y-67108807D01*
X129741076Y-67122421D01*
X129763714Y-67131798D01*
X129787748Y-67136579D01*
X129812252Y-67136579D01*
X129836285Y-67131799D01*
X129858924Y-67122421D01*
X129879298Y-67108808D01*
X129896625Y-67091481D01*
X129910239Y-67071106D01*
X129914333Y-67063447D01*
X129925202Y-67050202D01*
X129938445Y-67039334D01*
X129953557Y-67031257D01*
X129969949Y-67026284D01*
X129993141Y-67024000D01*
X130406859Y-67024000D01*
X130430051Y-67026284D01*
X130446443Y-67031257D01*
X130461555Y-67039334D01*
X130474798Y-67050202D01*
X130485667Y-67063447D01*
X130489761Y-67071106D01*
X130503374Y-67091480D01*
X130520701Y-67108807D01*
X130541076Y-67122421D01*
X130563714Y-67131798D01*
X130587748Y-67136579D01*
X130612252Y-67136579D01*
X130636285Y-67131799D01*
X130658924Y-67122421D01*
X130679298Y-67108808D01*
X130696625Y-67091481D01*
X130710239Y-67071106D01*
X130714333Y-67063447D01*
X130725202Y-67050202D01*
X130738445Y-67039334D01*
X130753557Y-67031257D01*
X130769949Y-67026284D01*
X130793141Y-67024000D01*
X131206859Y-67024000D01*
X131230051Y-67026284D01*
X131246443Y-67031257D01*
X131261555Y-67039334D01*
X131274798Y-67050202D01*
X131285667Y-67063447D01*
X131289761Y-67071106D01*
X131303374Y-67091480D01*
X131320701Y-67108807D01*
X131341076Y-67122421D01*
X131363714Y-67131798D01*
X131387748Y-67136579D01*
X131412252Y-67136579D01*
X131436285Y-67131799D01*
X131458924Y-67122421D01*
X131479298Y-67108808D01*
X131496625Y-67091481D01*
X131510239Y-67071106D01*
X131514333Y-67063447D01*
X131525202Y-67050202D01*
X131538445Y-67039334D01*
X131553557Y-67031257D01*
X131569949Y-67026284D01*
X131593141Y-67024000D01*
X132006859Y-67024000D01*
X132030051Y-67026284D01*
X132046443Y-67031257D01*
X132061555Y-67039334D01*
X132074798Y-67050202D01*
X132085666Y-67063445D01*
X132093743Y-67078557D01*
X132098716Y-67094949D01*
X132101000Y-67118141D01*
X132101000Y-68531859D01*
X132098716Y-68555051D01*
X132093743Y-68571443D01*
X132085666Y-68586555D01*
X132074798Y-68599798D01*
X132061555Y-68610666D01*
X132046443Y-68618743D01*
X132030051Y-68623716D01*
X132006859Y-68626000D01*
X131593141Y-68626000D01*
X131569949Y-68623716D01*
X131553557Y-68618743D01*
X131538445Y-68610666D01*
X131525202Y-68599798D01*
X131514333Y-68586553D01*
X131510239Y-68578894D01*
X131496626Y-68558520D01*
X131479299Y-68541193D01*
X131458924Y-68527579D01*
X131436286Y-68518202D01*
X131412252Y-68513421D01*
X131387748Y-68513421D01*
X131363715Y-68518201D01*
X131341076Y-68527579D01*
X131320702Y-68541192D01*
X131303375Y-68558519D01*
X131289761Y-68578894D01*
X131285667Y-68586553D01*
X131274798Y-68599798D01*
X131261555Y-68610666D01*
X131246443Y-68618743D01*
X131230051Y-68623716D01*
X131206859Y-68626000D01*
X130793141Y-68626000D01*
X130769949Y-68623716D01*
X130753557Y-68618743D01*
X130738445Y-68610666D01*
X130725202Y-68599798D01*
X130714333Y-68586553D01*
X130710239Y-68578894D01*
X130696626Y-68558520D01*
X130679299Y-68541193D01*
X130658924Y-68527579D01*
X130636286Y-68518202D01*
X130612252Y-68513421D01*
X130587748Y-68513421D01*
X130563715Y-68518201D01*
X130541076Y-68527579D01*
X130520702Y-68541192D01*
X130503375Y-68558519D01*
X130489761Y-68578894D01*
X130485667Y-68586553D01*
X130474798Y-68599798D01*
X130461555Y-68610666D01*
X130446443Y-68618743D01*
X130430051Y-68623716D01*
X130406859Y-68626000D01*
X129993141Y-68626000D01*
X129969949Y-68623716D01*
X129953557Y-68618743D01*
X129938445Y-68610666D01*
X129925202Y-68599798D01*
X129914333Y-68586553D01*
X129910239Y-68578894D01*
X129896626Y-68558520D01*
X129879299Y-68541193D01*
X129858924Y-68527579D01*
X129836286Y-68518202D01*
X129812252Y-68513421D01*
X129787748Y-68513421D01*
X129763715Y-68518201D01*
X129741076Y-68527579D01*
X129720702Y-68541192D01*
X129703375Y-68558519D01*
X129689761Y-68578894D01*
X129685667Y-68586553D01*
X129674798Y-68599798D01*
X129661555Y-68610666D01*
X129646443Y-68618743D01*
X129630051Y-68623716D01*
X129606859Y-68626000D01*
X129193141Y-68626000D01*
X129169949Y-68623716D01*
X129153557Y-68618743D01*
X129138445Y-68610666D01*
X129125202Y-68599798D01*
X129114333Y-68586553D01*
X129110239Y-68578894D01*
X129096626Y-68558520D01*
X129079299Y-68541193D01*
X129058924Y-68527579D01*
X129036286Y-68518202D01*
X129012252Y-68513421D01*
X128987748Y-68513421D01*
X128963715Y-68518201D01*
X128941076Y-68527579D01*
X128920702Y-68541192D01*
X128903375Y-68558519D01*
X128889761Y-68578894D01*
X128885667Y-68586553D01*
X128874798Y-68599798D01*
X128861555Y-68610666D01*
X128846443Y-68618743D01*
X128830051Y-68623716D01*
X128806859Y-68626000D01*
X128393141Y-68626000D01*
X128369949Y-68623716D01*
X128353557Y-68618743D01*
X128338445Y-68610666D01*
X128325202Y-68599798D01*
X128314333Y-68586553D01*
X128310239Y-68578894D01*
X128296626Y-68558520D01*
X128279299Y-68541193D01*
X128258924Y-68527579D01*
X128236286Y-68518202D01*
X128212252Y-68513421D01*
X128187748Y-68513421D01*
X128163715Y-68518201D01*
X128141076Y-68527579D01*
X128120702Y-68541192D01*
X128103375Y-68558519D01*
X128089761Y-68578894D01*
X128085667Y-68586553D01*
X128074798Y-68599798D01*
X128061555Y-68610666D01*
X128046443Y-68618743D01*
X128030051Y-68623716D01*
X128006859Y-68626000D01*
X127593141Y-68626000D01*
X127569949Y-68623716D01*
X127553557Y-68618743D01*
X127538445Y-68610666D01*
X127525202Y-68599798D01*
X127514333Y-68586553D01*
X127510239Y-68578894D01*
X127496626Y-68558520D01*
X127479299Y-68541193D01*
X127458924Y-68527579D01*
X127436286Y-68518202D01*
X127412252Y-68513421D01*
X127387748Y-68513421D01*
X127363715Y-68518201D01*
X127341076Y-68527579D01*
X127320702Y-68541192D01*
X127303375Y-68558519D01*
X127289761Y-68578894D01*
X127285667Y-68586553D01*
X127274798Y-68599798D01*
X127261555Y-68610666D01*
X127246443Y-68618743D01*
X127230051Y-68623716D01*
X127206859Y-68626000D01*
X126793141Y-68626000D01*
X126769949Y-68623716D01*
X126753557Y-68618743D01*
X126738445Y-68610666D01*
X126725202Y-68599798D01*
X126714333Y-68586553D01*
X126710239Y-68578894D01*
X126696626Y-68558520D01*
X126679299Y-68541193D01*
X126658924Y-68527579D01*
X126636286Y-68518202D01*
X126612252Y-68513421D01*
X126587748Y-68513421D01*
X126563715Y-68518201D01*
X126541076Y-68527579D01*
X126520702Y-68541192D01*
X126503375Y-68558519D01*
X126489761Y-68578894D01*
X126485667Y-68586553D01*
X126474798Y-68599798D01*
X126461555Y-68610666D01*
X126446443Y-68618743D01*
X126430051Y-68623716D01*
X126406859Y-68626000D01*
X125993141Y-68626000D01*
X125969949Y-68623716D01*
X125953557Y-68618743D01*
X125938445Y-68610666D01*
X125925202Y-68599798D01*
X125914334Y-68586555D01*
X125906257Y-68571443D01*
X125901284Y-68555051D01*
X125899000Y-68531859D01*
X125899000Y-67118141D01*
X125901284Y-67094949D01*
X125906257Y-67078557D01*
X125914334Y-67063445D01*
X125925202Y-67050202D01*
X125938445Y-67039334D01*
X125953557Y-67031257D01*
X125969949Y-67026284D01*
X125993141Y-67024000D01*
X126406859Y-67024000D01*
X126430051Y-67026284D01*
G37*
G36*
X123775562Y-64728181D02*
G01*
X123810481Y-64738774D01*
X123842663Y-64755976D01*
X123870873Y-64779127D01*
X123894024Y-64807337D01*
X123911226Y-64839519D01*
X123921819Y-64874438D01*
X123926000Y-64916895D01*
X123926000Y-66058105D01*
X123921819Y-66100562D01*
X123911226Y-66135481D01*
X123894024Y-66167663D01*
X123870873Y-66195873D01*
X123842663Y-66219024D01*
X123810481Y-66236226D01*
X123775562Y-66246819D01*
X123733105Y-66251000D01*
X122266895Y-66251000D01*
X122224438Y-66246819D01*
X122189519Y-66236226D01*
X122157337Y-66219024D01*
X122129127Y-66195873D01*
X122105976Y-66167663D01*
X122088774Y-66135481D01*
X122078181Y-66100562D01*
X122074000Y-66058105D01*
X122074000Y-64916895D01*
X122078181Y-64874438D01*
X122088774Y-64839519D01*
X122105976Y-64807337D01*
X122129127Y-64779127D01*
X122157337Y-64755976D01*
X122189519Y-64738774D01*
X122224438Y-64728181D01*
X122266895Y-64724000D01*
X123733105Y-64724000D01*
X123775562Y-64728181D01*
G37*
G36*
X119901000Y-65901000D02*
G01*
X118099000Y-65901000D01*
X118099000Y-64099000D01*
X119901000Y-64099000D01*
X119901000Y-65901000D01*
G37*
G36*
X119113512Y-61563927D02*
G01*
X119262812Y-61593624D01*
X119426784Y-61661544D01*
X119574354Y-61760147D01*
X119699853Y-61885646D01*
X119798456Y-62033216D01*
X119866376Y-62197188D01*
X119901000Y-62371259D01*
X119901000Y-62548741D01*
X119866376Y-62722812D01*
X119798456Y-62886784D01*
X119699853Y-63034354D01*
X119574354Y-63159853D01*
X119426784Y-63258456D01*
X119262812Y-63326376D01*
X119113512Y-63356073D01*
X119088742Y-63361000D01*
X118911258Y-63361000D01*
X118886488Y-63356073D01*
X118737188Y-63326376D01*
X118573216Y-63258456D01*
X118425646Y-63159853D01*
X118300147Y-63034354D01*
X118201544Y-62886784D01*
X118133624Y-62722812D01*
X118099000Y-62548741D01*
X118099000Y-62371259D01*
X118133624Y-62197188D01*
X118201544Y-62033216D01*
X118300147Y-61885646D01*
X118425646Y-61760147D01*
X118573216Y-61661544D01*
X118737188Y-61593624D01*
X118886488Y-61563927D01*
X118911258Y-61559000D01*
X119088742Y-61559000D01*
X119113512Y-61563927D01*
G37*
G36*
X123775562Y-61753181D02*
G01*
X123810481Y-61763774D01*
X123842663Y-61780976D01*
X123870873Y-61804127D01*
X123894024Y-61832337D01*
X123911226Y-61864519D01*
X123921819Y-61899438D01*
X123926000Y-61941895D01*
X123926000Y-63083105D01*
X123921819Y-63125562D01*
X123911226Y-63160481D01*
X123894024Y-63192663D01*
X123870873Y-63220873D01*
X123842663Y-63244024D01*
X123810481Y-63261226D01*
X123775562Y-63271819D01*
X123733105Y-63276000D01*
X122266895Y-63276000D01*
X122224438Y-63271819D01*
X122189519Y-63261226D01*
X122157337Y-63244024D01*
X122129127Y-63220873D01*
X122105976Y-63192663D01*
X122088774Y-63160481D01*
X122078181Y-63125562D01*
X122074000Y-63083105D01*
X122074000Y-61941895D01*
X122078181Y-61899438D01*
X122088774Y-61864519D01*
X122105976Y-61832337D01*
X122129127Y-61804127D01*
X122157337Y-61780976D01*
X122189519Y-61763774D01*
X122224438Y-61753181D01*
X122266895Y-61749000D01*
X123733105Y-61749000D01*
X123775562Y-61753181D01*
G37*
G36*
X145875256Y-58891298D02*
G01*
X145981579Y-58912447D01*
X146194037Y-59000450D01*
X146238821Y-59019000D01*
X146282042Y-59036903D01*
X146552451Y-59217585D01*
X146782415Y-59447549D01*
X146963097Y-59717958D01*
X147083544Y-60008742D01*
X147087553Y-60018422D01*
X147151000Y-60337389D01*
X147151000Y-60662611D01*
X147126381Y-60786376D01*
X147087553Y-60981579D01*
X146963097Y-61282042D01*
X146782415Y-61552451D01*
X146552451Y-61782415D01*
X146282042Y-61963097D01*
X145981579Y-62087553D01*
X145875256Y-62108702D01*
X145662611Y-62151000D01*
X145337389Y-62151000D01*
X145124744Y-62108702D01*
X145018421Y-62087553D01*
X144717958Y-61963097D01*
X144447549Y-61782415D01*
X144217585Y-61552451D01*
X144036903Y-61282042D01*
X143912447Y-60981579D01*
X143873619Y-60786376D01*
X143849000Y-60662611D01*
X143849000Y-60337389D01*
X143912447Y-60018422D01*
X143916457Y-60008742D01*
X144036903Y-59717958D01*
X144217585Y-59447549D01*
X144447549Y-59217585D01*
X144717958Y-59036903D01*
X144761180Y-59019000D01*
X144805963Y-59000450D01*
X145018421Y-58912447D01*
X145124744Y-58891298D01*
X145337389Y-58849000D01*
X145662611Y-58849000D01*
X145875256Y-58891298D01*
G37*
G36*
X119113512Y-59023927D02*
G01*
X119262812Y-59053624D01*
X119426784Y-59121544D01*
X119574354Y-59220147D01*
X119699853Y-59345646D01*
X119798456Y-59493216D01*
X119866376Y-59657188D01*
X119901000Y-59831259D01*
X119901000Y-60008741D01*
X119866376Y-60182812D01*
X119798456Y-60346784D01*
X119699853Y-60494354D01*
X119574354Y-60619853D01*
X119426784Y-60718456D01*
X119262812Y-60786376D01*
X119113512Y-60816073D01*
X119088742Y-60821000D01*
X118911258Y-60821000D01*
X118886488Y-60816073D01*
X118737188Y-60786376D01*
X118573216Y-60718456D01*
X118425646Y-60619853D01*
X118300147Y-60494354D01*
X118201544Y-60346784D01*
X118133624Y-60182812D01*
X118099000Y-60008741D01*
X118099000Y-59831259D01*
X118133624Y-59657188D01*
X118201544Y-59493216D01*
X118300147Y-59345646D01*
X118425646Y-59220147D01*
X118573216Y-59121544D01*
X118737188Y-59053624D01*
X118886488Y-59023927D01*
X118911258Y-59019000D01*
X119088742Y-59019000D01*
X119113512Y-59023927D01*
G37*
G36*
X129573512Y-56603927D02*
G01*
X129722812Y-56633624D01*
X129886784Y-56701544D01*
X130034354Y-56800147D01*
X130159853Y-56925646D01*
X130258456Y-57073216D01*
X130326376Y-57237188D01*
X130361000Y-57411259D01*
X130361000Y-57588741D01*
X130326376Y-57762812D01*
X130258456Y-57926784D01*
X130159853Y-58074354D01*
X130034354Y-58199853D01*
X129886784Y-58298456D01*
X129722812Y-58366376D01*
X129573512Y-58396073D01*
X129548742Y-58401000D01*
X129371258Y-58401000D01*
X129346488Y-58396073D01*
X129197188Y-58366376D01*
X129033216Y-58298456D01*
X128885646Y-58199853D01*
X128760147Y-58074354D01*
X128661544Y-57926784D01*
X128593624Y-57762812D01*
X128559000Y-57588741D01*
X128559000Y-57411259D01*
X128593624Y-57237188D01*
X128661544Y-57073216D01*
X128760147Y-56925646D01*
X128885646Y-56800147D01*
X129033216Y-56701544D01*
X129197188Y-56633624D01*
X129346488Y-56603927D01*
X129371258Y-56599000D01*
X129548742Y-56599000D01*
X129573512Y-56603927D01*
G37*
G36*
X127033512Y-56603927D02*
G01*
X127182812Y-56633624D01*
X127346784Y-56701544D01*
X127494354Y-56800147D01*
X127619853Y-56925646D01*
X127718456Y-57073216D01*
X127786376Y-57237188D01*
X127821000Y-57411259D01*
X127821000Y-57588741D01*
X127786376Y-57762812D01*
X127718456Y-57926784D01*
X127619853Y-58074354D01*
X127494354Y-58199853D01*
X127346784Y-58298456D01*
X127182812Y-58366376D01*
X127033512Y-58396073D01*
X127008742Y-58401000D01*
X126831258Y-58401000D01*
X126806488Y-58396073D01*
X126657188Y-58366376D01*
X126493216Y-58298456D01*
X126345646Y-58199853D01*
X126220147Y-58074354D01*
X126121544Y-57926784D01*
X126053624Y-57762812D01*
X126019000Y-57588741D01*
X126019000Y-57411259D01*
X126053624Y-57237188D01*
X126121544Y-57073216D01*
X126220147Y-56925646D01*
X126345646Y-56800147D01*
X126493216Y-56701544D01*
X126657188Y-56633624D01*
X126806488Y-56603927D01*
X126831258Y-56599000D01*
X127008742Y-56599000D01*
X127033512Y-56603927D01*
G37*
G36*
X132901000Y-58401000D02*
G01*
X131099000Y-58401000D01*
X131099000Y-56599000D01*
X132901000Y-56599000D01*
X132901000Y-58401000D01*
G37*
G36*
X112775562Y-56240681D02*
G01*
X112810481Y-56251274D01*
X112842663Y-56268476D01*
X112870873Y-56291627D01*
X112894024Y-56319837D01*
X112911226Y-56352019D01*
X112921819Y-56386938D01*
X112926000Y-56429395D01*
X112926000Y-57570605D01*
X112921819Y-57613062D01*
X112911226Y-57647981D01*
X112894024Y-57680163D01*
X112870873Y-57708373D01*
X112842663Y-57731524D01*
X112810481Y-57748726D01*
X112775562Y-57759319D01*
X112733105Y-57763500D01*
X111266895Y-57763500D01*
X111224438Y-57759319D01*
X111189519Y-57748726D01*
X111157337Y-57731524D01*
X111129127Y-57708373D01*
X111105976Y-57680163D01*
X111088774Y-57647981D01*
X111078181Y-57613062D01*
X111074000Y-57570605D01*
X111074000Y-56429395D01*
X111078181Y-56386938D01*
X111088774Y-56352019D01*
X111105976Y-56319837D01*
X111129127Y-56291627D01*
X111157337Y-56268476D01*
X111189519Y-56251274D01*
X111224438Y-56240681D01*
X111266895Y-56236500D01*
X112733105Y-56236500D01*
X112775562Y-56240681D01*
G37*
G36*
X104375256Y-52391298D02*
G01*
X104481579Y-52412447D01*
X104782042Y-52536903D01*
X105052451Y-52717585D01*
X105282415Y-52947549D01*
X105463097Y-53217958D01*
X105587553Y-53518421D01*
X105651000Y-53837391D01*
X105651000Y-54162609D01*
X105587553Y-54481579D01*
X105463097Y-54782042D01*
X105282415Y-55052451D01*
X105052451Y-55282415D01*
X104782042Y-55463097D01*
X104481579Y-55587553D01*
X104375256Y-55608702D01*
X104162611Y-55651000D01*
X103837389Y-55651000D01*
X103624744Y-55608702D01*
X103518421Y-55587553D01*
X103217958Y-55463097D01*
X102947549Y-55282415D01*
X102717585Y-55052451D01*
X102536903Y-54782042D01*
X102412447Y-54481579D01*
X102349000Y-54162609D01*
X102349000Y-53837391D01*
X102412447Y-53518421D01*
X102536903Y-53217958D01*
X102717585Y-52947549D01*
X102947549Y-52717585D01*
X103217958Y-52536903D01*
X103518421Y-52412447D01*
X103624744Y-52391298D01*
X103837389Y-52349000D01*
X104162611Y-52349000D01*
X104375256Y-52391298D01*
G37*
G36*
X140588062Y-53078181D02*
G01*
X140622981Y-53088774D01*
X140655163Y-53105976D01*
X140683373Y-53129127D01*
X140706524Y-53157337D01*
X140723726Y-53189519D01*
X140734319Y-53224438D01*
X140738500Y-53266895D01*
X140738500Y-54733105D01*
X140734319Y-54775562D01*
X140723726Y-54810481D01*
X140706524Y-54842663D01*
X140683373Y-54870873D01*
X140655163Y-54894024D01*
X140622981Y-54911226D01*
X140588062Y-54921819D01*
X140545605Y-54926000D01*
X139404395Y-54926000D01*
X139361938Y-54921819D01*
X139327019Y-54911226D01*
X139294837Y-54894024D01*
X139266627Y-54870873D01*
X139243476Y-54842663D01*
X139226274Y-54810481D01*
X139215681Y-54775562D01*
X139211500Y-54733105D01*
X139211500Y-53266895D01*
X139215681Y-53224438D01*
X139226274Y-53189519D01*
X139243476Y-53157337D01*
X139266627Y-53129127D01*
X139294837Y-53105976D01*
X139327019Y-53088774D01*
X139361938Y-53078181D01*
X139404395Y-53074000D01*
X140545605Y-53074000D01*
X140588062Y-53078181D01*
G37*
G36*
X137613062Y-53078181D02*
G01*
X137647981Y-53088774D01*
X137680163Y-53105976D01*
X137708373Y-53129127D01*
X137731524Y-53157337D01*
X137748726Y-53189519D01*
X137759319Y-53224438D01*
X137763500Y-53266895D01*
X137763500Y-54733105D01*
X137759319Y-54775562D01*
X137748726Y-54810481D01*
X137731524Y-54842663D01*
X137708373Y-54870873D01*
X137680163Y-54894024D01*
X137647981Y-54911226D01*
X137613062Y-54921819D01*
X137570605Y-54926000D01*
X136429395Y-54926000D01*
X136386938Y-54921819D01*
X136352019Y-54911226D01*
X136319837Y-54894024D01*
X136291627Y-54870873D01*
X136268476Y-54842663D01*
X136251274Y-54810481D01*
X136240681Y-54775562D01*
X136236500Y-54733105D01*
X136236500Y-53266895D01*
X136240681Y-53224438D01*
X136251274Y-53189519D01*
X136268476Y-53157337D01*
X136291627Y-53129127D01*
X136319837Y-53105976D01*
X136352019Y-53088774D01*
X136386938Y-53078181D01*
X136429395Y-53074000D01*
X137570605Y-53074000D01*
X137613062Y-53078181D01*
G37*
G36*
X112775562Y-53265681D02*
G01*
X112810481Y-53276274D01*
X112842663Y-53293476D01*
X112870873Y-53316627D01*
X112894024Y-53344837D01*
X112911226Y-53377019D01*
X112921819Y-53411938D01*
X112926000Y-53454395D01*
X112926000Y-54595605D01*
X112921819Y-54638062D01*
X112911226Y-54672981D01*
X112894024Y-54705163D01*
X112870873Y-54733373D01*
X112842663Y-54756524D01*
X112810481Y-54773726D01*
X112775562Y-54784319D01*
X112733105Y-54788500D01*
X111266895Y-54788500D01*
X111224438Y-54784319D01*
X111189519Y-54773726D01*
X111157337Y-54756524D01*
X111129127Y-54733373D01*
X111105976Y-54705163D01*
X111088774Y-54672981D01*
X111078181Y-54638062D01*
X111074000Y-54595605D01*
X111074000Y-53454395D01*
X111078181Y-53411938D01*
X111088774Y-53377019D01*
X111105976Y-53344837D01*
X111129127Y-53316627D01*
X111157337Y-53293476D01*
X111189519Y-53276274D01*
X111224438Y-53265681D01*
X111266895Y-53261500D01*
X112733105Y-53261500D01*
X112775562Y-53265681D01*
G37*
M02*
