M48
; DRILL file {KiCad (5.1.5)-3} date 2020/02/29 2:49:32
; FORMAT={-:-/ absolute / metric / decimal}
; #@! TF.CreationDate,2020-02-29T02:49:32+09:00
; #@! TF.GenerationSoftware,Kicad,Pcbnew,(5.1.5)-3
; #@! TF.FileFunction,Plated,1,2,PTH
FMAT,2
METRIC
T1C1.100
T2C1.700
%
G90
G05
T1
X113.472Y-75.028
X113.5Y-66.5
X121.0Y-70.5
X126.0Y-82.0
X129.0Y-72.0
X136.637Y-70.5
X151.0Y-67.5
X156.0Y-72.5
X157.25Y-80.75
X164.5Y-62.0
X164.5Y-79.0
X124.38Y-57.5
X126.92Y-57.5
X129.46Y-57.5
X132.0Y-57.5
X145.5Y-85.42
X145.5Y-87.96
X145.5Y-90.5
X119.0Y-59.92
X119.0Y-62.46
X119.0Y-65.0
X151.0Y-75.92
X151.0Y-78.46
X151.0Y-81.0
T2
X109.0Y-62.0
X109.0Y-65.96
X109.0Y-69.92
X161.0Y-58.12
X161.0Y-62.08
X161.0Y-66.04
X161.0Y-70.0
X109.0Y-75.0
X109.0Y-78.96
X109.0Y-82.92
X161.0Y-75.12
X161.0Y-79.08
X161.0Y-83.04
X161.0Y-87.0
T0
M30
