M48
; DRILL file {KiCad (5.1.4)-1} date 2020/02/18 17:56:01
; FORMAT={-:-/ absolute / metric / decimal}
; #@! TF.CreationDate,2020-02-18T17:56:01+09:00
; #@! TF.GenerationSoftware,Kicad,Pcbnew,(5.1.4)-1
; #@! TF.FileFunction,Plated,1,2,PTH
FMAT,2
METRIC
T1C1.100
T2C1.700
%
G90
G05
T1
X113.0Y-63.0
X113.472Y-75.028
X121.0Y-74.5
X127.5Y-70.5
X127.5Y-73.5
X130.5Y-70.5
X130.5Y-73.5
X139.5Y-62.5
X139.5Y-65.5
X145.5Y-70.5
X153.5Y-62.0
X153.5Y-66.5
X155.5Y-65.5
X156.0Y-78.0
X157.5Y-81.5
X139.0Y-71.42
X139.0Y-73.96
X139.0Y-76.5
X124.38Y-57.5
X126.92Y-57.5
X129.46Y-57.5
X132.0Y-57.5
X145.5Y-85.42
X145.5Y-87.96
X145.5Y-90.5
X119.0Y-59.92
X119.0Y-62.46
X119.0Y-65.0
T2
X161.0Y-75.12
X161.0Y-79.08
X161.0Y-83.04
X161.0Y-87.0
X161.0Y-58.12
X161.0Y-62.08
X161.0Y-66.04
X161.0Y-70.0
X109.0Y-62.0
X109.0Y-65.96
X109.0Y-69.92
X109.0Y-75.0
X109.0Y-78.96
X109.0Y-82.92
T0
M30
