G04 #@! TF.GenerationSoftware,KiCad,Pcbnew,(5.1.5)-3*
G04 #@! TF.CreationDate,2020-02-29T02:49:16+09:00*
G04 #@! TF.ProjectId,QX20CTRLV2,51583230-4354-4524-9c56-322e6b696361,rev?*
G04 #@! TF.SameCoordinates,Original*
G04 #@! TF.FileFunction,Copper,L2,Bot*
G04 #@! TF.FilePolarity,Positive*
%FSLAX46Y46*%
G04 Gerber Fmt 4.6, Leading zero omitted, Abs format (unit mm)*
G04 Created by KiCad (PCBNEW (5.1.5)-3) date 2020-02-29 02:49:16*
%MOMM*%
%LPD*%
G04 APERTURE LIST*
%ADD10C,0.250000*%
%ADD11R,1.000000X1.000000*%
%ADD12C,2.700000*%
%ADD13O,1.700000X1.700000*%
%ADD14R,1.700000X1.700000*%
%ADD15R,2.000000X1.905000*%
%ADD16O,2.000000X1.905000*%
%ADD17C,1.400000*%
%ADD18C,1.000000*%
%ADD19C,3.000000*%
%ADD20C,0.800000*%
G04 APERTURE END LIST*
G04 #@! TA.AperFunction,SMDPad,CuDef*
D10*
G36*
X140149504Y-86801204D02*
G01*
X140173773Y-86804804D01*
X140197571Y-86810765D01*
X140220671Y-86819030D01*
X140242849Y-86829520D01*
X140263893Y-86842133D01*
X140283598Y-86856747D01*
X140301777Y-86873223D01*
X140318253Y-86891402D01*
X140332867Y-86911107D01*
X140345480Y-86932151D01*
X140355970Y-86954329D01*
X140364235Y-86977429D01*
X140370196Y-87001227D01*
X140373796Y-87025496D01*
X140375000Y-87050000D01*
X140375000Y-87975000D01*
X140373796Y-87999504D01*
X140370196Y-88023773D01*
X140364235Y-88047571D01*
X140355970Y-88070671D01*
X140345480Y-88092849D01*
X140332867Y-88113893D01*
X140318253Y-88133598D01*
X140301777Y-88151777D01*
X140283598Y-88168253D01*
X140263893Y-88182867D01*
X140242849Y-88195480D01*
X140220671Y-88205970D01*
X140197571Y-88214235D01*
X140173773Y-88220196D01*
X140149504Y-88223796D01*
X140125000Y-88225000D01*
X138875000Y-88225000D01*
X138850496Y-88223796D01*
X138826227Y-88220196D01*
X138802429Y-88214235D01*
X138779329Y-88205970D01*
X138757151Y-88195480D01*
X138736107Y-88182867D01*
X138716402Y-88168253D01*
X138698223Y-88151777D01*
X138681747Y-88133598D01*
X138667133Y-88113893D01*
X138654520Y-88092849D01*
X138644030Y-88070671D01*
X138635765Y-88047571D01*
X138629804Y-88023773D01*
X138626204Y-87999504D01*
X138625000Y-87975000D01*
X138625000Y-87050000D01*
X138626204Y-87025496D01*
X138629804Y-87001227D01*
X138635765Y-86977429D01*
X138644030Y-86954329D01*
X138654520Y-86932151D01*
X138667133Y-86911107D01*
X138681747Y-86891402D01*
X138698223Y-86873223D01*
X138716402Y-86856747D01*
X138736107Y-86842133D01*
X138757151Y-86829520D01*
X138779329Y-86819030D01*
X138802429Y-86810765D01*
X138826227Y-86804804D01*
X138850496Y-86801204D01*
X138875000Y-86800000D01*
X140125000Y-86800000D01*
X140149504Y-86801204D01*
G37*
G04 #@! TD.AperFunction*
G04 #@! TA.AperFunction,SMDPad,CuDef*
G36*
X140149504Y-89776204D02*
G01*
X140173773Y-89779804D01*
X140197571Y-89785765D01*
X140220671Y-89794030D01*
X140242849Y-89804520D01*
X140263893Y-89817133D01*
X140283598Y-89831747D01*
X140301777Y-89848223D01*
X140318253Y-89866402D01*
X140332867Y-89886107D01*
X140345480Y-89907151D01*
X140355970Y-89929329D01*
X140364235Y-89952429D01*
X140370196Y-89976227D01*
X140373796Y-90000496D01*
X140375000Y-90025000D01*
X140375000Y-90950000D01*
X140373796Y-90974504D01*
X140370196Y-90998773D01*
X140364235Y-91022571D01*
X140355970Y-91045671D01*
X140345480Y-91067849D01*
X140332867Y-91088893D01*
X140318253Y-91108598D01*
X140301777Y-91126777D01*
X140283598Y-91143253D01*
X140263893Y-91157867D01*
X140242849Y-91170480D01*
X140220671Y-91180970D01*
X140197571Y-91189235D01*
X140173773Y-91195196D01*
X140149504Y-91198796D01*
X140125000Y-91200000D01*
X138875000Y-91200000D01*
X138850496Y-91198796D01*
X138826227Y-91195196D01*
X138802429Y-91189235D01*
X138779329Y-91180970D01*
X138757151Y-91170480D01*
X138736107Y-91157867D01*
X138716402Y-91143253D01*
X138698223Y-91126777D01*
X138681747Y-91108598D01*
X138667133Y-91088893D01*
X138654520Y-91067849D01*
X138644030Y-91045671D01*
X138635765Y-91022571D01*
X138629804Y-90998773D01*
X138626204Y-90974504D01*
X138625000Y-90950000D01*
X138625000Y-90025000D01*
X138626204Y-90000496D01*
X138629804Y-89976227D01*
X138635765Y-89952429D01*
X138644030Y-89929329D01*
X138654520Y-89907151D01*
X138667133Y-89886107D01*
X138681747Y-89866402D01*
X138698223Y-89848223D01*
X138716402Y-89831747D01*
X138736107Y-89817133D01*
X138757151Y-89804520D01*
X138779329Y-89794030D01*
X138802429Y-89785765D01*
X138826227Y-89779804D01*
X138850496Y-89776204D01*
X138875000Y-89775000D01*
X140125000Y-89775000D01*
X140149504Y-89776204D01*
G37*
G04 #@! TD.AperFunction*
G04 #@! TA.AperFunction,SMDPad,CuDef*
G36*
X143474504Y-69626204D02*
G01*
X143498773Y-69629804D01*
X143522571Y-69635765D01*
X143545671Y-69644030D01*
X143567849Y-69654520D01*
X143588893Y-69667133D01*
X143608598Y-69681747D01*
X143626777Y-69698223D01*
X143643253Y-69716402D01*
X143657867Y-69736107D01*
X143670480Y-69757151D01*
X143680970Y-69779329D01*
X143689235Y-69802429D01*
X143695196Y-69826227D01*
X143698796Y-69850496D01*
X143700000Y-69875000D01*
X143700000Y-71125000D01*
X143698796Y-71149504D01*
X143695196Y-71173773D01*
X143689235Y-71197571D01*
X143680970Y-71220671D01*
X143670480Y-71242849D01*
X143657867Y-71263893D01*
X143643253Y-71283598D01*
X143626777Y-71301777D01*
X143608598Y-71318253D01*
X143588893Y-71332867D01*
X143567849Y-71345480D01*
X143545671Y-71355970D01*
X143522571Y-71364235D01*
X143498773Y-71370196D01*
X143474504Y-71373796D01*
X143450000Y-71375000D01*
X142525000Y-71375000D01*
X142500496Y-71373796D01*
X142476227Y-71370196D01*
X142452429Y-71364235D01*
X142429329Y-71355970D01*
X142407151Y-71345480D01*
X142386107Y-71332867D01*
X142366402Y-71318253D01*
X142348223Y-71301777D01*
X142331747Y-71283598D01*
X142317133Y-71263893D01*
X142304520Y-71242849D01*
X142294030Y-71220671D01*
X142285765Y-71197571D01*
X142279804Y-71173773D01*
X142276204Y-71149504D01*
X142275000Y-71125000D01*
X142275000Y-69875000D01*
X142276204Y-69850496D01*
X142279804Y-69826227D01*
X142285765Y-69802429D01*
X142294030Y-69779329D01*
X142304520Y-69757151D01*
X142317133Y-69736107D01*
X142331747Y-69716402D01*
X142348223Y-69698223D01*
X142366402Y-69681747D01*
X142386107Y-69667133D01*
X142407151Y-69654520D01*
X142429329Y-69644030D01*
X142452429Y-69635765D01*
X142476227Y-69629804D01*
X142500496Y-69626204D01*
X142525000Y-69625000D01*
X143450000Y-69625000D01*
X143474504Y-69626204D01*
G37*
G04 #@! TD.AperFunction*
G04 #@! TA.AperFunction,SMDPad,CuDef*
G36*
X140499504Y-69626204D02*
G01*
X140523773Y-69629804D01*
X140547571Y-69635765D01*
X140570671Y-69644030D01*
X140592849Y-69654520D01*
X140613893Y-69667133D01*
X140633598Y-69681747D01*
X140651777Y-69698223D01*
X140668253Y-69716402D01*
X140682867Y-69736107D01*
X140695480Y-69757151D01*
X140705970Y-69779329D01*
X140714235Y-69802429D01*
X140720196Y-69826227D01*
X140723796Y-69850496D01*
X140725000Y-69875000D01*
X140725000Y-71125000D01*
X140723796Y-71149504D01*
X140720196Y-71173773D01*
X140714235Y-71197571D01*
X140705970Y-71220671D01*
X140695480Y-71242849D01*
X140682867Y-71263893D01*
X140668253Y-71283598D01*
X140651777Y-71301777D01*
X140633598Y-71318253D01*
X140613893Y-71332867D01*
X140592849Y-71345480D01*
X140570671Y-71355970D01*
X140547571Y-71364235D01*
X140523773Y-71370196D01*
X140499504Y-71373796D01*
X140475000Y-71375000D01*
X139550000Y-71375000D01*
X139525496Y-71373796D01*
X139501227Y-71370196D01*
X139477429Y-71364235D01*
X139454329Y-71355970D01*
X139432151Y-71345480D01*
X139411107Y-71332867D01*
X139391402Y-71318253D01*
X139373223Y-71301777D01*
X139356747Y-71283598D01*
X139342133Y-71263893D01*
X139329520Y-71242849D01*
X139319030Y-71220671D01*
X139310765Y-71197571D01*
X139304804Y-71173773D01*
X139301204Y-71149504D01*
X139300000Y-71125000D01*
X139300000Y-69875000D01*
X139301204Y-69850496D01*
X139304804Y-69826227D01*
X139310765Y-69802429D01*
X139319030Y-69779329D01*
X139329520Y-69757151D01*
X139342133Y-69736107D01*
X139356747Y-69716402D01*
X139373223Y-69698223D01*
X139391402Y-69681747D01*
X139411107Y-69667133D01*
X139432151Y-69654520D01*
X139454329Y-69644030D01*
X139477429Y-69635765D01*
X139501227Y-69629804D01*
X139525496Y-69626204D01*
X139550000Y-69625000D01*
X140475000Y-69625000D01*
X140499504Y-69626204D01*
G37*
G04 #@! TD.AperFunction*
G04 #@! TA.AperFunction,SMDPad,CuDef*
G36*
X150512004Y-85126204D02*
G01*
X150536273Y-85129804D01*
X150560071Y-85135765D01*
X150583171Y-85144030D01*
X150605349Y-85154520D01*
X150626393Y-85167133D01*
X150646098Y-85181747D01*
X150664277Y-85198223D01*
X150680753Y-85216402D01*
X150695367Y-85236107D01*
X150707980Y-85257151D01*
X150718470Y-85279329D01*
X150726735Y-85302429D01*
X150732696Y-85326227D01*
X150736296Y-85350496D01*
X150737500Y-85375000D01*
X150737500Y-86625000D01*
X150736296Y-86649504D01*
X150732696Y-86673773D01*
X150726735Y-86697571D01*
X150718470Y-86720671D01*
X150707980Y-86742849D01*
X150695367Y-86763893D01*
X150680753Y-86783598D01*
X150664277Y-86801777D01*
X150646098Y-86818253D01*
X150626393Y-86832867D01*
X150605349Y-86845480D01*
X150583171Y-86855970D01*
X150560071Y-86864235D01*
X150536273Y-86870196D01*
X150512004Y-86873796D01*
X150487500Y-86875000D01*
X149562500Y-86875000D01*
X149537996Y-86873796D01*
X149513727Y-86870196D01*
X149489929Y-86864235D01*
X149466829Y-86855970D01*
X149444651Y-86845480D01*
X149423607Y-86832867D01*
X149403902Y-86818253D01*
X149385723Y-86801777D01*
X149369247Y-86783598D01*
X149354633Y-86763893D01*
X149342020Y-86742849D01*
X149331530Y-86720671D01*
X149323265Y-86697571D01*
X149317304Y-86673773D01*
X149313704Y-86649504D01*
X149312500Y-86625000D01*
X149312500Y-85375000D01*
X149313704Y-85350496D01*
X149317304Y-85326227D01*
X149323265Y-85302429D01*
X149331530Y-85279329D01*
X149342020Y-85257151D01*
X149354633Y-85236107D01*
X149369247Y-85216402D01*
X149385723Y-85198223D01*
X149403902Y-85181747D01*
X149423607Y-85167133D01*
X149444651Y-85154520D01*
X149466829Y-85144030D01*
X149489929Y-85135765D01*
X149513727Y-85129804D01*
X149537996Y-85126204D01*
X149562500Y-85125000D01*
X150487500Y-85125000D01*
X150512004Y-85126204D01*
G37*
G04 #@! TD.AperFunction*
G04 #@! TA.AperFunction,SMDPad,CuDef*
G36*
X153487004Y-85126204D02*
G01*
X153511273Y-85129804D01*
X153535071Y-85135765D01*
X153558171Y-85144030D01*
X153580349Y-85154520D01*
X153601393Y-85167133D01*
X153621098Y-85181747D01*
X153639277Y-85198223D01*
X153655753Y-85216402D01*
X153670367Y-85236107D01*
X153682980Y-85257151D01*
X153693470Y-85279329D01*
X153701735Y-85302429D01*
X153707696Y-85326227D01*
X153711296Y-85350496D01*
X153712500Y-85375000D01*
X153712500Y-86625000D01*
X153711296Y-86649504D01*
X153707696Y-86673773D01*
X153701735Y-86697571D01*
X153693470Y-86720671D01*
X153682980Y-86742849D01*
X153670367Y-86763893D01*
X153655753Y-86783598D01*
X153639277Y-86801777D01*
X153621098Y-86818253D01*
X153601393Y-86832867D01*
X153580349Y-86845480D01*
X153558171Y-86855970D01*
X153535071Y-86864235D01*
X153511273Y-86870196D01*
X153487004Y-86873796D01*
X153462500Y-86875000D01*
X152537500Y-86875000D01*
X152512996Y-86873796D01*
X152488727Y-86870196D01*
X152464929Y-86864235D01*
X152441829Y-86855970D01*
X152419651Y-86845480D01*
X152398607Y-86832867D01*
X152378902Y-86818253D01*
X152360723Y-86801777D01*
X152344247Y-86783598D01*
X152329633Y-86763893D01*
X152317020Y-86742849D01*
X152306530Y-86720671D01*
X152298265Y-86697571D01*
X152292304Y-86673773D01*
X152288704Y-86649504D01*
X152287500Y-86625000D01*
X152287500Y-85375000D01*
X152288704Y-85350496D01*
X152292304Y-85326227D01*
X152298265Y-85302429D01*
X152306530Y-85279329D01*
X152317020Y-85257151D01*
X152329633Y-85236107D01*
X152344247Y-85216402D01*
X152360723Y-85198223D01*
X152378902Y-85181747D01*
X152398607Y-85167133D01*
X152419651Y-85154520D01*
X152441829Y-85144030D01*
X152464929Y-85135765D01*
X152488727Y-85129804D01*
X152512996Y-85126204D01*
X152537500Y-85125000D01*
X153462500Y-85125000D01*
X153487004Y-85126204D01*
G37*
G04 #@! TD.AperFunction*
D11*
X135000000Y-90500000D03*
X135000000Y-88000000D03*
D12*
X161000000Y-58120000D03*
X161000000Y-62080000D03*
X161000000Y-66040000D03*
G04 #@! TA.AperFunction,ComponentPad*
D10*
G36*
X162123512Y-68651209D02*
G01*
X162147887Y-68654825D01*
X162171790Y-68660812D01*
X162194992Y-68669114D01*
X162217268Y-68679650D01*
X162238404Y-68692318D01*
X162258196Y-68706997D01*
X162276455Y-68723545D01*
X162293003Y-68741804D01*
X162307682Y-68761596D01*
X162320350Y-68782732D01*
X162330886Y-68805008D01*
X162339188Y-68828210D01*
X162345175Y-68852113D01*
X162348791Y-68876488D01*
X162350000Y-68901100D01*
X162350000Y-71098900D01*
X162348791Y-71123512D01*
X162345175Y-71147887D01*
X162339188Y-71171790D01*
X162330886Y-71194992D01*
X162320350Y-71217268D01*
X162307682Y-71238404D01*
X162293003Y-71258196D01*
X162276455Y-71276455D01*
X162258196Y-71293003D01*
X162238404Y-71307682D01*
X162217268Y-71320350D01*
X162194992Y-71330886D01*
X162171790Y-71339188D01*
X162147887Y-71345175D01*
X162123512Y-71348791D01*
X162098900Y-71350000D01*
X159901100Y-71350000D01*
X159876488Y-71348791D01*
X159852113Y-71345175D01*
X159828210Y-71339188D01*
X159805008Y-71330886D01*
X159782732Y-71320350D01*
X159761596Y-71307682D01*
X159741804Y-71293003D01*
X159723545Y-71276455D01*
X159706997Y-71258196D01*
X159692318Y-71238404D01*
X159679650Y-71217268D01*
X159669114Y-71194992D01*
X159660812Y-71171790D01*
X159654825Y-71147887D01*
X159651209Y-71123512D01*
X159650000Y-71098900D01*
X159650000Y-68901100D01*
X159651209Y-68876488D01*
X159654825Y-68852113D01*
X159660812Y-68828210D01*
X159669114Y-68805008D01*
X159679650Y-68782732D01*
X159692318Y-68761596D01*
X159706997Y-68741804D01*
X159723545Y-68723545D01*
X159741804Y-68706997D01*
X159761596Y-68692318D01*
X159782732Y-68679650D01*
X159805008Y-68669114D01*
X159828210Y-68660812D01*
X159852113Y-68654825D01*
X159876488Y-68651209D01*
X159901100Y-68650000D01*
X162098900Y-68650000D01*
X162123512Y-68651209D01*
G37*
G04 #@! TD.AperFunction*
D12*
X161000000Y-75120000D03*
X161000000Y-79080000D03*
X161000000Y-83040000D03*
G04 #@! TA.AperFunction,ComponentPad*
D10*
G36*
X162123512Y-85651209D02*
G01*
X162147887Y-85654825D01*
X162171790Y-85660812D01*
X162194992Y-85669114D01*
X162217268Y-85679650D01*
X162238404Y-85692318D01*
X162258196Y-85706997D01*
X162276455Y-85723545D01*
X162293003Y-85741804D01*
X162307682Y-85761596D01*
X162320350Y-85782732D01*
X162330886Y-85805008D01*
X162339188Y-85828210D01*
X162345175Y-85852113D01*
X162348791Y-85876488D01*
X162350000Y-85901100D01*
X162350000Y-88098900D01*
X162348791Y-88123512D01*
X162345175Y-88147887D01*
X162339188Y-88171790D01*
X162330886Y-88194992D01*
X162320350Y-88217268D01*
X162307682Y-88238404D01*
X162293003Y-88258196D01*
X162276455Y-88276455D01*
X162258196Y-88293003D01*
X162238404Y-88307682D01*
X162217268Y-88320350D01*
X162194992Y-88330886D01*
X162171790Y-88339188D01*
X162147887Y-88345175D01*
X162123512Y-88348791D01*
X162098900Y-88350000D01*
X159901100Y-88350000D01*
X159876488Y-88348791D01*
X159852113Y-88345175D01*
X159828210Y-88339188D01*
X159805008Y-88330886D01*
X159782732Y-88320350D01*
X159761596Y-88307682D01*
X159741804Y-88293003D01*
X159723545Y-88276455D01*
X159706997Y-88258196D01*
X159692318Y-88238404D01*
X159679650Y-88217268D01*
X159669114Y-88194992D01*
X159660812Y-88171790D01*
X159654825Y-88147887D01*
X159651209Y-88123512D01*
X159650000Y-88098900D01*
X159650000Y-85901100D01*
X159651209Y-85876488D01*
X159654825Y-85852113D01*
X159660812Y-85828210D01*
X159669114Y-85805008D01*
X159679650Y-85782732D01*
X159692318Y-85761596D01*
X159706997Y-85741804D01*
X159723545Y-85723545D01*
X159741804Y-85706997D01*
X159761596Y-85692318D01*
X159782732Y-85679650D01*
X159805008Y-85669114D01*
X159828210Y-85660812D01*
X159852113Y-85654825D01*
X159876488Y-85651209D01*
X159901100Y-85650000D01*
X162098900Y-85650000D01*
X162123512Y-85651209D01*
G37*
G04 #@! TD.AperFunction*
D12*
X109000000Y-69920000D03*
X109000000Y-65960000D03*
X109000000Y-62000000D03*
X109000000Y-75000000D03*
X109000000Y-78960000D03*
X109000000Y-82920000D03*
D13*
X151000000Y-75920000D03*
X151000000Y-78460000D03*
D14*
X151000000Y-81000000D03*
X132000000Y-57500000D03*
D13*
X129460000Y-57500000D03*
X126920000Y-57500000D03*
X124380000Y-57500000D03*
G04 #@! TA.AperFunction,SMDPad,CuDef*
D10*
G36*
X156649504Y-62038704D02*
G01*
X156673773Y-62042304D01*
X156697571Y-62048265D01*
X156720671Y-62056530D01*
X156742849Y-62067020D01*
X156763893Y-62079633D01*
X156783598Y-62094247D01*
X156801777Y-62110723D01*
X156818253Y-62128902D01*
X156832867Y-62148607D01*
X156845480Y-62169651D01*
X156855970Y-62191829D01*
X156864235Y-62214929D01*
X156870196Y-62238727D01*
X156873796Y-62262996D01*
X156875000Y-62287500D01*
X156875000Y-63212500D01*
X156873796Y-63237004D01*
X156870196Y-63261273D01*
X156864235Y-63285071D01*
X156855970Y-63308171D01*
X156845480Y-63330349D01*
X156832867Y-63351393D01*
X156818253Y-63371098D01*
X156801777Y-63389277D01*
X156783598Y-63405753D01*
X156763893Y-63420367D01*
X156742849Y-63432980D01*
X156720671Y-63443470D01*
X156697571Y-63451735D01*
X156673773Y-63457696D01*
X156649504Y-63461296D01*
X156625000Y-63462500D01*
X155375000Y-63462500D01*
X155350496Y-63461296D01*
X155326227Y-63457696D01*
X155302429Y-63451735D01*
X155279329Y-63443470D01*
X155257151Y-63432980D01*
X155236107Y-63420367D01*
X155216402Y-63405753D01*
X155198223Y-63389277D01*
X155181747Y-63371098D01*
X155167133Y-63351393D01*
X155154520Y-63330349D01*
X155144030Y-63308171D01*
X155135765Y-63285071D01*
X155129804Y-63261273D01*
X155126204Y-63237004D01*
X155125000Y-63212500D01*
X155125000Y-62287500D01*
X155126204Y-62262996D01*
X155129804Y-62238727D01*
X155135765Y-62214929D01*
X155144030Y-62191829D01*
X155154520Y-62169651D01*
X155167133Y-62148607D01*
X155181747Y-62128902D01*
X155198223Y-62110723D01*
X155216402Y-62094247D01*
X155236107Y-62079633D01*
X155257151Y-62067020D01*
X155279329Y-62056530D01*
X155302429Y-62048265D01*
X155326227Y-62042304D01*
X155350496Y-62038704D01*
X155375000Y-62037500D01*
X156625000Y-62037500D01*
X156649504Y-62038704D01*
G37*
G04 #@! TD.AperFunction*
G04 #@! TA.AperFunction,SMDPad,CuDef*
G36*
X156649504Y-65013704D02*
G01*
X156673773Y-65017304D01*
X156697571Y-65023265D01*
X156720671Y-65031530D01*
X156742849Y-65042020D01*
X156763893Y-65054633D01*
X156783598Y-65069247D01*
X156801777Y-65085723D01*
X156818253Y-65103902D01*
X156832867Y-65123607D01*
X156845480Y-65144651D01*
X156855970Y-65166829D01*
X156864235Y-65189929D01*
X156870196Y-65213727D01*
X156873796Y-65237996D01*
X156875000Y-65262500D01*
X156875000Y-66187500D01*
X156873796Y-66212004D01*
X156870196Y-66236273D01*
X156864235Y-66260071D01*
X156855970Y-66283171D01*
X156845480Y-66305349D01*
X156832867Y-66326393D01*
X156818253Y-66346098D01*
X156801777Y-66364277D01*
X156783598Y-66380753D01*
X156763893Y-66395367D01*
X156742849Y-66407980D01*
X156720671Y-66418470D01*
X156697571Y-66426735D01*
X156673773Y-66432696D01*
X156649504Y-66436296D01*
X156625000Y-66437500D01*
X155375000Y-66437500D01*
X155350496Y-66436296D01*
X155326227Y-66432696D01*
X155302429Y-66426735D01*
X155279329Y-66418470D01*
X155257151Y-66407980D01*
X155236107Y-66395367D01*
X155216402Y-66380753D01*
X155198223Y-66364277D01*
X155181747Y-66346098D01*
X155167133Y-66326393D01*
X155154520Y-66305349D01*
X155144030Y-66283171D01*
X155135765Y-66260071D01*
X155129804Y-66236273D01*
X155126204Y-66212004D01*
X155125000Y-66187500D01*
X155125000Y-65262500D01*
X155126204Y-65237996D01*
X155129804Y-65213727D01*
X155135765Y-65189929D01*
X155144030Y-65166829D01*
X155154520Y-65144651D01*
X155167133Y-65123607D01*
X155181747Y-65103902D01*
X155198223Y-65085723D01*
X155216402Y-65069247D01*
X155236107Y-65054633D01*
X155257151Y-65042020D01*
X155279329Y-65031530D01*
X155302429Y-65023265D01*
X155326227Y-65017304D01*
X155350496Y-65013704D01*
X155375000Y-65012500D01*
X156625000Y-65012500D01*
X156649504Y-65013704D01*
G37*
G04 #@! TD.AperFunction*
D14*
X119000000Y-65000000D03*
D13*
X119000000Y-62460000D03*
X119000000Y-59920000D03*
D15*
X145500000Y-90500000D03*
D16*
X145500000Y-87960000D03*
X145500000Y-85420000D03*
D17*
X129000000Y-72000000D03*
X126000000Y-82000000D03*
X121000000Y-70500000D03*
X136636801Y-70500000D03*
X164500000Y-79000000D03*
X164500000Y-62000000D03*
X151000000Y-67500000D03*
X156000000Y-72500000D03*
X157250000Y-80750000D03*
X113500000Y-66500000D03*
X113472175Y-75027825D03*
D18*
X119080000Y-60000000D02*
X119000000Y-59920000D01*
X119000000Y-59920000D02*
X121960000Y-59920000D01*
X125420000Y-59920000D02*
X124380000Y-58880000D01*
X125420000Y-59920000D02*
X133920000Y-59920000D01*
X124380000Y-58880000D02*
X124380000Y-57500000D01*
X124080000Y-59920000D02*
X124080000Y-60420000D01*
X124080000Y-59920000D02*
X125420000Y-59920000D01*
X121960000Y-59920000D02*
X124080000Y-59920000D01*
X124080000Y-60420000D02*
X121000000Y-63500000D01*
X121000000Y-63500000D02*
X121000000Y-70500000D01*
X145920000Y-85000000D02*
X145500000Y-85420000D01*
X140012500Y-66012500D02*
X140012500Y-71000000D01*
X133920000Y-59920000D02*
X140012500Y-66012500D01*
X140012500Y-81932500D02*
X140012500Y-71875000D01*
X143500000Y-85420000D02*
X140012500Y-81932500D01*
X140012500Y-71375000D02*
X140012500Y-70500000D01*
X145500000Y-85420000D02*
X143500000Y-85420000D01*
X139762500Y-71500000D02*
X140012500Y-71250000D01*
X136767588Y-70500000D02*
X140012500Y-70500000D01*
X136636801Y-70500000D02*
X136767588Y-70500000D01*
X149445000Y-85420000D02*
X150025000Y-86000000D01*
X145500000Y-85420000D02*
X149445000Y-85420000D01*
D19*
X161000000Y-70000000D02*
X163500000Y-70000000D01*
D18*
X161000000Y-79080000D02*
X164420000Y-79080000D01*
X164420000Y-79080000D02*
X164500000Y-79000000D01*
X161080000Y-62000000D02*
X161000000Y-62080000D01*
X164500000Y-62000000D02*
X161080000Y-62000000D01*
X160330000Y-62750000D02*
X161000000Y-62080000D01*
X156000000Y-62750000D02*
X160330000Y-62750000D01*
X155750000Y-62750000D02*
X151000000Y-67500000D01*
X156000000Y-62750000D02*
X155750000Y-62750000D01*
X160960000Y-66000000D02*
X161000000Y-66040000D01*
X160685000Y-65725000D02*
X161000000Y-66040000D01*
X156000000Y-65725000D02*
X160685000Y-65725000D01*
X156000000Y-65725000D02*
X156000000Y-72500000D01*
X159540000Y-83040000D02*
X157250000Y-80750000D01*
X161000000Y-83040000D02*
X159540000Y-83040000D01*
X113500000Y-66500000D02*
X113500000Y-63000000D01*
X112500000Y-62000000D02*
X109000000Y-62000000D01*
X113500000Y-63000000D02*
X112500000Y-62000000D01*
X113444350Y-75000000D02*
X113472175Y-75027825D01*
X109000000Y-75000000D02*
X113444350Y-75000000D01*
D20*
G36*
X162100000Y-56665686D02*
G01*
X162100000Y-60229214D01*
X162018407Y-60174695D01*
X161627132Y-60012623D01*
X161211757Y-59930000D01*
X160788243Y-59930000D01*
X160372868Y-60012623D01*
X159981593Y-60174695D01*
X159629455Y-60409986D01*
X159329986Y-60709455D01*
X159094695Y-61061593D01*
X158933811Y-61450000D01*
X157257730Y-61450000D01*
X157210499Y-61411239D01*
X157028299Y-61313851D01*
X156830600Y-61253880D01*
X156625000Y-61233630D01*
X155375000Y-61233630D01*
X155169400Y-61253880D01*
X154971701Y-61313851D01*
X154789501Y-61411239D01*
X154629801Y-61542301D01*
X154498739Y-61702001D01*
X154401351Y-61884201D01*
X154341380Y-62081900D01*
X154321130Y-62287500D01*
X154321130Y-62340392D01*
X150614162Y-66047361D01*
X150562466Y-66057644D01*
X150289483Y-66170717D01*
X150043806Y-66334874D01*
X149834874Y-66543806D01*
X149670717Y-66789483D01*
X149557644Y-67062466D01*
X149500000Y-67352263D01*
X149500000Y-67647737D01*
X149557644Y-67937534D01*
X149670717Y-68210517D01*
X149834874Y-68456194D01*
X150043806Y-68665126D01*
X150289483Y-68829283D01*
X150562466Y-68942356D01*
X150852263Y-69000000D01*
X151147737Y-69000000D01*
X151437534Y-68942356D01*
X151710517Y-68829283D01*
X151956194Y-68665126D01*
X152165126Y-68456194D01*
X152329283Y-68210517D01*
X152442356Y-67937534D01*
X152452639Y-67885838D01*
X154321130Y-66017348D01*
X154321130Y-66187500D01*
X154341380Y-66393100D01*
X154401351Y-66590799D01*
X154498739Y-66772999D01*
X154629801Y-66932699D01*
X154700000Y-66990310D01*
X154700001Y-71745657D01*
X154670717Y-71789483D01*
X154557644Y-72062466D01*
X154500000Y-72352263D01*
X154500000Y-72647737D01*
X154557644Y-72937534D01*
X154670717Y-73210517D01*
X154834874Y-73456194D01*
X155043806Y-73665126D01*
X155289483Y-73829283D01*
X155562466Y-73942356D01*
X155852263Y-74000000D01*
X156147737Y-74000000D01*
X156437534Y-73942356D01*
X156710517Y-73829283D01*
X156956194Y-73665126D01*
X157165126Y-73456194D01*
X157329283Y-73210517D01*
X157442356Y-72937534D01*
X157500000Y-72647737D01*
X157500000Y-72352263D01*
X157442356Y-72062466D01*
X157329283Y-71789483D01*
X157300000Y-71745658D01*
X157300000Y-67025000D01*
X159080857Y-67025000D01*
X159094695Y-67058407D01*
X159329986Y-67410545D01*
X159629455Y-67710014D01*
X159841894Y-67851961D01*
X159695286Y-67866401D01*
X159497380Y-67926435D01*
X159314990Y-68023925D01*
X159155124Y-68155124D01*
X159023925Y-68314990D01*
X158926435Y-68497380D01*
X158866401Y-68695286D01*
X158846130Y-68901100D01*
X158846130Y-69177104D01*
X158733280Y-69549121D01*
X158688872Y-70000000D01*
X158733280Y-70450879D01*
X158846130Y-70822896D01*
X158846130Y-71098900D01*
X158866401Y-71304714D01*
X158926435Y-71502620D01*
X159023925Y-71685010D01*
X159155124Y-71844876D01*
X159314990Y-71976075D01*
X159497380Y-72073565D01*
X159695286Y-72133599D01*
X159901100Y-72153870D01*
X160177104Y-72153870D01*
X160549121Y-72266720D01*
X160887016Y-72300000D01*
X162100000Y-72300000D01*
X162100000Y-77229214D01*
X162018407Y-77174695D01*
X161627132Y-77012623D01*
X161211757Y-76930000D01*
X160788243Y-76930000D01*
X160372868Y-77012623D01*
X159981593Y-77174695D01*
X159629455Y-77409986D01*
X159329986Y-77709455D01*
X159094695Y-78061593D01*
X158932623Y-78452868D01*
X158850000Y-78868243D01*
X158850000Y-79291757D01*
X158932623Y-79707132D01*
X159094695Y-80098407D01*
X159329986Y-80450545D01*
X159629455Y-80750014D01*
X159981593Y-80985305D01*
X160161922Y-81060000D01*
X159981593Y-81134695D01*
X159676817Y-81338340D01*
X158702639Y-80364162D01*
X158692356Y-80312466D01*
X158579283Y-80039483D01*
X158415126Y-79793806D01*
X158206194Y-79584874D01*
X157960517Y-79420717D01*
X157687534Y-79307644D01*
X157397737Y-79250000D01*
X157102263Y-79250000D01*
X156812466Y-79307644D01*
X156539483Y-79420717D01*
X156293806Y-79584874D01*
X156084874Y-79793806D01*
X155920717Y-80039483D01*
X155807644Y-80312466D01*
X155750000Y-80602263D01*
X155750000Y-80897737D01*
X155807644Y-81187534D01*
X155920717Y-81460517D01*
X156084874Y-81706194D01*
X156293806Y-81915126D01*
X156539483Y-82079283D01*
X156812466Y-82192356D01*
X156864162Y-82202639D01*
X158575601Y-83914079D01*
X158616313Y-83963687D01*
X158814264Y-84126140D01*
X159040104Y-84246855D01*
X159099973Y-84265016D01*
X154107215Y-88350000D01*
X113399589Y-88350000D01*
X107900000Y-83567748D01*
X107900000Y-82214073D01*
X109766861Y-80969499D01*
X110018407Y-80865305D01*
X110370545Y-80630014D01*
X110559457Y-80441102D01*
X110721880Y-80332820D01*
X110782547Y-80283138D01*
X110832355Y-80222576D01*
X110869391Y-80153460D01*
X110892232Y-80078446D01*
X110900000Y-80000000D01*
X110900000Y-79986346D01*
X110905305Y-79978407D01*
X111067377Y-79587132D01*
X111150000Y-79171757D01*
X111150000Y-78748243D01*
X111067377Y-78332868D01*
X110905305Y-77941593D01*
X110892336Y-77922183D01*
X110892314Y-77921964D01*
X110869552Y-77846927D01*
X110832588Y-77777772D01*
X110782843Y-77717157D01*
X110743884Y-77682950D01*
X110720431Y-77664909D01*
X110670014Y-77589455D01*
X110370545Y-77289986D01*
X110018407Y-77054695D01*
X109838078Y-76980000D01*
X110018407Y-76905305D01*
X110370545Y-76670014D01*
X110670014Y-76370545D01*
X110717151Y-76300000D01*
X112676190Y-76300000D01*
X112761658Y-76357108D01*
X113034641Y-76470181D01*
X113324438Y-76527825D01*
X113619912Y-76527825D01*
X113909709Y-76470181D01*
X114182692Y-76357108D01*
X114428369Y-76192951D01*
X114637301Y-75984019D01*
X114801458Y-75738342D01*
X114914531Y-75465359D01*
X114972175Y-75175562D01*
X114972175Y-74880088D01*
X114914531Y-74590291D01*
X114801458Y-74317308D01*
X114637301Y-74071631D01*
X114428369Y-73862699D01*
X114182692Y-73698542D01*
X113909709Y-73585469D01*
X113619912Y-73527825D01*
X113324438Y-73527825D01*
X113034641Y-73585469D01*
X112761658Y-73698542D01*
X112759476Y-73700000D01*
X110717151Y-73700000D01*
X110670014Y-73629455D01*
X110370545Y-73329986D01*
X110018407Y-73094695D01*
X109627132Y-72932623D01*
X109211757Y-72850000D01*
X108788243Y-72850000D01*
X108372868Y-72932623D01*
X107981593Y-73094695D01*
X107650000Y-73316258D01*
X107650000Y-69696961D01*
X110115429Y-67800477D01*
X110370545Y-67630014D01*
X110482259Y-67518300D01*
X110743884Y-67317050D01*
X110801051Y-67263378D01*
X110846649Y-67199585D01*
X110878926Y-67128122D01*
X110896640Y-67051736D01*
X110900000Y-67000000D01*
X110900000Y-66986346D01*
X110905305Y-66978407D01*
X111067377Y-66587132D01*
X111150000Y-66171757D01*
X111150000Y-65748243D01*
X111067377Y-65332868D01*
X110905305Y-64941593D01*
X110900000Y-64933654D01*
X110900000Y-63300000D01*
X111961523Y-63300000D01*
X112200001Y-63538478D01*
X112200000Y-65745658D01*
X112170717Y-65789483D01*
X112057644Y-66062466D01*
X112000000Y-66352263D01*
X112000000Y-66647737D01*
X112057644Y-66937534D01*
X112170717Y-67210517D01*
X112334874Y-67456194D01*
X112543806Y-67665126D01*
X112789483Y-67829283D01*
X113062466Y-67942356D01*
X113352263Y-68000000D01*
X113647737Y-68000000D01*
X113937534Y-67942356D01*
X114210517Y-67829283D01*
X114456194Y-67665126D01*
X114665126Y-67456194D01*
X114829283Y-67210517D01*
X114942356Y-66937534D01*
X115000000Y-66647737D01*
X115000000Y-66352263D01*
X114942356Y-66062466D01*
X114829283Y-65789483D01*
X114800000Y-65745658D01*
X114800000Y-63063863D01*
X114806290Y-63000000D01*
X114781190Y-62745156D01*
X114743987Y-62622511D01*
X114706855Y-62500104D01*
X114704210Y-62495155D01*
X114586141Y-62274264D01*
X114528585Y-62204133D01*
X114423687Y-62076313D01*
X114374074Y-62035597D01*
X113464403Y-61125926D01*
X113423687Y-61076313D01*
X113225736Y-60913860D01*
X112999896Y-60793145D01*
X112754845Y-60718810D01*
X112563864Y-60700000D01*
X112563861Y-60700000D01*
X112500000Y-60693710D01*
X112436139Y-60700000D01*
X110900000Y-60700000D01*
X110900000Y-60616481D01*
X111446631Y-59757489D01*
X117350000Y-59757489D01*
X117350000Y-60082511D01*
X117413408Y-60401287D01*
X117537789Y-60701568D01*
X117718361Y-60971814D01*
X117936547Y-61190000D01*
X117718361Y-61408186D01*
X117537789Y-61678432D01*
X117413408Y-61978713D01*
X117350000Y-62297489D01*
X117350000Y-62622511D01*
X117413408Y-62941287D01*
X117537789Y-63241568D01*
X117718361Y-63511814D01*
X117948186Y-63741639D01*
X118218432Y-63922211D01*
X118518713Y-64046592D01*
X118837489Y-64110000D01*
X119162511Y-64110000D01*
X119481287Y-64046592D01*
X119700000Y-63955998D01*
X119700001Y-69745657D01*
X119670717Y-69789483D01*
X119557644Y-70062466D01*
X119500000Y-70352263D01*
X119500000Y-70647737D01*
X119557644Y-70937534D01*
X119670717Y-71210517D01*
X119834874Y-71456194D01*
X120043806Y-71665126D01*
X120289483Y-71829283D01*
X120562466Y-71942356D01*
X120852263Y-72000000D01*
X121147737Y-72000000D01*
X121437534Y-71942356D01*
X121710517Y-71829283D01*
X121956194Y-71665126D01*
X122165126Y-71456194D01*
X122329283Y-71210517D01*
X122442356Y-70937534D01*
X122500000Y-70647737D01*
X122500000Y-70352263D01*
X122442356Y-70062466D01*
X122329283Y-69789483D01*
X122300000Y-69745658D01*
X122300000Y-64038477D01*
X124954074Y-61384403D01*
X125003687Y-61343687D01*
X125105194Y-61220000D01*
X125356138Y-61220000D01*
X125419999Y-61226290D01*
X125483860Y-61220000D01*
X133381523Y-61220000D01*
X138712500Y-66550978D01*
X138712501Y-69200000D01*
X137391143Y-69200000D01*
X137347318Y-69170717D01*
X137074335Y-69057644D01*
X136784538Y-69000000D01*
X136489064Y-69000000D01*
X136199267Y-69057644D01*
X135926284Y-69170717D01*
X135680607Y-69334874D01*
X135471675Y-69543806D01*
X135307518Y-69789483D01*
X135194445Y-70062466D01*
X135136801Y-70352263D01*
X135136801Y-70647737D01*
X135194445Y-70937534D01*
X135307518Y-71210517D01*
X135471675Y-71456194D01*
X135680607Y-71665126D01*
X135926284Y-71829283D01*
X136199267Y-71942356D01*
X136489064Y-72000000D01*
X136784538Y-72000000D01*
X137074335Y-71942356D01*
X137347318Y-71829283D01*
X137391143Y-71800000D01*
X138495009Y-71800000D01*
X138555645Y-71999895D01*
X138676360Y-72225735D01*
X138712501Y-72269773D01*
X138712500Y-81868639D01*
X138706210Y-81932500D01*
X138712500Y-81996361D01*
X138712500Y-81996363D01*
X138731310Y-82187344D01*
X138805645Y-82432395D01*
X138926360Y-82658235D01*
X139088813Y-82856187D01*
X139138426Y-82896903D01*
X142535601Y-86294079D01*
X142576313Y-86343687D01*
X142774264Y-86506140D01*
X143000104Y-86626855D01*
X143245155Y-86701190D01*
X143436136Y-86720000D01*
X143436139Y-86720000D01*
X143500000Y-86726290D01*
X143563861Y-86720000D01*
X144274074Y-86720000D01*
X144474152Y-86884201D01*
X144778603Y-87046932D01*
X145108950Y-87147142D01*
X145366412Y-87172500D01*
X145633588Y-87172500D01*
X145891050Y-87147142D01*
X146221397Y-87046932D01*
X146525848Y-86884201D01*
X146725926Y-86720000D01*
X148517987Y-86720000D01*
X148528880Y-86830600D01*
X148588851Y-87028299D01*
X148686239Y-87210499D01*
X148817301Y-87370199D01*
X148977001Y-87501261D01*
X149159201Y-87598649D01*
X149356900Y-87658620D01*
X149562500Y-87678870D01*
X150487500Y-87678870D01*
X150693100Y-87658620D01*
X150890799Y-87598649D01*
X151072999Y-87501261D01*
X151232699Y-87370199D01*
X151363761Y-87210499D01*
X151461149Y-87028299D01*
X151521120Y-86830600D01*
X151541370Y-86625000D01*
X151541370Y-85375000D01*
X151521120Y-85169400D01*
X151461149Y-84971701D01*
X151363761Y-84789501D01*
X151232699Y-84629801D01*
X151072999Y-84498739D01*
X150890799Y-84401351D01*
X150693100Y-84341380D01*
X150487500Y-84321130D01*
X150146920Y-84321130D01*
X149944896Y-84213145D01*
X149699845Y-84138810D01*
X149508864Y-84120000D01*
X149508861Y-84120000D01*
X149445000Y-84113710D01*
X149381139Y-84120000D01*
X146879538Y-84120000D01*
X146843686Y-84076314D01*
X146645735Y-83913860D01*
X146419895Y-83793145D01*
X146174844Y-83718810D01*
X145920000Y-83693710D01*
X145900266Y-83695654D01*
X145891050Y-83692858D01*
X145633588Y-83667500D01*
X145366412Y-83667500D01*
X145108950Y-83692858D01*
X144778603Y-83793068D01*
X144474152Y-83955799D01*
X144274074Y-84120000D01*
X144038478Y-84120000D01*
X141312500Y-81394023D01*
X141312500Y-75757489D01*
X149350000Y-75757489D01*
X149350000Y-76082511D01*
X149413408Y-76401287D01*
X149537789Y-76701568D01*
X149718361Y-76971814D01*
X149936547Y-77190000D01*
X149718361Y-77408186D01*
X149537789Y-77678432D01*
X149413408Y-77978713D01*
X149350000Y-78297489D01*
X149350000Y-78622511D01*
X149413408Y-78941287D01*
X149537789Y-79241568D01*
X149718361Y-79511814D01*
X149948186Y-79741639D01*
X150218432Y-79922211D01*
X150518713Y-80046592D01*
X150837489Y-80110000D01*
X151162511Y-80110000D01*
X151481287Y-80046592D01*
X151781568Y-79922211D01*
X152051814Y-79741639D01*
X152281639Y-79511814D01*
X152462211Y-79241568D01*
X152586592Y-78941287D01*
X152650000Y-78622511D01*
X152650000Y-78297489D01*
X152586592Y-77978713D01*
X152462211Y-77678432D01*
X152281639Y-77408186D01*
X152063453Y-77190000D01*
X152281639Y-76971814D01*
X152462211Y-76701568D01*
X152586592Y-76401287D01*
X152650000Y-76082511D01*
X152650000Y-75757489D01*
X152586592Y-75438713D01*
X152462211Y-75138432D01*
X152281639Y-74868186D01*
X152051814Y-74638361D01*
X151781568Y-74457789D01*
X151481287Y-74333408D01*
X151162511Y-74270000D01*
X150837489Y-74270000D01*
X150518713Y-74333408D01*
X150218432Y-74457789D01*
X149948186Y-74638361D01*
X149718361Y-74868186D01*
X149537789Y-75138432D01*
X149413408Y-75438713D01*
X149350000Y-75757489D01*
X141312500Y-75757489D01*
X141312500Y-71811136D01*
X141307804Y-71763452D01*
X141351261Y-71710499D01*
X141448649Y-71528299D01*
X141508620Y-71330600D01*
X141528870Y-71125000D01*
X141528870Y-69875000D01*
X141508620Y-69669400D01*
X141448649Y-69471701D01*
X141351261Y-69289501D01*
X141312500Y-69242270D01*
X141312500Y-66076360D01*
X141318790Y-66012499D01*
X141300642Y-65828243D01*
X141293690Y-65757655D01*
X141219355Y-65512604D01*
X141098640Y-65286764D01*
X140936187Y-65088813D01*
X140886580Y-65048102D01*
X136102099Y-60263621D01*
X143100000Y-60263621D01*
X143100000Y-60736379D01*
X143192230Y-61200054D01*
X143373147Y-61636826D01*
X143635798Y-62029911D01*
X143970089Y-62364202D01*
X144363174Y-62626853D01*
X144799946Y-62807770D01*
X145263621Y-62900000D01*
X145736379Y-62900000D01*
X146200054Y-62807770D01*
X146636826Y-62626853D01*
X147029911Y-62364202D01*
X147364202Y-62029911D01*
X147626853Y-61636826D01*
X147807770Y-61200054D01*
X147900000Y-60736379D01*
X147900000Y-60263621D01*
X147807770Y-59799946D01*
X147626853Y-59363174D01*
X147364202Y-58970089D01*
X147029911Y-58635798D01*
X146636826Y-58373147D01*
X146200054Y-58192230D01*
X145736379Y-58100000D01*
X145263621Y-58100000D01*
X144799946Y-58192230D01*
X144363174Y-58373147D01*
X143970089Y-58635798D01*
X143635798Y-58970089D01*
X143373147Y-59363174D01*
X143192230Y-59799946D01*
X143100000Y-60263621D01*
X136102099Y-60263621D01*
X134884403Y-59045926D01*
X134843687Y-58996313D01*
X134645736Y-58833860D01*
X134419896Y-58713145D01*
X134174845Y-58638810D01*
X133983864Y-58620000D01*
X133983861Y-58620000D01*
X133920000Y-58613710D01*
X133856139Y-58620000D01*
X133604093Y-58620000D01*
X133638424Y-58506827D01*
X133653870Y-58350000D01*
X133653870Y-56650000D01*
X133638424Y-56493173D01*
X133592679Y-56342372D01*
X133518393Y-56203394D01*
X133418422Y-56081578D01*
X133296606Y-55981607D01*
X133157628Y-55907321D01*
X133006827Y-55861576D01*
X132850000Y-55846130D01*
X131150000Y-55846130D01*
X130993173Y-55861576D01*
X130842372Y-55907321D01*
X130703394Y-55981607D01*
X130581578Y-56081578D01*
X130484372Y-56200025D01*
X130241568Y-56037789D01*
X129941287Y-55913408D01*
X129622511Y-55850000D01*
X129297489Y-55850000D01*
X128978713Y-55913408D01*
X128678432Y-56037789D01*
X128408186Y-56218361D01*
X128178361Y-56448186D01*
X127997789Y-56718432D01*
X127873408Y-57018713D01*
X127810000Y-57337489D01*
X127810000Y-57662511D01*
X127873408Y-57981287D01*
X127997789Y-58281568D01*
X128178361Y-58551814D01*
X128246547Y-58620000D01*
X125958478Y-58620000D01*
X125753224Y-58414747D01*
X125842211Y-58281568D01*
X125966592Y-57981287D01*
X126030000Y-57662511D01*
X126030000Y-57337489D01*
X125966592Y-57018713D01*
X125842211Y-56718432D01*
X125661639Y-56448186D01*
X125431814Y-56218361D01*
X125161568Y-56037789D01*
X124861287Y-55913408D01*
X124542511Y-55850000D01*
X124217489Y-55850000D01*
X123898713Y-55913408D01*
X123598432Y-56037789D01*
X123328186Y-56218361D01*
X123098361Y-56448186D01*
X122917789Y-56718432D01*
X122793408Y-57018713D01*
X122730000Y-57337489D01*
X122730000Y-57662511D01*
X122793408Y-57981287D01*
X122917789Y-58281568D01*
X123080000Y-58524335D01*
X123080000Y-58620000D01*
X120024335Y-58620000D01*
X119781568Y-58457789D01*
X119481287Y-58333408D01*
X119162511Y-58270000D01*
X118837489Y-58270000D01*
X118518713Y-58333408D01*
X118218432Y-58457789D01*
X117948186Y-58638361D01*
X117718361Y-58868186D01*
X117537789Y-59138432D01*
X117413408Y-59438713D01*
X117350000Y-59757489D01*
X111446631Y-59757489D01*
X114219579Y-55400000D01*
X160834314Y-55400000D01*
X162100000Y-56665686D01*
G37*
X162100000Y-56665686D02*
X162100000Y-60229214D01*
X162018407Y-60174695D01*
X161627132Y-60012623D01*
X161211757Y-59930000D01*
X160788243Y-59930000D01*
X160372868Y-60012623D01*
X159981593Y-60174695D01*
X159629455Y-60409986D01*
X159329986Y-60709455D01*
X159094695Y-61061593D01*
X158933811Y-61450000D01*
X157257730Y-61450000D01*
X157210499Y-61411239D01*
X157028299Y-61313851D01*
X156830600Y-61253880D01*
X156625000Y-61233630D01*
X155375000Y-61233630D01*
X155169400Y-61253880D01*
X154971701Y-61313851D01*
X154789501Y-61411239D01*
X154629801Y-61542301D01*
X154498739Y-61702001D01*
X154401351Y-61884201D01*
X154341380Y-62081900D01*
X154321130Y-62287500D01*
X154321130Y-62340392D01*
X150614162Y-66047361D01*
X150562466Y-66057644D01*
X150289483Y-66170717D01*
X150043806Y-66334874D01*
X149834874Y-66543806D01*
X149670717Y-66789483D01*
X149557644Y-67062466D01*
X149500000Y-67352263D01*
X149500000Y-67647737D01*
X149557644Y-67937534D01*
X149670717Y-68210517D01*
X149834874Y-68456194D01*
X150043806Y-68665126D01*
X150289483Y-68829283D01*
X150562466Y-68942356D01*
X150852263Y-69000000D01*
X151147737Y-69000000D01*
X151437534Y-68942356D01*
X151710517Y-68829283D01*
X151956194Y-68665126D01*
X152165126Y-68456194D01*
X152329283Y-68210517D01*
X152442356Y-67937534D01*
X152452639Y-67885838D01*
X154321130Y-66017348D01*
X154321130Y-66187500D01*
X154341380Y-66393100D01*
X154401351Y-66590799D01*
X154498739Y-66772999D01*
X154629801Y-66932699D01*
X154700000Y-66990310D01*
X154700001Y-71745657D01*
X154670717Y-71789483D01*
X154557644Y-72062466D01*
X154500000Y-72352263D01*
X154500000Y-72647737D01*
X154557644Y-72937534D01*
X154670717Y-73210517D01*
X154834874Y-73456194D01*
X155043806Y-73665126D01*
X155289483Y-73829283D01*
X155562466Y-73942356D01*
X155852263Y-74000000D01*
X156147737Y-74000000D01*
X156437534Y-73942356D01*
X156710517Y-73829283D01*
X156956194Y-73665126D01*
X157165126Y-73456194D01*
X157329283Y-73210517D01*
X157442356Y-72937534D01*
X157500000Y-72647737D01*
X157500000Y-72352263D01*
X157442356Y-72062466D01*
X157329283Y-71789483D01*
X157300000Y-71745658D01*
X157300000Y-67025000D01*
X159080857Y-67025000D01*
X159094695Y-67058407D01*
X159329986Y-67410545D01*
X159629455Y-67710014D01*
X159841894Y-67851961D01*
X159695286Y-67866401D01*
X159497380Y-67926435D01*
X159314990Y-68023925D01*
X159155124Y-68155124D01*
X159023925Y-68314990D01*
X158926435Y-68497380D01*
X158866401Y-68695286D01*
X158846130Y-68901100D01*
X158846130Y-69177104D01*
X158733280Y-69549121D01*
X158688872Y-70000000D01*
X158733280Y-70450879D01*
X158846130Y-70822896D01*
X158846130Y-71098900D01*
X158866401Y-71304714D01*
X158926435Y-71502620D01*
X159023925Y-71685010D01*
X159155124Y-71844876D01*
X159314990Y-71976075D01*
X159497380Y-72073565D01*
X159695286Y-72133599D01*
X159901100Y-72153870D01*
X160177104Y-72153870D01*
X160549121Y-72266720D01*
X160887016Y-72300000D01*
X162100000Y-72300000D01*
X162100000Y-77229214D01*
X162018407Y-77174695D01*
X161627132Y-77012623D01*
X161211757Y-76930000D01*
X160788243Y-76930000D01*
X160372868Y-77012623D01*
X159981593Y-77174695D01*
X159629455Y-77409986D01*
X159329986Y-77709455D01*
X159094695Y-78061593D01*
X158932623Y-78452868D01*
X158850000Y-78868243D01*
X158850000Y-79291757D01*
X158932623Y-79707132D01*
X159094695Y-80098407D01*
X159329986Y-80450545D01*
X159629455Y-80750014D01*
X159981593Y-80985305D01*
X160161922Y-81060000D01*
X159981593Y-81134695D01*
X159676817Y-81338340D01*
X158702639Y-80364162D01*
X158692356Y-80312466D01*
X158579283Y-80039483D01*
X158415126Y-79793806D01*
X158206194Y-79584874D01*
X157960517Y-79420717D01*
X157687534Y-79307644D01*
X157397737Y-79250000D01*
X157102263Y-79250000D01*
X156812466Y-79307644D01*
X156539483Y-79420717D01*
X156293806Y-79584874D01*
X156084874Y-79793806D01*
X155920717Y-80039483D01*
X155807644Y-80312466D01*
X155750000Y-80602263D01*
X155750000Y-80897737D01*
X155807644Y-81187534D01*
X155920717Y-81460517D01*
X156084874Y-81706194D01*
X156293806Y-81915126D01*
X156539483Y-82079283D01*
X156812466Y-82192356D01*
X156864162Y-82202639D01*
X158575601Y-83914079D01*
X158616313Y-83963687D01*
X158814264Y-84126140D01*
X159040104Y-84246855D01*
X159099973Y-84265016D01*
X154107215Y-88350000D01*
X113399589Y-88350000D01*
X107900000Y-83567748D01*
X107900000Y-82214073D01*
X109766861Y-80969499D01*
X110018407Y-80865305D01*
X110370545Y-80630014D01*
X110559457Y-80441102D01*
X110721880Y-80332820D01*
X110782547Y-80283138D01*
X110832355Y-80222576D01*
X110869391Y-80153460D01*
X110892232Y-80078446D01*
X110900000Y-80000000D01*
X110900000Y-79986346D01*
X110905305Y-79978407D01*
X111067377Y-79587132D01*
X111150000Y-79171757D01*
X111150000Y-78748243D01*
X111067377Y-78332868D01*
X110905305Y-77941593D01*
X110892336Y-77922183D01*
X110892314Y-77921964D01*
X110869552Y-77846927D01*
X110832588Y-77777772D01*
X110782843Y-77717157D01*
X110743884Y-77682950D01*
X110720431Y-77664909D01*
X110670014Y-77589455D01*
X110370545Y-77289986D01*
X110018407Y-77054695D01*
X109838078Y-76980000D01*
X110018407Y-76905305D01*
X110370545Y-76670014D01*
X110670014Y-76370545D01*
X110717151Y-76300000D01*
X112676190Y-76300000D01*
X112761658Y-76357108D01*
X113034641Y-76470181D01*
X113324438Y-76527825D01*
X113619912Y-76527825D01*
X113909709Y-76470181D01*
X114182692Y-76357108D01*
X114428369Y-76192951D01*
X114637301Y-75984019D01*
X114801458Y-75738342D01*
X114914531Y-75465359D01*
X114972175Y-75175562D01*
X114972175Y-74880088D01*
X114914531Y-74590291D01*
X114801458Y-74317308D01*
X114637301Y-74071631D01*
X114428369Y-73862699D01*
X114182692Y-73698542D01*
X113909709Y-73585469D01*
X113619912Y-73527825D01*
X113324438Y-73527825D01*
X113034641Y-73585469D01*
X112761658Y-73698542D01*
X112759476Y-73700000D01*
X110717151Y-73700000D01*
X110670014Y-73629455D01*
X110370545Y-73329986D01*
X110018407Y-73094695D01*
X109627132Y-72932623D01*
X109211757Y-72850000D01*
X108788243Y-72850000D01*
X108372868Y-72932623D01*
X107981593Y-73094695D01*
X107650000Y-73316258D01*
X107650000Y-69696961D01*
X110115429Y-67800477D01*
X110370545Y-67630014D01*
X110482259Y-67518300D01*
X110743884Y-67317050D01*
X110801051Y-67263378D01*
X110846649Y-67199585D01*
X110878926Y-67128122D01*
X110896640Y-67051736D01*
X110900000Y-67000000D01*
X110900000Y-66986346D01*
X110905305Y-66978407D01*
X111067377Y-66587132D01*
X111150000Y-66171757D01*
X111150000Y-65748243D01*
X111067377Y-65332868D01*
X110905305Y-64941593D01*
X110900000Y-64933654D01*
X110900000Y-63300000D01*
X111961523Y-63300000D01*
X112200001Y-63538478D01*
X112200000Y-65745658D01*
X112170717Y-65789483D01*
X112057644Y-66062466D01*
X112000000Y-66352263D01*
X112000000Y-66647737D01*
X112057644Y-66937534D01*
X112170717Y-67210517D01*
X112334874Y-67456194D01*
X112543806Y-67665126D01*
X112789483Y-67829283D01*
X113062466Y-67942356D01*
X113352263Y-68000000D01*
X113647737Y-68000000D01*
X113937534Y-67942356D01*
X114210517Y-67829283D01*
X114456194Y-67665126D01*
X114665126Y-67456194D01*
X114829283Y-67210517D01*
X114942356Y-66937534D01*
X115000000Y-66647737D01*
X115000000Y-66352263D01*
X114942356Y-66062466D01*
X114829283Y-65789483D01*
X114800000Y-65745658D01*
X114800000Y-63063863D01*
X114806290Y-63000000D01*
X114781190Y-62745156D01*
X114743987Y-62622511D01*
X114706855Y-62500104D01*
X114704210Y-62495155D01*
X114586141Y-62274264D01*
X114528585Y-62204133D01*
X114423687Y-62076313D01*
X114374074Y-62035597D01*
X113464403Y-61125926D01*
X113423687Y-61076313D01*
X113225736Y-60913860D01*
X112999896Y-60793145D01*
X112754845Y-60718810D01*
X112563864Y-60700000D01*
X112563861Y-60700000D01*
X112500000Y-60693710D01*
X112436139Y-60700000D01*
X110900000Y-60700000D01*
X110900000Y-60616481D01*
X111446631Y-59757489D01*
X117350000Y-59757489D01*
X117350000Y-60082511D01*
X117413408Y-60401287D01*
X117537789Y-60701568D01*
X117718361Y-60971814D01*
X117936547Y-61190000D01*
X117718361Y-61408186D01*
X117537789Y-61678432D01*
X117413408Y-61978713D01*
X117350000Y-62297489D01*
X117350000Y-62622511D01*
X117413408Y-62941287D01*
X117537789Y-63241568D01*
X117718361Y-63511814D01*
X117948186Y-63741639D01*
X118218432Y-63922211D01*
X118518713Y-64046592D01*
X118837489Y-64110000D01*
X119162511Y-64110000D01*
X119481287Y-64046592D01*
X119700000Y-63955998D01*
X119700001Y-69745657D01*
X119670717Y-69789483D01*
X119557644Y-70062466D01*
X119500000Y-70352263D01*
X119500000Y-70647737D01*
X119557644Y-70937534D01*
X119670717Y-71210517D01*
X119834874Y-71456194D01*
X120043806Y-71665126D01*
X120289483Y-71829283D01*
X120562466Y-71942356D01*
X120852263Y-72000000D01*
X121147737Y-72000000D01*
X121437534Y-71942356D01*
X121710517Y-71829283D01*
X121956194Y-71665126D01*
X122165126Y-71456194D01*
X122329283Y-71210517D01*
X122442356Y-70937534D01*
X122500000Y-70647737D01*
X122500000Y-70352263D01*
X122442356Y-70062466D01*
X122329283Y-69789483D01*
X122300000Y-69745658D01*
X122300000Y-64038477D01*
X124954074Y-61384403D01*
X125003687Y-61343687D01*
X125105194Y-61220000D01*
X125356138Y-61220000D01*
X125419999Y-61226290D01*
X125483860Y-61220000D01*
X133381523Y-61220000D01*
X138712500Y-66550978D01*
X138712501Y-69200000D01*
X137391143Y-69200000D01*
X137347318Y-69170717D01*
X137074335Y-69057644D01*
X136784538Y-69000000D01*
X136489064Y-69000000D01*
X136199267Y-69057644D01*
X135926284Y-69170717D01*
X135680607Y-69334874D01*
X135471675Y-69543806D01*
X135307518Y-69789483D01*
X135194445Y-70062466D01*
X135136801Y-70352263D01*
X135136801Y-70647737D01*
X135194445Y-70937534D01*
X135307518Y-71210517D01*
X135471675Y-71456194D01*
X135680607Y-71665126D01*
X135926284Y-71829283D01*
X136199267Y-71942356D01*
X136489064Y-72000000D01*
X136784538Y-72000000D01*
X137074335Y-71942356D01*
X137347318Y-71829283D01*
X137391143Y-71800000D01*
X138495009Y-71800000D01*
X138555645Y-71999895D01*
X138676360Y-72225735D01*
X138712501Y-72269773D01*
X138712500Y-81868639D01*
X138706210Y-81932500D01*
X138712500Y-81996361D01*
X138712500Y-81996363D01*
X138731310Y-82187344D01*
X138805645Y-82432395D01*
X138926360Y-82658235D01*
X139088813Y-82856187D01*
X139138426Y-82896903D01*
X142535601Y-86294079D01*
X142576313Y-86343687D01*
X142774264Y-86506140D01*
X143000104Y-86626855D01*
X143245155Y-86701190D01*
X143436136Y-86720000D01*
X143436139Y-86720000D01*
X143500000Y-86726290D01*
X143563861Y-86720000D01*
X144274074Y-86720000D01*
X144474152Y-86884201D01*
X144778603Y-87046932D01*
X145108950Y-87147142D01*
X145366412Y-87172500D01*
X145633588Y-87172500D01*
X145891050Y-87147142D01*
X146221397Y-87046932D01*
X146525848Y-86884201D01*
X146725926Y-86720000D01*
X148517987Y-86720000D01*
X148528880Y-86830600D01*
X148588851Y-87028299D01*
X148686239Y-87210499D01*
X148817301Y-87370199D01*
X148977001Y-87501261D01*
X149159201Y-87598649D01*
X149356900Y-87658620D01*
X149562500Y-87678870D01*
X150487500Y-87678870D01*
X150693100Y-87658620D01*
X150890799Y-87598649D01*
X151072999Y-87501261D01*
X151232699Y-87370199D01*
X151363761Y-87210499D01*
X151461149Y-87028299D01*
X151521120Y-86830600D01*
X151541370Y-86625000D01*
X151541370Y-85375000D01*
X151521120Y-85169400D01*
X151461149Y-84971701D01*
X151363761Y-84789501D01*
X151232699Y-84629801D01*
X151072999Y-84498739D01*
X150890799Y-84401351D01*
X150693100Y-84341380D01*
X150487500Y-84321130D01*
X150146920Y-84321130D01*
X149944896Y-84213145D01*
X149699845Y-84138810D01*
X149508864Y-84120000D01*
X149508861Y-84120000D01*
X149445000Y-84113710D01*
X149381139Y-84120000D01*
X146879538Y-84120000D01*
X146843686Y-84076314D01*
X146645735Y-83913860D01*
X146419895Y-83793145D01*
X146174844Y-83718810D01*
X145920000Y-83693710D01*
X145900266Y-83695654D01*
X145891050Y-83692858D01*
X145633588Y-83667500D01*
X145366412Y-83667500D01*
X145108950Y-83692858D01*
X144778603Y-83793068D01*
X144474152Y-83955799D01*
X144274074Y-84120000D01*
X144038478Y-84120000D01*
X141312500Y-81394023D01*
X141312500Y-75757489D01*
X149350000Y-75757489D01*
X149350000Y-76082511D01*
X149413408Y-76401287D01*
X149537789Y-76701568D01*
X149718361Y-76971814D01*
X149936547Y-77190000D01*
X149718361Y-77408186D01*
X149537789Y-77678432D01*
X149413408Y-77978713D01*
X149350000Y-78297489D01*
X149350000Y-78622511D01*
X149413408Y-78941287D01*
X149537789Y-79241568D01*
X149718361Y-79511814D01*
X149948186Y-79741639D01*
X150218432Y-79922211D01*
X150518713Y-80046592D01*
X150837489Y-80110000D01*
X151162511Y-80110000D01*
X151481287Y-80046592D01*
X151781568Y-79922211D01*
X152051814Y-79741639D01*
X152281639Y-79511814D01*
X152462211Y-79241568D01*
X152586592Y-78941287D01*
X152650000Y-78622511D01*
X152650000Y-78297489D01*
X152586592Y-77978713D01*
X152462211Y-77678432D01*
X152281639Y-77408186D01*
X152063453Y-77190000D01*
X152281639Y-76971814D01*
X152462211Y-76701568D01*
X152586592Y-76401287D01*
X152650000Y-76082511D01*
X152650000Y-75757489D01*
X152586592Y-75438713D01*
X152462211Y-75138432D01*
X152281639Y-74868186D01*
X152051814Y-74638361D01*
X151781568Y-74457789D01*
X151481287Y-74333408D01*
X151162511Y-74270000D01*
X150837489Y-74270000D01*
X150518713Y-74333408D01*
X150218432Y-74457789D01*
X149948186Y-74638361D01*
X149718361Y-74868186D01*
X149537789Y-75138432D01*
X149413408Y-75438713D01*
X149350000Y-75757489D01*
X141312500Y-75757489D01*
X141312500Y-71811136D01*
X141307804Y-71763452D01*
X141351261Y-71710499D01*
X141448649Y-71528299D01*
X141508620Y-71330600D01*
X141528870Y-71125000D01*
X141528870Y-69875000D01*
X141508620Y-69669400D01*
X141448649Y-69471701D01*
X141351261Y-69289501D01*
X141312500Y-69242270D01*
X141312500Y-66076360D01*
X141318790Y-66012499D01*
X141300642Y-65828243D01*
X141293690Y-65757655D01*
X141219355Y-65512604D01*
X141098640Y-65286764D01*
X140936187Y-65088813D01*
X140886580Y-65048102D01*
X136102099Y-60263621D01*
X143100000Y-60263621D01*
X143100000Y-60736379D01*
X143192230Y-61200054D01*
X143373147Y-61636826D01*
X143635798Y-62029911D01*
X143970089Y-62364202D01*
X144363174Y-62626853D01*
X144799946Y-62807770D01*
X145263621Y-62900000D01*
X145736379Y-62900000D01*
X146200054Y-62807770D01*
X146636826Y-62626853D01*
X147029911Y-62364202D01*
X147364202Y-62029911D01*
X147626853Y-61636826D01*
X147807770Y-61200054D01*
X147900000Y-60736379D01*
X147900000Y-60263621D01*
X147807770Y-59799946D01*
X147626853Y-59363174D01*
X147364202Y-58970089D01*
X147029911Y-58635798D01*
X146636826Y-58373147D01*
X146200054Y-58192230D01*
X145736379Y-58100000D01*
X145263621Y-58100000D01*
X144799946Y-58192230D01*
X144363174Y-58373147D01*
X143970089Y-58635798D01*
X143635798Y-58970089D01*
X143373147Y-59363174D01*
X143192230Y-59799946D01*
X143100000Y-60263621D01*
X136102099Y-60263621D01*
X134884403Y-59045926D01*
X134843687Y-58996313D01*
X134645736Y-58833860D01*
X134419896Y-58713145D01*
X134174845Y-58638810D01*
X133983864Y-58620000D01*
X133983861Y-58620000D01*
X133920000Y-58613710D01*
X133856139Y-58620000D01*
X133604093Y-58620000D01*
X133638424Y-58506827D01*
X133653870Y-58350000D01*
X133653870Y-56650000D01*
X133638424Y-56493173D01*
X133592679Y-56342372D01*
X133518393Y-56203394D01*
X133418422Y-56081578D01*
X133296606Y-55981607D01*
X133157628Y-55907321D01*
X133006827Y-55861576D01*
X132850000Y-55846130D01*
X131150000Y-55846130D01*
X130993173Y-55861576D01*
X130842372Y-55907321D01*
X130703394Y-55981607D01*
X130581578Y-56081578D01*
X130484372Y-56200025D01*
X130241568Y-56037789D01*
X129941287Y-55913408D01*
X129622511Y-55850000D01*
X129297489Y-55850000D01*
X128978713Y-55913408D01*
X128678432Y-56037789D01*
X128408186Y-56218361D01*
X128178361Y-56448186D01*
X127997789Y-56718432D01*
X127873408Y-57018713D01*
X127810000Y-57337489D01*
X127810000Y-57662511D01*
X127873408Y-57981287D01*
X127997789Y-58281568D01*
X128178361Y-58551814D01*
X128246547Y-58620000D01*
X125958478Y-58620000D01*
X125753224Y-58414747D01*
X125842211Y-58281568D01*
X125966592Y-57981287D01*
X126030000Y-57662511D01*
X126030000Y-57337489D01*
X125966592Y-57018713D01*
X125842211Y-56718432D01*
X125661639Y-56448186D01*
X125431814Y-56218361D01*
X125161568Y-56037789D01*
X124861287Y-55913408D01*
X124542511Y-55850000D01*
X124217489Y-55850000D01*
X123898713Y-55913408D01*
X123598432Y-56037789D01*
X123328186Y-56218361D01*
X123098361Y-56448186D01*
X122917789Y-56718432D01*
X122793408Y-57018713D01*
X122730000Y-57337489D01*
X122730000Y-57662511D01*
X122793408Y-57981287D01*
X122917789Y-58281568D01*
X123080000Y-58524335D01*
X123080000Y-58620000D01*
X120024335Y-58620000D01*
X119781568Y-58457789D01*
X119481287Y-58333408D01*
X119162511Y-58270000D01*
X118837489Y-58270000D01*
X118518713Y-58333408D01*
X118218432Y-58457789D01*
X117948186Y-58638361D01*
X117718361Y-58868186D01*
X117537789Y-59138432D01*
X117413408Y-59438713D01*
X117350000Y-59757489D01*
X111446631Y-59757489D01*
X114219579Y-55400000D01*
X160834314Y-55400000D01*
X162100000Y-56665686D01*
G36*
X169575001Y-94575000D02*
G01*
X100425000Y-94575000D01*
X100425000Y-90763621D01*
X101600000Y-90763621D01*
X101600000Y-91236379D01*
X101692230Y-91700054D01*
X101873147Y-92136826D01*
X102135798Y-92529911D01*
X102470089Y-92864202D01*
X102863174Y-93126853D01*
X103299946Y-93307770D01*
X103763621Y-93400000D01*
X104236379Y-93400000D01*
X104700054Y-93307770D01*
X105136826Y-93126853D01*
X105529911Y-92864202D01*
X105864202Y-92529911D01*
X106126853Y-92136826D01*
X106307770Y-91700054D01*
X106400000Y-91236379D01*
X106400000Y-90763621D01*
X106307770Y-90299946D01*
X106126853Y-89863174D01*
X105864202Y-89470089D01*
X105529911Y-89135798D01*
X105136826Y-88873147D01*
X104700054Y-88692230D01*
X104236379Y-88600000D01*
X103763621Y-88600000D01*
X103299946Y-88692230D01*
X102863174Y-88873147D01*
X102470089Y-89135798D01*
X102135798Y-89470089D01*
X101873147Y-89863174D01*
X101692230Y-90299946D01*
X101600000Y-90763621D01*
X100425000Y-90763621D01*
X100425000Y-69250000D01*
X106350000Y-69250000D01*
X106350000Y-75750000D01*
X106357686Y-75828036D01*
X106380448Y-75903073D01*
X106417412Y-75972228D01*
X106467157Y-76032843D01*
X106510000Y-76070000D01*
X109350000Y-78200000D01*
X109350000Y-79780421D01*
X106785250Y-81412535D01*
X106723540Y-81460915D01*
X106672455Y-81520405D01*
X106633956Y-81588717D01*
X106609525Y-81663228D01*
X106600000Y-81750000D01*
X106600000Y-84000000D01*
X106607686Y-84078036D01*
X106630448Y-84153073D01*
X106667412Y-84222228D01*
X106736598Y-84301031D01*
X112736598Y-89551031D01*
X112800388Y-89596634D01*
X112871848Y-89628916D01*
X112948233Y-89646636D01*
X113000000Y-89650000D01*
X144986510Y-89650000D01*
X145108950Y-89687142D01*
X145366412Y-89712500D01*
X145633588Y-89712500D01*
X145891050Y-89687142D01*
X146013490Y-89650000D01*
X154500000Y-89650000D01*
X154578036Y-89642314D01*
X154653073Y-89619552D01*
X154748753Y-89563244D01*
X160364309Y-85103832D01*
X160372868Y-85107377D01*
X160788243Y-85190000D01*
X161211757Y-85190000D01*
X161627132Y-85107377D01*
X162018407Y-84945305D01*
X162370545Y-84710014D01*
X162670014Y-84410545D01*
X162905305Y-84058407D01*
X163067377Y-83667132D01*
X163150000Y-83251757D01*
X163150000Y-82891666D01*
X163248753Y-82813244D01*
X163305084Y-82758696D01*
X163349691Y-82694206D01*
X163380860Y-82622253D01*
X163397392Y-82545602D01*
X163400000Y-82500000D01*
X163400000Y-80380000D01*
X163911925Y-80380000D01*
X164062466Y-80442356D01*
X164352263Y-80500000D01*
X164647737Y-80500000D01*
X164937534Y-80442356D01*
X165210517Y-80329283D01*
X165456194Y-80165126D01*
X165665126Y-79956194D01*
X165829283Y-79710517D01*
X165942356Y-79437534D01*
X166000000Y-79147737D01*
X166000000Y-78852263D01*
X165942356Y-78562466D01*
X165829283Y-78289483D01*
X165665126Y-78043806D01*
X165456194Y-77834874D01*
X165210517Y-77670717D01*
X164937534Y-77557644D01*
X164647737Y-77500000D01*
X164352263Y-77500000D01*
X164062466Y-77557644D01*
X163789483Y-77670717D01*
X163625930Y-77780000D01*
X163400000Y-77780000D01*
X163400000Y-63300000D01*
X163745658Y-63300000D01*
X163789483Y-63329283D01*
X164062466Y-63442356D01*
X164352263Y-63500000D01*
X164647737Y-63500000D01*
X164937534Y-63442356D01*
X165210517Y-63329283D01*
X165456194Y-63165126D01*
X165665126Y-62956194D01*
X165829283Y-62710517D01*
X165942356Y-62437534D01*
X166000000Y-62147737D01*
X166000000Y-61852263D01*
X165942356Y-61562466D01*
X165829283Y-61289483D01*
X165665126Y-61043806D01*
X165456194Y-60834874D01*
X165210517Y-60670717D01*
X164937534Y-60557644D01*
X164647737Y-60500000D01*
X164352263Y-60500000D01*
X164062466Y-60557644D01*
X163789483Y-60670717D01*
X163745658Y-60700000D01*
X163400000Y-60700000D01*
X163400000Y-56000000D01*
X163392314Y-55921964D01*
X163369552Y-55846927D01*
X163332588Y-55777772D01*
X163282843Y-55717157D01*
X161782843Y-54217157D01*
X161722228Y-54167412D01*
X161653073Y-54130448D01*
X161578036Y-54107686D01*
X161500524Y-54100000D01*
X113750524Y-54037500D01*
X113672477Y-54045084D01*
X113597410Y-54067748D01*
X113528207Y-54104622D01*
X113467528Y-54154287D01*
X113413881Y-54220649D01*
X109707310Y-59965834D01*
X109627132Y-59932623D01*
X109211757Y-59850000D01*
X108788243Y-59850000D01*
X108372868Y-59932623D01*
X107981593Y-60094695D01*
X107629455Y-60329986D01*
X107329986Y-60629455D01*
X107094695Y-60981593D01*
X106932623Y-61372868D01*
X106850000Y-61788243D01*
X106850000Y-62211757D01*
X106932623Y-62627132D01*
X107094695Y-63018407D01*
X107329986Y-63370545D01*
X107629455Y-63670014D01*
X107981593Y-63905305D01*
X108372868Y-64067377D01*
X108788243Y-64150000D01*
X109211757Y-64150000D01*
X109600000Y-64072774D01*
X109600000Y-66314480D01*
X106491623Y-68944645D01*
X106437016Y-69000920D01*
X106394437Y-69066766D01*
X106365522Y-69139654D01*
X106350000Y-69250000D01*
X100425000Y-69250000D01*
X100425000Y-53763621D01*
X101600000Y-53763621D01*
X101600000Y-54236379D01*
X101692230Y-54700054D01*
X101873147Y-55136826D01*
X102135798Y-55529911D01*
X102470089Y-55864202D01*
X102863174Y-56126853D01*
X103299946Y-56307770D01*
X103763621Y-56400000D01*
X104236379Y-56400000D01*
X104700054Y-56307770D01*
X105136826Y-56126853D01*
X105529911Y-55864202D01*
X105864202Y-55529911D01*
X106126853Y-55136826D01*
X106307770Y-54700054D01*
X106400000Y-54236379D01*
X106400000Y-53763621D01*
X106307770Y-53299946D01*
X106126853Y-52863174D01*
X105864202Y-52470089D01*
X105529911Y-52135798D01*
X105136826Y-51873147D01*
X104700054Y-51692230D01*
X104236379Y-51600000D01*
X103763621Y-51600000D01*
X103299946Y-51692230D01*
X102863174Y-51873147D01*
X102470089Y-52135798D01*
X102135798Y-52470089D01*
X101873147Y-52863174D01*
X101692230Y-53299946D01*
X101600000Y-53763621D01*
X100425000Y-53763621D01*
X100425000Y-50425000D01*
X169575000Y-50425000D01*
X169575001Y-94575000D01*
G37*
X169575001Y-94575000D02*
X100425000Y-94575000D01*
X100425000Y-90763621D01*
X101600000Y-90763621D01*
X101600000Y-91236379D01*
X101692230Y-91700054D01*
X101873147Y-92136826D01*
X102135798Y-92529911D01*
X102470089Y-92864202D01*
X102863174Y-93126853D01*
X103299946Y-93307770D01*
X103763621Y-93400000D01*
X104236379Y-93400000D01*
X104700054Y-93307770D01*
X105136826Y-93126853D01*
X105529911Y-92864202D01*
X105864202Y-92529911D01*
X106126853Y-92136826D01*
X106307770Y-91700054D01*
X106400000Y-91236379D01*
X106400000Y-90763621D01*
X106307770Y-90299946D01*
X106126853Y-89863174D01*
X105864202Y-89470089D01*
X105529911Y-89135798D01*
X105136826Y-88873147D01*
X104700054Y-88692230D01*
X104236379Y-88600000D01*
X103763621Y-88600000D01*
X103299946Y-88692230D01*
X102863174Y-88873147D01*
X102470089Y-89135798D01*
X102135798Y-89470089D01*
X101873147Y-89863174D01*
X101692230Y-90299946D01*
X101600000Y-90763621D01*
X100425000Y-90763621D01*
X100425000Y-69250000D01*
X106350000Y-69250000D01*
X106350000Y-75750000D01*
X106357686Y-75828036D01*
X106380448Y-75903073D01*
X106417412Y-75972228D01*
X106467157Y-76032843D01*
X106510000Y-76070000D01*
X109350000Y-78200000D01*
X109350000Y-79780421D01*
X106785250Y-81412535D01*
X106723540Y-81460915D01*
X106672455Y-81520405D01*
X106633956Y-81588717D01*
X106609525Y-81663228D01*
X106600000Y-81750000D01*
X106600000Y-84000000D01*
X106607686Y-84078036D01*
X106630448Y-84153073D01*
X106667412Y-84222228D01*
X106736598Y-84301031D01*
X112736598Y-89551031D01*
X112800388Y-89596634D01*
X112871848Y-89628916D01*
X112948233Y-89646636D01*
X113000000Y-89650000D01*
X144986510Y-89650000D01*
X145108950Y-89687142D01*
X145366412Y-89712500D01*
X145633588Y-89712500D01*
X145891050Y-89687142D01*
X146013490Y-89650000D01*
X154500000Y-89650000D01*
X154578036Y-89642314D01*
X154653073Y-89619552D01*
X154748753Y-89563244D01*
X160364309Y-85103832D01*
X160372868Y-85107377D01*
X160788243Y-85190000D01*
X161211757Y-85190000D01*
X161627132Y-85107377D01*
X162018407Y-84945305D01*
X162370545Y-84710014D01*
X162670014Y-84410545D01*
X162905305Y-84058407D01*
X163067377Y-83667132D01*
X163150000Y-83251757D01*
X163150000Y-82891666D01*
X163248753Y-82813244D01*
X163305084Y-82758696D01*
X163349691Y-82694206D01*
X163380860Y-82622253D01*
X163397392Y-82545602D01*
X163400000Y-82500000D01*
X163400000Y-80380000D01*
X163911925Y-80380000D01*
X164062466Y-80442356D01*
X164352263Y-80500000D01*
X164647737Y-80500000D01*
X164937534Y-80442356D01*
X165210517Y-80329283D01*
X165456194Y-80165126D01*
X165665126Y-79956194D01*
X165829283Y-79710517D01*
X165942356Y-79437534D01*
X166000000Y-79147737D01*
X166000000Y-78852263D01*
X165942356Y-78562466D01*
X165829283Y-78289483D01*
X165665126Y-78043806D01*
X165456194Y-77834874D01*
X165210517Y-77670717D01*
X164937534Y-77557644D01*
X164647737Y-77500000D01*
X164352263Y-77500000D01*
X164062466Y-77557644D01*
X163789483Y-77670717D01*
X163625930Y-77780000D01*
X163400000Y-77780000D01*
X163400000Y-63300000D01*
X163745658Y-63300000D01*
X163789483Y-63329283D01*
X164062466Y-63442356D01*
X164352263Y-63500000D01*
X164647737Y-63500000D01*
X164937534Y-63442356D01*
X165210517Y-63329283D01*
X165456194Y-63165126D01*
X165665126Y-62956194D01*
X165829283Y-62710517D01*
X165942356Y-62437534D01*
X166000000Y-62147737D01*
X166000000Y-61852263D01*
X165942356Y-61562466D01*
X165829283Y-61289483D01*
X165665126Y-61043806D01*
X165456194Y-60834874D01*
X165210517Y-60670717D01*
X164937534Y-60557644D01*
X164647737Y-60500000D01*
X164352263Y-60500000D01*
X164062466Y-60557644D01*
X163789483Y-60670717D01*
X163745658Y-60700000D01*
X163400000Y-60700000D01*
X163400000Y-56000000D01*
X163392314Y-55921964D01*
X163369552Y-55846927D01*
X163332588Y-55777772D01*
X163282843Y-55717157D01*
X161782843Y-54217157D01*
X161722228Y-54167412D01*
X161653073Y-54130448D01*
X161578036Y-54107686D01*
X161500524Y-54100000D01*
X113750524Y-54037500D01*
X113672477Y-54045084D01*
X113597410Y-54067748D01*
X113528207Y-54104622D01*
X113467528Y-54154287D01*
X113413881Y-54220649D01*
X109707310Y-59965834D01*
X109627132Y-59932623D01*
X109211757Y-59850000D01*
X108788243Y-59850000D01*
X108372868Y-59932623D01*
X107981593Y-60094695D01*
X107629455Y-60329986D01*
X107329986Y-60629455D01*
X107094695Y-60981593D01*
X106932623Y-61372868D01*
X106850000Y-61788243D01*
X106850000Y-62211757D01*
X106932623Y-62627132D01*
X107094695Y-63018407D01*
X107329986Y-63370545D01*
X107629455Y-63670014D01*
X107981593Y-63905305D01*
X108372868Y-64067377D01*
X108788243Y-64150000D01*
X109211757Y-64150000D01*
X109600000Y-64072774D01*
X109600000Y-66314480D01*
X106491623Y-68944645D01*
X106437016Y-69000920D01*
X106394437Y-69066766D01*
X106365522Y-69139654D01*
X106350000Y-69250000D01*
X100425000Y-69250000D01*
X100425000Y-53763621D01*
X101600000Y-53763621D01*
X101600000Y-54236379D01*
X101692230Y-54700054D01*
X101873147Y-55136826D01*
X102135798Y-55529911D01*
X102470089Y-55864202D01*
X102863174Y-56126853D01*
X103299946Y-56307770D01*
X103763621Y-56400000D01*
X104236379Y-56400000D01*
X104700054Y-56307770D01*
X105136826Y-56126853D01*
X105529911Y-55864202D01*
X105864202Y-55529911D01*
X106126853Y-55136826D01*
X106307770Y-54700054D01*
X106400000Y-54236379D01*
X106400000Y-53763621D01*
X106307770Y-53299946D01*
X106126853Y-52863174D01*
X105864202Y-52470089D01*
X105529911Y-52135798D01*
X105136826Y-51873147D01*
X104700054Y-51692230D01*
X104236379Y-51600000D01*
X103763621Y-51600000D01*
X103299946Y-51692230D01*
X102863174Y-51873147D01*
X102470089Y-52135798D01*
X102135798Y-52470089D01*
X101873147Y-52863174D01*
X101692230Y-53299946D01*
X101600000Y-53763621D01*
X100425000Y-53763621D01*
X100425000Y-50425000D01*
X169575000Y-50425000D01*
X169575001Y-94575000D01*
M02*
